<svg width="21" height="20" fill="none" xmlns="http://www.w3.org/2000/svg"><path d="M9.75 19a.75.75 0 0 0 1.5 0h-1.5Zm1.5-18a.75.75 0 0 0-1.5 0h1.5Zm5.935 18a.75.75 0 0 0 1.5 0h-1.5Zm1.5-18a.75.75 0 0 0-1.5 0h1.5ZM2.315 19a.75.75 0 0 0 1.5 0h-1.5Zm1.5-18a.75.75 0 0 0-1.5 0h1.5ZM9.75 7.955V19h1.5V7.955h-1.5ZM9.75 1v2.864h1.5V1h-1.5Zm2.065 4.91c0 .708-.582 1.295-1.315 1.295v1.5c1.548 0 2.815-1.245 2.815-2.796h-1.5ZM10.5 7.204a1.305 1.305 0 0 1-1.315-1.296h-1.5c0 1.55 1.267 2.796 2.815 2.796v-1.5ZM9.185 5.909c0-.709.582-1.295 1.315-1.295v-1.5c-1.548 0-2.815 1.244-2.815 2.795h1.5ZM10.5 4.614c.733 0 1.315.586 1.315 1.295h1.5c0-1.55-1.267-2.795-2.815-2.795v1.5Zm6.685 11.522V19h1.5v-2.864h-1.5Zm0-15.136v11.046h1.5V1h-1.5Zm2.065 13.09c0 .71-.582 1.296-1.315 1.296v1.5c1.548 0 2.815-1.244 2.815-2.795h-1.5Zm-1.315 1.296a1.305 1.305 0 0 1-1.315-1.295h-1.5c0 1.55 1.267 2.795 2.815 2.795v-1.5Zm-1.315-1.295c0-.709.582-1.295 1.315-1.295v-1.5c-1.548 0-2.815 1.244-2.815 2.795h1.5Zm1.315-1.295c.733 0 1.315.586 1.315 1.295h1.5c0-1.55-1.267-2.795-2.815-2.795v1.5Zm-15.62.068V19h1.5v-6.136h-1.5ZM2.315 1v7.773h1.5V1h-1.5Zm2.065 9.818c0 .709-.582 1.296-1.315 1.296v1.5c1.548 0 2.815-1.245 2.815-2.796h-1.5Zm-1.315 1.296a1.305 1.305 0 0 1-1.315-1.296H.25c0 1.55 1.267 2.796 2.815 2.796v-1.5ZM1.75 10.818c0-.708.582-1.295 1.315-1.295v-1.5C1.517 8.023.25 9.268.25 10.818h1.5Zm1.315-1.295c.733 0 1.315.587 1.315 1.295h1.5c0-1.55-1.267-2.795-2.815-2.795v1.5Z" fill="#15A3D7"/></svg>