<svg width="22" height="20" fill="none" xmlns="http://www.w3.org/2000/svg"><path d="M.85 18.594a.75.75 0 0 0 1.3.75l-1.3-.75Zm18.946.75a.75.75 0 1 0 1.299-.75l-1.3.75ZM16.473 7.25a5.5 5.5 0 0 1-5.5 5.5v1.5a7 7 0 0 0 7-7h-1.5Zm-5.5 5.5a5.5 5.5 0 0 1-5.5-5.5h-1.5a7 7 0 0 0 7 7v-1.5Zm-5.5-5.5a5.5 5.5 0 0 1 5.5-5.5V.25a7 7 0 0 0-7 7h1.5Zm5.5-5.5a5.5 5.5 0 0 1 5.5 5.5h1.5a7 7 0 0 0-7-7v1.5ZM2.15 19.344a10.188 10.188 0 0 1 3.728-3.73l-.75-1.299A11.688 11.688 0 0 0 .85 18.594l1.3.75Zm3.728-3.73a10.187 10.187 0 0 1 5.095-1.364v-1.5c-2.052 0-4.068.54-5.845 1.565l.75 1.3Zm5.095-1.364c1.788 0 3.545.47 5.094 1.364l.75-1.299a11.688 11.688 0 0 0-5.844-1.565v1.5Zm5.094 1.364a10.188 10.188 0 0 1 3.729 3.73l1.299-.75a11.69 11.69 0 0 0-4.278-4.279l-.75 1.3Z" fill="#0C93CF"/></svg>