<svg width="38" height="40" viewBox="0 0 38 40" fill="none" xmlns="http://www.w3.org/2000/svg">
<path d="M28.375 0.6875C23.2172 0.6875 19 4.90469 19 10.0625C19 11.6125 19.5984 13.1938 20.3672 14.9453C21.1359 16.6969 22.1063 18.5535 23.1016 20.2676C25.0906 23.6973 27.1055 26.5664 27.1055 26.5664L28.375 28.4219L29.6445 26.5664C29.6445 26.5664 31.6578 23.6973 33.6484 20.2676C34.6437 18.552 35.6141 16.6969 36.3828 14.9453C37.1516 13.1938 37.75 11.6125 37.75 10.0625C37.75 4.90469 33.5328 0.6875 28.375 0.6875ZM12.7012 3.71484L0.25 9.03711V39.0176L12.7988 33.5977L25.2988 38.2852L37.75 32.9629V19.3398C36.7547 21.2508 35.65 23.0812 34.625 24.7109V30.9121L26.8125 34.2324V31.6934L24.5176 28.373C24.2738 28.0184 23.9859 27.5977 23.6875 27.1523V34.3789L14.3125 30.8633V7.62109L16.0215 8.25586C16.1746 7.19961 16.4484 6.18164 16.8516 5.22852L12.7012 3.71484ZM28.375 3.8125C31.8422 3.8125 34.625 6.59531 34.625 10.0625C34.625 10.6672 34.2477 12.0945 33.5508 13.6758C32.8555 15.257 31.8719 17.0504 30.9141 18.7051C29.6391 20.902 29.0891 21.6859 28.375 22.7609C27.6609 21.6859 27.1109 20.902 25.8359 18.7051C24.8781 17.0504 23.8961 15.257 23.1992 13.6758C22.5039 12.0945 22.125 10.6672 22.125 10.0625C22.125 6.59531 24.9078 3.8125 28.375 3.8125ZM11.1875 7.71875V30.9121L3.375 34.2324V11.0879L11.1875 7.71875Z" fill="#AEBED2"/>
</svg>
