<svg width="38" height="50" viewBox="0 0 38 50" fill="none" xmlns="http://www.w3.org/2000/svg">
<path d="M10.8125 0C10.3359 0.0898438 9.99219 0.511719 10 1V5C10 5.55078 10.4492 6 11 6H12V20.5938C12.0078 20.9688 12.2266 21.3047 12.5625 21.4688L20 25.1875V26.4062L6.40625 23.4062C5.90625 23.293 5.41016 23.6055 5.25 24.0938L4.625 25.9688L3.59375 25.6875L3.875 24.6562L1.9375 24.125L0.8125 28.0625L2.75 28.625L3.03125 27.5938L4 27.875L3.3125 29.9375C3.22656 30.1914 3.25391 30.4805 3.375 30.7188C3.49609 30.957 3.71094 31.1406 3.96875 31.2188C5.03516 31.5469 5.76562 32.1016 6 32.8125C6.25391 33.5859 5.86328 34.3477 5.5 34.8438C-0.449219 42.9609 2.70703 48.9062 2.84375 49.1562C2.97656 49.3984 3.19922 49.5898 3.46875 49.6562C3.80469 49.7383 4.95312 50 6.125 50C6.95312 50 7.78906 49.8516 8.375 49.4375C8.85938 49.0938 9.16406 48.6172 9.21875 48.0312C9.51562 44.9531 10.1953 44.543 10.875 44.1562C11.332 43.8945 11.8945 43.582 12.2812 42.8125C12.6602 42.0586 12.5898 41.1875 12.5 40.2812C12.3281 38.5273 12.1992 37.1523 14.75 36.25L17.0938 36.75C16.332 38.7109 15.8789 39.8828 15.375 41.2188C14.75 42.875 14.9688 44.2773 15.4062 45.1875C15.8438 46.0977 16.5312 46.5938 16.5312 46.5938C16.8203 46.8359 17.2188 46.8945 17.5625 46.7461C17.9102 46.5977 18.1445 46.2695 18.168 45.8945C18.1953 45.5195 18.0078 45.1641 17.6875 44.9688C17.6875 44.9688 17.418 44.7969 17.1875 44.3125C16.957 43.8281 16.7969 43.1094 17.25 41.9062C18.2344 39.2969 20.0781 34.5664 20.6562 33.0938C21.4219 32.9062 22 32.2344 22 31.4062C22 30.4336 21.2227 29.625 20.25 29.625C19.2773 29.625 18.5 30.4336 18.5 31.4062C18.5 31.7695 18.625 32.0977 18.8125 32.375C18.6523 32.7812 18.1992 33.9297 17.8438 34.8438L14.875 34.2188C14.7031 34.1797 14.5391 34.1953 14.375 34.25C10.0312 35.6406 10.3203 38.6875 10.5 40.5C10.5547 41.0586 10.6172 41.668 10.5 41.9062C10.3945 42.1172 10.2852 42.2227 9.90625 42.4375C8.70703 43.125 7.58984 44.0508 7.25 47.8125C6.98828 48.0664 5.68359 48.0547 4.4375 47.8125C3.93359 46.5039 2.74219 42.0078 7.125 36.0312C8.03125 34.7969 8.28516 33.4219 7.875 32.1875C7.51953 31.1133 6.69141 30.2305 5.5 29.6562L6.875 25.5625L30.0312 30.6562L28.7812 37.2188L21.3438 35.625L20.7188 37.5312L28.4375 39.1875L28.4062 39.2812C28.3516 39.543 28.4023 39.8164 28.5508 40.0391C28.6953 40.2617 28.9258 40.418 29.1875 40.4688L32.1562 41.0312C32.2188 41.0469 32.2812 41.0586 32.3438 41.0625C32.832 41.0703 33.2539 40.7266 33.3438 40.25L33.4062 39.9062C34.2812 39.8164 35.0859 39.3828 35.75 38.7812C36.6641 37.9531 37.3242 36.7617 37.5938 35.375C37.8633 33.9883 37.6953 32.6445 37.1562 31.5312C36.7617 30.7188 36.1562 30.0352 35.375 29.625L35.4375 29.3438C35.4922 29.0781 35.4375 28.8008 35.2852 28.5781C35.1289 28.3555 34.8906 28.2031 34.625 28.1562L31.6562 27.5938C31.5234 27.5664 31.3828 27.5664 31.25 27.5938C30.8594 27.6875 30.5625 28.0078 30.5 28.4062L30.4375 28.6875L26 27.7188V25.1875L33.4375 21.4688C33.7734 21.3047 33.9922 20.9688 34 20.5938V6H35C35.5508 6 36 5.55078 36 5V1C36 0.449219 35.5508 0 35 0H11C10.9688 0 10.9375 0 10.9062 0C10.875 0 10.8438 0 10.8125 0ZM12 2H34V4H32V3H30V4H28V3H26V4H24V3H22V4H20V3H18V4H16V3H14V4H12V2ZM14 6H32V19.9688L24.5625 23.6875C24.2148 23.8555 23.9961 24.207 24 24.5938V27.2812L22 26.8438V24.5938C22.0039 24.207 21.7852 23.8555 21.4375 23.6875L14 19.9688V6ZM32.25 29.75L33.2812 29.9375L31.5625 38.875L30.5312 38.6875L30.5625 38.5938L32.1875 30.0625L32.25 29.75ZM34.9688 31.8125C35.1211 31.9805 35.2578 32.1641 35.375 32.4062C35.6992 33.0781 35.8477 34.0078 35.6562 35C35.4648 35.9922 34.9609 36.8086 34.4062 37.3125C34.2148 37.4844 34.0352 37.6172 33.8438 37.7188L34.9688 31.8125Z" fill="#AEBED2"/>
</svg>
