<svg width="44" height="44" viewBox="0 0 44 44" fill="none" xmlns="http://www.w3.org/2000/svg">
<path d="M23.6875 32.2812C23.6875 36.9688 27.5938 40.875 32.2812 40.875C34.1562 40.875 35.7188 40.25 37.125 39.3125L41.8125 44L44 41.8125L39.3125 37.125C40.25 35.7188 40.875 34 40.875 32.2812C40.875 27.5938 36.9688 23.6875 32.2812 23.6875C27.5938 23.6875 23.6875 27.5938 23.6875 32.2812ZM37.75 32.2812C37.75 35.25 35.25 37.75 32.2812 37.75C29.3125 37.75 26.8125 35.25 26.8125 32.2812C26.8125 29.3125 29.3125 26.8125 32.2812 26.8125C35.25 26.8125 37.75 29.3125 37.75 32.2812ZM23.3453 24.6266C23.3594 24.6375 23.3734 24.6516 23.3875 24.6625C24.0766 23.8594 24.8656 23.1453 25.7469 22.5531C24.6141 21.6219 23.3594 20.8344 21.9922 20.25C24.8984 18.2812 26.8125 14.9547 26.8125 11.1875C26.8125 5.15625 21.9062 0.25 15.875 0.25C9.84375 0.25 4.9375 5.15625 4.9375 11.1875C4.9375 14.9531 6.85 18.2812 9.75469 20.2484C4.17188 22.6344 0.25 28.1797 0.25 34.625H3.375C3.375 30.5438 5.34063 26.9125 8.37656 24.6297C10.1234 26.9547 12.8844 28.375 15.875 28.375C18.8594 28.375 21.5984 26.9438 23.3453 24.6266ZM15.875 25.25C14.0188 25.25 12.2937 24.4281 11.1234 23.0625C12.5891 22.4578 14.1938 22.125 15.875 22.125C17.5547 22.125 19.1563 22.4625 20.6203 23.0672C19.4516 24.4297 17.7297 25.25 15.875 25.25ZM15.875 19C11.5672 19 8.0625 15.4953 8.0625 11.1875C8.0625 6.87969 11.5672 3.375 15.875 3.375C20.1828 3.375 23.6875 6.87969 23.6875 11.1875C23.6875 15.4953 20.1828 19 15.875 19Z" fill="#AEBED2"/>
</svg>
