<svg width="185" height="40" viewBox="0 0 185 40" fill="none" xmlns="http://www.w3.org/2000/svg">
<path fill-rule="evenodd" clip-rule="evenodd" d="M37.0456 22.5094L40.4928 28.501L37.8209 33.1321L34.3778 39.1006H34.3773L27.4867 39.0773L23.5435 39.0641L27.0704 33.0957L30.9303 33.1088L31.0278 33.1092C31.1847 32.8259 31.3474 32.5328 31.5157 32.2296L31.843 31.6396H31.8435C32.3707 30.6898 32.9509 29.6469 33.5882 28.5018L33.5913 28.4969L20.663 6.02653L20.6483 6.00114H20.6476L17.2285 0.0584755L17.2295 0.0584717L17.2293 0.0580864L18.0786 0.0549507L18.0746 0.0315018L19.069 0.0306854L24.1061 0.0261803L24.1065 0.0265503L27.4864 0.0238571L27.4863 0.0236168L34.3767 -3.43323e-05L34.377 0.000476837H34.3772L35.4814 1.91446L37.1242 4.76169L37.8205 5.96891L45.6821 19.5161L42.1712 25.5555L30.9296 5.99215L27.5441 5.99484L27.5442 5.99507L27.5492 6.00316L37.0456 22.5094Z" fill="#4A3AFF"/>
<path fill-rule="evenodd" clip-rule="evenodd" d="M18.08 39.0458L17.4436 37.9367L17.4439 37.9362L20.2871 33.073L23.021 28.3962L26.4844 22.4718L23.021 16.5471L19.5576 22.4718L14.0127 31.9564L14.0126 31.9567L12.1913 28.7825L12.1915 28.7822L17.6734 19.2497L21.1202 13.2961L17.6484 7.35758L14.2016 13.3111L8.65014 22.6103L8.65005 22.6104L6.89452 19.5507L6.89438 19.5505L6.89448 19.5503L14.6425 6.04692L15.7519 4.11331L13.3887 0.070919L11.1723 0.0785522L7.73444 6.07028L3.44726 13.542L2.23279 15.6588L1.25678 17.3598L0 19.5503L0.000113271 19.5505L0 19.5507L3.14698 25.0355L3.44726 25.5589L5.13456 28.4995L7.73455 33.0308L11.1702 39.0189L11.1723 39.0223L11.1724 39.0224L18.08 39.0458ZM148.913 38.2338C148.181 38.2338 147.522 38.1062 146.934 37.851C146.347 37.5958 145.846 37.2323 145.432 36.7604C145.023 36.2885 144.71 35.7203 144.493 35.0558C144.276 34.3865 144.168 33.6401 144.168 32.8167C144.168 31.7285 144.356 30.7799 144.731 29.971C145.112 29.1572 145.656 28.5264 146.364 28.0786C147.072 27.6308 147.921 27.4069 148.913 27.4069C150.021 27.4069 150.921 27.6669 151.615 28.1869C152.313 28.7022 152.799 29.3955 153.074 30.2671L152.005 30.5271C151.778 29.8915 151.405 29.3835 150.885 29.0031C150.37 28.6227 149.727 28.4325 148.957 28.4325C148.143 28.4277 147.466 28.6107 146.927 28.9814C146.388 29.3474 145.981 29.8626 145.706 30.5271C145.437 31.1868 145.3 31.95 145.295 32.8167C145.29 33.6835 145.422 34.4467 145.692 35.1064C145.966 35.7612 146.376 36.2764 146.92 36.652C147.464 37.0228 148.143 37.2106 148.957 37.2154C149.703 37.2154 150.319 37.071 150.806 36.782C151.292 36.4931 151.66 36.079 151.911 35.5397C152.166 35.0004 152.31 34.3624 152.344 33.6257H149.946V32.7156H153.456C153.471 32.8264 153.478 32.9443 153.478 33.0695C153.483 33.1899 153.485 33.2766 153.485 33.3296C153.485 34.2685 153.317 35.1088 152.98 35.8503C152.643 36.587 152.135 37.1697 151.456 37.5982C150.782 38.0219 149.934 38.2338 148.913 38.2338ZM154.931 27.6163H155.906L159.994 36.3631L164.061 27.6163H165.05V38.0099H164.039V29.9854L160.334 38.0171H159.648L155.949 29.9854V38.0171H154.931V27.6163ZM171.093 27.6163H167.077V38.0171H171.425C172.037 38.0171 172.574 37.8992 173.036 37.6632C173.498 37.4273 173.857 37.0926 174.112 36.6593C174.367 36.2211 174.495 35.701 174.495 35.0991C174.495 34.4154 174.302 33.8327 173.917 33.3512C173.622 32.9826 173.243 32.6987 172.779 32.4994C173.081 32.3264 173.335 32.0903 173.542 31.7911C173.84 31.3529 173.989 30.8545 173.989 30.296C173.989 29.8048 173.869 29.357 173.628 28.9526C173.387 28.5433 173.05 28.2182 172.617 27.9775C172.184 27.7367 171.676 27.6163 171.093 27.6163ZM171.165 36.9987H168.146V33.0551H171.36C171.75 33.0551 172.097 33.149 172.4 33.3368C172.708 33.5198 172.952 33.7653 173.13 34.0735C173.308 34.3817 173.397 34.7284 173.397 35.1136C173.397 35.5084 173.298 35.8455 173.101 36.1248C172.908 36.404 172.643 36.6207 172.306 36.7748C171.969 36.9241 171.589 36.9987 171.165 36.9987ZM171.086 32.0511H168.146V28.6203H171.086C171.611 28.6203 172.042 28.7744 172.379 29.0826C172.721 29.3907 172.891 29.7904 172.891 30.2815C172.891 30.6282 172.81 30.934 172.646 31.1988C172.487 31.4637 172.27 31.6731 171.996 31.8272C171.721 31.9765 171.418 32.0511 171.086 32.0511ZM175.936 27.6163H176.998V32.3039H182.747V27.6163H183.802V38.0171H182.747V33.3223H176.998V38.0171H175.936V27.6163ZM71.4443 19.5087C72.3616 19.906 73.3909 20.1046 74.5321 20.1046C75.3338 20.1046 76.0994 20.0035 76.8289 19.8013C77.5656 19.599 78.2193 19.2957 78.7899 18.8912C79.3605 18.4867 79.8119 17.9811 80.1441 17.3744C80.4836 16.7605 80.6534 16.049 80.6534 15.2401C80.6534 14.46 80.5089 13.8172 80.22 13.3116C79.9383 12.806 79.5772 12.3979 79.1366 12.0873C78.696 11.7768 78.2373 11.5348 77.7606 11.3614C77.2839 11.1881 76.8542 11.0509 76.4714 10.9497L73.6761 10.1697C73.3222 10.0758 72.9719 9.96023 72.6252 9.823C72.2858 9.67854 72.0005 9.48714 71.7693 9.24879C71.5382 9.00321 71.4226 8.68902 71.4226 8.30621C71.4226 7.90174 71.5563 7.54782 71.8235 7.24446C72.098 6.94111 72.4555 6.70998 72.8961 6.55108C73.3439 6.38496 73.8278 6.3055 74.3479 6.31273C74.8824 6.32718 75.3843 6.43552 75.8538 6.63775C76.3305 6.83999 76.7314 7.13613 77.0564 7.52616C77.3887 7.90896 77.6126 8.37483 77.7281 8.92376L80.5342 8.43622C80.303 7.4756 79.9058 6.65581 79.3424 5.97687C78.779 5.29793 78.0784 4.7815 77.2406 4.42759C76.4027 4.06644 75.4493 3.88226 74.3804 3.87504C73.3258 3.86782 72.3652 4.03394 71.4985 4.37341C70.639 4.71288 69.9528 5.2257 69.44 5.91187C68.9344 6.59081 68.6816 7.43226 68.6816 8.43622C68.6816 9.12239 68.7936 9.70021 69.0175 10.1697C69.2486 10.6319 69.5411 11.0148 69.895 11.3181C70.2562 11.6142 70.6354 11.849 71.0326 12.0223C71.4371 12.1885 71.8127 12.3221 72.1594 12.4232L76.1897 13.615C76.4786 13.7016 76.7314 13.8064 76.9481 13.9291C77.172 14.0447 77.3525 14.1747 77.4898 14.3192C77.6342 14.4636 77.7426 14.6298 77.8148 14.8175C77.887 14.9981 77.9231 15.1967 77.9231 15.4134C77.9231 15.8974 77.7679 16.3054 77.4573 16.6377C77.1539 16.9699 76.7567 17.2227 76.2655 17.3961C75.7744 17.5694 75.2507 17.6561 74.6946 17.6561C73.7556 17.6561 72.925 17.4033 72.2027 16.8977C71.4876 16.3921 71.0146 15.6771 70.7834 14.7525L68.0749 15.1642C68.2338 16.1826 68.6058 17.0638 69.1908 17.8078C69.7831 18.5445 70.5342 19.1115 71.4443 19.5087ZM56.2304 4.1784V19.7796H66.3062V17.3311H58.8415V12.9216H65.0061V10.473H58.8415V6.62692H66.3062V4.1784H56.2304ZM93.1109 20.1046C91.9697 20.1046 90.9405 19.906 90.0232 19.5087C89.1131 19.1115 88.362 18.5445 87.7697 17.8078C87.1847 17.0638 86.8127 16.1826 86.6538 15.1642L89.3623 14.7525C89.5935 15.6771 90.0665 16.3921 90.7816 16.8977C91.5039 17.4033 92.3345 17.6561 93.2735 17.6561C93.8296 17.6561 94.3533 17.5694 94.8444 17.3961C95.3356 17.2227 95.7328 16.9699 96.0362 16.6377C96.3467 16.3054 96.502 15.8974 96.502 15.4134C96.502 15.1967 96.4659 14.9981 96.3937 14.8175C96.3215 14.6298 96.2131 14.4636 96.0687 14.3192C95.9314 14.1747 95.7509 14.0447 95.527 13.9291C95.3103 13.8064 95.0575 13.7016 94.7686 13.615L90.7383 12.4232C90.3916 12.3221 90.016 12.1885 89.6115 12.0223C89.2143 11.849 88.8351 11.6142 88.4739 11.3181C88.12 11.0148 87.8275 10.6319 87.5964 10.1697C87.3724 9.70021 87.2605 9.12239 87.2605 8.43622C87.2605 7.43226 87.5133 6.59081 88.0189 5.91187C88.5317 5.2257 89.2179 4.71288 90.0774 4.37341C90.9441 4.03394 91.9047 3.86782 92.9593 3.87504C94.0282 3.88226 94.9816 4.06644 95.8195 4.42759C96.6573 4.7815 97.3579 5.29793 97.9213 5.97687C98.4847 6.65581 98.8819 7.4756 99.1131 8.43622L96.307 8.92376C96.1915 8.37483 95.9675 7.90896 95.6353 7.52616C95.3103 7.13613 94.9094 6.83999 94.4327 6.63775C93.9632 6.43552 93.4612 6.32718 92.9268 6.31273C92.4067 6.3055 91.9228 6.38496 91.475 6.55108C91.0344 6.70998 90.6769 6.94111 90.4024 7.24446C90.1352 7.54782 90.0015 7.90174 90.0015 8.30621C90.0015 8.68902 90.1171 9.00321 90.3482 9.24879C90.5794 9.48714 90.8647 9.67854 91.2041 9.823C91.5508 9.96023 91.9011 10.0758 92.255 10.1697L95.0503 10.9497C95.4331 11.0509 95.8628 11.1881 96.3395 11.3614C96.8162 11.5348 97.2749 11.7768 97.7155 12.0873C98.1561 12.3979 98.5172 12.806 98.7989 13.3116C99.0878 13.8172 99.2322 14.46 99.2322 15.2401C99.2322 16.049 99.0625 16.7605 98.723 17.3744C98.3908 17.9811 97.9394 18.4867 97.3688 18.8912C96.7982 19.2957 96.1445 19.599 95.4078 19.8013C94.6783 20.0035 93.9127 20.1046 93.1109 20.1046ZM104.713 13.3874V19.7796H107.357V13.3874L112.655 4.1784H109.61L106.035 10.3972L102.449 4.1784H99.4046L104.713 13.3874ZM119.286 20.1046C118.145 20.1046 117.116 19.906 116.199 19.5087C115.289 19.1115 114.537 18.5445 113.945 17.8078C113.36 17.0638 112.988 16.1826 112.829 15.1642L115.538 14.7525C115.769 15.6771 116.242 16.3921 116.957 16.8977C117.679 17.4033 118.51 17.6561 119.449 17.6561C120.005 17.6561 120.529 17.5694 121.02 17.3961C121.511 17.2227 121.908 16.9699 122.212 16.6377C122.522 16.3054 122.678 15.8974 122.678 15.4134C122.678 15.1967 122.641 14.9981 122.569 14.8175C122.497 14.6298 122.389 14.4636 122.244 14.3192C122.107 14.1747 121.926 14.0447 121.702 13.9291C121.486 13.8064 121.233 13.7016 120.944 13.615L116.914 12.4232C116.567 12.3221 116.191 12.1885 115.787 12.0223C115.39 11.849 115.011 11.6142 114.649 11.3181C114.296 11.0148 114.003 10.6319 113.772 10.1697C113.548 9.70021 113.436 9.12239 113.436 8.43622C113.436 7.43226 113.689 6.59081 114.194 5.91187C114.707 5.2257 115.393 4.71288 116.253 4.37341C117.12 4.03394 118.08 3.86782 119.135 3.87504C120.204 3.88226 121.157 4.06644 121.995 4.42759C122.833 4.7815 123.533 5.29793 124.097 5.97687C124.66 6.65581 125.057 7.4756 125.289 8.43622L122.483 8.92376C122.367 8.37483 122.143 7.90896 121.811 7.52616C121.486 7.13613 121.085 6.83999 120.608 6.63775C120.139 6.43552 119.637 6.32718 119.102 6.31273C118.582 6.3055 118.098 6.38496 117.65 6.55108C117.21 6.70998 116.852 6.94111 116.578 7.24446C116.311 7.54782 116.177 7.90174 116.177 8.30621C116.177 8.68902 116.293 9.00321 116.524 9.24879C116.755 9.48714 117.04 9.67854 117.38 9.823C117.726 9.96023 118.077 10.0758 118.431 10.1697L121.226 10.9497C121.609 11.0509 122.038 11.1881 122.515 11.3614C122.992 11.5348 123.45 11.7768 123.891 12.0873C124.332 12.3979 124.693 12.806 124.974 13.3116C125.263 13.8172 125.408 14.46 125.408 15.2401C125.408 16.049 125.238 16.7605 124.899 17.3744C124.566 17.9811 124.115 18.4867 123.544 18.8912C122.974 19.2957 122.32 19.599 121.583 19.8013C120.854 20.0035 120.088 20.1046 119.286 20.1046ZM131.501 6.62692V19.7796H134.112V6.62692H139.161V4.1784H126.453V6.62692H131.501ZM140.893 19.7796V4.1784H150.969V6.62692H143.505V10.473H149.669V12.9216H143.505V17.3311H150.969V19.7796H140.893ZM153.569 4.1784V19.7796H156.017V9.77966L160.795 19.7796H161.835L166.624 9.77966V19.7796H169.061V4.1784H166.71L161.315 15.2292L155.92 4.1784H153.569ZM177.88 20.1046C176.739 20.1046 175.709 19.906 174.792 19.5087C173.882 19.1115 173.131 18.5445 172.539 17.8078C171.953 17.0638 171.582 16.1826 171.423 15.1642L174.131 14.7525C174.362 15.6771 174.835 16.3921 175.55 16.8977C176.273 17.4033 177.103 17.6561 178.042 17.6561C178.598 17.6561 179.122 17.5694 179.613 17.3961C180.104 17.2227 180.502 16.9699 180.805 16.6377C181.116 16.3054 181.271 15.8974 181.271 15.4134C181.271 15.1967 181.235 14.9981 181.163 14.8175C181.09 14.6298 180.982 14.4636 180.837 14.3192C180.7 14.1747 180.52 14.0447 180.296 13.9291C180.079 13.8064 179.826 13.7016 179.537 13.615L175.507 12.4232C175.16 12.3221 174.785 12.1885 174.38 12.0223C173.983 11.849 173.604 11.6142 173.243 11.3181C172.889 11.0148 172.596 10.6319 172.365 10.1697C172.141 9.70021 172.029 9.12239 172.029 8.43622C172.029 7.43226 172.282 6.59081 172.788 5.91187C173.301 5.2257 173.987 4.71288 174.846 4.37341C175.713 4.03394 176.674 3.86782 177.728 3.87504C178.797 3.88226 179.75 4.06644 180.588 4.42759C181.426 4.7815 182.127 5.29793 182.69 5.97687C183.254 6.65581 183.651 7.4756 183.882 8.43622L181.076 8.92376C180.96 8.37483 180.736 7.90896 180.404 7.52616C180.079 7.13613 179.678 6.83999 179.202 6.63775C178.732 6.43552 178.23 6.32718 177.696 6.31273C177.176 6.3055 176.692 6.38496 176.244 6.55108C175.803 6.70998 175.446 6.94111 175.171 7.24446C174.904 7.54782 174.77 7.90174 174.77 8.30621C174.77 8.68902 174.886 9.00321 175.117 9.24879C175.348 9.48714 175.633 9.67854 175.973 9.823C176.32 9.96023 176.67 10.0758 177.024 10.1697L179.819 10.9497C180.202 11.0509 180.632 11.1881 181.108 11.3614C181.585 11.5348 182.044 11.7768 182.484 12.0873C182.925 12.3979 183.286 12.806 183.568 13.3116C183.857 13.8172 184.001 14.46 184.001 15.2401C184.001 16.049 183.831 16.7605 183.492 17.3744C183.16 17.9811 182.708 18.4867 182.138 18.8912C181.567 19.2957 180.913 19.599 180.177 19.8013C179.447 20.0035 178.682 20.1046 177.88 20.1046Z" fill="white"/>
</svg>
