<svg width="44" height="42" viewBox="0 0 44 42" fill="none" xmlns="http://www.w3.org/2000/svg">
<path d="M22.0006 0C13.1759 0 6.00057 7.17529 6.00057 16C6.00057 24.4822 12.6494 31.3711 21.0006 31.8984V36H2.00057C1.86806 35.9981 1.7365 36.0226 1.61353 36.072C1.49056 36.1214 1.37864 36.1948 1.28427 36.2878C1.1899 36.3809 1.11496 36.4918 1.06381 36.614C1.01267 36.7363 0.986328 36.8675 0.986328 37C0.986328 37.1325 1.01267 37.2637 1.06381 37.386C1.11496 37.5082 1.1899 37.6191 1.28427 37.7122C1.37864 37.8052 1.49056 37.8786 1.61353 37.928C1.7365 37.9774 1.86806 38.0019 2.00057 38H21.8326C21.9406 38.0178 22.0508 38.0178 22.1588 38H42.0006C42.1331 38.0019 42.2646 37.9774 42.3876 37.928C42.5106 37.8786 42.6225 37.8052 42.7169 37.7122C42.8112 37.6191 42.8862 37.5082 42.9373 37.386C42.9885 37.2637 43.0148 37.1325 43.0148 37C43.0148 36.8675 42.9885 36.7363 42.9373 36.614C42.8862 36.4918 42.8112 36.3809 42.7169 36.2878C42.6225 36.1948 42.5106 36.1214 42.3876 36.072C42.2646 36.0226 42.1331 35.9981 42.0006 36H23.0006V31.8984C31.3517 31.3711 38.0006 24.4822 38.0006 16C38.0006 7.17529 30.8253 0 22.0006 0ZM22.0006 2C22.6817 2 23.3457 2.06465 24.0006 2.1582V7.40625C23.3383 7.25021 22.7094 7 22.0006 7C21.2917 7 20.6628 7.25021 20.0006 7.40625V2.1582C20.6554 2.06465 21.3194 2 22.0006 2ZM18.0006 2.58594V8C18.0009 8.01564 18.0015 8.03127 18.0025 8.04688C16.2901 8.91514 14.9157 10.2895 14.0474 12.002C14.0318 12.0009 14.0162 12.0003 14.0006 12H8.58651C9.92821 7.48028 13.4809 3.92764 18.0006 2.58594ZM26.0006 2.58594C30.5203 3.92764 34.0729 7.48028 35.4146 12H30.0006C29.9849 12.0003 29.9693 12.0009 29.9537 12.002C29.0854 10.2895 27.7111 8.91514 25.9986 8.04688C25.9996 8.03127 26.0003 8.01564 26.0006 8V2.58594ZM22.0006 9C25.8784 9 29.0006 12.1222 29.0006 16C29.0006 19.8778 25.8784 23 22.0006 23C18.1227 23 15.0006 19.8778 15.0006 16C15.0006 12.1222 18.1227 9 22.0006 9ZM8.15877 14H13.4068C13.2508 14.6622 13.0006 15.2912 13.0006 16C13.0006 16.7088 13.2508 17.3378 13.4068 18H8.15877C8.06516 17.3452 8.00057 16.6812 8.00057 16C8.00057 15.3189 8.06522 14.6549 8.15877 14ZM30.5943 14H35.8424C35.9359 14.6549 36.0006 15.3189 36.0006 16C36.0006 16.681 35.9359 17.3454 35.8424 18H30.5943C30.7504 17.3378 31.0006 16.7088 31.0006 16C31.0006 15.2912 30.7504 14.6622 30.5943 14ZM14.0474 19.998C14.9157 21.7105 16.2901 23.0849 18.0025 23.9531C18.0015 23.9687 18.0009 23.9844 18.0006 24V29.4023C13.4826 28.0616 9.92656 24.5162 8.58455 20H14.0006C14.0162 19.9997 14.0318 19.9991 14.0474 19.998ZM29.9537 19.998C29.9693 19.9991 29.9849 19.9997 30.0006 20H35.4166C34.0746 24.516 30.5184 28.0615 26.0006 29.4023V24C26.0003 23.9844 25.9996 23.9687 25.9986 23.9531C27.7111 23.0849 29.0854 21.7105 29.9537 19.998ZM20.0006 24.5938C20.6628 24.7498 21.2917 25 22.0006 25C22.7094 25 23.3383 24.7498 24.0006 24.5938V29.834C23.3748 29.9233 22.7403 29.9861 22.0904 29.9902C22.03 29.9847 21.9692 29.9847 21.9088 29.9902C21.2596 29.986 20.6257 29.9232 20.0006 29.834V24.5938ZM2.00057 40C1.86806 39.9981 1.7365 40.0226 1.61353 40.072C1.49056 40.1214 1.37864 40.1948 1.28427 40.2878C1.1899 40.3809 1.11496 40.4918 1.06381 40.614C1.01267 40.7363 0.986328 40.8675 0.986328 41C0.986328 41.1325 1.01267 41.2637 1.06381 41.386C1.11496 41.5082 1.1899 41.6191 1.28427 41.7122C1.37864 41.8052 1.49056 41.8786 1.61353 41.928C1.7365 41.9774 1.86806 42.0019 2.00057 42H42.0006C42.1331 42.0019 42.2646 41.9774 42.3876 41.928C42.5106 41.8786 42.6225 41.8052 42.7169 41.7122C42.8112 41.6191 42.8862 41.5082 42.9373 41.386C42.9885 41.2637 43.0148 41.1325 43.0148 41C43.0148 40.8675 42.9885 40.7363 42.9373 40.614C42.8862 40.4918 42.8112 40.3809 42.7169 40.2878C42.6225 40.1948 42.5106 40.1214 42.3876 40.072C42.2646 40.0226 42.1331 39.9981 42.0006 40H2.00057Z" fill="#AEBED2"/>
</svg>
