<?xml version="1.0" encoding="utf-8"?>
<!-- Generator: Adobe Illustrator 26.3.1, SVG Export Plug-In . SVG Version: 6.00 Build 0)  -->
<svg version="1.1" id="Layer_1" xmlns="http://www.w3.org/2000/svg" xmlns:xlink="http://www.w3.org/1999/xlink" x="0px" y="0px"
	 viewBox="0 0 489 217" style="enable-background:new 0 0 489 217;" xml:space="preserve">
<style type="text/css">
	.st0{fill-rule:evenodd;clip-rule:evenodd;fill:#FFFFFF;}
	.st1{fill:#A6A8AB;}
	.st2{fill:#EC1C24;}
	.st3{fill:#FFFFFF;}
</style>
<g>
	<path id="msi-corporate_x5F_identity-logo-black-cmyk_3_" class="st0" d="M404.52,140.9l17.7-48.82c0,0-13.24,0-26.47,2.66
		l-16.74,46.17H404.52z M401.49,78.9l-3.4,9.37c13.31-2.66,26.47-2.66,26.47-2.66l3.4-9.38C427.96,76.24,414.73,76.24,401.49,78.9
		 M309.19,129.32c7.96,1.45,16.17,2.21,24.54,2.21h0c8.6,0,14.84-1.92,15.52-7.76c0.33-2.78-2.3-4.78-7.11-7.43
		c-5.51-3.04-10.14-4.56-14.92-7.76c-4.79-3.2-6.85-8.24-5.24-13.58c1.88-6.23,6.26-9.85,12.93-13.26c7.82-3.99,14.02-5.5,29.11-5.5
		c9.5,0,18.79,0.92,27.78,2.66l-3.24,8.93c-7.96-1.45-16.17-2.21-24.54-2.21c-8.61,0-14.85,1.92-15.53,7.76
		c-0.32,2.79,2.3,4.79,7.12,7.44c5.5,3.04,10.14,4.55,14.92,7.76c4.79,3.2,6.85,8.24,5.24,13.58c-1.88,6.22-6.27,9.84-12.94,13.25
		c-7.82,3.99-14.02,5.49-29.1,5.49h0c-9.5,0-18.79-0.92-27.78-2.66L309.19,129.32z M270.75,140.9l14.77-40.74
		c4.93-13.58-13.15-8.62-17.19-5.5c-3.17,2.45-8.95,8.03-11.08,13.9l-11.72,32.34h0h-25.5l14.77-40.74
		c4.92-13.58-13.15-8.62-17.19-5.5c-3.17,2.45-8.96,8.03-11.09,13.9l-11.72,32.33h-25.5l23.44-64.66c8.12,0,12.51,1.87,16.2,5.5
		c1.35,1.33,2.19,3.04,2.65,4.88c4.78-2.89,9.01-5.06,11.86-6.17c5.3-2.08,11.89-4.21,20.01-4.21c8.12,0,12.51,1.87,16.2,5.5
		c1.35,1.33,2.2,3.04,2.66,4.88c4.78-2.89,9.01-5.06,11.86-6.17c5.3-2.08,11.89-4.21,20.01-4.21c8.12,0,12.51,1.87,16.2,5.5
		c3.69,3.61,3.6,10.23,2.27,13.89l-16.41,45.27H270.75z"/>
	<g>
		<path class="st1" d="M153.11,69.68c-11.36-7.83-32.13-17.47-49.35-20.65c-0.47-0.08-0.7-0.08-1.11,0
			C85.8,52.1,65.37,61.59,53.29,69.68c-0.36,0.22-0.66,0.78-0.66,1.21c-0.07,24.83,4.39,44.42,10.56,59.02
			c3.95,9.41,10.41,20.25,18.89,27.9c6.28,5.76,12.65,9.65,20.56,12.9c0.32,0.13,0.81,0.12,1.11,0c8.38-3.32,15.3-7.91,20.56-12.9
			c8.58-7.64,15.01-18.98,18.89-27.9c6.95-16.85,10.63-36.6,10.56-59.02C153.77,70.44,153.49,69.92,153.11,69.68z M140.6,128.6
			c-2.85,6.55-8.99,18.73-18.17,26.89c-5.22,4.94-11.7,9.07-18.8,12.01c-0.13,0.05-0.27,0.08-0.41,0.08c-0.14,0-0.28-0.03-0.42-0.08
			c-7.19-3.05-13.16-6.86-18.8-11.99c-7.16-6.51-13.63-16.07-18.2-26.92C59.01,112.48,55.68,93.8,55.6,72.28
			c0-0.35,0.17-0.67,0.47-0.87c13.83-9.02,32.54-16.86,46.86-19.51c0.13-0.02,0.26-0.02,0.39,0c6.01,1.12,12.39,2.98,19.55,5.7
			c10.36,3.94,20.19,8.8,27.57,13.74c0.29,0.19,0.46,0.51,0.46,0.85C150.84,93.36,147.4,112.11,140.6,128.6z"/>
		<path class="st2" d="M140.6,128.6c-2.85,6.55-8.99,18.73-18.17,26.89c-5.22,4.94-11.7,9.07-18.8,12.01
			c-0.13,0.05-0.27,0.08-0.41,0.08c-0.14,0-0.28-0.03-0.42-0.08c-7.19-3.05-13.16-6.86-18.8-11.99
			c-7.16-6.51-13.63-16.07-18.2-26.92C59.01,112.48,55.68,93.8,55.6,72.28c0-0.35,0.17-0.67,0.47-0.87
			c13.83-9.02,32.54-16.86,46.86-19.51c0.13-0.02,0.26-0.02,0.39,0c6.01,1.12,12.39,2.98,19.55,5.7
			c10.36,3.94,20.19,8.8,27.57,13.74c0.29,0.19,0.46,0.51,0.46,0.85C150.84,93.36,147.4,112.11,140.6,128.6z"/>
		<g>
			<path class="st3" d="M81.81,123.13C79.99,120.42,73.56,111.25,79,98c7.75-18.89,28.72-13.75,30.69-12.98
				c-0.02-1.77,1.12-3.17,2.96-3.58c0.59-0.13,1.06-0.12,1.59-0.08c0.15,0.01,0.22,0.11,0.1,0.14c-2.01,0.52-3.56,1.58-3.47,3.46
				c0.08,1.77,1.91,3.04,3.42,3.32l-0.01,0c0,0,1.2,0.26,2.08-0.29c0.02-0.01,0.03-0.02,0.04-0.03c0.24-0.14,0.45-0.29,0.75-0.39
				c0.63-0.2,1.27-0.25,1.92-0.09c0.19,0.04,0.53,0.34,0.83,0.32c0.2-0.01,0.49-0.32,0.77-0.33c1.2-0.04,3.83,0.91,3.9,1.53
				c0.05,0.45-0.65,0.97-1,1.24c-0.42,0.32-0.81,0.53-1.3,0.74c-0.12,0.05-0.05,0.08-0.01,0.08c2.11-0.26,5.88-1.62,5.28,0.92
				c-0.05,0.24-0.13,0.45-0.17,0.59c-0.01,0.02,0,0.07,0.05,0.05c2.05-0.71,2.71-2.52,2.42-4.95c0-0.03-0.04-0.05-0.06-0.02
				c-0.16,0.28-0.47,0.62-0.68,0.77c0,0,0-0.01,0-0.02c0-0.69,0.05-1.71-0.39-2.19c-0.02-0.02-0.04,0-0.04,0.03
				c0.19,1.26-0.48,1.87-1.41,2.31c-0.73-1.27-1.59-2.48-2.49-3.53c-0.02-0.03-0.07-0.01-0.07,0.03c-0.01,0.4-0.02,0.85-0.11,1.2
				c-0.01,0.03-0.04,0.04-0.05,0.02c-0.28-0.7-0.86-1.11-1.57-1.2c-0.48-0.07-1,0.09-1.56,0c-0.73-0.11-1.57-0.63-1.62-1.2
				c-0.09-0.9,1.54-1.33,2.37-1.55c0.2,0.42,0.41,1.02,0.59,1.56c0.03,0.08,0.06,0.05,0.08,0.04c0.77-0.59,1.96-1.48,3.47-1.53
				c0.37-0.01,1.2,0.14,1.32,0.4c0.3,0.61-0.45,1.33-0.7,1.56c-0.45,0.42-0.24,0.37-0.21,0.37c1.37-0.37,2.03-1.29,2.99-1.97
				c0.5,0.65,0.7,2.01,0.65,2.99c0,0.05,0.06,0.07,0.09,0.04c1.03-1.11,1.06-2.83,0.95-4.78c1.06,0.35,1.79,0.97,2.5,1.77
				c0.07,0.08,0.12,0.06,0.06-0.03c-0.61-1.05-1.4-1.89-2.33-2.47c-0.36-0.22-0.82-0.34-1.09-0.61c-0.25-0.24-0.55-1.1-0.88-1.16
				c-0.42-0.08-0.96,0.39-1.46,0.43c-0.86,0.06-1.34-0.54-1.51-1.4c-2.11,0.6-2.93-0.71-3.42-2.29c-0.08-0.28-0.08-0.65-0.21-0.96
				c-0.16-0.37-1-0.76-1.43-0.93c-0.6-0.23-1.32-0.33-2-0.22c-0.61,0.1-1.07,0.4-1.79,0.44c-1.73,0.1-3.55-0.75-4.95-1.44
				c-5.79-2.85-9.76-7.75-10.72-8.85c-0.12-0.14-0.14-0.03-0.1,0.06c2.18,5.52,6.3,8.83,9.56,10.93c0,0-6.63-1.46-12.73-6.34
				c-0.08-0.06-0.18-0.1-0.04,0.08c0.66,0.86,2.8,3.52,5.88,5.86l0.07,0.04c-3.16,1.28-7.82,1.79-11.58,2.62
				c-0.16,0.04-0.22,0.11-0.08,0.11c2.06,0.03,4.87,0.62,6.56,0.9c-0.02,0-0.03,0.01-0.05,0.01v0c-8.58,0.34-16.02,2.83-21.21,7.64
				c-0.07,0.06-0.02,0.12,0.07,0.09c1.25-0.48,2.41-1.05,3.81-1.38c-1.28,1.17-2.56,2.37-3.74,3.65c0,0,0,0,0,0
				c-1.71,1.9-2.45,1.75-3.28,0.47c-0.64-0.72-0.64-2.91,0.22-3.37c1.05,0.33,1.74-0.59,1.62-1.56c-0.18-1.39-1.75-2.36-2.69-2.99
				c-0.1-0.07-0.16-0.05-0.09,0.02c0.48,0.5,1.18,1,1.35,1.74c0.07,0.3,0.05,0.89-0.26,0.98c-0.49,0.14-0.78-0.4-1.25-0.33
				c-0.42,0.07-0.61,0.8-0.7,1.3c-0.09,0.5-0.14,1.34-0.11,1.92c0.01,0.31,0.13,0.81-0.11,1.05c-0.29-0.14-0.35-0.51-0.48-0.8
				c-0.46-1-1.25-2.36-0.92-3.7c0.2-0.08,0.59,0.02,0.74-0.11c0.07-0.83-0.53-1.61-1.07-2.14c-0.71-0.7-2.08-1.19-3.23-0.88
				c-0.05,0.01-0.07,0.06-0.03,0.07c0.82,0.13,2.36,0.29,2.37,1.1c0.01,0.32-0.37,0.76-0.48,1.01c-0.6,1.49,0.09,3.39,0.81,4.35
				c0.42,0.56,1.02,1.07,0.66,2.1c-0.46-0.02-0.89-0.34-1.32-0.58c-0.61-0.34-1.26-0.66-1.55-1.2c-0.31-0.58-0.33-1.18-0.73-1.63
				c-1-1.12-3.12-1.92-4.73-1.07c-0.05,0.03-0.05,0.09,0.01,0.09c1.31-0.04,2.5,0.09,3.03,0.95c0.24,0.4,0.39,1.06,0.44,1.67
				c0.02,0.24-0.05,0.56,0.07,0.76c0.21,0.35,0.87,0.29,1.25,0.51c0.51,0.3,0.82,1.1,1.39,1.59c0.14,0.12,0.32,0.27,0.48,0.36
				c0.88,0.53,2.71,0.92,3.42,1.63c1.06,1.07,0.52,2.89,0.12,4.07c-0.45,1.15-0.76,2.44-0.81,3.93c0,0.05,0.06,0.1,0.09,0.07
				c1.03-1,2.07-2.27,3.47-2.99c-1.21,2.46-2.26,5.29-3.09,8.26c-0.72,2.57-1.77,6.85-0.15,9.31c0.02,0.04,0.09,0.03,0.09-0.01
				c0.1-0.85,0.13-1.77,0.69-2.16c1,2.37,2.7,7.12,7.96,11.85C81.85,123.3,81.89,123.26,81.81,123.13z M120.67,75.84
				c0.5,0.11,1.08,0.1,1.34,0.24c0.5,0.29,0.5,1,0.82,1.57c-1.97,0.33-2.61-1.1-3.54-2.13C119.62,75.55,120.13,75.72,120.67,75.84z"
				/>
			<path class="st3" d="M93.14,101.14c12.3,3.62,22.94-3.96,25.18-6.75c0.36-0.45,0.24-0.53-0.11-0.26c-2.15,1.69-3.66,2.6-6,3.75
				c-8.97,4.4-18.4,2.07-18.69,1.53c-0.23-0.44,0.65-0.39,0.65-0.39c19.18-0.64,22.93-9,22.91-9.34c-0.01-0.3-0.33,0.05-0.33,0.05
				c-5.03,6.48-17.99,7.19-17.99,7.19c-3.37,0.29-6.17-0.24-7.87-1.83c-0.4-0.38-0.79-0.98-0.99-1.52c-0.01-0.03-0.05-0.03-0.06,0
				c-0.27,0.5-0.56,0.89-1,1.4c-0.47,0.54-1.12,0.82-1.56,0.51c-1.38-0.95,2.34-6.22,5.32-8.56c0.15-0.12,0.54-0.48,0.33-0.4
				c-9.31,4.07-12.17,11.47-13.21,15.18c-0.53,1.9-0.85,4.07-0.85,6.27c0,2.27,0.3,4.41,0.77,6.38c0.92,3.85,2.03,6.54,3.67,9.55
				c0.1,0.18,0.14,0.08,0.16,0.04c0.52-0.75,0.73-1.73,1.04-2.63c0.35-1.01,0.6-2.34,1.1-3.16c1.17-1.94,7.56-1.45,5.82-2.79
				c-0.51-0.39-0.99-0.84-1.44-1.3c-0.88-0.91-1.71-1.98-2.46-3.04c-1.43-2.04-2.65-4.48-2.85-7.63c-0.01-0.12,0.07-0.15,0.12-0.03
				c1.7,4.21,4.12,6.99,8.14,8.95c1.25,0.61,4.48,1.57,6.44,1.71c0.19,0.01,0.19-0.05,0.01-0.09c-4.71-1.06-9.44-4.3-11.39-8.12
				c0,0-0.79-1.26-0.3-1.5c0.49-0.24,1.33,0.81,2.12,1.57c1.52,1.46,3.81,2.66,6.01,3.34c2.95,0.91,7.02,1.02,10.27,0.23
				c0.11-0.03,0.11-0.07,0-0.06c-3.14,0.23-6.53,0.05-8.81-0.84c-5.72-2.22-7.45-5.05-7-5.54c0.6-0.65,7.25,5.72,18.16,0.93
				c1.88-0.82,4.71-2.5,6.23-3.92c0.14-0.14,0.08-0.23-0.01-0.17c-3.68,1.98-7.21,3.95-12.56,4.26c-2.24,0.14-6.48-0.31-9.37-2.24
				c-0.43-0.29-0.63-0.48-0.46-0.7C92.52,100.86,93.14,101.14,93.14,101.14z"/>
			<path class="st3" d="M136.45,119.69c-0.48,0.38-1.17,0.43-1.88,0.46c-0.25,0.01-1.04-0.13-1.53-0.01
				c-0.11,0.03-0.2,0.08-0.28,0.14c0,0-0.01,0-0.01,0c0,0,0,0,0,0l0,0c-0.87,0.79-1.38,0.46-1.31-0.13
				c0.08-0.65,0.12-0.78,0.33-1.29c0.32-0.8,0.88-1.43,1.07-2.25c0.18-0.78-0.13-1.35-0.4-1.99c-0.15-0.33-0.59-1.49,0.94-1.44
				c0.01,0,0.01,0,0.01-0.01c0.16-0.01,0.33-0.06,0.5-0.18c1.03-0.7,1.53-1.94,1.59-3.39c0-0.08-0.03-0.12-0.06-0.05
				c-0.24,0.56-0.84,0.92-1.46,1.28c-0.21,0.12-0.98,0.36-1.36,0.69c-0.12,0.11-0.19,0.25-0.22,0.4c-0.43,1.07-0.95,0.61-1.03,0.49
				c-0.37-0.59-0.81-1.1-1.37-1.45c-1.4-0.88-3.6-1.31-5.59-1.15c-0.94,0.08-1.88,0.17-2.79,0.29c-0.43,0.06-0.85,0.11-1.28,0.15
				c-1.75,0.05-0.54-1.92,0.91-2.31c1.25-0.33,2.47,0.09,3.08,0.72c0.06,0.07,0.12,0.08,0.1,0.01c-0.54-1.37-2.98-6.31-11.41-5.64
				c-0.11,0.01-0.15,0.08-0.05,0.1c1.77,0.42,3.47,0.75,5.02,1.61c0.5,0.28,1.5,1.01,1.27,2.06c-0.18,0.79-1.52,2.22-2.12,2.55
				c-0.64,0.35-1.54,0.14-2.25-0.17c-1.53-0.91-2.62-2.29-2.89-4.41c0-0.03-0.05-0.12-0.06-0.01c-0.47,3.55,1.39,5.63,4.3,6.25
				c0.79,0.18,0.75,1.62,0.59,2.31c-0.2,0.82-1.42,0.88-2.37,0.75c-1.02-0.14-1.8-0.59-2.39-1.01c-1.22-0.88-2.09-2.04-2.82-3.18
				c-0.1-0.16-0.19-0.16-0.12,0c0.71,1.75,1.9,3.26,3.31,4.31c1.55,1.15,3.83,2.09,6.43,1.92c1.61-0.11,3.08-0.45,4.4-0.92
				c0.12-0.04,0.11-0.13-0.01-0.13c-1.97-0.01-4.39-0.02-4.93-1.34c-0.19-0.46-0.29-2.36,0.68-2.25c1.71,0.19,2.78-0.18,4.21-0.27
				c1.2-0.08,2.93,0.3,3.91,0.62c1.01,0.33,1.78,1,2.27,1.72c0.99,1.46,0.78,3.96,0.4,6.05c-0.33,1.87-1.03,3.58-1.65,5.14
				c-1.35,3.36-4.04,8.45-6.17,10.33c-2.58,2.17-5.78,3.43-9.52,4.38c-1.5,0.38-3.2,0.69-4.82,0.76c-3.84,0.17-6.93-0.36-8.97-2.17
				c-0.94-0.84-1.67-2-2.21-3.33c-0.61-3.12,1.1-4,5.25-2.72c1.31,0.4,2.17-0.77,3.13-0.79c0.49-0.01,0.86,0.33,1.32,0.22
				c0.3-0.08,0.57-0.65,0.84-1.02c0.27-0.36,0.61-0.74,0.96-0.94c1.2-0.69,2.44,0.12,3.3,0.63c0.08,0.05,0.15-0.01,0.1-0.08
				c-0.89-1.31-3.31-2.25-5.17-1.35c-0.4,0.19-0.74,0.7-1.21,0.98c-0.75,0.43-1.75,0.31-2.72,0.25c-0.33-0.02-0.7,0.08-0.96-0.14
				c0.25-1.24,1.44-1.28,2.31-1.81c1.27-0.76,2.48-1.91,2.61-3.73c0.02-0.24-0.08-0.59,0.11-0.83c0.18-0.23,0.64-0.27,1.06-0.22
				c0.62,0.07,1.24,0.41,1.73,0.58c0.12,0.05-0.17-0.26-0.3-0.36c-1.64-1.35-4.65-0.71-5.36,0.76c-0.12,0.23,0.57,0.28,0.63,0.58
				c0.06,0.34-0.42,0.82-0.66,1.09c-0.65,0.7-1.27,1.11-1.98,1.59c-0.36,0.24-0.68,0.66-1.1,0.62c0.22-0.86,0.68-1.2,1.07-1.96
				c0.25-0.5,0.91-1.81,0.55-2.36c-0.22-0.33-1.3-0.15-1.47-0.54c-0.14-0.31,0.12-0.72,0.29-0.91c0.46-0.49,1.36-0.79,2.22-0.99
				c0.1-0.02,0.05-0.06-0.08-0.05c-1.46,0.07-3.7,0.56-4.27,1.66c-0.41,0.79-0.05,1.92,0.84,2.03c0.34,1.11-0.3,3.12-1.76,3.29
				c-1.97,0.23-3.44-1.05-2.61-4.48c0.01-0.03,0-0.13-0.08-0.08c-0.08,0.05-0.16,0.13-0.21,0.18c-0.12,0.1-0.22,0.23-0.33,0.33
				c-1.35,1.2-4.2,3.03-6.71,1.86c-0.46-0.21-0.95-0.76-1.12-1.13c-1.18-2.56,1.52-4.39,3.55-4.04c0.87,0.15,1.67,0.79,1.49,1.68
				c-0.14,0.7-0.8,1.02-1.44,1.02c-0.32,0-0.85-0.13-1.18-0.43c-0.41-0.37-0.47-0.76-0.51-0.62c-0.68,3.05,3.5,2.81,4.98,1.38
				c1.37-1.32,1.94-3.44,0.78-5.1c-0.68-0.97-1.82-1.54-3.38-1.42c-1.28,0.1-3.07,0.5-3.85,1.1c-1.11,0.85-1.36,2.61-1.69,4.04
				c-0.61,2.66-1.61,3.56-1.83,3.85c-0.03,0.04,0,0.08,0.07,0.07c0.28-0.04,1.05-0.08,1.79,0.65c0.92,0.9-0.7,0.17-1.78,0.83
				c-0.01,0-0.01,0.01-0.02,0.01c-0.02,0.01-0.04,0.02-0.06,0.03c-2.1,1.17-3.28,3.48-3.66,6.26c-0.02,0.16,0.05,0.23,0.11,0.12
				c0.57-1.04,1.77-1.63,3.04-2.21c0.44-0.2,1.95-0.53,2.74-1.1c0.31-0.23,0.48-0.55,0.54-0.91c0,0,0,0,0-0.01
				c0.21-0.82,1-0.92,0.97-0.16c-0.04,1.13-0.87,2.02-0.37,3.33c0.52,1.38,1.98,2.05,3.23,2.86c0.27,0.18,0.95,0.73-1.01,1.36
				c-0.02,0.01-0.04,0.01-0.06,0.02c-0.02,0.01-0.04,0.02-0.07,0.02c-0.06,0.02-0.1,0.04-0.13,0.07c-0.03,0.02-0.07,0.03-0.1,0.04
				c-1.78,0.99-2.77,2.94-3.09,5.29c-0.02,0.13,0.04,0.2,0.09,0.1c0.48-0.88,1.5-1.38,2.57-1.87c0.37-0.17,1.65-0.45,2.32-0.93
				c0.23-0.17,0.37-0.41,0.44-0.67l0,0c0.56-1.6,1.05-0.87,1.14-0.4c0.1,0.51,0.21,1.01,0.48,1.43c0.65,0.99,2.17,0.87,3.6,1.12
				c0.51,0.09,1.08,0.5-0.1,1.11c0,0,0,0,0,0.01c-0.12,0.06-0.23,0.14-0.34,0.24c-1.46,1.32-1.98,3.37-1.78,5.67
				c0.01,0.13,0.08,0.18,0.11,0.07c0.26-0.93,1.12-1.62,2.02-2.32c0.31-0.24,1.46-0.78,1.99-1.38c0.2-0.23,0.28-0.52,0.26-0.81
				c0,0,0.01,0,0-0.01c-0.08-1.54,0.74-1.27,0.98-0.88c0.43,0.69,0.77,1.46,1.67,1.78c0.85,0.29,1.56-0.12,2.28-0.33
				c0.54-0.15,1.12-0.26,1.65-0.33c0.92-0.12,0.61,0.75,0.11,1.4c-0.02,0.02-0.04,0.04-0.05,0.07c-0.01,0.01-0.02,0.03-0.03,0.04
				c-0.01,0.01,0,0.02-0.01,0.03c-0.04,0.05-0.07,0.1-0.1,0.16c-0.74,1.5-0.5,3.28,0.38,5.02c0.05,0.1,0.12,0.11,0.11,0.02
				c-0.09-0.82,0.37-1.63,0.86-2.46c0.17-0.28,0.9-1.07,1.13-1.71c0.06-0.18,0.06-0.36,0.02-0.53c0-0.01,0-0.02,0-0.03
				c-0.01-0.02-0.01-0.03-0.02-0.05c-0.01-0.03-0.02-0.05-0.03-0.08c-0.54-1.42,0.26-1.67,0.9-1.44c1.14,0.39,2.32,0.37,3.27,0
				c0.94-0.36,1.58-0.97,2.32-1.57c0.38-0.3,1.46-1.39,2.13-1.63c0.57-0.2,0.9,0.12,0.74,1.11c0,0.01,0,0.01,0,0.02
				c-0.03,0.2-0.02,0.41,0.08,0.66c0.57,1.4,1.92,2.31,3.63,2.75c0.1,0.03,0.15-0.01,0.08-0.06c-0.61-0.43-0.89-1.23-1.15-2.06
				c-0.09-0.29-0.19-1.26-0.48-1.79c-0.05-0.09-0.12-0.17-0.2-0.23c-0.01-0.02-0.03-0.04-0.07-0.06c0,0,0,0,0,0l0,0l0,0
				c-0.06-0.04-0.13-0.07-0.21-0.1c-1.03-0.54-0.64-1.32,0.41-1.57c2.06-0.47,4.41-0.95,5.51-2.35c0.58-0.73,0.84-1.85,1.1-3.04
				c0.21-0.97,0.47-1.9,0.77-2.78c0.12-0.35,0.26-1.42,1.89-0.11c0,0,0,0,0,0c0.15,0.15,0.36,0.26,0.64,0.3
				c1.49,0.25,2.97-0.41,4.26-1.63c0.07-0.07,0.07-0.13-0.01-0.1c-0.69,0.29-1.51,0.1-2.36-0.11c-0.29-0.08-1.16-0.51-1.78-0.54
				c-0.08,0-0.16,0.01-0.23,0.02c-0.01,0-0.02,0-0.03,0c-2.01,0.36-1.01-0.83-0.84-1.08c0.54-0.83,1.35-1.48,1.91-2.28
				c0.71-1.02,1.02-2.58,1.28-4.15c0.05-0.32,0.26-1.13,1.89-0.6c0.07,0.04,0.15,0.06,0.24,0.08c0.01,0,0.02,0.01,0.03,0.01
				c0,0,0,0,0,0c0.1,0.02,0.2,0.02,0.32,0.01c1.23-0.15,2.25-1.02,2.98-2.28C136.52,119.7,136.51,119.65,136.45,119.69z"/>
		</g>
	</g>
</g>
</svg>
