<svg width="44" height="38" viewBox="0 0 44 38" fill="none" xmlns="http://www.w3.org/2000/svg">
<path d="M35.2398 25.2912C35.2398 25.2886 35.2411 25.2872 35.2424 25.2859C35.7822 24.3929 36.2549 23.4557 36.6564 22.4795C37.1022 22.6313 37.5291 22.6997 37.9361 22.6997C41.865 22.6997 44 16.3356 44 16.3356C43.5811 16.3007 43.1822 16.2845 42.805 16.2845C40.6216 16.2845 39.0922 16.8297 38.022 17.581C38.214 16.3765 38.3174 15.1344 38.3295 13.8682C42.6801 13.1754 41.5777 6.04925 41.5777 6.04925C39.7515 6.80997 38.594 7.73647 37.877 8.68247C37.6313 7.33634 37.3587 6.37092 37.262 6.04796C38.3215 2.26266 32.1621 8.62185e-05 32.1621 8.62185e-05C31.6183 4.89519 34.1253 6.5079 35.6252 7.03152C35.7608 7.49412 36.2254 9.19612 36.4161 11.5641C34.692 9.62779 32.0776 8.42062 32.0776 8.42062C30.7993 15.0244 34.6047 16.9721 36.1797 17.4871C36.1394 17.7234 36.0965 17.9571 36.0495 18.1893C35.7661 19.5791 35.3472 20.9058 34.8007 22.1599C34.2005 19.4313 32.2266 16.8875 32.2266 16.8875C27.9808 22.2512 30.336 25.8364 31.5794 27.1564C30.6099 28.2359 29.4995 29.2256 28.2534 30.1239C28.9086 27.1926 27.7256 23.5792 27.7256 23.5792C22.1853 27.0368 22.8486 30.994 23.5523 32.7947C23.0501 33.0202 22.5318 33.2337 22.0001 33.4392C21.3623 33.1935 20.7446 32.9329 20.1484 32.659C20.6721 30.767 20.8762 26.8649 15.1707 23.9619C15.1707 23.9619 14.4872 26.8851 14.976 29.5425C14.0373 28.804 13.186 28.0077 12.4207 27.1564C13.664 25.8364 16.018 22.2512 11.7734 16.8875C11.7734 16.8875 9.79949 19.4314 9.1993 22.1586C8.65815 20.9192 8.24324 19.6086 7.95991 18.2363C7.90886 17.9892 7.86323 17.7395 7.82026 17.487C9.3967 16.972 13.2007 15.0237 11.9238 8.42053C11.9238 8.42053 9.30801 9.6277 7.58393 11.564C7.77462 9.20669 8.2392 7.4967 8.37619 7.03143C9.87606 6.50704 12.3817 4.8951 11.8379 0C11.8379 0 5.67181 2.26463 6.73933 6.05329C6.64128 6.38226 6.36877 7.34433 6.12436 8.68376C5.40601 7.73707 4.24851 6.80989 2.42233 6.04925C2.42233 6.04925 1.31992 13.1754 5.67052 13.8682C5.68264 15.1344 5.78602 16.3766 5.97801 17.581C4.90782 16.8297 3.37839 16.2845 1.19505 16.2845C0.817699 16.2845 0.418947 16.3007 0 16.3356C0 16.3356 2.13504 22.6997 6.06395 22.6997C6.47078 22.6997 6.8978 22.6312 7.34365 22.4795C7.74515 23.4557 8.2178 24.393 8.75758 25.2859C8.75896 25.2873 8.76024 25.2886 8.76024 25.2912C8.14656 25.1355 7.46447 25.0468 6.70848 25.0468C5.35229 25.0468 3.75703 25.3342 1.88926 26.0513C1.88926 26.0513 5.77124 31.6279 9.94593 31.6279C11 31.6279 12.0715 31.272 13.1055 30.3818C14.8941 31.9139 16.9928 33.2311 19.3951 34.3323C17.5623 34.8868 15.5871 35.342 13.4708 35.6979L13.7742 37.5052C16.7834 37.0004 19.5267 36.2968 22.0001 35.3971C24.4735 36.2968 27.2168 37.0004 30.226 37.5052L30.5294 35.6979C28.4132 35.342 26.438 34.8868 24.605 34.3323C27.0073 33.2312 29.106 31.9139 30.8947 30.3818C31.9273 31.272 33.0001 31.6279 34.0542 31.6279C38.2289 31.6279 42.1109 26.0513 42.1109 26.0513C40.2431 25.3342 38.6479 25.0468 37.2917 25.0468C36.5356 25.0468 35.8534 25.1354 35.2398 25.2912ZM38.8693 10.6033C39.0613 10.1292 39.3702 9.68683 39.7918 9.27793C39.6669 10.2904 39.3903 11.0793 38.9942 11.5419C38.9029 11.6479 38.7887 11.7615 38.6276 11.8568C38.629 11.4787 38.6894 11.0471 38.8693 10.6033ZM38.1308 20.0169C38.7713 19.1212 39.7515 18.5397 41.0553 18.2766C40.9935 18.3787 40.9305 18.478 40.866 18.5787C40.3826 19.3186 39.8844 19.8919 39.3822 20.2854C38.8814 20.6774 38.4087 20.8668 37.9361 20.8668C37.8501 20.8668 37.7615 20.8601 37.6715 20.8467C37.7816 20.5836 37.9307 20.2975 38.1308 20.0169ZM34.7739 4.29827C34.5254 3.99009 34.3308 3.62623 34.1898 3.20789C34.8719 3.73967 35.3231 4.28013 35.4842 4.77359C35.5043 4.834 35.5218 4.89914 35.5352 4.97099C35.2734 4.80719 35.0088 4.58831 34.7739 4.29827ZM35.9864 15.4172C35.3741 15.0875 34.8732 14.6444 34.4986 14.0978C34.026 13.409 33.7507 12.5536 33.6729 11.5392C34.966 12.5181 35.7904 13.538 36.0039 14.4215C36.0642 14.6679 36.1045 14.9968 35.9864 15.4172ZM7.9948 14.4254C8.20698 13.5419 9.03275 12.5187 10.3272 11.5391C10.2494 12.5529 9.97412 13.409 9.50146 14.0978C9.12686 14.6442 8.62592 15.0874 8.0137 15.4171C7.89545 14.9988 7.93576 14.6705 7.9948 14.4254ZM8.51446 4.77694C8.6756 4.28349 9.12539 3.74096 9.80886 3.20789C9.66921 3.62615 9.47447 3.99009 9.22611 4.29758C8.99116 4.58831 8.72664 4.80719 8.46479 4.97099C8.4782 4.90043 8.49564 4.83598 8.51446 4.77694ZM5.00846 11.5445C4.61099 11.0833 4.33436 10.2924 4.2082 9.27793C4.62981 9.68683 4.93868 10.1292 5.13066 10.6033C5.31061 11.0471 5.37103 11.4788 5.37232 11.8568C5.21256 11.7621 5.09843 11.65 5.00846 11.5445ZM6.06386 20.8668C5.5912 20.8668 5.11854 20.6775 4.6177 20.2854C4.11548 19.8919 3.6173 19.3186 3.13389 18.5787C3.06944 18.478 3.00636 18.3773 2.94457 18.2766C4.24842 18.5397 5.22863 19.1212 5.86912 20.0168C6.06919 20.2975 6.21691 20.5835 6.32838 20.8466C6.23849 20.86 6.1498 20.8668 6.06386 20.8668ZM9.94584 29.7949C8.72527 29.7949 7.24018 29.0161 5.65033 27.5444C5.46367 27.3711 5.28647 27.1979 5.11854 27.0274C5.67448 26.9293 6.20488 26.8796 6.70839 26.8796C8.39759 26.8796 9.79408 27.4369 10.8589 28.5366C11.1127 28.7997 11.3222 29.067 11.4887 29.3114C10.9946 29.6351 10.483 29.7949 9.94584 29.7949ZM12.3347 23.32C12.2448 24.0478 11.9709 24.7353 11.5224 25.3664C11.1504 24.9997 11.0134 24.6359 10.9423 24.3525C10.7059 23.3966 10.9973 21.9987 11.7667 20.4143C11.7761 20.3942 11.7855 20.374 11.7963 20.3525C12.2689 21.4012 12.4502 22.3935 12.3347 23.32ZM18.4765 31.7621C18.1355 31.6359 17.8025 31.4251 17.5272 31.0813C16.7819 30.1454 16.6047 28.5461 16.6396 27.104C17.503 27.8573 18.0791 28.6805 18.3598 29.5667C18.5813 30.2649 18.6202 31.0021 18.4765 31.7621ZM25.9948 30.8987C25.7504 31.2666 25.4348 31.5056 25.1046 31.6614C24.9434 31.088 24.8413 30.3307 25.0159 29.5008C25.2133 28.5717 25.7209 27.6814 26.5346 26.8368C26.6984 28.2776 26.6608 29.8969 25.9948 30.8987ZM31.6653 23.3201C31.5498 22.3935 31.7311 21.4026 32.2037 20.3525L32.2051 20.3552C32.9947 21.9612 33.2968 23.3791 33.0578 24.3486C32.988 24.6332 32.851 24.9985 32.4777 25.3664C32.0292 24.7353 31.7553 24.0478 31.6653 23.3201ZM38.3967 27.5001C37.6421 28.2051 36.8995 28.761 36.1919 29.1504C35.4131 29.5774 34.6947 29.7949 34.0542 29.7949C33.517 29.7949 33.0055 29.6351 32.5113 29.3115C32.6779 29.0671 32.8859 28.7999 33.1411 28.5367C34.2059 27.4369 35.6024 26.881 37.2916 26.881C37.7951 26.881 38.3255 26.9293 38.8815 27.0274C38.7283 27.1845 38.5659 27.343 38.3967 27.5001Z" fill="#5472D3"/>
</svg>
