<svg width="44" height="37" viewBox="0 0 44 37" fill="none" xmlns="http://www.w3.org/2000/svg">
<path fill-rule="evenodd" clip-rule="evenodd" d="M20.4864 0.0137906C16.9162 0.215948 13.6101 1.38611 10.7295 3.46721C9.96331 4.02076 9.29776 4.591 8.5629 5.32359C7.66987 6.21381 6.96946 7.05885 6.30525 8.04735L6.13005 8.30808H6.45442H6.77879L7.02591 7.96246C7.69929 7.02072 8.44393 6.1678 9.30621 5.35061C9.77332 4.9079 10.6017 4.20914 10.6594 4.20914C10.6713 4.20914 10.8134 4.30177 10.9751 4.41496C11.3521 4.67884 11.7456 4.92682 12.1893 5.1801C12.3833 5.29089 12.5516 5.38971 12.5632 5.3997C12.5748 5.40969 12.4167 5.6125 12.2119 5.85036C11.6081 6.55148 10.292 8.2235 10.2917 8.28989C10.2916 8.2999 10.4378 8.30808 10.6165 8.30808H10.9415L11.1939 7.97458C11.7026 7.3027 12.6234 6.18182 13.0066 5.76792L13.1017 5.66531L13.4423 5.82485C14.1186 6.14161 14.9776 6.46729 15.7748 6.7092C15.9872 6.77362 16.1665 6.83181 16.1731 6.8385C16.1798 6.84517 16.1025 7.03498 16.0012 7.2603C15.8362 7.62748 15.5712 8.26607 15.5712 8.29634C15.5712 8.30279 15.7004 8.30808 15.8582 8.30808H16.1453L16.2511 8.04735C16.3443 7.81773 16.709 6.99727 16.7258 6.97954C16.7293 6.97587 16.9007 7.01041 17.1066 7.05633C18.1239 7.28308 19.1808 7.42974 20.1842 7.48339C20.4639 7.49836 20.772 7.51633 20.869 7.52334L21.0454 7.5361V7.92207V8.30808H21.313H21.5807V7.92258V7.53711L21.9882 7.52137C23.325 7.46971 24.4712 7.33576 25.5423 7.106C25.6939 7.07347 25.8309 7.04687 25.8468 7.04687C25.8626 7.04687 25.9065 7.11509 25.9443 7.19845C26.0339 7.39583 26.3862 8.2107 26.4057 8.26563C26.4189 8.30286 26.4567 8.30808 26.7132 8.30808H27.0055L26.9548 8.18074C26.927 8.11072 26.8844 8.00379 26.8602 7.94315C26.836 7.88249 26.7264 7.62814 26.6166 7.37786C26.5068 7.12761 26.4225 6.9173 26.4294 6.91049C26.4362 6.90367 26.5934 6.85497 26.7788 6.80226C27.6727 6.54801 28.8686 6.1068 29.4445 5.81879L29.5593 5.76138L29.8916 6.1434C30.2858 6.59647 30.9753 7.4507 31.3493 7.94909L31.6168 8.30563L31.9513 8.30684C32.1353 8.30752 32.2858 8.30349 32.2858 8.29789C32.2858 8.29231 32.1146 8.06037 31.9054 7.78249C31.3365 7.02707 30.7384 6.28762 30.1585 5.62264L30.0692 5.52027L30.1938 5.45286C30.8379 5.10414 31.3981 4.76223 31.8943 4.41496C32.056 4.30177 32.1985 4.20914 32.2109 4.20914C32.2233 4.20914 32.352 4.30388 32.4969 4.41966C33.7876 5.45131 35.0161 6.76411 35.9595 8.12011L36.0902 8.30808H36.4145H36.7388L36.6738 8.205C36.638 8.14832 36.5211 7.9764 36.4138 7.823C33.8437 4.14555 30.0425 1.5433 25.7168 0.499939C24.7812 0.27428 23.8954 0.13346 22.8743 0.0480619C22.3491 0.00411347 20.9993 -0.0152415 20.4864 0.0137906ZM22.6512 0.572799C23.4664 0.630038 24.3724 0.757445 25.151 0.924361C25.7137 1.045 25.6876 1.02094 25.4466 1.19652C24.6403 1.78402 23.5197 2.18143 22.2741 2.32164C21.9251 2.36093 20.9395 2.36015 20.5831 2.3203C19.3172 2.17878 18.1386 1.75072 17.3511 1.14648C17.1948 1.02657 17.1693 1.04195 17.7184 0.924653C19.3227 0.581918 21.0381 0.459581 22.6512 0.572799ZM16.7936 1.39004C16.9174 1.49365 17.0548 1.60381 17.0987 1.63484L17.1786 1.69123L16.5756 2.09651C15.0791 3.1023 14.0285 3.93116 13.2238 4.74091C13.0902 4.8753 12.9739 4.98527 12.9654 4.98527C12.9426 4.98527 12.5341 4.76043 12.2258 4.57812C11.9556 4.41838 11.1188 3.87286 11.1188 3.85648C11.1188 3.83795 11.7405 3.42161 12.1208 3.18547C13.3406 2.42794 14.6181 1.83457 15.9726 1.3963C16.1867 1.32703 16.4057 1.25574 16.4592 1.23792C16.5127 1.22007 16.5592 1.20459 16.5624 1.20355C16.5657 1.20251 16.6697 1.2864 16.7936 1.39004ZM26.7143 1.33532C28.3809 1.85392 29.987 2.63607 31.4525 3.6429C31.6165 3.75549 31.7506 3.85193 31.7506 3.85716C31.7506 3.87266 30.9321 4.40916 30.6669 4.56749C30.5325 4.64775 30.2588 4.80237 30.0586 4.91112L29.6947 5.10887L29.4757 4.88061C28.6661 4.03669 27.4973 3.10133 26.0327 2.12525C25.7853 1.9604 25.574 1.81757 25.563 1.80782C25.5521 1.79807 25.6287 1.72996 25.7333 1.65647C25.838 1.58296 26.0057 1.4514 26.106 1.36411C26.241 1.2467 26.3012 1.20898 26.3372 1.21924C26.3639 1.22686 26.5336 1.2791 26.7143 1.33532ZM18.2489 2.27648C18.3902 2.33626 18.5927 2.41543 18.699 2.45239C18.8053 2.48936 18.896 2.52244 18.9007 2.52593C18.9053 2.5294 18.8442 2.61759 18.7649 2.7219C18.2886 3.3481 17.4209 4.61901 17.0439 5.24265C16.9421 5.41098 16.7641 5.7248 16.6484 5.94003C16.5327 6.15526 16.4366 6.33392 16.4348 6.33705C16.433 6.34018 16.2353 6.28374 15.9953 6.21165C15.4846 6.05825 14.9277 5.86569 14.5007 5.69485C14.2094 5.57835 13.5272 5.28078 13.5044 5.26031C13.4868 5.24457 13.9527 4.78372 14.2574 4.5154C14.9779 3.88074 15.8562 3.22581 17.0645 2.422L17.6942 2.00316L17.8431 2.08545C17.925 2.13071 18.1076 2.21667 18.2489 2.27648ZM25.4049 2.35438C26.877 3.31982 28.1495 4.30982 28.9392 5.10404L29.1812 5.34746L28.9879 5.43574C28.6361 5.59633 28.0283 5.83341 27.5565 5.99407C27.0743 6.15827 26.2791 6.39201 26.2027 6.39201C26.1713 6.39201 26.11 6.29933 25.9852 6.06283C25.573 5.28175 24.8348 4.13359 24.0866 3.10977C23.8835 2.83194 23.7211 2.60139 23.7256 2.59741C23.7301 2.59345 23.8598 2.54963 24.0137 2.50003C24.308 2.40517 24.5773 2.29903 24.8409 2.17405C24.9279 2.13282 25.0027 2.09906 25.0073 2.09906C25.0118 2.09904 25.1908 2.21395 25.4049 2.35438ZM19.9019 2.76314C20.0826 2.79619 20.3672 2.83563 20.5345 2.85079C20.7017 2.86595 20.8851 2.88375 20.942 2.89037L21.0454 2.9024V4.94207V6.98177L20.5892 6.96644C19.8453 6.94146 19.0025 6.854 18.1866 6.71713C17.8124 6.65436 17.0017 6.49128 16.9853 6.47546C16.9731 6.46382 17.3143 5.83896 17.501 5.53106C17.8888 4.89126 18.5598 3.90841 19.1452 3.12263C19.4168 2.75824 19.4846 2.68104 19.5247 2.69096C19.5515 2.69763 19.7213 2.7301 19.9019 2.76314ZM23.2688 2.91533C23.5276 3.24603 24.1666 4.14889 24.5355 4.70523C24.9486 5.32805 25.2156 5.76802 25.4586 6.22633C25.6011 6.49499 25.6161 6.53523 25.5779 6.54658C25.5539 6.55373 25.3359 6.59771 25.0935 6.64432C24.0856 6.83809 23.0052 6.95123 21.8787 6.98099L21.5807 6.98887V4.94845V2.90803L21.9989 2.87905C22.3794 2.85268 23.0616 2.76505 23.0876 2.7392C23.1085 2.71848 23.1346 2.74395 23.2688 2.91533ZM34.7675 9.87552C30.648 10.0835 27.9469 12.0768 27.0908 15.5405C26.8942 16.3358 26.8136 16.9988 26.7948 17.9733C26.7667 19.4351 26.939 20.5731 27.3623 21.7195C27.4816 22.0428 27.823 22.7285 28.0099 23.0205C29.2793 25.0036 31.4241 26.1835 34.2687 26.4637C34.7728 26.5134 35.942 26.5205 36.4219 26.4768C38.6925 26.27 40.4633 25.545 41.7592 24.2915C42.1489 23.9146 42.3995 23.6183 42.6723 23.2122C43.4837 22.004 43.9062 20.5935 43.9873 18.8222C44.0796 16.8055 43.6677 14.9634 42.8071 13.5439C41.5402 11.4541 39.301 10.1816 36.4098 9.90834C36.1238 9.88129 35.07 9.86027 34.7675 9.87552ZM16.7512 9.93456C15.1765 10.0013 13.8497 10.4348 12.8584 11.2066C12.6207 11.3916 12.25 11.7716 12.06 12.0249C11.2822 13.0621 10.9659 14.5686 11.2414 15.9239C11.5202 17.2949 12.5022 18.4823 14.0184 19.2816C14.7072 19.6448 15.1139 19.7817 18.4178 20.7626C20.0742 21.2544 20.6123 21.4386 21.0506 21.6641C21.3286 21.807 21.459 21.9311 21.459 22.0527C21.459 22.1292 21.4399 22.1607 21.3281 22.2687C21.1122 22.4771 20.7111 22.638 20.1698 22.7332C19.8317 22.7927 18.7572 22.7918 18.3691 22.7318C17.6417 22.6192 17.0284 22.4218 16.4227 22.1053C15.6795 21.717 15.0914 21.2168 14.6445 20.5928L14.4361 20.3017L12.8504 20.2955L11.2648 20.2893V23.2242V26.1591H13.0409H14.8169V25.5507C14.8169 25.2161 14.8251 24.946 14.8352 24.9504C14.8452 24.9549 14.9739 25.0305 15.1213 25.1186C16.4065 25.8866 17.8825 26.3784 19.2693 26.5005C19.6342 26.5327 20.5753 26.5186 20.9359 26.4757C23.3725 26.1855 25.0862 25.1949 25.8683 23.6245C26.1667 23.0254 26.3143 22.4089 26.3414 21.6478C26.3714 20.8067 26.2204 20.0998 25.8597 19.3931C25.3823 18.4575 24.5972 17.7042 23.433 17.0647C22.7398 16.6839 22.2339 16.4961 20.7518 16.0694C17.0534 15.0045 16.8989 14.9576 16.5536 14.7942C16.3091 14.6784 16.0718 14.4837 16.0176 14.3545C15.9452 14.1818 15.9847 14.0377 16.147 13.8819C16.4232 13.6169 17.069 13.4723 17.8095 13.5098C18.9399 13.5669 19.815 13.7881 20.7138 14.2437C21.4559 14.6198 22.1774 15.1933 22.5174 15.6772L22.639 15.8503L24.2266 15.8507L25.8141 15.8511V13.0983V10.3454H24.1115H22.4089L22.4023 10.8403L22.3957 11.3353L22.2011 11.2153C21.9553 11.0639 21.5155 10.8403 21.2157 10.7146C19.8079 10.1239 18.3394 9.86728 16.7512 9.93456ZM0 12.019V13.9593H1.16784H2.33568V18.131V22.3027H1.16784H0V24.243V26.1833H5.09713H10.1943V24.243V22.3027H9.02641H7.85857V18.131V13.9593H9.02641H10.1943V12.019V10.0786H5.09713H0V12.019ZM36.2881 13.9456C36.6722 14.0239 36.9227 14.1487 37.1787 14.3894C37.6405 14.8237 37.9276 15.5956 38.0515 16.7358C38.1601 17.7351 38.1203 19.3977 37.9664 20.2959C37.767 21.4587 37.3533 22.1178 36.6755 22.3523C36.3117 22.4781 35.7369 22.5292 35.0696 22.495C34.3431 22.4578 33.8979 22.2837 33.5594 21.9047C32.9836 21.2599 32.7416 19.9896 32.7804 17.8157C32.7958 16.9542 32.8177 16.6259 32.8958 16.0864C33.0478 15.0358 33.3588 14.4437 33.9082 14.1588C34.1954 14.0099 34.4574 13.9486 35.0108 13.9008C35.242 13.8809 36.1219 13.9117 36.2881 13.9456ZM6.15548 28.0411C6.15548 28.0491 6.25046 28.1937 6.36656 28.3625C9.10038 32.3371 13.2146 35.0526 17.9068 35.9794C18.9914 36.1936 19.9146 36.2905 21.0941 36.3137C24.0394 36.3718 26.8246 35.7537 29.4757 34.4538C31.8711 33.2792 34.003 31.5663 35.6864 29.4635C36.0691 28.9855 36.7139 28.092 36.7139 28.0397C36.7139 28.0325 36.5714 28.0266 36.3971 28.0266H36.0803L36.0017 28.1403C35.839 28.3755 35.2578 29.1408 35.0832 29.3497C34.3203 30.2621 33.4946 31.0837 32.6353 31.7852L32.3086 32.0519L32.0965 31.8991C31.5649 31.516 30.9518 31.1306 30.3778 30.8187L30.0682 30.6505L30.2351 30.4603C30.6963 29.9348 31.3517 29.1241 31.8397 28.4753C32.0002 28.2619 32.1396 28.0736 32.1493 28.057C32.1632 28.0333 32.0934 28.0269 31.8311 28.0279L31.4951 28.0291L31.3005 28.2884C30.8911 28.8337 30.0273 29.889 29.6451 30.3107L29.5621 30.4024L29.2635 30.2675C28.5497 29.9454 27.6155 29.6053 26.8724 29.3972C26.6449 29.3335 26.4493 29.2727 26.4376 29.2623C26.426 29.2518 26.4934 29.0704 26.5874 28.8593C26.769 28.4516 26.9333 28.0625 26.9333 28.0401C26.9333 28.0327 26.8037 28.0266 26.6453 28.0266H26.3573L26.2148 28.3601C25.9954 28.8734 25.8648 29.1464 25.8446 29.1341C25.8345 29.128 25.6618 29.0897 25.4609 29.0492C24.3341 28.8216 23.2303 28.6926 22.1403 28.661L21.5928 28.6451L21.586 28.3359L21.5792 28.0266H21.313H21.0469L21.0401 28.3359L21.0332 28.6451L20.5953 28.6622C19.4057 28.7087 18.0467 28.8894 16.9701 29.1444C16.8631 29.1698 16.7637 29.1906 16.7493 29.1907C16.7248 29.1908 16.4786 28.6714 16.2953 28.2328L16.2143 28.0388L15.918 28.032L15.6218 28.0252L15.7513 28.3352C15.8225 28.5056 15.949 28.7964 16.0323 28.9813C16.1157 29.1661 16.1747 29.3255 16.1634 29.3354C16.1521 29.3453 15.9513 29.4105 15.7171 29.4802C14.9785 29.7002 14.0727 30.0455 13.3936 30.3659L13.1017 30.5037L12.9818 30.3748C12.6164 29.9821 11.8262 29.0226 11.2925 28.3238L11.0656 28.0266H10.7267H10.3877L10.6848 28.4208C11.2347 29.1504 11.8639 29.929 12.3395 30.4686C12.5615 30.7205 12.6097 30.7916 12.5583 30.7916C12.4731 30.7916 11.0739 31.6664 10.6795 31.9662L10.5687 32.0505L10.3479 31.8757C9.18405 30.9545 7.92989 29.6283 7.06406 28.4031L6.80022 28.0298L6.47785 28.0282C6.30053 28.0273 6.15548 28.0332 6.15548 28.0411ZM21.0395 31.2342L21.0332 33.2776L20.9116 33.284C20.6497 33.2976 20.094 33.3681 19.8046 33.4245C19.6373 33.457 19.4932 33.4837 19.4843 33.4837C19.4397 33.484 18.3965 32.0306 17.9351 31.3254C17.4744 30.6213 16.9571 29.7184 16.9995 29.6926C17.0325 29.6724 17.8279 29.512 18.211 29.4483C19.034 29.3112 20.0925 29.2072 20.784 29.1953L21.0457 29.1908L21.0395 31.2342ZM22.9431 29.2395C23.3587 29.2726 23.8615 29.3287 24.2691 29.3876C24.5699 29.4311 25.4155 29.5822 25.5653 29.6193C25.6192 29.6326 25.6161 29.6418 25.4535 29.9516C25.0438 30.7318 24.3195 31.8386 23.47 32.9824C23.1805 33.3722 23.1233 33.4371 23.0796 33.4253C22.9765 33.3973 22.3654 33.3167 22.1524 33.3029C22.032 33.2951 21.8541 33.2825 21.7571 33.275L21.5807 33.2614V31.2222V29.1831L22.1098 29.1992C22.4009 29.208 22.7759 29.2261 22.9431 29.2395ZM26.4467 29.8345C26.8835 29.9508 27.5368 30.1606 27.995 30.332C28.448 30.5014 29.1175 30.7797 29.1538 30.8138C29.1827 30.8408 28.4245 31.5705 28.0159 31.9089C27.2592 32.5358 26.075 33.3948 25.2108 33.9438L25.009 34.072L24.7485 33.9504C24.6053 33.8835 24.3184 33.7711 24.111 33.7007C23.9036 33.6303 23.7306 33.5703 23.7265 33.5674C23.7225 33.5645 23.8384 33.3999 23.9842 33.2016C24.8619 32.0079 25.6367 30.8029 26.0335 30.0145C26.1004 29.8816 26.1687 29.773 26.1853 29.773C26.2019 29.773 26.3195 29.8007 26.4467 29.8345ZM16.6058 30.1549C17.0449 30.9881 17.811 32.1641 18.6283 33.2597C18.7801 33.4633 18.9044 33.6343 18.9044 33.6398C18.9044 33.6452 18.8469 33.6683 18.7766 33.691C18.5675 33.7586 18.1457 33.9342 17.9143 34.05C17.7384 34.1381 17.6891 34.1535 17.6503 34.1324C17.6242 34.1181 17.3728 33.9538 17.0918 33.7673C15.7369 32.8678 14.7255 32.0981 13.9392 31.3679C13.5281 30.9862 13.4878 30.9427 13.5175 30.9131C13.5559 30.8748 14.1163 30.6292 14.598 30.4395C15.1661 30.2158 16.2725 29.8527 16.4023 29.8474C16.4301 29.8462 16.494 29.943 16.6058 30.1549ZM30.0251 31.2437C30.5612 31.5296 31.27 31.9684 31.7347 32.3025L31.8527 32.3873L31.7104 32.4922C31.2854 32.8056 30.4733 33.3137 29.865 33.6469C28.9665 34.139 28.007 34.5521 26.9469 34.9033L26.4131 35.0801L26.2413 34.9224C26.1468 34.8358 25.9523 34.6769 25.8091 34.5694L25.5486 34.374L26.0402 34.0431C27.538 33.0349 28.7897 32.0337 29.4653 31.3035C29.5776 31.182 29.6815 31.0827 29.6962 31.0827C29.7108 31.0827 29.8588 31.1551 30.0251 31.2437ZM13.4034 31.5982C13.9743 32.1564 14.6284 32.6971 15.4836 33.3178C15.8843 33.6086 16.776 34.2194 17.0125 34.3651C17.1027 34.4206 17.1762 34.4716 17.1758 34.4782C17.1754 34.4849 17.118 34.5302 17.0483 34.5789C16.9785 34.6276 16.8165 34.7599 16.6883 34.8729L16.4551 35.0783L15.9219 34.9023C14.5058 34.4349 13.2392 33.838 11.9947 33.0514C11.6453 32.8306 11.0556 32.4278 11.0365 32.3969C11.0217 32.3731 11.5811 31.9872 12.0266 31.714C12.3434 31.5196 12.9404 31.1797 12.9649 31.1797C12.9706 31.1797 13.168 31.368 13.4034 31.5982ZM22.3349 33.8626C23.362 33.9743 24.3823 34.3053 25.1432 34.7737C25.3646 34.9099 25.7654 35.2056 25.7654 35.2326C25.7654 35.2555 25.2523 35.3765 24.7557 35.4706C22.8117 35.8391 20.8866 35.8832 18.9165 35.6043C18.2675 35.5124 17.1028 35.2745 17.1048 35.2341C17.106 35.2088 17.3884 34.9926 17.6051 34.8512C18.847 34.0405 20.6004 33.674 22.3349 33.8626Z" fill="#5472D3"/>
</svg>
