<svg width="80" height="67" viewBox="0 0 80 67" fill="none" xmlns="http://www.w3.org/2000/svg">
<path fill-rule="evenodd" clip-rule="evenodd" d="M37.248 0.0252616C30.7566 0.395574 24.7457 2.53908 19.5082 6.35123C18.1151 7.36522 16.905 8.40979 15.5689 9.75175C13.9452 11.3825 12.6717 12.9304 11.4641 14.7411L11.1456 15.2187H11.7353H12.3251L12.7744 14.5856C13.9987 12.8606 15.3526 11.2982 16.9204 9.80124C17.7697 8.99029 19.2758 7.7103 19.3807 7.7103C19.4024 7.7103 19.6607 7.87997 19.9548 8.08732C20.6402 8.5707 21.3557 9.02494 22.1624 9.48891C22.5152 9.69186 22.8211 9.87286 22.8422 9.89117C22.8633 9.90947 22.5759 10.281 22.2034 10.7167C21.1057 12.001 18.7127 15.0638 18.7121 15.1854C18.712 15.2038 18.9778 15.2187 19.3028 15.2187H19.8936L20.3526 14.6078C21.2775 13.3771 22.9516 11.3239 23.6484 10.5657L23.8212 10.3777L24.4405 10.67C25.6701 11.2502 27.2319 11.8468 28.6815 12.2899C29.0677 12.4079 29.3935 12.5145 29.4057 12.5268C29.4179 12.539 29.2773 12.8867 29.0931 13.2994C28.7932 13.972 28.3112 15.1418 28.3112 15.1972C28.3112 15.2091 28.5461 15.2187 28.8332 15.2187H29.3551L29.5475 14.7411C29.7169 14.3205 30.3801 12.8176 30.4106 12.7851C30.4169 12.7784 30.7285 12.8417 31.1029 12.9258C32.9525 13.3411 34.8742 13.6098 36.6986 13.7081C37.207 13.7355 37.7673 13.7684 37.9437 13.7812L38.2644 13.8046V14.5117V15.2187H38.751H39.2376V14.5126V13.8065L39.9785 13.7776C42.4091 13.683 44.493 13.4376 46.4406 13.0168C46.7162 12.9572 46.9653 12.9084 46.9941 12.9084C47.0229 12.9084 47.1027 13.0334 47.1715 13.1861C47.3343 13.5477 47.9748 15.0404 48.0103 15.141C48.0345 15.2092 48.1031 15.2187 48.5694 15.2187H49.101L49.0088 14.9855C48.9581 14.8572 48.8806 14.6613 48.8367 14.5503C48.7927 14.4391 48.5934 13.9732 48.3938 13.5148C48.1942 13.0564 48.041 12.6711 48.0534 12.6586C48.0659 12.6461 48.3517 12.5569 48.6887 12.4604C50.314 11.9946 52.4883 11.1864 53.5355 10.6588L53.7442 10.5537L54.3484 11.2535C55.065 12.0834 56.3188 13.6482 56.9987 14.5611L57.485 15.2142L58.0933 15.2165C58.4278 15.2177 58.7015 15.2103 58.7015 15.2001C58.7015 15.1899 58.3903 14.765 58.0098 14.256C56.9754 12.8722 55.888 11.5177 54.8337 10.2996L54.6713 10.112L54.8977 9.98855C56.0689 9.34976 57.0874 8.72345 57.9896 8.08732C58.2836 7.87997 58.5426 7.7103 58.5652 7.7103C58.5878 7.7103 58.8218 7.88384 59.0852 8.09594C61.4321 9.98571 63.6656 12.3905 65.3809 14.8744L65.6186 15.2187H66.2083H66.7979L66.6796 15.0299C66.6146 14.9261 66.4019 14.6112 66.207 14.3302C61.5341 7.59381 54.6228 2.82702 46.7577 0.915789C45.0566 0.502425 43.4462 0.244473 41.5897 0.0880397C40.6348 0.00753506 38.1806 -0.0279194 37.248 0.0252616ZM41.184 1.04925C42.6661 1.1541 44.3134 1.38749 45.7291 1.69324C46.7522 1.91423 46.7047 1.87016 46.2665 2.19178C44.8005 3.26797 42.7632 3.99594 40.4983 4.25278C39.8639 4.32475 38.0718 4.32333 37.4239 4.25033C35.1222 3.99109 32.9792 3.20697 31.5474 2.10012C31.2633 1.88047 31.217 1.90864 32.2152 1.69378C35.1322 1.06596 38.2511 0.84186 41.184 1.04925ZM30.5338 2.54627C30.759 2.73607 31.0087 2.93787 31.0886 2.99469L31.2339 3.09799L30.1375 3.84039C27.4166 5.6828 25.5064 7.2011 24.0433 8.6844C23.8004 8.93058 23.5889 9.13202 23.5734 9.13202C23.5319 9.13202 22.7893 8.72016 22.2287 8.38619C21.7375 8.09359 20.216 7.0943 20.216 7.06431C20.216 7.03036 21.3463 6.2677 22.0378 5.83515C24.2557 4.44751 26.5783 3.36056 29.0411 2.55774C29.4304 2.43085 29.8285 2.30027 29.9258 2.26762C30.0232 2.23492 30.1076 2.20657 30.1135 2.20466C30.1194 2.20275 30.3085 2.35643 30.5338 2.54627ZM48.5714 2.44604C51.6017 3.39602 54.5217 4.82875 57.1864 6.67307C57.4845 6.87931 57.7283 7.05596 57.7283 7.06555C57.7283 7.09394 56.2401 8.0767 55.7579 8.36673C55.5136 8.51375 55.0159 8.79698 54.652 8.9962L53.9904 9.35842L53.5922 8.94031C52.1202 7.39441 49.995 5.68102 47.3321 3.89304C46.8824 3.59106 46.4982 3.32942 46.4782 3.31156C46.4583 3.2937 46.5977 3.16894 46.7879 3.03432C46.9781 2.89966 47.2831 2.65868 47.4655 2.49878C47.7109 2.2837 47.8203 2.21461 47.8858 2.23341C47.9344 2.24736 48.243 2.34306 48.5714 2.44604ZM33.1798 4.17005C33.4367 4.27957 33.805 4.42458 33.9982 4.49229C34.1914 4.56 34.3564 4.6206 34.3649 4.627C34.3733 4.63335 34.2622 4.7949 34.1179 4.98598C33.252 6.13304 31.6743 8.4611 30.9888 9.60349C30.8038 9.91183 30.4803 10.4867 30.2699 10.8809C30.0594 11.2752 29.8847 11.6025 29.8815 11.6082C29.8782 11.6139 29.5187 11.5105 29.0824 11.3785C28.1538 11.0975 27.1413 10.7448 26.3648 10.4318C25.8354 10.2184 24.5949 9.67333 24.5534 9.63584C24.5215 9.607 25.3685 8.76281 25.9225 8.2713C27.2326 7.10874 28.8294 5.90903 31.0264 4.43662L32.1712 3.66939L32.442 3.82013C32.5909 3.90304 32.9229 4.06049 33.1798 4.17005ZM46.1908 4.31276C48.8673 6.08124 51.1809 7.89472 52.6167 9.34958L53.0568 9.79547L52.7052 9.95719C52.0656 10.2514 50.9606 10.6856 50.1028 10.9799C49.2261 11.2807 47.7803 11.7089 47.6413 11.7089C47.5841 11.7089 47.4728 11.5391 47.2459 11.1059C46.4964 9.67511 45.1542 7.57191 43.7937 5.69649C43.4245 5.18756 43.1292 4.76522 43.1375 4.75793C43.1457 4.75069 43.3814 4.67041 43.6612 4.57955C44.1963 4.40579 44.686 4.21137 45.1652 3.98243C45.3234 3.9069 45.4595 3.84506 45.4678 3.84506C45.4761 3.84501 45.8014 4.05551 46.1908 4.31276ZM36.1853 5.06151C36.5137 5.12207 37.0313 5.19431 37.3354 5.22208C37.6395 5.24984 37.9729 5.28246 38.0764 5.29458L38.2644 5.31662V9.05289V12.7892L37.4349 12.7611C36.0823 12.7154 34.5501 12.5552 33.0666 12.3044C32.3862 12.1895 30.9123 11.8907 30.8823 11.8618C30.8602 11.8404 31.4806 10.6958 31.82 10.1318C32.525 8.95981 33.745 7.15943 34.8095 5.72003C35.3032 5.05254 35.4266 4.91112 35.4994 4.92929C35.5482 4.94151 35.8568 5.001 36.1853 5.06151ZM42.3069 5.3403C42.7775 5.94608 43.9392 7.59994 44.6101 8.61904C45.3611 9.75993 45.8465 10.5659 46.2884 11.4054C46.5474 11.8975 46.5746 11.9712 46.5053 11.992C46.4617 12.0051 46.0653 12.0857 45.6245 12.1711C43.7919 12.526 41.8276 12.7333 39.7795 12.7878L39.2376 12.8022V9.06457V5.32693L39.9981 5.27384C40.6898 5.22554 41.9301 5.06502 41.9775 5.01766C42.0154 4.97972 42.063 5.02637 42.3069 5.3403ZM63.2136 18.09C55.7236 18.471 50.8125 22.1223 49.256 28.4671C48.8986 29.9239 48.7519 31.1385 48.7178 32.9235C48.6667 35.6012 48.9801 37.6858 49.7496 39.7858C49.9666 40.3779 50.5872 41.634 50.927 42.1689C53.235 45.8016 57.1346 47.963 62.3068 48.4763C63.2232 48.5672 65.3491 48.5802 66.2217 48.5001C70.3501 48.1214 73.5697 46.7933 75.9259 44.4972C76.6344 43.8067 77.0901 43.264 77.586 42.5201C79.0613 40.3069 79.8295 37.7232 79.9769 34.4785C80.1447 30.7843 79.3958 27.4099 77.8312 24.8097C75.5276 20.9817 71.4563 18.6506 66.1996 18.1501C65.6797 18.1006 63.7636 18.062 63.2136 18.09ZM30.4567 18.1981C27.5937 18.3203 25.1812 19.1145 23.3789 20.5282C22.9468 20.8671 22.2727 21.5632 21.9273 22.0272C20.513 23.9271 19.938 26.6868 20.439 29.1693C20.9459 31.6808 22.7313 33.8558 25.488 35.3201C26.7404 35.9853 27.4798 36.2361 33.4869 38.0329C36.4985 38.9338 37.4768 39.2713 38.2739 39.6842C38.7793 39.9461 39.0164 40.1734 39.0164 40.3961C39.0164 40.5363 38.9817 40.594 38.7784 40.7918C38.3859 41.1736 37.6566 41.4683 36.6724 41.6427C36.0577 41.7517 34.1039 41.7501 33.3984 41.6401C32.0759 41.4338 30.9608 41.0722 29.8595 40.4926C28.5082 39.7813 27.4388 38.8649 26.6264 37.7218L26.2475 37.1887L23.3645 37.1773L20.4814 37.1658V42.542V47.9182H23.7106H26.9399V46.8038C26.9399 46.1908 26.9548 45.696 26.9731 45.7042C26.9913 45.7123 27.2253 45.8509 27.4932 46.0122C29.83 47.4191 32.5137 48.3199 35.0351 48.5437C35.6985 48.6025 37.4096 48.5768 38.0653 48.4982C42.4955 47.9667 45.6114 46.1521 47.0333 43.2754C47.5758 42.178 47.8441 41.0485 47.8934 39.6545C47.948 38.1137 47.6734 36.8188 47.0177 35.5242C46.1496 33.8104 44.7221 32.4305 42.6055 31.2591C41.3451 30.5615 40.4253 30.2175 37.7305 29.4358C31.0063 27.4853 30.7253 27.3993 30.0975 27.0999C29.6529 26.8879 29.2214 26.5313 29.123 26.2945C28.9913 25.9782 29.0631 25.7142 29.3582 25.4289C29.8604 24.9434 31.0345 24.6786 32.381 24.7472C34.4361 24.8519 36.0272 25.257 37.6614 26.0916C39.0107 26.7806 40.3225 27.831 40.9407 28.7174L41.1619 29.0346L44.0483 29.0353L46.9347 29.036V23.9934V18.9507H43.839H40.7434L40.7314 19.8573L40.7195 20.764L40.3656 20.5443C39.9187 20.2668 39.1191 19.8573 38.574 19.6269C36.0144 18.5449 33.3443 18.0749 30.4567 18.1981ZM0 22.0163V25.5706H2.12334H4.24668V33.2123V40.854H2.12334H0V44.4083V47.9626H9.2675H18.535V44.4083V40.854H16.4117H14.2883V33.2123V25.5706H16.4117H18.535V22.0163V18.462H9.2675H0V22.0163ZM65.9784 25.5456C66.6768 25.689 67.1322 25.9176 67.5976 26.3586C68.4372 27.1541 68.9593 28.568 69.1846 30.6567C69.382 32.4871 69.3097 35.5328 69.0298 37.1781C68.6674 39.308 67.915 40.5154 66.6826 40.9449C66.0212 41.1754 64.9761 41.269 63.7628 41.2063C62.442 41.1381 61.6325 40.8193 61.0171 40.1251C59.9702 38.944 59.5302 36.617 59.6007 32.6348C59.6286 31.0568 59.6685 30.4553 59.8105 29.4671C60.087 27.5427 60.6524 26.458 61.6512 25.9361C62.1734 25.6633 62.6498 25.551 63.656 25.4635C64.0763 25.427 65.6761 25.4835 65.9784 25.5456ZM11.1918 51.3658C11.1918 51.3803 11.3645 51.6453 11.5756 51.9544C16.5461 59.235 24.0266 64.2094 32.5579 65.9071C34.5298 66.2995 36.2083 66.4769 38.3529 66.5195C43.7079 66.6258 48.7721 65.4936 53.5922 63.1124C57.9475 60.9608 61.8236 57.8231 64.8844 53.9712C65.5802 53.0957 66.7525 51.4589 66.7525 51.3631C66.7525 51.3499 66.4934 51.3392 66.1765 51.3392H65.6006L65.4577 51.5473C65.1619 51.9783 64.1051 53.3802 63.7876 53.7627C62.4006 55.4341 60.8992 56.9391 59.3369 58.2242L58.7429 58.7127L58.3573 58.4328C57.3907 57.731 56.2759 57.025 55.2324 56.4538L54.6694 56.1456L54.9729 55.7972C55.8114 54.8345 57.003 53.3495 57.8903 52.1611C58.1822 51.7702 58.4356 51.4253 58.4533 51.3947C58.4785 51.3514 58.3516 51.3397 57.8747 51.3415L57.2639 51.3437L56.91 51.8187C56.1656 52.8176 54.5951 54.7507 53.9002 55.5232L53.7492 55.691L53.2063 55.4441C51.9086 54.854 50.21 54.2311 48.859 53.8498C48.4454 53.733 48.0896 53.6218 48.0684 53.6026C48.0473 53.5834 48.1698 53.2512 48.3408 52.8644C48.6709 52.1176 48.9696 51.4049 48.9696 51.3639C48.9696 51.3503 48.734 51.3392 48.446 51.3392H47.9224L47.6632 51.9501C47.2643 52.8902 47.0268 53.3904 46.9902 53.3679C46.9718 53.3566 46.6579 53.2866 46.2926 53.2123C44.2438 52.7955 42.2369 52.5591 40.255 52.5012L39.2597 52.4721L39.2473 51.9057L39.2349 51.3392H38.751H38.267L38.2547 51.9057L38.2423 52.4721L37.446 52.5034C35.283 52.5885 32.8122 52.9196 30.8548 53.3867C30.6602 53.4332 30.4795 53.4713 30.4533 53.4715C30.4087 53.4718 29.9611 52.5202 29.6279 51.7168L29.4805 51.3614L28.9418 51.349L28.4032 51.3365L28.6387 51.9043C28.7682 52.2166 28.9981 52.7492 29.1497 53.0879C29.3012 53.4265 29.4085 53.7184 29.388 53.7366C29.3675 53.7548 29.0024 53.8742 28.5766 54.0019C27.2337 54.4048 25.5867 55.0373 24.3521 55.6243L23.8212 55.8767L23.6032 55.6406C22.939 54.9213 21.5022 53.1637 20.5318 51.8834L20.1192 51.3392H19.503H18.8868L19.4269 52.0612C20.4268 53.3978 21.5707 54.824 22.4354 55.8124C22.8391 56.2738 22.9267 56.4041 22.8332 56.4041C22.6783 56.4041 20.1343 58.0065 19.4173 58.5557L19.2158 58.71L18.8144 58.3899C16.6983 56.7025 14.418 54.273 12.8437 52.0288L12.364 51.3449L11.7779 51.342C11.4555 51.3405 11.1918 51.3511 11.1918 51.3658ZM38.2536 57.2149L38.2423 60.958L38.0211 60.9696C37.5448 60.9946 36.5345 61.1237 36.0083 61.2269C35.7042 61.2865 35.4421 61.3354 35.4259 61.3355C35.3449 61.3359 33.4482 58.6736 32.6092 57.3818C31.7716 56.0921 30.831 54.4382 30.9082 54.3909C30.9683 54.3539 32.4144 54.0601 33.1109 53.9433C34.6073 53.6923 36.5318 53.5017 37.7891 53.48L38.2649 53.4718L38.2536 57.2149ZM41.7148 53.5608C42.4704 53.6215 43.3846 53.7244 44.1257 53.8322C44.6726 53.9118 46.21 54.1887 46.4824 54.2566C46.5803 54.281 46.5746 54.2979 46.279 54.8653C45.5342 56.2946 44.2173 58.322 42.6727 60.4172C42.1464 61.1312 42.0424 61.2501 41.9628 61.2284C41.7755 61.1772 40.6644 61.0295 40.2771 61.0042C40.0582 60.9899 39.7347 60.967 39.5583 60.9532L39.2376 60.9282V57.1929V53.4576L40.1997 53.487C40.7289 53.5033 41.4107 53.5365 41.7148 53.5608ZM48.0848 54.6509C48.8791 54.8638 50.0668 55.2482 50.8999 55.5621C51.7237 55.8724 52.9409 56.3822 53.007 56.4447C53.0594 56.4942 51.6809 57.8308 50.9381 58.4507C49.5621 59.5991 47.4091 61.1726 45.8378 62.1782L45.4709 62.4131L44.9974 62.1903C44.7369 62.0678 44.2153 61.8619 43.8382 61.733C43.461 61.6039 43.1465 61.4941 43.1391 61.4887C43.1317 61.4834 43.3426 61.1819 43.6077 60.8187C45.2034 58.632 46.6121 56.4248 47.3337 54.9806C47.4553 54.7372 47.5795 54.5381 47.6097 54.5382C47.6399 54.5382 47.8537 54.589 48.0848 54.6509ZM30.1923 55.2378C30.9907 56.764 32.3836 58.9182 33.8695 60.9252C34.1457 61.2981 34.3716 61.6114 34.3716 61.6214C34.3716 61.6313 34.2671 61.6735 34.1393 61.7151C33.759 61.839 32.9923 62.1606 32.5715 62.3728C32.2517 62.5341 32.1619 62.5624 32.0915 62.5237C32.0439 62.4976 31.5869 62.1967 31.076 61.8549C28.6125 60.2072 26.7737 58.7972 25.344 57.4597C24.5966 56.7605 24.5233 56.6808 24.5772 56.6266C24.6471 56.5564 25.666 56.1065 26.5418 55.7591C27.5746 55.3494 29.5863 54.6842 29.8224 54.6744C29.8728 54.6723 29.9891 54.8495 30.1923 55.2378ZM54.591 57.2323C55.5659 57.7558 56.8545 58.5598 57.6995 59.1717L57.9141 59.327L57.6553 59.5193C56.8825 60.0933 55.4061 61.0241 54.3 61.6344C52.6663 62.5358 50.9218 63.2925 48.9943 63.9358L48.0237 64.2597L47.7115 63.9709C47.5397 63.8121 47.186 63.5211 46.9256 63.3242L46.452 62.9663L47.3458 62.3601C50.0692 60.5133 52.345 58.6792 53.5732 57.3417C53.7775 57.1192 53.9664 56.9372 53.993 56.9372C54.0197 56.9372 54.2887 57.07 54.591 57.2323ZM24.3699 57.8817C25.4078 58.9041 26.597 59.8945 28.1519 61.0315C28.8805 61.5643 30.5018 62.6832 30.9318 62.95C31.0958 63.0517 31.2295 63.145 31.2287 63.1572C31.228 63.1694 31.1237 63.2524 30.9969 63.3416C30.8701 63.4308 30.5755 63.6731 30.3424 63.8801L29.9184 64.2564L28.9489 63.934C26.3742 63.0779 24.0713 61.9844 21.8085 60.5436C21.1733 60.1391 20.1011 59.4013 20.0663 59.3447C20.0394 59.3011 21.0566 58.5942 21.8665 58.0936C22.4425 57.7375 23.528 57.1149 23.5726 57.1149C23.583 57.1149 23.9417 57.4599 24.3699 57.8817ZM40.6089 62.0296C42.4764 62.2342 44.3314 62.8405 45.715 63.6985C46.1174 63.948 46.8462 64.4896 46.8462 64.5391C46.8462 64.5811 45.9132 64.8026 45.0104 64.975C41.4759 65.6501 37.9756 65.7309 34.3937 65.22C33.2137 65.0517 31.0959 64.6158 31.0996 64.5419C31.1018 64.4954 31.6153 64.0994 32.0092 63.8403C34.2673 62.3553 37.4553 61.684 40.6089 62.0296Z" fill="#5472D3"/>
</svg>
