<svg width="300" height="64" viewBox="0 0 300 64" fill="none" xmlns="http://www.w3.org/2000/svg">
<path fill-rule="evenodd" clip-rule="evenodd" d="M60.4019 36.7L66.0222 46.4689L61.6659 54.0195L61.666 54.0195L61.3439 54.5777L56.0522 63.7507H56.0515L44.8169 63.7128L38.3879 63.6912L44.1381 53.9603L50.4314 53.9816L50.5902 53.9821C50.8455 53.5213 51.1101 53.0446 51.3838 52.5515L51.3855 52.5484L51.9194 51.5862H51.9201C52.7797 50.0375 53.7257 48.3372 54.7647 46.4702L54.7699 46.4622L33.6911 9.82581L33.6671 9.78431H33.6664L28.0918 0.0952148L28.0931 0.095211L28.0928 0.0946846L29.4779 0.0895653L29.4713 0.0512352L32.4803 0.0487671L39.3049 0.0426636L39.3054 0.0431671L44.8169 0.0387726L44.8167 0.0385361L56.0511 -2.67029e-05L56.0515 0.000652313L60.5307 7.76363L61.666 9.73191L74.4838 31.8197L68.7594 41.6665L50.4309 9.76971L50.4308 9.76965H50.4307L44.9102 9.77404L44.9105 9.77451L44.9186 9.78771L60.4019 36.7Z" fill="#4A3AFF"/>
<path fill-rule="evenodd" clip-rule="evenodd" d="M27 63.6616L26.9973 63.6531L27.3874 63.6544L28.4412 61.8527L33.0769 53.9235L37.5343 46.2983L43.1812 36.6391L37.5343 26.9793L31.8874 36.6391L22.847 52.103L22.8466 52.1036L19.8764 46.9269L28.814 31.3854L34.4337 21.6786L28.7731 11.9962L23.1534 21.703L14.1026 36.8638L11.241 31.8764L11.2408 31.8761L11.241 31.8759L23.8735 9.85956L25.6824 6.70694L21.8294 0.116108L18.2157 0.128559L12.6105 9.89764L5.62052 22.0797L3.6385 25.5344L2.04909 28.3044L0 31.8759L0.000143915 31.8761L0 31.8764L5.13092 40.8189L5.62051 41.6722L8.37085 46.4656L8.37026 46.4666L12.6093 53.8545L14.2488 56.712L14.2494 56.711L18.2122 63.6179L18.2158 63.6235L27 63.6616ZM242.792 62.338C241.599 62.338 240.523 62.1299 239.566 61.7138C238.608 61.2977 237.791 60.705 237.116 59.9356C236.449 59.1662 235.939 58.2398 235.585 57.1564C235.232 56.0652 235.055 54.8483 235.055 53.5058C235.055 51.7315 235.362 50.1849 235.974 48.866C236.594 47.5392 237.481 46.5107 238.635 45.7806C239.789 45.0505 241.175 44.6854 242.792 44.6854C244.598 44.6854 246.066 45.1094 247.197 45.9572C248.335 46.7973 249.128 47.9278 249.575 49.3488L247.833 49.7727C247.464 48.7364 246.855 47.9082 246.007 47.288C245.167 46.6677 244.119 46.3576 242.863 46.3576C241.536 46.3498 240.433 46.6481 239.554 47.2526C238.675 47.8493 238.011 48.6893 237.564 49.7727C237.124 50.8483 236.9 52.0927 236.892 53.5058C236.885 54.9189 237.101 56.1633 237.54 57.2389C237.988 58.3066 238.655 59.1466 239.542 59.759C240.429 60.3635 241.536 60.6697 242.863 60.6775C244.08 60.6775 245.085 60.442 245.878 59.9709C246.671 59.4999 247.271 58.8247 247.68 57.9454C248.096 57.0661 248.331 56.0259 248.386 54.8247H244.476V53.3409H250.2C250.223 53.5215 250.235 53.7138 250.235 53.918C250.243 54.1142 250.247 54.2556 250.247 54.3419C250.247 55.8728 249.972 57.2428 249.422 58.4518C248.873 59.653 248.045 60.6029 246.938 61.3017C245.838 61.9925 244.457 62.338 242.792 62.338ZM252.604 45.0269H254.194L260.859 59.2879L267.489 45.0269H269.102V61.9729H267.454V48.8895L261.412 61.9847H260.294L254.264 48.8895V61.9847H252.604V45.0269ZM278.955 45.0269H272.407V61.9847H279.496C280.494 61.9847 281.369 61.7923 282.123 61.4076C282.876 61.023 283.461 60.4773 283.877 59.7708C284.293 59.0563 284.501 58.2084 284.501 57.2271C284.501 56.1123 284.187 55.1623 283.559 54.3772C283.078 53.7763 282.46 53.3133 281.703 52.9884C282.196 52.7064 282.611 52.3214 282.947 51.8336C283.434 51.1192 283.677 50.3066 283.677 49.3959C283.677 48.5951 283.481 47.865 283.088 47.2055C282.696 46.5382 282.146 46.0083 281.44 45.6157C280.733 45.2232 279.905 45.0269 278.955 45.0269ZM279.073 60.3242H274.15V53.8944H279.39C280.026 53.8944 280.592 54.0475 281.086 54.3537C281.589 54.652 281.985 55.0524 282.276 55.5549C282.566 56.0573 282.711 56.6226 282.711 57.2506C282.711 57.8944 282.55 58.444 282.229 58.8993C281.915 59.3547 281.483 59.7079 280.933 59.9592C280.384 60.2025 279.763 60.3242 279.073 60.3242ZM278.943 52.2575H274.15V46.6638H278.943C279.799 46.6638 280.501 46.915 281.051 47.4175C281.608 47.9199 281.887 48.5716 281.887 49.3723C281.887 49.9376 281.754 50.4361 281.487 50.8679C281.228 51.2997 280.874 51.6412 280.427 51.8925C279.979 52.1358 279.485 52.2575 278.943 52.2575ZM286.851 45.0269H288.583V52.6697H297.956V45.0269H299.676V61.9847H297.956V54.3301H288.583V61.9847H286.851V45.0269ZM116.484 31.8081C117.98 32.4557 119.658 32.7796 121.519 32.7796C122.826 32.7796 124.074 32.6147 125.264 32.285C126.465 31.9553 127.531 31.4607 128.461 30.8012C129.391 30.1417 130.127 29.3174 130.669 28.3282C131.222 27.3272 131.499 26.1672 131.499 24.8483C131.499 23.5765 131.264 22.5284 130.793 21.7041C130.333 20.8797 129.744 20.2144 129.026 19.708C128.308 19.2016 127.56 18.8071 126.783 18.5245C126.006 18.2418 125.305 18.0181 124.681 17.8532L120.123 16.5814C119.546 16.4283 118.975 16.2399 118.41 16.0161C117.856 15.7806 117.391 15.4685 117.014 15.0799C116.638 14.6795 116.449 14.1673 116.449 13.5431C116.449 12.8837 116.667 12.3066 117.103 11.812C117.55 11.3174 118.133 10.9406 118.851 10.6815C119.582 10.4107 120.371 10.2811 121.218 10.2929C122.09 10.3164 122.908 10.4931 123.674 10.8228C124.451 11.1526 125.105 11.6354 125.635 12.2713C126.176 12.8954 126.541 13.655 126.73 14.55L131.305 13.7551C130.928 12.1889 130.28 10.8523 129.362 9.7453C128.443 8.63834 127.301 7.79633 125.935 7.2193C124.569 6.63049 123.014 6.33019 121.271 6.31842C119.552 6.30664 117.986 6.5775 116.573 7.13098C115.171 7.68446 114.053 8.52057 113.217 9.63931C112.392 10.7463 111.98 12.1182 111.98 13.7551C111.98 14.8738 112.163 15.8159 112.528 16.5814C112.904 17.3351 113.381 17.9592 113.958 18.4538C114.547 18.9366 115.165 19.3194 115.813 19.602C116.473 19.8729 117.085 20.0907 117.65 20.2556L124.221 22.1987C124.692 22.34 125.105 22.5107 125.458 22.7109C125.823 22.8993 126.117 23.1113 126.341 23.3468C126.577 23.5824 126.753 23.8532 126.871 24.1594C126.989 24.4538 127.048 24.7776 127.048 25.1309C127.048 25.9199 126.795 26.5853 126.288 27.127C125.794 27.6687 125.146 28.0809 124.345 28.3635C123.544 28.6461 122.69 28.7875 121.784 28.7875C120.253 28.7875 118.899 28.3753 117.721 27.5509C116.555 26.7266 115.784 25.5608 115.407 24.0534L110.991 24.7247C111.25 26.3851 111.856 27.8218 112.81 29.0348C113.776 30.2359 115.001 31.1604 116.484 31.8081ZM91.6793 6.81302V32.2497H108.107V28.2575H95.9364V21.0681H105.987V17.076H95.9364V10.8052H108.107V6.81302H91.6793ZM151.81 32.7796C149.95 32.7796 148.272 32.4557 146.776 31.8081C145.292 31.1604 144.067 30.2359 143.102 29.0348C142.148 27.8218 141.541 26.3851 141.282 24.7247L145.698 24.0534C146.075 25.5608 146.847 26.7266 148.013 27.5509C149.19 28.3753 150.544 28.7875 152.075 28.7875C152.982 28.7875 153.836 28.6461 154.637 28.3635C155.437 28.0809 156.085 27.6687 156.58 27.127C157.086 26.5853 157.339 25.9199 157.339 25.1309C157.339 24.7776 157.28 24.4538 157.163 24.1594C157.045 23.8532 156.868 23.5824 156.633 23.3468C156.409 23.1113 156.115 22.8993 155.749 22.7109C155.396 22.5107 154.984 22.34 154.513 22.1987L147.942 20.2556C147.377 20.0907 146.764 19.8729 146.105 19.602C145.457 19.3194 144.839 18.9366 144.25 18.4538C143.673 17.9592 143.196 17.3351 142.819 16.5814C142.454 15.8159 142.272 14.8738 142.272 13.7551C142.272 12.1182 142.684 10.7463 143.508 9.63931C144.344 8.52057 145.463 7.68446 146.864 7.13098C148.277 6.5775 149.844 6.30664 151.563 6.31842C153.306 6.33019 154.86 6.63049 156.226 7.2193C157.592 7.79633 158.735 8.63834 159.653 9.7453C160.572 10.8523 161.22 12.1889 161.596 13.7551L157.021 14.55C156.833 13.655 156.468 12.8954 155.926 12.2713C155.396 11.6354 154.743 11.1526 153.965 10.8228C153.2 10.4931 152.381 10.3164 151.51 10.2929C150.662 10.2811 149.873 10.4107 149.143 10.6815C148.425 10.9406 147.842 11.3174 147.394 11.812C146.959 12.3066 146.741 12.8837 146.741 13.5431C146.741 14.1673 146.929 14.6795 147.306 15.0799C147.683 15.4685 148.148 15.7806 148.701 16.0161C149.267 16.2399 149.838 16.4283 150.415 16.5814L154.972 17.8532C155.596 18.0181 156.297 18.2418 157.074 18.5245C157.852 18.8071 158.599 19.2016 159.318 19.708C160.036 20.2144 160.625 20.8797 161.084 21.7041C161.555 22.5284 161.791 23.5765 161.791 24.8483C161.791 26.1672 161.514 27.3272 160.96 28.3282C160.419 29.3174 159.683 30.1417 158.752 30.8012C157.822 31.4607 156.756 31.9553 155.555 32.285C154.366 32.6147 153.117 32.7796 151.81 32.7796ZM170.727 21.8277V32.2497H175.037V21.8277L183.675 6.81302H178.711L172.882 16.9523L167.035 6.81302H162.072L170.727 21.8277ZM194.488 32.7796C192.627 32.7796 190.949 32.4557 189.453 31.8081C187.969 31.1604 186.745 30.2359 185.779 29.0348C184.825 27.8218 184.219 26.3851 183.96 24.7247L188.376 24.0534C188.753 25.5608 189.524 26.7266 190.69 27.5509C191.867 28.3753 193.222 28.7875 194.753 28.7875C195.659 28.7875 196.513 28.6461 197.314 28.3635C198.115 28.0809 198.762 27.6687 199.257 27.127C199.763 26.5853 200.017 25.9199 200.017 25.1309C200.017 24.7776 199.958 24.4538 199.84 24.1594C199.722 23.8532 199.546 23.5824 199.31 23.3468C199.086 23.1113 198.792 22.8993 198.427 22.7109C198.074 22.5107 197.661 22.34 197.19 22.1987L190.619 20.2556C190.054 20.0907 189.442 19.8729 188.782 19.602C188.134 19.3194 187.516 18.9366 186.927 18.4538C186.35 17.9592 185.873 17.3351 185.496 16.5814C185.131 15.8159 184.949 14.8738 184.949 13.7551C184.949 12.1182 185.361 10.7463 186.185 9.63931C187.022 8.52057 188.14 7.68446 189.542 7.13098C190.955 6.5775 192.521 6.30664 194.24 6.31842C195.983 6.33019 197.538 6.63049 198.904 7.2193C200.27 7.79633 201.412 8.63834 202.331 9.7453C203.249 10.8523 203.897 12.1889 204.274 13.7551L199.699 14.55C199.51 13.655 199.145 12.8954 198.603 12.2713C198.074 11.6354 197.42 11.1526 196.643 10.8228C195.877 10.4931 195.059 10.3164 194.187 10.2929C193.339 10.2811 192.55 10.4107 191.82 10.6815C191.102 10.9406 190.519 11.3174 190.072 11.812C189.636 12.3066 189.418 12.8837 189.418 13.5431C189.418 14.1673 189.606 14.6795 189.983 15.0799C190.36 15.4685 190.825 15.7806 191.379 16.0161C191.944 16.2399 192.515 16.4283 193.092 16.5814L197.65 17.8532C198.274 18.0181 198.974 18.2418 199.752 18.5245C200.529 18.8071 201.277 19.2016 201.995 19.708C202.713 20.2144 203.302 20.8797 203.761 21.7041C204.232 22.5284 204.468 23.5765 204.468 24.8483C204.468 26.1672 204.191 27.3272 203.638 28.3282C203.096 29.3174 202.36 30.1417 201.43 30.8012C200.499 31.4607 199.434 31.9553 198.232 32.285C197.043 32.6147 195.795 32.7796 194.488 32.7796ZM214.403 10.8052V32.2497H218.66V10.8052H226.892V6.81302H206.172V10.8052H214.403ZM229.716 32.2497V6.81302H246.144V10.8052H233.974V17.076H244.024V21.0681H233.974V28.2575H246.144V32.2497H229.716ZM250.382 6.81302V32.2497H254.374V15.9455L262.164 32.2497H263.86L271.668 15.9455V32.2497H275.642V6.81302H271.809L263.012 24.8306L254.215 6.81302H250.382ZM290.02 32.7796C288.159 32.7796 286.481 32.4557 284.986 31.8081C283.502 31.1604 282.277 30.2359 281.311 29.0348C280.358 27.8218 279.751 26.3851 279.492 24.7247L283.908 24.0534C284.285 25.5608 285.056 26.7266 286.222 27.5509C287.4 28.3753 288.754 28.7875 290.285 28.7875C291.192 28.7875 292.045 28.6461 292.846 28.3635C293.647 28.0809 294.295 27.6687 294.789 27.127C295.296 26.5853 295.549 25.9199 295.549 25.1309C295.549 24.7776 295.49 24.4538 295.372 24.1594C295.254 23.8532 295.078 23.5824 294.842 23.3468C294.619 23.1113 294.324 22.8993 293.959 22.7109C293.606 22.5107 293.194 22.34 292.723 22.1987L286.151 20.2556C285.586 20.0907 284.974 19.8729 284.314 19.602C283.667 19.3194 283.048 18.9366 282.46 18.4538C281.883 17.9592 281.406 17.3351 281.029 16.5814C280.664 15.8159 280.481 14.8738 280.481 13.7551C280.481 12.1182 280.893 10.7463 281.718 9.63931C282.554 8.52057 283.673 7.68446 285.074 7.13098C286.487 6.5775 288.053 6.30664 289.773 6.31842C291.516 6.33019 293.07 6.63049 294.436 7.2193C295.802 7.79633 296.944 8.63834 297.863 9.7453C298.781 10.8523 299.429 12.1889 299.806 13.7551L295.231 14.55C295.043 13.655 294.677 12.8954 294.136 12.2713C293.606 11.6354 292.952 11.1526 292.175 10.8228C291.41 10.4931 290.591 10.3164 289.72 10.2929C288.872 10.2811 288.083 10.4107 287.353 10.6815C286.634 10.9406 286.051 11.3174 285.604 11.812C285.168 12.3066 284.95 12.8837 284.95 13.5431C284.95 14.1673 285.139 14.6795 285.516 15.0799C285.892 15.4685 286.358 15.7806 286.911 16.0161C287.476 16.2399 288.047 16.4283 288.624 16.5814L293.182 17.8532C293.806 18.0181 294.507 18.2418 295.284 18.5245C296.061 18.8071 296.809 19.2016 297.527 19.708C298.246 20.2144 298.834 20.8797 299.294 21.7041C299.765 22.5284 300 23.5765 300 24.8483C300 26.1672 299.724 27.3272 299.17 28.3282C298.628 29.3174 297.892 30.1417 296.962 30.8012C296.032 31.4607 294.966 31.9553 293.765 32.285C292.575 32.6147 291.327 32.7796 290.02 32.7796Z" fill="#3F3F3F"/>
</svg>
