<svg width="44" height="44" viewBox="0 0 44 44" fill="none" xmlns="http://www.w3.org/2000/svg">
<g clip-path="url(#clip0_517_1538)">
<mask id="mask0_517_1538" style="mask-type:alpha" maskUnits="userSpaceOnUse" x="3" y="0" width="38" height="44">
<path d="M38.7174 4.45096C39.7001 4.47898 40.5161 5.23523 40.6156 6.2101C40.9077 9.07371 41.3655 16.5679 39.3133 24.2901C38.1486 28.6722 36.3465 32.4711 33.9573 35.5812C31.0596 39.3531 27.2711 42.1428 22.6973 43.8726C22.4727 43.9576 22.2367 44.0001 22.0007 44.0001C21.7648 44.0001 21.5287 43.9576 21.304 43.8726C16.7304 42.1428 12.9419 39.3531 10.0442 35.5812C7.65485 32.4711 5.85291 28.6722 4.6882 24.2901C2.63575 16.5679 3.09371 9.07371 3.38582 6.2101C3.48533 5.23523 4.30139 4.47898 5.28409 4.45096C7.12943 4.39837 8.96462 4.21283 10.7385 3.8995L13.6123 3.26855C17.3127 2.29195 19.8246 0.975992 20.9927 0.278437C21.6143 -0.0927266 22.3869 -0.0928985 23.0087 0.278437C24.9781 1.45449 30.4513 4.21532 38.7174 4.45096Z" fill="#0047BB"/>
</mask>
<g mask="url(#mask0_517_1538)">
<path d="M40.6156 6.2101C40.5161 5.23523 39.7001 4.47898 38.7174 4.45096C30.4513 4.21532 24.9781 1.45449 23.0087 0.278437C22.3869 -0.0928984 21.6143 -0.0927265 20.9927 0.278437C19.8246 0.975992 17.3127 2.29195 13.6123 3.26855C13.2687 3.3593 13.0637 3.71138 13.1543 4.05496C13.245 4.39854 13.5973 4.60341 13.9407 4.51292C17.7938 3.49594 20.4264 2.11561 21.6526 1.38342C21.8674 1.25503 22.1341 1.25503 22.349 1.38342C24.405 2.61112 30.1122 5.49321 38.6808 5.73745C39.0198 5.74707 39.3012 6.00643 39.3353 6.34064C39.6202 9.13404 40.0673 16.4424 38.0695 23.9595C36.9488 28.1763 35.2219 31.8227 32.9368 34.7971C30.1871 38.3764 26.5888 41.0248 22.2419 42.6688C22.0863 42.7276 21.9151 42.7276 21.7594 42.6688C17.4127 41.0248 13.8144 38.3764 11.0647 34.7971C8.7796 31.8227 7.05268 28.1763 5.93189 23.9595C3.93401 16.4424 4.38114 9.13387 4.66611 6.34064C4.70023 6.00643 4.98159 5.74707 5.3207 5.73745C7.22868 5.68305 9.12678 5.49115 10.9624 5.16691C11.3123 5.10512 11.5459 4.77125 11.4841 4.42123C11.4223 4.07129 11.0886 3.83754 10.7385 3.8995C8.96462 4.21283 7.12943 4.39837 5.28409 4.45096C4.30139 4.47898 3.48533 5.23523 3.38582 6.2101C3.09371 9.07371 2.63575 16.5679 4.6882 24.2901C5.85291 28.6722 7.65485 32.4711 10.0442 35.5812C12.9419 39.3531 16.7304 42.1428 21.304 43.8726C21.5287 43.9576 21.7648 44.0001 22.0007 44.0001C22.2367 44.0001 22.4727 43.9576 22.6973 43.8726C27.2711 42.1428 31.0596 39.3531 33.9573 35.5812C36.3465 32.4711 38.1486 28.6722 39.3133 24.2901C41.3656 16.5679 40.9077 9.07371 40.6156 6.2101Z" fill="#0047BB"/>
<path d="M7.07372 9.04777C6.88913 10.8579 6.41819 17.2747 8.11133 23.8494C9.04152 27.4612 10.4803 30.5855 12.3876 33.1358C14.7078 36.238 17.7401 38.5128 21.4005 39.8973C21.5941 39.9704 21.7974 40.007 22.0008 40.007C22.2041 40.007 22.4076 39.9704 22.6012 39.8972C26.2614 38.5128 29.2938 36.2381 31.614 33.1358C33.5213 30.5855 34.9601 27.4613 35.8903 23.8494C37.5834 17.2747 37.1125 10.8579 36.9279 9.04777C36.8421 8.20722 36.1386 7.55521 35.2916 7.53106C28.7522 7.34466 24.4261 5.16262 22.8698 4.23329C22.3338 3.91309 21.6679 3.91318 21.1319 4.23321C19.5755 5.16262 15.2494 7.34466 8.71006 7.53106C7.86297 7.55521 7.15949 8.20722 7.07372 9.04777ZM21.7918 5.33811C21.8563 5.29961 21.9285 5.28036 22.0008 5.28036C22.0731 5.28036 22.1454 5.29961 22.2099 5.33819C23.8528 6.31934 28.413 8.62247 35.2549 8.81754C35.4584 8.8233 35.6271 8.97842 35.6475 9.17831C35.8267 10.9347 36.2839 17.1604 34.6439 23.5283C32.6677 31.2019 28.4628 36.3042 22.146 38.6933C22.0525 38.7289 21.9493 38.7288 21.8557 38.6934C15.5388 36.3041 11.3339 31.2019 9.35768 23.5283C7.71774 17.1605 8.17492 10.9348 8.3541 9.17831C8.37447 8.97851 8.54325 8.8233 8.74684 8.81754C15.5886 8.62247 20.1488 6.31934 21.7918 5.33811Z" fill="#0047BB"/>
<path d="M21.9997 30.1993C24.9356 30.1993 27.7019 28.7665 29.3995 26.3667C29.6047 26.0766 29.5359 25.6751 29.2457 25.4698C28.9557 25.2645 28.554 25.3333 28.3488 25.6235C26.8921 27.6828 24.5186 28.9124 21.9997 28.9124C17.7146 28.9124 14.2285 25.4262 14.2285 21.1411C14.2285 16.856 17.7146 13.3699 21.9997 13.3699C26.2848 13.3699 29.771 16.856 29.771 21.1411C29.771 21.8113 29.6857 22.4763 29.5175 23.1179C29.4273 23.4617 29.633 23.8134 29.9767 23.9036C30.3204 23.9934 30.6722 23.7881 30.7624 23.4443C30.9585 22.6962 31.0579 21.9213 31.0579 21.1411C31.0579 16.1464 26.9944 12.0829 21.9996 12.0829C17.0049 12.0829 12.9414 16.1464 12.9414 21.1411C12.9414 26.1359 17.005 30.1993 21.9997 30.1993Z" fill="#0047BB"/>
<path d="M25.3757 16.6226C24.8383 16.6441 24.3415 16.8735 23.9768 17.2686L20.7449 20.7689L19.9447 19.9955C19.1465 19.2243 17.8694 19.2459 17.0978 20.0441C16.3265 20.8423 16.3481 22.1193 17.1464 22.891L19.4276 25.0957C19.805 25.4605 20.3018 25.6614 20.8268 25.6614C20.8467 25.6614 20.8666 25.6612 20.8841 25.6606C21.4226 25.6453 21.9408 25.4094 22.306 25.0138L26.9351 20C27.6883 19.1844 27.6374 17.9081 26.8217 17.155C26.4266 16.7902 25.9125 16.6014 25.3757 16.6226ZM25.9895 19.1271C25.9895 19.1271 21.3604 24.1408 21.3603 24.1409C21.0845 24.4397 20.6141 24.4527 20.322 24.1704C20.3206 24.169 18.0407 21.9656 18.0407 21.9656C17.7527 21.6871 17.7449 21.2264 18.0231 20.9385C18.1654 20.7913 18.3554 20.7172 18.5456 20.7172C18.7275 20.7172 18.9095 20.785 19.0503 20.9209C19.0503 20.9209 20.3221 22.1501 20.3238 22.1518C20.5766 22.396 21.0049 22.3844 21.2438 22.1257C21.2438 22.1257 24.9107 18.1542 24.9223 18.1417C25.5438 17.4686 26.6299 18.4337 25.9895 19.1271Z" fill="#0047BB"/>
</g>
</g>
<defs>
<clipPath id="clip0_517_1538">
<rect width="44" height="44" fill="white"/>
</clipPath>
</defs>
</svg>
