<svg width="303" height="160" fill="none" xmlns="http://www.w3.org/2000/svg"><g clip-path="url(#a)"><rect width="303" height="160" rx="12" fill="#2EB57D"/><path d="m211.005 114.286-35.962-21.585-15.203 8.82-14.951-8.82-56.471 32.807 14.844 8.785-14.844 8.605 35.962 21.62 15.203-8.82 14.951 8.82 56.471-32.843-14.88-8.784 14.88-8.605Z" fill="#fff"/><path d="m196.125 122.891 14.88 8.784v-17.389l-14.88 8.605Zm14.88 8.784-56.471 32.843v21.706l56.471-3.045v-51.504Zm-56.471 32.843-14.951-8.82v27.481l14.951 3.045v-21.706Zm-14.951-8.82-15.203 8.82v20.915l15.203-2.254v-27.481Zm-15.203 8.82-35.962-21.62v40.281l35.962 2.254v-20.915Zm-21.118-30.225-14.844-8.785v17.39l14.844-8.605Z" fill="#fff"/><path d="m211.005 114.286-35.962-21.585-15.203 8.82-14.951-8.82-56.471 32.807m122.587-11.222-14.88 8.605 14.88 8.784m0-17.389v17.389m-122.587-6.167 14.844 8.785-14.844 8.605m0-17.39v17.39m0 0 35.962 21.62m-35.962-21.62v40.281l35.962 2.254m0-20.915 15.203-8.82m-15.203 8.82v20.915m15.203-29.735 14.951 8.82m-14.951-8.82v27.481m14.951-18.661 56.471-32.843m-56.471 32.843v21.706m56.471-54.549v51.504l-56.471 3.045m-14.951-3.045 14.951 3.045m-14.951-3.045-15.203 2.254" stroke="#1C2A60"/><path d="m182.575 166.085-.019.882.767-.437 12.19-6.956.246-.14.006-.284.036-1.757.018-.883-.767.439-12.19 6.992-.245.141-.006.282-.036 1.721Zm8.535-9.592-.018.879.765-.434 7.78-4.41.254-.143v-2.912l-.749.43-7.745 4.446-.245.14-.006.283-.036 1.721Zm-14.521 8.302-.019.882.767-.438 12.226-6.992.246-.14.006-.283.036-1.721.018-.883-.766.438-12.227 6.992-.246.141-.005.283-.036 1.721Zm20.506-6.966v.871l.752-.439 3.012-1.757.242-.141.006-.28.036-1.721.018-.887-.768.443-3.048 1.757-.25.144v2.01Z" fill="#2EB57D" stroke="#1C2A60"/><path d="m98.742 168.045 1.398.825v-9.681l-1.398-.825v9.681Z" fill="#1C2A60"/><path d="M98.242 161.125v.286l.245.145 1.399.824.754.445v-3.922l-.246-.145-1.399-.824-.754-.445v3.636Z" fill="#FFC000" stroke="#1C2A60"/><path d="M102.081 164.572v.285l.246.145 1.398.825.754.445v-5.249l-.246-.145-1.398-.824-.754-.445v4.963Z" fill="#fff" stroke="#1C2A60"/><path d="m97.06 156.206-.933-.502v12.706l20.666 11.999v-1.505l-19.734-11.497v-11.201Z" fill="#1C2A60"/><path d="m173.107 107.473.292-.405-.131-.095h-46.359l-.131.094.292.406-.292-.406-.001.001-.004.003-.016.012-.065.046-.246.177-.911.653-3.029 2.176a1286.299 1286.299 0 0 0-7.203 5.215c-2.202 1.58-3.861 3.729-4.765 6.184h-.001l-.003.011a11.742 11.742 0 0 0-.637 3.717v.004c0 5.385 4.274 10.963 11.337 15.163 7.092 4.216 17.105 7.12 28.854 7.12 11.75 0 21.789-2.904 28.907-7.12 7.089-4.199 11.392-9.777 11.392-15.163h-.5m-16.78-17.793 16.457 15.166c.216.861.324 1.743.323 2.627m-16.78-17.793.292-.405.002.001.004.003.016.011.064.046.245.177.907.654 3.017 2.18a938.455 938.455 0 0 1 7.181 5.241l-11.728-7.908Zm16.78 17.793c0 10.243-16.457 21.783-39.799 21.783-23.341 0-39.691-11.54-39.691-21.783h79.49Z" fill="#1C2A60" fill-opacity=".2" stroke="#1C2A60"/><path d="M150.088 100.018c-8.762 0-16.217 2.316-21.496 5.699-5.258 3.369-8.441 7.859-8.441 12.226 0 4.366 3.182 8.874 8.44 12.261 5.279 3.401 12.734 5.736 21.497 5.736 8.762 0 16.208-2.326 21.478-5.718 5.25-3.378 8.423-7.877 8.423-12.243 0-4.367-3.182-8.865-8.436-12.244-5.275-3.391-12.721-5.717-21.465-5.717Z" fill="#fff" stroke="#1C2A60"/><path d="M163.103 105.372c-10.254-3.906-24.345-2.617-31.911 3.476-7.565 6.093-5.593 15.622 5.881 20.192 11.473 4.57 26.676 2.148 33.416-4.843 6.741-6.991 2.904-14.802-7.386-18.825Z" fill="#1C2A60"/><mask id="b" style="mask-type:alpha" maskUnits="userSpaceOnUse" x="126" y="103" width="48" height="29"><path d="M163.104 105.372c-10.255-3.906-24.345-2.617-31.911 3.476-7.565 6.093-5.593 15.622 5.88 20.192 11.474 4.57 26.676 2.148 33.417-4.843 6.741-6.991 2.904-14.802-7.386-18.825Z" fill="#1C2A60"/></mask><g mask="url(#b)" fill="#FFC000" stroke="#1C2A60"><path d="M165.631 110.819c-4.878-.993-12.41 5.247-12.41 5.247l.577 1.793c5.578-2.459 11.833-3.164 17.976-1.793 0 0-1.563-4.315-6.143-5.247Z"/><path d="M158.538 106.338c-4.7.679-8.052 8.144-8.052 8.144l2.962 1.466c3.964-3.444 7.463-5.976 12.656-7.031-1.81-1.767-5.149-2.915-7.566-2.579Zm-18.794-.586s-7.476 1.027-5.808 6.945c1.457 5.085 12.299 6.184 14.314 4.864l-.216-2.242s-7.846-3.748-8.29-9.567Z"/><path d="M144.886 106.848c-3.327 4.294 1.744 8.273 4.504 9.1l2.272-1.182a6.782 6.782 0 0 1-.22-5.167 7.038 7.038 0 0 1 3.506-3.894s-7.1-2.679-10.062 1.143Zm-17.776 6.701s-3.683 3.579 1.874 8.78c5.557 5.2 15.7-.09 20.354-3.371l-2.662-1.856a35.59 35.59 0 0 1-19.566-3.553Z"/><path d="M128.918 125.471c.977 1.229 2.354 2.275 4.015 3.053 1.662.778 3.561 1.265 5.541 1.42 7.266 1.174 11.452-5.591 12.756-9.338l-3.278-.195c-5.924 2.394-12.349 4.102-19.034 5.06Z"/><path d="m151.828 119.418-2.699 1.768s1.736 2.017-5.19 10.201c1.482.793 3.248 1.258 5.156 1.359 1.908.101 3.905-.166 5.828-.779 6.107-2.135 1.595-12.351-3.095-12.549Z"/><path d="m155.194 119.102-2.067 1.742a13.303 13.303 0 0 1 7.368 6.965 8.575 8.575 0 0 0 7.284-2.412c3.43-3.214-5.578-6.122-12.585-6.295Zm14.57-1.81c-4.069-2.899-14.021-.269-14.021-.269l-.74 1.464s9.793-.817 15.546 4.496a3.57 3.57 0 0 0 .833-1.398c.169-.528.218-1.09.141-1.643a3.7 3.7 0 0 0-.58-1.54c-.222-.334-1.179-1.11-1.179-1.11Z"/></g><path fill-rule="evenodd" clip-rule="evenodd" d="M146.216 104.1c-5.657.586-10.92 2.398-14.557 5.327-3.601 2.9-4.839 6.521-3.947 9.898.902 3.413 4.035 6.793 9.636 9.024 5.598 2.23 12.131 2.761 18.098 1.869 5.978-.893 11.289-3.199 14.508-6.537 3.208-3.327 3.808-6.72 2.543-9.721-1.293-3.071-4.616-5.921-9.662-7.894-5.003-1.905-10.97-2.551-16.619-1.966Zm-15.024 4.748c7.566-6.093 21.657-7.382 31.911-3.476 10.29 4.023 14.127 11.834 7.386 18.825-6.74 6.991-21.943 9.413-33.416 4.843-11.474-4.57-13.446-14.099-5.881-20.192Z" fill="#1C2A60"/><path d="M154.57 118.875a10.102 10.102 0 0 1-8.712.394c-1.327-.609-1.864-1.867-1.828-2.728l-.108 1.856c0 .932.645 1.769 2.007 2.414a10.15 10.15 0 0 0 4.572.75c1.656-.112 4.295-.589 5.228-2.168.247-.418.244-.804.235-1.289l-.098-1.563c-.008.467-.008 1.034-.262 1.427a2.5 2.5 0 0 1-1.034.907Z" fill="#1C2A60" stroke="#1C2A60"/><path d="M154.032 114.573a10.317 10.317 0 0 0-8.247 0c-2.438 1.255-2.474 3.334 0 4.553a10.112 10.112 0 0 0 8.713-.394c2.116-1.219 1.793-3.084-.466-4.159Z" fill="#FFC000" stroke="#1C2A60"/><path d="M106.439 75.983 69.593 55.638a.724.724 0 0 0-.591 0c-.294.136-.488.194-1.2.497.123.638.638 30.653.638 30.653a1.04 1.04 0 0 0 .43.859l36.101 20.861c.269-.071.992-.427 1.127-.459.402-.093.765-.601.748-1.21V76.842a.968.968 0 0 0-.407-.86Z" fill="#1C2A60"/><path d="M67.774 57.24v-.015a.83.83 0 0 1 .216-.602c.114-.112.174-.087.198-.075l36.814 20.327a.483.483 0 0 1 .135.169.485.485 0 0 1 .044.234l-.001.017v30.028a.853.853 0 0 1-.225.622c-.125.124-.18.083-.182.082l-.004-.003-36.793-20.327a.54.54 0 0 1-.202-.43V57.239Z" fill="#FFC000" stroke="#1C2A60"/><path d="m80.765 84.633.817.744.02-1.105.045-2.6.004-.23-.174-.153-6.22-5.472 5.98 1.384.613.142v-3.549l-.402-.08-11.302-2.26-.598-.12v3.092l.163.148 11.054 10.06Zm1.608 2.626-.155.398.37.215 2.215 1.289.503.292.214-.541 4.385-11.122.158-.4-.372-.216-2.26-1.31-.505-.294-.212.544-4.34 11.145Zm8.119 3.115v.407l.399.082 11.302 2.329.601.124v-2.939l-.165-.15-11.19-10.104-.834-.754v3.838l.17.15 6.184 5.44-5.85-1.42-.617-.15v3.146Z" fill="#fff" stroke="#1C2A60"/><path d="m230.21-.043-32.359-17.889c-.405-.227-1.383.156-1.96.515-.122.193.431.44.431.681V15.17a1.09 1.09 0 0 0 .452.904l31.857 18.474c.201.114.993-.316 1.245-.427.531-.236.832-.708.832-1.336V.861a1.072 1.072 0 0 0-.498-.904Z" fill="#293564"/><path d="m195.668 16.521 32.529 17.949c.746.422 1.405-.379 1.405-1.238V1.308c0-.18-.045-.358-.132-.516m-33.802 15.73.292-.407a.248.248 0 0 1-.02-.015m-.272.421.242-.437.03.016m-.272.421a1.088 1.088 0 0 1-.452-.904v-31.906c0-.859.964-1.512 1.529-1.195L229.104.404M195.94 16.1l32.498 17.932.005.003c.095.054.16.055.202.048a.355.355 0 0 0 .183-.107c.15-.148.274-.429.274-.744V1.306a.568.568 0 0 0-.07-.273l.438-.241M195.94 16.1a.579.579 0 0 1-.224-.473v-31.916c0-.24.138-.48.351-.637.231-.171.394-.145.434-.122l.002.001L228.848.834m.622-.042a1.062 1.062 0 0 0-.366-.388m.366.388-.438.24a.557.557 0 0 0-.184-.198m0 0a.079.079 0 0 0-.01-.006l.266-.424m-.256.43.014.008.242-.438" fill="#FFC000" stroke="#1C2A60"/><path d="M200.958 3.933v.26l.211.149a4.3 4.3 0 0 1 1.149 1.206c.28.49.472 1.026.567 1.582.134.937.193 1.883.175 2.83-.018.972.044 1.945.186 2.907l.002.014c.125.709.364 1.393.707 2.025a7.28 7.28 0 0 0 1.237 1.697l.007.007a11.478 11.478 0 0 0 2.027 1.58l.514.335.773.505v-4.062l-.252-.144a5.397 5.397 0 0 1-1.197-.928 1.74 1.74 0 0 1-.365-.589 2.689 2.689 0 0 1-.131-.983l.001-.014V9.725a14 14 0 0 0-.282-2.344l-.002-.01a9.92 9.92 0 0 0-.571-1.738l-.005-.012-.006-.012c-.174-.35-.366-.69-.575-1.021.151-.07.294-.155.427-.255l.032-.024.028-.028a2.51 2.51 0 0 0 .62-1.099c.099-.36.109-.905.1-1.445a47.164 47.164 0 0 0-.033-1.046c-.009-.258-.019-.517-.026-.762-.017-.61-.016-1.162.033-1.572a1.95 1.95 0 0 1 .08-.392c.383.155.745.358 1.077.605l.798.595v-4.051l-.231-.147-.487-.31a8.675 8.675 0 0 0-1.899-1.02 2.129 2.129 0 0 0-1.675.004l-.048.02-.043.031a1.973 1.973 0 0 0-.818 1.387 17.45 17.45 0 0 0-.138 3.182v.003a17.1 17.1 0 0 1 0 1.867v.007c-.012.28-.1.55-.255.782l-.008.011a.175.175 0 0 1-.123.081 2.629 2.629 0 0 1-.819-.33l-.762-.47v3.721Zm5.469-6.053-.002.003.002-.003Zm13.953 18.892.823.591-.032-1.013-.09-2.826-.008-.25-.206-.143a4.524 4.524 0 0 1-1.154-1.172 4.399 4.399 0 0 1-.582-1.566 18.608 18.608 0 0 1-.153-2.831h.001V7.55a20.66 20.66 0 0 0-.209-2.92l-.002-.01-.002-.011a7.4 7.4 0 0 0-.678-1.988l-.001-.001a6.832 6.832 0 0 0-1.244-1.708l-.004-.003a10.98 10.98 0 0 0-2.047-1.58l-.485-.33-.782-.533v4.126l.247.145c.462.27.888.598 1.268.974.136.157.243.337.317.532.094.355.132.722.113 1.089l-.001.018.001.02a56.271 56.271 0 0 0 .129 2.699c.03.463.051.794.051 1.018v.031l.004.031c.108.862.333 1.704.668 2.505l.005.011.005.01c.206.433.435.853.687 1.26-.134.062-.263.14-.382.231l-.023.018-.021.02a2.55 2.55 0 0 0-.674 1.124h-.001l-.002.011a8.007 8.007 0 0 0-.266 1.93v2.749l.011.052c.026.118.037.239.033.36a3.843 3.843 0 0 1-1.024-.567l-.806-.623v4.141l.232.147.485.309c.588.424 1.23.769 1.909 1.024.531.21 1.123.21 1.654-.001l.063-.026.053-.04a1.997 1.997 0 0 0 .784-1.431c.142-1.042.196-2.094.16-3.144v-.009l-.001-.008a13.69 13.69 0 0 1 0-1.845c.03-.288.12-.566.264-.816a.204.204 0 0 1 .14-.082c.279.04.544.148.773.312Zm-79.974 7.284 8.407-4.208 20.511 39.404-3.838 3.754-8.816 4.384-4.072 1.04-12.462-44.09.27-.284Z" fill="#fff" stroke="#1C2A60"/><path d="m162.026 46.127-.01.005-.01.005-14.709 8.111-5.714-3.606-.885-7.61 15.241-9.635 8.248-4.14.856 7.358.497-.058-.497.058.011.093.021.18.13.124 5.203 4.977-8.382 4.138Zm28.241 16.013 4.965.318 5.377 5.613-.018.143c-.033.242-.086.596-.165 1.036a28.45 28.45 0 0 1-.864 3.478c-.871 2.752-2.394 6.04-4.995 8.35-.928.775-3.484 2.258-6.183 3.642a73.519 73.519 0 0 1-3.889 1.863c-1.152.505-2.112.87-2.725 1.022a6.117 6.117 0 0 1-.361-.072c-.26-.06-.608-.147-1.019-.257a181.91 181.91 0 0 1-2.93-.813l-.977-.278c-.713-.203-1.393-.397-1.962-.556a66.2 66.2 0 0 0-1.045-.285 13.627 13.627 0 0 0-.469-.112c-6.578-3.954-9.889-10.865-12.282-15.861l-.282-.588 1.578-3.187 8.466-4.233a26.823 26.823 0 0 0 3.258 4.334c2.189 2.352 5.372 4.8 9.171 4.777.346-.002.659-.035.896-.141a.82.82 0 0 0 .361-.295.72.72 0 0 0 .112-.478c-.028-.263-.185-.495-.309-.655a6.803 6.803 0 0 0-.501-.558l-.227-.23a12.112 12.112 0 0 1-.908-.991c-.242-.307-.399-.578-.47-.81 1.469-.783 3.502-1.795 5.216-2.635a437.67 437.67 0 0 1 3.042-1.474l.139-.067Z" fill="#fff" stroke="#1C2A60"/><path d="m172.422 40.463-14.605-8.815 8.083-4.057c3.399-1.459 7.189-2.249 11.498-1.136 4.323 1.116 9.236 4.166 14.834 10.525a37.638 37.638 0 0 1 8.439 28.733l-8.416 4.207-2.443-2.764 1.101-6.937.008-.054-.003-.054c-.72-11.81-5.317-16.798-9.878-18.76-2.255-.969-4.457-1.179-6.089-1.148a15.17 15.17 0 0 0-1.972.162 11.78 11.78 0 0 0-.557.098Zm-34.04 11.094.02.19.141.129 5.369 4.878c-1.181.53-2.248 1.124-3.33 1.728l-.482.268c-1.436.798-2.952 1.607-4.887 2.337-2.239-.7-5.034-2.833-7.976-5.652-2.989-2.865-6.059-6.367-8.748-9.585-1.625-1.945-3.499-4.025-5.398-6.132l-.065-.073c-1.924-2.136-3.871-4.298-5.625-6.392-1.754-2.096-3.304-4.11-4.435-5.945-1.047-1.697-1.705-3.193-1.87-4.43 1.393-.714 3.445-1.74 5.198-2.614.942-.47 1.797-.894 2.417-1.2l.734-.364.142-.07 4.354.422 6.27 5.491a25.362 25.362 0 0 0 3.476 12.138l.005.009.006.008c3.508 5.464 7.101 7.266 9.89 7.643a8.6 8.6 0 0 0 3.358-.198 7.4 7.4 0 0 0 .648-.203l.788 7.617Z" fill="#fff" stroke="#1C2A60"/><path d="M126.187 13.83c-3 .625-4.52 2.831-5.279 4.8a12.475 12.475 0 0 0-.775 3.466l-.002.022-8.347 4.156-2.164-2.218-.013-.048-.126-.5a98.361 98.361 0 0 1-.429-1.803 89.333 89.333 0 0 1-1.101-5.6c-.334-2.082-.571-4.202-.546-5.91.013-.855.092-1.584.246-2.143.157-.572.371-.89.592-1.035 4.398-2.89 9.791-6.05 15.282-6.735 6.621-.828 12.743 3.488 17.279 8.16 2.254 2.32 4.086 4.697 5.354 6.496a51.959 51.959 0 0 1 1.764 2.667l-3.411 3.308-8.766 4.272c-.047.008-.115.02-.204.038-.188.038-.47.101-.864.206-.738.196-1.867.536-3.492 1.122a3.694 3.694 0 0 1-.387-.854c-.166-.504-.292-1.111-.396-1.793-.131-.86-.22-1.793-.312-2.747a98.167 98.167 0 0 0-.177-1.74c-.171-1.502-.412-2.984-.919-4.038-.257-.533-.602-1-1.081-1.295-.494-.303-1.074-.389-1.726-.253Z" fill="#fff" stroke="#1C2A60"/><path d="m136.267 27.897.115-.034.087-.082 3.497-3.319 20.432 39.252-3.799 3.717-4.073 1.063-20.336-39.39 4.077-1.207Z" fill="#FFC000" stroke="#1C2A60"/><path d="m156.129 41.17.021.18.13.124 5.24 5.013-23.085 13.502-5.771-4.845-.889-7.638 23.493-13.736.861 7.4Zm5.505 39.722c-3.783-3.526-6.418-7.542-7.722-10.066l4.18-1.129.137-.037.097-.103 3.34-3.56a26.745 26.745 0 0 0 3.155 4.162c2.188 2.352 5.372 4.801 9.171 4.777 1.895-.012 3.352-.572 4.459-1.426 1.1-.85 1.828-1.967 2.31-3.06a12.06 12.06 0 0 0 .852-2.981c.051-.332.082-.619.101-.843l4.594.295 5.377 5.612-.019.143c-.033.243-.085.596-.165 1.037-.16.88-.429 2.106-.863 3.477-.872 2.752-2.395 6.041-4.995 8.35a10.984 10.984 0 0 1-6.611 2.547h-.011l-.012.002a8.816 8.816 0 0 1-1.519 0l-.013-.001h-.013c-6.416-.221-11.766-3.408-15.83-7.196Zm30.204-11.528-4.393-4.76-.137-.148-.201-.013-5.143-.312c-.807-11.493-5.345-16.38-9.849-18.317-2.255-.97-4.457-1.18-6.089-1.15a15.32 15.32 0 0 0-1.972.163c-.197.03-.359.06-.483.084l-5.359-5.381-.907-7.615c3.314-1.37 6.997-2.075 11.168-.998 4.323 1.117 9.236 4.166 14.834 10.525a37.639 37.639 0 0 1 8.531 27.922Zm-74.576-51.071c-3 .625-4.52 2.83-5.279 4.8-.38.986-.577 1.93-.68 2.626l-.011.077-4.855-4.836-.134-.133-.187-.012-4.805-.308.009-.148c.026-.401.078-.98.183-1.682.211-1.404.631-3.29 1.468-5.223 1.668-3.851 4.978-7.879 11.629-8.71 6.621-.828 12.743 3.488 17.279 8.16 2.254 2.32 4.086 4.698 5.354 6.496a51.959 51.959 0 0 1 1.764 2.668l-3.383 3.28-4.44 1.4-.046-.082a21.1 21.1 0 0 0-.709-1.174 21.916 21.916 0 0 0-2.739-3.438c-2.383-2.415-5.938-4.693-10.418-3.76Zm12.195 37.727.02.19.141.128 5.341 4.853c-3.214 1.124-6.976 1.31-11.082-.069-4.436-1.489-9.303-4.813-14.313-10.81-4.975-5.954-7.104-12.872-7.985-18.32a45.568 45.568 0 0 1-.586-6.734 34.411 34.411 0 0 1 .039-2.13l3.984.387 6.269 5.49a25.374 25.374 0 0 0 3.477 12.138l.005.01.006.008c3.508 5.463 7.101 7.265 9.89 7.642a8.6 8.6 0 0 0 3.358-.197c.248-.066.465-.137.647-.203l.789 7.616Z" fill="#FFC000" stroke="#1C2A60"/></g><defs><clipPath id="a"><rect width="303" height="160" rx="12" fill="#fff"/></clipPath></defs></svg>