<svg width="248" height="302" fill="none" xmlns="http://www.w3.org/2000/svg"><rect width="248" height="302" rx="12" fill="#2EB57D"/><path d="M116.027 270.641 14.184 211.816a1.736 1.736 0 0 1-.875-1.534c.005-.588 0-4.043 0-4.588 0-.52 63.578-32.942 69.511-35.967.326-.166.6-.32.927-.485a10.514 10.514 0 0 1 9.623.102c.252.133.475.262.726.396 6.522 3.488 101.362 54.23 101.362 55.355 0 1.165-.018 3.972 0 4.542a1.738 1.738 0 0 1-.873 1.57l-68.028 39.426a10.513 10.513 0 0 1-10.53.008Z" fill="#1C2A60"/><mask id="a" fill="#fff"><path d="M116.027 266.086 14.184 207.261c-1.172-.677-1.166-2.371.01-3.04l69.07-39.275a10.513 10.513 0 0 1 10.48.05l100.843 58.626c1.163.676 1.162 2.356-.002 3.03l-68.028 39.426a10.513 10.513 0 0 1-10.53.008Z"/></mask><path d="M116.027 266.086 14.184 207.261c-1.172-.677-1.166-2.371.01-3.04l69.07-39.275a10.513 10.513 0 0 1 10.48.05l100.843 58.626c1.163.676 1.162 2.356-.002 3.03l-68.028 39.426a10.513 10.513 0 0 1-10.53.008Z" fill="#fff"/><path d="m14.184 207.261-.5.866.5-.866Zm101.843 58.825.5-.866-.5.866Zm10.53-.008.501.865-.501-.865Zm68.028-39.426-.501-.865.501.865Zm.002-3.03-.503.864.503-.864ZM93.744 164.996l-.503.865.503-.865Zm-10.48-.05.493.87-.494-.87Zm-69.07 39.275-.494-.87.495.87Zm-.51 3.906 101.843 58.824 1-1.731-101.842-58.825-1 1.732Zm113.374 58.816 68.028-39.425-1.002-1.731-68.029 39.426 1.003 1.73Zm68.032-44.186L94.246 164.132l-1.005 1.729 100.843 58.625 1.006-1.729Zm-112.321-58.68L13.7 203.351l.989 1.739 69.068-39.274-.988-1.739Zm11.477.055a11.513 11.513 0 0 0-11.477-.055l.988 1.739a9.514 9.514 0 0 1 9.484.045l1.005-1.729Zm100.84 63.386c1.829-1.06 1.83-3.699.004-4.761l-1.006 1.729a.752.752 0 0 1 0 1.301l1.002 1.731Zm-79.559 39.433a11.51 11.51 0 0 0 11.531-.008l-1.003-1.73a9.514 9.514 0 0 1-9.528.007l-1 1.731ZM14.685 206.395a.752.752 0 0 1 .004-1.305l-.989-1.739c-1.848 1.051-1.857 3.712-.016 4.776l1-1.732Z" fill="#1C2A60" mask="url(#a)"/><path opacity=".2" d="m53.479 187.954 32.927-19.063a3.502 3.502 0 0 1 3.51 0l95.007 54.978c1.173.679 1.164 2.377-.018 3.043l-31.763 17.903a3.505 3.505 0 0 1-3.468-.016l-96.193-55.328a.876.876 0 0 1-.002-1.517Z" fill="#1C2A60"/><path d="m93.354 171.546-4.52-2.584a1.519 1.519 0 0 0-1.342 0l-3.641 2.041c-.387.207-.413.543 0 .775l4.519 2.584a1.603 1.603 0 0 0 1.368 0l3.641-2.041c.336-.207.336-.569-.025-.775Zm6.352 3.695-4.519-2.584a1.518 1.518 0 0 0-1.343 0l-3.666 2.041c-.362.207-.388.569 0 .776l4.519 2.584a1.602 1.602 0 0 0 1.368 0l3.641-2.042c.362-.207.362-.517 0-.775Zm6.482 3.799-4.519-2.585a1.534 1.534 0 0 0-1.343 0l-3.667 2.042c-.387.207-.387.568 0 .775l4.519 2.584a1.605 1.605 0 0 0 1.369 0l3.641-2.041c.361-.233.361-.569 0-.775Zm6.558 3.798-4.544-2.584a1.52 1.52 0 0 0-1.343 0l-3.641 2.042c-.387.206-.413.568 0 .775l4.519 2.584a1.533 1.533 0 0 0 1.343 0l3.666-2.042c.336-.206.362-.542 0-.775Zm6.482 3.773-4.545-2.584a1.44 1.44 0 0 0-1.343 0l-3.641 2.015c-.387.207-.413.569 0 .776l4.545 2.584a1.534 1.534 0 0 0 1.343 0l3.667-2.042c.31-.181.335-.517-.026-.749Zm6.481 3.799-4.519-2.585a1.6 1.6 0 0 0-1.368 0l-3.641 2.042c-.388.207-.414.543 0 .749l4.519 2.584a1.361 1.361 0 0 0 1.342 0l3.667-2.015c.336-.181.362-.569 0-.775Zm6.482 3.772-4.519-2.584a1.604 1.604 0 0 0-1.369 0l-3.641 2.042c-.387.206-.413.542 0 .775l4.519 2.584a1.52 1.52 0 0 0 1.343 0l3.667-2.041c.336-.207.361-.569 0-.776Zm6.481 3.773-4.519-2.584a1.601 1.601 0 0 0-1.368 0l-3.641 2.041c-.388.207-.388.569 0 .776l4.519 2.584a1.6 1.6 0 0 0 1.368 0l3.641-2.042c.336-.206.362-.542 0-.775Zm6.482 3.799-4.519-2.584a1.495 1.495 0 0 0-1.369 0l-3.641 2.015c-.387.233-.413.569 0 .776l4.519 2.584a1.455 1.455 0 0 0 1.343 0l3.667-2.042c.336-.207.361-.542 0-.749Zm6.507 3.773-4.545-2.584a1.517 1.517 0 0 0-1.343 0l-3.641 2.041c-.387.207-.413.568 0 .775l4.545 2.584a1.52 1.52 0 0 0 1.343 0l3.641-2.041c.336-.207.361-.569 0-.775Zm6.482 3.772-4.545-2.584a1.533 1.533 0 0 0-1.343 0l-3.641 2.042c-.387.206-.413.568 0 .775l4.545 2.584a1.519 1.519 0 0 0 1.343 0l3.641-2.041c.335-.207.361-.543 0-.776Zm6.481 3.799-4.545-2.584a1.44 1.44 0 0 0-1.343 0l-3.641 2.041c-.387.207-.413.543 0 .75l4.519 2.584a1.455 1.455 0 0 0 1.343 0l3.667-2.042c.336-.206.361-.542 0-.749Zm6.482 3.747-4.545-2.584a1.52 1.52 0 0 0-1.343 0l-3.641 2.041c-.387.207-.413.543 0 .75l4.545 2.584a1.533 1.533 0 0 0 1.343 0l3.666-2.042c.31-.155.336-.517-.025-.749Zm6.481 3.798-4.519-2.584a1.604 1.604 0 0 0-1.368 0l-3.641 2.042c-.388.207-.414.568 0 .775l4.519 2.584a1.512 1.512 0 0 0 1.342 0l3.667-2.041c.336-.207.362-.543 0-.776Zm6.481 3.799-4.519-2.584a1.601 1.601 0 0 0-1.368 0l-3.641 2.042c-.388.206-.413.568 0 .775l4.519 2.584a1.516 1.516 0 0 0 1.343 0l3.666-2.042c.336-.232.362-.62 0-.775Z" fill="#1C2A60"/><path d="m88.6 173.48-4.419-2.527 3.542-1.986a1.016 1.016 0 0 1 .879-.001l4.434 2.536-3.526 1.977a1.104 1.104 0 0 1-.91.001Zm1.908 1.169 3.567-1.986a1.018 1.018 0 0 1 .879-.002l4.422 2.529-3.539 1.984a1.104 1.104 0 0 1-.91.001l-4.419-2.526Zm6.482 3.798 3.567-1.986a1.015 1.015 0 0 1 .878-.001l4.422 2.529-3.538 1.984a1.109 1.109 0 0 1-.911.001l-4.418-2.527Zm10.98 6.327-4.422-2.529 3.542-1.986a1.032 1.032 0 0 1 .879 0l4.447 2.528-3.567 1.986a1.02 1.02 0 0 1-.879.001Zm6.507 3.747-4.447-2.528 3.547-1.964a.943.943 0 0 1 .867-.001l4.443 2.526-3.531 1.966a1.015 1.015 0 0 1-.879.001Zm6.469 3.806-4.412-2.523 3.516-1.971a1.09 1.09 0 0 1 .91-.001l4.418 2.526-3.576 1.966-.005.003a.87.87 0 0 1-.851 0Zm6.469 3.791-4.422-2.528 3.538-1.984a1.094 1.094 0 0 1 .911-.001l4.418 2.526-3.567 1.986a1.015 1.015 0 0 1-.878.001Zm6.509-.741 4.418 2.527-3.539 1.984a1.088 1.088 0 0 1-.91.001l-4.419-2.527 3.539-1.984a1.104 1.104 0 0 1 .911-.001Zm2.032 5.759 3.545-1.963a1 1 0 0 1 .896-.001l4.403 2.518-3.55 1.976a.937.937 0 0 1-.866.002l-4.428-2.532Zm10.927 1.811 4.448 2.529-3.543 1.986a1.024 1.024 0 0 1-.878 0l-4.447-2.528 3.542-1.986a1.015 1.015 0 0 1 .878-.001Zm6.509 8.288-4.447-2.529 3.542-1.985a1.012 1.012 0 0 1 .878-.001l4.447 2.528-3.542 1.986a1.012 1.012 0 0 1-.878.001Zm10.878 1.799-3.55 1.977a.949.949 0 0 1-.866.001l-4.406-2.519 3.526-1.977a.937.937 0 0 1 .866-.001l4.43 2.519Zm2.085 5.721-4.425-2.516 3.52-1.973a1.024 1.024 0 0 1 .878 0l4.437 2.522-3.531 1.966a1.02 1.02 0 0 1-.879.001Zm6.456 3.824-4.422-2.528 3.539-1.984a1.09 1.09 0 0 1 .91-.001l4.419 2.526-3.568 1.986a1.015 1.015 0 0 1-.878.001Zm10.927 1.812-3.567 1.986a1.02 1.02 0 0 1-.879.001l-4.422-2.528 3.539-1.985a1.104 1.104 0 0 1 .911 0l4.418 2.526Z" fill="#fff" stroke="#1C2A60"/><path d="m87.069 175.974-4.907-2.869a1.532 1.532 0 0 0-1.343 0l-3.64 2.042c-.388.207-.414.568 0 .775l4.906 2.843a1.532 1.532 0 0 0 1.343 0l3.64-2.042c.336-.258.362-.594 0-.749Zm6.739 3.876-4.88-2.868a1.589 1.589 0 0 0-1.369 0l-3.64 2.041c-.388.207-.388.568 0 .775l4.88 2.843a1.373 1.373 0 0 0 1.343 0l3.666-2.016c.362-.232.362-.568 0-.775Zm6.837 4.005-4.88-2.868a1.603 1.603 0 0 0-1.37 0l-3.64 2.041c-.388.207-.388.569 0 .776l4.88 2.842a1.362 1.362 0 0 0 1.343 0l3.667-2.015c.361-.233.361-.569 0-.776Zm-1.233 5.819-4.88-2.869a1.602 1.602 0 0 0-1.37 0l-3.64 2.042c-.387.207-.387.568 0 .775l4.88 2.843a1.373 1.373 0 0 0 1.343 0l3.667-2.016c.361-.232.361-.568 0-.775Zm-6.533-4.02-4.88-2.868a1.589 1.589 0 0 0-1.37 0l-3.64 2.041c-.388.207-.388.569 0 .775l4.88 2.843a1.373 1.373 0 0 0 1.343 0l3.667-2.016c.361-.232.361-.568 0-.775Zm14.254 1.922-4.545-2.584a1.45 1.45 0 0 0-1.342 0l-3.641 2.042c-.388.206-.414.542 0 .749l4.544 2.584a1.365 1.365 0 0 0 1.343 0l3.641-2.016c.336-.232.362-.568 0-.775Zm6.481 3.902-4.544-2.584a1.534 1.534 0 0 0-1.343 0l-3.641 2.042c-.387.206-.413.542 0 .775l4.519 2.584a1.516 1.516 0 0 0 1.343 0l3.641-2.041c.361-.336.387-.776.025-.776Zm6.482 3.644-4.545-2.584a1.52 1.52 0 0 0-1.343 0l-3.641 2.041c-.387.207-.387.569 0 .775l4.545 2.584a1.516 1.516 0 0 0 1.343 0l3.641-2.041c.335-.207.361-.543 0-.775Zm6.481 3.798-4.519-2.584a1.6 1.6 0 0 0-1.368 0l-3.641 2.042c-.388.206-.413.568 0 .775l4.519 2.584a1.516 1.516 0 0 0 1.343 0l3.64-2.041c.362-.233.388-.465.026-.776Zm6.482 3.773-4.519-2.584a1.605 1.605 0 0 0-1.369 0l-3.641 2.042c-.387.206-.387.542 0 .749l4.519 2.584a1.442 1.442 0 0 0 1.343 0l3.667-2.016c.336-.232.361-.568 0-.775Zm6.481 3.773-4.519-2.584a1.601 1.601 0 0 0-1.368 0l-3.641 2.041c-.388.207-.388.543 0 .776l4.519 2.584a1.53 1.53 0 0 0 1.342 0l3.641-2.042c.362-.258.388-.568.026-.775Zm6.508 3.799-4.545-2.585a1.372 1.372 0 0 0-1.343 0l-3.641 2.016c-.387.233-.413.569 0 .775l4.545 2.584a1.44 1.44 0 0 0 1.343 0l3.641-2.041c.335-.207.361-.543 0-.749Zm6.481 3.772-4.545-2.584a1.53 1.53 0 0 0-1.342 0l-3.641 2.042c-.388.207-.414.542 0 .749l4.544 2.584a1.365 1.365 0 0 0 1.343 0l3.641-2.015c.336-.078.362-.569 0-.776Zm6.481 3.773-4.544-2.584a1.534 1.534 0 0 0-1.343 0l-3.641 2.042c-.388.206-.413.542 0 .775l4.545 2.584a1.512 1.512 0 0 0 1.342 0l3.641-2.042c.336-.206.362-.568 0-.775Zm6.482 3.773-4.545-2.584a1.512 1.512 0 0 0-1.342 0l-3.641 2.041c-.388.207-.413.569 0 .776l4.545 2.584a1.526 1.526 0 0 0 1.342 0l3.641-2.042c.336-.207.362-.542 0-.775Zm11.956 6.977-9.916-5.763a1.533 1.533 0 0 0-1.343 0l-3.667 2.042c-.361.207-.387.543 0 .749l9.916 5.789a1.534 1.534 0 0 0 1.343 0l3.641-2.042c.362-.207.362-.568.026-.775Zm-71.554-35.325-4.519-2.584a1.534 1.534 0 0 0-1.343 0l-3.667 2.042c-.361.207-.387.542 0 .749l4.519 2.584a1.495 1.495 0 0 0 1.369 0l3.641-2.015c.361-.233.361-.569 0-.776Zm6.481 3.773-4.519-2.584a1.519 1.519 0 0 0-1.343 0l-3.641 2.042c-.387.206-.413.542 0 .775l4.519 2.584a1.606 1.606 0 0 0 1.369 0l3.641-2.042c.336-.206.336-.568-.026-.775Zm6.481 3.773-4.519-2.584a1.516 1.516 0 0 0-1.342 0l-3.667 2.041c-.362.207-.388.569 0 .776l4.519 2.584a1.6 1.6 0 0 0 1.368 0l3.641-2.042c.362-.207.362-.542 0-.775Zm6.482 3.799-4.519-2.584a1.52 1.52 0 0 0-1.343 0l-3.641 2.015c-.387.233-.413.569 0 .775l4.519 2.584a1.413 1.413 0 0 0 1.368 0l3.641-2.015c.336-.233.336-.569-.025-.775Zm6.481 3.772-4.518-2.584a1.534 1.534 0 0 0-1.343 0l-3.641 2.042c-.388.206-.413.542 0 .749l4.519 2.584a1.492 1.492 0 0 0 1.368 0l3.641-2.015c.336-.207.362-.569-.026-.776Zm6.508 3.799-4.623-2.584a1.361 1.361 0 0 0-1.342 0l-3.667 2.015c-.388.207-.388.569 0 .776l4.519 2.584a1.601 1.601 0 0 0 1.368 0l3.641-2.042c.439-.206.465-.542.104-.749Zm6.481 3.773-4.519-2.584a1.443 1.443 0 0 0-1.343 0l-3.667 2.041c-.387.207-.387.543 0 .749l4.519 2.585a1.373 1.373 0 0 0 1.343 0l3.667-2.016c.336-.233.361-.568 0-.775Zm6.482 3.772-4.519-2.584a1.534 1.534 0 0 0-1.343 0l-3.667 2.042c-.387.207-.387.568 0 .775l4.519 2.584a1.605 1.605 0 0 0 1.369 0l3.641-2.041c.49-.207.49-.569 0-.776Zm6.481 3.773-4.519-2.584a1.53 1.53 0 0 0-1.343 0l-3.666 2.042c-.388.206-.388.568 0 .775l4.519 2.584a1.601 1.601 0 0 0 1.368 0l3.641-2.041c.362-.207.362-.543 0-.776Zm14.073 8.218-12.332-7.125a1.516 1.516 0 0 0-1.343 0l-3.666 2.042c-.362.206-.388.542 0 .775l12.332 7.099a1.372 1.372 0 0 0 1.343 0l3.666-2.042c.336-.207.362-.543 0-.749Zm-88.26-45.231-12.278-7.133a1.518 1.518 0 0 0-1.343 0l-3.64 2.041c-.388.207-.414.543 0 .776l12.278 7.133a1.518 1.518 0 0 0 1.342 0l3.641-2.041c.336-.207.362-.543 0-.776Zm2.731-4.667-9.38-5.444a1.373 1.373 0 0 0-1.344 0l-3.666 2.016c-.362.207-.388.568 0 .775l9.38 5.47a1.518 1.518 0 0 0 1.343 0l3.641-2.042c.413-.206.413-.568.026-.775Zm9.637 12.015-4.52-2.584a1.603 1.603 0 0 0-1.368 0l-3.64 2.041c-.388.207-.388.543 0 .75l4.518 2.584a1.453 1.453 0 0 0 1.343 0l3.641-2.016c.361-.232.387-.517.026-.775Zm-6.147-3.843-4.519-2.584a1.604 1.604 0 0 0-1.368 0l-3.641 2.042c-.388.206-.388.542 0 .749l4.519 2.584a1.442 1.442 0 0 0 1.342 0l3.641-2.016c.362-.232.388-.516.026-.775Zm12.628 7.616-4.519-2.584a1.59 1.59 0 0 0-1.368 0l-3.641 2.041c-.388.207-.388.543 0 .775l4.519 2.584a1.518 1.518 0 0 0 1.343 0l3.666-2.041c.284-.207.284-.569 0-.775Zm6.482 3.772-4.519-2.584a1.605 1.605 0 0 0-1.369 0l-3.64 2.042c-.388.206-.388.568 0 .775l4.518 2.584a1.519 1.519 0 0 0 1.343 0l3.667-2.041c.361-.31.361-.543 0-.776Zm6.481 3.799-4.519-2.584a1.424 1.424 0 0 0-1.368 0l-3.641 2.016c-.388.232-.388.568 0 .775l4.518 2.584a1.458 1.458 0 0 0 1.343 0l3.667-2.042c.232-.206.362-.542 0-.749Zm6.482 3.773-4.519-2.584a1.605 1.605 0 0 0-1.369 0l-3.641 2.041c-.387.207-.387.543 0 .75l4.519 2.584a1.534 1.534 0 0 0 1.343 0l3.667-2.042c.362-.103.362-.542 0-.749Zm6.481 3.773-4.519-2.585a1.6 1.6 0 0 0-1.368 0l-3.641 2.042c-.388.207-.388.543 0 .775l4.519 2.584a1.516 1.516 0 0 0 1.342 0l3.667-2.041c.336-.207.362-.569 0-.775Zm6.508 3.798-4.519-2.584a1.498 1.498 0 0 0-1.369 0l-3.641 2.042c-.387.206-.413.542 0 .749l4.519 2.584a1.361 1.361 0 0 0 1.343 0l3.641-2.015c.361-.233.387-.569.026-.776Zm6.584 3.773-4.545-2.584a1.512 1.512 0 0 0-1.342 0l-3.641 2.042a.413.413 0 0 0 0 .775l4.545 2.584a1.512 1.512 0 0 0 1.342 0l3.641-2.042c.233-.206.258-.568 0-.775Zm6.378 3.773-4.519-2.584a1.492 1.492 0 0 0-1.368 0l-3.641 2.015c-.388.207-.388.569 0 .775l4.519 2.585a1.53 1.53 0 0 0 1.342 0l3.667-2.042c.336-.181.362-.517 0-.749Zm6.534 3.798-4.519-2.584a1.605 1.605 0 0 0-1.369 0l-3.641 2.042c-.387.207-.387.568 0 .775l4.519 2.584a1.519 1.519 0 0 0 1.343 0l3.667-2.041c.284-.233.309-.569 0-.776Zm11.904 6.952-9.916-5.763a1.534 1.534 0 0 0-1.343 0l-3.641 2.042c-.387.206-.413.542 0 .775l9.916 5.762a1.516 1.516 0 0 0 1.343 0l3.641-2.041c.335-.155.361-.569 0-.775Zm-90.565-46.639-9.831-5.627a1.518 1.518 0 0 0-1.343 0l-3.64 2.041c-.388.207-.414.543 0 .776l9.83 5.626a1.603 1.603 0 0 0 1.368 0l3.641-2.041c.336-.207.362-.543-.025-.775Zm25.44 15.138-4.519-2.584a1.453 1.453 0 0 0-1.343 0l-3.666 2.016c-.362.233-.388.568 0 .775l4.519 2.584a1.604 1.604 0 0 0 1.368 0l3.641-2.041c.362-.207.362-.543 0-.75Zm-6.382-3.843-4.518-2.585a1.453 1.453 0 0 0-1.343 0l-3.667 2.016c-.361.233-.387.569 0 .775l4.52 2.584a1.589 1.589 0 0 0 1.368 0l3.64-2.041c.362-.207.362-.543 0-.749Zm-6.178-3.777-4.518-2.584a1.442 1.442 0 0 0-1.343 0l-3.667 2.016c-.362.232-.387.568 0 .775l4.519 2.584a1.604 1.604 0 0 0 1.369 0l3.64-2.042c.362-.206.362-.542 0-.749Zm-6.473-4.004-4.52-2.584a1.442 1.442 0 0 0-1.342 0l-3.667 2.015c-.361.233-.387.569 0 .775l4.52 2.584a1.589 1.589 0 0 0 1.368 0l3.64-2.041c.362-.207.362-.543 0-.749Zm25.515 15.32-4.519-2.584a1.365 1.365 0 0 0-1.343 0l-3.667 2.041c-.361.207-.387.543 0 .749l4.519 2.585a1.423 1.423 0 0 0 1.369 0l3.641-2.016c.258-.155.258-.491 0-.775Zm6.481 3.85-4.519-2.584a1.516 1.516 0 0 0-1.343 0l-3.666 2.041c-.362.207-.388.569 0 .776l4.519 2.584a1.6 1.6 0 0 0 1.368 0l3.641-2.042c.362-.206.388-.568 0-.775Zm6.482 3.902-4.519-2.584a1.52 1.52 0 0 0-1.343 0l-3.667 2.041c-.362.207-.387.569 0 .776l4.519 2.584a1.604 1.604 0 0 0 1.369 0l3.641-2.042c.361-.336.387-.775 0-.775Zm6.507 3.67-4.519-2.584a1.59 1.59 0 0 0-1.369 0l-3.641 2.041c-.387.207-.387.543 0 .775l4.519 2.584a1.52 1.52 0 0 0 1.343 0l3.667-2.041c.361-.207.361-.569 0-.775Zm6.61 3.772-4.519-2.584a1.598 1.598 0 0 0-1.368 0l-3.641 2.041c-.387.207-.387.569 0 .776l4.519 2.584a1.53 1.53 0 0 0 1.343 0l3.666-2.042c.207-.206.233-.465 0-.775Zm6.353 3.799-4.519-2.584a1.495 1.495 0 0 0-1.369 0l-3.64 2.015c-.388.207-.388.569 0 .776l4.518 2.584a1.605 1.605 0 0 0 1.369 0l3.641-2.042c.362-.206.362-.542 0-.749Zm15.039 8.674-4.519-2.584a1.517 1.517 0 0 0-1.343 0l-3.666 2.041c-.362.207-.388.543 0 .775l4.518 2.584a1.606 1.606 0 0 0 1.369 0l3.641-2.041c.362-.207.387-.569 0-.775ZM72.53 192.82l-4.545-2.584a1.442 1.442 0 0 0-1.343 0l-3.64 2.015c-.388.233-.414.569 0 .776l4.544 2.584a1.453 1.453 0 0 0 1.343 0l3.64-2.042c.285-.206.31-.542 0-.749Zm-6.474-3.68-5.877-3.348a1.442 1.442 0 0 0-1.343 0l-3.64 2.015c-.388.233-.414.569 0 .776l5.876 3.348a1.442 1.442 0 0 0 1.343 0l3.64-2.041c.285-.207.31-.543 0-.75Zm12.881 7.513-4.545-2.584a1.531 1.531 0 0 0-1.343 0l-3.64 2.042c-.388.206-.414.542 0 .749l4.544 2.584a1.442 1.442 0 0 0 1.343 0l3.64-2.016c.336-.232.362-.568 0-.775Zm6.536 3.801-4.52-2.584a1.372 1.372 0 0 0-1.342 0l-3.667 2.016c-.361.233-.387.568 0 .775l4.52 2.584a1.495 1.495 0 0 0 1.368 0l3.64-2.041c.414-.207.414-.543 0-.75Zm38.135 22.317-36.173-21.113a1.531 1.531 0 0 0-1.343 0l-3.666 2.042c-.362.206-.388.542 0 .775l36.172 21.087a1.495 1.495 0 0 0 1.369 0l3.641-2.041c.361-.207.361-.543 0-.75Zm6.482 3.773-4.519-2.584a1.605 1.605 0 0 0-1.369 0l-3.641 2.042c-.387.207-.387.542 0 .749l4.519 2.584a1.413 1.413 0 0 0 1.369 0l3.641-2.015c.335-.207.361-.569 0-.776Zm6.481 3.696-4.519-2.584a1.52 1.52 0 0 0-1.343 0l-3.667 2.041c-.361.207-.387.543 0 .775l4.519 2.584a1.591 1.591 0 0 0 1.369 0l3.641-2.041c.361-.129.361-.491 0-.775Zm6.569 3.697-4.519-2.584a1.519 1.519 0 0 0-1.343 0l-3.667 2.041c-.387.207-.387.569 0 .775l4.519 2.585a1.605 1.605 0 0 0 1.369 0l3.641-2.042c.361-.207.361-.543 0-.775Zm6.543 3.849-4.519-2.584a1.372 1.372 0 0 0-1.342 0l-3.641 2.016c-.388.232-.414.568 0 .775l4.518 2.584a1.499 1.499 0 0 0 1.369 0l3.641-2.015c.336-.336.192-.652-.026-.776Zm5.545 3.132-3.512-2.042a1.534 1.534 0 0 0-1.343 0l-3.667 2.042c-.361.206-.387.542 0 .749l3.512 2.067a1.44 1.44 0 0 0 1.343 0l3.667-2.015c.335-.233.361-.595 0-.801Z" fill="#1C2A60"/><path d="m86.717 175.909-3.521 1.974a1.015 1.015 0 0 1-.877.001l-4.81-2.787 3.542-1.986a1.016 1.016 0 0 1 .876-.002l4.79 2.8Zm6.761 3.889-3.577 1.966-.005.003a.872.872 0 0 1-.849.002l-4.8-2.796 3.54-1.984a1.104 1.104 0 0 1 .909-.002l4.782 2.811Zm6.837 4.005-3.578 1.967-.004.002a.86.86 0 0 1-.85.002l-4.799-2.795 3.54-1.985a1.104 1.104 0 0 1 .908-.002l4.783 2.811Zm-1.233 5.819-3.578 1.966-.004.003a.871.871 0 0 1-.85.002l-4.799-2.796 3.54-1.984a1.104 1.104 0 0 1 .908-.002l4.783 2.811Zm-6.533-4.02-3.578 1.967-.004.002a.871.871 0 0 1-.85.002l-4.799-2.795 3.54-1.985a1.104 1.104 0 0 1 .908-.002l4.783 2.811Zm9.846 3.891-4.437-2.522 3.525-1.977a.949.949 0 0 1 .866-.001l4.453 2.532-3.552 1.967-.003.001a.86.86 0 0 1-.851.001l-.001-.001Zm10.876 1.927-3.555 1.994a1.029 1.029 0 0 1-.878 0l-4.422-2.528 3.542-1.986a1.019 1.019 0 0 1 .879-.001l4.434 2.521Zm2.074 5.637-4.448-2.528 3.542-1.986a1.032 1.032 0 0 1 .879-.001l4.447 2.529-3.542 1.986a1.029 1.029 0 0 1-.878 0Zm6.456 3.799-4.422-2.528 3.539-1.984a1.098 1.098 0 0 1 .911-.001l4.405 2.519-3.555 1.994a1.029 1.029 0 0 1-.878 0Zm6.488 3.751-4.406-2.519 3.516-1.972a1.109 1.109 0 0 1 .911 0l4.418 2.526-3.572 1.963a.941.941 0 0 1-.867.002Zm6.475 3.795-4.422-2.529 3.539-1.984a1.104 1.104 0 0 1 .91-.001l4.406 2.52-3.555 1.993a1.015 1.015 0 0 1-.878.001Zm5.638-.722.004-.002a.869.869 0 0 1 .851 0h.001l4.436 2.523-3.525 1.976a.937.937 0 0 1-.866.001l-4.453-2.532 3.552-1.966Zm7.389 8.275-4.437-2.523 3.519-1.973a1.015 1.015 0 0 1 .879-.001l4.446 2.528-3.552 1.967-.003.002a.87.87 0 0 1-.851 0h-.001Zm6.442-.724 4.447 2.528-3.542 1.986a1.019 1.019 0 0 1-.879.001l-4.447-2.529 3.542-1.985a1.019 1.019 0 0 1 .879-.001Zm6.482 3.773 4.447 2.528-3.542 1.986a1.019 1.019 0 0 1-.879.001l-4.447-2.529 3.542-1.986a1.032 1.032 0 0 1 .879 0Zm11.958 11.493-9.798-5.72 3.545-1.974a1.02 1.02 0 0 1 .877-.002l9.809 5.7-3.556 1.994a1.019 1.019 0 0 1-.877.002ZM96.719 192.63l3.544-1.973a1.015 1.015 0 0 1 .879-.001l4.421 2.528-3.545 1.963a1 1 0 0 1-.896.001l-4.403-2.518Zm10.904 1.799 4.435 2.536-3.526 1.976a1.098 1.098 0 0 1-.911.001l-4.419-2.527 3.543-1.986a1.026 1.026 0 0 1 .878 0Zm2.035 5.76 3.567-1.986a1.023 1.023 0 0 1 .879-.002l4.422 2.529-3.539 1.984a1.09 1.09 0 0 1-.91.001l-4.419-2.526Zm6.508 3.772 3.54-1.96a1.017 1.017 0 0 1 .879-.001l4.435 2.536-3.539 1.958v.001a.926.926 0 0 1-.883.001l-4.432-2.535Zm10.901 1.812 4.434 2.535-3.531 1.956a1.007 1.007 0 0 1-.897.001l-4.403-2.518 3.519-1.973a1.019 1.019 0 0 1 .878-.001Zm6.392 3.792h.001l4.461 2.494-3.567 1.999a1.086 1.086 0 0 1-.91.001l-4.418-2.526 3.576-1.966.005-.002a.86.86 0 0 1 .852 0Zm6.586 8.277-4.412-2.523 3.55-1.977a.94.94 0 0 1 .866-.001l4.428 2.531-3.577 1.966-.004.003a.872.872 0 0 1-.851.001Zm6.493-.725 4.422 2.529-3.539 1.984a1.109 1.109 0 0 1-.911.001l-4.418-2.527 3.567-1.986a1.015 1.015 0 0 1 .879-.001Zm6.453 8.286-4.418-2.526 3.567-1.986a1.02 1.02 0 0 1 .879-.001l4.422 2.528-3.539 1.985a1.104 1.104 0 0 1-.911 0Zm18.501 6.219-3.558 1.981-.002.001a.872.872 0 0 1-.85.001l-12.137-6.979 3.568-1.986a1.029 1.029 0 0 1 .878-.001l12.101 6.983Zm-92.657-43.229-12.183-7.078 3.543-1.987a1.03 1.03 0 0 1 .876-.001l12.184 7.078-3.543 1.987a1.029 1.029 0 0 1-.877.001Zm-2.149-12.052 9.287 5.39-3.556 1.993a1.016 1.016 0 0 1-.877.002l-9.285-5.414 3.577-1.967.005-.002a.871.871 0 0 1 .85-.002Zm14.496 19.377-4.406-2.519 3.516-1.972a1.104 1.104 0 0 1 .911-.001l4.405 2.519-3.56 1.971a.94.94 0 0 1-.866.002Zm-6.147-3.843-4.405-2.519 3.516-1.972a1.104 1.104 0 0 1 .91 0l4.406 2.519-3.56 1.971a.952.952 0 0 1-.867.001Zm12.622 7.638-4.422-2.529L96.774 195a1.105 1.105 0 0 1 .91-.001l4.419 2.527-3.567 1.986a1.031 1.031 0 0 1-.879.001Zm6.481 3.772-4.422-2.528 3.539-1.984a1.098 1.098 0 0 1 .911-.001l4.418 2.526-3.567 1.986a1.02 1.02 0 0 1-.879.001Zm2.06 1.245 3.552-1.966a.916.916 0 0 1 .883-.002l4.41 2.522-3.551 1.977a.949.949 0 0 1-.866.001l-4.428-2.532Zm10.904 6.301-4.4-2.516 3.517-1.971a1.1 1.1 0 0 1 .91-.001l4.396 2.514-3.545 1.973a1.015 1.015 0 0 1-.878.001Zm4.556-1.892-.001-.002.001.002Zm1.925 5.691-4.422-2.529 3.539-1.984a1.1 1.1 0 0 1 .91-.001l4.419 2.527-3.568 1.986a1.029 1.029 0 0 1-.878.001Zm6.521 3.78-4.413-2.523 3.524-1.976a.997.997 0 0 1 .895-.001l4.413 2.524-3.565 1.974-.004.001a.858.858 0 0 1-.85.001Zm6.596 3.791-4.447-2.529 3.542-1.986a1.032 1.032 0 0 1 .879 0l4.447 2.528-3.542 1.986a1.019 1.019 0 0 1-.879.001Zm-4.603-2.448Zm10.956 6.195-4.421-2.528 3.544-1.963a1.007 1.007 0 0 1 .897-.001l4.403 2.518-3.544 1.973a1.02 1.02 0 0 1-.879.001Zm6.533 3.825-4.422-2.529 3.539-1.984a1.098 1.098 0 0 1 .911-.001l4.418 2.526-3.567 1.986a1.02 1.02 0 0 1-.879.002Zm16.351 4.963-3.543 1.987a1.029 1.029 0 0 1-.877.001l-9.82-5.707 3.542-1.986a1.019 1.019 0 0 1 .877-.002l9.821 5.707Zm-94.989-44.653-9.73-5.57 3.541-1.986a1.029 1.029 0 0 1 .879-.001l9.746 5.579-3.526 1.977a1.104 1.104 0 0 1-.91.001Zm20.997 12.586 3.572-1.963a.942.942 0 0 1 .867-.002l4.405 2.519-3.516 1.972a1.105 1.105 0 0 1-.91.001l-4.418-2.527Zm-6.382-3.843 3.572-1.964a.942.942 0 0 1 .867-.002l4.406 2.52-3.516 1.971a1.104 1.104 0 0 1-.91.001l-4.419-2.526Zm-6.178-3.777 3.572-1.963a.943.943 0 0 1 .867-.002l4.406 2.519-3.517 1.971a1.09 1.09 0 0 1-.91.001l-4.418-2.526Zm-6.474-4.004 3.572-1.964a.942.942 0 0 1 .867-.001l4.406 2.519-3.516 1.971a1.104 1.104 0 0 1-.911.001l-4.418-2.526Zm29.094 13.352.002-.001a.872.872 0 0 1 .851 0h.001l4.434 2.536-3.551 1.965-.001.001a.926.926 0 0 1-.883.001l-4.41-2.521 3.557-1.981Zm11.77 6.385-3.539 1.984a1.098 1.098 0 0 1-.911.001l-4.418-2.526 3.567-1.986a1.02 1.02 0 0 1 .879-.001l4.422 2.528Zm6.481 3.902-3.538 1.984a1.093 1.093 0 0 1-.911.001l-4.418-2.526 3.567-1.986a1.015 1.015 0 0 1 .878-.001l4.422 2.528Zm2.061 5.657-4.421-2.529 3.538-1.984a1.109 1.109 0 0 1 .911-.001l4.418 2.526-3.567 1.986a1.015 1.015 0 0 1-.879.002Zm2.189 1.244 3.539-1.985a1.104 1.104 0 0 1 .911 0l4.397 2.514.008.019-3.554 1.979a1.02 1.02 0 0 1-.879.001l-4.422-2.528Zm10.771 6.299-4.418-2.526 3.545-1.963a1.007 1.007 0 0 1 .897-.001l4.403 2.518-3.516 1.971a1.098 1.098 0 0 1-.911.001Zm19.489 6.715-3.539 1.984a1.104 1.104 0 0 1-.911.001l-4.418-2.527 3.567-1.986a1.023 1.023 0 0 1 .879-.001l4.422 2.529Zm-91.434-42.397 3.547-1.964a.952.952 0 0 1 .867-.001l4.43 2.519-3.525 1.977a.947.947 0 0 1-.866 0l-4.453-2.531Zm-7.806-4.444 3.547-1.964a.952.952 0 0 1 .867-.001l5.763 3.283-3.526 1.977a.948.948 0 0 1-.866.001l-5.785-3.296Zm18.666 10.809-4.43-2.519 3.519-1.973a1.015 1.015 0 0 1 .878-.001l4.447 2.528-3.547 1.964a.953.953 0 0 1-.867.001Zm6.516-.699 4.412 2.522-3.524 1.976a.998.998 0 0 1-.895.001l-4.426-2.531 3.577-1.966.004-.002a.87.87 0 0 1 .851-.001l.001.001Z" fill="#fff" stroke="#1C2A60"/><mask id="b" fill="#fff"><path d="M123.608 222.333 87.435 201.22a1.518 1.518 0 0 0-1.343 0l-3.666 2.042c-.362.206-.388.542 0 .775l36.172 21.087a1.495 1.495 0 0 0 1.369 0l3.641-2.041c.361-.207.361-.543 0-.75Z"/></mask><path d="M123.608 222.333 87.435 201.22a1.518 1.518 0 0 0-1.343 0l-3.666 2.042c-.362.206-.388.542 0 .775l36.172 21.087a1.495 1.495 0 0 0 1.369 0l3.641-2.041c.361-.207.361-.543 0-.75Z" fill="#fff"/><path d="m123.608 222.333-.504.864.007.004.497-.868ZM87.435 201.22l.504-.864-.03-.018-.033-.015-.44.897Zm-1.343 0-.44-.897-.024.011-.022.012.486.874Zm-3.666 2.042-.487-.874-.01.005.497.869Zm0 .775-.515.857.01.007.505-.864Zm36.172 21.087-.504.864.023.013.024.013.457-.89Zm1.369 0 .457.89.016-.009.016-.009-.489-.872Zm3.641-2.041.489.872.007-.004-.496-.868Zm.504-1.613-36.173-21.114-1.008 1.728 36.173 21.113 1.008-1.727Zm-36.236-21.147a2.523 2.523 0 0 0-1.112-.259v2c.08 0 .158.018.23.054l.882-1.795Zm-1.112-.259c-.386 0-.766.089-1.113.259l.882 1.795a.513.513 0 0 1 .23-.054v-2Zm-1.158.282-3.667 2.042.973 1.747 3.667-2.041-.973-1.748Zm-3.677 2.047c-.345.198-.77.599-.784 1.223-.015.638.406 1.062.766 1.278l1.03-1.715c-.029-.016.212.123.203.484a.652.652 0 0 1-.12.367c-.053.071-.1.098-.102.1l-.993-1.737Zm-.007 2.508 36.172 21.087 1.008-1.728-36.173-21.087-1.007 1.728Zm36.219 21.113c.353.181.744.276 1.141.276v-2a.497.497 0 0 1-.227-.055l-.914 1.779Zm1.141.276c.397 0 .789-.095 1.142-.276l-.914-1.779a.504.504 0 0 1-.228.055v2Zm1.174-.294 3.641-2.041-.978-1.744-3.641 2.041.978 1.744Zm3.648-2.045c.362-.207.775-.62.775-1.243 0-.623-.413-1.036-.775-1.243l-.993 1.736s-.232-.141-.232-.493.232-.493.232-.493l.993 1.736Z" fill="#1C2A60" mask="url(#b)"/><path d="m125.324 228.461-4.41-2.522 3.516-1.971a1.098 1.098 0 0 1 .911-.001l4.418 2.526-3.551 1.966h-.001a.916.916 0 0 1-.883.002Zm6.495-.801 4.422 2.529-3.539 1.984a1.104 1.104 0 0 1-.911.001l-4.418-2.527 3.567-1.986a1.029 1.029 0 0 1 .879-.001Zm6.541 8.211-4.418-2.527 3.567-1.986a1.033 1.033 0 0 1 .879-.001l4.422 2.529-3.539 1.984a1.104 1.104 0 0 1-.911.001Zm5.704-.669.003-.002a.86.86 0 0 1 .852 0l4.446 2.542-3.532 1.956a1 1 0 0 1-.896.001l-4.426-2.531 3.553-1.966Zm10.856 5.677-3.595 1.976a.946.946 0 0 1-.865.004l-3.402-2.003 3.546-1.974a1.015 1.015 0 0 1 .877-.002l3.439 1.999Z" fill="#fff" stroke="#1C2A60"/><path d="m95.877 164.433.098.058c1.64.983 98.918 59.281 99.692 59.135.78-.146 1.644-.323 2.3-.461a2.618 2.618 0 0 0 1.765-1.615l24.577-83.5a8.76 8.76 0 0 0-3.828-10.649l-97.564-55.35c-1.196-.691-2.576-.787-3.817-.612-1.609.228-2.467.638-2.977.82-.486.173-21.124 76.052-23.084 83.26-.109.402-.228.742-.333 1.145a7.01 7.01 0 0 0 3.171 7.769Z" fill="#1C2A60"/><mask id="c" fill="#fff"><path d="m93.764 164.916 99.99 58.422a2.628 2.628 0 0 0 3.788-1.35l24.767-84.438a7.886 7.886 0 0 0-3.445-9.584L120.809 72.55c-2.841-1.64-6.474-.306-7.579 2.782L90.7 156.505a7.008 7.008 0 0 0 3.064 8.411Z"/></mask><path d="m93.764 164.916 99.99 58.422a2.628 2.628 0 0 0 3.788-1.35l24.767-84.438a7.886 7.886 0 0 0-3.445-9.584L120.809 72.55c-2.841-1.64-6.474-.306-7.579 2.782L90.7 156.505a7.008 7.008 0 0 0 3.064 8.411Z" fill="#fff"/><path d="m193.754 223.338-.505.864.505-.864Zm-99.99-58.422-.504.864.504-.864Zm-3.064-8.411.942.336.012-.034.01-.035-.964-.267Zm22.53-81.172-.941-.337-.013.034-.009.035.963.267Zm7.579-2.783-.5.866.008.005.492-.87Zm98.055 55.416.5-.866-.008-.005-.492.871Zm3.445 9.584-.937-.349-.013.033-.01.035.96.281Zm-24.767 84.438.937.349.013-.034.01-.034-.96-.281Zm-3.284.487-99.99-58.422-1.008 1.727 99.989 58.422 1.009-1.727ZM91.664 156.772l22.53-81.172-1.927-.535-22.53 81.172 1.927.535Zm28.653-83.351 98.055 55.416.984-1.742-98.055-55.415-.984 1.74Zm101.032 63.848-24.766 84.437 1.919.563 24.766-84.437-1.919-.563Zm-2.985-8.437a6.886 6.886 0 0 1 3.008 8.369l1.874.699a8.886 8.886 0 0 0-3.882-10.8l-1 1.732ZM114.172 75.669a4.257 4.257 0 0 1 6.137-2.253l1-1.732c-3.382-1.952-7.706-.365-9.02 3.312l1.883.673Zm-19.904 88.384a6.01 6.01 0 0 1-2.626-7.212l-1.883-.673a8.01 8.01 0 0 0 3.5 9.612l1.01-1.727Zm98.981 60.149a3.628 3.628 0 0 0 5.23-1.865l-1.874-.699a1.628 1.628 0 0 1-2.347.837l-1.009 1.727Z" fill="#1C2A60" mask="url(#c)"/><path d="m95.77 158.531 98.725 56.684 22.814-80.665-100-57-21.539 80.981Z" fill="#fff" stroke="#1C2A60"/><path d="m188.172 196.928-97.418-56.06a.744.744 0 0 1-.34-.841l22.452-78.64a.717.717 0 0 1 .434-.481.779.779 0 0 1 .653-.001l97.417 56.084c.29.161.437.526.34.841l-22.451 78.616c-.118.499-.658.584-1.087.482Z" fill="#2EB57D" stroke="#1C2A60"/><path d="M172.135 155.186Z" fill="#FFC0B0"/><path d="m83.535 121.862.002-.006 23.384-83.089.001-.002c.04-.126.237-.226.384-.166l97.496 56.323c.084.054.13.177.102.27l-.001.006-23.412 83.096-.005.02-.004.019c-.007.032-.037.096-.169.151a.688.688 0 0 1-.349.044l-97.323-56.394-.004-.002a.258.258 0 0 1-.102-.27Z" fill="#fff" stroke="#1C2A60"/><path d="m141.914 64.664.479-1.737a1.014 1.014 0 0 1 1.469-.595l53.569 30.894a1.029 1.029 0 0 1 .46 1.141l-.502 1.76a1.014 1.014 0 0 1-1.035.724 1.014 1.014 0 0 1-.434-.129l-53.546-30.917a.984.984 0 0 1-.46-1.141Z" stroke="#1C2A60"/><path d="m151.003 123.174-8.978-27.59-3.849 2.408-3.995.806 8.892 27.648 3.88-.663 4.05-2.609Z" fill="#FFC000" stroke="#1C2A60"/><path d="m129.684 111.047-.797 5.521 3.914 3.656 21.723-8.639-3.512-3.857.797-5.492-22.125 8.811Zm37.375 16.048 4.141.395 3.369 4.057s-4.441 11.247-14.821 10.518a18.199 18.199 0 0 1-9.912-4.009 18.045 18.045 0 0 1-5.917-8.87l4.052-.72 3.763-2.58s2.28 6.404 7.973 6.568a7.64 7.64 0 0 0 4.57-1.465 7.575 7.575 0 0 0 2.782-3.894Zm-11.755-26.354-.798 5.493 3.456 3.999s14.026-2.307 10.712 13.401l4.371.394 3.11 3.915s5.361-10.934-1.206-20.021c-6.567-9.087-13.553-8.906-19.645-7.181Zm-22.07-5.158a8.583 8.583 0 0 0-3.463-4.743 8.659 8.659 0 0 0-5.716-1.423 7.862 7.862 0 0 0-3.754 1.792 7.803 7.803 0 0 0-2.305 3.45l-3.369-3.885-4.141-.423a15.685 15.685 0 0 1 5.366-7.548 15.802 15.802 0 0 1 8.707-3.226c11.24-.73 16.548 12.763 16.548 12.763l-3.677 2.322-4.196.92Zm-7.434 21.052.912-5.722a7.77 7.77 0 0 1-5.914-.433 7.696 7.696 0 0 1-3.867-4.473 13.32 13.32 0 0 1-.414-8.237l-4.145-3.97-3.623-.453s-4.212 10.674 1.521 19.076c5.732 8.401 13.122 9.679 19.186 8.011l-3.656-3.799Z" fill="#FFC000" stroke="#1C2A60"/><path d="M110.978 45.703a1.038 1.038 0 0 1-.643.96 1.045 1.045 0 0 1-1.423-.755 1.036 1.036 0 0 1 1.022-1.242 1.035 1.035 0 0 1 1.044 1.037Zm3.157 1.824a1.07 1.07 0 0 1-2.111.003 1.053 1.053 0 0 1 .244-.854 1.065 1.065 0 0 1 .81-.372 1.072 1.072 0 0 1 1.028.77c.043.147.053.302.029.453Zm3.059 2.221a1.064 1.064 0 0 1-.945.725 1.073 1.073 0 0 1-1.03-.599 1.055 1.055 0 0 1 .169-1.175 1.072 1.072 0 0 1 1.158-.285 1.029 1.029 0 0 1 .605.532 1.034 1.034 0 0 1 .043.802Z" fill="#1C2A60"/><mask id="d" fill="#fff"><path d="m79.067 206.733 38.065 21.585c1.195.677 1.181 2.404-.025 3.062l-25.819 14.095a5.257 5.257 0 0 1-5.134-.054L49.07 224.156c-1.171-.672-1.175-2.359-.007-3.036l24.776-14.362a5.257 5.257 0 0 1 5.229-.025Z"/></mask><path d="m117.132 228.318.493-.87-.493.87Zm-38.065-21.585.493-.87-.493.87Zm-5.23.025.502.865-.501-.865ZM49.063 221.12l.501.865-.501-.865Zm.007 3.036-.498.867.498-.867Zm37.085 21.265-.497.868.497-.868Zm5.134.054.48.878-.48-.878Zm25.819-14.095-.479-.878.479.878Zm.518-3.932L79.56 205.863l-.986 1.74 38.065 21.585.986-1.74Zm-44.289-21.555L48.56 220.255l1.003 1.73 24.776-14.362-1.003-1.73Zm-24.764 19.13 37.085 21.266.995-1.735-37.086-21.266-.995 1.735Zm43.195 21.33 25.82-14.095-.959-1.756-25.82 14.095.96 1.756Zm-6.11-.064a6.258 6.258 0 0 0 6.11.064l-.958-1.756a4.257 4.257 0 0 1-4.157-.043l-.995 1.735ZM48.56 220.255c-1.834 1.063-1.828 3.714.011 4.768l.995-1.735a.752.752 0 0 1-.003-1.303l-1.003-1.73Zm31-14.392a6.257 6.257 0 0 0-6.224.03l1.003 1.73a4.256 4.256 0 0 1 4.235-.02l.986-1.74Zm37.079 23.325a.752.752 0 0 1-.011 1.314l.959 1.756c1.893-1.034 1.915-3.746.038-4.81l-.986 1.74Z" fill="#1C2A60" mask="url(#d)"/></svg>