<svg width="303" height="160" fill="none" xmlns="http://www.w3.org/2000/svg"><g clip-path="url(#a)"><rect width="303" height="160" rx="12" fill="#DE1E59"/><path d="M84 136.665v-22.196l67.253-38.936 68.746 39.366v22.814l-67.609 38.776L84 136.665Z" fill="#fff"/><path d="M84 114.469v22.196l68.39 39.824M84 114.469l68.39 39.259M84 114.469l67.253-38.936 68.746 39.366m-67.609 61.59 67.609-38.776v-22.814m-67.609 61.59v-22.761m67.609-38.829-67.609 38.829" stroke="#1C2A60"/><path d="m129.974 90.013 65.002 36.489-20.651 11.964-65.301-36.389 20.95-12.064Z" fill="#0196F0" stroke="#1C2A60"/><mask id="b" style="mask-type:alpha" maskUnits="userSpaceOnUse" x="83" y="74" width="138" height="104"><path d="M84 136.665v-22.196l67.252-38.936 68.747 39.366v22.814l-67.61 38.776L84 136.665Z" fill="#fff"/><path d="M84 114.469v22.196l68.389 39.824M84 114.469l68.389 39.259M84 114.469l67.252-38.936 68.747 39.366m-67.61 61.59 67.61-38.776v-22.814m-67.61 61.59v-22.761m67.61-38.829-67.61 38.829" stroke="#1C2A60"/></mask><g mask="url(#b)" fill="#000"><path opacity=".1" d="m178.023 116.533 12.304 6.711-9.66 4.881-13.118-7.118 10.474-4.474Zm-21.476-11.883 12.303 6.711-9.66 4.881-13.117-7.118 10.474-4.474ZM134.95 93.168l12.304 6.711-9.66 4.881-13.118-7.118 10.474-4.474Z"/></g><path d="m191.141 148.789-35.153 20.166v-12.236l35.153-20.167v12.237Z" fill="#1C2A60" fill-opacity=".2" stroke="#1C2A60"/><path d="m190.133 148.275-34.37 19.534v1.507l35.603-20.293-.044-12.944-1.189.684v11.512Z" fill="#1C2A60"/><path d="m158.299 159.119 1.952-1.078v-1.953l-1.952 1.079v1.952Zm2.774-1.541 1.952-1.079v-2.003l-1.952 1.13v1.952Zm0 2.826 1.952-1.079v-1.952l-1.952 1.079v1.952Zm2.774-4.419 1.953-1.13v-1.953l-1.953 1.131v1.952Zm2.774 1.336 1.901-1.131v-1.952l-1.901 1.13v1.953Zm0 2.826 1.901-1.079v-1.952l-1.901 1.13v1.901Zm2.725-7.321 1.953-1.131v-1.952l-1.953 1.13v1.953Zm-.054 5.83 1.953-1.13v-1.952l-1.953 1.13v1.952Zm2.776-4.417 1.952-1.131v-1.952l-1.952 1.13v1.953Zm0 2.825 1.952-1.079v-1.952l-1.952 1.079v1.952Zm2.773-7.321 1.901-1.079v-1.952l-1.901 1.079v1.952Zm0 5.78 1.901-1.079v-1.952l-1.901 1.079v1.952Zm2.724-4.367 1.952-1.13v-1.952l-1.952 1.13v1.952Z" fill="#0196F0"/><path d="m89.84 136.646 24.352 13.917v-15.48l-24.351-13.918v15.481Z" fill="#1C2A60"/><path d="M90.739 136.001v.288l.249.144 1.952 1.131.75.434v-14.307l-.249-.145-1.952-1.13-.75-.435v14.02Z" fill="#fff" stroke="#1C2A60"/><path d="M90.739 136v.289l.249.144 1.952 1.13.75.435v-4.913l-.257-.142-1.953-1.079-.742-.41V136Z" fill="#DE1E59" stroke="#1C2A60"/><path d="M90.739 128.397v.288l.249.145 1.952 1.13.75.435v-6.704l-.249-.145-1.952-1.13-.75-.435v6.416Zm3.236 9.454v.288l.25.144 1.951 1.131.75.434v-14.307l-.249-.145-1.952-1.13-.75-.435v14.02Z" fill="#fff" stroke="#1C2A60"/><path d="M93.975 128.449v.288l.25.145 1.951 1.13.75.434v-4.905l-.249-.145-1.952-1.13-.75-.435v4.618Z" fill="#DE1E59" stroke="#1C2A60"/><path d="M93.975 137.85v.288l.25.145 1.951 1.13.75.434v-6.704l-.249-.144-1.952-1.13-.75-.435v6.416Zm3.287 1.905v.288l.25.144 1.951 1.131.751.434v-14.307l-.25-.145-1.952-1.13-.75-.435v14.02Z" fill="#fff" stroke="#1C2A60"/><path d="M97.21 139.649v.288l.25.144 1.952 1.131.751.434v-4.854l-.25-.145-1.952-1.13-.75-.435v4.567Z" fill="#DE1E59" stroke="#1C2A60"/><path d="M97.262 132.203v.295l.258.142 1.952 1.079.742.41v-6.684l-.25-.145-1.952-1.13-.75-.435v6.468Zm3.186 9.386v.288l.25.145 1.952 1.13.75.435v-14.308l-.249-.144-1.952-1.131-.751-.434v14.019Z" fill="#fff" stroke="#1C2A60"/><path d="M100.448 132.187v.289l.25.144 1.952 1.13.75.435v-4.906l-.249-.144-1.952-1.131-.751-.434v4.617Z" fill="#DE1E59" stroke="#1C2A60"/><path d="M100.448 141.498v.288l.25.145 1.952 1.13.75.435v-6.704l-.249-.145-1.952-1.13-.751-.435v6.416Zm3.185 1.938v.295l.258.143 1.953 1.078.742.41v-14.236l-.25-.145-1.952-1.13-.751-.434v14.019Z" fill="#fff" stroke="#1C2A60"/><path d="M103.633 143.348v.295l.258.142 1.953 1.079.742.41v-4.835l-.25-.144-1.952-1.131-.751-.434v4.618Z" fill="#DE1E59" stroke="#1C2A60"/><path d="M103.633 135.832v.289l.25.144 1.952 1.13.751.435v-6.704l-.25-.145-1.952-1.13-.751-.434v6.415Zm3.236 9.467v.298l.263.142 2.004 1.079.737.397v-14.23l-.255-.144-2.003-1.13-.746-.42v14.008Z" fill="#fff" stroke="#1C2A60"/><path d="M106.869 135.846v.292l.254.143 2.004 1.13.746.421v-4.847l-.255-.144-2.003-1.13-.746-.42v4.555Z" fill="#DE1E59" stroke="#1C2A60"/><path d="M106.869 145.197v.299l.263.141 2.004 1.079.737.397v-6.678l-.255-.143-2.003-1.13-.746-.421v6.456Zm3.238 1.943v.288l.249.145 1.952 1.13.751.434V134.83l-.25-.145-1.952-1.13-.75-.434v14.019Z" fill="#fff" stroke="#1C2A60"/><path d="M110.107 146.995v.288l.249.145 1.952 1.13.751.434v-4.905l-.25-.145-1.952-1.13-.75-.435v4.618Z" fill="#DE1E59" stroke="#1C2A60"/><path d="M110.107 139.536v.289l.249.144 1.952 1.13.751.435v-6.704l-.25-.145-1.952-1.13-.75-.434v6.415Zm26.711-41.916-.011-.007-.011-.005a13.015 13.015 0 0 0-11.888.136l-.013.007-.012.007c-1.663 1.005-2.59 2.374-2.565 3.825.024 1.451.997 2.783 2.695 3.719l.01.006.011.005a13.007 13.007 0 0 0 11.905-.205l.008-.004.009-.005c1.661-.974 2.568-2.331 2.532-3.775-.037-1.438-1.005-2.768-2.67-3.704Z" fill="#fff" stroke="#1C2A60"/><path d="m136.858 97.988-.009-.503-.504.013-11.327.289-.511.013.024.51.11 2.35c.018.612.207 1.208.543 1.718.336.51.807.915 1.361 1.169a9.306 9.306 0 0 0 8.537-.136 3.344 3.344 0 0 0 1.304-1.113c.355-.513.472-1.073.519-1.611l.002-.027v-.026l-.049-2.646Z" fill="#DE1E59" stroke="#1C2A60"/><path d="m134.94 94.64-.012-.007-.013-.006a9.356 9.356 0 0 0-8.553.156l-.012.006-.011.007c-1.185.718-1.876 1.715-1.858 2.8.018 1.086.743 2.061 1.953 2.744l.011.006.012.006a9.258 9.258 0 0 0 8.558-.156l.01-.005.01-.006c1.185-.719 1.876-1.716 1.858-2.801-.018-1.086-.742-2.06-1.953-2.743Z" fill="#fff" stroke="#1C2A60"/><path d="M133.852 95.607a7.568 7.568 0 0 0-3.167-.64 7.597 7.597 0 0 0-3.148.747c-1.441.782-1.619 1.955-.68 2.843.225.196.469.363.729.498 1.01.44 2.089.657 3.175.639a7.639 7.639 0 0 0 3.156-.746c.232-.125.449-.28.648-.462 1.036-.924.793-2.115-.713-2.879Z" fill="#1C2A60"/><path d="M128.607 96.369c-.803.483-1.446 1.288-1.776 2.172.222.18.587.445.848.558 1.004.42 1.98.61 3.066.61 1.087 0 2.064-.253 3.141-.73.229-.12.477-.32.68-.483a4.587 4.587 0 0 0-.308-.621 4.126 4.126 0 0 0-1.063-1.231 4.073 4.073 0 0 0-3.064-.817 4.067 4.067 0 0 0-1.524.542Z" fill="#DE1E59"/><path d="M130.687 97.496c-.135 0-.269-.009-.394-.027a1.811 1.811 0 0 1-.333-.078.713.713 0 0 1-.223-.117c-.052-.044-.078-.09-.078-.138V40.538c0-.096.108-.188.301-.255.193-.068.454-.105.727-.105.273 0 .534.037.727.105.193.067.301.16.301.255v56.598c0 .096-.108.187-.301.255a2.301 2.301 0 0 1-.727.105Z" fill="#1C2A60"/><path d="m157.742 109.843-.011-.007-.011-.005a13.009 13.009 0 0 0-11.888.136l-.013.007-.012.007c-1.663 1.005-2.59 2.375-2.565 3.825.024 1.451.997 2.783 2.695 3.719l.01.006.011.005a13.022 13.022 0 0 0 5.977 1.34c2.069-.036 4.1-.565 5.928-1.544l.008-.005.009-.005c1.661-.974 2.568-2.331 2.532-3.775-.037-1.438-1.005-2.768-2.67-3.704Z" fill="#fff" stroke="#1C2A60"/><path d="m157.782 110.211-.009-.503-.503.013-11.328.289-.511.013.024.51.11 2.35c.019.612.207 1.208.543 1.718.337.51.808.915 1.361 1.169a9.309 9.309 0 0 0 8.537-.136 3.336 3.336 0 0 0 1.304-1.113c.355-.513.472-1.073.519-1.611l.002-.027v-.026l-.049-2.646Z" fill="#DE1E59" stroke="#1C2A60"/><path d="m155.864 106.864-.012-.007-.013-.007a9.361 9.361 0 0 0-8.553.156l-.012.006-.011.007c-1.184.718-1.876 1.716-1.858 2.801.019 1.085.743 2.06 1.953 2.743l.011.006.012.006a9.26 9.26 0 0 0 8.558-.155l.01-.006.01-.006c1.185-.719 1.876-1.716 1.858-2.801-.018-1.085-.742-2.061-1.953-2.743Z" fill="#fff" stroke="#1C2A60"/><path d="M154.776 107.83a7.567 7.567 0 0 0-3.167-.639 7.598 7.598 0 0 0-3.148.746c-1.441.782-1.619 1.955-.68 2.843.225.196.469.363.729.498 1.01.44 2.089.657 3.175.639a7.634 7.634 0 0 0 3.156-.746c.232-.125.449-.28.648-.462 1.036-.924.793-2.114-.713-2.879Z" fill="#1C2A60"/><path d="M149.531 108.592c-.803.483-1.446 1.288-1.776 2.172.222.18.587.445.848.558 1.004.421 1.98.61 3.067.61 1.086 0 2.064-.253 3.14-.729.229-.121.478-.321.68-.483a4.387 4.387 0 0 0-.308-.622 4.121 4.121 0 0 0-2.513-1.951 4.068 4.068 0 0 0-3.138.445Z" fill="#DE1E59"/><path d="M151.611 109.719c-.135 0-.269-.009-.394-.027a1.836 1.836 0 0 1-.333-.078.71.71 0 0 1-.223-.117c-.052-.044-.078-.09-.078-.138V52.761c0-.096.108-.187.301-.255.193-.067.454-.105.727-.105.273 0 .534.038.727.105.193.068.301.16.301.255v56.598c0 .096-.108.187-.301.255a2.316 2.316 0 0 1-.727.105Z" fill="#1C2A60"/><path d="m178.267 121.95-.011-.006-.011-.005a13.03 13.03 0 0 0-5.961-1.37c-2.066.024-4.097.54-5.928 1.506l-.013.007-.012.007c-1.662 1.005-2.589 2.374-2.565 3.824.024 1.452.997 2.783 2.696 3.72l.01.005.01.005a13.002 13.002 0 0 0 11.905-.204l.009-.004.008-.005c1.661-.975 2.569-2.331 2.532-3.775-.036-1.438-1.005-2.768-2.669-3.705Z" fill="#fff" stroke="#1C2A60"/><path d="m178.307 122.319-.01-.504-.503.013-11.328.29-.51.013.024.51.109 2.349c.019.613.207 1.208.544 1.719.336.51.807.915 1.36 1.169a9.309 9.309 0 0 0 8.538-.136 3.352 3.352 0 0 0 1.304-1.114c.354-.513.471-1.072.518-1.611l.003-.026-.001-.027-.048-2.645Z" fill="#DE1E59" stroke="#1C2A60"/><path d="m176.389 118.971-.013-.007-.012-.006a9.364 9.364 0 0 0-8.554.155l-.011.007-.011.007c-1.185.718-1.876 1.715-1.858 2.801.018 1.085.742 2.06 1.952 2.743l.012.006.011.006a9.261 9.261 0 0 0 8.558-.156l.01-.006.01-.006c1.185-.718 1.877-1.715 1.858-2.801-.018-1.085-.742-2.06-1.952-2.743Z" fill="#fff" stroke="#1C2A60"/><path d="M175.301 119.938a7.573 7.573 0 0 0-3.168-.64 7.583 7.583 0 0 0-3.147.747c-1.441.781-1.62 1.954-.68 2.843.224.195.469.362.728.497a7.592 7.592 0 0 0 6.332-.106c.231-.125.449-.28.647-.462 1.037-.924.794-2.115-.712-2.879Z" fill="#1C2A60"/><path d="M170.055 120.7c-.802.484-1.446 1.289-1.775 2.172.221.181.586.445.848.558 1.003.421 1.98.61 3.066.61 1.086 0 2.064-.252 3.14-.729.229-.121.478-.321.68-.483a4.386 4.386 0 0 0-.308-.622 4.118 4.118 0 0 0-1.062-1.231 4.081 4.081 0 0 0-1.451-.72 4.064 4.064 0 0 0-3.138.445Z" fill="#DE1E59"/><path d="M172.135 121.827c-.135 0-.268-.009-.393-.027a1.844 1.844 0 0 1-.334-.079.732.732 0 0 1-.223-.116c-.051-.044-.078-.091-.078-.138V64.868c0-.095.109-.187.301-.254a2.29 2.29 0 0 1 .727-.106c.273 0 .535.038.727.106.193.067.302.159.302.254v56.599c0 .095-.109.187-.302.254a2.281 2.281 0 0 1-.727.106Z" fill="#1C2A60"/><path d="M110.417 11.508a3.779 3.779 0 0 1-.587-.22 17.849 17.849 0 0 1-.224-.104l-.129-.061 11.562-5.996c1.129-.533 2.138-.827 3.552-.784.355.011.725.074 1.075.148-2.299 2.144-3.938 5.9-4.42 9.926-1.744-.905-3.331-1.358-4.955-1.7a72.144 72.144 0 0 0-1.933-.37c-1.221-.224-2.492-.456-3.941-.838Zm28.697-14.997-12.577 7.007c2.389-1.288 5.718-1.782 8.318-1.082 2.05.516 4.01 1.344 5.813 2.455a42.243 42.243 0 0 1 15.238 17.235l12.533-6.923a42.103 42.103 0 0 0-15.286-17.3c-5.425-3.16-10.347-3.503-13.926-1.49l-.113.098Z" fill="#fff" stroke="#1C2A60"/><path d="m126.55 3.45.161-.097-.161.098Zm53.806 16.057c.421.393.842.786 1.247 1.195a28.74 28.74 0 0 0-1.247-1.195Z" fill="#1C2A60"/><path d="M102.762 22.715c0 10.672 7.449 23.668 16.646 29.02.324.196 61.046 35.55 61.855 35.861 7.012 2.7 12.355-1.26 12.355-9.82 0-9.51-6.655-21.098-14.864-25.894a19.561 19.561 0 0 0-1.28-.67c.277-1.186.413-2.4.405-3.618 0-8.053-5.181-17.726-11.869-22.669a20.679 20.679 0 0 0-1.83-1.211 10.679 10.679 0 0 0-3.941-1.659 10.633 10.633 0 0 0-4.268.022 42.244 42.244 0 0 0-15.302-17.186 20.76 20.76 0 0 0-5.813-2.455 11.224 11.224 0 0 0-7.643.688c-3.449 1.636-5.732 5.516-6.202 10.982-.518-.344-1.02-.67-1.619-.965a13.6 13.6 0 0 0-9.084-2.177c-4.599.785-7.546 4.992-7.546 11.751Z" fill="#fff"/><path d="m189.246 84.879-64.025-37.432a39.74 39.74 0 0 1-12.549-13.765 39.084 39.084 0 0 1-5.571-18.577 7.25 7.25 0 0 0-1.052 1.636l-.243-.13a6.275 6.275 0 0 1 1.726-2.381 6.18 6.18 0 0 1 2.613-1.319c3.239-.785 7.676.819 12.372 4.485.259-9.82 4.161-12.652 7.4-13.307 7.804-1.636 19.431 7.677 24.904 19.903 4.469-.998 9.456 1.064 13.682 5.663 5.943 6.547 8.777 15.926 6.801 22.571 5.749 1.637 13.408 11.294 15.82 20.05 1.053 3.765 1.62 8.986-1.797 12.472l-.081.131ZM107.328 14.81v.147c.236 6.586 2.143 13 5.538 18.627a39.486 39.486 0 0 0 12.452 13.666c.324.213 45.096 26.352 63.831 37.285 3.238-3.404 2.672-8.478 1.619-12.144-2.413-8.74-10.088-18.397-15.771-19.887h-.146v-.147c2.04-6.547-.777-15.991-6.704-22.424-4.194-4.566-9.116-6.546-13.504-5.548h-.114v-.098a41.518 41.518 0 0 0-11.513-15.075c-4.728-3.797-9.505-5.532-13.132-4.795-4.55.949-7.044 5.548-7.189 13.34v.228l-.211-.18c-4.712-3.748-9.1-5.385-12.371-4.599a5.75 5.75 0 0 0-2.785 1.604Z" fill="#1C2A60"/><path d="m176.957 38.346-6.477-3.83a.175.175 0 0 1-.077-.075.192.192 0 0 1-.021-.105v-4.452h.421v4.32l6.396 3.765-.242.377Zm2.542 14.731c0 .67-.372.998-.826.72a2.094 2.094 0 0 1-.825-1.637c0-.655.372-.982.825-.72a2.133 2.133 0 0 1 .826 1.637Zm7.174 17.529c0 .67-.356.982-.81.72a2.096 2.096 0 0 1-.826-1.637c0-.67.373-.982.826-.72a2.077 2.077 0 0 1 .81 1.637Zm-10.947-20.82c0 .655-.373.983-.826.72a2.16 2.16 0 0 1-.826-1.637c0-.67.372-.998.826-.72a2.096 2.096 0 0 1 .826 1.637Zm-6.866-12.16c0 .67-.356.998-.809.72a2.057 2.057 0 0 1-.826-1.637c0-.655.356-.982.826-.72a2.133 2.133 0 0 1 .809 1.637Zm-3.4-.328c0 .671-.372.998-.826.72a2.093 2.093 0 0 1-.825-1.637c0-.654.372-.982.825-.72a2.144 2.144 0 0 1 .826 1.637Zm-3.076.573c0 .655-.373.982-.826.72a2.16 2.16 0 0 1-.826-1.637c0-.67.372-.998.826-.72a2.096 2.096 0 0 1 .826 1.637Zm-1.96-1.113c0 .671-.356.982-.826.72a2.081 2.081 0 0 1-.809-1.637c0-.67.356-.981.809-.72a2.044 2.044 0 0 1 .826 1.637Zm12.695 36.876c0 .671-.373.998-.826.72a2.085 2.085 0 0 1-.6-.722 2.12 2.12 0 0 1-.226-.914c0-.655.372-.983.826-.72a2.16 2.16 0 0 1 .826 1.637ZM164.245 39c0 .655-.372.982-.825.72a2.145 2.145 0 0 1-.826-1.636c0-.672.372-.999.826-.72a2.093 2.093 0 0 1 .825 1.637Zm1.378 3.65c0 .672-.373.983-.826.72a2.085 2.085 0 0 1-.6-.721 2.12 2.12 0 0 1-.226-.915c0-.671.372-.982.826-.72a2.147 2.147 0 0 1 .826 1.637Zm-5.442 1.342c0 .671-.356.982-.826.72a2.077 2.077 0 0 1-.81-1.636c0-.671.357-.982.81-.72.254.188.462.435.605.719.143.284.219.598.221.917Zm-1.037 2.75c0 .67-.372.982-.826.72a2.094 2.094 0 0 1-.825-1.637c0-.67.372-.982.825-.72a2.106 2.106 0 0 1 .826 1.637Zm.567 5.254c0 1.015-.566 1.506-1.263 1.096a3.274 3.274 0 0 1-.912-1.132 3.314 3.314 0 0 1-.335-1.42c0-1.016.567-1.507 1.247-1.097a3.174 3.174 0 0 1 1.263 2.553Zm-13.067.114c0 1.016-.567 1.49-1.247 1.098a3.277 3.277 0 0 1-1.263-2.57c0-.999.567-1.49 1.263-1.08.385.303.697.69.913 1.132.216.442.33.928.334 1.42Zm6.023 1.343c0 1.015-.55 1.506-1.246 1.097a3.265 3.265 0 0 1-.913-1.133 3.299 3.299 0 0 1-.334-1.42c0-1.015.55-1.506 1.247-1.097a3.274 3.274 0 0 1 1.246 2.553Zm25.748 4.845c0 .998-.551 1.49-1.247 1.096a3.265 3.265 0 0 1-.916-1.14 3.307 3.307 0 0 1-.331-1.43c0-.998.55-1.489 1.247-1.08.392.297.709.682.926 1.126.216.444.326.933.321 1.428Zm8.257 19.542c0 .999-.566 1.49-1.246 1.08a3.162 3.162 0 0 1-1.247-2.553c0-.998.55-1.489 1.247-1.096a3.276 3.276 0 0 1 1.246 2.57Zm-12.047-14.027c0 .999-.55 1.49-1.246 1.097a3.256 3.256 0 0 1-.934-1.135 3.305 3.305 0 0 1-.346-1.435c0-.998.551-1.49 1.247-1.08.398.293.722.677.944 1.12.222.445.337.936.335 1.433Zm-10.121-1.8c0 1.015-.566 1.49-1.263 1.096a3.276 3.276 0 0 1-1.246-2.57c0-.998.566-1.489 1.246-1.08.394.297.713.682.932 1.125.219.444.333.933.331 1.429Zm3.126 1.801c0 1.015-.567 1.506-1.247 1.096a3.3 3.3 0 0 1-1.247-2.553c0-1.015.551-1.506 1.247-1.096a3.3 3.3 0 0 1 1.247 2.553Zm2.477-8.511c0 1.014-.567 1.49-1.263 1.096a3.265 3.265 0 0 1-.916-1.14 3.307 3.307 0 0 1-.331-1.43c0-.998.567-1.489 1.247-1.08a3.173 3.173 0 0 1 1.263 2.553Zm4.292 2.946c0 .998-.567 1.49-1.247 1.08a3.174 3.174 0 0 1-1.263-2.553c0-.999.567-1.49 1.263-1.097.387.305.7.695.916 1.14.216.445.329.934.331 1.43ZM149.3 65.548c0 .999-.566 1.49-1.263 1.097a3.275 3.275 0 0 1-1.246-2.57c0-.998.566-1.49 1.246-1.08a3.16 3.16 0 0 1 1.263 2.553Zm9.214-3.601c0 .671-.356.982-.826.72a2.113 2.113 0 0 1-.809-1.636c0-.671.356-.982.809-.72a2.058 2.058 0 0 1 .826 1.637Zm1.667-21.048c0 .655-.356.982-.826.72a2.123 2.123 0 0 1-.81-1.637c0-.67.357-.998.81-.72.254.189.462.435.605.72.143.284.219.598.221.917Zm.243 18.724c0 .671-.356.998-.826.72a2.081 2.081 0 0 1-.809-1.637c0-.654.356-.982.809-.72a2.095 2.095 0 0 1 .826 1.637Zm19.334 13.47c0 .655-.356.982-.826.72a2.147 2.147 0 0 1-.81-1.637c0-.67.357-.998.81-.72a2.051 2.051 0 0 1 .826 1.637Zm-2.478-12.242c0 .671-.356.982-.826.72a2.081 2.081 0 0 1-.809-1.637c0-.67.356-.981.809-.72a2.044 2.044 0 0 1 .826 1.637Zm3.79 5.745c0 .671-.373.998-.826.72a2.085 2.085 0 0 1-.6-.722 2.12 2.12 0 0 1-.226-.915c0-.654.373-.982.826-.72a2.123 2.123 0 0 1 .826 1.637Zm-10.396-.966c0 .671-.372.999-.826.72a2.095 2.095 0 0 1-.826-1.636c0-.655.373-.982.826-.72a2.16 2.16 0 0 1 .826 1.637Zm-2.347-34.11c0 .671-.372.982-.826.72a2.085 2.085 0 0 1-.6-.721 2.12 2.12 0 0 1-.226-.915c0-.671.373-.982.826-.72.252.191.457.438.6.722.143.283.22.596.226.914Zm-3.256-.016c0 .671-.372.982-.826.72a2.094 2.094 0 0 1-.825-1.637c0-.654.372-.982.825-.72a2.122 2.122 0 0 1 .826 1.637Z" fill="#0196F0"/><path d="m182.559 46.022-11.027-6.547-.097-.098-1.83-4.108-3.579-2.095-1.182 1.03v1.343h-.421v-1.44a.255.255 0 0 1 0-.164l1.377-1.195a.191.191 0 0 1 .243 0l3.772 2.21a.157.157 0 0 1 .081.098l1.911 4.206 10.979 6.433-.227.327Zm-15.318-15.549-2.121-4.305-7.773-4.566.178-.344 7.837 4.583a.16.16 0 0 1 .081.098l2.105 4.321-.307.213Z" fill="#0196F0"/><path d="m163.662 30.342-2.591-5.32-4.177-2.438.21-.377 4.226 2.472.097.098 2.575 5.368-.34.197Zm-.696 20.656h-.42v-4.01a.193.193 0 0 1 0-.164l1.522-1.325a.191.191 0 0 1 .243 0l3.643 2.144-.211.36-3.513-2.046-1.344 1.162.08 3.88Zm12.161-2.21h-.421v-3.274l-1.732-3.552a.196.196 0 0 1 0-.245.224.224 0 0 1 .259 0l8.209 4.812-.21.377-7.513-4.37 1.441 2.945a.232.232 0 0 1 0 .099l-.033 3.208Zm10.995 20.672h-.437v-1.358a.195.195 0 0 1 .081-.164l1.619-1.407a.223.223 0 0 1 .243 0l3.578 2.095-.21.376-3.449-2.03-1.409 1.245-.016 1.243Z" fill="#0196F0"/><path d="m188.082 60.77-13.23-7.759-1.36 1.178a.191.191 0 0 1-.243 0l-6.477-3.83-2.072 1.8a.223.223 0 0 1-.243 0l-18.784-11.014.227-.377 18.638 10.934 2.056-1.8a.225.225 0 0 1 .259 0l6.477 3.846 1.36-1.179a.191.191 0 0 1 .243 0l13.359 7.824-.21.376Z" fill="#0196F0"/><path d="M172.892 53.633h-.421v-7.316l-4.064-8.299.388-.196 4.081 8.347a.232.232 0 0 1 0 .099l.016 7.365Zm-13.067-18.266h-.437V33.24l-2.38-4.91.388-.18 2.397 4.91a.232.232 0 0 1 0 .099l.032 2.21Zm12.679 36.958h-.404V70.18l-2.381-4.91.389-.196 2.396 4.91a.204.204 0 0 1 0 .098v2.243Zm-2.849-20.378-3.028-6.138a.232.232 0 0 1 0-.098v-3.175l-1.296-2.652-10.379-6.089.21-.376 10.461 6.105a.225.225 0 0 1 0 .082l1.344 2.782a.143.143 0 0 1 0 .082v3.11l3.012 6.187-.324.18Z" fill="#0196F0"/><path d="M161.655 45.072h-.113l-2.073-1.227.21-.377 1.944 1.146 2.947-2.57.291.328-3.076 2.668a.145.145 0 0 1-.13.033Zm-1.813-3.976-.275-.328 1.716-1.506v-1.767h.421v1.866a.193.193 0 0 1 0 .163l-1.862 1.572Zm-6.473-5.554-.378.189 4.859 9.95.378-.188-4.859-9.95Zm2.618 21.744-.377.189 1.57 3.213.378-.188-1.571-3.214Zm1.619-6.272-8.987-5.205-3.011 2.635v2.226h-.438v-2.39a.2.2 0 0 1 .081-.164l3.239-2.798a.224.224 0 0 1 .259 0l9.068 5.401-.211.295Zm-9.342 13.028h-.454v-2.34a.2.2 0 0 1 .081-.148l5.069-4.5.291.327-5.004 4.419.017 2.242Z" fill="#0196F0"/><path d="M147.81 56.53h-.113l-4.858-2.831-1.991 1.735-.276-.328 2.105-1.833a.223.223 0 0 1 .243 0l4.858 2.832 7.643-6.678.291.327-7.772 6.776a.193.193 0 0 1-.13 0Z" fill="#0196F0"/><path d="m188.907 64.697-18.622-10.933-2.51 2.21a.243.243 0 0 1-.259 0l-5.878-3.454-6.752 5.908a.224.224 0 0 1-.259 0l-3.935-2.307-2.477 2.16a.225.225 0 0 1-.259 0l-3.595-2.111v3.126h-.437v-3.437a.23.23 0 0 1 .113-.18.241.241 0 0 1 .211 0l3.789 2.225 2.493-2.176a.223.223 0 0 1 .243 0l3.935 2.307 6.769-5.908a.191.191 0 0 1 .242 0l5.878 3.437 2.51-2.193a.242.242 0 0 1 .259 0l18.767 11.015-.226.311Z" fill="#0196F0"/><path d="M159.825 58.249h-.437v-2.357a.195.195 0 0 1 .081-.164l2.38-2.078a.191.191 0 0 1 .243 0l6.769 3.928 1.829-1.637a.223.223 0 0 1 .243 0l2.024 1.195-.21.376-1.895-1.113-1.829 1.637a.223.223 0 0 1-.243 0l-6.736-3.944-2.186 1.914-.033 2.243Z" fill="#0196F0"/><path d="M159.825 69.87h-.437v-5.778a.237.237 0 0 1 .081-.164l1.943-1.637v-5.68a.187.187 0 0 1-.016-.073c0-.025.006-.05.016-.074l1.117-.982a.228.228 0 0 1 .243 0l7.368 4.321.826-.703a.191.191 0 0 1 .243 0l3.967 2.324.858-.753.275.327-.971.851a.192.192 0 0 1-.243 0l-3.967-2.324-.81.704a.225.225 0 0 1-.259 0l-7.368-4.337-.923.818v5.597a.195.195 0 0 1-.081.164l-1.927 1.637.065 5.761Zm30.086-2.98-6.169-3.617-3.385 2.963-.275-.327 3.498-3.061a.191.191 0 0 1 .243 0l6.298 3.699-.21.344Zm-3.883 10.366-.211.368 6.918 4.058.211-.368-6.918-4.058Zm7.931 1.681-18.12-10.639a.194.194 0 0 1-.081 0l-2.04-4.207.389-.18 1.975 4.043 18.087 10.59-.21.393Z" fill="#0196F0"/><path d="m178.317 72.488-3.757-2.128v-.098l-3.238-6.547-6.477-3.83-.842.655-.275-.327.842-.753a.256.256 0 0 1 .259 0l6.72 3.944v.098l3.238 6.547 3.789 2.063-.259.376Z" fill="#0196F0"/><path d="m167.487 63.523-.211.368 1.89 1.11.212-.368-1.891-1.11Zm24.853 20.553-15.383-9.002-2.995 2.684-.275-.327 3.108-2.782a.191.191 0 0 1 .243 0l15.529 9.084-.227.343Zm-35.754-17.955h-.421v-3.044l-3.756-2.193-2.316 2.03-.275-.328 2.429-2.128a.191.191 0 0 1 .243 0l3.999 2.34a.223.223 0 0 1 .097.197v3.126Zm11.271-19.493c0 .67-.372.982-.826.72a2.096 2.096 0 0 1-.826-1.637c0-.671.373-.982.826-.72a2.124 2.124 0 0 1 .826 1.637Zm1.425 2.864c0 .655-.372.982-.826.72a2.147 2.147 0 0 1-.826-1.637c0-.67.373-.998.826-.72a2.095 2.095 0 0 1 .826 1.637Zm2.138 26.155-4.178-7.414-4.858-2.995v4.091h-.421v-4.468a.23.23 0 0 1 .113-.197.243.243 0 0 1 .211 0l5.214 3.274.081.082 4.242 7.464-.404.163Z" fill="#0196F0"/><path d="m190.008 44.304-12.88 7.043c.421.197 1.095.498 1.532.743 7.894 4.876 14.627 16.43 14.627 25.956 0 4.91-1.566 7.95-4.319 9.473l12.925-6.978c2.607-1.636 4.226-4.91 4.226-9.575 0-9.509-6.638-21.113-14.848-25.893-.405-.327-.826-.556-1.263-.769Z" fill="#fff" stroke="#1C2A60"/><path d="M155.906 22.126a10.642 10.642 0 0 1 4.269-.022c1.41.281 2.75.846 3.941 1.66.631.37 1.241.774 1.83 1.21 6.704 4.91 11.869 14.616 11.869 22.67a15.557 15.557 0 0 1-.405 3.616l12.533-6.94c.285-1.178.421-2.388.405-3.6 0-8.773-6.121-19.477-13.699-23.88a10.693 10.693 0 0 0-3.941-1.66 10.637 10.637 0 0 0-4.268.023l-12.534 6.923Z" fill="#fff" stroke="#1C2A60"/><path d="m107.441 12.044.68-.377-.68.377Z" fill="#E5FFFF"/><path d="M107.927 14.171Zm81.449 70.626a2.52 2.52 0 0 0 .389-.442 5.276 5.276 0 0 1-1.924 1.56 5.217 5.217 0 0 1-2.416.503 9.932 9.932 0 0 1-3.449-.72 13.255 13.255 0 0 1-1.328-.59c-.291-.147-60.689-35.403-60.916-35.534A32.957 32.957 0 0 1 109.369 38.2a32.18 32.18 0 0 1-4.599-15.483 11.258 11.258 0 0 1 2.558-7.922v.163a39.045 39.045 0 0 0 5.554 18.692 39.548 39.548 0 0 0 12.404 13.798l64.09 37.35Z" fill="#1C2A60"/><path d="m178.754 54.174-1.279-.688c.163-.683.271-1.378.323-2.078.324.147.632.327.956.507 8.209 4.796 14.865 16.367 14.865 25.893v1.113c-.47-9.28-6.947-20.148-14.865-24.747ZM166.01 27.216a20.787 20.787 0 0 0-1.829-1.211 10.693 10.693 0 0 0-3.941-1.659 10.64 10.64 0 0 0-4.269.022 42.242 42.242 0 0 0-15.302-17.3 20.737 20.737 0 0 0-5.813-2.373 11.224 11.224 0 0 0-7.643.687c-3.449 1.719-5.732 5.5-6.202 10.982a17.088 17.088 0 0 0-1.619-.982 13.68 13.68 0 0 0-9.084-2.16c-4.291.737-7.222 4.534-7.529 10.655v-1.162c0-6.76 3.011-10.966 7.561-11.752a13.599 13.599 0 0 1 9.068 2.112c.518.294 1.02.622 1.62.965.469-5.466 2.752-9.264 6.201-10.982a11.224 11.224 0 0 1 7.627-.622 20.76 20.76 0 0 1 5.813 2.455 42.233 42.233 0 0 1 15.237 17.235 10.64 10.64 0 0 1 4.269-.022c1.41.281 2.75.845 3.941 1.659.63.37 1.241.775 1.83 1.21 6.687 4.911 11.869 14.617 11.869 22.67v1.113A31.497 31.497 0 0 0 174.1 36.76a31.146 31.146 0 0 0-8.09-9.545Z" fill="#E5FFFF"/><path d="M164.829 41.03c-4.745 11.294-17.019 17.53-30.766 16.925l-1.02-.606-.438-.245-6.655-3.88-.405-.229-.825-.474c-9.182-5.369-16.63-18.364-16.63-29.02 0-5.106 1.7-8.756 4.485-10.557a19.666 19.666 0 0 1 10.007 4.78 28.65 28.65 0 0 1 .454-4.714c.554.273 1.094.573 1.619.9.518.31 1.02.622 1.619.966.453-5.254 2.591-8.986 5.829-10.77 7.562.31 17.666 9.035 22.67 20.1 4.129-.967 8.307.72 11.853 3.829a25.774 25.774 0 0 1-1.797 12.996Z" fill="#1C2A60" style="mix-blend-mode:multiply" opacity=".2"/><path d="m156.309 39.343.003-.007c2.123-5.347 2.72-11.663 1.006-17.207l-.134-.436-.447.095c-.909.192-1.338.242-1.68.129-.32-.107-.654-.393-1.219-1.207-1.797-3.68-4.311-6.364-6.998-9.233l-.522-.558c-1.977-2.162-4.627-4.021-7.068-5.502-1.677-1.045-3.805-1.89-5.688-2.378-1.264-.347-2.484-.197-3.64.153-1 .304-1.985.768-2.924 1.211l-.41.193-.012.006c-3.142 1.578-5.207 4.961-5.783 9.68l-.238-.149a42.223 42.223 0 0 0-.538-.336 12.662 12.662 0 0 0-8.519-1.964l-.012.001-.011.002c-4.4.773-7.728 4.846-7.728 11.237 0 5 1.744 10.625 4.52 15.61 2.774 4.985 6.61 9.384 10.845 11.896l.011.006 5.263 2.947 2.661 1.681.112.07.133.007c12.536.562 24.623-5.34 29.017-15.947Z" fill="#0196F0" stroke="#1C2A60"/><path d="M122.129 53.322c10.849 6.318 50.682 29.462 58.001 33.636.826.31.972 1.145 5.231 1.473 14.978-.655 7.189-29.544-8.048-37.236 1.224-3.773.46-8.145-.923-11.801-3.028-8.348-11.335-19.085-20.386-17.284-4.113-7.89-9.506-14.436-17.019-18.217-8.307-4.125-17.051-1.293-17.99 10.213-3.238-2.357-7.707-3.78-10.622-3.143-14.379 2.963-7.076 33.21 11.756 42.36Zm-17.116-27.317c-1.619-14.19 7.06-16.71 17.634-8.282.486-24.338 23.738-12.275 32.11 6.547 11.804-2.799 24.078 16.22 20.37 28.169 9.23 2.406 23.868 26.187 12.533 33.618a8.013 8.013 0 0 1-6.623-.834c-7.821-4.469-61.094-35.452-61.305-35.583-7.027-4.42-13.569-14.73-14.719-23.635Z" fill="#fff" stroke="#1C2A60"/></g><defs><clipPath id="a"><rect width="303" height="160" rx="12" fill="#fff"/></clipPath></defs></svg>