<svg width="303" height="160" fill="none" xmlns="http://www.w3.org/2000/svg"><g clip-path="url(#a)"><rect width="303" height="160" rx="12" fill="#7030A0"/><path d="m147.057 164.615-88.301-51.003a1.506 1.506 0 0 1-.76-1.331c.005-.51 0-3.505 0-3.978 0-.448 54.662-28.326 60.202-31.15.326-.166.608-.325.937-.487a9.116 9.116 0 0 1 8.227.094c.253.132.467.256.719.39 5.978 3.198 87.846 47.002 87.846 47.975 0 1.01-.015 3.444 0 3.938a1.507 1.507 0 0 1-.757 1.362l-58.983 34.183a9.115 9.115 0 0 1-9.13.007Z" fill="#1C2A60"/><path d="M147.307 160.233 59.006 109.23a1.02 1.02 0 0 1 .006-1.769l59.885-34.052a8.614 8.614 0 0 1 8.588.04l87.435 50.831a1.02 1.02 0 0 1-.001 1.763l-58.983 34.184a8.617 8.617 0 0 1-8.629.006Z" fill="#fff" stroke="#1C2A60"/><path opacity=".2" d="m92.825 92.922 28.549-16.528a3.038 3.038 0 0 1 3.044 0l82.374 47.668a1.52 1.52 0 0 1-.015 2.638l-27.54 15.523a3.04 3.04 0 0 1-3.007-.014L92.827 94.238a.76.76 0 0 1-.002-1.316Z" fill="#1C2A60"/><path d="m127.398 78.696-3.918-2.24a1.319 1.319 0 0 0-1.164 0l-3.157 1.77c-.336.179-.358.47 0 .671l3.918 2.241a1.388 1.388 0 0 0 1.187 0l3.157-1.77c.291-.18.291-.493-.023-.672Zm5.508 3.204-3.918-2.24a1.322 1.322 0 0 0-1.165 0l-3.179 1.77c-.313.179-.336.492 0 .671l3.918 2.241a1.39 1.39 0 0 0 1.187 0l3.157-1.77c.313-.18.313-.448 0-.672Zm5.62 3.294-3.918-2.24a1.319 1.319 0 0 0-1.164 0l-3.179 1.77c-.336.178-.336.492 0 .671l3.918 2.24a1.386 1.386 0 0 0 1.186 0l3.157-1.77c.314-.2.314-.492 0-.671Zm5.687 3.293-3.941-2.24a1.319 1.319 0 0 0-1.164 0l-3.157 1.77c-.336.18-.358.493 0 .672l3.918 2.24a1.319 1.319 0 0 0 1.164 0l3.18-1.77c.291-.179.313-.47 0-.672Zm5.619 3.271-3.941-2.24a1.252 1.252 0 0 0-1.164 0l-3.157 1.747c-.336.18-.358.493 0 .672l3.94 2.24a1.326 1.326 0 0 0 1.165 0l3.179-1.77c.269-.156.291-.447-.022-.65Zm5.62 3.294-3.918-2.24a1.384 1.384 0 0 0-1.187 0l-3.156 1.77c-.336.178-.359.47 0 .649l3.918 2.24a1.183 1.183 0 0 0 1.164 0l3.179-1.747c.291-.157.314-.493 0-.672Zm5.62 3.27-3.918-2.24a1.386 1.386 0 0 0-1.186 0l-3.157 1.77c-.336.18-.358.47 0 .672l3.918 2.241a1.318 1.318 0 0 0 1.164 0l3.179-1.77c.292-.18.314-.493 0-.673Zm5.619 3.272-3.918-2.24a1.384 1.384 0 0 0-1.186 0l-3.157 1.77c-.336.179-.336.493 0 .672l3.918 2.24a1.382 1.382 0 0 0 1.187 0l3.156-1.77c.292-.179.314-.47 0-.672Zm5.621 3.293-3.918-2.24a1.291 1.291 0 0 0-1.187 0l-3.157 1.747c-.335.202-.358.493 0 .672l3.918 2.241a1.26 1.26 0 0 0 1.165 0l3.179-1.77c.291-.179.313-.471 0-.65Zm5.641 3.272-3.941-2.24a1.32 1.32 0 0 0-1.164 0l-3.157 1.77c-.336.179-.358.493 0 .672l3.941 2.24a1.32 1.32 0 0 0 1.164 0l3.157-1.77c.291-.179.313-.493 0-.672Zm5.62 3.271-3.94-2.241a1.321 1.321 0 0 0-1.165 0l-3.156 1.77c-.336.18-.359.493 0 .673l3.94 2.24a1.318 1.318 0 0 0 1.164 0l3.157-1.77c.291-.179.314-.47 0-.672Zm5.619 3.293-3.94-2.24a1.26 1.26 0 0 0-1.165 0l-3.156 1.77c-.336.179-.359.47 0 .65l3.918 2.24a1.253 1.253 0 0 0 1.164 0l3.179-1.77c.291-.179.314-.47 0-.65Zm5.62 3.249-3.94-2.241a1.318 1.318 0 0 0-1.164 0l-3.157 1.77c-.336.179-.358.471 0 .65l3.94 2.24a1.326 1.326 0 0 0 1.165 0l3.179-1.77c.269-.134.291-.448-.023-.649Zm5.619 3.294-3.918-2.24a1.382 1.382 0 0 0-1.186 0l-3.157 1.769c-.336.18-.358.493 0 .673l3.918 2.24a1.318 1.318 0 0 0 1.164 0l3.179-1.77c.291-.179.314-.47 0-.672Zm5.621 3.293-3.918-2.241a1.4 1.4 0 0 0-1.187 0l-3.157 1.77c-.335.18-.358.493 0 .673l3.918 2.24a1.326 1.326 0 0 0 1.165 0l3.179-1.77c.291-.202.313-.538 0-.672Z" fill="#1C2A60"/><path d="m123.247 76.518 3.741 2.139-2.952 1.655a.887.887 0 0 1-.729 0l-3.727-2.13 2.967-1.663a.823.823 0 0 1 .7-.001Zm1.619 4.983.002-.002a.008.008 0 0 1-.002.002Zm.2-.115 2.988-1.663a.823.823 0 0 1 .701-.001l3.73 2.133-2.964 1.661a.884.884 0 0 1-.729 0l-3.726-2.13Zm8.96 1.551c.121 0 .24.027.349.078l3.73 2.133-2.963 1.662a.89.89 0 0 1-.73 0l-3.726-2.13 2.988-1.664a.823.823 0 0 1 .352-.079Zm6.076 7.169-3.73-2.133 2.967-1.663a.823.823 0 0 1 .701 0l3.75 2.132-2.987 1.663a.822.822 0 0 1-.701.001Zm5.641 3.248-3.75-2.132 2.97-1.645a.757.757 0 0 1 .689 0l3.748 2.13-2.956 1.646a.82.82 0 0 1-.701.001Zm3.847-1.534-.001-.001.001.001Zm1.765 4.836-3.723-2.13 2.943-1.65a.89.89 0 0 1 .73 0l3.724 2.13-2.997 1.647-.005.002a.681.681 0 0 1-.672.001Zm5.607 3.285-3.73-2.132 2.964-1.662a.883.883 0 0 1 .729 0l3.726 2.13-2.988 1.663a.821.821 0 0 1-.701.001Zm5.615 3.27-3.726-2.131 2.964-1.661a.883.883 0 0 1 .729-.001l3.726 2.131-2.963 1.661a.89.89 0 0 1-.73.001Zm1.896 1.141 2.969-1.644a.797.797 0 0 1 .715-.001l3.713 2.123-2.974 1.656a.754.754 0 0 1-.688.001l-3.735-2.135Zm7.601.361-.003.003.003-.003Zm1.79 5.065-3.751-2.133 2.966-1.663a.822.822 0 0 1 .701-.001l3.751 2.133-2.966 1.663a.822.822 0 0 1-.701.001Zm5.621 3.271-3.752-2.133 2.967-1.663a.815.815 0 0 1 .7-.001l3.752 2.133-2.967 1.663a.819.819 0 0 1-.7.001Zm5.603 3.275-3.716-2.126 2.953-1.656a.765.765 0 0 1 .688 0l3.737 2.125-2.974 1.655a.754.754 0 0 1-.688.002Zm3.866-1.774-.003.002.003-.002Zm1.77 5.018-3.732-2.122 2.947-1.652a.818.818 0 0 1 .701 0l3.741 2.127-2.956 1.646a.823.823 0 0 1-.701.001Zm5.597 3.317-3.73-2.133 2.963-1.661a.89.89 0 0 1 .73-.001l3.726 2.13-2.989 1.664a.815.815 0 0 1-.7.001Zm9.473 1.531-.002.003.002-.003Zm-.164.097-2.988 1.664a.822.822 0 0 1-.701.001l-3.729-2.133 2.963-1.662a.901.901 0 0 1 .729 0l3.726 2.13Z" fill="#fff" stroke="#1C2A60"/><path d="m121.947 82.535-4.254-2.487a1.319 1.319 0 0 0-1.164 0l-3.157 1.77c-.336.18-.358.493 0 .672l4.254 2.465a1.319 1.319 0 0 0 1.164 0l3.157-1.77c.291-.225.313-.516 0-.65Zm5.844 3.361-4.232-2.487a1.384 1.384 0 0 0-1.186 0l-3.157 1.77c-.336.18-.336.493 0 .672l4.232 2.465a1.183 1.183 0 0 0 1.164 0l3.179-1.748c.314-.202.314-.493 0-.672Zm5.927 3.472-4.231-2.487a1.392 1.392 0 0 0-1.187 0l-3.157 1.77c-.336.18-.336.493 0 .672l4.232 2.465a1.183 1.183 0 0 0 1.164 0l3.179-1.748c.314-.201.314-.492 0-.672Zm-1.069 5.045-4.231-2.487a1.388 1.388 0 0 0-1.187 0l-3.157 1.77c-.335.18-.335.493 0 .672l4.232 2.465a1.186 1.186 0 0 0 1.164 0l3.179-1.748c.314-.201.314-.493 0-.672Zm-5.664-3.485-4.232-2.487a1.384 1.384 0 0 0-1.186 0l-3.157 1.77c-.336.18-.336.493 0 .672l4.231 2.465a1.19 1.19 0 0 0 1.165 0l3.179-1.748c.313-.201.313-.493 0-.672Zm12.36 1.666-3.94-2.24a1.256 1.256 0 0 0-1.165 0l-3.156 1.77c-.336.179-.359.47 0 .65l3.94 2.24a1.185 1.185 0 0 0 1.164 0l3.157-1.748c.291-.201.314-.493 0-.672Zm5.619 3.384-3.94-2.24a1.326 1.326 0 0 0-1.165 0l-3.157 1.77c-.335.179-.358.47 0 .672l3.919 2.24a1.319 1.319 0 0 0 1.164 0l3.157-1.77c.313-.291.336-.672.022-.672Zm5.619 3.159-3.941-2.24a1.319 1.319 0 0 0-1.164 0l-3.157 1.77c-.336.179-.336.492 0 .672l3.941 2.24a1.32 1.32 0 0 0 1.164 0l3.157-1.77c.291-.179.313-.47 0-.672Zm5.62 3.294-3.918-2.241a1.381 1.381 0 0 0-1.186 0l-3.157 1.77c-.336.179-.358.493 0 .672l3.918 2.241a1.318 1.318 0 0 0 1.164 0l3.157-1.77c.313-.202.336-.404.022-.672Zm5.621 3.27-3.918-2.24a1.386 1.386 0 0 0-1.187 0l-3.157 1.77c-.336.179-.336.47 0 .65l3.918 2.24a1.26 1.26 0 0 0 1.165 0l3.179-1.747c.291-.202.313-.493 0-.673Zm5.619 3.271-3.918-2.24a1.389 1.389 0 0 0-1.187 0l-3.157 1.77c-.336.179-.336.47 0 .672l3.918 2.24a1.32 1.32 0 0 0 1.164 0l3.157-1.77c.314-.224.336-.492.023-.672Zm5.642 3.294-3.94-2.24a1.18 1.18 0 0 0-1.165 0l-3.156 1.747c-.336.202-.359.493 0 .672l3.94 2.241a1.255 1.255 0 0 0 1.164 0l3.157-1.77c.291-.179.314-.471 0-.65Zm5.619 3.271-3.94-2.24a1.327 1.327 0 0 0-1.165 0l-3.157 1.77c-.335.179-.358.47 0 .649l3.941 2.241a1.188 1.188 0 0 0 1.164 0l3.157-1.748c.291-.067.314-.493 0-.672Zm5.62 3.272-3.94-2.241a1.318 1.318 0 0 0-1.164 0l-3.157 1.77c-.336.18-.358.471 0 .673l3.94 2.24a1.321 1.321 0 0 0 1.165 0l3.156-1.77c.292-.179.314-.493 0-.672Zm5.619 3.271-3.94-2.241a1.318 1.318 0 0 0-1.164 0l-3.157 1.77c-.336.18-.358.493 0 .672l3.94 2.241a1.321 1.321 0 0 0 1.164 0l3.157-1.77c.291-.179.314-.471 0-.672Zm10.367 6.049-8.598-4.996a1.318 1.318 0 0 0-1.164 0l-3.179 1.77c-.314.179-.336.471 0 .65l8.597 5.019a1.318 1.318 0 0 0 1.164 0l3.157-1.77c.314-.18.314-.493.023-.673Zm-62.04-30.628-3.918-2.24a1.319 1.319 0 0 0-1.164 0l-3.18 1.77c-.313.179-.335.47 0 .65l3.919 2.24a1.3 1.3 0 0 0 1.186 0l3.157-1.748c.314-.201.314-.493 0-.672Zm5.62 3.271-3.918-2.24a1.319 1.319 0 0 0-1.164 0l-3.157 1.77c-.336.179-.359.47 0 .672l3.918 2.24a1.382 1.382 0 0 0 1.186 0l3.157-1.77c.291-.179.291-.493-.022-.672Zm5.619 3.272-3.918-2.241a1.318 1.318 0 0 0-1.164 0l-3.179 1.77c-.314.18-.336.493 0 .673l3.918 2.24a1.381 1.381 0 0 0 1.186 0l3.157-1.77c.314-.179.314-.47 0-.672Zm5.62 3.293-3.918-2.241a1.318 1.318 0 0 0-1.164 0l-3.157 1.748c-.336.202-.358.493 0 .672l3.918 2.241a1.232 1.232 0 0 0 1.187 0l3.157-1.748c.291-.202.291-.493-.023-.672Zm5.619 3.272-3.918-2.241a1.318 1.318 0 0 0-1.164 0l-3.157 1.77c-.336.179-.358.471 0 .65l3.918 2.24a1.291 1.291 0 0 0 1.187 0l3.156-1.747c.292-.18.314-.493-.022-.672Zm5.643 3.293-4.008-2.241a1.184 1.184 0 0 0-1.164 0l-3.179 1.748c-.336.179-.336.493 0 .672l3.918 2.241a1.396 1.396 0 0 0 1.186 0l3.157-1.77c.381-.18.403-.471.09-.65Zm5.619 3.271-3.918-2.241a1.258 1.258 0 0 0-1.165 0l-3.179 1.77c-.336.179-.336.471 0 .65l3.918 2.241a1.19 1.19 0 0 0 1.165 0l3.179-1.748c.291-.202.313-.493 0-.672Zm5.62 3.271-3.918-2.241a1.318 1.318 0 0 0-1.164 0l-3.179 1.77c-.336.18-.336.493 0 .673l3.918 2.24a1.381 1.381 0 0 0 1.187 0l3.156-1.77c.426-.179.426-.493 0-.672Zm5.619 3.272-3.918-2.241a1.318 1.318 0 0 0-1.164 0l-3.179 1.77c-.336.179-.336.493 0 .672l3.918 2.241a1.381 1.381 0 0 0 1.186 0l3.157-1.77c.314-.179.314-.471 0-.672Zm12.202 7.124-10.692-6.177a1.321 1.321 0 0 0-1.164 0l-3.18 1.77c-.313.179-.336.47 0 .672l10.693 6.155a1.188 1.188 0 0 0 1.164 0l3.179-1.77c.291-.179.314-.47 0-.65Zm-76.524-39.216-10.646-6.185a1.319 1.319 0 0 0-1.164 0l-3.157 1.77c-.336.18-.358.47 0 .672l10.646 6.185a1.319 1.319 0 0 0 1.164 0l3.157-1.77c.291-.18.313-.47 0-.672Zm2.367-4.047-8.134-4.72a1.183 1.183 0 0 0-1.164 0l-3.179 1.748c-.314.179-.336.492 0 .672l8.133 4.742a1.322 1.322 0 0 0 1.165 0l3.156-1.77c.359-.179.359-.493.023-.672Zm8.356 10.418-3.918-2.24a1.386 1.386 0 0 0-1.187 0l-3.156 1.77c-.336.178-.336.47 0 .649l3.918 2.24a1.241 1.241 0 0 0 1.164 0l3.157-1.747c.313-.202.336-.448.022-.672Zm-5.329-3.332-3.918-2.24a1.384 1.384 0 0 0-1.187 0l-3.157 1.77c-.335.178-.335.47 0 .649l3.919 2.24a1.25 1.25 0 0 0 1.164 0l3.157-1.747c.313-.202.336-.448.022-.672Zm10.948 6.603-3.918-2.241a1.386 1.386 0 0 0-1.187 0l-3.157 1.77c-.335.179-.335.471 0 .672l3.919 2.241a1.318 1.318 0 0 0 1.164 0l3.179-1.77c.246-.18.246-.493 0-.672Zm5.621 3.27-3.918-2.24a1.389 1.389 0 0 0-1.187 0l-3.157 1.77c-.336.179-.336.493 0 .672l3.918 2.241a1.318 1.318 0 0 0 1.164 0l3.18-1.77c.313-.269.313-.471 0-.673Zm5.618 3.294-3.918-2.241a1.231 1.231 0 0 0-1.186 0l-3.157 1.748c-.336.202-.336.493 0 .672l3.918 2.241a1.252 1.252 0 0 0 1.164 0l3.179-1.77c.202-.18.314-.471 0-.65Zm5.621 3.271-3.918-2.241a1.4 1.4 0 0 0-1.187 0l-3.157 1.77c-.335.18-.335.471 0 .65l3.918 2.241a1.326 1.326 0 0 0 1.165 0l3.179-1.77c.313-.09.313-.471 0-.65Zm5.619 3.272-3.918-2.241a1.386 1.386 0 0 0-1.187 0l-3.157 1.77c-.336.179-.336.471 0 .672l3.918 2.241a1.325 1.325 0 0 0 1.165 0l3.179-1.77c.291-.179.313-.493 0-.672Zm5.642 3.293-3.918-2.241a1.3 1.3 0 0 0-1.186 0l-3.157 1.77c-.336.179-.358.471 0 .65l3.918 2.24a1.177 1.177 0 0 0 1.164 0l3.157-1.747c.313-.202.336-.493.022-.672Zm5.709 3.272-3.94-2.241a1.321 1.321 0 0 0-1.165 0l-3.156 1.77a.358.358 0 0 0 0 .672l3.94 2.241a1.318 1.318 0 0 0 1.164 0l3.157-1.77c.202-.179.224-.493 0-.672Zm5.531 3.27-3.918-2.24a1.292 1.292 0 0 0-1.187 0l-3.157 1.747c-.336.18-.336.493 0 .673l3.918 2.24a1.318 1.318 0 0 0 1.164 0l3.18-1.77c.291-.157.313-.448 0-.65Zm5.664 3.294-3.918-2.241a1.396 1.396 0 0 0-1.186 0l-3.157 1.77c-.336.18-.336.493 0 .673l3.918 2.24a1.318 1.318 0 0 0 1.164 0l3.179-1.77c.247-.202.269-.493 0-.672Zm10.322 6.027-8.598-4.996a1.32 1.32 0 0 0-1.164 0l-3.157 1.77c-.336.179-.358.47 0 .672l8.598 4.996a1.318 1.318 0 0 0 1.164 0l3.157-1.77c.291-.134.313-.493 0-.672ZM112.092 93.09l-8.524-4.878a1.319 1.319 0 0 0-1.164 0l-3.157 1.77c-.336.18-.358.47 0 .672l8.524 4.879a1.384 1.384 0 0 0 1.186 0l3.157-1.77c.291-.18.314-.47-.022-.672Zm22.058 13.127-3.918-2.24a1.244 1.244 0 0 0-1.164 0l-3.18 1.747c-.313.202-.336.493 0 .672l3.918 2.241a1.389 1.389 0 0 0 1.187 0l3.157-1.77c.313-.179.313-.471 0-.65Zm-5.533-3.333-3.918-2.24a1.253 1.253 0 0 0-1.164 0l-3.179 1.748c-.314.201-.336.492 0 .672l3.918 2.24a1.381 1.381 0 0 0 1.187 0l3.156-1.77c.314-.179.314-.47 0-.65Zm-5.356-3.274-3.918-2.241a1.252 1.252 0 0 0-1.164 0l-3.18 1.747c-.313.202-.335.493 0 .673l3.919 2.24a1.381 1.381 0 0 0 1.186 0l3.157-1.77c.313-.179.313-.47 0-.65Zm-5.614-3.472-3.918-2.24a1.25 1.25 0 0 0-1.164 0l-3.179 1.747c-.314.202-.336.493 0 .672l3.918 2.24a1.384 1.384 0 0 0 1.186 0l3.157-1.77c.314-.179.314-.47 0-.65Zm22.123 13.283-3.918-2.24a1.177 1.177 0 0 0-1.164 0l-3.179 1.77c-.314.179-.336.47 0 .649l3.918 2.241a1.231 1.231 0 0 0 1.186 0l3.157-1.748c.224-.134.224-.425 0-.672Zm5.619 3.338-3.918-2.24a1.32 1.32 0 0 0-1.164 0l-3.179 1.77c-.314.179-.336.493 0 .672l3.918 2.24a1.382 1.382 0 0 0 1.186 0l3.157-1.77c.314-.179.336-.493 0-.672Zm5.621 3.384-3.918-2.241a1.321 1.321 0 0 0-1.165 0l-3.179 1.77c-.313.179-.336.493 0 .672l3.918 2.241a1.386 1.386 0 0 0 1.187 0l3.157-1.77c.313-.291.336-.672 0-.672Zm5.64 3.181-3.918-2.24a1.381 1.381 0 0 0-1.186 0l-3.157 1.77c-.336.179-.336.47 0 .672l3.918 2.24a1.32 1.32 0 0 0 1.164 0l3.179-1.77c.314-.179.314-.492 0-.672Zm5.733 3.271-3.918-2.24a1.39 1.39 0 0 0-1.187 0l-3.157 1.77c-.336.179-.336.493 0 .672l3.918 2.24a1.32 1.32 0 0 0 1.164 0l3.18-1.77c.179-.179.201-.403 0-.672Zm5.508 3.293-3.918-2.24a1.288 1.288 0 0 0-1.186 0l-3.157 1.747c-.336.18-.336.493 0 .672l3.918 2.241a1.381 1.381 0 0 0 1.187 0l3.156-1.77c.314-.179.314-.471 0-.65Zm13.04 7.521-3.918-2.241a1.318 1.318 0 0 0-1.164 0l-3.18 1.77c-.313.18-.336.471 0 .673l3.918 2.24a1.389 1.389 0 0 0 1.187 0l3.157-1.77c.313-.179.336-.493 0-.672Zm-71.588-36.268-3.941-2.24a1.253 1.253 0 0 0-1.164 0l-3.157 1.747c-.336.202-.358.493 0 .672l3.94 2.24a1.257 1.257 0 0 0 1.165 0l3.157-1.77c.246-.178.268-.47 0-.649Zm-5.614-3.191-5.096-2.903a1.253 1.253 0 0 0-1.164 0l-3.157 1.748c-.335.201-.358.493 0 .672l5.096 2.903a1.253 1.253 0 0 0 1.164 0l3.157-1.77c.246-.18.269-.47 0-.65Zm11.168 6.515-3.94-2.24a1.322 1.322 0 0 0-1.165 0l-3.156 1.77c-.336.179-.359.47 0 .649l3.94 2.241a1.255 1.255 0 0 0 1.164 0l3.157-1.748c.291-.202.314-.493 0-.672Zm5.667 3.296-3.919-2.241a1.185 1.185 0 0 0-1.164 0l-3.179 1.748c-.314.201-.336.493 0 .672l3.918 2.24a1.291 1.291 0 0 0 1.187 0l3.157-1.77c.358-.179.358-.47 0-.649Zm33.065 19.349-31.363-18.306a1.321 1.321 0 0 0-1.164 0l-3.18 1.77c-.313.179-.336.471 0 .672l31.363 18.284a1.305 1.305 0 0 0 1.187 0l3.157-1.77c.313-.179.313-.471 0-.65Zm5.619 3.272-3.918-2.241a1.381 1.381 0 0 0-1.187 0l-3.157 1.77c-.335.179-.335.471 0 .65l3.919 2.24a1.226 1.226 0 0 0 1.186 0l3.157-1.747c.291-.179.314-.493 0-.672Zm5.621 3.203-3.918-2.24a1.32 1.32 0 0 0-1.164 0l-3.18 1.77c-.313.179-.336.47 0 .672l3.918 2.24a1.39 1.39 0 0 0 1.187 0l3.157-1.77c.313-.112.313-.425 0-.672Zm5.695 3.206-3.918-2.241a1.321 1.321 0 0 0-1.165 0l-3.179 1.77c-.336.18-.336.493 0 .672l3.918 2.241a1.386 1.386 0 0 0 1.187 0l3.157-1.77c.313-.179.313-.471 0-.672Zm5.672 3.338-3.918-2.24a1.174 1.174 0 0 0-1.164 0l-3.157 1.747c-.336.202-.358.493 0 .672l3.918 2.241a1.304 1.304 0 0 0 1.187 0l3.157-1.748c.291-.291.166-.564-.023-.672Zm4.807 2.714-3.045-1.77a1.318 1.318 0 0 0-1.164 0l-3.179 1.77c-.314.18-.336.471 0 .65l3.045 1.793a1.252 1.252 0 0 0 1.164 0l3.179-1.748c.291-.202.314-.515 0-.695Z" fill="#1C2A60"/><path d="m121.508 82.478-2.949 1.654a.823.823 0 0 1-.699 0l-4.068-2.356 2.968-1.664a.823.823 0 0 1 .698-.002l4.05 2.368Zm5.862 3.372-2.999 1.648-.005.003a.681.681 0 0 1-.67.001l-4.06-2.365 2.965-1.662a.883.883 0 0 1 .727-.002l4.042 2.376Zm5.927 3.472-2.999 1.648-.005.003a.681.681 0 0 1-.67.002l-4.06-2.365 2.965-1.663a.882.882 0 0 1 .727-.001l4.042 2.376Zm-1.068 5.044-3 1.65-.004.002a.687.687 0 0 1-.671.001l-4.06-2.364 2.965-1.663a.887.887 0 0 1 .727-.002l4.043 2.376Zm-5.665-3.485-2.999 1.65-.005.002a.686.686 0 0 1-.67.001l-4.061-2.365 2.965-1.662a.89.89 0 0 1 .727-.002l4.043 2.376Zm8.705 3.318-3.744-2.129 2.953-1.656a.756.756 0 0 1 .688 0l3.756 2.136-2.976 1.647-.003.002a.688.688 0 0 1-.673 0h-.001Zm9.262 1.729-2.977 1.67a.823.823 0 0 1-.7 0l-3.73-2.133 2.967-1.663a.816.816 0 0 1 .7 0l3.74 2.126Zm1.963 4.829-3.751-2.133 2.966-1.663a.823.823 0 0 1 .701 0l3.751 2.132-2.966 1.663a.822.822 0 0 1-.701.001Zm5.599 3.294-3.73-2.133 2.963-1.662a.89.89 0 0 1 .73-.001l3.715 2.125-2.978 1.67a.822.822 0 0 1-.7.001Zm5.627 3.252-3.717-2.126 2.944-1.65a.885.885 0 0 1 .729-.001l3.725 2.13-2.993 1.645a.752.752 0 0 1-.688.002Zm5.612 3.289-3.73-2.133 2.964-1.661a.885.885 0 0 1 .729-.001l3.715 2.125-2.978 1.67a.832.832 0 0 1-.7 0Zm4.891-.508.003-.002a.687.687 0 0 1 .673-.001v.001l3.745 2.129-2.953 1.655a.754.754 0 0 1-.688.001l-3.757-2.136 2.977-1.647Zm4.624 2.009-.003.003.003-.003Zm1.781 5.049-3.744-2.129 2.947-1.652a.814.814 0 0 1 .7-.001l3.75 2.133-2.976 1.647-.003.002a.686.686 0 0 1-.673 0h-.001Zm3.887-1.654-.059.104h.001l.059-.103.078-.137.11-.194-.111.193-.078.137Zm1.721 4.941-3.751-2.133 2.966-1.663a.819.819 0 0 1 .7-.001l3.752 2.133-2.967 1.663a.815.815 0 0 1-.7.001Zm5.619 3.271-3.752-2.133 2.967-1.664a.83.83 0 0 1 .7 0l3.752 2.133-2.967 1.663a.815.815 0 0 1-.7.001Zm10.346 6.05-8.393-4.899 2.97-1.654a.823.823 0 0 1 .7-.001l8.401 4.882-2.98 1.671a.836.836 0 0 1-.698.001ZM130.45 96.978l2.968-1.653a.823.823 0 0 1 .701-.001l3.729 2.132-2.969 1.644a.803.803 0 0 1-.715.001l-3.714-2.123Zm9.348 5.412-3.726-2.131 2.967-1.663a.818.818 0 0 1 .7-.001l3.741 2.139-2.952 1.655a.89.89 0 0 1-.73.001Zm1.671 1.256.003-.002-.003.002Zm.201-.115 2.988-1.663a.819.819 0 0 1 .7-.001l3.73 2.133-2.963 1.661a.89.89 0 0 1-.73.001l-3.725-2.131Zm5.643 3.271 2.964-1.641a.823.823 0 0 1 .701-.001l3.74 2.138-2.964 1.641h-.001a.728.728 0 0 1-.7.002l-3.74-2.139Zm13.214 3.66-.002.002.002-.002Zm-3.93-2.031 3.74 2.139-2.958 1.637a.797.797 0 0 1-.715.002l-3.714-2.124 2.947-1.653a.822.822 0 0 1 .7-.001Zm5.541 3.287h.001l3.764 2.104-2.986 1.675a.888.888 0 0 1-.73 0l-3.724-2.129 2.997-1.648.004-.002a.687.687 0 0 1 .674 0Zm5.775 7.06-3.723-2.129 2.975-1.656a.751.751 0 0 1 .687-.001l3.735 2.135-2.997 1.648-.005.002a.687.687 0 0 1-.672.001Zm5.566-.511 3.73 2.133-2.963 1.661a.89.89 0 0 1-.73.001l-3.725-2.131 2.988-1.663a.822.822 0 0 1 .7-.001Zm5.656 7.067-3.725-2.131 2.988-1.663a.805.805 0 0 1 .7-.002l3.73 2.133-2.963 1.662a.89.89 0 0 1-.73.001Zm16.076 5.336.003-.003-.003.003Zm-.2.113-2.982 1.66-.002.002a.685.685 0 0 1-.671.001l-10.421-5.992 2.988-1.664a.823.823 0 0 1 .7-.001l10.388 5.994ZM114.84 93.244l-10.46-6.077 2.968-1.664a.82.82 0 0 1 .699-.002l10.46 6.078-2.968 1.664a.823.823 0 0 1-.699.001Zm-1.928-10.332 7.951 4.614-2.98 1.67a.817.817 0 0 1-.698.002l-7.947-4.634 2.999-1.648.004-.003a.688.688 0 0 1 .671-.001Zm-3.874 1.765.003-.002-.003.002Zm16.508 14.919-3.716-2.125 2.943-1.65a.89.89 0 0 1 .73-.002l3.714 2.124-2.983 1.651a.752.752 0 0 1-.688.002Zm-5.329-3.332-3.716-2.125 2.943-1.65a.89.89 0 0 1 .73-.001l3.714 2.124-2.983 1.65a.753.753 0 0 1-.688.002Zm10.942 6.621-3.73-2.132 2.963-1.662a.89.89 0 0 1 .73 0l3.725 2.13-2.988 1.663a.823.823 0 0 1-.7.001Zm5.62 3.271-3.73-2.133 2.964-1.661a.885.885 0 0 1 .729-.001l3.726 2.131-2.988 1.663a.823.823 0 0 1-.701.001Zm1.89 1.139 2.976-1.647a.724.724 0 0 1 .701-.002l3.721 2.128-2.975 1.656a.754.754 0 0 1-.688.001l-3.735-2.136Zm9.349 5.404-3.71-2.122 2.944-1.65a.886.886 0 0 1 .729-.001l3.706 2.119-2.968 1.652a.808.808 0 0 1-.701.002Zm5.619 3.294-3.73-2.133 2.964-1.662a.885.885 0 0 1 .729-.001l3.726 2.131-2.988 1.664a.823.823 0 0 1-.701.001Zm5.657 3.278-3.724-2.129 2.951-1.655a.796.796 0 0 1 .714-.001l3.722 2.128-2.988 1.655-.003.001a.687.687 0 0 1-.672.001Zm5.717 3.286-3.752-2.133 2.967-1.663a.815.815 0 0 1 .7 0l3.751 2.133-2.966 1.663a.819.819 0 0 1-.7 0Zm5.508 3.249-3.729-2.132 2.97-1.644a.796.796 0 0 1 .714-.001l3.714 2.123-2.968 1.653a.823.823 0 0 1-.701.001Zm5.665 3.316-3.73-2.133 2.963-1.662a.905.905 0 0 1 .73 0l3.725 2.13-2.988 1.664a.819.819 0 0 1-.7.001Zm3.816-1.737-.001.002.001-.002Zm10.196 6.099-2.968 1.664a.822.822 0 0 1-.699.001l-8.412-4.888 2.968-1.664a.822.822 0 0 1 .699-.002l8.412 4.889ZM108 94.708l-8.332-4.769 2.967-1.663a.82.82 0 0 1 .7 0l8.347 4.776-2.953 1.656a.881.881 0 0 1-.729 0Zm18.311 10.975 2.993-1.645a.755.755 0 0 1 .689-.002l3.716 2.125-2.944 1.651a.885.885 0 0 1-.729.001l-3.725-2.13Zm-5.532-3.333 2.992-1.645a.758.758 0 0 1 .689-.001l3.716 2.125-2.943 1.65a.89.89 0 0 1-.73.001l-3.724-2.13Zm-5.357-3.275 2.993-1.645a.75.75 0 0 1 .689-.002l3.716 2.126-2.944 1.65a.881.881 0 0 1-.729.001l-3.725-2.13Zm-5.613-3.472 2.992-1.644a.754.754 0 0 1 .689-.002l3.716 2.125-2.943 1.65a.89.89 0 0 1-.73.001l-3.724-2.13Zm25.122 11.635.002-.001a.687.687 0 0 1 .673-.001l.001.001 3.741 2.139-2.976 1.647v.001a.734.734 0 0 1-.701.001l-3.721-2.128 2.981-1.659Zm10.237 5.362-.003.002.003-.002Zm-.2.115-2.963 1.661a.89.89 0 0 1-.73.001l-3.726-2.13 2.989-1.664a.815.815 0 0 1 .7-.001l3.73 2.133Zm-7.619-.354.003-.002-.003.002Zm13.24 3.737-2.964 1.662a.885.885 0 0 1-.729.001l-3.726-2.131 2.988-1.663a.81.81 0 0 1 .701-.002l3.73 2.133Zm-7.619-.353.002-.003-.002.003Zm9.57 5.199-3.73-2.133 2.964-1.661a.881.881 0 0 1 .729-.001l3.726 2.131-2.988 1.663a.823.823 0 0 1-.701.001Zm2.002 1.138 2.964-1.661a.885.885 0 0 1 .729-.001l3.726 2.13-2.988 1.664a.823.823 0 0 1-.701.001l-3.73-2.133Zm9.235 5.403-3.725-2.131 2.969-1.643a.801.801 0 0 1 .715-.002l3.714 2.124-2.943 1.651a.89.89 0 0 1-.73.001Zm16.932 5.764-.002.003a.012.012 0 0 1 .002-.003Zm-.199.116-2.964 1.661a.881.881 0 0 1-.729.001l-3.726-2.131 2.988-1.663a.823.823 0 0 1 .701-.001l3.73 2.133Zm-79.006-36.759 2.97-1.644a.756.756 0 0 1 .689-.002l3.738 2.126-2.953 1.656a.755.755 0 0 1-.688 0l-3.756-2.136Zm-6.769-3.853 2.97-1.645a.752.752 0 0 1 .69-.001l4.892 2.788-2.953 1.656a.75.75 0 0 1-.687 0l-4.912-2.798Zm19.739 7.667-2.97 1.645a.758.758 0 0 1-.689.001l-3.738-2.126 2.947-1.652a.817.817 0 0 1 .7 0l3.75 2.132Zm1.926 1.156 3.722 2.129-2.951 1.655a.793.793 0 0 1-.714.001l-3.732-2.135 2.997-1.647.005-.003a.68.68 0 0 1 .672 0h.001Zm5.631 3.291 31.159 18.186-2.954 1.656a.792.792 0 0 1-.712.002l-31.182-18.178 2.99-1.664a.81.81 0 0 1 .699-.002Zm33.118 23.119-3.721-2.128 2.943-1.651a.89.89 0 0 1 .73-.001l3.725 2.131-2.976 1.647a.734.734 0 0 1-.701.002Zm5.569-.578 3.73 2.133-2.964 1.661a.885.885 0 0 1-.729.001l-3.726-2.13 2.988-1.664a.823.823 0 0 1 .701-.001Zm5.732 7.001-3.726-2.131 2.988-1.663a.823.823 0 0 1 .701-.001l3.73 2.132-2.964 1.662a.885.885 0 0 1-.729.001Zm5.623-.464 3.752 2.145-2.958 1.638a.796.796 0 0 1-.714.001l-3.733-2.135 2.976-1.647.003-.002a.687.687 0 0 1 .674 0Zm8.569 4.864-3.014 1.656a.746.746 0 0 1-.686.003l-2.848-1.676 2.971-1.654a.822.822 0 0 1 .699-.002l2.878 1.673Zm.147-.087-.003.003.003-.003Z" fill="#fff" stroke="#1C2A60"/><path d="m129.576 72.522.102.06c1.636.98 85.76 51.395 86.43 51.27.676-.127 1.426-.281 1.995-.4a2.274 2.274 0 0 0 1.53-1.401l25.886-69.393a7.596 7.596 0 0 0-3.319-9.233L157.922-5.241c-1.037-.598-2.233-.682-3.31-.53-1.394.198-1.977.372-2.42.53-.439.157-24.898 69.672-25.192 70.508l-.017.047a6.078 6.078 0 0 0 2.593 7.208Z" fill="#1C2A60"/><path d="m214.701 123.17-86.695-50.654a5.577 5.577 0 0 1-2.438-6.693L149.922-2.28a4.058 4.058 0 0 1 5.85-2.148l84.835 48.987a6.336 6.336 0 0 1 2.768 7.702l-26.11 69.995a1.779 1.779 0 0 1-2.564.914Z" fill="#fff" stroke="#1C2A60"/><path d="m129.493 67.41 85.598 49.148 24.552-67.442-86.274-49.45-23.876 67.745Z" fill="#fff" stroke="#1C2A60"/><path d="m114.764 109.639 33.004 18.715a1.02 1.02 0 0 1-.014 1.781l-22.387 12.221a4.056 4.056 0 0 1-3.962-.041L89.25 123.877a1.02 1.02 0 0 1-.004-1.766l21.482-12.452a4.058 4.058 0 0 1 4.036-.02Z" stroke="#1C2A60"/><path opacity=".2" d="m104.282 118.195 40.1-20.929 19.61 11.608-39.044 21.193-20.666-11.872Z" fill="#000"/><path d="M120.962 124.743c-7.906-4.22-14.221-12.66-14.056-18.773l.549-28.565 28.607 15.257-.549 28.564c-.165 6.113-6.644 7.736-14.551 3.517Z" fill="#1C2A60"/><path d="m128.924 96.231 7.138-3.57-3.514 33.704-7.468 3.679 3.844-33.813Z" fill="#1C2A60"/><path d="M113.997 128.138c-3.882-2.073-7.366-5.173-9.863-8.51-2.506-3.35-3.974-6.88-3.922-9.808l.602-28.037 27.384 14.638-.379 28.254v.003c-.039 1.483-.443 2.648-1.112 3.517-.668.867-1.629 1.474-2.845 1.791-2.45.64-5.914.098-9.865-1.848Zm14.934-32.468-27.522-14.678 6.092-3.024 27.472 14.679-6.042 3.022Z" fill="#7030A0" stroke="#1C2A60"/><path d="M128.538 76.864a18.382 18.382 0 0 0-2.91-8.395 18.719 18.719 0 0 0-6.534-6.104 8.364 8.364 0 0 0-3.734-1.37 8.408 8.408 0 0 0-3.953.505 5.94 5.94 0 0 0-2.317 2.274 5.836 5.836 0 0 0-.758 3.135v15.148c0 .433.879.92 1.977 1.136 1.098.217 1.977 0 1.977-.378V67.937a2.88 2.88 0 0 1 .281-1.642c.253-.51.652-.935 1.146-1.225a4.68 4.68 0 0 1 4.118.65 13.864 13.864 0 0 1 4.7 4.41 13.608 13.608 0 0 1 2.164 6.03v14.878c0 .379.878.865 1.922 1.082 1.043.216 1.976 0 1.976-.325l-.055-14.931Zm-12.266 39.161c-.302-.086-5.356-3.094-5.356-3.094a.954.954 0 0 1-.461-1.046l1.292-7.643a5.96 5.96 0 0 1-1.431-3.593c-.021-.421.071-.84.265-1.215a2.42 2.42 0 0 1 .843-.923 3.04 3.04 0 0 1 3.001.318 7.286 7.286 0 0 1 2.463 2.375 7.147 7.147 0 0 1 1.092 3.22 2.2 2.2 0 0 1-.288 1.317 2.241 2.241 0 0 1-1.004.912l1.154 8.325a.995.995 0 0 1-.462 1.001c-.292.106-.806.131-1.108.046Z" fill="#1C2A60"/><path d="M118.534 115.365c-.301-.085-5.355-3.093-5.355-3.093a.949.949 0 0 1-.462-1.047l1.293-7.642a5.948 5.948 0 0 1-1.431-3.594 2.387 2.387 0 0 1 1.108-2.138 3.04 3.04 0 0 1 3.001.319 7.297 7.297 0 0 1 2.463 2.374 7.17 7.17 0 0 1 1.092 3.221c.044.457-.057.917-.288 1.316a2.257 2.257 0 0 1-1.005.913l1.154 8.325a.983.983 0 0 1-.079.568 1.005 1.005 0 0 1-.382.432c-.292.106-.807.131-1.109.046Z" fill="#7030A0"/><path d="m110.916 112.931.256-.43-.01-.005a.448.448 0 0 1-.221-.496l.004-.016.003-.016 1.292-7.642.039-.231-.152-.178a5.45 5.45 0 0 1-1.311-3.292v-.001a1.875 1.875 0 0 1 .209-.96c.148-.285.367-.53.637-.711a2.54 2.54 0 0 1 2.47.28l.019.015.021.012a6.78 6.78 0 0 1 2.294 2.212 6.644 6.644 0 0 1 1.016 2.996l.001.004c.034.354-.044.709-.223 1.018a1.747 1.747 0 0 1-.782.709l-.337.156.051.367 1.155 8.325h-.001l.002.009a.486.486 0 0 1-.039.281.507.507 0 0 1-.15.188c-.086.023-.21.043-.351.049a1.493 1.493 0 0 1-.382-.026 33.566 33.566 0 0 1-.871-.477 198.95 198.95 0 0 1-1.821-1.056c-.65-.381-1.29-.76-1.769-1.043l-.576-.341-.16-.096-.043-.025-.01-.006-.003-.002h-.001l-.256.429Zm-.6-12.282Z" stroke="#1C2A60"/><path d="m220.181 49.655-.664 5.404-6.23 50.655a1.712 1.712 0 0 1-.362.679c-.171.195-.624.45-.624.45l-.988.672s-.281-.633-.506-.761l-3.865-2.196-8.913-5.057-6.057-3.438-16.96-9.594-37.265-21.066a3.148 3.148 0 0 1-1.731-3.15l6.605-54.007.26-2.08a1.672 1.672 0 0 1 2.48-1.011l14.653 8.264 16.902 9.593 6.086 3.44 8.451 4.796 26.997 15.257a3.233 3.233 0 0 1 1.731 3.15Z" fill="#1C2A60"/><path d="m220.18 49.655-.664 5.404-1.471.867-75.453-47.68.259-2.08a1.684 1.684 0 0 1 .988-1.128 1.67 1.67 0 0 1 1.493.117l14.652 8.264 16.931 9.593 6.086 3.44 8.451 4.796 26.997 15.257a3.232 3.232 0 0 1 1.731 3.15Z" fill="#1C2A60"/><path d="m218.766 50.406-.663 5.52-6.202 50.511a1.7 1.7 0 0 1-2.509 1.04l-3.836-2.196-8.913-5.028-6.114-3.41-8.134-4.595-8.797-4.97-9.086-5.143-28.209-15.951a4.38 4.38 0 0 1-.721-.55 2.9 2.9 0 0 1-.98-2.6l3.894-32.017 2.336-18.927.634-5.115a1.713 1.713 0 0 1 .997-1.146 1.698 1.698 0 0 1 1.513.106l14.623 8.293 16.931 9.565 6.086 3.467 8.451 4.768 18.171 10.287 8.826 4.97a3.18 3.18 0 0 1 1.702 3.121Z" fill="#FFC000"/><path d="M210.258 107.852a2.058 2.058 0 0 1-.923-.231l-3.865-2.109-69.224-39.155a6.995 6.995 0 0 1-.779-.549 3.158 3.158 0 0 1-1.038-2.89l6.865-56.058a1.522 1.522 0 0 1 .894-1.185 1.986 1.986 0 0 1 1.846 0l73.088 41.35a3.32 3.32 0 0 1 1.818 3.324l-.664 5.519-6.201 50.54a1.471 1.471 0 0 1-.865 1.155 1.782 1.782 0 0 1-.952.289Zm-4.673-2.745 3.836 2.196a1.644 1.644 0 0 0 1.558 0 1.237 1.237 0 0 0 .721-.895l6.865-56.06a3.064 3.064 0 0 0-1.644-2.889L143.89 6.022a1.644 1.644 0 0 0-1.558 0 1.238 1.238 0 0 0-.721.895l-2.884 24.071-3.923 32.017a2.901 2.901 0 0 0 .952 2.456 5.3 5.3 0 0 0 .692.52l69.137 39.126Z" fill="#1C2A60"/><path d="m218.767 50.378-.664 5.548-77.271-43.894.606-5.114a1.702 1.702 0 0 1 2.509-1.04L158.6 14.17l16.902 9.564 6.115 3.439 8.451 4.797 26.997 15.257a3.148 3.148 0 0 1 1.702 3.15Z" fill="#1C2A60"/><path d="m204.258 46.448-4.673-2.745a.379.379 0 0 1-.202-.376s0-.173.26 0l4.673 2.89a.44.44 0 0 1 .201.375s-.144-.057-.259-.144Zm11.018 6.472a.373.373 0 0 1-.173-.202l-2.567-5.144v-.317a.43.43 0 0 1 .346.23l2.538 5.144v.318l-.144-.029Z" fill="#fff"/><path d="m212.306 51.157-.173-.144v-.347l3.403-1.647a.35.35 0 0 1 .346.173v.347l-3.432 1.647-.144-.029Zm-4.155-2.398a3.606 3.606 0 0 1-1.817-3.15c0-1.07 1.183-1.416 2.308-.751a3.59 3.59 0 0 1 1.788 3.15c-.115 1.069-1.154 1.386-2.279.75Zm.433-3.439c-.865-.491-1.644-.26-1.759.578a2.884 2.884 0 0 0 1.384 2.37c.865.52 1.644.26 1.76-.55a2.894 2.894 0 0 0-1.327-2.398h-.058Zm-31.986.723 4.153 2.398.173-1.069-4.153-2.398-.173 1.069Zm10.065 5.807 5.654 3.237.144-1.069-5.653-3.265-.145 1.098Zm-5.307-3.09 4.356 2.542.173-1.069-4.385-2.543-.144 1.07Zm-5.451 2.108 5.134 2.977.173-1.07-5.163-2.976-.144 1.07Zm-.72 4.826 3.635 2.08.144-1.069-3.606-2.08-.173 1.069Zm4.759 2.746 4.384 2.514.144-1.07-4.355-2.513-.173 1.069Z" fill="#fff"/><path d="m170.31 42.43 6.49 3.729.144-1.07-6.49-3.727-.144 1.069Zm-5.307-3.063 4.355 2.543.173-1.069-4.384-2.543-.144 1.07Zm1.586 6.185 9.519 5.432.144-1.069-9.49-5.432-.173 1.069Zm13.786 7.888 9.49 5.462.173-1.069-9.518-5.461-.145 1.069Zm-21.545-7.137 3.634 2.08.145-1.069-3.606-2.08-.173 1.069Zm4.76 2.745 4.356 2.514.173-1.07-4.384-2.513-.145 1.069Zm5.104 2.947 6.692 3.844.173-1.098-6.72-3.815-.145 1.07Zm-17.449-19.707 4.384 2.543.144-1.07-4.355-2.513-.173 1.04Zm-.548 4.855 4.355 2.514.173-1.069-4.384-2.514-.144 1.07Zm-.578 5.028 4.384 2.543.144-1.07-4.384-2.542-.144 1.069Zm-.489 4.883 4.355 2.543.144-1.098-4.355-2.514-.144 1.069Zm-.722 5.375 4.356 2.514.144-1.07-4.356-2.513-.144 1.069Zm-.606 4.941 4.384 2.543.144-1.069-4.355-2.543-.173 1.07Zm-.547 5 4.355 2.542.173-1.069-4.384-2.543-.144 1.07Zm26.68-1.387 7.644 4.42.144-1.069-7.644-4.42-.144 1.069Zm15.2 8.784 7.644 4.421.144-1.069-7.644-4.42-.144 1.068Z" fill="#fff"/><path d="m183.463 66.213 6.662 3.843.145-1.07-6.634-3.842-.173 1.069Zm-9.749-.405 15.719 9.073.144-1.069-15.69-9.073-.173 1.069Z" fill="#fff"/><path d="m188.856 74.564 9.692 5.548.173-1.07L189 73.496l-.144 1.069Zm-15.835-3.931 15.691 9.074.173-1.07-15.72-9.073-.144 1.07Zm-.721 4.856 7.672 4.392.144-1.07-7.643-4.392-.173 1.07Zm9.056 5.201 6.663 3.843.144-1.07-6.634-3.842-.173 1.069Zm-14.249-23.87 7.528 4.306.145-1.069-7.528-4.305-.145 1.069Zm-9.747-.403 16.556 9.536.173-1.07-16.585-9.535-.144 1.069Z" fill="#fff"/><path d="m156.639 61.242 16.585 9.536.144-1.069-16.556-9.536-.173 1.07Zm-.693 4.855 7.643 4.392.174-1.07-7.644-4.391-.173 1.069Zm9.057 5.201 7.499 4.306.173-1.07-7.528-4.305-.144 1.069Zm-9.894-45.54-3.202-2.89v-.549l3.577.896v.665l-2.481-.723 2.25 1.994-.144.607Zm.231.635 1.875-2.89.721.405-1.904 2.89-.692-.405Zm2.337.81v-.665l2.48.693-2.249-1.965v-.664l3.23 2.89v.549l-3.461-.838Zm30.112 63.861-3.202-2.89v-.578l3.577.896v.664l-2.481-.693 2.25 1.965-.144.636Zm.231.751 1.875-2.89.692.405-1.875 2.89-.692-.405Zm2.337.838v-.665l2.48.694-2.25-1.994v-.636l3.231 2.89v.578l-3.461-.867Z" fill="#fff"/></g><defs><clipPath id="a"><rect width="303" height="160" rx="12" fill="#fff"/></clipPath></defs></svg>