<svg width="150" height="149" viewBox="0 0 150 149" fill="none" xmlns="http://www.w3.org/2000/svg">
<path opacity="0.2" d="M19.965 12.4665C18.7259 11.2274 16.7169 11.2274 15.4778 12.4665C14.2387 13.7056 14.2387 15.7146 15.4778 16.9537C16.7169 18.1928 18.7259 18.1928 19.965 16.9537C21.2042 15.7146 21.2042 13.7056 19.965 12.4665Z" fill="#5472D3" stroke="#5472D3" stroke-width="0.5"/>
<path opacity="0.2" d="M58.5342 12.4665C57.295 11.2274 55.2861 11.2274 54.047 12.4665C52.8078 13.7056 52.8078 15.7146 54.047 16.9537C55.2861 18.1928 57.295 18.1928 58.5342 16.9537C59.7733 15.7146 59.7733 13.7056 58.5342 12.4665Z" fill="#5472D3" stroke="#5472D3" stroke-width="0.5"/>
<path opacity="0.2" d="M97.1032 12.4665C95.8641 11.2274 93.8551 11.2274 92.616 12.4665C91.3769 13.7056 91.3769 15.7146 92.616 16.9537C93.8551 18.1928 95.8641 18.1928 97.1032 16.9537C98.3423 15.7146 98.3423 13.7056 97.1032 12.4665Z" fill="#5472D3" stroke="#5472D3" stroke-width="0.5"/>
<g opacity="0.2" filter="url(#filter0_d_1_3229)">
<path opacity="0.2" d="M135.345 12.7938C134.287 11.7355 132.571 11.7355 131.513 12.7938C130.454 13.8521 130.454 15.5679 131.513 16.6262C132.571 17.6846 134.287 17.6846 135.345 16.6262C136.403 15.5679 136.403 13.8521 135.345 12.7938Z" fill="#5472D3"/>
<path opacity="0.2" d="M135.542 12.5974C134.375 11.4306 132.483 11.4306 131.316 12.5974C130.149 13.7641 130.149 15.6559 131.316 16.8227C132.483 17.9894 134.375 17.9894 135.542 16.8227C136.708 15.6559 136.708 13.7641 135.542 12.5974Z" stroke="#5472D3" stroke-width="0.3"/>
</g>
<path opacity="0.2" d="M19.965 51.0357C18.7259 49.7966 16.7169 49.7966 15.4778 51.0357C14.2387 52.2748 14.2387 54.2838 15.4778 55.5229C16.7169 56.762 18.7259 56.762 19.965 55.5229C21.2041 54.2838 21.2041 52.2748 19.965 51.0357Z" fill="#5472D3" stroke="#5472D3" stroke-width="0.5"/>
<path opacity="0.2" d="M58.5342 51.0357C57.295 49.7966 55.2861 49.7966 54.047 51.0357C52.8078 52.2748 52.8078 54.2838 54.047 55.5229C55.2861 56.762 57.295 56.762 58.5342 55.5229C59.7733 54.2838 59.7733 52.2748 58.5342 51.0357Z" fill="#5472D3" stroke="#5472D3" stroke-width="0.5"/>
<g opacity="0.2" filter="url(#filter1_d_1_3229)">
<path opacity="0.2" d="M96.7759 51.363C95.7176 50.3047 94.0017 50.3047 92.9434 51.363C91.8851 52.4213 91.8851 54.1372 92.9434 55.1955C94.0017 56.2538 95.7176 56.2538 96.7759 55.1955C97.8342 54.1372 97.8342 52.4213 96.7759 51.363Z" fill="#5472D3"/>
<path opacity="0.2" d="M96.9723 51.1666C95.8055 49.9998 93.9138 49.9998 92.747 51.1666C91.5802 52.3333 91.5802 54.2251 92.747 55.3919C93.9138 56.5587 95.8055 56.5587 96.9723 55.3919C98.1391 54.2251 98.1391 52.3333 96.9723 51.1666Z" stroke="#5472D3" stroke-width="0.3"/>
</g>
<g filter="url(#filter2_d_1_3229)">
<path d="M135.345 51.3631C134.287 50.3048 132.571 50.3048 131.513 51.3631C130.454 52.4214 130.454 54.1373 131.513 55.1956C132.571 56.2539 134.287 56.2539 135.345 55.1956C136.403 54.1373 136.403 52.4214 135.345 51.3631Z" fill="#5472D3"/>
<path d="M136.131 50.5774C134.639 49.0852 132.219 49.0852 130.727 50.5774C129.235 52.0696 129.235 54.489 130.727 55.9812C132.219 57.4734 134.639 57.4734 136.131 55.9812C137.623 54.489 137.623 52.0696 136.131 50.5774Z" stroke="#5472D3" stroke-width="1.2"/>
</g>
<g opacity="0.2" filter="url(#filter3_d_1_3229)">
<path opacity="0.2" d="M19.6377 89.9327C18.5794 88.8745 16.8635 88.8745 15.8052 89.9327C14.7469 90.991 14.7469 92.7069 15.8052 93.7652C16.8635 94.8235 18.5794 94.8235 19.6377 93.7652C20.696 92.7069 20.696 90.991 19.6377 89.9327Z" fill="#5472D3"/>
<path opacity="0.2" d="M19.8341 89.7363C18.6673 88.5695 16.7756 88.5695 15.6088 89.7363C14.442 90.9031 14.442 92.7948 15.6088 93.9616C16.7756 95.1284 18.6673 95.1284 19.8341 93.9616C21.0009 92.7948 21.0009 90.9031 19.8341 89.7363Z" stroke="#5472D3" stroke-width="0.3"/>
</g>
<g opacity="0.2" filter="url(#filter4_d_1_3229)">
<path opacity="0.2" d="M58.2068 89.9327C57.1485 88.8745 55.4326 88.8745 54.3743 89.9327C53.316 90.991 53.316 92.7069 54.3743 93.7652C55.4326 94.8235 57.1485 94.8235 58.2068 93.7652C59.2651 92.7069 59.2651 90.991 58.2068 89.9327Z" fill="#5472D3"/>
<path opacity="0.2" d="M58.4032 89.7363C57.2364 88.5695 55.3447 88.5695 54.1779 89.7363C53.0111 90.9031 53.0111 92.7948 54.1779 93.9616C55.3447 95.1284 57.2364 95.1284 58.4032 93.9616C59.57 92.7948 59.57 90.9031 58.4032 89.7363Z" stroke="#5472D3" stroke-width="0.3"/>
</g>
<g filter="url(#filter5_d_1_3229)">
<path d="M96.7759 89.9326C95.7176 88.8743 94.0017 88.8743 92.9434 89.9326C91.8851 90.9909 91.8851 92.7068 92.9434 93.7651C94.0017 94.8234 95.7176 94.8234 96.7759 93.7651C97.8342 92.7068 97.8342 90.9909 96.7759 89.9326Z" fill="#5472D3"/>
<path d="M97.1032 89.6053C95.8641 88.3662 93.8551 88.3662 92.616 89.6053C91.3769 90.8444 91.3769 92.8534 92.616 94.0925C93.8551 95.3316 95.8641 95.3316 97.1032 94.0925C98.3423 92.8534 98.3423 90.8444 97.1032 89.6053Z" stroke="#5472D3" stroke-width="0.5"/>
</g>
<g filter="url(#filter6_d_1_3229)">
<path d="M135.345 89.9326C134.287 88.8743 132.571 88.8743 131.513 89.9326C130.454 90.9909 130.454 92.7068 131.513 93.7651C132.571 94.8234 134.287 94.8234 135.345 93.7651C136.403 92.7068 136.403 90.9909 135.345 89.9326Z" fill="#5472D3"/>
<path d="M136.131 89.147C134.639 87.6548 132.219 87.6548 130.727 89.147C129.235 90.6392 129.235 93.0586 130.727 94.5508C132.219 96.043 134.639 96.043 136.131 94.5508C137.623 93.0586 137.623 90.6392 136.131 89.147Z" stroke="#5472D3" stroke-width="1.2"/>
</g>
<g opacity="0.2" filter="url(#filter7_d_1_3229)">
<path opacity="0.2" d="M19.6377 128.502C18.5794 127.444 16.8635 127.444 15.8052 128.502C14.7469 129.561 14.7469 131.277 15.8052 132.335C16.8635 133.393 18.5794 133.393 19.6377 132.335C20.696 131.277 20.696 129.561 19.6377 128.502Z" fill="#5472D3"/>
<path opacity="0.2" d="M19.8341 128.306C18.6673 127.139 16.7756 127.139 15.6088 128.306C14.442 129.473 14.442 131.365 15.6088 132.531C16.7756 133.698 18.6673 133.698 19.8341 132.531C21.0009 131.365 21.0009 129.473 19.8341 128.306Z" stroke="#5472D3" stroke-width="0.3"/>
</g>
<g filter="url(#filter8_d_1_3229)">
<path d="M58.2068 128.502C57.1485 127.444 55.4326 127.444 54.3743 128.502C53.316 129.561 53.316 131.277 54.3743 132.335C55.4326 133.393 57.1485 133.393 58.2068 132.335C59.2651 131.277 59.2651 129.561 58.2068 128.502Z" fill="#5472D3"/>
<path d="M58.9925 127.717C57.5002 126.225 55.0809 126.225 53.5886 127.717C52.0964 129.209 52.0964 131.628 53.5886 133.121C55.0809 134.613 57.5002 134.613 58.9925 133.121C60.4847 131.628 60.4847 129.209 58.9925 127.717Z" stroke="#5472D3" stroke-width="1.2"/>
</g>
<path opacity="0.2" d="M39.5645 31.4357C38.3254 30.1966 36.3164 30.1966 35.0773 31.4357C33.8382 32.6748 33.8382 34.6838 35.0773 35.9229C36.3164 37.162 38.3254 37.162 39.5645 35.9229C40.8036 34.6838 40.8036 32.6748 39.5645 31.4357Z" fill="#5472D3" stroke="#5472D3" stroke-width="0.5"/>
<path opacity="0.2" d="M39.5645 70.0055C38.3254 68.7664 36.3164 68.7664 35.0773 70.0055C33.8382 71.2446 33.8382 73.2535 35.0773 74.4926C36.3164 75.7317 38.3254 75.7317 39.5645 74.4926C40.8036 73.2535 40.8036 71.2446 39.5645 70.0055Z" fill="#5472D3" stroke="#5472D3" stroke-width="0.5"/>
<path opacity="0.2" d="M39.4336 108.706C38.2668 107.539 36.3751 107.539 35.2083 108.706C34.0415 109.873 34.0415 111.765 35.2083 112.931C36.3751 114.098 38.2668 114.098 39.4336 112.931C40.6003 111.765 40.6003 109.873 39.4336 108.706Z" fill="#5472D3" stroke="#5472D3" stroke-width="0.3"/>
<path opacity="0.2" d="M77.5038 31.4357C76.2647 30.1966 74.2557 30.1966 73.0166 31.4357C71.7775 32.6748 71.7775 34.6838 73.0166 35.9229C74.2557 37.162 76.2647 37.162 77.5038 35.9229C78.7429 34.6838 78.7429 32.6748 77.5038 31.4357Z" fill="#5472D3" stroke="#5472D3" stroke-width="0.5"/>
<path opacity="0.2" d="M77.5038 70.0055C76.2647 68.7664 74.2557 68.7664 73.0166 70.0055C71.7775 71.2446 71.7775 73.2535 73.0166 74.4926C74.2557 75.7317 76.2647 75.7317 77.5038 74.4926C78.7429 73.2535 78.7429 71.2446 77.5038 70.0055Z" fill="#5472D3" stroke="#5472D3" stroke-width="0.5"/>
<path opacity="0.2" d="M77.3728 108.706C76.206 107.539 74.3143 107.539 73.1475 108.706C71.9808 109.873 71.9808 111.765 73.1475 112.931C74.3143 114.098 76.206 114.098 77.3728 112.931C78.5396 111.765 78.5396 109.873 77.3728 108.706Z" fill="#5472D3" stroke="#5472D3" stroke-width="0.3"/>
<path opacity="0.2" d="M115.443 31.4357C114.204 30.1966 112.195 30.1966 110.956 31.4357C109.717 32.6748 109.717 34.6838 110.956 35.9229C112.195 37.162 114.204 37.162 115.443 35.9229C116.682 34.6838 116.682 32.6748 115.443 31.4357Z" fill="#5472D3" stroke="#5472D3" stroke-width="0.5"/>
<path opacity="0.2" d="M115.312 70.1365C114.145 68.9697 112.254 68.9697 111.087 70.1365C109.92 71.3032 109.92 73.195 111.087 74.3617C112.254 75.5285 114.145 75.5285 115.312 74.3617C116.479 73.195 116.479 71.3032 115.312 70.1365Z" fill="#5472D3" stroke="#5472D3" stroke-width="0.3"/>
<path d="M115.443 108.575C114.204 107.336 112.195 107.336 110.956 108.575C109.717 109.814 109.717 111.823 110.956 113.062C112.195 114.301 114.204 114.301 115.443 113.062C116.682 111.823 116.682 109.814 115.443 108.575Z" fill="#5472D3" stroke="#5472D3" stroke-width="0.5"/>
<g filter="url(#filter9_d_1_3229)">
<path d="M96.7759 128.502C95.7176 127.444 94.0017 127.444 92.9434 128.502C91.8851 129.561 91.8851 131.277 92.9434 132.335C94.0017 133.393 95.7176 133.393 96.7759 132.335C97.8342 131.277 97.8342 129.561 96.7759 128.502Z" fill="#5472D3"/>
<path d="M97.5615 127.717C96.0693 126.225 93.6499 126.225 92.1577 127.717C90.6655 129.209 90.6655 131.628 92.1577 133.121C93.6499 134.613 96.0693 134.613 97.5615 133.121C99.0538 131.628 99.0538 129.209 97.5615 127.717Z" stroke="#5472D3" stroke-width="1.2"/>
</g>
<g filter="url(#filter10_d_1_3229)">
<path d="M135.345 128.502C134.287 127.444 132.571 127.444 131.513 128.502C130.454 129.561 130.454 131.277 131.513 132.335C132.571 133.393 134.287 133.393 135.345 132.335C136.403 131.277 136.403 129.561 135.345 128.502Z" fill="#5472D3"/>
<path d="M136.131 127.717C134.639 126.225 132.219 126.225 130.727 127.717C129.235 129.209 129.235 131.628 130.727 133.121C132.219 134.613 134.639 134.613 136.131 133.121C137.623 131.628 137.623 129.209 136.131 127.717Z" stroke="#5472D3" stroke-width="1.2"/>
</g>
<defs>
<filter id="filter0_d_1_3229" x="126.291" y="7.57227" width="14.2755" height="14.2755" filterUnits="userSpaceOnUse" color-interpolation-filters="sRGB">
<feFlood flood-opacity="0" result="BackgroundImageFix"/>
<feColorMatrix in="SourceAlpha" type="matrix" values="0 0 0 0 0 0 0 0 0 0 0 0 0 0 0 0 0 0 127 0" result="hardAlpha"/>
<feOffset/>
<feGaussianBlur stdDeviation="2"/>
<feColorMatrix type="matrix" values="0 0 0 0 0.980392 0 0 0 0 0.835294 0 0 0 0 0.752941 0 0 0 0.8 0"/>
<feBlend mode="normal" in2="BackgroundImageFix" result="effect1_dropShadow_1_3229"/>
<feBlend mode="normal" in="SourceGraphic" in2="effect1_dropShadow_1_3229" result="shape"/>
</filter>
<filter id="filter1_d_1_3229" x="87.7219" y="46.1415" width="14.2755" height="14.2755" filterUnits="userSpaceOnUse" color-interpolation-filters="sRGB">
<feFlood flood-opacity="0" result="BackgroundImageFix"/>
<feColorMatrix in="SourceAlpha" type="matrix" values="0 0 0 0 0 0 0 0 0 0 0 0 0 0 0 0 0 0 127 0" result="hardAlpha"/>
<feOffset/>
<feGaussianBlur stdDeviation="2"/>
<feColorMatrix type="matrix" values="0 0 0 0 0.980392 0 0 0 0 0.835294 0 0 0 0 0.752941 0 0 0 0.8 0"/>
<feBlend mode="normal" in2="BackgroundImageFix" result="effect1_dropShadow_1_3229"/>
<feBlend mode="normal" in="SourceGraphic" in2="effect1_dropShadow_1_3229" result="shape"/>
</filter>
<filter id="filter2_d_1_3229" x="125.008" y="44.8583" width="16.8421" height="16.842" filterUnits="userSpaceOnUse" color-interpolation-filters="sRGB">
<feFlood flood-opacity="0" result="BackgroundImageFix"/>
<feColorMatrix in="SourceAlpha" type="matrix" values="0 0 0 0 0 0 0 0 0 0 0 0 0 0 0 0 0 0 127 0" result="hardAlpha"/>
<feOffset/>
<feGaussianBlur stdDeviation="2"/>
<feColorMatrix type="matrix" values="0 0 0 0 0.980392 0 0 0 0 0.835294 0 0 0 0 0.752941 0 0 0 0.8 0"/>
<feBlend mode="normal" in2="BackgroundImageFix" result="effect1_dropShadow_1_3229"/>
<feBlend mode="normal" in="SourceGraphic" in2="effect1_dropShadow_1_3229" result="shape"/>
</filter>
<filter id="filter3_d_1_3229" x="10.5837" y="85.7112" width="14.2755" height="14.2755" filterUnits="userSpaceOnUse" color-interpolation-filters="sRGB">
<feFlood flood-opacity="0" result="BackgroundImageFix"/>
<feColorMatrix in="SourceAlpha" type="matrix" values="0 0 0 0 0 0 0 0 0 0 0 0 0 0 0 0 0 0 127 0" result="hardAlpha"/>
<feOffset dy="1"/>
<feGaussianBlur stdDeviation="2"/>
<feColorMatrix type="matrix" values="0 0 0 0 1 0 0 0 0 1 0 0 0 0 1 0 0 0 0.25 0"/>
<feBlend mode="normal" in2="BackgroundImageFix" result="effect1_dropShadow_1_3229"/>
<feBlend mode="normal" in="SourceGraphic" in2="effect1_dropShadow_1_3229" result="shape"/>
</filter>
<filter id="filter4_d_1_3229" x="49.1528" y="84.7112" width="14.2755" height="14.2755" filterUnits="userSpaceOnUse" color-interpolation-filters="sRGB">
<feFlood flood-opacity="0" result="BackgroundImageFix"/>
<feColorMatrix in="SourceAlpha" type="matrix" values="0 0 0 0 0 0 0 0 0 0 0 0 0 0 0 0 0 0 127 0" result="hardAlpha"/>
<feOffset/>
<feGaussianBlur stdDeviation="2"/>
<feColorMatrix type="matrix" values="0 0 0 0 0.980392 0 0 0 0 0.835294 0 0 0 0 0.752941 0 0 0 0.8 0"/>
<feBlend mode="normal" in2="BackgroundImageFix" result="effect1_dropShadow_1_3229"/>
<feBlend mode="normal" in="SourceGraphic" in2="effect1_dropShadow_1_3229" result="shape"/>
</filter>
<filter id="filter5_d_1_3229" x="87.4367" y="84.426" width="14.8458" height="14.8458" filterUnits="userSpaceOnUse" color-interpolation-filters="sRGB">
<feFlood flood-opacity="0" result="BackgroundImageFix"/>
<feColorMatrix in="SourceAlpha" type="matrix" values="0 0 0 0 0 0 0 0 0 0 0 0 0 0 0 0 0 0 127 0" result="hardAlpha"/>
<feOffset/>
<feGaussianBlur stdDeviation="2"/>
<feColorMatrix type="matrix" values="0 0 0 0 0.980392 0 0 0 0 0.835294 0 0 0 0 0.752941 0 0 0 0.8 0"/>
<feBlend mode="normal" in2="BackgroundImageFix" result="effect1_dropShadow_1_3229"/>
<feBlend mode="normal" in="SourceGraphic" in2="effect1_dropShadow_1_3229" result="shape"/>
</filter>
<filter id="filter6_d_1_3229" x="125.008" y="84.4279" width="16.8421" height="16.842" filterUnits="userSpaceOnUse" color-interpolation-filters="sRGB">
<feFlood flood-opacity="0" result="BackgroundImageFix"/>
<feColorMatrix in="SourceAlpha" type="matrix" values="0 0 0 0 0 0 0 0 0 0 0 0 0 0 0 0 0 0 127 0" result="hardAlpha"/>
<feOffset dy="1"/>
<feGaussianBlur stdDeviation="2"/>
<feColorMatrix type="matrix" values="0 0 0 0 1 0 0 0 0 1 0 0 0 0 1 0 0 0 0.25 0"/>
<feBlend mode="normal" in2="BackgroundImageFix" result="effect1_dropShadow_1_3229"/>
<feBlend mode="normal" in="SourceGraphic" in2="effect1_dropShadow_1_3229" result="shape"/>
</filter>
<filter id="filter7_d_1_3229" x="10.5837" y="124.281" width="14.2755" height="14.2755" filterUnits="userSpaceOnUse" color-interpolation-filters="sRGB">
<feFlood flood-opacity="0" result="BackgroundImageFix"/>
<feColorMatrix in="SourceAlpha" type="matrix" values="0 0 0 0 0 0 0 0 0 0 0 0 0 0 0 0 0 0 127 0" result="hardAlpha"/>
<feOffset dy="1"/>
<feGaussianBlur stdDeviation="2"/>
<feColorMatrix type="matrix" values="0 0 0 0 1 0 0 0 0 1 0 0 0 0 1 0 0 0 0.25 0"/>
<feBlend mode="normal" in2="BackgroundImageFix" result="effect1_dropShadow_1_3229"/>
<feBlend mode="normal" in="SourceGraphic" in2="effect1_dropShadow_1_3229" result="shape"/>
</filter>
<filter id="filter8_d_1_3229" x="47.8695" y="122.998" width="16.8422" height="16.8422" filterUnits="userSpaceOnUse" color-interpolation-filters="sRGB">
<feFlood flood-opacity="0" result="BackgroundImageFix"/>
<feColorMatrix in="SourceAlpha" type="matrix" values="0 0 0 0 0 0 0 0 0 0 0 0 0 0 0 0 0 0 127 0" result="hardAlpha"/>
<feOffset dy="1"/>
<feGaussianBlur stdDeviation="2"/>
<feColorMatrix type="matrix" values="0 0 0 0 1 0 0 0 0 1 0 0 0 0 1 0 0 0 0.25 0"/>
<feBlend mode="normal" in2="BackgroundImageFix" result="effect1_dropShadow_1_3229"/>
<feBlend mode="normal" in="SourceGraphic" in2="effect1_dropShadow_1_3229" result="shape"/>
</filter>
<filter id="filter9_d_1_3229" x="86.4386" y="122.998" width="16.8422" height="16.8422" filterUnits="userSpaceOnUse" color-interpolation-filters="sRGB">
<feFlood flood-opacity="0" result="BackgroundImageFix"/>
<feColorMatrix in="SourceAlpha" type="matrix" values="0 0 0 0 0 0 0 0 0 0 0 0 0 0 0 0 0 0 127 0" result="hardAlpha"/>
<feOffset dy="1"/>
<feGaussianBlur stdDeviation="2"/>
<feColorMatrix type="matrix" values="0 0 0 0 1 0 0 0 0 1 0 0 0 0 1 0 0 0 0.25 0"/>
<feBlend mode="normal" in2="BackgroundImageFix" result="effect1_dropShadow_1_3229"/>
<feBlend mode="normal" in="SourceGraphic" in2="effect1_dropShadow_1_3229" result="shape"/>
</filter>
<filter id="filter10_d_1_3229" x="125.008" y="122.998" width="16.8422" height="16.8422" filterUnits="userSpaceOnUse" color-interpolation-filters="sRGB">
<feFlood flood-opacity="0" result="BackgroundImageFix"/>
<feColorMatrix in="SourceAlpha" type="matrix" values="0 0 0 0 0 0 0 0 0 0 0 0 0 0 0 0 0 0 127 0" result="hardAlpha"/>
<feOffset dy="1"/>
<feGaussianBlur stdDeviation="2"/>
<feColorMatrix type="matrix" values="0 0 0 0 1 0 0 0 0 1 0 0 0 0 1 0 0 0 0.25 0"/>
<feBlend mode="normal" in2="BackgroundImageFix" result="effect1_dropShadow_1_3229"/>
<feBlend mode="normal" in="SourceGraphic" in2="effect1_dropShadow_1_3229" result="shape"/>
</filter>
</defs>
</svg>
