<svg width="150" height="152" viewBox="0 0 150 152" fill="none" xmlns="http://www.w3.org/2000/svg">
<g filter="url(#filter0_d_1_3184)">
<path d="M50.7335 135.649C49.4647 135.166 48.0448 135.803 47.562 137.072C47.0792 138.341 47.7164 139.76 48.9851 140.243C50.2539 140.726 51.6738 140.089 52.1566 138.82C52.6394 137.551 52.0022 136.132 50.7335 135.649Z" fill="#5472D3"/>
<path d="M51.0473 134.824C49.3231 134.168 47.3935 135.034 46.7374 136.758C46.0813 138.482 46.9471 140.412 48.6713 141.068C50.3955 141.724 52.3251 140.858 52.9812 139.134C53.6373 137.41 52.7715 135.48 51.0473 134.824Z" stroke="#5472D3"/>
</g>
<path opacity="0.2" d="M74.1178 28.0163C75.837 28.0163 77.2306 26.6225 77.2306 24.9033C77.2306 23.1842 75.837 21.7904 74.1178 21.7904C72.3985 21.7904 71.0049 23.1842 71.0049 24.9033C71.0049 26.6225 72.3985 28.0163 74.1178 28.0163Z" fill="#5472D3" stroke="#5472D3" stroke-width="0.5"/>
<path opacity="0.2" d="M74.1178 126.87C75.837 126.87 77.2306 125.476 77.2306 123.757C77.2306 122.038 75.837 120.644 74.1178 120.644C72.3985 120.644 71.0049 122.038 71.0049 123.757C71.0049 125.476 72.3985 126.87 74.1178 126.87Z" fill="#5472D3" stroke="#5472D3" stroke-width="0.5"/>
<path opacity="0.2" d="M26.0264 76.1075C27.7458 76.1075 29.1393 74.7137 29.1393 72.9945C29.1393 71.2754 27.7458 69.8816 26.0264 69.8816C24.3072 69.8816 22.9136 71.2754 22.9136 72.9945C22.9136 74.7137 24.3072 76.1075 26.0264 76.1075Z" fill="#5472D3" stroke="#5472D3" stroke-width="0.5"/>
<path opacity="0.2" d="M122.209 76.1075C123.928 76.1075 125.321 74.7137 125.321 72.9945C125.321 71.2754 123.928 69.8816 122.209 69.8816C120.489 69.8816 119.096 71.2754 119.096 72.9945C119.096 74.7137 120.489 76.1075 122.209 76.1075Z" fill="#5472D3" stroke="#5472D3" stroke-width="0.5"/>
<g filter="url(#filter1_d_1_3184)">
<path d="M134.474 95.8774C133.949 97.2565 134.642 98.7999 136.021 99.3247C137.4 99.8495 138.943 99.1569 139.468 97.7778C139.993 96.3987 139.3 94.8553 137.921 94.3306C136.542 93.8058 134.999 94.4983 134.474 95.8774Z" fill="#5472D3"/>
<path d="M133.649 95.5636C132.951 97.3982 133.873 99.4512 135.707 100.149C137.542 100.847 139.595 99.9261 140.293 98.0915C140.991 96.2571 140.069 94.204 138.235 93.5059C136.4 92.8078 134.347 93.7292 133.649 95.5636Z" stroke="#5472D3"/>
</g>
<g filter="url(#filter2_d_1_3184)">
<path d="M9.62183 48.3683C9.09706 49.7474 9.78962 51.2908 11.1687 51.8155C12.5478 52.3403 14.0912 51.6477 14.6159 50.2687C15.1407 48.8896 14.4482 47.3462 13.0691 46.8214C11.69 46.2966 10.1466 46.9892 9.62183 48.3683Z" fill="#5472D3"/>
<path d="M8.79716 48.0546C8.09908 49.889 9.02036 51.942 10.8549 52.6402C12.6894 53.3383 14.7425 52.4169 15.4406 50.5825C16.1387 48.7479 15.2174 46.6949 13.3829 45.9968C11.5483 45.2986 9.49525 46.22 8.79716 48.0546Z" stroke="#5472D3"/>
</g>
<g filter="url(#filter3_d_1_3184)">
<path d="M99.2501 8.1497C97.871 7.62492 96.3277 8.31748 95.8029 9.69656C95.2781 11.0756 95.9707 12.619 97.3497 13.1438C98.7288 13.6686 100.272 12.976 100.797 11.5969C101.322 10.2179 100.629 8.67447 99.2501 8.1497Z" fill="#5472D3"/>
<path d="M99.5638 7.325C97.7294 6.62691 95.6763 7.5482 94.9782 9.38273C94.2801 11.2173 95.2013 13.2703 97.0359 13.9684C98.8705 14.6665 100.924 13.7452 101.622 11.9107C102.32 10.0762 101.398 8.02308 99.5638 7.325Z" stroke="#5472D3"/>
</g>
<g filter="url(#filter4_d_1_3184)">
<path d="M100.797 131.574C99.4504 132.179 98.8487 133.76 99.4528 135.106C100.057 136.452 101.638 137.054 102.984 136.45C104.33 135.846 104.932 134.264 104.328 132.918C103.724 131.572 102.143 130.97 100.797 131.574Z" fill="#5472D3"/>
<path d="M100.435 130.769C98.6445 131.573 97.8442 133.676 98.6478 135.467C99.4514 137.258 101.555 138.058 103.345 137.255C105.136 136.451 105.937 134.348 105.133 132.557C104.329 130.766 102.226 129.966 100.435 130.769Z" stroke="#5472D3"/>
</g>
<g filter="url(#filter5_d_1_3184)">
<path d="M46.1066 9.69645C44.7604 10.3005 44.1588 11.8816 44.7629 13.2278C45.367 14.574 46.948 15.1757 48.2942 14.5716C49.6405 13.9675 50.2421 12.3864 49.638 11.0402C49.0339 9.69398 47.4529 9.09236 46.1066 9.69645Z" fill="#5472D3"/>
<path d="M46.1066 9.69645C44.7604 10.3005 44.1588 11.8816 44.7629 13.2278C45.367 14.574 46.948 15.1757 48.2942 14.5716C49.6405 13.9675 50.2421 12.3864 49.638 11.0402C49.0339 9.69398 47.4529 9.09236 46.1066 9.69645Z" stroke="#5472D3"/>
</g>
<g filter="url(#filter6_d_1_3184)">
<path d="M16.0438 99.3239C15.4397 97.9777 13.8586 97.3761 12.5124 97.9802C11.1662 98.5843 10.5646 100.165 11.1686 101.512C11.7727 102.858 13.3538 103.459 14.7 102.855C16.0463 102.251 16.6479 100.67 16.0438 99.3239Z" fill="#5472D3"/>
<path d="M16.8488 98.9627C16.0452 97.1719 13.942 96.3716 12.1512 97.1751C10.3603 97.9787 9.56003 100.082 10.3636 101.873C11.1672 103.664 13.2704 104.464 15.0613 103.66C16.8521 102.857 17.6524 100.754 16.8488 98.9627Z" stroke="#5472D3"/>
</g>
<g filter="url(#filter7_d_1_3184)">
<path d="M137.921 44.6341C137.317 43.2879 135.736 42.6863 134.39 43.2904C133.044 43.8944 132.442 45.4755 133.046 46.8217C133.65 48.1679 135.231 48.7696 136.578 48.1655C137.924 47.5614 138.526 45.9804 137.921 44.6341Z" fill="#5472D3"/>
<path d="M138.726 44.2729C137.923 42.4821 135.82 41.6817 134.029 42.4853C132.238 43.2889 131.438 45.3921 132.241 47.183C133.045 48.9738 135.148 49.7741 136.939 48.9705C138.73 48.1669 139.53 46.0637 138.726 44.2729Z" stroke="#5472D3"/>
</g>
<path opacity="0.2" d="M100.57 72.9946C100.57 74.6163 101.884 75.931 103.506 75.931C105.128 75.931 106.443 74.6163 106.443 72.9946C106.443 71.3728 105.128 70.0581 103.506 70.0581C101.884 70.0581 100.57 71.3728 100.57 72.9946Z" fill="#5472D3" stroke="#5472D3" stroke-width="0.3"/>
<path opacity="0.2" d="M74.1178 46.542C75.7394 46.542 77.0541 45.2273 77.0541 43.6055C77.0541 41.9838 75.7394 40.6691 74.1178 40.6691C72.496 40.6691 71.1813 41.9838 71.1813 43.6055C71.1813 45.2273 72.496 46.542 74.1178 46.542Z" fill="#5472D3" stroke="#5472D3" stroke-width="0.3"/>
<path opacity="0.2" d="M74.1178 105.32C75.7394 105.32 77.0541 104.005 77.0541 102.384C77.0541 100.762 75.7394 99.4471 74.1178 99.4471C72.496 99.4471 71.1813 100.762 71.1813 102.384C71.1813 104.005 72.496 105.32 74.1178 105.32Z" fill="#5472D3" stroke="#5472D3" stroke-width="0.3"/>
<path opacity="0.2" d="M41.7925 72.9946C41.7925 74.6163 43.1072 75.931 44.729 75.931C46.3507 75.931 47.6654 74.6163 47.6654 72.9946C47.6654 71.3728 46.3507 70.0581 44.729 70.0581C43.1072 70.0581 41.7925 71.3728 41.7925 72.9946Z" fill="#5472D3" stroke="#5472D3" stroke-width="0.3"/>
<path opacity="0.2" d="M93.0095 91.8862C91.9661 92.9296 91.9661 94.6212 93.0095 95.6646C94.0528 96.708 95.7445 96.708 96.7879 95.6646C97.8312 94.6212 97.8312 92.9296 96.7879 91.8862C95.7445 90.8428 94.0528 90.8428 93.0095 91.8862Z" fill="#5472D3" stroke="#5472D3" stroke-width="0.3"/>
<path opacity="0.2" d="M51.4471 50.3238C50.4037 51.3672 50.4037 53.0588 51.4471 54.1022C52.4905 55.1456 54.1821 55.1456 55.2255 54.1022C56.2689 53.0588 56.2689 51.3672 55.2255 50.3238C54.1821 49.2804 52.4905 49.2804 51.4471 50.3238Z" fill="#5472D3" stroke="#5472D3" stroke-width="0.3"/>
<path opacity="0.2" d="M55.413 91.699C56.5598 92.8458 56.5598 94.705 55.413 95.8518C54.2663 96.9985 52.407 96.9985 51.2603 95.8518C50.1135 94.705 50.1135 92.8458 51.2603 91.699C52.407 90.5523 54.2663 90.5523 55.413 91.699Z" fill="#5472D3" stroke="#5472D3" stroke-width="0.3"/>
<path opacity="0.2" d="M96.9753 50.1366C98.1221 51.2834 98.1221 53.1426 96.9753 54.2894C95.8286 55.4361 93.9693 55.4361 92.8226 54.2894C91.6758 53.1426 91.6758 51.2834 92.8226 50.1366C93.9693 48.9899 95.8286 48.9899 96.9753 50.1366Z" fill="#5472D3" stroke="#5472D3" stroke-width="0.3"/>
<path d="M84.8086 72.9944C84.8086 73.8529 85.5044 74.5488 86.3629 74.5488C87.2215 74.5488 87.9173 73.8529 87.9173 72.9944C87.9173 72.1359 87.2215 71.4401 86.3629 71.4401C85.5044 71.4401 84.8086 72.1359 84.8086 72.9944Z" fill="#5472D3" stroke="#5472D3" stroke-width="0.5"/>
<path d="M74.118 62.3035C74.9765 62.3035 75.6724 61.6077 75.6724 60.7492C75.6724 59.8908 74.9765 59.1948 74.118 59.1948C73.2595 59.1948 72.5637 59.8908 72.5637 60.7492C72.5637 61.6077 73.2595 62.3035 74.118 62.3035Z" fill="#5472D3" stroke="#5472D3" stroke-width="0.5"/>
<path d="M74.118 86.7944C74.9765 86.7944 75.6724 86.0985 75.6724 85.24C75.6724 84.3815 74.9765 83.6857 74.118 83.6857C73.2595 83.6857 72.5637 84.3815 72.5637 85.24C72.5637 86.0985 73.2595 86.7944 74.118 86.7944Z" fill="#5472D3" stroke="#5472D3" stroke-width="0.5"/>
<path d="M60.318 72.9944C60.318 73.8529 61.014 74.5488 61.8725 74.5488C62.7309 74.5488 63.4269 73.8529 63.4269 72.9944C63.4269 72.1359 62.7309 71.4401 61.8725 71.4401C61.014 71.4401 60.318 72.1359 60.318 72.9944Z" fill="#5472D3" stroke="#5472D3" stroke-width="0.5"/>
<path d="M81.6774 80.5543C81.0704 81.1613 81.0704 82.1455 81.6774 82.7526C82.2845 83.3596 83.2686 83.3596 83.8757 82.7526C84.4827 82.1455 84.4827 81.1613 83.8757 80.5543C83.2686 79.9473 82.2845 79.9473 81.6774 80.5543Z" fill="#5472D3" stroke="#5472D3" stroke-width="0.5"/>
<path d="M64.36 63.2364C63.753 63.8435 63.753 64.8277 64.36 65.4347C64.967 66.0417 65.9512 66.0417 66.5582 65.4347C67.1653 64.8277 67.1653 63.8435 66.5582 63.2365C65.9512 62.6294 64.967 62.6294 64.36 63.2364Z" fill="#5472D3" stroke="#5472D3" stroke-width="0.5"/>
<path d="M66.5579 80.5543C67.1649 81.1613 67.1649 82.1455 66.5579 82.7526C65.9508 83.3596 64.9666 83.3596 64.3596 82.7526C63.7526 82.1455 63.7526 81.1613 64.3596 80.5543C64.9666 79.9473 65.9508 79.9473 66.5579 80.5543Z" fill="#5472D3" stroke="#5472D3" stroke-width="0.5"/>
<path d="M83.8759 63.2364C84.4829 63.8435 84.4829 64.8277 83.8759 65.4347C83.2688 66.0417 82.2846 66.0417 81.6776 65.4347C81.0706 64.8277 81.0706 63.8435 81.6776 63.2364C82.2846 62.6294 83.2688 62.6294 83.8759 63.2364Z" fill="#5472D3" stroke="#5472D3" stroke-width="0.5"/>
<defs>
<filter id="filter0_d_1_3184" x="42.0179" y="131.105" width="15.6827" height="15.6827" filterUnits="userSpaceOnUse" color-interpolation-filters="sRGB">
<feFlood flood-opacity="0" result="BackgroundImageFix"/>
<feColorMatrix in="SourceAlpha" type="matrix" values="0 0 0 0 0 0 0 0 0 0 0 0 0 0 0 0 0 0 127 0" result="hardAlpha"/>
<feOffset dy="1"/>
<feGaussianBlur stdDeviation="2"/>
<feColorMatrix type="matrix" values="0 0 0 0 1 0 0 0 0 1 0 0 0 0 1 0 0 0 0.25 0"/>
<feBlend mode="normal" in2="BackgroundImageFix" result="effect1_dropShadow_1_3184"/>
<feBlend mode="normal" in="SourceGraphic" in2="effect1_dropShadow_1_3184" result="shape"/>
</filter>
<filter id="filter1_d_1_3184" x="128.916" y="89.7725" width="16.1104" height="16.1104" filterUnits="userSpaceOnUse" color-interpolation-filters="sRGB">
<feFlood flood-opacity="0" result="BackgroundImageFix"/>
<feColorMatrix in="SourceAlpha" type="matrix" values="0 0 0 0 0 0 0 0 0 0 0 0 0 0 0 0 0 0 127 0" result="hardAlpha"/>
<feOffset dy="1"/>
<feGaussianBlur stdDeviation="2"/>
<feColorMatrix type="matrix" values="0 0 0 0 1 0 0 0 0 1 0 0 0 0 1 0 0 0 0.25 0"/>
<feBlend mode="normal" in2="BackgroundImageFix" result="effect1_dropShadow_1_3184"/>
<feBlend mode="normal" in="SourceGraphic" in2="effect1_dropShadow_1_3184" result="shape"/>
</filter>
<filter id="filter2_d_1_3184" x="4.06372" y="42.2633" width="16.1103" height="16.1104" filterUnits="userSpaceOnUse" color-interpolation-filters="sRGB">
<feFlood flood-opacity="0" result="BackgroundImageFix"/>
<feColorMatrix in="SourceAlpha" type="matrix" values="0 0 0 0 0 0 0 0 0 0 0 0 0 0 0 0 0 0 127 0" result="hardAlpha"/>
<feOffset dy="1"/>
<feGaussianBlur stdDeviation="2"/>
<feColorMatrix type="matrix" values="0 0 0 0 1 0 0 0 0 1 0 0 0 0 1 0 0 0 0.25 0"/>
<feBlend mode="normal" in2="BackgroundImageFix" result="effect1_dropShadow_1_3184"/>
<feBlend mode="normal" in="SourceGraphic" in2="effect1_dropShadow_1_3184" result="shape"/>
</filter>
<filter id="filter3_d_1_3184" x="90.2448" y="3.59155" width="16.1104" height="16.1104" filterUnits="userSpaceOnUse" color-interpolation-filters="sRGB">
<feFlood flood-opacity="0" result="BackgroundImageFix"/>
<feColorMatrix in="SourceAlpha" type="matrix" values="0 0 0 0 0 0 0 0 0 0 0 0 0 0 0 0 0 0 127 0" result="hardAlpha"/>
<feOffset dy="1"/>
<feGaussianBlur stdDeviation="2"/>
<feColorMatrix type="matrix" values="0 0 0 0 1 0 0 0 0 1 0 0 0 0 1 0 0 0 0.25 0"/>
<feBlend mode="normal" in2="BackgroundImageFix" result="effect1_dropShadow_1_3184"/>
<feBlend mode="normal" in="SourceGraphic" in2="effect1_dropShadow_1_3184" result="shape"/>
</filter>
<filter id="filter4_d_1_3184" x="93.8353" y="126.957" width="16.1102" height="16.1102" filterUnits="userSpaceOnUse" color-interpolation-filters="sRGB">
<feFlood flood-opacity="0" result="BackgroundImageFix"/>
<feColorMatrix in="SourceAlpha" type="matrix" values="0 0 0 0 0 0 0 0 0 0 0 0 0 0 0 0 0 0 127 0" result="hardAlpha"/>
<feOffset dy="1"/>
<feGaussianBlur stdDeviation="2"/>
<feColorMatrix type="matrix" values="0 0 0 0 1 0 0 0 0 1 0 0 0 0 1 0 0 0 0.25 0"/>
<feBlend mode="normal" in2="BackgroundImageFix" result="effect1_dropShadow_1_3184"/>
<feBlend mode="normal" in="SourceGraphic" in2="effect1_dropShadow_1_3184" result="shape"/>
</filter>
<filter id="filter5_d_1_3184" x="40.028" y="5.96155" width="14.345" height="14.345" filterUnits="userSpaceOnUse" color-interpolation-filters="sRGB">
<feFlood flood-opacity="0" result="BackgroundImageFix"/>
<feColorMatrix in="SourceAlpha" type="matrix" values="0 0 0 0 0 0 0 0 0 0 0 0 0 0 0 0 0 0 127 0" result="hardAlpha"/>
<feOffset dy="1"/>
<feGaussianBlur stdDeviation="2"/>
<feColorMatrix type="matrix" values="0 0 0 0 1 0 0 0 0 1 0 0 0 0 1 0 0 0 0.25 0"/>
<feBlend mode="normal" in2="BackgroundImageFix" result="effect1_dropShadow_1_3184"/>
<feBlend mode="normal" in="SourceGraphic" in2="effect1_dropShadow_1_3184" result="shape"/>
</filter>
<filter id="filter6_d_1_3184" x="5.55112" y="93.3627" width="16.1102" height="16.1101" filterUnits="userSpaceOnUse" color-interpolation-filters="sRGB">
<feFlood flood-opacity="0" result="BackgroundImageFix"/>
<feColorMatrix in="SourceAlpha" type="matrix" values="0 0 0 0 0 0 0 0 0 0 0 0 0 0 0 0 0 0 127 0" result="hardAlpha"/>
<feOffset dy="1"/>
<feGaussianBlur stdDeviation="2"/>
<feColorMatrix type="matrix" values="0 0 0 0 1 0 0 0 0 1 0 0 0 0 1 0 0 0 0.25 0"/>
<feBlend mode="normal" in2="BackgroundImageFix" result="effect1_dropShadow_1_3184"/>
<feBlend mode="normal" in="SourceGraphic" in2="effect1_dropShadow_1_3184" result="shape"/>
</filter>
<filter id="filter7_d_1_3184" x="127.429" y="38.6729" width="16.1102" height="16.1101" filterUnits="userSpaceOnUse" color-interpolation-filters="sRGB">
<feFlood flood-opacity="0" result="BackgroundImageFix"/>
<feColorMatrix in="SourceAlpha" type="matrix" values="0 0 0 0 0 0 0 0 0 0 0 0 0 0 0 0 0 0 127 0" result="hardAlpha"/>
<feOffset dy="1"/>
<feGaussianBlur stdDeviation="2"/>
<feColorMatrix type="matrix" values="0 0 0 0 1 0 0 0 0 1 0 0 0 0 1 0 0 0 0.25 0"/>
<feBlend mode="normal" in2="BackgroundImageFix" result="effect1_dropShadow_1_3184"/>
<feBlend mode="normal" in="SourceGraphic" in2="effect1_dropShadow_1_3184" result="shape"/>
</filter>
</defs>
</svg>
