<svg width="22" height="22" fill="none" xmlns="http://www.w3.org/2000/svg"><path d="m6.754 16.969-.738.134a.75.75 0 0 0 .738.616v-.75ZM4.029 1.989l-.738.13v.003l.738-.134Zm-.761-.645.007-.75h-.007v.75ZM1.5.594a.75.75 0 0 0 0 1.5v-1.5Zm4.541 11.719a.75.75 0 0 0 0 1.5v-1.5Zm12.266.75.002-.75h-.002v.75Zm1.533-1.28-.738-.134v.002l.738.132Zm1.19-6.533.738.135a.75.75 0 0 0-.738-.885v.75ZM4.625 4.5a.75.75 0 0 0 0 1.5V4.5Zm13.281 11.719H6.754v1.5h11.152v-1.5Zm-10.414.615L4.767 1.854l-1.476.268 2.725 14.981 1.476-.269ZM4.768 1.857a1.531 1.531 0 0 0-.519-.901L3.28 2.101c.006.005.01.011.01.018l1.478-.262ZM4.249.956a1.531 1.531 0 0 0-.974-.362l-.015 1.5c.008 0 .015.002.02.007L4.25.956ZM3.268.594H1.5v1.5h1.768v-1.5Zm5.685 18.328c0 .664-.539 1.203-1.203 1.203v1.5a2.703 2.703 0 0 0 2.703-2.703h-1.5ZM7.75 20.125a1.203 1.203 0 0 1-1.203-1.203h-1.5a2.703 2.703 0 0 0 2.703 2.703v-1.5Zm-1.203-1.203c0-.665.539-1.203 1.203-1.203v-1.5a2.703 2.703 0 0 0-2.703 2.703h1.5Zm1.203-1.203c.664 0 1.203.538 1.203 1.203h1.5a2.703 2.703 0 0 0-2.703-2.703v1.5Zm11.36 1.203c0 .664-.54 1.203-1.204 1.203v1.5a2.703 2.703 0 0 0 2.703-2.703h-1.5Zm-1.204 1.203a1.203 1.203 0 0 1-1.203-1.203h-1.5a2.703 2.703 0 0 0 2.703 2.703v-1.5Zm-1.203-1.203c0-.665.539-1.203 1.203-1.203v-1.5a2.703 2.703 0 0 0-2.703 2.703h1.5Zm1.203-1.203c.665 0 1.203.538 1.203 1.203h1.5a2.703 2.703 0 0 0-2.703-2.703v1.5ZM6.041 13.812h12.266v-1.5H6.04v1.5Zm12.263 0a2.304 2.304 0 0 0 1.483-.534l-.961-1.152a.803.803 0 0 1-.517.187l-.005 1.5Zm1.483-.534a2.3 2.3 0 0 0 .791-1.363l-1.476-.264a.803.803 0 0 1-.276.475l.96 1.152Zm.79-1.36 1.192-6.533-1.476-.27-1.191 6.534 1.476.269Zm.454-7.418H4.625V6h16.406V4.5Z" fill="#0C93CF"/></svg>