<svg width="21" height="21" fill="none" xmlns="http://www.w3.org/2000/svg"><path d="M18.7 14.8c0 2.2-1.8 4-3.9 4H5.9c-2.2 0-3.9-1.8-3.9-4V5.9c0-2.2 1.8-4 3.9-4h8.9c2.2 0 3.9 1.8 3.9 4v8.9ZM14.6 0H5.9C2.6 0 0 2.7 0 6v8.7c0 3.3 2.7 6 5.9 6h8.7c3.3 0 5.9-2.7 5.9-6V6c.1-3.3-2.6-6-5.9-6Zm-4.3 13.8c-1.9 0-3.5-1.6-3.5-3.5s1.5-3.5 3.5-3.5 3.5 1.6 3.5 3.5c0 2-1.6 3.5-3.5 3.5Zm0-8.8C7.4 5 5 7.4 5 10.4c0 3 2.4 5.4 5.3 5.4s5.3-2.4 5.3-5.4c0-3-2.4-5.4-5.3-5.4Zm5.5-1.5c-.7 0-1.2.6-1.2 1.2s.6 1.2 1.2 1.2c.7 0 1.2-.6 1.2-1.2s-.5-1.2-1.2-1.2Z" fill="#fff"/></svg>