<svg width="26" height="15" fill="none" xmlns="http://www.w3.org/2000/svg"><path d="M23.053 6.202c.37-.478.663-.861.88-1.15 1.561-2.076 2.238-3.402 2.03-3.98l-.08-.136c-.055-.081-.195-.156-.42-.223-.226-.068-.515-.079-.867-.034l-3.898.027a1.11 1.11 0 0 0-.447.047l-.068.034-.054.04a.599.599 0 0 0-.149.143.92.92 0 0 0-.135.237 22.088 22.088 0 0 1-1.449 3.046c-.334.56-.64 1.045-.92 1.455-.28.41-.514.713-.704.907-.19.194-.361.35-.514.467-.154.117-.271.167-.352.149a6.895 6.895 0 0 1-.23-.055.893.893 0 0 1-.305-.331 1.489 1.489 0 0 1-.156-.528 5.697 5.697 0 0 1-.047-.548c-.005-.154-.002-.37.007-.65.01-.28.013-.47.013-.569 0-.342.007-.715.02-1.116l.035-.955c.009-.234.013-.483.013-.744a3.17 3.17 0 0 0-.047-.616 2.159 2.159 0 0 0-.143-.434.726.726 0 0 0-.277-.324 1.566 1.566 0 0 0-.454-.183C13.857.069 13.248.01 12.508.002c-1.679-.018-2.757.09-3.235.325-.19.1-.362.235-.515.406-.162.199-.185.307-.067.325.541.081.924.275 1.15.582l.081.162c.063.118.127.326.19.623.063.298.104.627.122.989.045.658.045 1.222 0 1.692s-.088.835-.129 1.096c-.04.262-.101.474-.182.636a2.667 2.667 0 0 1-.163.298.24.24 0 0 1-.067.068c-.118.045-.24.067-.366.067s-.28-.063-.46-.19c-.18-.125-.368-.3-.562-.52a6.936 6.936 0 0 1-.657-.928 16.086 16.086 0 0 1-.758-1.408l-.216-.392c-.136-.253-.32-.62-.555-1.103a20.82 20.82 0 0 1-.623-1.402.897.897 0 0 0-.325-.433l-.067-.04A.92.92 0 0 0 4.887.74a1.46 1.46 0 0 0-.311-.088L.865.678C.487.678.23.765.095.936l-.054.081A.436.436 0 0 0 0 1.234c0 .1.027.221.081.365.542 1.273 1.13 2.5 1.767 3.682.636 1.183 1.189 2.135 1.658 2.857.47.722.948 1.403 1.435 2.044.488.64.81 1.051.968 1.231.158.181.282.317.372.407l.339.325c.216.216.534.476.954.778.42.303.884.6 1.395.893.51.294 1.103.533 1.78.718a6.12 6.12 0 0 0 1.976.223h1.557c.316-.027.555-.125.717-.297l.054-.068a.921.921 0 0 0 .102-.25c.031-.113.047-.237.047-.372-.01-.388.02-.739.088-1.05.068-.31.145-.545.23-.704a1.733 1.733 0 0 1 .522-.595c.045-.022.08-.038.108-.048.216-.072.471-.002.765.21.293.213.568.474.826.785.257.312.566.661.927 1.05.36.388.677.676.947.866l.271.163c.18.108.415.207.704.297s.542.113.758.068l3.466-.054c.343 0 .609-.057.798-.17.19-.112.303-.237.339-.372a1.05 1.05 0 0 0 .007-.46 1.674 1.674 0 0 0-.095-.358 1.829 1.829 0 0 0-.088-.17c-.452-.812-1.313-1.809-2.586-2.991l-.027-.027-.014-.014-.013-.013h-.014c-.577-.55-.943-.92-1.096-1.11-.28-.36-.343-.726-.19-1.096.108-.281.514-.872 1.218-1.775Z" fill="#4D76A1"/></svg>