<svg width="44" height="44" fill="none" xmlns="http://www.w3.org/2000/svg"><path d="M23.688 32.281c0 4.688 3.906 8.594 8.593 8.594 1.875 0 3.438-.625 4.844-1.563L41.813 44 44 41.812l-4.688-4.687c.938-1.406 1.563-3.125 1.563-4.844 0-4.687-3.906-8.593-8.594-8.593-4.687 0-8.593 3.906-8.593 8.593Zm14.062 0c0 2.969-2.5 5.469-5.469 5.469-2.968 0-5.468-2.5-5.468-5.469 0-2.968 2.5-5.468 5.468-5.468 2.969 0 5.469 2.5 5.469 5.468Zm-14.405-7.654c.014.01.028.025.043.036a11.755 11.755 0 0 1 2.359-2.11 15.544 15.544 0 0 0-3.755-2.303c2.906-1.969 4.82-5.295 4.82-9.063C26.813 5.157 21.907.25 15.876.25S4.937 5.156 4.937 11.188c0 3.765 1.913 7.093 4.818 9.06C4.172 22.634.25 28.18.25 34.625h3.125c0-4.081 1.966-7.712 5.002-9.995a9.379 9.379 0 0 0 7.498 3.745c2.984 0 5.723-1.431 7.47-3.748Zm-7.47.623a6.258 6.258 0 0 1-4.752-2.188 12.43 12.43 0 0 1 4.752-.937 12.4 12.4 0 0 1 4.745.942 6.25 6.25 0 0 1-4.745 2.183Zm0-6.25c-4.308 0-7.813-3.505-7.813-7.813 0-4.307 3.505-7.812 7.813-7.812s7.813 3.505 7.813 7.813c0 4.307-3.505 7.812-7.813 7.812Z" fill="#8C0C27"/></svg>