<svg width="44" height="44" fill="none" xmlns="http://www.w3.org/2000/svg"><g clip-path="url(#a)"><mask id="b" style="mask-type:alpha" maskUnits="userSpaceOnUse" x="3" y="0" width="38" height="44"><path d="M38.717 4.451a1.967 1.967 0 0 1 1.899 1.76c.292 2.863.75 10.357-1.303 18.08-1.164 4.381-2.967 8.18-5.356 11.29-2.897 3.772-6.686 6.562-11.26 8.292a1.967 1.967 0 0 1-1.393 0c-4.574-1.73-8.362-4.52-11.26-8.292-2.39-3.11-4.191-6.909-5.356-11.29C2.636 16.567 3.094 9.073 3.386 6.21c.1-.976.915-1.732 1.898-1.76a37.626 37.626 0 0 0 5.456-.55l2.873-.631c3.7-.977 6.213-2.293 7.38-2.99a1.964 1.964 0 0 1 2.017 0c1.97 1.175 7.442 3.936 15.708 4.172Z" fill="#8C0C27"/></mask><g mask="url(#b)" fill="#8C0C27"><path d="M40.616 6.21a1.967 1.967 0 0 0-1.899-1.759C30.451 4.215 24.978 1.454 23.01.278a1.964 1.964 0 0 0-2.016 0c-1.168.698-3.68 2.014-7.38 2.99a.644.644 0 0 0 .328 1.245c3.853-1.017 6.485-2.397 7.712-3.13a.678.678 0 0 1 .696 0c2.056 1.228 7.763 4.11 16.332 4.354.339.01.62.27.654.604.285 2.793.732 10.101-1.266 17.618-1.12 4.217-2.847 7.864-5.132 10.838-2.75 3.58-6.348 6.228-10.695 7.872a.682.682 0 0 1-.483 0c-4.346-1.644-7.945-4.293-10.694-7.872-2.285-2.974-4.012-6.62-5.133-10.837-1.998-7.518-1.55-14.826-1.266-17.62a.677.677 0 0 1 .655-.603 38.92 38.92 0 0 0 5.641-.57.644.644 0 0 0-.223-1.267c-1.774.313-3.61.498-5.455.551a1.967 1.967 0 0 0-1.898 1.76c-.292 2.863-.75 10.357 1.302 18.08 1.165 4.381 2.967 8.18 5.356 11.29 2.898 3.772 6.686 6.562 11.26 8.292a1.969 1.969 0 0 0 1.393 0c4.574-1.73 8.363-4.52 11.26-8.292 2.39-3.11 4.192-6.909 5.356-11.29 2.053-7.723 1.595-15.217 1.303-18.08Z"/><path d="M7.074 9.048c-.185 1.81-.656 8.227 1.037 14.801.93 3.612 2.37 6.736 4.277 9.287 2.32 3.102 5.352 5.377 9.013 6.761a1.699 1.699 0 0 0 1.2 0c3.66-1.384 6.693-3.659 9.013-6.761 1.907-2.55 3.346-5.675 4.276-9.287 1.693-6.574 1.222-12.991 1.038-14.801a1.696 1.696 0 0 0-1.636-1.517c-6.54-.186-10.866-2.368-12.422-3.298a1.693 1.693 0 0 0-1.738 0c-1.556.93-5.883 3.112-12.422 3.298a1.696 1.696 0 0 0-1.636 1.517Zm14.718-3.71a.407.407 0 0 1 .418 0c1.643.981 6.203 3.284 13.045 3.48.203.005.372.16.392.36.18 1.757.637 7.982-1.003 14.35-1.976 7.674-6.181 12.776-12.498 15.165a.409.409 0 0 1-.29 0c-6.317-2.389-10.522-7.491-12.498-15.165-1.64-6.367-1.183-12.593-1.004-14.35.02-.2.19-.355.393-.36 6.842-.196 11.402-2.499 13.045-3.48Z"/><path d="M22 30.2a9.078 9.078 0 0 0 7.4-3.833.643.643 0 0 0-1.051-.744 7.79 7.79 0 0 1-6.35 3.29c-4.284 0-7.77-3.487-7.77-7.772s3.486-7.771 7.77-7.771c4.286 0 7.772 3.486 7.772 7.771 0 .67-.085 1.335-.254 1.977a.644.644 0 1 0 1.245.326 9.088 9.088 0 0 0 .296-2.303c0-4.995-4.064-9.058-9.058-9.058-4.995 0-9.059 4.063-9.059 9.058S17.005 30.2 22 30.2Z"/><path d="M25.376 16.623a2 2 0 0 0-1.4.646l-3.231 3.5-.8-.773a2.016 2.016 0 0 0-2.847.048 2.016 2.016 0 0 0 .048 2.847l2.282 2.205a2.003 2.003 0 0 0 1.456.565 2.025 2.025 0 0 0 1.422-.647L26.936 20a2.015 2.015 0 0 0-1.56-3.377Zm.613 2.504-4.629 5.014a.728.728 0 0 1-1.038.03l-2.281-2.205a.727.727 0 0 1 1.01-1.045s1.271 1.23 1.273 1.23a.656.656 0 0 0 .92-.025l3.678-3.984c.622-.673 1.708.292 1.067.985Z"/></g></g><defs><clipPath id="a"><path fill="#fff" d="M0 0h44v44H0z"/></clipPath></defs></svg>