<svg width="185" height="40" fill="none" xmlns="http://www.w3.org/2000/svg"><path fill-rule="evenodd" clip-rule="evenodd" d="m37.046 22.51 3.447 5.991-2.672 4.631-3.443 5.969-6.891-.024-3.943-.013 3.526-5.968 3.86.013h.098l.488-.88.327-.59 1.745-3.137.003-.005-12.928-22.47L20.648 6 17.228.058h.002l.849-.003-.004-.023.994-.001 5.037-.005 3.38-.002L34.376 0h.001l1.104 1.914 1.643 2.848.697 1.207 7.861 13.547-3.51 6.04L30.93 5.991l-3.386.003.005.008 9.497 16.506Z" fill="#4A3AFF"/><path fill-rule="evenodd" clip-rule="evenodd" d="m18.08 39.046-.636-1.11 2.843-4.863 2.734-4.677 3.463-5.924-3.463-5.925-3.463 5.925-5.545 9.484-1.822-3.174 5.482-9.532 3.447-5.954-3.472-5.938-3.446 5.953-5.552 9.3-1.755-3.06 7.748-13.504 1.109-1.934L13.389.071l-2.217.008L7.734 6.07l-4.287 7.472-1.214 2.117-.976 1.7L0 19.55l3.147 5.485.3.524 1.688 2.94 2.6 4.532 3.435 5.988.002.003 6.908.024Zm130.833-.812c-.732 0-1.391-.128-1.979-.383a4.198 4.198 0 0 1-1.502-1.09 4.88 4.88 0 0 1-.939-1.705c-.217-.67-.325-1.416-.325-2.24 0-1.088.188-2.036.563-2.845.381-.814.925-1.445 1.633-1.892.708-.448 1.557-.672 2.549-.672 1.108 0 2.008.26 2.702.78.698.515 1.184 1.208 1.459 2.08l-1.069.26a3.151 3.151 0 0 0-1.12-1.524c-.515-.38-1.158-.57-1.928-.57-.814-.005-1.491.178-2.03.548-.539.366-.946.882-1.221 1.546-.269.66-.406 1.423-.411 2.29-.005.867.127 1.63.397 2.29.274.654.684 1.17 1.228 1.545.544.37 1.223.559 2.037.563.746 0 1.362-.144 1.849-.433a2.758 2.758 0 0 0 1.105-1.242c.255-.54.399-1.178.433-1.914h-2.398v-.91h3.51c.015.11.022.228.022.353.005.12.007.208.007.26 0 .94-.168 1.78-.505 2.521a3.98 3.98 0 0 1-1.524 1.748c-.674.424-1.522.636-2.543.636Zm6.018-10.618h.975l4.088 8.747 4.067-8.747h.989V38.01h-1.011v-8.025l-3.705 8.032h-.686l-3.699-8.032v8.032h-1.018v-10.4Zm16.162 0h-4.016v10.401h4.348c.612 0 1.149-.118 1.611-.354.462-.236.821-.57 1.076-1.004.255-.438.383-.958.383-1.56 0-.684-.193-1.266-.578-1.748a2.888 2.888 0 0 0-1.138-.852 2.33 2.33 0 0 0 .763-.708c.298-.438.447-.936.447-1.495 0-.491-.12-.939-.361-1.343a2.63 2.63 0 0 0-1.011-.976c-.433-.24-.941-.36-1.524-.36Zm.072 9.383h-3.019v-3.944h3.214c.39 0 .737.094 1.04.282.308.183.552.428.73.736.178.309.267.655.267 1.04 0 .395-.099.733-.296 1.012a1.905 1.905 0 0 1-.795.65c-.337.15-.717.224-1.141.224Zm-.079-4.948h-2.94v-3.43h2.94c.525 0 .956.153 1.293.462.342.308.512.707.512 1.199a1.737 1.737 0 0 1-.895 1.546 1.89 1.89 0 0 1-.91.223Zm4.85-4.435h1.062v4.688h5.749v-4.688h1.055v10.401h-1.055v-4.695h-5.749v4.695h-1.062v-10.4ZM71.444 19.51c.918.397 1.947.596 3.088.596a8.56 8.56 0 0 0 2.297-.304 6.194 6.194 0 0 0 1.96-.91 4.469 4.469 0 0 0 1.355-1.517c.34-.613.51-1.325.51-2.134 0-.78-.145-1.423-.434-1.928a3.634 3.634 0 0 0-1.083-1.225 5.93 5.93 0 0 0-1.376-.726 15.2 15.2 0 0 0-1.29-.411l-2.795-.78a9.412 9.412 0 0 1-1.05-.347 2.585 2.585 0 0 1-.857-.574c-.23-.246-.346-.56-.346-.943 0-.404.133-.758.4-1.062a2.608 2.608 0 0 1 1.073-.693 4.047 4.047 0 0 1 2.958.087c.477.202.877.498 1.202.888.333.383.557.849.672 1.398l2.806-.488c-.231-.96-.628-1.78-1.192-2.46a5.434 5.434 0 0 0-2.101-1.548c-.838-.362-1.792-.546-2.86-.553-1.055-.007-2.016.159-2.882.498-.86.34-1.546.853-2.059 1.539-.506.679-.758 1.52-.758 2.524 0 .686.112 1.264.335 1.734.232.462.524.845.878 1.148.361.296.74.531 1.138.704.404.166.78.3 1.126.401l4.03 1.192c.29.087.542.191.76.314.223.116.404.246.54.39.145.145.254.31.326.498a1.6 1.6 0 0 1 .108.596c0 .484-.155.892-.466 1.225-.303.332-.7.585-1.191.758a4.687 4.687 0 0 1-1.571.26c-.94 0-1.77-.253-2.492-.758-.715-.506-1.188-1.22-1.42-2.146l-2.708.412c.159 1.019.53 1.9 1.116 2.644a5.832 5.832 0 0 0 2.253 1.7ZM56.23 4.179v15.6h10.076v-2.448h-7.464v-4.41h6.164v-2.448h-6.164V6.627h7.464V4.178H56.23Zm36.88 15.926c-1.14 0-2.17-.199-3.087-.596a5.832 5.832 0 0 1-2.253-1.701c-.585-.744-.957-1.625-1.116-2.644l2.708-.412c.232.925.705 1.64 1.42 2.146.722.505 1.553.758 2.492.758.556 0 1.08-.087 1.57-.26.492-.173.889-.426 1.192-.758.31-.333.466-.74.466-1.225a1.59 1.59 0 0 0-.108-.595 1.418 1.418 0 0 0-.325-.499 2.012 2.012 0 0 0-.542-.39 3.686 3.686 0 0 0-.758-.314l-4.03-1.192a11.345 11.345 0 0 1-1.127-.4 4.858 4.858 0 0 1-1.138-.705 3.622 3.622 0 0 1-.878-1.148c-.224-.47-.336-1.048-.336-1.734 0-1.004.253-1.845.759-2.524.513-.686 1.199-1.2 2.058-1.539.867-.34 1.828-.505 2.882-.498 1.07.007 2.023.191 2.86.553a5.43 5.43 0 0 1 2.102 1.549c.564.679.96 1.499 1.192 2.46l-2.806.487a3.047 3.047 0 0 0-.672-1.398 3.135 3.135 0 0 0-1.202-.888 4.047 4.047 0 0 0-2.958-.087 2.62 2.62 0 0 0-1.073.693 1.56 1.56 0 0 0-.4 1.062c0 .383.115.697.346.943.231.238.517.43.856.574.347.137.697.253 1.051.347l2.795.78c.383.1.813.238 1.29.411a5.93 5.93 0 0 1 1.376.726c.44.31.801.719 1.083 1.225.289.505.433 1.148.433 1.928 0 .809-.17 1.52-.509 2.134a4.469 4.469 0 0 1-1.354 1.517 6.194 6.194 0 0 1-1.961.91 8.56 8.56 0 0 1-2.297.304Zm11.603-6.718v6.393h2.644v-6.393l5.298-9.209h-3.045l-3.575 6.22-3.586-6.22h-3.044l5.308 9.21Zm14.573 6.718c-1.141 0-2.17-.199-3.087-.596a5.832 5.832 0 0 1-2.254-1.701c-.585-.744-.957-1.625-1.116-2.644l2.709-.412c.231.925.704 1.64 1.419 2.146.722.505 1.553.758 2.492.758.556 0 1.08-.087 1.571-.26.491-.173.888-.426 1.192-.758.31-.333.466-.74.466-1.225 0-.216-.037-.415-.109-.595a1.407 1.407 0 0 0-.325-.499 2.008 2.008 0 0 0-.542-.39 3.664 3.664 0 0 0-.758-.314l-4.03-1.192a11.276 11.276 0 0 1-1.127-.4 4.881 4.881 0 0 1-1.138-.705 3.632 3.632 0 0 1-.877-1.148c-.224-.47-.336-1.048-.336-1.734 0-1.004.253-1.845.758-2.524.513-.686 1.199-1.2 2.059-1.539.867-.34 1.827-.505 2.882-.498 1.069.007 2.022.191 2.86.553.838.354 1.538.87 2.102 1.549.563.679.96 1.499 1.192 2.46l-2.806.487a3.054 3.054 0 0 0-.672-1.398 3.134 3.134 0 0 0-1.203-.888 4.043 4.043 0 0 0-2.958-.087 2.61 2.61 0 0 0-1.072.693 1.557 1.557 0 0 0-.401 1.062c0 .383.116.697.347.943.231.238.516.43.856.574a9.36 9.36 0 0 0 1.051.347l2.795.78c.383.1.812.238 1.289.411a5.91 5.91 0 0 1 1.376.726c.441.31.802.719 1.083 1.225.289.505.434 1.148.434 1.928 0 .809-.17 1.52-.509 2.134a4.475 4.475 0 0 1-1.355 1.517 6.185 6.185 0 0 1-1.961.91 8.558 8.558 0 0 1-2.297.304Zm12.215-13.478V19.78h2.611V6.627h5.049V4.178h-12.708v2.449h5.048Zm9.392 13.153V4.178h10.076v2.449h-7.464v3.846h6.164v2.449h-6.164v4.41h7.464v2.448h-10.076Zm12.676-15.602V19.78h2.448v-10l4.778 10h1.04l4.789-10v10h2.437V4.178h-2.351l-5.395 11.051-5.395-11.05h-2.351Zm24.311 15.927c-1.141 0-2.171-.199-3.088-.596a5.829 5.829 0 0 1-2.253-1.701c-.586-.744-.957-1.625-1.116-2.644l2.708-.412c.231.925.704 1.64 1.419 2.146.723.505 1.553.758 2.492.758.556 0 1.08-.087 1.571-.26.491-.173.889-.426 1.192-.758.311-.333.466-.74.466-1.225a1.59 1.59 0 0 0-.108-.595 1.424 1.424 0 0 0-.326-.499 2.002 2.002 0 0 0-.541-.39 3.697 3.697 0 0 0-.759-.314l-4.03-1.192a11.366 11.366 0 0 1-1.127-.4 4.855 4.855 0 0 1-1.137-.705 3.62 3.62 0 0 1-.878-1.148c-.224-.47-.336-1.048-.336-1.734 0-1.004.253-1.845.759-2.524.513-.686 1.199-1.2 2.058-1.539.867-.34 1.828-.505 2.882-.498 1.069.007 2.022.191 2.86.553a5.43 5.43 0 0 1 2.102 1.549c.564.679.961 1.499 1.192 2.46l-2.806.487a3.054 3.054 0 0 0-.672-1.398 3.138 3.138 0 0 0-1.202-.888 4.052 4.052 0 0 0-2.958-.087 2.61 2.61 0 0 0-1.073.693 1.557 1.557 0 0 0-.401 1.062c0 .383.116.697.347.943.231.238.516.43.856.574.347.137.697.253 1.051.347l2.795.78c.383.1.813.238 1.289.411a5.89 5.89 0 0 1 1.376.726c.441.31.802.719 1.084 1.225.289.505.433 1.148.433 1.928 0 .809-.17 1.52-.509 2.134a4.472 4.472 0 0 1-1.354 1.517 6.205 6.205 0 0 1-1.961.91 8.563 8.563 0 0 1-2.297.304Z" fill="#fff"/></svg>