<svg width="141" height="65" fill="none" xmlns="http://www.w3.org/2000/svg"><g opacity=".5" fill="#fff"><path d="M5.187 15.21c-1.008 0-1.867-.22-2.576-.658A4.335 4.335 0 0 1 .98 12.704C.607 11.915.42 11.001.42 9.96c0-1.04.187-1.955.56-2.744a4.29 4.29 0 0 1 1.631-1.841c.71-.443 1.568-.665 2.576-.665 1.162 0 2.123.294 2.884.882.765.588 1.297 1.379 1.596 2.373l-1.484.399c-.196-.705-.546-1.258-1.05-1.659-.5-.401-1.148-.602-1.946-.602-.714 0-1.309.161-1.785.483-.476.322-.835.772-1.078 1.351-.238.579-.357 1.253-.357 2.023-.005.77.112 1.444.35 2.023.243.579.602 1.029 1.078 1.351.48.322 1.078.483 1.792.483.798 0 1.447-.2 1.946-.602.504-.406.854-.959 1.05-1.659l1.484.399c-.299.994-.83 1.785-1.596 2.373-.76.588-1.722.882-2.884.882Zm5.46 1.47v-2.856c.415 0 .711-.138.889-.413.182-.28.326-.754.434-1.421.065-.406.119-.838.16-1.295.047-.457.087-.952.12-1.484a179.5 179.5 0 0 0 .098-1.771h5.418v6.384h.742v2.856h-1.386V15H12.04v1.68h-1.393Zm2.093-2.856h3.556V8.616H13.65c-.02.308-.04.625-.063.952-.02.327-.042.651-.07.973-.024.322-.052.63-.084.924-.033.294-.07.56-.112.798a6.072 6.072 0 0 1-.203.924c-.075.247-.201.46-.378.637Zm10.515 1.386c-.752 0-1.412-.163-1.981-.49a3.484 3.484 0 0 1-1.323-1.379c-.313-.593-.47-1.279-.47-2.058 0-.826.155-1.542.463-2.149a3.422 3.422 0 0 1 1.302-1.407c.555-.331 1.202-.497 1.939-.497.77 0 1.425.18 1.967.539.541.355.945.861 1.21 1.519.272.658.379 1.44.323 2.345h-1.463v-.532c-.01-.877-.178-1.526-.504-1.946-.322-.42-.814-.63-1.477-.63-.733 0-1.284.231-1.652.693-.369.462-.553 1.13-.553 2.002 0 .83.184 1.475.553 1.932.369.453.9.679 1.596.679.457 0 .852-.103 1.183-.308.336-.21.597-.509.784-.896l1.435.455a3.407 3.407 0 0 1-1.337 1.575 3.723 3.723 0 0 1-1.995.553Zm-2.695-3.577v-1.141h5.397v1.141H20.56ZM27.555 15v-1.239c.28.051.493.044.637-.021a.651.651 0 0 0 .33-.378c.074-.182.137-.418.188-.707.08-.425.147-.908.203-1.449.061-.546.115-1.136.161-1.771.047-.635.09-1.3.126-1.995h5.432V15h-1.47V8.819h-2.646c-.028.369-.06.76-.098 1.176a52.058 52.058 0 0 1-.245 2.366c-.046.355-.095.658-.147.91-.093.504-.23.905-.413 1.204a1.202 1.202 0 0 1-.756.567c-.326.089-.76.075-1.302-.042Zm11.175.21c-.56 0-1.029-.103-1.407-.308a2.194 2.194 0 0 1-.86-.826 2.301 2.301 0 0 1-.288-1.134c0-.383.068-.719.203-1.008.136-.29.336-.534.602-.735a3.22 3.22 0 0 1 .98-.497c.336-.098.717-.184 1.141-.259.425-.075.87-.145 1.337-.21.472-.065.938-.13 1.4-.196l-.532.294c.01-.593-.116-1.031-.378-1.316-.256-.29-.7-.434-1.33-.434-.396 0-.76.093-1.092.28-.331.182-.562.485-.693.91l-1.365-.42a2.829 2.829 0 0 1 1.064-1.547c.528-.383 1.228-.574 2.1-.574.677 0 1.265.117 1.764.35.504.229.873.593 1.106 1.092.122.247.196.509.224.784.028.275.042.572.042.889V15h-1.295v-1.729l.252.224c-.312.579-.711 1.01-1.197 1.295-.48.28-1.073.42-1.778.42Zm.26-1.197c.415 0 .772-.072 1.07-.217a2.1 2.1 0 0 0 .721-.567 1.78 1.78 0 0 0 .357-.714c.08-.224.124-.476.133-.756.014-.28.021-.504.021-.672l.476.175-1.26.189c-.378.056-.72.112-1.029.168a6.153 6.153 0 0 0-.812.189c-.2.07-.38.154-.539.252a1.235 1.235 0 0 0-.37.357.936.936 0 0 0-.134.511c0 .196.05.378.147.546.098.163.248.294.448.392.2.098.458.147.77.147Zm5.569.987V7.44h1.463v3.087h3.689V7.44h1.463V15H49.71v-3.094h-3.69V15h-1.46Zm11.862.21c-.756 0-1.411-.17-1.967-.511a3.444 3.444 0 0 1-1.288-1.407c-.298-.602-.448-1.295-.448-2.079 0-.789.154-1.482.462-2.079a3.386 3.386 0 0 1 1.295-1.4c.556-.336 1.204-.504 1.946-.504.756 0 1.412.17 1.967.511.556.34.985.81 1.288 1.407.303.597.455 1.286.455 2.065 0 .789-.154 1.484-.462 2.086a3.444 3.444 0 0 1-1.288 1.407c-.555.336-1.209.504-1.96.504Zm0-1.379c.724 0 1.263-.243 1.617-.728.36-.49.54-1.12.54-1.89 0-.789-.183-1.419-.547-1.89-.36-.476-.896-.714-1.61-.714-.49 0-.893.112-1.21.336-.318.22-.554.525-.708.917-.154.387-.23.838-.23 1.351 0 .793.181 1.428.545 1.904.364.476.899.714 1.603.714Zm11.6 1.379c-.723 0-1.33-.175-1.82-.525a3.3 3.3 0 0 1-1.113-1.435c-.252-.602-.378-1.281-.378-2.037s.124-1.435.371-2.037c.252-.602.62-1.076 1.106-1.421.49-.35 1.092-.525 1.806-.525.71 0 1.32.175 1.834.525.518.345.917.819 1.197 1.421.28.597.42 1.276.42 2.037 0 .756-.14 1.437-.42 2.044a3.395 3.395 0 0 1-1.183 1.428c-.508.35-1.115.525-1.82.525Zm-3.556 3.15V7.44h1.302v5.439h.168v5.481h-1.47Zm3.353-4.473c.467 0 .852-.119 1.155-.357.308-.238.537-.558.686-.959.154-.406.231-.859.231-1.358 0-.495-.077-.943-.23-1.344a2.087 2.087 0 0 0-.694-.959c-.313-.238-.712-.357-1.197-.357-.457 0-.835.112-1.134.336-.294.224-.513.537-.658.938a4.2 4.2 0 0 0-.21 1.386c0 .523.07.985.21 1.386.14.401.362.716.665.945.303.229.696.343 1.176.343Zm5.92 4.473 1.463-3.983.021 1.176-3.297-8.113h1.526l2.464 6.265h-.448L77.82 7.44h1.484l-4.172 10.92h-1.393ZM80.393 15l.007-7.56h1.484v3.64l2.968-3.64h1.862l-3.136 3.78L87.036 15h-1.988l-3.164-3.64V15h-1.491Zm9.484.21c-.56 0-1.03-.103-1.407-.308a2.194 2.194 0 0 1-.861-.826 2.301 2.301 0 0 1-.287-1.134c0-.383.067-.719.203-1.008.135-.29.336-.534.602-.735a3.22 3.22 0 0 1 .98-.497c.336-.098.716-.184 1.14-.259.425-.075.871-.145 1.338-.21.471-.065.938-.13 1.4-.196l-.532.294c.01-.593-.117-1.031-.378-1.316-.257-.29-.7-.434-1.33-.434-.397 0-.76.093-1.092.28-.332.182-.563.485-.693.91l-1.365-.42a2.829 2.829 0 0 1 1.064-1.547c.527-.383 1.227-.574 2.1-.574.676 0 1.264.117 1.764.35a2.18 2.18 0 0 1 1.106 1.092 2.3 2.3 0 0 1 .224.784c.028.275.042.572.042.889V15H92.6v-1.729l.252.224c-.313.579-.712 1.01-1.197 1.295-.48.28-1.074.42-1.778.42Zm.259-1.197c.415 0 .772-.072 1.07-.217.3-.15.54-.338.722-.567.182-.229.3-.467.357-.714.08-.224.123-.476.133-.756.014-.28.02-.504.02-.672l.477.175-1.26.189c-.378.056-.721.112-1.03.168a6.153 6.153 0 0 0-.811.189c-.2.07-.38.154-.54.252a1.235 1.235 0 0 0-.37.357.936.936 0 0 0-.133.511c0 .196.049.378.147.546.098.163.247.294.448.392.2.098.457.147.77.147Zm5.57.987V7.44h1.224l2.793 5.544 2.786-5.544h1.232V15h-1.414v-4.564L100.052 15h-.665l-2.275-4.564V15h-1.407Zm16.371-7.56V15h-1.407V9.743L106.89 15h-1.19V7.44h1.407v5.152l3.787-5.152h1.183Z"/><path fill-rule="evenodd" clip-rule="evenodd" d="m8.654 44.995 13.27-9.784a.83.83 0 0 1 .966-.103.81.81 0 0 1 .341.372.79.79 0 0 1 .05.498l-2.025 16.137c-.074 1.509-1.117 1.47-1.553.882-.648-1.495-2.029-3.04-3.923-4.264.284.016.568-.038.825-.157 2.74-1.471 1.628-3.716 2.024-6.284-2.072 1.617-4.618 1.8-4.55 4.857.023.27.113.53.263.758l.014.022c-2.017-.985-4.067-1.377-5.708-1.182-.744-.071-1.293-.934.006-1.752Z"/><path fill-rule="evenodd" clip-rule="evenodd" d="M5.522 49.286c-3.613 2.466-6.148 6.159-5.386 7.04.925 1.066 1.334-.4 2.598 1.014 1.264 1.414-.131 5.154 2.88 7.046 3.181 1.606 5.79-1.444 7.677-1.083 1.887.362.794 1.443 2.2 1.69 1.156.205 3.157-3.788 3.535-8.082.28-3.184-1.305-5.436-3.9-7.095.245.568.109 1.718-1.606 4.316-2.393 3.629-4.266 5.068-4.7 4.815-.436-.254-.104-2.55 1.91-6.391 1.444-2.752 2.391-3.443 3.018-3.519-2.762-1.363-5.548-1.58-8.226.249Z"/><path d="M34.349 52.711h2.53l1.447-3.335h6.649L46.4 52.71h2.611l-6.187-13.914h-2.29L34.35 52.71Zm4.88-5.487 2.411-5.526 2.43 5.526h-4.84Zm13.801 5.487h2.47v-4.006l2.19-2.21 4.801 6.216h2.993l-6.106-7.875 5.845-5.94H62.19l-6.69 6.947v-6.948h-2.47v13.816Zm20.224 0h2.491V41.145h4.46v-2.25h-11.41v2.25h4.46v11.566Zm12.122 0h2.47V38.895h-2.47v13.816Zm14.37.237c2.631 0 4.238-.947 5.704-2.447l-1.587-1.58c-1.205 1.106-2.31 1.797-4.037 1.797-2.692 0-4.64-2.21-4.64-4.915 0-2.743 1.948-4.914 4.64-4.914 1.607 0 2.812.69 3.937 1.717l1.587-1.796c-1.346-1.263-2.913-2.152-5.504-2.152-4.258 0-7.251 3.218-7.251 7.145 0 4.007 3.053 7.145 7.15 7.145Zm16.225 0c4.318 0 7.372-3.257 7.372-7.145 0-3.927-3.013-7.145-7.332-7.145s-7.372 3.257-7.372 7.145c0 3.928 3.013 7.145 7.332 7.145Zm.04-2.23c-2.792 0-4.781-2.23-4.781-4.915 0-2.723 1.949-4.914 4.741-4.914s4.78 2.23 4.78 4.914c0 2.724-1.948 4.915-4.74 4.915Zm11.12 1.993h2.431v-9.868l4.399 6.473h.08l4.439-6.513v9.908h2.471V38.895h-2.631l-4.279 6.533-4.278-6.533h-2.632v13.816ZM34.647 60.85h1.447c.697 0 1.157-.294 1.157-.842 0-.426-.254-.633-.62-.756.232-.118.446-.316.446-.684a.688.688 0 0 0-.21-.518c-.179-.176-.46-.273-.817-.273h-1.403v3.073Zm.54-1.778v-.816h.791c.353 0 .55.15.55.39 0 .29-.237.426-.59.426h-.75Zm0 1.3v-.843h.872c.433 0 .643.154.643.413 0 .285-.228.43-.603.43h-.911Zm6.681.478h.563l.322-.742h1.478l.317.742h.581l-1.376-3.095h-.509l-1.376 3.095Zm1.086-1.22.536-1.23.54 1.23h-1.076Zm9.273 1.22v-.816l.491-.549.934 1.365h.661l-1.237-1.764 1.175-1.309h-.657l-1.367 1.598v-1.598h-.545v1.598l-1.367-1.598h-.656l1.17 1.309-1.233 1.764h.661l.934-1.365.491.549v.816h.545Zm6.82 0h2.341v-.482h-1.791v-.826h1.568v-.483h-1.568v-.799h1.769v-.483h-2.319v3.073Zm7.259 0h.549v-1.295h1.492v1.295h.55v-3.073h-.55v1.278h-1.492v-1.278h-.55v3.073Zm13.264 0h.55v-.987h.62c.688 0 1.25-.36 1.25-1.05 0-.627-.46-1.036-1.187-1.036H79.57v3.073Zm.55-1.475V58.27h.638c.411 0 .675.189.675.549 0 .33-.26.557-.675.557h-.639Zm6.7 1.475h2.34v-.482h-1.791v-.826h1.568v-.483h-1.568v-.799h1.769v-.483h-2.319v3.073Zm8.32-3.125c-.553 0-.906.184-1.206.465l.295.351c.237-.224.505-.342.876-.342.348 0 .59.171.59.43 0 .29-.246.448-.644.448h-.348v.448h.353c.406 0 .714.131.714.447 0 .29-.281.461-.612.461-.424 0-.759-.145-1.04-.408l-.3.373c.349.33.746.505 1.354.505.697 0 1.148-.39 1.148-.9 0-.4-.264-.632-.612-.737.277-.114.531-.32.531-.716 0-.478-.45-.825-1.098-.825Zm6.631 3.174c.407 0 .728-.198.992-.72l1.219-2.402h-.594l-.857 1.787-.974-1.787h-.616l1.304 2.327c-.156.25-.353.334-.491.334a.747.747 0 0 1-.385-.097l-.21.404c.184.097.371.154.612.154Zm6.997-.013c.617 0 .978-.391.978-2.345v-.276h1.081v2.585h.55v-3.073h-2.144v.606c0 1.84-.295 2.037-.612 2.037a.638.638 0 0 1-.179-.026l-.053.443c.084.022.259.049.379.049Zm7.681-.036h1.26c.724 0 1.179-.386 1.179-1.005 0-.619-.473-.961-1.174-.961h-.72v-1.107h-.545v3.073Zm.545-.482v-1.015h.697c.416 0 .652.172.652.488 0 .347-.236.527-.643.527h-.706Zm7.504.482h.554v-2.572h.991v-.5h-2.537v.5h.992v2.572Zm6.126 0h.562l.322-.742h1.478l.318.742h.58l-1.375-3.095h-.51l-1.375 3.095Zm1.085-1.22.536-1.23.54 1.23h-1.076Zm7.745 1.22h.554v-2.572H141v-.5h-2.537v.5h.991v2.572Z"/></g></svg>