<svg width="150" height="148" fill="none" xmlns="http://www.w3.org/2000/svg"><path opacity=".2" d="M24.52 101.758a3.25 3.25 0 0 0-4.587 0 3.231 3.231 0 0 0 0 4.577 3.249 3.249 0 0 0 4.587 0 3.231 3.231 0 0 0 0-4.577Zm103.809 0a3.25 3.25 0 0 0-4.587 0 3.23 3.23 0 0 0 0 4.577 3.248 3.248 0 0 0 4.587 0 3.23 3.23 0 0 0 0-4.577ZM42.12 69.403a3.249 3.249 0 0 0-4.588 0 3.231 3.231 0 0 0 0 4.577 3.25 3.25 0 0 0 4.587 0 3.231 3.231 0 0 0 0-4.577Zm68.609 0a3.249 3.249 0 0 0-4.587 0 3.23 3.23 0 0 0 0 4.577 3.249 3.249 0 0 0 4.587 0 3.23 3.23 0 0 0 0-4.577Z" fill="#AEBED2" stroke="#AEBED2" stroke-width=".3"/><g filter="url(#a)"><path d="M76.482 60.526a2.97 2.97 0 0 0-4.195 0 2.954 2.954 0 0 0 0 4.184 2.97 2.97 0 0 0 4.195 0 2.955 2.955 0 0 0 0-4.184Z" fill="#AEBED2"/><path d="M77.137 59.872a3.898 3.898 0 0 0-5.504 0 3.877 3.877 0 0 0 0 5.492 3.898 3.898 0 0 0 5.504 0 3.877 3.877 0 0 0 0-5.492Z" stroke="#AEBED2"/></g><g filter="url(#b)"><path d="M101.439 101.955a2.97 2.97 0 0 0-4.195 0 2.953 2.953 0 0 0 0 4.184 2.97 2.97 0 0 0 4.195 0 2.954 2.954 0 0 0 0-4.184Z" fill="#AEBED2"/><path d="M102.093 101.301a3.898 3.898 0 0 0-5.504 0 3.877 3.877 0 0 0 0 5.492 3.898 3.898 0 0 0 5.504 0 3.877 3.877 0 0 0 0-5.492Z" stroke="#AEBED2"/></g><g filter="url(#c)"><path d="M51.017 101.955a2.97 2.97 0 0 0-4.195 0 2.953 2.953 0 0 0 0 4.184 2.97 2.97 0 0 0 4.195 0 2.953 2.953 0 0 0 0-4.184Z" fill="#AEBED2"/><path d="M51.671 101.301a3.899 3.899 0 0 0-5.504 0 3.877 3.877 0 0 0 0 5.492 3.899 3.899 0 0 0 5.504 0 3.877 3.877 0 0 0 0-5.492Z" stroke="#AEBED2"/></g><path opacity=".2" d="M59.916 42.574a3.249 3.249 0 0 0-4.588 0 3.231 3.231 0 0 0 0 4.577 3.249 3.249 0 0 0 4.587 0 3.231 3.231 0 0 0 0-4.577Zm33.017 0a3.249 3.249 0 0 0-4.587 0 3.231 3.231 0 0 0 0 4.577 3.249 3.249 0 0 0 4.587 0 3.231 3.231 0 0 0 0-4.577Zm16.582 89.285a3.248 3.248 0 0 0-4.587 0 3.23 3.23 0 0 0 0 4.577 3.248 3.248 0 0 0 4.587 0 3.23 3.23 0 0 0 0-4.577Zm-32.777-.508a3.249 3.249 0 0 0-4.587 0 3.231 3.231 0 0 0 0 4.577 3.249 3.249 0 0 0 4.587 0 3.231 3.231 0 0 0 0-4.577Zm-37.388.508a3.249 3.249 0 0 0-4.588 0 3.231 3.231 0 0 0 0 4.577 3.249 3.249 0 0 0 4.588 0 3.231 3.231 0 0 0 0-4.577Z" fill="#AEBED2" stroke="#AEBED2" stroke-width=".3"/><path d="M74.385 18.127a3.663 3.663 0 0 0 3.667-3.66 3.663 3.663 0 0 0-3.667-3.658 3.663 3.663 0 0 0-3.668 3.659 3.664 3.664 0 0 0 3.668 3.659ZM6.167 136.496a3.664 3.664 0 0 0 3.668-3.66 3.664 3.664 0 0 0-3.668-3.659 3.664 3.664 0 0 0-3.667 3.659 3.664 3.664 0 0 0 3.667 3.66Zm136.859 0a3.664 3.664 0 0 0 3.668-3.66 3.664 3.664 0 0 0-3.668-3.659 3.664 3.664 0 0 0-3.667 3.659 3.664 3.664 0 0 0 3.667 3.66Z" fill="#5472D3" stroke="#AEBED2" stroke-width=".3"/><g filter="url(#d)"><path d="M74.388 102.626a3.386 3.386 0 0 0-3.39 3.382 3.386 3.386 0 0 0 3.39 3.382 3.386 3.386 0 0 0 3.39-3.382 3.386 3.386 0 0 0-3.39-3.382Z" fill="#AEBED2"/><path d="M74.388 102.349a3.663 3.663 0 0 0-3.667 3.659 3.663 3.663 0 0 0 3.667 3.659 3.663 3.663 0 0 0 3.668-3.659 3.663 3.663 0 0 0-3.668-3.659Z" stroke="#AEBED2" stroke-width=".3"/></g><g filter="url(#e)"><path d="M59.573 78.952a3.386 3.386 0 0 0-3.39 3.382 3.386 3.386 0 0 0 3.39 3.382 3.386 3.386 0 0 0 3.39-3.382 3.386 3.386 0 0 0-3.39-3.382Z" fill="#AEBED2"/><path d="M59.573 78.675a3.663 3.663 0 0 0-3.667 3.66 3.663 3.663 0 0 0 3.667 3.658 3.663 3.663 0 0 0 3.668-3.659 3.663 3.663 0 0 0-3.668-3.659Z" stroke="#AEBED2" stroke-width=".3"/></g><g filter="url(#f)"><path d="M89.638 78.952a3.386 3.386 0 0 0-3.39 3.382 3.386 3.386 0 0 0 3.39 3.382 3.386 3.386 0 0 0 3.39-3.382 3.386 3.386 0 0 0-3.39-3.382Z" fill="#AEBED2"/><path d="M89.638 78.675a3.663 3.663 0 0 0-3.667 3.66 3.663 3.663 0 0 0 3.667 3.658 3.663 3.663 0 0 0 3.668-3.659 3.664 3.664 0 0 0-3.668-3.659Z" stroke="#AEBED2" stroke-width=".3"/></g><defs><filter id="a" x="65.992" y="55.236" width="16.785" height="16.765" filterUnits="userSpaceOnUse" color-interpolation-filters="sRGB"><feFlood flood-opacity="0" result="BackgroundImageFix"/><feColorMatrix in="SourceAlpha" values="0 0 0 0 0 0 0 0 0 0 0 0 0 0 0 0 0 0 127 0" result="hardAlpha"/><feOffset dy="1"/><feGaussianBlur stdDeviation="2"/><feColorMatrix values="0 0 0 0 1 0 0 0 0 1 0 0 0 0 1 0 0 0 0.25 0"/><feBlend in2="BackgroundImageFix" result="effect1_dropShadow_1_3153"/><feBlend in="SourceGraphic" in2="effect1_dropShadow_1_3153" result="shape"/></filter><filter id="b" x="90.949" y="96.665" width="16.785" height="16.765" filterUnits="userSpaceOnUse" color-interpolation-filters="sRGB"><feFlood flood-opacity="0" result="BackgroundImageFix"/><feColorMatrix in="SourceAlpha" values="0 0 0 0 0 0 0 0 0 0 0 0 0 0 0 0 0 0 127 0" result="hardAlpha"/><feOffset dy="1"/><feGaussianBlur stdDeviation="2"/><feColorMatrix values="0 0 0 0 1 0 0 0 0 1 0 0 0 0 1 0 0 0 0.25 0"/><feBlend in2="BackgroundImageFix" result="effect1_dropShadow_1_3153"/><feBlend in="SourceGraphic" in2="effect1_dropShadow_1_3153" result="shape"/></filter><filter id="c" x="40.527" y="96.665" width="16.785" height="16.765" filterUnits="userSpaceOnUse" color-interpolation-filters="sRGB"><feFlood flood-opacity="0" result="BackgroundImageFix"/><feColorMatrix in="SourceAlpha" values="0 0 0 0 0 0 0 0 0 0 0 0 0 0 0 0 0 0 127 0" result="hardAlpha"/><feOffset dy="1"/><feGaussianBlur stdDeviation="2"/><feColorMatrix values="0 0 0 0 1 0 0 0 0 1 0 0 0 0 1 0 0 0 0.25 0"/><feBlend in2="BackgroundImageFix" result="effect1_dropShadow_1_3153"/><feBlend in="SourceGraphic" in2="effect1_dropShadow_1_3153" result="shape"/></filter><filter id="d" x="66.571" y="99.199" width="15.635" height="15.618" filterUnits="userSpaceOnUse" color-interpolation-filters="sRGB"><feFlood flood-opacity="0" result="BackgroundImageFix"/><feColorMatrix in="SourceAlpha" values="0 0 0 0 0 0 0 0 0 0 0 0 0 0 0 0 0 0 127 0" result="hardAlpha"/><feOffset dy="1"/><feGaussianBlur stdDeviation="2"/><feColorMatrix values="0 0 0 0 1 0 0 0 0 1 0 0 0 0 1 0 0 0 0.25 0"/><feBlend in2="BackgroundImageFix" result="effect1_dropShadow_1_3153"/><feBlend in="SourceGraphic" in2="effect1_dropShadow_1_3153" result="shape"/></filter><filter id="e" x="51.756" y="75.525" width="15.635" height="15.618" filterUnits="userSpaceOnUse" color-interpolation-filters="sRGB"><feFlood flood-opacity="0" result="BackgroundImageFix"/><feColorMatrix in="SourceAlpha" values="0 0 0 0 0 0 0 0 0 0 0 0 0 0 0 0 0 0 127 0" result="hardAlpha"/><feOffset dy="1"/><feGaussianBlur stdDeviation="2"/><feColorMatrix values="0 0 0 0 1 0 0 0 0 1 0 0 0 0 1 0 0 0 0.25 0"/><feBlend in2="BackgroundImageFix" result="effect1_dropShadow_1_3153"/><feBlend in="SourceGraphic" in2="effect1_dropShadow_1_3153" result="shape"/></filter><filter id="f" x="81.821" y="75.525" width="15.635" height="15.618" filterUnits="userSpaceOnUse" color-interpolation-filters="sRGB"><feFlood flood-opacity="0" result="BackgroundImageFix"/><feColorMatrix in="SourceAlpha" values="0 0 0 0 0 0 0 0 0 0 0 0 0 0 0 0 0 0 127 0" result="hardAlpha"/><feOffset dy="1"/><feGaussianBlur stdDeviation="2"/><feColorMatrix values="0 0 0 0 1 0 0 0 0 1 0 0 0 0 1 0 0 0 0.25 0"/><feBlend in2="BackgroundImageFix" result="effect1_dropShadow_1_3153"/><feBlend in="SourceGraphic" in2="effect1_dropShadow_1_3153" result="shape"/></filter></defs></svg>