<svg width="141" height="65" viewBox="0 0 141 65" fill="none" xmlns="http://www.w3.org/2000/svg">
<g opacity="0.5">
<path d="M5.187 15.21C4.179 15.21 3.32033 14.9907 2.611 14.552C1.90167 14.1087 1.358 13.4927 0.98 12.704C0.606667 11.9153 0.42 11.0007 0.42 9.96C0.42 8.91933 0.606667 8.00467 0.98 7.216C1.358 6.42733 1.90167 5.81367 2.611 5.375C3.32033 4.93167 4.179 4.71 5.187 4.71C6.349 4.71 7.31033 5.004 8.071 5.592C8.83633 6.18 9.36833 6.971 9.667 7.965L8.183 8.364C7.987 7.65933 7.637 7.10633 7.133 6.705C6.63367 6.30367 5.985 6.103 5.187 6.103C4.473 6.103 3.878 6.264 3.402 6.586C2.926 6.908 2.56667 7.35833 2.324 7.937C2.086 8.51567 1.967 9.19 1.967 9.96C1.96233 10.73 2.079 11.4043 2.317 11.983C2.55967 12.5617 2.919 13.012 3.395 13.334C3.87567 13.656 4.473 13.817 5.187 13.817C5.985 13.817 6.63367 13.6163 7.133 13.215C7.637 12.809 7.987 12.256 8.183 11.556L9.667 11.955C9.36833 12.949 8.83633 13.74 8.071 14.328C7.31033 14.916 6.349 15.21 5.187 15.21ZM10.6466 16.68V13.824C11.0619 13.824 11.3582 13.6863 11.5356 13.411C11.7176 13.131 11.8622 12.6573 11.9696 11.99C12.0349 11.584 12.0886 11.1523 12.1306 10.695C12.1772 10.2377 12.2169 9.743 12.2496 9.211C12.2822 8.67433 12.3149 8.084 12.3476 7.44H17.7656V13.824H18.5076V16.68H17.1216V15H12.0396V16.68H10.6466ZM12.7396 13.824H16.2956V8.616H13.6496C13.6309 8.924 13.6099 9.24133 13.5866 9.568C13.5679 9.89467 13.5446 10.219 13.5166 10.541C13.4932 10.863 13.4652 11.171 13.4326 11.465C13.3999 11.759 13.3626 12.025 13.3206 12.263C13.2646 12.6317 13.1969 12.9397 13.1176 13.187C13.0429 13.4343 12.9169 13.6467 12.7396 13.824ZM23.2549 15.21C22.5035 15.21 21.8432 15.0467 21.2739 14.72C20.7092 14.3887 20.2682 13.929 19.9509 13.341C19.6382 12.7483 19.4819 12.0623 19.4819 11.283C19.4819 10.457 19.6359 9.74067 19.9439 9.134C20.2565 8.52733 20.6905 8.05833 21.2459 7.727C21.8012 7.39567 22.4475 7.23 23.1849 7.23C23.9549 7.23 24.6105 7.40967 25.1519 7.769C25.6932 8.12367 26.0969 8.63 26.3629 9.288C26.6335 9.946 26.7409 10.7277 26.6849 11.633H25.2219V11.101C25.2125 10.2237 25.0445 9.575 24.7179 9.155C24.3959 8.735 23.9035 8.525 23.2409 8.525C22.5082 8.525 21.9575 8.756 21.5889 9.218C21.2202 9.68 21.0359 10.3473 21.0359 11.22C21.0359 12.0507 21.2202 12.6947 21.5889 13.152C21.9575 13.6047 22.4895 13.831 23.1849 13.831C23.6422 13.831 24.0365 13.7283 24.3679 13.523C24.7039 13.313 24.9652 13.0143 25.1519 12.627L26.5869 13.082C26.2929 13.7587 25.8472 14.2837 25.2499 14.657C24.6525 15.0257 23.9875 15.21 23.2549 15.21ZM20.5599 11.633V10.492H25.9569V11.633H20.5599ZM27.5554 15V13.761C27.8354 13.8123 28.0477 13.8053 28.1924 13.74C28.3417 13.67 28.4514 13.544 28.5214 13.362C28.5961 13.18 28.6591 12.9443 28.7104 12.655C28.7897 12.2303 28.8574 11.7473 28.9134 11.206C28.9741 10.66 29.0277 10.0697 29.0744 9.435C29.1211 8.80033 29.1631 8.13533 29.2004 7.44H34.6324V15H33.1624V8.819H30.5164C30.4884 9.18767 30.4557 9.57967 30.4184 9.995C30.3857 10.4057 30.3484 10.814 30.3064 11.22C30.2644 11.626 30.2201 12.0063 30.1734 12.361C30.1267 12.7157 30.0777 13.019 30.0264 13.271C29.9331 13.775 29.7954 14.1763 29.6134 14.475C29.4361 14.769 29.1841 14.958 28.8574 15.042C28.5307 15.1307 28.0967 15.1167 27.5554 15ZM38.7302 15.21C38.1702 15.21 37.7012 15.1073 37.3232 14.902C36.9452 14.692 36.6582 14.4167 36.4622 14.076C36.2709 13.7307 36.1752 13.3527 36.1752 12.942C36.1752 12.5593 36.2429 12.2233 36.3782 11.934C36.5136 11.6447 36.7142 11.3997 36.9802 11.199C37.2462 10.9937 37.5729 10.828 37.9602 10.702C38.2962 10.604 38.6766 10.5177 39.1012 10.443C39.5259 10.3683 39.9716 10.2983 40.4382 10.233C40.9096 10.1677 41.3762 10.1023 41.8382 10.037L41.3062 10.331C41.3156 9.73833 41.1896 9.29967 40.9282 9.015C40.6716 8.72567 40.2282 8.581 39.5982 8.581C39.2016 8.581 38.8376 8.67433 38.5062 8.861C38.1749 9.043 37.9439 9.34633 37.8132 9.771L36.4482 9.351C36.6349 8.70233 36.9896 8.18667 37.5122 7.804C38.0396 7.42133 38.7396 7.23 39.6122 7.23C40.2889 7.23 40.8769 7.34667 41.3762 7.58C41.8802 7.80867 42.2489 8.17267 42.4822 8.672C42.6036 8.91933 42.6782 9.18067 42.7062 9.456C42.7342 9.73133 42.7482 10.0277 42.7482 10.345V15H41.4532V13.271L41.7052 13.495C41.3926 14.0737 40.9936 14.5053 40.5082 14.79C40.0276 15.07 39.4349 15.21 38.7302 15.21ZM38.9892 14.013C39.4046 14.013 39.7616 13.9407 40.0602 13.796C40.3589 13.6467 40.5992 13.4577 40.7812 13.229C40.9632 13.0003 41.0822 12.7623 41.1382 12.515C41.2176 12.291 41.2619 12.039 41.2712 11.759C41.2852 11.479 41.2922 11.255 41.2922 11.087L41.7682 11.262C41.3062 11.332 40.8862 11.395 40.5082 11.451C40.1302 11.507 39.7872 11.563 39.4792 11.619C39.1759 11.6703 38.9052 11.7333 38.6672 11.808C38.4666 11.878 38.2869 11.962 38.1282 12.06C37.9742 12.158 37.8506 12.277 37.7572 12.417C37.6686 12.557 37.6242 12.7273 37.6242 12.928C37.6242 13.124 37.6732 13.306 37.7712 13.474C37.8692 13.6373 38.0186 13.768 38.2192 13.866C38.4199 13.964 38.6766 14.013 38.9892 14.013ZM44.5589 15V7.44H46.0219V10.527H49.7109V7.44H51.1739V15H49.7109V11.906H46.0219V15H44.5589ZM56.4212 15.21C55.6652 15.21 55.0095 15.0397 54.4542 14.699C53.8989 14.3583 53.4695 13.8893 53.1662 13.292C52.8675 12.69 52.7182 11.997 52.7182 11.213C52.7182 10.4243 52.8722 9.73133 53.1802 9.134C53.4882 8.532 53.9199 8.06533 54.4752 7.734C55.0305 7.398 55.6792 7.23 56.4212 7.23C57.1772 7.23 57.8329 7.40033 58.3882 7.741C58.9435 8.08167 59.3729 8.55067 59.6762 9.148C59.9795 9.74533 60.1312 10.4337 60.1312 11.213C60.1312 12.0017 59.9772 12.697 59.6692 13.299C59.3659 13.8963 58.9365 14.3653 58.3812 14.706C57.8259 15.042 57.1725 15.21 56.4212 15.21ZM56.4212 13.831C57.1445 13.831 57.6835 13.5883 58.0382 13.103C58.3975 12.613 58.5772 11.983 58.5772 11.213C58.5772 10.4243 58.3952 9.79433 58.0312 9.323C57.6719 8.847 57.1352 8.609 56.4212 8.609C55.9312 8.609 55.5275 8.721 55.2102 8.945C54.8929 9.16433 54.6572 9.47 54.5032 9.862C54.3492 10.2493 54.2722 10.6997 54.2722 11.213C54.2722 12.0063 54.4542 12.641 54.8182 13.117C55.1822 13.593 55.7165 13.831 56.4212 13.831ZM68.0212 15.21C67.2979 15.21 66.6912 15.035 66.2012 14.685C65.7112 14.3303 65.3402 13.852 65.0882 13.25C64.8362 12.648 64.7102 11.969 64.7102 11.213C64.7102 10.457 64.8339 9.778 65.0812 9.176C65.3332 8.574 65.7019 8.10033 66.1872 7.755C66.6772 7.405 67.2792 7.23 67.9932 7.23C68.7025 7.23 69.3139 7.405 69.8272 7.755C70.3452 8.10033 70.7442 8.574 71.0242 9.176C71.3042 9.77333 71.4442 10.4523 71.4442 11.213C71.4442 11.969 71.3042 12.6503 71.0242 13.257C70.7489 13.859 70.3545 14.335 69.8412 14.685C69.3325 15.035 68.7259 15.21 68.0212 15.21ZM64.4652 18.36V7.44H65.7672V12.879H65.9352V18.36H64.4652ZM67.8182 13.887C68.2849 13.887 68.6699 13.768 68.9732 13.53C69.2812 13.292 69.5099 12.9723 69.6592 12.571C69.8132 12.165 69.8902 11.7123 69.8902 11.213C69.8902 10.7183 69.8132 10.2703 69.6592 9.869C69.5099 9.46767 69.2789 9.148 68.9662 8.91C68.6535 8.672 68.2545 8.553 67.7692 8.553C67.3119 8.553 66.9339 8.665 66.6352 8.889C66.3412 9.113 66.1219 9.42567 65.9772 9.827C65.8372 10.2283 65.7672 10.6903 65.7672 11.213C65.7672 11.7357 65.8372 12.1977 65.9772 12.599C66.1172 13.0003 66.3389 13.3153 66.6422 13.544C66.9455 13.7727 67.3375 13.887 67.8182 13.887ZM73.7383 18.36L75.2013 14.377L75.2223 15.553L71.9253 7.44H73.4513L75.9153 13.705H75.4673L77.8193 7.44H79.3033L75.1313 18.36H73.7383ZM80.3929 15L80.3999 7.44H81.8839V11.08L84.8519 7.44H86.7139L83.5779 11.22L87.0359 15H85.0479L81.8839 11.36V15H80.3929ZM89.8767 15.21C89.3167 15.21 88.8477 15.1073 88.4697 14.902C88.0917 14.692 87.8047 14.4167 87.6087 14.076C87.4174 13.7307 87.3217 13.3527 87.3217 12.942C87.3217 12.5593 87.3894 12.2233 87.5247 11.934C87.6601 11.6447 87.8607 11.3997 88.1267 11.199C88.3927 10.9937 88.7194 10.828 89.1067 10.702C89.4427 10.604 89.8231 10.5177 90.2477 10.443C90.6724 10.3683 91.1181 10.2983 91.5847 10.233C92.0561 10.1677 92.5227 10.1023 92.9847 10.037L92.4527 10.331C92.4621 9.73833 92.3361 9.29967 92.0747 9.015C91.8181 8.72567 91.3747 8.581 90.7447 8.581C90.3481 8.581 89.9841 8.67433 89.6527 8.861C89.3214 9.043 89.0904 9.34633 88.9597 9.771L87.5947 9.351C87.7814 8.70233 88.1361 8.18667 88.6587 7.804C89.1861 7.42133 89.8861 7.23 90.7587 7.23C91.4354 7.23 92.0234 7.34667 92.5227 7.58C93.0267 7.80867 93.3954 8.17267 93.6287 8.672C93.7501 8.91933 93.8247 9.18067 93.8527 9.456C93.8807 9.73133 93.8947 10.0277 93.8947 10.345V15H92.5997V13.271L92.8517 13.495C92.5391 14.0737 92.1401 14.5053 91.6547 14.79C91.1741 15.07 90.5814 15.21 89.8767 15.21ZM90.1357 14.013C90.5511 14.013 90.9081 13.9407 91.2067 13.796C91.5054 13.6467 91.7457 13.4577 91.9277 13.229C92.1097 13.0003 92.2287 12.7623 92.2847 12.515C92.3641 12.291 92.4084 12.039 92.4177 11.759C92.4317 11.479 92.4387 11.255 92.4387 11.087L92.9147 11.262C92.4527 11.332 92.0327 11.395 91.6547 11.451C91.2767 11.507 90.9337 11.563 90.6257 11.619C90.3224 11.6703 90.0517 11.7333 89.8137 11.808C89.6131 11.878 89.4334 11.962 89.2747 12.06C89.1207 12.158 88.9971 12.277 88.9037 12.417C88.8151 12.557 88.7707 12.7273 88.7707 12.928C88.7707 13.124 88.8197 13.306 88.9177 13.474C89.0157 13.6373 89.1651 13.768 89.3657 13.866C89.5664 13.964 89.8231 14.013 90.1357 14.013ZM95.7054 15V7.44H96.9304L99.7234 12.984L102.509 7.44H103.741V15H102.327V10.436L100.052 15H99.3874L97.1124 10.436V15H95.7054ZM112.077 7.44V15H110.67V9.743L106.89 15H105.7V7.44H107.107V12.592L110.894 7.44H112.077Z" fill="white"/>
<path fill-rule="evenodd" clip-rule="evenodd" d="M8.65361 44.9949L21.9245 35.2107C22.0534 35.0954 22.2164 35.0232 22.3901 35.0047C22.5637 34.9862 22.7388 35.0223 22.89 35.1078C23.0413 35.1933 23.1607 35.3237 23.2311 35.4801C23.3015 35.6365 23.3191 35.8107 23.2814 35.9776L21.2563 52.1151C21.1821 53.6236 20.1394 53.5848 19.7026 52.9969C19.0552 51.5019 17.6741 49.9562 15.7802 48.7332C16.0644 48.7492 16.3481 48.6952 16.6054 48.5761C19.3452 47.1048 18.2334 44.8597 18.6288 42.2921C16.5571 43.9087 14.0106 44.0928 14.0797 47.1487C14.1022 47.4188 14.1923 47.6793 14.3421 47.9072L14.3559 47.9291C12.3395 46.9443 10.2885 46.5524 8.64843 46.7466C7.90435 46.6757 7.35536 45.8125 8.65361 44.9949Z" fill="white"/>
<path fill-rule="evenodd" clip-rule="evenodd" d="M5.52192 49.2856C1.90856 51.7519 -0.625802 55.4447 0.135541 56.3264C1.06089 57.3924 1.47005 55.9261 2.73378 57.34C3.9975 58.7539 2.60257 62.4939 5.61342 64.3859C8.79518 65.9924 11.4038 62.9416 13.2907 63.3031C15.1777 63.6646 14.0849 64.7457 15.4902 64.9924C16.6469 65.1984 18.6478 61.205 19.0258 56.9109C19.3055 53.7267 17.7207 51.4749 15.1259 49.816C15.371 50.3836 15.2347 51.534 13.5203 54.1321C11.1275 57.7606 9.2544 59.1999 8.81935 58.9465C8.38429 58.6931 8.71576 56.3974 10.7305 52.556C12.1737 49.8042 13.1215 49.1133 13.7482 49.0373C10.986 47.674 8.19957 47.4561 5.52192 49.2856Z" fill="white"/>
<path d="M34.3486 52.7112H36.8795L38.3258 49.3756H44.9746L46.4007 52.7112H49.012L42.8253 38.7967H40.5354L34.3486 52.7112ZM39.2297 47.2243L41.6401 41.698L44.0707 47.2243H39.2297Z" fill="white"/>
<path d="M53.0302 52.7112H55.5009V48.7046L57.6903 46.4941L62.4911 52.7112H65.484L59.3776 44.8362L65.2229 38.8954H62.1898L55.5009 45.8427V38.8954H53.0302V52.7112Z" fill="white"/>
<path d="M73.2545 52.7112H75.7453V41.1454H80.2046V38.8954H68.7953V41.1454H73.2545V52.7112Z" fill="white"/>
<path d="M85.3757 52.7112H87.8464V38.8954H85.3757V52.7112Z" fill="white"/>
<path d="M99.7455 52.948C102.377 52.948 103.984 52.0006 105.45 50.5006L103.863 48.9217C102.658 50.027 101.553 50.7177 99.8259 50.7177C97.1342 50.7177 95.1858 48.5072 95.1858 45.8033C95.1858 43.0599 97.1342 40.8888 99.8259 40.8888C101.433 40.8888 102.638 41.5796 103.763 42.6059L105.35 40.8099C104.004 39.5467 102.437 38.6585 99.846 38.6585C95.5875 38.6585 92.5946 41.8756 92.5946 45.8033C92.5946 49.8099 95.6478 52.948 99.7455 52.948Z" fill="white"/>
<path d="M115.971 52.948C120.289 52.948 123.343 49.6914 123.343 45.8033C123.343 41.8756 120.33 38.6585 116.011 38.6585C111.692 38.6585 108.639 41.9151 108.639 45.8033C108.639 49.7309 111.652 52.948 115.971 52.948ZM116.011 50.7177C113.219 50.7177 111.23 48.4875 111.23 45.8033C111.23 43.0796 113.179 40.8888 115.971 40.8888C118.763 40.8888 120.751 43.1191 120.751 45.8033C120.751 48.527 118.803 50.7177 116.011 50.7177Z" fill="white"/>
<path d="M127.131 52.7112H129.562V42.8427L133.961 49.3164H134.041L138.48 42.8033V52.7112H140.951V38.8954H138.32L134.041 45.4283L129.763 38.8954H127.131V52.7112Z" fill="white"/>
<path d="M34.6471 60.8505H36.0944C36.7912 60.8505 37.2512 60.5563 37.2512 60.0076C37.2512 59.5817 36.9966 59.3754 36.6304 59.2524C36.8626 59.1339 37.077 58.9363 37.077 58.5676C37.077 58.3524 37.0056 58.1856 36.8671 58.0495C36.6884 57.8739 36.407 57.7773 36.0497 57.7773H34.6471V60.8505ZM35.1876 59.0724V58.2559H35.9782C36.3311 58.2559 36.5276 58.4051 36.5276 58.6466C36.5276 58.9363 36.2909 59.0724 35.938 59.0724H35.1876ZM35.1876 60.372V59.529H36.0586C36.4919 59.529 36.7018 59.6827 36.7018 59.9417C36.7018 60.2271 36.474 60.372 36.0988 60.372H35.1876Z" fill="white"/>
<path d="M41.8684 60.8505H42.4312L42.7529 60.1085H44.2314L44.5485 60.8505H45.1292L43.7534 57.7554H43.2442L41.8684 60.8505ZM42.9539 59.63L43.4899 58.4007L44.0303 59.63H42.9539Z" fill="white"/>
<path d="M52.227 60.8505V60.0339L52.7184 59.4851L53.6519 60.8505H54.313L53.0757 59.0856L54.2505 57.7773H53.5938L52.227 59.3754V57.7773H51.6821V59.3754L50.3152 57.7773H49.6586L50.8289 59.0856L49.5961 60.8505H50.2572L51.1907 59.4851L51.6821 60.0339V60.8505H52.227Z" fill="white"/>
<path d="M59.0475 60.8505H61.3881V60.3676H59.5969V59.5422H61.1647V59.0593H59.5969V58.2603H61.3657V57.7773H59.0475V60.8505Z" fill="white"/>
<path d="M66.3056 60.8505H66.855V59.5554H68.3469V60.8505H68.8963V57.7773H68.3469V59.0549H66.855V57.7773H66.3056V60.8505Z" fill="white"/>
<path d="M79.5699 60.8505H80.1194V59.8627H80.7402C81.4281 59.8627 81.9909 59.5027 81.9909 58.8134C81.9909 58.1856 81.5308 57.7773 80.8028 57.7773H79.5699V60.8505ZM80.1194 59.3754V58.269H80.7581C81.169 58.269 81.4326 58.4578 81.4326 58.8178C81.4326 59.1471 81.1735 59.3754 80.7581 59.3754H80.1194Z" fill="white"/>
<path d="M86.8193 60.8505H89.1599V60.3676H87.3688V59.5422H88.9366V59.0593H87.3688V58.2603H89.1376V57.7773H86.8193V60.8505Z" fill="white"/>
<path d="M95.1406 57.7246C94.5867 57.7246 94.2338 57.909 93.9345 58.19L94.2293 58.5412C94.4661 58.3173 94.7341 58.1988 95.1048 58.1988C95.4532 58.1988 95.6944 58.37 95.6944 58.629C95.6944 58.9188 95.4488 59.0768 95.0512 59.0768H94.7028V59.5246H95.0557C95.4622 59.5246 95.7704 59.6563 95.7704 59.9724C95.7704 60.2622 95.489 60.4334 95.1584 60.4334C94.7341 60.4334 94.3991 60.2885 94.1177 60.0251L93.8184 60.3983C94.1668 60.7276 94.5643 60.9032 95.1718 60.9032C95.8686 60.9032 96.3198 60.5124 96.3198 60.0032C96.3198 59.6037 96.0562 59.371 95.7078 59.2656C95.9848 59.1515 96.2394 58.9451 96.2394 58.55C96.2394 58.0715 95.7882 57.7246 95.1406 57.7246Z" fill="white"/>
<path d="M101.771 60.8988C102.178 60.8988 102.499 60.7012 102.763 60.1788L103.982 57.7773H103.388L102.531 59.5642L101.557 57.7773H100.941L102.245 60.1042C102.089 60.3544 101.892 60.4378 101.754 60.4378C101.615 60.4378 101.494 60.4115 101.369 60.3412L101.159 60.7451C101.343 60.8417 101.53 60.8988 101.771 60.8988Z" fill="white"/>
<path d="M108.768 60.8856C109.385 60.8856 109.746 60.4949 109.746 58.5412V58.2646H110.827V60.8505H111.377V57.7773H109.233V58.3832C109.233 60.2227 108.938 60.4203 108.621 60.4203C108.554 60.4203 108.482 60.4071 108.442 60.3939L108.389 60.8373C108.473 60.8593 108.648 60.8856 108.768 60.8856Z" fill="white"/>
<path d="M116.449 60.8505H117.709C118.433 60.8505 118.888 60.4642 118.888 59.8451C118.888 59.2261 118.415 58.8837 117.714 58.8837H116.994V57.7773H116.449V60.8505ZM116.994 60.3676V59.3534H117.691C118.107 59.3534 118.343 59.5246 118.343 59.8407C118.343 60.1876 118.107 60.3676 117.7 60.3676H116.994Z" fill="white"/>
<path d="M124.498 60.8505H125.052V58.2778H126.043V57.7773H123.506V58.2778H124.498V60.8505Z" fill="white"/>
<path d="M130.624 60.8505H131.186L131.508 60.1085H132.986L133.304 60.8505H133.884L132.509 57.7554H131.999L130.624 60.8505ZM131.709 59.63L132.245 58.4007L132.785 59.63H131.709Z" fill="white"/>
<path d="M139.454 60.8505H140.008V58.2778H141V57.7773H138.463V58.2778H139.454V60.8505Z" fill="white"/>
</g>
</svg>
