<svg width="661" height="664" viewBox="0 0 661 664" fill="none" xmlns="http://www.w3.org/2000/svg">
<path fill-rule="evenodd" clip-rule="evenodd" d="M404.175 587.797C369.666 597.734 334.231 600.599 298.826 596.358C264.664 592.242 232.031 581.698 201.769 564.968C171.551 548.225 145.223 526.21 123.569 499.468C101.161 471.786 84.7426 440.254 74.8054 405.745C64.8555 371.192 61.9906 335.757 66.2445 300.397C70.3608 266.235 80.9489 233.589 97.6346 203.339C114.365 173.077 136.393 146.793 163.134 125.14C190.862 102.719 222.394 86.3001 256.902 76.363C291.411 66.4259 326.846 63.5609 362.206 67.8149C396.368 71.9312 429.046 82.4618 459.308 99.1921C489.526 115.935 515.854 137.951 537.508 164.692C559.916 192.375 576.334 223.906 586.284 258.46C596.221 292.969 599.086 328.403 594.832 363.764C590.716 397.926 580.128 430.571 563.442 460.821C546.712 491.083 524.639 517.38 497.898 539.034C470.215 561.441 438.683 577.86 404.175 587.797ZM257.031 76.8089C116.276 117.341 34.7068 264.817 75.2513 405.617C115.783 546.371 263.291 627.883 404.046 587.351C544.801 546.82 626.37 399.343 585.839 258.588C545.294 117.789 397.786 36.2772 257.031 76.8089Z" fill="url(#paint0_linear_1_2974)"/>
<path fill-rule="evenodd" clip-rule="evenodd" d="M348.733 67.301C481.191 76.4265 580.771 202.592 570.717 348.595C560.664 494.598 444.758 605.997 312.3 596.872C179.899 587.778 80.3065 461.568 90.3599 315.565C100.413 169.563 216.319 58.1627 348.733 67.301ZM312.276 597.796C344.784 600.023 376.85 595.183 407.531 583.355C437.18 571.968 464.274 554.558 488.1 531.667C511.939 508.821 531.276 481.575 545.59 450.801C560.392 418.873 569.186 384.523 571.654 348.663C574.123 312.803 570.105 277.555 559.806 243.971C549.873 211.489 534.433 181.848 513.979 155.92C493.481 130.005 469.016 109.095 441.267 93.7167C412.453 77.8246 381.365 68.6227 348.801 66.364C316.249 64.15 284.183 68.99 253.502 80.8183C223.897 92.192 196.803 109.602 172.977 132.493C149.138 155.339 129.801 182.586 115.5 213.404C100.685 245.287 91.8914 279.637 89.4229 315.497C86.9545 351.357 90.9279 386.618 101.271 420.189C111.204 452.671 126.644 482.312 147.098 508.24C167.552 534.168 192.017 555.078 219.81 570.443C248.579 586.348 279.712 595.537 312.276 597.796Z" fill="url(#paint1_linear_1_2974)"/>
<path fill-rule="evenodd" clip-rule="evenodd" d="M345.349 116.751C491.25 126.785 603.257 231.556 595.098 350.265C586.906 469.032 461.584 557.457 315.728 547.41C169.827 537.375 57.8196 432.605 65.9794 313.895C74.1264 195.141 199.493 106.703 345.349 116.751ZM581.364 264.512C569.754 237.775 552.133 213.301 529.075 191.744C506.004 170.142 478.64 152.578 447.742 139.507C415.733 125.935 381.34 117.83 345.435 115.374C309.575 112.905 274.371 116.235 240.81 125.272C208.408 133.974 178.884 147.642 153.079 165.84C127.287 184.082 106.499 205.953 91.2994 230.801C75.605 256.613 66.594 284.508 64.5898 313.764C62.5985 343.066 67.6739 371.925 79.7129 399.649C91.3227 426.385 108.944 450.859 132.002 472.416C155.028 494.031 182.392 511.596 213.335 524.654C245.344 538.226 279.737 546.331 315.642 548.787C351.502 551.255 386.706 547.925 420.267 538.889C452.669 530.186 482.193 516.518 507.998 498.32C533.79 480.078 554.591 458.252 569.778 433.359C585.472 407.547 594.483 379.653 596.487 350.396C598.479 321.095 593.403 292.235 581.364 264.512Z" fill="url(#paint2_linear_1_2974)"/>
<path fill-rule="evenodd" clip-rule="evenodd" d="M181.094 155.986C238.391 132.969 307.794 129.689 376.531 146.735C445.281 163.825 505.096 199.18 544.968 246.265C584.783 293.317 599.94 346.457 587.672 395.905C575.405 445.354 537.16 485.24 479.983 508.174C422.686 531.192 353.283 534.471 284.546 517.425C215.796 500.335 155.981 464.98 116.109 417.896C76.2945 370.843 61.0928 317.717 73.3604 268.268C85.628 218.819 123.886 178.978 181.094 155.986ZM587.199 318.308C579.664 292.812 565.955 268.176 546.412 245.076C526.882 222.021 502.526 201.658 474.054 184.606C444.548 166.981 411.884 153.647 376.986 144.962C342.044 136.291 306.914 132.84 272.625 134.651C239.482 136.421 208.446 142.992 180.402 154.254C152.314 165.529 128.682 180.88 110.081 199.949C90.8047 219.694 77.8766 242.537 71.5878 267.813C65.3118 293.133 66.0609 319.376 73.8783 345.853C81.4132 371.349 95.1218 395.984 114.665 419.084C134.195 442.14 158.551 462.502 187.023 479.555C216.529 497.179 249.193 510.514 284.091 519.198C319.033 527.869 354.118 531.334 388.452 529.51C421.608 527.784 452.631 521.168 480.675 509.906C508.763 498.631 532.395 483.28 550.996 464.212C570.272 444.466 583.201 421.624 589.489 396.348C595.765 371.027 594.972 344.797 587.199 318.308Z" fill="url(#paint3_linear_1_2974)"/>
<path fill-rule="evenodd" clip-rule="evenodd" d="M206.82 148.916C265.308 140.427 333.172 151.592 397.887 180.321C462.601 209.051 516.409 251.881 549.37 300.956C582.223 349.82 590.451 399.016 572.505 439.478C554.56 479.939 512.534 506.864 454.257 515.244C395.725 523.746 327.905 512.568 263.19 483.839C198.476 455.109 144.668 412.279 111.707 363.205C78.8539 314.34 70.6262 265.144 88.5717 224.683C106.517 184.221 148.543 157.297 206.82 148.916ZM581.988 371.808C577.79 348.007 567.473 323.747 551.305 299.626C535.163 275.595 513.97 252.97 488.333 232.349C461.86 211.003 431.747 192.781 398.826 178.216C365.936 163.595 332.227 153.506 298.616 148.12C266.141 142.987 235.18 142.44 206.49 146.597C177.801 150.754 152.862 159.384 132.418 172.224C111.16 185.588 95.7153 202.878 86.4667 223.744C77.2052 244.565 74.7357 267.679 79.0887 292.353C83.2424 316.167 93.6044 340.414 109.772 364.534C125.914 388.566 147.107 411.191 172.699 431.825C199.217 453.158 229.33 471.38 262.207 485.957C295.141 500.566 328.863 510.699 362.461 516.04C394.891 521.186 425.897 521.721 454.587 517.563C483.276 513.406 508.215 504.776 528.659 491.936C549.886 478.63 565.362 461.282 574.61 440.417C583.872 419.596 586.341 396.482 581.988 371.808Z" fill="url(#paint4_linear_1_2974)"/>
<path fill-rule="evenodd" clip-rule="evenodd" d="M409.316 214.98C530.337 296.394 593.41 415.159 549.958 479.719C506.519 544.324 372.739 530.606 251.762 449.18C130.74 367.766 67.6674 249.001 111.119 184.44C154.558 119.836 288.338 133.553 409.316 214.98ZM566.136 422.723C564.51 400.981 557.056 377.442 544.01 352.761C517.278 302.182 469.982 252.455 410.879 212.695C351.762 172.89 287.864 147.836 230.935 142.117C203.193 139.338 178.603 141.301 157.828 147.96C136.219 154.906 119.711 166.661 108.79 182.89C97.868 199.12 93.2055 218.809 94.8967 241.45C96.567 263.178 104.021 286.718 117.067 311.399C143.799 361.978 191.095 411.705 250.198 451.465C309.315 491.27 373.213 516.323 430.098 522.056C457.884 524.821 482.474 522.859 503.249 516.2C524.858 509.253 541.366 497.499 552.287 481.27C563.209 465.04 567.872 445.35 566.136 422.723Z" fill="url(#paint5_linear_1_2974)"/>
<path fill-rule="evenodd" clip-rule="evenodd" d="M523.187 517.701C511.848 529.464 495.68 535.858 475.173 536.742C455.61 537.547 432.849 533.286 407.548 524.059C355.714 505.188 298.916 467.564 247.644 418.113C196.327 368.675 156.635 313.331 135.798 262.262C125.67 237.32 120.57 214.744 120.663 195.115C120.748 174.619 126.564 158.266 137.89 146.459C149.229 134.696 165.397 128.302 185.859 127.431C205.467 126.613 228.228 130.874 253.529 140.101C305.363 158.972 362.117 196.609 413.433 246.047C464.75 295.484 504.442 350.829 525.235 401.911C535.407 426.84 540.508 449.416 540.414 469.045C540.329 489.541 534.526 505.938 523.187 517.701ZM140.234 148.729C129.493 159.885 124 175.517 123.907 195.146C123.832 214.336 128.817 236.51 138.829 261.051C159.449 311.7 198.891 366.682 249.87 415.783C300.861 464.928 357.244 502.285 408.657 521.036C433.524 530.098 455.877 534.283 475.058 533.492C494.711 532.661 510.102 526.587 520.843 515.431C531.584 504.275 537.09 488.688 537.17 469.014C537.245 449.824 532.216 427.663 522.248 403.109C501.628 352.46 462.186 297.478 411.208 248.377C360.216 199.232 303.833 161.875 252.42 143.124C227.508 134.075 205.2 129.876 186.019 130.668C166.366 131.499 150.975 137.573 140.234 148.729Z" fill="url(#paint6_linear_1_2974)"/>
<path fill-rule="evenodd" clip-rule="evenodd" d="M488.167 548.499C467.333 563.672 431.403 555.092 386.874 524.364C342.945 494.043 295.639 445.622 253.706 388.027C211.785 330.475 180.197 270.576 164.796 219.439C149.259 167.664 152.121 130.822 172.91 115.662C193.744 100.489 229.674 109.069 274.203 139.797C318.132 170.118 365.438 218.538 407.371 276.134C449.292 333.685 480.88 393.584 496.237 444.735C511.818 496.496 508.956 533.339 488.167 548.499ZM175.121 118.646C165.43 125.734 159.924 138.135 158.851 155.536C157.79 172.643 160.982 193.789 168.35 218.367C183.649 269.148 215.019 328.627 256.703 385.86C298.387 443.093 345.367 491.221 388.996 521.339C410.128 535.87 429.248 545.428 445.871 549.67C462.801 553.969 476.251 552.558 485.956 545.514C495.647 538.427 501.153 526.026 502.226 508.625C503.287 491.518 500.095 470.372 492.683 445.806C477.441 395.057 446.071 335.578 404.374 278.301C362.69 221.068 315.71 172.94 272.081 142.822C250.949 128.291 231.829 118.732 215.161 114.503C198.276 110.192 184.826 111.603 175.121 118.646Z" fill="url(#paint7_linear_1_2974)"/>
<path fill-rule="evenodd" clip-rule="evenodd" d="M448.277 572.78C439.268 577.209 427.416 574.78 413.096 565.626C399.72 557.069 384.548 542.946 368.021 523.613C334.225 484.049 298.405 427.058 267.101 363.118C235.843 299.165 212.838 235.877 202.364 184.914C197.271 160.019 195.38 139.368 196.857 123.54C198.441 106.572 203.778 95.7647 212.8 91.3804C221.809 86.9515 233.661 89.3805 247.981 98.5345C261.357 107.091 276.529 121.214 293.056 140.548C326.852 180.112 362.672 237.102 393.976 301.042C425.234 364.995 448.239 428.283 458.713 479.246C463.819 504.186 465.697 524.793 464.22 540.62C462.636 557.589 457.299 568.396 448.277 572.78ZM214.643 95.0984C199.37 102.587 196.397 135.019 206.466 184.071C216.838 234.677 239.74 297.609 270.864 361.262C301.989 424.916 337.63 481.62 371.202 520.91C403.739 558.954 431.148 576.506 446.434 569.062C461.708 561.574 464.68 529.142 454.611 480.09C444.239 429.483 421.337 366.552 390.213 302.898C359.089 239.245 323.447 182.541 289.875 143.25C257.338 105.207 229.929 87.6548 214.643 95.0984Z" fill="url(#paint8_linear_1_2974)"/>
<path fill-rule="evenodd" clip-rule="evenodd" d="M404.752 589.804C397.976 591.755 389.883 586.457 380.061 573.642C371.274 562.074 361.373 544.791 350.658 522.336C328.747 476.259 305.865 413.226 286.183 344.877C266.488 276.484 252.344 210.934 246.395 160.261C243.527 135.546 242.721 115.644 244.01 101.175C245.513 85.0986 249.548 76.3081 256.325 74.3566C263.102 72.4051 271.194 77.7035 280.971 90.5314C289.803 102.087 299.704 119.369 310.419 141.825C332.285 187.914 355.212 250.935 374.907 319.328C394.589 387.677 408.688 453.239 414.682 503.899C417.563 528.659 418.356 548.516 417.022 562.998C415.564 579.062 411.529 587.852 404.752 589.804ZM257.608 78.8151C253.061 80.1247 249.891 88.2314 248.663 101.573C247.342 115.762 248.147 135.326 251.027 159.748C256.944 210.14 271.011 275.423 290.641 343.593C310.259 411.719 333.065 474.485 354.866 520.351C365.402 542.52 375.125 559.516 383.79 570.83C391.925 581.475 398.921 586.655 403.469 585.345C408.016 584.036 411.186 575.929 412.414 562.587C413.735 548.398 412.93 528.834 410.063 504.457C404.133 454.02 390.066 388.738 370.448 320.612C350.818 252.441 328.013 189.675 306.223 143.854C295.675 121.64 285.952 104.644 277.287 93.3304C269.152 82.6851 262.156 77.5056 257.608 78.8151Z" fill="url(#paint9_linear_1_2974)"/>
<defs>
<linearGradient id="paint0_linear_1_2974" x1="488.902" y1="93.8953" x2="223.145" y2="469.77" gradientUnits="userSpaceOnUse">
<stop stop-color="white"/>
<stop offset="1" stop-color="white" stop-opacity="0.3"/>
</linearGradient>
<linearGradient id="paint1_linear_1_2974" x1="472.529" y1="100.394" x2="208.614" y2="446.517" gradientUnits="userSpaceOnUse">
<stop stop-color="white"/>
<stop offset="1" stop-color="white" stop-opacity="0.3"/>
</linearGradient>
<linearGradient id="paint2_linear_1_2974" x1="493.32" y1="123.378" x2="276.494" y2="486.438" gradientUnits="userSpaceOnUse">
<stop stop-color="white"/>
<stop offset="1" stop-color="white" stop-opacity="0.3"/>
</linearGradient>
<linearGradient id="paint3_linear_1_2974" x1="486.631" y1="132.443" x2="279.519" y2="480.21" gradientUnits="userSpaceOnUse">
<stop stop-color="white"/>
<stop offset="1" stop-color="white" stop-opacity="0.3"/>
</linearGradient>
<linearGradient id="paint4_linear_1_2974" x1="471.502" y1="136.07" x2="259.138" y2="461.21" gradientUnits="userSpaceOnUse">
<stop stop-color="white"/>
<stop offset="1" stop-color="white" stop-opacity="0.3"/>
</linearGradient>
<linearGradient id="paint5_linear_1_2974" x1="448.112" y1="135.551" x2="223.246" y2="424.289" gradientUnits="userSpaceOnUse">
<stop stop-color="white"/>
<stop offset="1" stop-color="white" stop-opacity="0.3"/>
</linearGradient>
<linearGradient id="paint6_linear_1_2974" x1="417.746" y1="133.728" x2="189.276" y2="366.773" gradientUnits="userSpaceOnUse">
<stop stop-color="white"/>
<stop offset="1" stop-color="white" stop-opacity="0.3"/>
</linearGradient>
<linearGradient id="paint7_linear_1_2974" x1="382.56" y1="133.454" x2="175.376" y2="295.696" gradientUnits="userSpaceOnUse">
<stop stop-color="white"/>
<stop offset="1" stop-color="white" stop-opacity="0.3"/>
</linearGradient>
<linearGradient id="paint8_linear_1_2974" x1="345.746" y1="136.501" x2="190.274" y2="227.426" gradientUnits="userSpaceOnUse">
<stop stop-color="white"/>
<stop offset="1" stop-color="white" stop-opacity="0.3"/>
</linearGradient>
<linearGradient id="paint9_linear_1_2974" x1="315.281" y1="142.38" x2="222.65" y2="183.444" gradientUnits="userSpaceOnUse">
<stop stop-color="white"/>
<stop offset="1" stop-color="white" stop-opacity="0.3"/>
</linearGradient>
</defs>
</svg>
