<svg width="172" height="172" viewBox="0 0 172 172" fill="none" xmlns="http://www.w3.org/2000/svg">
<path d="M5 90.5C7.76142 90.5 10 88.2614 10 85.5C10 82.7386 7.76142 80.5 5 80.5C2.23858 80.5 0 82.7386 0 85.5C0 88.2614 2.23858 90.5 5 90.5Z" fill="white"/>
<path d="M25.2002 90.5C27.9616 90.5 30.2002 88.2614 30.2002 85.5C30.2002 82.7386 27.9616 80.5 25.2002 80.5C22.4388 80.5 20.2002 82.7386 20.2002 85.5C20.2002 88.2614 22.4388 90.5 25.2002 90.5Z" fill="white"/>
<path d="M25.2002 110.7C27.9616 110.7 30.2002 108.461 30.2002 105.7C30.2002 102.939 27.9616 100.7 25.2002 100.7C22.4388 100.7 20.2002 102.939 20.2002 105.7C20.2002 108.461 22.4388 110.7 25.2002 110.7Z" fill="white"/>
<path d="M25.2002 70.3999C27.9616 70.3999 30.2002 68.1613 30.2002 65.3999C30.2002 62.6385 27.9616 60.3999 25.2002 60.3999C22.4388 60.3999 20.2002 62.6385 20.2002 65.3999C20.2002 68.1613 22.4388 70.3999 25.2002 70.3999Z" fill="white"/>
<path d="M45.3 90.5C48.0615 90.5 50.3 88.2614 50.3 85.5C50.3 82.7386 48.0615 80.5 45.3 80.5C42.5386 80.5 40.3 82.7386 40.3 85.5C40.3 88.2614 42.5386 90.5 45.3 90.5Z" fill="white"/>
<path d="M45.3 110.7C48.0615 110.7 50.3 108.461 50.3 105.7C50.3 102.939 48.0615 100.7 45.3 100.7C42.5386 100.7 40.3 102.939 40.3 105.7C40.3 108.461 42.5386 110.7 45.3 110.7Z" fill="white"/>
<path d="M45.3 130.8C48.0615 130.8 50.3 128.561 50.3 125.8C50.3 123.039 48.0615 120.8 45.3 120.8C42.5386 120.8 40.3 123.039 40.3 125.8C40.3 128.561 42.5386 130.8 45.3 130.8Z" fill="white"/>
<path d="M45.3 70.3999C48.0615 70.3999 50.3 68.1613 50.3 65.3999C50.3 62.6385 48.0615 60.3999 45.3 60.3999C42.5386 60.3999 40.3 62.6385 40.3 65.3999C40.3 68.1613 42.5386 70.3999 45.3 70.3999Z" fill="white"/>
<path d="M45.3 50.2999C48.0615 50.2999 50.3 48.0614 50.3 45.2999C50.3 42.5385 48.0615 40.2999 45.3 40.2999C42.5386 40.2999 40.3 42.5385 40.3 45.2999C40.3 48.0614 42.5386 50.2999 45.3 50.2999Z" fill="white"/>
<path d="M65.5 90.5C68.2614 90.5 70.5 88.2614 70.5 85.5C70.5 82.7386 68.2614 80.5 65.5 80.5C62.7386 80.5 60.5 82.7386 60.5 85.5C60.5 88.2614 62.7386 90.5 65.5 90.5Z" fill="white"/>
<path d="M65.5 110.7C68.2614 110.7 70.5 108.461 70.5 105.7C70.5 102.939 68.2614 100.7 65.5 100.7C62.7386 100.7 60.5 102.939 60.5 105.7C60.5 108.461 62.7386 110.7 65.5 110.7Z" fill="white"/>
<path d="M65.5 130.8C68.2614 130.8 70.5 128.561 70.5 125.8C70.5 123.039 68.2614 120.8 65.5 120.8C62.7386 120.8 60.5 123.039 60.5 125.8C60.5 128.561 62.7386 130.8 65.5 130.8Z" fill="white"/>
<path d="M65.5 151C68.2614 151 70.5 148.761 70.5 146C70.5 143.239 68.2614 141 65.5 141C62.7386 141 60.5 143.239 60.5 146C60.5 148.761 62.7386 151 65.5 151Z" fill="white"/>
<path d="M65.5 70.3999C68.2614 70.3999 70.5 68.1613 70.5 65.3999C70.5 62.6385 68.2614 60.3999 65.5 60.3999C62.7386 60.3999 60.5 62.6385 60.5 65.3999C60.5 68.1613 62.7386 70.3999 65.5 70.3999Z" fill="white"/>
<path d="M65.5 30.1C68.2614 30.1 70.5 27.8614 70.5 25.1C70.5 22.3386 68.2614 20.1 65.5 20.1C62.7386 20.1 60.5 22.3386 60.5 25.1C60.5 27.8614 62.7386 30.1 65.5 30.1Z" fill="white"/>
<path d="M65.5 50.2999C68.2614 50.2999 70.5 48.0614 70.5 45.2999C70.5 42.5385 68.2614 40.2999 65.5 40.2999C62.7386 40.2999 60.5 42.5385 60.5 45.2999C60.5 48.0614 62.7386 50.2999 65.5 50.2999Z" fill="white"/>
<path d="M85.6001 90.5C88.3615 90.5 90.6001 88.2614 90.6001 85.5C90.6001 82.7386 88.3615 80.5 85.6001 80.5C82.8387 80.5 80.6001 82.7386 80.6001 85.5C80.6001 88.2614 82.8387 90.5 85.6001 90.5Z" fill="white"/>
<path d="M85.6001 110.7C88.3615 110.7 90.6001 108.461 90.6001 105.7C90.6001 102.939 88.3615 100.7 85.6001 100.7C82.8387 100.7 80.6001 102.939 80.6001 105.7C80.6001 108.461 82.8387 110.7 85.6001 110.7Z" fill="white"/>
<path d="M85.6001 130.8C88.3615 130.8 90.6001 128.561 90.6001 125.8C90.6001 123.039 88.3615 120.8 85.6001 120.8C82.8387 120.8 80.6001 123.039 80.6001 125.8C80.6001 128.561 82.8387 130.8 85.6001 130.8Z" fill="white"/>
<path d="M85.6001 151C88.3615 151 90.6001 148.761 90.6001 146C90.6001 143.239 88.3615 141 85.6001 141C82.8387 141 80.6001 143.239 80.6001 146C80.6001 148.761 82.8387 151 85.6001 151Z" fill="white"/>
<path d="M85.6001 171.1C88.3615 171.1 90.6001 168.861 90.6001 166.1C90.6001 163.339 88.3615 161.1 85.6001 161.1C82.8387 161.1 80.6001 163.339 80.6001 166.1C80.6001 168.861 82.8387 171.1 85.6001 171.1Z" fill="white"/>
<path d="M85.6001 70.3999C88.3615 70.3999 90.6001 68.1613 90.6001 65.3999C90.6001 62.6385 88.3615 60.3999 85.6001 60.3999C82.8387 60.3999 80.6001 62.6385 80.6001 65.3999C80.6001 68.1613 82.8387 70.3999 85.6001 70.3999Z" fill="white"/>
<path d="M85.6001 30.1C88.3615 30.1 90.6001 27.8614 90.6001 25.1C90.6001 22.3386 88.3615 20.1 85.6001 20.1C82.8387 20.1 80.6001 22.3386 80.6001 25.1C80.6001 27.8614 82.8387 30.1 85.6001 30.1Z" fill="white"/>
<path d="M85.6001 50.2999C88.3615 50.2999 90.6001 48.0614 90.6001 45.2999C90.6001 42.5385 88.3615 40.2999 85.6001 40.2999C82.8387 40.2999 80.6001 42.5385 80.6001 45.2999C80.6001 48.0614 82.8387 50.2999 85.6001 50.2999Z" fill="white"/>
<path d="M85.6001 10C88.3615 10 90.6001 7.76142 90.6001 5C90.6001 2.23858 88.3615 0 85.6001 0C82.8387 0 80.6001 2.23858 80.6001 5C80.6001 7.76142 82.8387 10 85.6001 10Z" fill="white"/>
<path d="M166.2 90.5C168.962 90.5 171.2 88.2614 171.2 85.5C171.2 82.7386 168.962 80.5 166.2 80.5C163.439 80.5 161.2 82.7386 161.2 85.5C161.2 88.2614 163.439 90.5 166.2 90.5Z" fill="white"/>
<path d="M146 90.5C148.761 90.5 151 88.2614 151 85.5C151 82.7386 148.761 80.5 146 80.5C143.239 80.5 141 82.7386 141 85.5C141 88.2614 143.239 90.5 146 90.5Z" fill="white"/>
<path d="M146 70.3999C148.761 70.3999 151 68.1613 151 65.3999C151 62.6385 148.761 60.3999 146 60.3999C143.239 60.3999 141 62.6385 141 65.3999C141 68.1613 143.239 70.3999 146 70.3999Z" fill="white"/>
<path d="M146 110.7C148.761 110.7 151 108.461 151 105.7C151 102.939 148.761 100.7 146 100.7C143.239 100.7 141 102.939 141 105.7C141 108.461 143.239 110.7 146 110.7Z" fill="white"/>
<path d="M125.9 90.5C128.662 90.5 130.9 88.2614 130.9 85.5C130.9 82.7386 128.662 80.5 125.9 80.5C123.139 80.5 120.9 82.7386 120.9 85.5C120.9 88.2614 123.139 90.5 125.9 90.5Z" fill="white"/>
<path d="M125.9 70.3999C128.662 70.3999 130.9 68.1613 130.9 65.3999C130.9 62.6385 128.662 60.3999 125.9 60.3999C123.139 60.3999 120.9 62.6385 120.9 65.3999C120.9 68.1613 123.139 70.3999 125.9 70.3999Z" fill="white"/>
<path d="M125.9 50.2999C128.662 50.2999 130.9 48.0614 130.9 45.2999C130.9 42.5385 128.662 40.2999 125.9 40.2999C123.139 40.2999 120.9 42.5385 120.9 45.2999C120.9 48.0614 123.139 50.2999 125.9 50.2999Z" fill="white"/>
<path d="M125.9 110.7C128.662 110.7 130.9 108.461 130.9 105.7C130.9 102.939 128.662 100.7 125.9 100.7C123.139 100.7 120.9 102.939 120.9 105.7C120.9 108.461 123.139 110.7 125.9 110.7Z" fill="white"/>
<path d="M125.9 130.8C128.662 130.8 130.9 128.561 130.9 125.8C130.9 123.039 128.662 120.8 125.9 120.8C123.139 120.8 120.9 123.039 120.9 125.8C120.9 128.561 123.139 130.8 125.9 130.8Z" fill="white"/>
<path d="M105.7 90.5C108.462 90.5 110.7 88.2614 110.7 85.5C110.7 82.7386 108.462 80.5 105.7 80.5C102.939 80.5 100.7 82.7386 100.7 85.5C100.7 88.2614 102.939 90.5 105.7 90.5Z" fill="white"/>
<path d="M105.7 70.3999C108.462 70.3999 110.7 68.1613 110.7 65.3999C110.7 62.6385 108.462 60.3999 105.7 60.3999C102.939 60.3999 100.7 62.6385 100.7 65.3999C100.7 68.1613 102.939 70.3999 105.7 70.3999Z" fill="white"/>
<path d="M105.7 50.2999C108.462 50.2999 110.7 48.0614 110.7 45.2999C110.7 42.5385 108.462 40.2999 105.7 40.2999C102.939 40.2999 100.7 42.5385 100.7 45.2999C100.7 48.0614 102.939 50.2999 105.7 50.2999Z" fill="white"/>
<path d="M105.7 30.1C108.462 30.1 110.7 27.8614 110.7 25.1C110.7 22.3386 108.462 20.1 105.7 20.1C102.939 20.1 100.7 22.3386 100.7 25.1C100.7 27.8614 102.939 30.1 105.7 30.1Z" fill="white"/>
<path d="M105.7 110.7C108.462 110.7 110.7 108.461 110.7 105.7C110.7 102.939 108.462 100.7 105.7 100.7C102.939 100.7 100.7 102.939 100.7 105.7C100.7 108.461 102.939 110.7 105.7 110.7Z" fill="white"/>
<path d="M105.7 151C108.462 151 110.7 148.761 110.7 146C110.7 143.239 108.462 141 105.7 141C102.939 141 100.7 143.239 100.7 146C100.7 148.761 102.939 151 105.7 151Z" fill="white"/>
<path d="M105.7 130.8C108.462 130.8 110.7 128.561 110.7 125.8C110.7 123.039 108.462 120.8 105.7 120.8C102.939 120.8 100.7 123.039 100.7 125.8C100.7 128.561 102.939 130.8 105.7 130.8Z" fill="white"/>
</svg>
