<svg width="37" height="40" viewBox="0 0 37 40" fill="none" xmlns="http://www.w3.org/2000/svg">
<path fill-rule="evenodd" clip-rule="evenodd" d="M33.8686 27.1029C34.4007 22.8419 33.3782 17.8224 30.5609 13.1142C27.7437 8.40598 23.7496 5.04181 19.6591 3.35591C15.5694 1.67032 11.5245 1.70047 8.31878 3.48627C5.11307 5.27207 3.06355 8.63694 2.5316 12.8971C1.99955 17.1581 3.02205 22.1776 5.8393 26.8858C8.65655 31.594 12.6506 34.9582 16.7411 36.6441C20.8308 38.3297 24.8757 38.2995 28.0814 36.5137C31.2871 34.7279 33.3367 31.3631 33.8686 27.1029ZM29.1794 38.3486C37.0563 33.9606 38.5263 22.1885 32.4626 12.0548C26.3989 1.92118 15.0978 -2.73658 7.22086 1.65141C-0.65609 6.03941 -2.12604 17.8115 3.93764 27.9452C10.0013 38.0788 21.3024 42.7366 29.1794 38.3486Z" fill="#A5F018"/>
<path fill-rule="evenodd" clip-rule="evenodd" d="M2.53128 27.1029C1.99923 22.8419 3.02173 17.8224 5.83898 13.1142C8.65623 8.40598 12.6503 5.04181 16.7408 3.35591C20.8305 1.67032 24.8754 1.70047 28.0811 3.48627C31.2868 5.27207 33.3363 8.63694 33.8683 12.8971C34.4004 17.1581 33.3778 22.1776 30.5606 26.8858C27.7433 31.594 23.7493 34.9582 19.6588 36.6441C15.5691 38.3297 11.5242 38.2995 8.31846 36.5137C5.11275 34.7279 3.06323 31.3631 2.53128 27.1029ZM7.22053 38.3486C-0.656411 33.9606 -2.12636 22.1885 3.93732 12.0548C10.001 1.92118 21.3021 -2.73658 29.179 1.65141C37.056 6.03941 38.5259 17.8115 32.4623 27.9452C26.3986 38.0788 15.0975 42.7366 7.22053 38.3486Z" fill="#A5F018"/>
<circle cx="18.2" cy="20" r="3" fill="#A5F018"/>
</svg>
