<svg width="41" height="40" viewBox="0 0 41 40" fill="none" xmlns="http://www.w3.org/2000/svg">
<path fill-rule="evenodd" clip-rule="evenodd" d="M20.6 38.4C30.762 38.4 39 30.162 39 20C39 9.83796 30.762 1.6 20.6 1.6C10.4379 1.6 2.19998 9.83796 2.19998 20C2.19998 30.162 10.4379 38.4 20.6 38.4ZM20.6 40C31.6457 40 40.6 31.0457 40.6 20C40.6 8.95431 31.6457 0 20.6 0C9.55428 0 0.599976 8.95431 0.599976 20C0.599976 31.0457 9.55428 40 20.6 40Z" fill="#A5F018"/>
<path fill-rule="evenodd" clip-rule="evenodd" d="M33.9189 27.1133C37.2819 25.0955 39 22.5309 39 20C39 17.4691 37.2819 14.9045 33.9189 12.8867C30.5878 10.8881 25.8827 9.6 20.6 9.6C15.3173 9.6 10.6121 10.8881 7.28103 12.8867C3.9181 14.9045 2.19998 17.4691 2.19998 20C2.19998 22.5309 3.9181 25.0955 7.28103 27.1133C10.6121 29.1119 15.3173 30.4 20.6 30.4C25.8827 30.4 30.5878 29.1119 33.9189 27.1133ZM20.6 32C31.6457 32 40.6 26.6274 40.6 20C40.6 13.3726 31.6457 8 20.6 8C9.55428 8 0.599976 13.3726 0.599976 20C0.599976 26.6274 9.55428 32 20.6 32Z" fill="#A5F018"/>
<path fill-rule="evenodd" clip-rule="evenodd" d="M27.7133 6.68106C25.6955 3.31812 23.1309 1.6 20.6 1.6C18.0691 1.6 15.5044 3.31812 13.4867 6.68106C11.488 10.0121 10.2 14.7173 10.2 20C10.2 25.2827 11.488 29.9879 13.4867 33.3189C15.5044 36.6819 18.0691 38.4 20.6 38.4C23.1309 38.4 25.6955 36.6819 27.7133 33.3189C29.7119 29.9879 31 25.2827 31 20C31 14.7173 29.7119 10.0121 27.7133 6.68106ZM32.6 20C32.6 8.95431 27.2274 0 20.6 0C13.9726 0 8.59998 8.95431 8.59998 20C8.59998 31.0457 13.9726 40 20.6 40C27.2274 40 32.6 31.0457 32.6 20Z" fill="#A5F018"/>
</svg>
