<svg width="44" height="39" fill="none" xmlns="http://www.w3.org/2000/svg"><path d="M19.067 2.88h-5c0 .644-.626.909-1.306 1.196-.809.342-1.694.717-1.694 1.803h2.5c.009.278-.333.734-.65.734 0 .285.425.18 1.003.036.825-.206 1.962-.489 2.626.175 1.129 1.129 2.57 5.947-1.61 5.947-.712 0-.422.58-.144 1.137.257.514.504 1.009-.057 1.009-.136 0-.29.004-.456.009-1.26.034-3.212.088-3.212-1.552 0-1.044.369-1.182.691-1.302.25-.094.473-.177.473-.665 0-.894-6.718-7.977-10.077-11.407-.23 1.077-.389 3.534.822 4.745H.136c.175.996.987 3.451 2.84 5.304H.136c.237 1.22 1.069 3.661 2.503 3.661 0 .966-.946 1.598-1.42 1.793.262.797 1.151 2.399 2.616 2.429 1.464.03 2.183.558 2.183 1.46 0 1.376-1.473.445-1.473.445.062.598.612 1.793 2.316 1.793 1.703 0 3.1-1.395 3.586-2.092.399 1.22.695 3.661-1.307 3.661 0 1.606 4.427 1.681 4.427-3.66 1.539 0 1.973 2.19 1.998 3.287-.02.722-.503 2.181-2.279 2.241-2.22.075-1.232 4.035.822 5.417-1.524.717-6.056 1.2-6.79 1.211l-.045-.127c-.146-.431-.46-1.355-1.028-1.17-.99-2.157-2.251-4.983-2.644-7.863.501-1.065.403-3.87-.842-2.117-.505-.72-1.148-1.038-1.469-.88-.32.158-.43.73-.43 1.696-1.96-.19-.128 1.765 1.127 1.965 1.11 2.235 1.955 5.113 2.546 7.122l.188.639c-.044.168-.141.26-.235.348-.16.152-.31.293-.167.79.345 1.19 1.236 2.947 3.14 1.374 2.54 0 6.089-.448 9.078-2.054v-.108c-.001-1.926-.002-4.338 1.905-4.338 1.942 0 2.353 1.158 2.353 2.802 0 .68-.897 1.067-1.948 1.52-1.487.639-3.282 1.41-3.282 3.337 0 .926.648 1.083.972 1.046l5.491 3.287 5.492-3.287c.323.037.971-.12.971-1.046 0-1.926-1.795-2.698-3.281-3.338-1.052-.452-1.949-.838-1.949-1.519 0-1.644.41-2.802 2.354-2.802 1.906 0 1.905 2.412 1.905 4.338v.108c2.988 1.606 6.537 2.054 9.078 2.054 1.869 0 2.272-1.235 2.516-1.981l.024-.073c.361-1.096.359-3.288-2.54-3.288-2.9 0-2.902 2.192-2.54 3.288-.735-.013-2.586-.217-4.11-.934 2.055-1.382 3.042-5.342.822-5.417-1.776-.06-2.26-1.52-2.279-2.241.025-1.096.46-3.288 1.999-3.288 0 5.342 4.427 5.267 4.427 3.661-2.003 0-1.706-2.44-1.308-3.66.486.696 1.883 2.091 3.586 2.091 1.704 0 2.254-1.195 2.316-1.793 0 0-1.473.93-1.473-.445 0-.902.719-1.43 2.183-1.46 1.465-.03 2.354-1.631 2.615-2.428-.473-.196-1.42-.828-1.42-1.794 1.435 0 2.267-2.44 2.504-3.66h-2.84c1.854-1.854 2.665-4.31 2.84-5.305h-2.84c1.21-1.21 1.053-3.668.822-4.745-3.359 3.43-10.077 10.513-10.077 11.407 0 .488.223.571.473.665.322.12.692.258.692 1.302 0 1.64-1.953 1.586-3.213 1.552-.166-.005-.32-.01-.456-.01-.56 0-.314-.494-.057-1.008.278-.557.568-1.137-.144-1.137-4.18 0-2.739-4.818-1.61-5.947.664-.664 1.801-.38 2.626-.175.578.143 1.003.25 1.003-.037-.316 0-.659-.455-.65-.733h2.5c0-1.086-.885-1.46-1.694-1.803-.68-.287-1.305-.552-1.305-1.197h-5c.085.406.015 1.453-.949 2.389-.964.936-1.365 3.578-1.445 4.781H21.46c-.08-1.203-.482-3.845-1.446-4.781-.964-.936-1.034-1.983-.948-2.389Z" fill="#1C2A60"/></svg>