<svg width="48" height="48" fill="none" xmlns="http://www.w3.org/2000/svg"><path d="M4.128 4.96v38.066a1.041 1.041 0 0 0 1.035 1.045h8.082c.574 0 1.04-.468 1.04-1.045V4.96c0-.577-.466-1.045-1.04-1.045H5.163A1.033 1.033 0 0 0 4.128 4.96ZM9.84 22.65c.317 0 .574.259.574.577v17.686a.578.578 0 0 1-.574.581H8.567a.575.575 0 0 1-.55-.58V23.225a.578.578 0 0 1 .574-.575h1.25Zm.574-4.967a1.208 1.208 0 0 1-2.069.852 1.218 1.218 0 0 1-.26-1.323 1.21 1.21 0 0 1 2.329.47Zm0-5.056c0 .49-.295.934-.748 1.122a1.207 1.207 0 0 1-1.32-.263 1.22 1.22 0 0 1-.262-1.325 1.211 1.211 0 0 1 2.33.465Zm0-4.68c0 .49-.295.934-.748 1.122a1.207 1.207 0 0 1-1.32-.264 1.219 1.219 0 0 1-.262-1.324 1.21 1.21 0 0 1 2.33.465Zm8.508-2.987v38.066a1.04 1.04 0 0 0 1.035 1.059h8.081a1.04 1.04 0 0 0 1.04-1.06V4.96c0-.577-.465-1.044-1.04-1.044h-8.08a1.033 1.033 0 0 0-1.036 1.044Zm5.713 17.69c.317 0 .573.258.573.576v17.687a.576.576 0 0 1-.573.58H23.36a.572.572 0 0 1-.574-.58V23.226a.577.577 0 0 1 .574-.575h1.274Zm.573-4.968a1.208 1.208 0 0 1-2.069.852 1.219 1.219 0 0 1-.26-1.323 1.21 1.21 0 0 1 2.33.471Zm0-5.056c0 .492-.294.935-.747 1.123a1.208 1.208 0 0 1-1.32-.263 1.219 1.219 0 0 1-.262-1.325 1.21 1.21 0 0 1 2.33.465Zm0-4.68c0 .491-.294.935-.747 1.123a1.208 1.208 0 0 1-1.32-.264 1.219 1.219 0 0 1-.262-1.324 1.21 1.21 0 0 1 2.33.465Zm8.507-2.986v38.066a1.04 1.04 0 0 0 1.036 1.059h8.081a1.04 1.04 0 0 0 1.04-1.06V4.96c0-.577-.465-1.044-1.04-1.044h-8.081a1.033 1.033 0 0 0-1.035 1.044Zm5.714 17.69c.316 0 .573.258.573.576v17.687a.575.575 0 0 1-.573.58h-1.274a.572.572 0 0 1-.574-.58V23.226a.577.577 0 0 1 .574-.575h1.274Zm.573-4.968a1.208 1.208 0 0 1-2.069.852 1.22 1.22 0 0 1-.26-1.323 1.21 1.21 0 0 1 2.33.471Zm0-5.056c0 .492-.294.935-.747 1.123a1.208 1.208 0 0 1-1.32-.263 1.22 1.22 0 0 1-.262-1.325 1.21 1.21 0 0 1 2.33.465Zm0-4.68c0 .491-.294.935-.747 1.123a1.208 1.208 0 0 1-1.32-.264 1.219 1.219 0 0 1-.262-1.324 1.21 1.21 0 0 1 2.33.465Z" fill="#1C2A60"/></svg>