<svg width="377" height="234" fill="none" xmlns="http://www.w3.org/2000/svg"><g clip-path="url(#a)"><path d="m.532 160.759-.027-.028c.002-.112.002-.262.003-.443l.001-1.541v-.558c0-1.669-.002-3.471-.005-4.883 0-.832-.002-1.528-.003-1.983l-.001-.564v-1.508l2.733.573.05.011h.053c.228 0 .476.081.808.232.088.04.184.087.288.136.254.123.549.265.847.375.442.162.95.28 1.54.241.59-.039 1.23-.232 1.941-.644l226.826-131.51c5.064-2.934 11.447-4.57 17.673-4.828 6.23-.258 12.245.866 16.589 3.39h.001l94.512 54.798.116.067h11.987V83.28l.002.02c.042.522.042 1.04-.008 1.556-.354 3.474-3.059 7.17-8.219 10.17l-226.816 131.49.251.433-.251-.433c-5.06 2.935-11.44 4.571-17.666 4.83-6.23.259-12.248-.862-16.597-3.381v-.001L6.27 169.468c-3.611-2.085-5.45-4.784-5.718-7.564a8.556 8.556 0 0 1-.025-.931l.005-.214Z" fill="#1C2A60" stroke="#1C2A60"/><path d="M376.458 71.542v-.002c.35-3.33-1.448-6.653-5.719-9.122L269.849 3.923h-.001c-4.344-2.524-10.359-3.648-16.589-3.39-6.226.258-12.609 1.894-17.673 4.829L8.77 136.88c-5.935 3.437-8.62 7.807-8.22 11.714v.003c.267 2.781 2.106 5.481 5.719 7.567l100.89 58.495v.001c4.349 2.519 10.367 3.641 16.597 3.381 6.226-.259 12.606-1.895 17.666-4.83l.251.433-.251-.433 226.816-131.5 8.219-10.17Zm0 0c-.354 3.474-3.059 7.17-8.219 10.17l8.219-10.17Z" fill="#fff" stroke="#1C2A60"/><path d="m262.647 11.28-.251.432 94.906 55.024c2.479 1.437 3.459 3.336 3.227 5.209-.236 1.91-1.753 3.983-4.687 5.682l-180.81 104.83.251.432-.251-.432c-2.919 1.693-6.608 2.641-10.212 2.791-3.609.15-7.076-.501-9.566-1.946l-.251.433.251-.433-94.906-55.023c-2.479-1.437-3.459-3.336-3.227-5.209.236-1.911 1.753-3.983 4.686-5.682l180.811-104.83-.251-.433.251.433c2.918-1.693 6.608-2.641 10.212-2.791 3.609-.15 7.076.501 9.566 1.945l.251-.432Z" fill="#fff" stroke="#1C2A60"/><path d="M92.515 176.835c-3.35 1.94-7.576 3.026-11.704 3.197-4.133.172-8.11-.574-10.978-2.235-2.85-1.653-3.99-3.848-3.721-6.026.275-2.216 2.029-4.601 5.388-6.547 3.349-1.941 7.575-3.026 11.704-3.197 4.133-.172 8.11.574 10.977 2.235 2.854 1.653 3.995 3.848 3.725 6.026-.276 2.216-2.032 4.601-5.391 6.547Z" fill="#1C2A60" stroke="#1C2A60"/><path d="m199.666 126.627-46.651-27.044c-7.945-4.614-6.956-12.624 2.234-17.944l53.894-31.24c9.157-5.32 23.038-5.897 30.951-1.282l46.651 27.043c7.945 4.614 6.956 12.625-2.234 17.944l-53.894 31.241c-9.126 5.319-23.006 5.896-30.951 1.282Z" fill="#fff" stroke="#1C2A60"/><path d="m217.575 109.081-10.033-5.792 5.659-14.002 13.073-1.768-8.699 21.562Zm12.944-32.114-3.015 7.497-42.697 5.7-10.033-5.792 55.745-7.404Z" fill="#1C2A60"/><path d="m243.964 82.15-10.032-5.791 17.542-2.206 10.227 5.706-17.737 2.291Z" fill="#0196F0"/></g><defs><clipPath id="a"><path fill="#fff" d="M0 0h377v234H0z"/></clipPath></defs></svg>