<svg width="119" height="38" fill="none" xmlns="http://www.w3.org/2000/svg"><path d="M23.805 18.873c0-.651-.082-1.3-.241-1.93-.9-3.54-4.128-6.013-7.848-6.013H0v26.993h15.718c.22 0 .438-.008.646-.025 3.464-.27 6.359-2.676 7.2-5.988a7.85 7.85 0 0 0 .24-1.93 7.894 7.894 0 0 0-2.305-5.553 7.89 7.89 0 0 0 2.306-5.553Zm-9.682 13.24H6.805V28h7.38c1.19 0 2.15.98 2.091 2.16-.056 1.105-1.026 1.954-2.153 1.954Zm.062-11.003h-7.38v-4.113h7.38c1.155 0 2.094.922 2.094 2.057 0 1.134-.94 2.056-2.094 2.056Zm42.197 16.815h-7.96L41.046 25.95l3.97-6.459 11.366 18.433ZM39.45 10.477l3.955 6.405-13.02 21.043h-7.96L39.45 10.477Z" fill="#1C2A60"/><path d="M48.346 8.688h-7.959L45.83.138 53.808 0l-5.462 8.688Z" fill="#0196F0"/><path d="M52.594 19.509c0 4.232 3.614 8.335 8.559 8.26h10.339c.974 0 1.766.777 1.766 1.734s-.792 1.735-1.766 1.735H55.596l3.92 6.684c2.48-.014 7.762 0 12.211 0 3.21 0 8.095-2.583 8.095-8.352 0-5.543-3.54-7.53-6.085-8.194-1.433-.559-10.552-.196-12.224-.293-.974 0-2.125-.446-2.125-1.735 0-1.013.673-1.735 2.125-1.735.786 0 15.05-.011 16.199 0v-6.476H60.91c-4.592 0-8.317 3.578-8.317 8.372Zm36.512-8.372H82.3v26.786h6.805V11.137Zm2.667 8.449c0 4.232 3.614 8.335 8.559 8.259h10.337c.975 0 1.767.778 1.767 1.735 0 .957-.792 1.735-1.767 1.735H91.773v6.684c2.483-.014 14.682 0 19.132 0 3.209 0 8.095-2.583 8.095-8.352 0-5.543-3.54-7.53-6.086-8.194-1.433-.559-10.551-.196-12.224-.293-.974 0-2.124-.446-2.124-1.735 0-1.013.674-1.735 2.124-1.735.787 0 15.052-.011 16.199 0v-6.476H100.09c-4.594 0-8.317 3.578-8.317 8.372Z" fill="#1C2A60"/></svg>