<svg width="248" height="302" fill="none" xmlns="http://www.w3.org/2000/svg"><rect width="248" height="302" rx="12" fill="#7030A0"/><path d="M231.86 225.801a3.73 3.73 0 0 1-.686 1.873 3.794 3.794 0 0 1-1.56 1.262l-77.325 43.994a12.067 12.067 0 0 1-10.806 0L28.657 208.375a3.761 3.761 0 0 1-1.53-1.233 3.702 3.702 0 0 1-.69-1.828v3.9a3.77 3.77 0 0 0 .7 1.822c.389.536.913.964 1.52 1.239l112.826 64.555a11.987 11.987 0 0 0 5.403 1.285c1.879 0 3.73-.44 5.403-1.285l77.325-43.994a3.829 3.829 0 0 0 1.567-1.262c.4-.551.643-1.198.704-1.873l-.025-3.9Z" fill="#1C2A60"/><path d="M152.289 272.954a12.025 12.025 0 0 1-5.415 1.286c-1.883 0-3.739-.44-5.416-1.286L29.15 208.777a3.322 3.322 0 0 1-1.61-1.2 3.257 3.257 0 0 1 0-3.797c.398-.555.96-.974 1.61-1.199l76.918-43.913a12.068 12.068 0 0 1 10.807 0l112.308 64.271c.607.363 1.206.684 1.6 1.243.393.558.601 1.223.596 1.903a3.266 3.266 0 0 1-.627 1.894c-.402.552-.934.885-1.592 1.27l-76.871 43.705Z" fill="#fff" stroke="#1C2A60"/><path d="M192.215 244.33a7.793 7.793 0 0 0-6.581 0c-1.815.966-1.815 2.533 0 3.504a7.794 7.794 0 0 0 6.581 0c1.815-.971 1.815-2.538 0-3.504Z" stroke="#1C2A60"/><path d="m30.82 206.975 108.169 62.039 83.208-47.402-108.169-62.039-83.208 47.402Z" fill="#7030A0" stroke="#1C2A60"/><mask id="a" style="mask-type:alpha" maskUnits="userSpaceOnUse" x="29" y="158" width="195" height="112"><path d="m30.82 206.975 108.169 62.039 83.208-47.402-108.169-62.039-83.208 47.402Z" fill="#FFA6A0" stroke="#1C2A60"/></mask><g mask="url(#a)"><path d="M170.09 224.826c-.385.239-.524-.411-.957-.552a9.029 9.029 0 0 0-3.371-1.269c-3.383-.598-8.587.11-9.74 3.51a15.441 15.441 0 0 0-9.401 2.204c-2.994 1.983-3.749 5.466-.079 8.017a5.923 5.923 0 0 0-3.112 2.957c-1.796 5.405 9.76 8.787 16.469 4.224 4.226-2.421 19.715-11.333 22.522-12.993a3.448 3.448 0 0 0 1.514-1.473c2.677-5.152-8.311-8.265-13.845-4.625Zm-35.757-19.313c-.385.239-.524-.41-.956-.552a9.04 9.04 0 0 0-3.372-1.269c-3.383-.598-8.587.11-9.74 3.51a15.436 15.436 0 0 0-9.4 2.204c-2.995 1.983-3.75 5.466-.08 8.017a5.92 5.92 0 0 0-3.111 2.957c-1.796 5.405 9.759 8.787 16.468 4.224 4.226-2.421 19.715-11.333 22.522-12.993a3.448 3.448 0 0 0 1.514-1.473c2.677-5.152-8.311-8.265-13.845-4.625Zm-34.145-19.859c-.386.239-.525-.411-.957-.553a9.033 9.033 0 0 0-3.371-1.268c-3.383-.598-8.588.109-9.74 3.51a15.438 15.438 0 0 0-9.4 2.203c-2.995 1.984-3.75 5.466-.08 8.017a5.925 5.925 0 0 0-3.112 2.957c-1.796 5.406 9.76 8.787 16.468 4.224 4.227-2.421 19.716-11.333 22.523-12.992a3.448 3.448 0 0 0 1.513-1.474c2.678-5.152-8.311-8.265-13.844-4.624Z" fill="#fff" stroke="#1C2A60"/><path opacity=".1" d="M120.278 217.95c-3.548-13.098.854-20.58 34.479-34.478l35.72 14.907c-28.18 16.138-43.535 20.271-70.199 19.571Z" fill="#000"/></g><path d="m76.074 177.785-9.983 5.752c-.3.172-.35.444 0 .592a1.203 1.203 0 0 0 1.048 0l9.983-5.751c.3-.173.35-.445 0-.593a1.136 1.136 0 0 0-1.048 0Z" fill="#1C2A60"/><path d="M97.233 86.064 39.181 54.008a1.795 1.795 0 0 0-1.724.037 1.758 1.758 0 0 0-.866 1.486v49.401a1.803 1.803 0 0 0 .906 1.548l58.027 32.005a1.759 1.759 0 0 0 1.735-.044 1.747 1.747 0 0 0 .855-1.505V87.587a1.75 1.75 0 0 0-.88-1.523Z" fill="#FFC000"/><path d="M99.742 85.026 41.689 52.97a1.768 1.768 0 0 0-1.724.037l-2.071.857a1.795 1.795 0 0 1 1.287.144l58.052 32.056a1.758 1.758 0 0 1 .881 1.523v49.349c0 .175-.026.348-.077.514a1.76 1.76 0 0 0 1.73-.046 1.76 1.76 0 0 0 .855-1.505v-49.35a1.76 1.76 0 0 0-.88-1.523Z" fill="#FFC000"/><path d="m98.032 137.447.005.003m-60.58-83.405a1.758 1.758 0 0 0-.866 1.486v49.401a1.803 1.803 0 0 0 .906 1.548l58.027 32.005a1.759 1.759 0 0 0 1.735-.044 1.747 1.747 0 0 0 .778-.991m-60.58-83.405a1.74 1.74 0 0 1 .437-.181m-.437.18.437-.18m0 0 2.071-.857a1.767 1.767 0 0 1 1.724-.037l58.053 32.056a1.76 1.76 0 0 1 .88 1.523v49.35a1.76 1.76 0 0 1-2.585 1.551M37.894 53.864a1.795 1.795 0 0 1 1.287.144l58.052 32.056a1.758 1.758 0 0 1 .881 1.523v49.349c0 .175-.026.348-.077.514" stroke="#1C2A60"/><path d="m217.551 89.037-58.052-32.056a1.793 1.793 0 0 0-1.724.037 1.761 1.761 0 0 0-.866 1.486v49.401a1.805 1.805 0 0 0 .906 1.548l58.027 32.005c.268.143.569.214.873.206a1.76 1.76 0 0 0 1.717-1.754V90.56a1.756 1.756 0 0 0-.881-1.523Z" fill="#FFC000"/><path d="m220.06 88-58.052-32.057a1.768 1.768 0 0 0-1.725.037l-2.071.857a1.793 1.793 0 0 1 1.287.144l58.052 32.056a1.756 1.756 0 0 1 .881 1.523v49.35c0 .174-.026.347-.077.513.536.283 1.21.265 1.73-.046a1.76 1.76 0 0 0 .856-1.505v-49.35A1.752 1.752 0 0 0 220.06 88Z" fill="#FFC000"/><path d="m218.35 140.42.005.003m1.73-.046a1.76 1.76 0 0 0 .856-1.505v-49.35A1.752 1.752 0 0 0 220.06 88l-58.052-32.056a1.768 1.768 0 0 0-1.725.037l-2.071.857m61.873 83.54-2.508 1.038m2.508-1.038a1.792 1.792 0 0 1-1.73.046m-60.58-83.405a1.761 1.761 0 0 0-.866 1.486v49.401a1.805 1.805 0 0 0 .906 1.548l58.027 32.005c.268.143.569.214.873.206a1.78 1.78 0 0 0 .862-.249m-59.802-84.397c.137-.08.284-.14.437-.18m-.437.18.437-.18m59.365 84.577a1.76 1.76 0 0 0 .778-.992m-60.143-83.586a1.793 1.793 0 0 1 1.287.144l58.052 32.056a1.756 1.756 0 0 1 .881 1.523v49.35c0 .174-.026.347-.077.513" stroke="#1C2A60"/><path d="M149.71 208.393c-4.516 3.485-14.18 7.807-14.18 7.807l5.576-6.335c-3.772.93-7.713.93-11.484 0h-.6a113.92 113.92 0 0 1-25.577-35.082 200.896 200.896 0 0 1-16.162-50.284l-9.481.53-1.372-10.226L86.47 109c10.89 4.2 27.552 6.324 37.451-1.113 8.284 15.162 17.741 26.685 30.648 38.171 2.698 2.428 6.713 6.536 9.771 8.874-1.16 17.395 1.023 41.38-14.63 53.461Z" fill="#fff" stroke="#1C2A60"/><path d="m164.216 154.897-9.437 5.583-5.517.96-18.381 3.238-1.739-2.489-9.505-13.553-3.898-25.907-1.44-9.655 9.622-5.388c8.248 15.152 17.784 26.876 30.648 38.372 2.848 2.278 6.588 6.5 9.647 8.839Z" fill="#fff" stroke="#1C2A60"/><path d="M141.705 212.024a20.987 20.987 0 0 1-21.139 5.007 116.437 116.437 0 0 1-26.716-37.51 208.786 208.786 0 0 1-17.391-64.168C103.445 125.758 114 113 114 113c8.276 15.261 19.375 29.116 32.383 40.614a138.466 138.466 0 0 0 8.306 6.866c.09 0 1.859 36.941-12.984 51.544Z" fill="#fff" stroke="#1C2A60"/><path d="M113.442 120.298s-9.956 9.277-32.056 1.667c0 0 5.597 57.735 38.7 87.48 31.874 7.766 29.146-48.245 29.146-48.245-14.18-10.893-27.607-25.266-35.79-40.902Z" fill="#FFC000" stroke="#1C2A60"/><path d="M118.974 164.592a2.57 2.57 0 0 0 1.373-2.684 10.139 10.139 0 0 0-5.178-7.613c-2.757-1.474-4.948-.5-4.86 2.241a8.99 8.99 0 0 0 2.106 4.968.768.768 0 0 1 .017.556l-1.571 11.581a.766.766 0 0 0 .407.751l8.063 4.463a.76.76 0 0 0 1.074-.379.758.758 0 0 0 .046-.421l-2.144-12.608c.055-.453.32-.844.667-.855Z" fill="#FFB63D"/><path d="m119.275 179.274-8.062-4.429a1.143 1.143 0 0 1-.593-1.162l1.571-11.581a.865.865 0 0 0-.009-.278A9.132 9.132 0 0 1 110 156.65a3.163 3.163 0 0 1 1.295-2.924 4.24 4.24 0 0 1 4.144.317 10.7 10.7 0 0 1 5.362 7.954 3.052 3.052 0 0 1-1.603 3.074.38.38 0 0 0-.299.426l2.144 12.608c.034.211.037.513-.042.711-.249.624-1.14.735-1.726.458Zm-6.584-25.35c-.376.013-.743.12-1.067.312a2.396 2.396 0 0 0-.935 2.218 8.54 8.54 0 0 0 2.028 4.728c.182.248.266.554.236.86l-1.571 11.582a.486.486 0 0 0 .012.382l8.271 4.456a.31.31 0 0 0 .382-.012.311.311 0 0 0-.011-.347l-2.144-12.608a1.215 1.215 0 0 1 .758-1.275 2.287 2.287 0 0 0 1.14-2.329 9.747 9.747 0 0 0-4.958-7.272 4.712 4.712 0 0 0-2.141-.695Z" fill="#1C2A60"/><path d="M114.792 174.904a.838.838 0 0 1-.407-.786l1.536-11.581a.76.76 0 0 0-.018-.555 8.985 8.985 0 0 1-2.105-4.968 2.497 2.497 0 0 1 1.614-2.727c-2.757-1.474-4.948-.5-4.86 2.241a8.997 8.997 0 0 0 2.105 4.968.763.763 0 0 1 .018.556l-1.571 11.581a.758.758 0 0 0 .407.751l8.063 4.464a.766.766 0 0 0 1.033-.312.77.77 0 0 0 .09-.385l-5.905-3.247Z" fill="#1C2A60"/><path d="M66.454 80.856c-3.185-2.935-6.554-3.786-9.397-2.778-2.706.958-4.936 3.6-6.077 7.727-2.148 7.8.358 18.198 5.627 24.297.438.503.904.981 1.394 1.433 2.994 2.762 6.164 3.676 8.9 2.932.441-.12.87-.283 1.285-.487 1.711-.844 3.188-2.402 4.252-4.619a16.64 16.64 0 0 0 1.023-2.775c2.34-8.492-.805-20-7.007-25.73Z" fill="#fff"/><path d="M77.628 107.363a16.82 16.82 0 0 0 1.023-2.775c2.34-8.491-.806-20-7.008-25.73-3.216-2.964-6.62-3.802-9.481-2.748l-5.105 1.968c2.843-1.008 6.212-.157 9.397 2.778 6.202 5.73 9.348 17.239 7.008 25.73a16.733 16.733 0 0 1-1.024 2.775c-1.064 2.217-2.54 3.775-4.252 4.619l4.798-1.819c1.877-.791 3.499-2.414 4.644-4.798Z" fill="#fff"/><path d="M57.056 78.078c2.844-1.008 6.213-.157 9.398 2.778 6.202 5.73 9.348 17.239 7.008 25.73a16.733 16.733 0 0 1-1.024 2.775c-1.064 2.217-2.54 3.775-4.252 4.619m-11.13-35.902c-2.705.958-4.935 3.6-6.076 7.727-2.148 7.8.358 18.198 5.627 24.297.438.503.904.981 1.394 1.433 2.994 2.762 6.164 3.676 8.9 2.932m-9.844-36.39 5.105-1.967c2.86-1.054 6.265-.216 9.48 2.749 6.203 5.729 9.349 17.238 7.009 25.729a16.82 16.82 0 0 1-1.023 2.775c-1.145 2.384-2.767 4.007-4.644 4.798l-4.798 1.819m-1.284.487 1.284-.487m-1.284.487c.44-.12.87-.283 1.284-.487" stroke="#1C2A60"/><path d="M62.437 104.561a3.293 3.293 0 0 1-1.1-.385 5.256 5.256 0 0 1-1.355-1.101 9.347 9.347 0 0 1-1.706-2.741 10.868 10.868 0 0 1-.749-2.994 7.398 7.398 0 0 1 .43-3.49c.187-.475.46-.911.803-1.288a2.84 2.84 0 0 1 2.675-.925c2.51.43 4.822 3.677 5.163 7.255 0 .264-.11.462-.297.43a.584.584 0 0 1-.396-.551c-.286-3.028-2.202-5.78-4.404-6.143a2.39 2.39 0 0 0-2.267.77 3.655 3.655 0 0 0-.683 1.101 6.232 6.232 0 0 0-.363 2.95c.082.88.297 1.74.638 2.555.353.869.86 1.667 1.497 2.356.315.362.687.671 1.101.913.339.192.714.312 1.101.353.573 0 .936-.209.804-1.498a1.727 1.727 0 0 0-.562-1.1 2.51 2.51 0 0 0-.528-.353 3.08 3.08 0 0 1-1.96-2.785 2.82 2.82 0 0 1 .176-1.354c.078-.198.287-.22.463 0a.704.704 0 0 1 .154.704 1.75 1.75 0 0 0-.1.815 1.849 1.849 0 0 0 1.256 1.618h.055a3.078 3.078 0 0 1 1.794 2.588c.154 1.629-.297 2.433-1.343 2.366l-.297-.066Z" fill="#1C2A60"/><path d="M63.517 99.073a.639.639 0 0 1-.375-.583 2.32 2.32 0 0 0-.506-1.343 1.377 1.377 0 0 0-.606-.44.628.628 0 0 1-.363-.584c0-.264.132-.44.33-.386a2.14 2.14 0 0 1 1.002.716c.502.629.794 1.398.837 2.202-.011.264-.143.418-.32.418Z" fill="#1C2A60"/><path d="M62.514 102.668a3.874 3.874 0 0 1-2.41-1.783 6.928 6.928 0 0 1-1.179-3.468c-.143-2.29.991-3.941 2.587-3.776a.594.594 0 0 1 .408.528c0 .275-.088.485-.276.463-1.255-.133-2.146 1.166-2.025 2.95a5.5 5.5 0 0 0 .925 2.708 3.093 3.093 0 0 0 1.893 1.398.596.596 0 0 1 .385.551c.022.275-.11.462-.308.429Z" fill="#1C2A60"/><path d="M57.065 100.444a.505.505 0 0 1-.353-.385 12.765 12.765 0 0 1-.616-2.918 8.63 8.63 0 0 1 1.222-5.79 3.875 3.875 0 0 1 4.117-1.674 7.52 7.52 0 0 1 4.404 3.303c.355.519 1.363 2.108 1.882 4.015.616 2.258.638 4.852-.626 5.108a.852.852 0 0 1-.596-.085 3.09 3.09 0 0 1-1.64-2.025 5.139 5.139 0 0 1-.253-1.41c0-.264.143-.429.33-.374a.65.65 0 0 1 .363.595c.017.344.08.685.188 1.013.067.275.196.531.377.748.204.245.643.702 1.003.622.972-.396.587-4.187-1.028-6.88-1.278-2.13-3.163-3.416-4.228-3.639a3.401 3.401 0 0 0-3.787 1.442 7.63 7.63 0 0 0-1.1 5.153c.09.879.275 1.746.55 2.587.088.264 0 .528-.143.583a.15.15 0 0 1-.066.011Z" fill="#1C2A60"/><path d="M55.38 93.024a.408.408 0 0 1-.154-.077.716.716 0 0 1-.22-.693 7.046 7.046 0 0 1 2.279-3.732 4.69 4.69 0 0 1 3.787-.947c2.202.385 4.48 2.202 6.143 4.92a.639.639 0 0 1 0 .683c-.132.144-.352.078-.496-.154a8.808 8.808 0 0 0-5.57-4.403c-2.543-.44-4.657 1.189-5.505 4.238-.021.11-.131.187-.264.165Zm4.646 12.253c-.317-.276-.198-1.233.198-.847a6.467 6.467 0 0 0 2.808 1.233c.387 0 .67.062.726.528.172 1.429-3.385-.64-3.732-.914Z" fill="#1C2A60"/><path d="M65.86 89.358a.397.397 0 0 1-.197-.11 8.807 8.807 0 0 0-4.69-2.719 5.185 5.185 0 0 0-3.798.77c-.154.1-.374 0-.485-.275a.517.517 0 0 1 .067-.638 5.593 5.593 0 0 1 4.117-.837 9.456 9.456 0 0 1 5.086 2.94.694.694 0 0 1 .165.693.241.241 0 0 1-.264.176Z" fill="#1C2A60"/><path d="m177.07 80.855-9.033 9.734 9.749 20.1 16.799 9.396 9.033-9.734-9.75-20.1-16.798-9.396Z" fill="#fff"/><path d="m197.737 88.376-16.799-9.396-3.868 1.875 16.798 9.397 3.869-1.876Z" fill="#fff"/><path d="m207.486 108.476-9.749-20.1-3.869 1.876 9.75 20.099 3.868-1.875Z" fill="#fff"/><path d="m198.453 118.21 9.033-9.734-3.868 1.875-9.033 9.734 3.868-1.875Z" fill="#fff"/><path d="m207.486 108.476-9.033 9.734-3.868 1.875m12.901-11.609-9.749-20.1m9.749 20.1-3.868 1.875m-5.881-21.975-16.799-9.396-3.868 1.875m20.667 7.521-3.869 1.876m-16.798-9.397-9.033 9.734 9.749 20.1 16.799 9.396m-17.515-39.23 16.798 9.397m.717 29.833 9.033-9.734m0 0-9.75-20.1" stroke="#1C2A60"/><path d="M190.65 99.906c-.005-.221-.188-.438-.546-.606l-6.412-2.973a2.448 2.448 0 0 0-.95-.257l-.052-2.166a.793.793 0 0 1 .321-.746 2.949 2.949 0 0 1 1.949.101 4.247 4.247 0 0 1 2.619 3.417c.014.575 1.271.722 1.269.058a5.964 5.964 0 0 0-3.56-4.56 3.535 3.535 0 0 0-3.1-.16 1.987 1.987 0 0 0-1.09 1.928l.058 2.387-.874.449c-.364.2-.535.455-.515.69l.158 6.544c.005.221.187.438.545.606l6.667 3.144c.309.105.636.148.962.124a2.95 2.95 0 0 0 1.32-.282l.874-.449c.364-.186.535-.426.53-.647l-.158-6.588-.015-.014Z" fill="#1C2A60"/></svg>