<svg width="248" height="302" fill="none" xmlns="http://www.w3.org/2000/svg"><rect width="248" height="302" rx="12" fill="#DE1E59"/><path d="M34.104 135.991h2.14v.315l10.298-5.591a3.524 3.524 0 0 1 3.13.137l22.742 12.641v-.256h2.19c0 .428.036 1.24-.262 1.407-.299.168-12.56 6.981-12.56 6.981a3.248 3.248 0 0 1-2.914-.119s-24.095-13.865-24.485-14.195c-.389-.331-.279-.886-.279-1.32Z" fill="#1C2A60"/><path d="M34.63 135.873c-.121.075-.118.261 0 .335l24.238 13.901a3.19 3.19 0 0 0 2.914.118l12.306-6.813a.195.195 0 0 0 .058-.245.198.198 0 0 0-.058-.07l-24.395-13.566a3.473 3.473 0 0 0-3.131-.118l-11.932 6.458Z" fill="#fff" stroke="#1C2A60"/><path d="M61.171 105.237c-5.453-3.092-11.32 0-11.282 5.788l16.165 31.64.69-.384-.257-28.558a10.255 10.255 0 0 0-5.316-8.486Z" fill="#1C2A60"/><path d="M60.108 105.847c-5.454-3.091-11.321 0-11.262 5.789l.177 20.87 16.598 9.412-.256-27.565a10.2 10.2 0 0 0-5.257-8.506Z" fill="#fff" stroke="#1C2A60"/><path d="m97.794 91.238-6.32 51.487a3.524 3.524 0 0 1-3.604 3.446 5.753 5.753 0 0 1-1.102-.118l-20.162-12.149-1.103-.669-6.182-3.662-10.416-6.262-27.565-16.578a1.828 1.828 0 0 1-1.004-1.831l5.277-51.074c.07-.506.313-.973.689-1.32a3.938 3.938 0 0 1 4.213-.649l12.975 7.344 8.585 4.863.236.138.237.138 4.272 2.422.867.492.256.138 25.95 14.688 12.896 7.324a1.83 1.83 0 0 1 1.005 1.832Z" fill="#1C2A60"/><path d="m96.534 92.123-6.42 52.138a2.6 2.6 0 0 1-3.937 1.575l-12.286-7.108s-51.504-29.287-52.728-30.243c-1.225-.955-2.125-2.327-2.027-3.697l6.339-50.92a2.6 2.6 0 0 1 3.938-1.576l66.136 37.96a1.968 1.968 0 0 1 .984 1.871Z" fill="#fff" stroke="#1C2A60"/><path d="m93.58 93.817-5.907 47.707a1.413 1.413 0 0 1-.835.964 1.419 1.419 0 0 1-1.271-.098l-3.308-1.851-7.6-4.311-5.198-2.914-8.683-4.903-5.75-3.269-8.525-4.804-23.288-13.444c-.936-.601-1.602-1.572-1.497-2.677l5.923-47.416a1.437 1.437 0 0 1 2.126-.886l3.938 2.245 8.683 4.863 5.769 3.248 8.663 4.903 5.198 2.934 7.206 4.075 23.017 12.995a2.718 2.718 0 0 1 1.339 2.639Z" fill="#0196F0" stroke="#1C2A60"/><path d="M69.949 197.208c12.392-7.015 32.492-7.015 44.912 0 6.046 3.415 9.151 8.003 9.287 12.378v7.656c0 4.482-3.241 8.936-9.287 12.351-12.42 7.016-32.52 7.016-44.912 0-6.046-3.415-9.151-7.869-9.288-12.351v-7.656c.137-4.481 3.242-8.963 9.288-12.378Z" fill="#fff" stroke="#1C2A60"/><path d="M69.955 197.208c-12.391 7.016-12.391 18.38 0 25.396 12.39 7.016 32.489 7.016 44.907 0s12.391-18.38 0-25.396c-12.391-7.015-32.516-7.095-44.907 0Z" fill="#fff" stroke="#1C2A60"/><path d="M121.115 209.826c0 4.042-3.085 7.818-8.333 10.612-5.227 2.784-12.482 4.52-20.524 4.52-8.04 0-15.296-1.736-20.523-4.52-5.249-2.794-8.334-6.57-8.334-10.612s3.085-7.817 8.334-10.612c5.227-2.783 12.482-4.52 20.523-4.52 8.042 0 15.297 1.737 20.524 4.52 5.248 2.795 8.333 6.57 8.333 10.612Z" fill="#1C2A60" fill-opacity=".2" stroke="#1C2A60"/><path d="M92.258 199.367c5.671 0 11.27 1.236 16.391 3.619 4.494 2.396 6.598 5.456 6.598 8.392 0 2.936-2.104 6.001-6.598 8.409a38.864 38.864 0 0 1-16.39 3.619 38.863 38.863 0 0 1-16.391-3.619c-4.494-2.408-6.598-5.473-6.598-8.409 0-2.936 2.103-5.996 6.597-8.392a38.866 38.866 0 0 1 16.391-3.619Z" fill="#0196F0" stroke="#1C2A60"/><path d="m123.57 167.521 4.496-2.687-10.52-5.02-4.496 2.51a56.013 56.013 0 0 0-15.69-2.818v-3.787H83.874v3.787a61.058 61.058 0 0 0-15.286 3.875l-5.304-2.95-9.89 5.504 5.754 2.731a16.243 16.243 0 0 0-4.28 4.962 15.966 15.966 0 0 0-1.25 2.876h-5.755v7.134h6.16a14.717 14.717 0 0 0 6.069 7.619l-3.956 2.862 10.52 4.976 4.18-2.466a50.968 50.968 0 0 0 15.69 2.95v3.259h13.487v-3.567a63.485 63.485 0 0 0 15.285-3.699l4.496 2.29 9.89-5.505-.573-.224-4.597-1.801a16.177 16.177 0 0 0 5.889-8.191h6.159v-7.178h-6.428a12.129 12.129 0 0 0-2.483-4.398 12.43 12.43 0 0 0-4.081-3.044Zm-18.252 17.967a41.27 41.27 0 0 1-26.03 0c-1.704-.751-3.427-1.493-4.814-2.757-3.363-3.065-2.058-6.841 3.915-9.353a40.697 40.697 0 0 1 27.783 0c5.973 2.512 7.278 6.288 3.915 9.353-1.255 1.143-3.171 2.097-4.769 2.757Z" fill="#fff"/><path d="m53.393 172.928 1.474.7a16.243 16.243 0 0 1 4.28-4.962l-5.754-2.731v6.993Zm74.673-8.094-4.496 2.687a12.43 12.43 0 0 1 4.496 3.539v-6.226Zm-53.592 17.897c.94-.857 2.245-1.658 3.915-2.36a40.697 40.697 0 0 1 27.783 0c1.67.702 2.975 1.503 3.915 2.36 3.363-3.065 2.058-6.841-3.915-9.353a40.697 40.697 0 0 0-27.783 0c-5.973 2.512-7.278 6.288-3.915 9.353Zm-26.61.907v6.993h6.159v-6.993h-6.16Z" fill="#fff"/><path d="M60.092 191.257a14.717 14.717 0 0 1-6.07-7.619v6.993a14.569 14.569 0 0 0 2.114 3.974v-.486l3.956-2.862Zm70.311-2.123h6.159v-6.993h-6.159v6.993Zm0-6.993a16.177 16.177 0 0 1-5.889 8.191l4.597 1.801c.53-.949.964-1.954 1.292-2.999v-6.993Zm-10.609 22.714 9.89-5.504v-6.994l-9.89 5.505v6.993Zm-4.496-2.29 4.496 2.29v-6.993l-4.496-2.29v6.993Zm-15.285 3.699a63.485 63.485 0 0 0 15.285-3.699v-6.993a63.485 63.485 0 0 1-15.285 3.699v6.993Zm-13.487.309v3.258h13.487v-6.993H86.526v3.735Zm-15.69-2.951a50.999 50.999 0 0 0 15.69 2.951v-6.994a50.968 50.968 0 0 1-15.69-2.95v6.993Zm-4.181 2.466 4.181-2.466v-6.993l-4.18 2.466v6.993Z" fill="#fff"/><path d="m56.136 201.112 10.52 4.976v-6.993l-10.52-4.976v6.993Z" fill="#fff"/><path d="M47.864 183.497v7.134m0 0h6.159m-6.16 0v-6.993m6.16 6.993a14.569 14.569 0 0 0 2.112 3.974m-2.112-3.974v-6.993m12.632 22.45-10.52-4.976v-6.507m10.52 11.483 4.181-2.466m-4.18 2.466v-6.993m4.18 4.527a50.999 50.999 0 0 0 15.69 2.951m-15.69-2.951v-6.993m15.69 9.944v3.258h13.487v-3.567m-13.487.309v-3.735m13.487 3.426a63.485 63.485 0 0 0 15.285-3.699m-15.285 3.699v-3.426m15.285-.273 4.496 2.29m-4.496-2.29v-6.993m4.496 9.283 9.89-5.504v-6.994m-9.89 12.498v-6.993m10.609-8.728h6.159m-6.159 0a15.945 15.945 0 0 1-1.292 2.999m1.292-2.999v-6.993m6.159 6.993v-7.178m0 7.178v-6.993m-8.496-17.307-4.496 2.687a12.43 12.43 0 0 1 4.496 3.539m0-6.226-10.52-5.02-4.496 2.51a56.013 56.013 0 0 0-15.69-2.818v-3.787H83.874v3.787a61.058 61.058 0 0 0-15.286 3.875l-5.304-2.95-9.89 5.504m74.672-1.101v6.226m-74.673-5.125 5.755 2.731a16.243 16.243 0 0 0-4.28 4.962m-1.475-7.693v6.993l1.474.7m-7.003 10.01v-7.134h5.754a15.966 15.966 0 0 1 1.25-2.876m-7.005 10.01h6.16m0 0a14.717 14.717 0 0 0 6.069 7.619l-3.956 2.862m0 0 10.52 4.976m-10.52-4.976v.486m10.52 4.49 4.18-2.466m0 0a50.968 50.968 0 0 0 15.69 2.95v3.259m0 0h13.487m0 0v-3.567a63.485 63.485 0 0 0 15.285-3.699m0 0 4.496 2.29m0 0 9.89-5.505m0 0-.573-.224m1.292-9.992a16.177 16.177 0 0 1-5.889 8.191l4.597 1.801m1.292-9.992h6.159m0 0v-7.178h-6.428a12.129 12.129 0 0 0-2.068-3.903m-53.592 11.671c.94-.857 2.245-1.658 3.915-2.36a40.697 40.697 0 0 1 27.783 0c1.67.702 2.975 1.503 3.915 2.36m-35.613 0c-3.363-3.065-2.058-6.841 3.915-9.353a40.697 40.697 0 0 1 27.783 0c5.973 2.512 7.278 6.288 3.915 9.353m-35.613 0c1.387 1.264 3.11 2.006 4.814 2.757a41.27 41.27 0 0 0 26.03 0c1.598-.66 3.514-1.614 4.769-2.757" stroke="#1C2A60"/><path d="M165.766 135.991h2.14v.315l10.298-5.591a3.522 3.522 0 0 1 3.131.137l22.741 12.641v-.256h2.189c0 .428.037 1.24-.262 1.407-.298.168-12.56 6.981-12.56 6.981a3.252 3.252 0 0 1-2.914-.119s-24.095-13.865-24.484-14.195c-.389-.331-.279-.886-.279-1.32Z" fill="#1C2A60"/><path d="M166.292 135.873a.2.2 0 0 0 0 .335l24.237 13.901a3.184 3.184 0 0 0 2.914.118l12.306-6.813a.193.193 0 0 0 .079-.157.196.196 0 0 0-.079-.158l-24.395-13.566a3.473 3.473 0 0 0-3.13-.118l-11.932 6.458Z" fill="#fff" stroke="#1C2A60"/><path d="M192.833 105.237c-5.454-3.092-11.321 0-11.282 5.788l16.164 31.64.69-.384-.256-28.558a10.25 10.25 0 0 0-5.316-8.486Z" fill="#1C2A60"/><path d="M191.77 105.847c-5.454-3.091-11.321 0-11.262 5.789l.177 20.87 16.598 9.412-.256-27.565a10.197 10.197 0 0 0-5.257-8.506Z" fill="#fff" stroke="#1C2A60"/><path d="m229.455 91.238-6.32 51.487a3.533 3.533 0 0 1-1.088 2.469 3.53 3.53 0 0 1-2.515.977 5.754 5.754 0 0 1-1.103-.118l-20.162-12.149-1.102-.669-6.183-3.662-10.415-6.262-27.565-16.578a1.827 1.827 0 0 1-1.004-1.831l5.276-51.074a2.21 2.21 0 0 1 .689-1.32 3.938 3.938 0 0 1 4.214-.649l12.975 7.344 8.585 4.863.236.138.236.138 4.273 2.422.866.492.256.138 25.951 14.688 12.896 7.324a1.835 1.835 0 0 1 1.004 1.832Z" fill="#1C2A60"/><path d="m228.195 92.123-6.419 52.138a2.596 2.596 0 0 1-2.777 1.979 2.597 2.597 0 0 1-1.16-.404l-12.287-7.108s-51.503-29.287-52.727-30.243c-1.225-.955-2.125-2.327-2.027-3.697l6.338-50.92a2.608 2.608 0 0 1 1.562-1.806 2.6 2.6 0 0 1 2.376.23l66.137 37.96a1.965 1.965 0 0 1 .984 1.871Z" fill="#fff" stroke="#1C2A60"/><path d="m225.242 93.817-5.907 47.707a1.41 1.41 0 0 1-.835.964 1.422 1.422 0 0 1-1.272-.098l-3.308-1.851-7.6-4.311-5.198-2.914-8.683-4.903-5.749-3.269-8.525-4.804-23.289-13.444c-.936-.601-1.602-1.572-1.496-2.677l5.922-47.416a1.442 1.442 0 0 1 .841-.976 1.441 1.441 0 0 1 1.286.09l3.938 2.245 8.683 4.863 5.768 3.248 8.664 4.903 5.198 2.934 7.206 4.075 23.017 12.995a2.721 2.721 0 0 1 1.339 2.639Z" fill="#0196F0" stroke="#1C2A60"/><path d="m187.152 89.11.006.003.006.004 16.262 9.422.002.001a4.64 4.64 0 0 1 1.699 1.704c.41.712.629 1.522.634 2.349v.001l.134 17.005c.008 1.027-.39 1.695-.901 2.009-.506.312-1.241.348-2.068-.131l-27.815-16.108a4.31 4.31 0 0 1-1.468-1.531 4.442 4.442 0 0 1-.578-2.068l-.17-21.702c-.008-1.026.39-1.694.901-2.009.506-.312 1.241-.348 2.068.131l7.554 4.374c.362.21.665.513.877.881.213.368.327.787.331 1.216v.007c.021.895.263 1.771.704 2.547a5.301 5.301 0 0 0 1.822 1.894Z" fill="#fff" stroke="#1C2A60"/><path d="m183.152 91.11.006.003.006.004 16.262 9.422.002.001a4.644 4.644 0 0 1 1.699 1.704c.41.712.629 1.522.634 2.349v.001l.134 17.005c.008 1.027-.39 1.695-.901 2.009-.506.312-1.241.348-2.068-.131l-27.815-16.108a4.31 4.31 0 0 1-1.468-1.531 4.442 4.442 0 0 1-.578-2.068l-.17-21.702c-.008-1.026.39-1.694.901-2.009.506-.312 1.241-.348 2.068.131l7.554 4.374c.362.21.665.513.877.881.213.368.327.787.331 1.216v.007c.021.895.263 1.771.704 2.547a5.301 5.301 0 0 0 1.822 1.894Z" fill="#fff" stroke="#1C2A60"/><path d="M165.167 234.996h2.141v.315l10.297-5.592a3.528 3.528 0 0 1 3.131.138l22.741 12.64v-.256h2.19c0 .429.036 1.24-.262 1.408-.299.168-12.56 6.98-12.56 6.98a3.247 3.247 0 0 1-2.914-.118s-24.095-13.865-24.485-14.196c-.389-.33-.279-.886-.279-1.319Z" fill="#1C2A60"/><path d="M165.693 234.878a.2.2 0 0 0 0 .334l24.238 13.901a3.194 3.194 0 0 0 2.914.118l12.306-6.812a.207.207 0 0 0 .058-.07.203.203 0 0 0 0-.176.204.204 0 0 0-.058-.069l-24.395-13.566a3.464 3.464 0 0 0-3.131-.118l-11.932 6.458Z" fill="#fff" stroke="#1C2A60"/><path d="M192.235 204.241c-5.454-3.091-11.322 0-11.282 5.789l16.164 31.639.69-.384-.256-28.558a10.266 10.266 0 0 0-5.316-8.486Z" fill="#1C2A60"/><path d="M191.171 204.851c-5.454-3.091-11.321 0-11.262 5.789l.177 20.871 16.598 9.411-.256-27.565a10.192 10.192 0 0 0-5.257-8.506Z" fill="#fff" stroke="#1C2A60"/><path d="m228.857 190.242-6.321 51.488a3.522 3.522 0 0 1-3.603 3.445 5.674 5.674 0 0 1-1.102-.118l-20.162-12.148-1.103-.67-6.182-3.662-10.416-6.261-27.565-16.578a1.835 1.835 0 0 1-1.004-1.832l5.277-51.074c.07-.506.313-.972.689-1.319a3.939 3.939 0 0 1 4.213-.65l12.976 7.345 8.584 4.863.236.138.237.137 4.272 2.422.867.493.256.137 25.95 14.689 12.897 7.324a1.831 1.831 0 0 1 1.004 1.831Z" fill="#1C2A60"/><path d="m227.597 191.128-6.419 52.137a2.605 2.605 0 0 1-1.562 1.806 2.591 2.591 0 0 1-2.376-.231l-12.286-7.108s-51.503-29.287-52.728-30.242c-1.225-.956-2.125-2.328-2.027-3.697l6.339-50.921a2.605 2.605 0 0 1 1.562-1.806 2.601 2.601 0 0 1 2.376.23l66.136 37.961a1.976 1.976 0 0 1 .985 1.871Z" fill="#fff" stroke="#1C2A60"/><path d="m224.643 192.821-5.907 47.707a1.41 1.41 0 0 1-.835.964 1.418 1.418 0 0 1-1.271-.097l-3.308-1.851-7.6-4.312-5.198-2.914-8.683-4.903-5.749-3.268-8.526-4.804-23.288-13.444c-.936-.602-1.602-1.573-1.497-2.678l5.923-47.416a1.431 1.431 0 0 1 .841-.976 1.444 1.444 0 0 1 1.285.09l3.938 2.245 8.683 4.863 5.769 3.249 8.663 4.903 5.198 2.933 7.207 4.076 23.016 12.995c.455.263.823.653 1.06 1.121.238.468.335.995.279 1.517Z" fill="#0196F0" stroke="#1C2A60"/><path d="m186.553 188.114.006.004.007.003 16.262 9.423.001.001a4.639 4.639 0 0 1 1.7 1.704c.41.712.629 1.522.633 2.349v.001l.135 17.005c.007 1.026-.391 1.695-.901 2.009-.507.312-1.241.348-2.068-.131l-27.816-16.108a4.338 4.338 0 0 1-1.468-1.532 4.435 4.435 0 0 1-.578-2.067l-.169-21.702c-.008-1.027.39-1.695.9-2.009.507-.312 1.241-.348 2.068.131l7.555 4.374c.362.21.665.513.877.881.212.368.327.787.331 1.215h-.001l.001.007c.021.896.263 1.772.704 2.548a5.307 5.307 0 0 0 1.821 1.894Z" fill="#fff" stroke="#1C2A60"/><path d="m182.553 190.114.006.004.007.003 16.262 9.423.001.001a4.639 4.639 0 0 1 1.7 1.704c.41.712.629 1.522.633 2.349v.001l.135 17.005c.007 1.026-.391 1.695-.901 2.009-.507.312-1.241.348-2.068-.131l-27.816-16.108a4.338 4.338 0 0 1-1.468-1.532 4.435 4.435 0 0 1-.578-2.067l-.169-21.702c-.008-1.027.39-1.695.9-2.009.507-.312 1.241-.348 2.068.131l7.555 4.374c.362.21.665.513.877.881.212.368.327.787.331 1.215h-.001l.001.007c.021.896.263 1.772.704 2.548a5.307 5.307 0 0 0 1.821 1.894ZM56.99 91.265l.006.004.006.003 16.263 9.423v.001c.704.405 1.29.992 1.7 1.704.41.712.63 1.522.634 2.349v.001l.134 17.005c.008 1.027-.39 1.695-.9 2.009-.507.312-1.241.348-2.068-.131l-27.816-16.108a4.32 4.32 0 0 1-1.468-1.532 4.433 4.433 0 0 1-.578-2.067l-.17-21.702c-.008-1.027.39-1.695.901-2.01.507-.31 1.24-.347 2.068.132l7.555 4.374c.362.21.664.513.877.881.212.368.327.787.33 1.215v.008a5.43 5.43 0 0 0 .705 2.547 5.307 5.307 0 0 0 1.821 1.894Z" fill="#fff" stroke="#1C2A60"/><path d="m52.99 93.265.006.004.006.003 16.263 9.423v.001c.704.405 1.29.992 1.7 1.704.41.712.63 1.522.634 2.349v.001l.134 17.005c.008 1.027-.39 1.695-.9 2.009-.507.312-1.241.348-2.068-.131l-27.816-16.108a4.32 4.32 0 0 1-1.468-1.532 4.433 4.433 0 0 1-.578-2.067l-.17-21.702c-.008-1.027.39-1.695.901-2.01.507-.31 1.24-.347 2.068.132l7.555 4.374c.362.21.664.513.877.881.212.368.327.787.33 1.215v.008a5.43 5.43 0 0 0 .705 2.547 5.307 5.307 0 0 0 1.821 1.894Z" fill="#fff" stroke="#1C2A60"/></svg>