<svg width="248" height="302" fill="none" xmlns="http://www.w3.org/2000/svg"><rect width="248" height="302" rx="12" fill="#DE1E59"/><path d="M35.556 222.951v-28.87l87.472-50.643 89.416 51.202v29.674l-87.937 50.435-88.951-51.798Z" fill="#fff"/><path d="M35.556 194.081v28.87l88.951 51.798m-88.951-80.668 88.951 51.062m-88.951-51.062 87.472-50.643 89.416 51.202m-87.937 80.109 87.937-50.435V194.64m-87.937 80.109v-29.606m87.937-50.503-87.937 50.503" stroke="#1C2A60"/><path d="m95.352 162.273 84.545 47.459-26.86 15.562-84.934-47.33 27.249-15.691Z" fill="#0196F0" stroke="#1C2A60"/><mask id="a" style="mask-type:alpha" maskUnits="userSpaceOnUse" x="35" y="142" width="178" height="134"><path d="M35.556 222.951v-28.87l87.472-50.643 89.416 51.202v29.674l-87.937 50.435-88.951-51.798Z" fill="#fff"/><path d="M35.556 194.081v28.87l88.951 51.798m-88.951-80.668 88.951 51.062m-88.951-51.062 87.472-50.643 89.416 51.202m-87.937 80.109 87.937-50.435V194.64m-87.937 80.109v-29.606m87.937-50.503-87.937 50.503" stroke="#1C2A60"/></mask><g mask="url(#a)" fill="#000"><path opacity=".1" d="m157.849 196.765 16.003 8.729-12.564 6.348-17.062-9.258 13.623-5.819Zm-27.934-15.455 16.003 8.729-12.564 6.348-17.061-9.258 13.622-5.819Zm-28.09-14.935 16.003 8.729-12.564 6.349-17.062-9.258 13.623-5.82Z"/></g><path d="m175.06 238.807-46.024 26.402v-16.262l46.024-26.402v16.262Z" fill="#1C2A60" fill-opacity=".2" stroke="#1C2A60"/><path d="m173.598 238.051-44.704 25.407v1.961l46.308-26.395-.057-16.836-1.547.89v14.973Z" fill="#1C2A60"/><path d="m132.192 252.156 2.54-1.403v-2.539l-2.54 1.403v2.539Zm0 7.417 2.54-1.403v-2.539l-2.54 1.403v2.539Zm3.609-9.421 2.539-1.404v-2.606l-2.539 1.47v2.54Zm0 3.675 2.539-1.404v-2.539l-2.539 1.403v2.54Zm3.608-5.747 2.539-1.47v-2.54l-2.539 1.47v2.54Zm3.608 1.737 2.473-1.47v-2.539l-2.473 1.47v2.539Zm0 3.676 2.473-1.404v-2.539l-2.473 1.47v2.473Zm3.544-9.523 2.539-1.47v-2.539l-2.539 1.47v2.539Zm-.069 7.585 2.539-1.471v-2.539l-2.539 1.47v2.54Zm3.609-5.747 2.539-1.47v-2.539l-2.539 1.47v2.539Zm0 3.675 2.539-1.403v-2.539l-2.539 1.403v2.539Zm3.608-9.522 2.472-1.403v-2.539l-2.472 1.403v2.539Zm0 7.518 2.472-1.404v-2.539l-2.472 1.403v2.54Zm3.541-5.68 2.54-1.47v-2.539l-2.54 1.47v2.539Z" fill="#0196F0"/><path d="m43.151 222.926 31.673 18.102v-20.135L43.15 202.791v20.135Z" fill="#1C2A60"/><path d="M44.47 222.087v.288l.249.145 2.539 1.47.75.434v-18.261l-.25-.145-2.538-1.47-.75-.434v17.973Z" fill="#fff" stroke="#1C2A60"/><path d="M44.47 222.087v.288l.249.145 2.539 1.47.75.434v-6.04l-.258-.143-2.539-1.403-.742-.41v5.659Z" fill="#DE1E59" stroke="#1C2A60"/><path d="M44.47 212.198v.288l.249.144 2.539 1.47.75.435v-8.372l-.25-.145-2.538-1.47-.75-.434v8.084Zm4.209 12.295v.288l.25.144 2.539 1.47.75.435v-18.262l-.25-.144-2.539-1.47-.75-.435v17.974Z" fill="#fff" stroke="#1C2A60"/><path d="M48.679 212.264v.289l.25.144 2.539 1.47.75.435v-6.034l-.25-.144-2.539-1.47-.75-.435v5.745Z" fill="#DE1E59" stroke="#1C2A60"/><path d="M48.679 224.492v.289l.25.144 2.539 1.47.75.435v-8.372l-.25-.145-2.539-1.47-.75-.434v8.083Zm4.276 2.478v.288l.25.144 2.539 1.47.75.435v-18.262l-.25-.144-2.538-1.47-.75-.435v17.974Z" fill="#fff" stroke="#1C2A60"/><path d="M52.889 226.831v.289l.25.144 2.538 1.47.75.435v-5.967l-.249-.144-2.539-1.47-.75-.435v5.678Z" fill="#DE1E59" stroke="#1C2A60"/><path d="M52.955 217.147v.295l.258.142 2.54 1.404.741.41v-8.353l-.25-.144-2.538-1.47-.75-.435v8.151Zm4.143 12.208v.289l.25.144 2.54 1.47.75.435v-18.262l-.25-.145-2.54-1.47-.75-.434v17.973Z" fill="#fff" stroke="#1C2A60"/><path d="M57.098 217.127v.288l.25.145 2.54 1.47.75.434v-6.033l-.25-.145-2.54-1.47-.75-.434v5.745Z" fill="#DE1E59" stroke="#1C2A60"/><path d="M57.098 229.237v.288l.25.145 2.54 1.47.75.434v-8.372l-.25-.144-2.54-1.47-.75-.435v8.084Zm4.143 2.52v.295l.258.143 2.54 1.403.742.41v-18.175l-.25-.145-2.54-1.47-.75-.434v17.973Z" fill="#fff" stroke="#1C2A60"/><path d="M61.241 231.643v.295l.258.142 2.54 1.403.742.41v-5.947l-.25-.144-2.54-1.47-.75-.435v5.746Z" fill="#DE1E59" stroke="#1C2A60"/><path d="M61.241 221.868v.288l.25.144 2.539 1.47.75.435v-8.372l-.249-.145-2.54-1.47-.75-.434v8.084Zm4.21 12.312v.299l.263.141 2.606 1.403.737.397v-18.168l-.254-.144-2.606-1.47-.746-.42v17.962Z" fill="#fff" stroke="#1C2A60"/><path d="M65.451 221.885v.292l.254.143 2.606 1.47.746.421v-5.959l-.254-.144-2.606-1.47-.746-.42v5.667Z" fill="#DE1E59" stroke="#1C2A60"/><path d="M65.451 234.048v.299l.263.141 2.606 1.404.737.397v-8.346l-.254-.144-2.606-1.47-.746-.421v8.14Zm4.209 2.527v.288l.25.144 2.54 1.47.75.435V220.65l-.25-.144-2.539-1.47-.75-.435v17.974Z" fill="#fff" stroke="#1C2A60"/><path d="M69.66 236.387v.288l.25.144 2.54 1.471.75.434v-6.033l-.25-.145-2.539-1.47-.75-.434v5.745Z" fill="#DE1E59" stroke="#1C2A60"/><path d="M69.66 226.685v.288l.25.145 2.54 1.47.75.434v-8.372l-.25-.144-2.539-1.47-.75-.435v8.084Zm34.518-54.388-.011-.006-.011-.006a16.774 16.774 0 0 0-15.325.176l-.013.006-.013.008c-2.134 1.29-3.293 3.029-3.263 4.843.03 1.815 1.248 3.506 3.428 4.708l.01.006.01.005a16.778 16.778 0 0 0 15.348-.263l.008-.005.009-.005c2.13-1.25 3.264-2.97 3.219-4.776-.046-1.799-1.259-3.489-3.396-4.691Z" fill="#fff" stroke="#1C2A60"/><path d="m104.154 172.649-.009-.504-.503.013-14.734.377-.51.013.023.51.143 3.057c.023.769.26 1.517.683 2.158a4.09 4.09 0 0 0 1.708 1.468 11.964 11.964 0 0 0 10.972-.176 4.195 4.195 0 0 0 1.64-1.399c.44-.637.588-1.335.649-2.023l.002-.027v-.026l-.064-3.441Z" fill="#DE1E59" stroke="#1C2A60"/><path d="m101.736 168.422-.013-.007-.013-.006a12.03 12.03 0 0 0-5.517-1.23 12.03 12.03 0 0 0-5.47 1.43l-.011.006-.012.007c-1.513.918-2.366 2.172-2.344 3.512.023 1.34.917 2.568 2.463 3.44l.011.006.012.006a11.894 11.894 0 0 0 10.992-.2l.011-.006.01-.006c1.513-.918 2.366-2.172 2.344-3.512-.023-1.34-.917-2.567-2.463-3.44Z" fill="#fff" stroke="#1C2A60"/><path d="M100.395 169.549a9.846 9.846 0 0 0-4.12-.833 9.886 9.886 0 0 0-4.094.971c-1.874 1.017-2.106 2.543-.885 3.698.293.255.611.472.948.647a9.91 9.91 0 0 0 4.13.832 9.948 9.948 0 0 0 4.105-.97 4.22 4.22 0 0 0 .843-.601c1.347-1.202 1.032-2.751-.927-3.744Z" fill="#1C2A60"/><path d="M93.571 170.54c-1.043.629-1.88 1.676-2.31 2.825.289.235.764.579 1.104.726a9.989 9.989 0 0 0 3.988.793c1.413 0 2.685-.329 4.085-.948.297-.157.621-.418.884-.629a5.688 5.688 0 0 0-.401-.809 5.357 5.357 0 0 0-1.382-1.601 5.286 5.286 0 0 0-5.968-.357Z" fill="#DE1E59"/><path d="M96.278 172.006a3.53 3.53 0 0 1-.512-.036 2.349 2.349 0 0 1-.434-.101.939.939 0 0 1-.29-.152c-.067-.057-.102-.118-.102-.179V97.922c0-.124.141-.243.392-.331.25-.088.59-.137.946-.137.354 0 .694.049.945.137.251.088.392.207.392.331v73.616c0 .124-.141.243-.392.331a2.98 2.98 0 0 1-.945.137Z" fill="#1C2A60"/><path d="m131.393 188.196-.011-.006-.011-.006a16.777 16.777 0 0 0-15.326.176l-.012.006-.013.008c-2.135 1.29-3.294 3.029-3.263 4.843.03 1.815 1.248 3.506 3.428 4.708l.01.006.01.005a16.781 16.781 0 0 0 15.347-.263l.009-.005.008-.005c2.131-1.25 3.265-2.97 3.219-4.776-.045-1.799-1.258-3.489-3.395-4.691Z" fill="#fff" stroke="#1C2A60"/><path d="m131.369 188.548-.009-.503-.504.012-14.733.377-.511.013.024.51.143 3.057c.023.769.259 1.517.682 2.158a4.087 4.087 0 0 0 1.709 1.468 11.959 11.959 0 0 0 10.971-.176 4.191 4.191 0 0 0 1.641-1.399c.44-.637.588-1.335.648-2.023l.003-.027-.001-.026-.063-3.441Z" fill="#DE1E59" stroke="#1C2A60"/><path d="m128.95 184.322-.012-.007-.013-.007a12.031 12.031 0 0 0-5.517-1.23 12.03 12.03 0 0 0-5.47 1.43l-.012.006-.011.007c-1.513.918-2.367 2.172-2.344 3.512.022 1.34.917 2.568 2.463 3.44l.011.006.012.006a11.907 11.907 0 0 0 5.52 1.247 11.905 11.905 0 0 0 5.472-1.447l.01-.006.01-.006c1.514-.918 2.367-2.172 2.344-3.512-.022-1.34-.916-2.567-2.463-3.439Z" fill="#fff" stroke="#1C2A60"/><path d="M127.61 185.448a9.848 9.848 0 0 0-4.12-.833 9.883 9.883 0 0 0-4.094.971c-1.875 1.017-2.106 2.543-.885 3.698.293.255.611.472.948.647a9.908 9.908 0 0 0 4.13.832 9.951 9.951 0 0 0 4.105-.97c.301-.163.584-.365.842-.601 1.348-1.202 1.032-2.751-.926-3.744Z" fill="#1C2A60"/><path d="M120.786 186.439c-1.044.629-1.881 1.676-2.31 2.825.289.235.763.579 1.104.726a9.989 9.989 0 0 0 3.988.793c1.413 0 2.684-.329 4.084-.948.298-.157.621-.418.884-.629a5.79 5.79 0 0 0-.4-.809 5.327 5.327 0 0 0-3.269-2.537 5.273 5.273 0 0 0-4.081.579Z" fill="#DE1E59"/><path d="M123.492 187.905c-.175 0-.349-.012-.512-.036a2.343 2.343 0 0 1-.433-.101.927.927 0 0 1-.29-.152c-.068-.057-.102-.118-.102-.179v-73.616c0-.124.141-.243.392-.331.25-.088.59-.137.945-.137s.695.049.946.137c.251.088.391.207.391.331v73.616c0 .124-.14.243-.391.331a2.99 2.99 0 0 1-.946.137Z" fill="#1C2A60"/><path d="m158.091 203.942-.011-.006-.011-.005a16.786 16.786 0 0 0-7.683-1.766 16.793 16.793 0 0 0-7.642 1.941l-.013.007-.013.008c-2.134 1.29-3.294 3.028-3.263 4.843.03 1.815 1.248 3.506 3.428 4.708l.01.006.01.005a16.781 16.781 0 0 0 15.348-.264l.008-.004.009-.005c2.13-1.25 3.264-2.971 3.219-4.776-.046-1.8-1.259-3.489-3.396-4.692Z" fill="#fff" stroke="#1C2A60"/><path d="m158.067 204.295-.009-.504-.503.013-14.734.376-.51.013.023.511.143 3.057c.023.769.259 1.517.682 2.158a4.09 4.09 0 0 0 1.709 1.467 11.954 11.954 0 0 0 10.971-.175 4.194 4.194 0 0 0 1.641-1.4c.44-.636.588-1.334.649-2.023l.002-.026v-.027l-.064-3.44Z" fill="#DE1E59" stroke="#1C2A60"/><path d="m155.649 200.068-.013-.007-.013-.006a12.018 12.018 0 0 0-10.987.2l-.012.006-.011.007c-1.513.918-2.366 2.172-2.344 3.512.023 1.34.917 2.567 2.463 3.439l.011.007.012.005a11.894 11.894 0 0 0 10.992-.2l.011-.005.01-.006c1.513-.918 2.366-2.172 2.344-3.512-.023-1.34-.917-2.568-2.463-3.44Z" fill="#fff" stroke="#1C2A60"/><path d="M154.308 201.194a9.847 9.847 0 0 0-4.12-.832 9.887 9.887 0 0 0-4.094.971c-1.874 1.017-2.106 2.542-.885 3.698.293.255.611.472.948.647a9.895 9.895 0 0 0 4.13.831 9.92 9.92 0 0 0 4.105-.97c.302-.162.585-.364.842-.6 1.348-1.202 1.032-2.751-.926-3.745Z" fill="#1C2A60"/><path d="M147.484 202.185c-1.044.629-1.88 1.676-2.309 2.826.288.234.762.579 1.103.725a9.972 9.972 0 0 0 3.988.794c1.413 0 2.684-.329 4.085-.949.297-.157.621-.417.883-.628a5.682 5.682 0 0 0-.4-.809 5.366 5.366 0 0 0-1.382-1.601 5.286 5.286 0 0 0-5.968-.358Z" fill="#DE1E59"/><path d="M150.19 203.652a3.67 3.67 0 0 1-.511-.036 2.331 2.331 0 0 1-.434-.102.918.918 0 0 1-.29-.152c-.067-.056-.102-.117-.102-.179v-73.615c0-.124.141-.244.392-.331.251-.088.591-.138.945-.138.355 0 .695.05.946.138.251.087.392.207.392.331v73.615c0 .124-.141.244-.392.331a2.989 2.989 0 0 1-.946.138Z" fill="#1C2A60"/><path d="M69.875 60.31a5.035 5.035 0 0 1-.787-.294l-.3-.14c-.147-.07-.3-.141-.441-.203l15.316-7.943c1.485-.7 2.821-1.09 4.69-1.034.515.016 1.049.113 1.54.22l.17.038c-3.109 2.756-5.336 7.807-5.94 13.23-2.33-1.238-4.437-1.844-6.6-2.3-.83-.174-1.656-.325-2.502-.48-1.593-.29-3.256-.594-5.146-1.093Zm37.365-19.651-16.358 9.114c3.106-1.675 7.437-2.318 10.819-1.408a26.999 26.999 0 0 1 7.561 3.194 54.945 54.945 0 0 1 19.818 22.416l16.301-9.005A54.753 54.753 0 0 0 125.5 42.468c-7.056-4.108-13.458-4.555-18.113-1.937l-.147.128Z" fill="#fff" stroke="#1C2A60"/><path d="m90.896 49.685.211-.128-.21.128Zm69.986 20.885c.548.51 1.095 1.021 1.622 1.553a37.858 37.858 0 0 0-1.622-1.554Z" fill="#1C2A60"/><path d="M59.958 74.742c0 13.88 9.688 30.783 21.65 37.744.422.256 79.4 46.239 80.453 46.643 9.12 3.513 16.07-1.639 16.07-12.773 0-12.369-8.656-27.441-19.334-33.678a24.622 24.622 0 0 0-1.664-.873c.359-1.542.536-3.121.527-4.705 0-10.474-6.74-23.055-15.438-29.484a26.996 26.996 0 0 0-2.38-1.576 13.907 13.907 0 0 0-5.126-2.157 13.837 13.837 0 0 0-5.552.028 54.936 54.936 0 0 0-19.902-22.352 26.999 26.999 0 0 0-7.561-3.194 14.599 14.599 0 0 0-9.941.894c-4.486 2.13-7.456 7.175-8.066 14.285-.674-.447-1.327-.873-2.106-1.256a17.689 17.689 0 0 0-11.816-2.831c-5.981 1.021-9.814 6.493-9.814 15.285Z" fill="#fff"/><path d="m172.445 155.595-83.276-48.686a51.702 51.702 0 0 1-16.322-17.904 50.827 50.827 0 0 1-7.245-24.162 9.422 9.422 0 0 0-1.369 2.128l-.316-.17a8.15 8.15 0 0 1 2.246-3.097 8.034 8.034 0 0 1 3.399-1.714c4.212-1.022 9.983 1.064 16.09 5.833.337-12.773 5.413-16.456 9.625-17.308 10.152-2.128 25.273 9.985 32.392 25.887 5.813-1.298 12.299 1.384 17.796 7.366 7.73 8.515 11.415 20.714 8.846 29.357 7.477 2.129 17.439 14.689 20.577 26.078 1.369 4.896 2.106 11.688-2.338 16.222l-.105.17ZM65.897 64.459v.192A50.399 50.399 0 0 0 73.1 88.877a51.357 51.357 0 0 0 16.196 17.776c.421.277 58.655 34.275 83.022 48.495 4.212-4.428 3.475-11.027 2.106-15.796-3.138-11.368-13.121-23.928-20.513-25.865h-.19v-.192c2.654-8.515-1.011-20.799-8.719-29.165-5.455-5.94-11.857-8.515-17.565-7.217h-.147v-.128a54.001 54.001 0 0 0-14.975-19.606c-6.149-4.94-12.362-7.196-17.08-6.238-5.918 1.235-9.162 7.217-9.351 17.35v.298l-.274-.234c-6.129-4.875-11.836-7.004-16.09-5.982a7.48 7.48 0 0 0-3.623 2.086Z" fill="#1C2A60"/><path d="m156.459 95.072-8.424-4.981a.238.238 0 0 1-.1-.097.241.241 0 0 1-.027-.138v-5.79h.548v5.62l8.319 4.896-.316.49Zm3.307 19.16c0 .873-.485 1.298-1.074.936a2.72 2.72 0 0 1-1.074-2.128c0-.852.484-1.278 1.074-.937.324.252.588.574.774.942.186.368.288.774.3 1.187Zm9.33 22.8c0 .873-.464 1.277-1.053.936a2.72 2.72 0 0 1-1.074-2.128c0-.873.484-1.278 1.074-.937a2.709 2.709 0 0 1 1.053 2.129Zm-14.237-27.079c0 .851-.485 1.277-1.075.937a2.807 2.807 0 0 1-1.074-2.129c0-.873.485-1.299 1.074-.937.328.249.595.57.781.939.186.369.286.776.294 1.19Zm-8.93-15.818c0 .873-.464 1.3-1.053.937a2.671 2.671 0 0 1-1.074-2.129c0-.851.463-1.277 1.074-.936.321.253.582.576.764.944.182.368.281.773.289 1.184Zm-4.423-.425c0 .873-.484 1.298-1.074.936a2.733 2.733 0 0 1-1.074-2.129c0-.851.484-1.277 1.074-.936.324.252.588.574.774.942.186.368.288.774.3 1.187Zm-4.002.745c0 .851-.484 1.277-1.074.936a2.783 2.783 0 0 1-.774-.942 2.812 2.812 0 0 1-.3-1.186c0-.873.484-1.299 1.074-.937a2.733 2.733 0 0 1 1.074 2.129Zm-2.548-1.448c0 .873-.463 1.278-1.074.937a2.698 2.698 0 0 1-.771-.941 2.731 2.731 0 0 1-.282-1.188c0-.873.463-1.277 1.053-.937a2.658 2.658 0 0 1 1.074 2.13Zm16.512 47.963c0 .873-.485 1.299-1.074.937a2.72 2.72 0 0 1-1.074-2.129c0-.852.484-1.277 1.074-.937a2.81 2.81 0 0 1 1.074 2.129Zm-11.542-45.046c0 .851-.484 1.277-1.074.936a2.783 2.783 0 0 1-.774-.942 2.812 2.812 0 0 1-.3-1.186c0-.873.485-1.299 1.074-.937a2.733 2.733 0 0 1 1.074 2.129Zm1.791 4.747c0 .873-.485 1.277-1.075.937a2.718 2.718 0 0 1-.78-.939 2.763 2.763 0 0 1-.294-1.19c0-.873.485-1.277 1.074-.937.325.251.591.573.776.941.186.369.288.775.299 1.188Zm-7.077 1.746c0 .873-.463 1.277-1.074.936a2.698 2.698 0 0 1-.771-.941 2.73 2.73 0 0 1-.282-1.187c0-.873.463-1.278 1.053-.937.331.245.6.566.787.936.186.369.285.778.287 1.193Zm-1.348 3.576c0 .873-.484 1.277-1.074.937a2.748 2.748 0 0 1-1.074-2.129c0-.873.484-1.277 1.074-.937a2.727 2.727 0 0 1 1.074 2.129Zm.737 6.834c0 1.32-.737 1.958-1.642 1.426a4.24 4.24 0 0 1-1.187-1.473 4.287 4.287 0 0 1-.435-1.848c0-1.32.737-1.958 1.622-1.426a4.13 4.13 0 0 1 1.642 3.321Zm-16.996.149c0 1.32-.737 1.937-1.622 1.426a4.247 4.247 0 0 1-1.203-1.479 4.299 4.299 0 0 1-.439-1.863c0-1.299.737-1.937 1.642-1.405a4.284 4.284 0 0 1 1.622 3.321Zm7.835 1.745c0 1.32-.716 1.959-1.622 1.427a4.261 4.261 0 0 1-1.187-1.473 4.301 4.301 0 0 1-.435-1.848c0-1.32.716-1.959 1.622-1.427.5.395.906.898 1.187 1.473.281.575.429 1.207.435 1.848Zm33.487 6.302c0 1.298-.716 1.937-1.622 1.426a4.242 4.242 0 0 1-1.191-1.482 4.306 4.306 0 0 1-.431-1.86c0-1.299.716-1.937 1.622-1.405.51.385.922.887 1.204 1.464.282.577.425 1.213.418 1.857Zm10.741 25.418c0 1.299-.737 1.937-1.622 1.405a4.074 4.074 0 0 1-1.204-1.464 4.127 4.127 0 0 1-.418-1.857c0-1.298.717-1.937 1.622-1.426a4.24 4.24 0 0 1 1.191 1.482c.281.579.429 1.215.431 1.86Zm-15.67-18.244c0 1.299-.716 1.937-1.621 1.426a4.24 4.24 0 0 1-1.215-1.476 4.298 4.298 0 0 1-.449-1.866c0-1.299.716-1.937 1.622-1.405a4.107 4.107 0 0 1 1.663 3.321Zm-13.163-2.342c0 1.32-.737 1.938-1.642 1.427a4.258 4.258 0 0 1-1.192-1.483 4.291 4.291 0 0 1-.43-1.86c0-1.298.737-1.937 1.622-1.405.511.386.926.887 1.211 1.464.285.576.433 1.213.431 1.857Zm4.065 2.342c0 1.32-.737 1.959-1.622 1.426a4.284 4.284 0 0 1-1.621-3.321c0-1.32.716-1.958 1.621-1.426a4.24 4.24 0 0 1 1.187 1.473c.281.575.43 1.207.435 1.848Zm3.222-11.07c0 1.32-.737 1.937-1.642 1.426a4.245 4.245 0 0 1-1.192-1.482 4.291 4.291 0 0 1-.43-1.86c0-1.298.737-1.937 1.622-1.405a4.13 4.13 0 0 1 1.642 3.321Zm5.582 3.832c0 1.299-.738 1.937-1.622 1.405a4.096 4.096 0 0 1-1.214-1.462 4.156 4.156 0 0 1-.429-1.859c0-1.299.737-1.937 1.643-1.426.503.396.91.903 1.191 1.482s.428 1.215.431 1.86Zm-32.645 9.495c0 1.298-.737 1.937-1.643 1.426a4.287 4.287 0 0 1-1.621-3.342c0-1.299.737-1.938 1.621-1.405.513.384.929.885 1.214 1.462.285.577.432 1.214.429 1.859Zm11.984-4.684c0 .873-.464 1.277-1.074.937a2.732 2.732 0 0 1-.767-.943 2.772 2.772 0 0 1-.286-1.186c0-.873.463-1.277 1.053-.937a2.686 2.686 0 0 1 1.074 2.129Zm2.169-27.377c0 .852-.463 1.278-1.074.937a2.774 2.774 0 0 1-1.053-2.129c0-.873.463-1.299 1.053-.937a2.659 2.659 0 0 1 1.074 2.13Zm.316 24.354c0 .873-.463 1.299-1.074.937a2.698 2.698 0 0 1-.771-.941 2.73 2.73 0 0 1-.282-1.188c0-.852.463-1.277 1.053-.937a2.748 2.748 0 0 1 1.074 2.129Zm25.147 17.521c0 .851-.464 1.277-1.074.936a2.781 2.781 0 0 1-1.053-2.129c0-.872.463-1.298 1.053-.936.33.245.6.566.786.935.187.37.285.779.288 1.194Zm-3.223-15.924c0 .873-.463 1.277-1.074.937a2.721 2.721 0 0 1-1.053-2.129c0-.873.464-1.278 1.053-.937a2.668 2.668 0 0 1 1.074 2.129Zm4.929 7.472c0 .873-.485 1.299-1.074.937a2.71 2.71 0 0 1-.781-.939 2.762 2.762 0 0 1-.294-1.19c0-.852.485-1.277 1.075-.937.325.251.59.573.776.941.186.369.287.775.298 1.188Zm-13.521-1.256c0 .873-.485 1.299-1.075.937a2.718 2.718 0 0 1-.78-.939 2.762 2.762 0 0 1-.294-1.19c0-.852.485-1.277 1.074-.937a2.785 2.785 0 0 1 1.075 2.129Zm-3.054-44.365c0 .873-.485 1.277-1.074.937a2.711 2.711 0 0 1-.781-.94 2.761 2.761 0 0 1-.294-1.19c0-.872.485-1.276 1.075-.936.327.25.594.57.78.94.186.368.286.775.294 1.189ZM141 86.174c0 .872-.484 1.277-1.074.936a2.719 2.719 0 0 1-.78-.939 2.761 2.761 0 0 1-.294-1.19c0-.851.485-1.277 1.074-.936A2.785 2.785 0 0 1 141 86.174Z" fill="#0196F0"/><path d="m163.746 105.057-14.342-8.516-.127-.128-2.379-5.343-4.655-2.725-1.537 1.341v1.746h-.548v-1.874a.324.324 0 0 1 0-.212l1.79-1.554a.252.252 0 0 1 .316 0l4.907 2.873a.213.213 0 0 1 .106.128l2.485 5.471 14.279 8.367-.295.426Zm-19.923-20.225-2.759-5.598-10.11-5.94.232-.447 10.194 5.96a.21.21 0 0 1 .105.129l2.738 5.62-.4.276Z" fill="#0196F0"/><path d="m139.168 84.662-3.37-6.919-5.433-3.172.273-.49 5.497 3.215.127.128 3.348 6.983-.442.255Zm-.906 26.866h-.547v-5.215a.264.264 0 0 1 0-.213l1.98-1.725a.25.25 0 0 1 .316 0l4.738 2.789-.274.468-4.57-2.661-1.748 1.512.105 5.045Zm15.817-2.874h-.547v-4.257l-2.254-4.62a.256.256 0 0 1-.055-.16c0-.058.019-.114.055-.16a.294.294 0 0 1 .337 0l10.678 6.259-.274.49-9.772-5.684 1.874 3.832c.01.042.01.086 0 .128l-.042 4.172Zm14.301 26.888h-.569v-1.767a.249.249 0 0 1 .027-.12.251.251 0 0 1 .078-.093l2.106-1.831a.3.3 0 0 1 .316 0l4.655 2.725-.274.489-4.486-2.639-1.832 1.618-.021 1.618Z" fill="#0196F0"/><path d="m170.928 124.237-17.207-10.09-1.769 1.532a.247.247 0 0 1-.316 0l-8.424-4.981-2.696 2.342a.294.294 0 0 1-.316 0l-24.431-14.327.295-.49 24.241 14.221 2.675-2.342a.293.293 0 0 1 .337 0l8.425 5.003 1.769-1.533a.252.252 0 0 1 .316 0l17.375 10.176-.274.489Z" fill="#0196F0"/><path d="M151.173 114.956h-.548v-9.516l-5.286-10.794.505-.255 5.308 10.857c.01.042.01.086 0 .128l.021 9.58Zm-16.996-23.758h-.569V88.43l-3.096-6.386.506-.234 3.117 6.386a.306.306 0 0 1 0 .128l.042 2.874Zm16.49 48.069h-.526v-2.789l-3.096-6.386.505-.256 3.117 6.387c.01.042.01.086 0 .128v2.916Zm-3.706-26.504-3.939-7.983a.307.307 0 0 1 0-.128v-4.13l-1.685-3.449-13.5-7.919.274-.49 13.606 7.94a.273.273 0 0 1 0 .107l1.748 3.619a.178.178 0 0 1 0 .107v4.045l3.917 8.047-.421.234Z" fill="#0196F0"/><path d="M136.557 103.822h-.148l-2.696-1.597.274-.49 2.527 1.491 3.834-3.343.379.426-4.002 3.47a.19.19 0 0 1-.168.043Zm-2.359-5.173-.358-.426 2.232-1.959v-2.299h.548v2.427a.26.26 0 0 1 0 .213l-2.422 2.044Zm-8.419-7.222-.491.245 6.32 12.942.491-.245-6.32-12.942Zm3.405 28.281-.49.245 2.042 4.18.491-.246-2.043-4.179Zm2.107-8.159-11.688-6.769-3.918 3.427v2.895h-.568v-3.108a.258.258 0 0 1 .105-.213l4.212-3.64a.29.29 0 0 1 .169-.053c.06 0 .119.018.168.053l11.794 7.025-.274.383Zm-12.152 16.946h-.59v-3.044a.27.27 0 0 1 .032-.108.249.249 0 0 1 .074-.084l6.592-5.854.379.426-6.508 5.748.021 2.916Z" fill="#0196F0"/><path d="M118.549 118.724h-.147l-6.318-3.683-2.591 2.256-.358-.425 2.738-2.385a.294.294 0 0 1 .316 0l6.318 3.683 9.941-8.686.379.426-10.109 8.814a.258.258 0 0 1-.169 0Z" fill="#0196F0"/><path d="m172.002 129.347-24.22-14.221-3.264 2.874a.317.317 0 0 1-.337 0l-7.645-4.492-8.783 7.685a.29.29 0 0 1-.337 0l-5.118-3.002-3.222 2.811a.296.296 0 0 1-.337 0l-4.676-2.747v4.066h-.568v-4.47a.3.3 0 0 1 .147-.234.313.313 0 0 1 .274 0l4.928 2.895 3.244-2.831a.287.287 0 0 1 .316 0l5.117 3.001 8.804-7.685a.252.252 0 0 1 .316 0l7.645 4.471 3.264-2.853a.317.317 0 0 1 .337 0l24.41 14.327-.295.405Z" fill="#0196F0"/><path d="M134.177 120.959h-.569v-3.066a.247.247 0 0 1 .027-.119.251.251 0 0 1 .078-.093l3.096-2.704a.252.252 0 0 1 .316 0l8.804 5.109 2.38-2.129a.294.294 0 0 1 .316 0l2.632 1.554-.274.49-2.464-1.448-2.38 2.129a.287.287 0 0 1-.316 0l-8.761-5.13-2.843 2.49-.042 2.917Z" fill="#0196F0"/><path d="M134.177 136.074h-.569v-7.515a.304.304 0 0 1 .105-.213l2.528-2.129v-7.387a.228.228 0 0 1 0-.191l1.453-1.278a.294.294 0 0 1 .316 0l9.583 5.62 1.074-.915a.25.25 0 0 1 .316 0l5.159 3.023 1.117-.979.358.425-1.264 1.107a.248.248 0 0 1-.316 0l-5.16-3.023-1.053.916a.292.292 0 0 1-.337 0l-9.583-5.642-1.2 1.065v7.28a.249.249 0 0 1-.027.12.251.251 0 0 1-.078.093l-2.507 2.129.085 7.494Zm39.131-3.875-8.024-4.704-4.402 3.853-.358-.426 4.549-3.981a.252.252 0 0 1 .316 0l8.193 4.811-.274.447Zm-5.051 13.482-.275.478 8.999 5.279.275-.478-8.999-5.279Zm10.316 2.187-23.567-13.838a.233.233 0 0 1-.105 0l-2.654-5.471.505-.234 2.57 5.258 23.525 13.774-.274.511Z" fill="#0196F0"/><path d="m158.228 139.48-4.886-2.768v-.127l-4.212-8.516-8.424-4.981-1.096.851-.358-.425 1.096-.98a.337.337 0 0 1 .337 0l8.74 5.131v.128l4.212 8.515 4.928 2.682-.337.49Z" fill="#0196F0"/><path d="m144.142 127.82-.275.478 2.459 1.443.275-.478-2.459-1.443Zm32.325 26.732-20.008-11.708-3.896 3.491-.358-.426 4.044-3.619a.25.25 0 0 1 .315 0l20.198 11.815-.295.447Zm-46.502-23.353h-.548v-3.96l-4.886-2.853-3.012 2.64-.358-.426 3.159-2.767a.252.252 0 0 1 .316 0l5.202 3.044a.306.306 0 0 1 .127.256v4.066Zm14.658-25.355c0 .873-.484 1.277-1.074.937a2.748 2.748 0 0 1-1.074-2.129c0-.873.484-1.277 1.074-.937.325.251.59.573.776.941.186.369.288.775.298 1.188Zm1.853 3.726c0 .851-.484 1.277-1.074.936a2.783 2.783 0 0 1-1.074-2.129c0-.872.484-1.298 1.074-.936a2.734 2.734 0 0 1 1.074 2.129Zm2.78 34.019-5.433-9.644-6.319-3.896v5.322h-.547v-5.811a.296.296 0 0 1 .147-.256.312.312 0 0 1 .274 0l6.782 4.258.105.106 5.518 9.708-.527.213Z" fill="#0196F0"/><path d="m173.434 102.821-16.752 9.161c.548.255 1.424.647 1.993.966 10.267 6.342 19.024 21.371 19.024 33.76 0 6.387-2.036 10.341-5.617 12.321l16.811-9.075c3.391-2.129 5.497-6.387 5.497-12.454 0-12.369-8.635-27.462-19.313-33.678-.526-.426-1.074-.724-1.643-1.001Z" fill="#fff" stroke="#1C2A60"/><path d="M129.08 73.975a13.837 13.837 0 0 1 5.552-.028 13.9 13.9 0 0 1 5.126 2.157 27.22 27.22 0 0 1 2.38 1.576c8.719 6.386 15.437 19.01 15.437 29.484a20.187 20.187 0 0 1-.526 4.705l16.301-9.027c.371-1.532.548-3.106.527-4.683 0-11.41-7.961-25.333-17.818-31.06a13.909 13.909 0 0 0-5.126-2.157 13.837 13.837 0 0 0-5.552.028l-16.301 9.005Z" fill="#fff" stroke="#1C2A60"/><path d="m66.044 60.862.885-.49-.885.49Z" fill="#E5FFFF"/><path d="M66.676 63.63Zm105.937 91.859c.19-.171.36-.364.505-.575a6.865 6.865 0 0 1-2.502 2.029 6.782 6.782 0 0 1-3.142.653 12.923 12.923 0 0 1-4.486-.936 17.38 17.38 0 0 1-1.727-.767c-.379-.191-78.936-46.047-79.231-46.217a42.877 42.877 0 0 1-13.48-14.795 41.86 41.86 0 0 1-5.98-20.14 14.64 14.64 0 0 1 3.327-10.303v.213a50.762 50.762 0 0 0 7.224 24.311 51.435 51.435 0 0 0 16.133 17.947l83.359 48.58Z" fill="#1C2A60"/><path d="m158.797 115.658-1.664-.894c.212-.888.353-1.792.421-2.704.422.192.822.426 1.243.66 10.678 6.238 19.334 21.289 19.334 33.679v1.447c-.611-12.07-9.035-26.206-19.334-32.188Zm-16.575-35.062a26.997 26.997 0 0 0-2.38-1.575 13.909 13.909 0 0 0-5.126-2.158 13.837 13.837 0 0 0-5.552.029 54.942 54.942 0 0 0-19.902-22.502 27 27 0 0 0-7.561-3.087 14.599 14.599 0 0 0-9.941.894c-4.486 2.235-7.456 7.153-8.066 14.285-.674-.447-1.327-.873-2.106-1.278a17.793 17.793 0 0 0-11.816-2.81c-5.58.958-9.393 5.897-9.793 13.86v-1.512c0-8.792 3.917-14.264 9.835-15.285 4.128-.502 8.3.47 11.795 2.746.673.383 1.326.809 2.106 1.256.61-7.11 3.58-12.05 8.066-14.285a14.598 14.598 0 0 1 9.92-.809 26.999 26.999 0 0 1 7.561 3.194 54.946 54.946 0 0 1 19.818 22.416 13.837 13.837 0 0 1 5.552-.028 13.9 13.9 0 0 1 5.126 2.157 27.22 27.22 0 0 1 2.38 1.576c8.698 6.386 15.437 19.01 15.437 29.484v1.448a40.95 40.95 0 0 0-4.831-15.601 40.52 40.52 0 0 0-10.522-12.415Z" fill="#E5FFFF"/><path d="M140.685 98.564c-6.171 14.689-22.136 22.799-40.016 22.012l-1.327-.788-.569-.319-8.656-5.046-.526-.298-1.075-.617c-11.941-6.983-21.63-23.886-21.63-37.745 0-6.642 2.212-11.389 5.835-13.73a25.579 25.579 0 0 1 13.016 6.216c.027-2.057.224-4.108.59-6.131.72.355 1.423.746 2.105 1.17.674.405 1.327.81 2.106 1.257.59-6.834 3.37-11.688 7.582-14.008 9.836.404 22.978 11.75 29.486 26.142 5.37-1.256 10.804.937 15.416 4.981a33.52 33.52 0 0 1-2.337 16.904Z" fill="#1C2A60" style="mix-blend-mode:multiply" opacity=".2"/><path d="m129.467 96.311.003-.007c2.751-6.93 3.521-15.109 1.304-22.28l-.134-.437-.447.095c-1.173.248-1.773.326-2.264.163-.467-.155-.928-.567-1.668-1.635-2.328-4.77-5.584-8.249-9.084-11.986l-.677-.724c-2.557-2.797-5.991-5.206-9.161-7.13-2.167-1.35-4.921-2.444-7.36-3.075-1.607-.442-3.163-.254-4.65.198-1.29.39-2.56.99-3.782 1.566l-.534.252-.013.006c-4.08 2.048-6.763 6.48-7.467 12.71a77.03 77.03 0 0 1-.515-.323c-.23-.145-.458-.289-.697-.435a16.319 16.319 0 0 0-10.98-2.533l-.012.002-.012.002c-5.633.99-9.927 6.207-9.927 14.467 0 6.47 2.26 13.762 5.86 20.23 3.6 6.468 8.572 12.166 14.052 15.416l.01.006 6.85 3.836 3.464 2.188.112.071.132.006c16.262.728 31.912-6.928 37.597-20.649Z" fill="#0196F0" stroke="#1C2A60"/><path d="M85.147 114.551c14.11 8.217 65.921 38.319 75.44 43.748 1.074.404 1.264 1.49 6.803 1.916 19.481-.852 9.351-38.426-10.467-48.432 1.591-4.907.598-10.593-1.201-15.348-3.938-10.858-14.743-24.823-26.516-22.481-5.349-10.261-12.363-18.776-22.135-23.694-10.804-5.365-22.177-1.682-23.398 13.284-4.213-3.066-10.026-4.918-13.817-4.087-18.702 3.853-9.203 43.194 15.29 55.094Zm-22.262-35.53c-2.106-18.457 9.183-21.736 22.936-10.772.632-31.656 30.875-15.967 41.764 8.515 15.353-3.64 31.317 21.097 26.494 36.638 12.005 3.129 31.044 34.061 16.301 43.726a10.426 10.426 0 0 1-8.613-1.086c-10.173-5.811-79.463-46.11-79.737-46.281-9.14-5.748-17.65-19.16-19.145-30.74Z" fill="#fff" stroke="#1C2A60"/></svg>