<svg width="303" height="160" fill="none" xmlns="http://www.w3.org/2000/svg"><g clip-path="url(#a)"><rect width="303" height="160" rx="12" fill="#2EB57D"/><path d="m144.716 168.556-78.869-45.555a1.344 1.344 0 0 1-.678-1.188c.004-.456 0-3.131 0-3.553 0-.399 48.453-25.112 53.713-27.793.326-.166.618-.331.947-.49a8.142 8.142 0 0 1 7.255.088c.254.13.464.253.715.387 5.597 2.993 78.43 41.965 78.43 42.833 0 .902-.014 3.075 0 3.517.014.47-.211.947-.676 1.216l-52.682 30.532a8.144 8.144 0 0 1-8.155.006Z" fill="#1C2A60"/><mask id="b" fill="#fff"><path d="m144.716 165.029-78.869-45.555a1.357 1.357 0 0 1 .008-2.355l53.488-30.415a8.143 8.143 0 0 1 8.117.04l78.095 45.4c.9.523.899 1.825-.002 2.347l-52.682 30.532a8.144 8.144 0 0 1-8.155.006Z"/></mask><path d="m144.716 165.029-78.869-45.555a1.357 1.357 0 0 1 .008-2.355l53.488-30.415a8.143 8.143 0 0 1 8.117.04l78.095 45.4c.9.523.899 1.825-.002 2.347l-52.682 30.532a8.144 8.144 0 0 1-8.155.006Z" fill="#fff"/><path d="m65.847 119.474-.5.866.5-.866Zm78.869 45.555.5-.866-.5.866Zm8.155-.006.501.865-.501-.865Zm52.682-30.532-.501-.865.501.865Zm.002-2.347-.503.864.503-.864Zm-78.095-45.4-.503.864.503-.865Zm-8.117-.04.494.87-.494-.87ZM65.855 117.12l-.494-.869.494.869Zm-.508 3.221 78.869 45.555 1-1.732-78.869-45.555-1 1.732Zm88.025 45.548 52.682-30.532-1.002-1.73-52.683 30.532 1.003 1.73Zm52.685-34.609-78.095-45.4-1.005 1.729 78.095 45.4 1.005-1.729Zm-87.208-45.444L65.361 116.25l.989 1.738 53.487-30.414-.988-1.739Zm9.113.044a9.141 9.141 0 0 0-9.113-.044l.988 1.739a7.142 7.142 0 0 1 7.12.034l1.005-1.73Zm78.092 49.477c1.566-.907 1.568-3.167.003-4.077l-1.005 1.729a.357.357 0 0 1 0 .618l1.002 1.73Zm-61.838 30.539a9.142 9.142 0 0 0 9.156-.007l-1.003-1.73a7.145 7.145 0 0 1-7.153.005l-1 1.732Zm-77.869-47.287a.357.357 0 0 1 .003-.62l-.99-1.738c-1.582.9-1.59 3.179-.013 4.09l1-1.732Z" fill="#1C2A60" mask="url(#b)"/><path opacity=".2" d="m96.278 104.521 25.499-14.762a2.714 2.714 0 0 1 2.719 0l73.574 42.576a1.356 1.356 0 0 1-.013 2.356l-24.598 13.865a2.715 2.715 0 0 1-2.686-.012l-74.494-42.847a.68.68 0 0 1-.001-1.176Z" fill="#1C2A60"/><path d="m127.158 91.815-3.5-2a1.178 1.178 0 0 0-1.04 0l-2.819 1.58c-.3.16-.32.42 0 .6l3.499 2.002a1.241 1.241 0 0 0 1.06 0l2.82-1.581c.26-.16.26-.44-.02-.6Zm4.92 2.862-3.5-2a1.182 1.182 0 0 0-1.04 0l-2.84 1.58c-.279.16-.299.44 0 .6l3.5 2.002a1.241 1.241 0 0 0 1.06 0l2.82-1.581c.28-.16.28-.4 0-.6Zm5.019 2.942-3.499-2.001a1.18 1.18 0 0 0-1.04 0l-2.84 1.58c-.3.16-.3.441 0 .601l3.5 2.001a1.241 1.241 0 0 0 1.06 0l2.819-1.58c.28-.18.28-.441 0-.601Zm5.079 2.941-3.519-2a1.18 1.18 0 0 0-1.04 0l-2.82 1.58c-.3.16-.32.44 0 .601l3.5 2.001a1.185 1.185 0 0 0 1.04 0l2.839-1.581c.26-.16.28-.42 0-.601Zm5.018 2.922-3.52-2.001a1.117 1.117 0 0 0-1.04 0l-2.819 1.561c-.3.16-.32.44 0 .601l3.519 2.001a1.188 1.188 0 0 0 1.04 0l2.84-1.581c.24-.14.26-.4-.02-.581Zm5.02 2.941-3.5-2.001a1.24 1.24 0 0 0-1.06 0l-2.819 1.581c-.3.16-.32.42 0 .581l3.499 2.001a1.065 1.065 0 0 0 1.04 0l2.84-1.561c.26-.14.28-.44 0-.601Zm5.02 2.922-3.5-2.001a1.247 1.247 0 0 0-1.06 0l-2.819 1.581c-.3.16-.32.42 0 .6l3.499 2.002a1.187 1.187 0 0 0 1.04 0l2.84-1.581c.26-.16.28-.441 0-.601Zm5.019 2.922-3.499-2.001a1.247 1.247 0 0 0-1.06 0l-2.82 1.581c-.3.16-.3.44 0 .6l3.5 2.002a1.247 1.247 0 0 0 1.06 0l2.819-1.581c.26-.16.28-.421 0-.601Zm5.02 2.941-3.499-2.001a1.164 1.164 0 0 0-1.06 0l-2.82 1.561c-.3.18-.32.44 0 .6l3.5 2.002a1.12 1.12 0 0 0 1.04 0l2.839-1.581c.26-.16.28-.421 0-.581Zm5.04 2.923-3.52-2.001a1.18 1.18 0 0 0-1.039 0l-2.82 1.581c-.3.16-.32.44 0 .601l3.52 2.001a1.18 1.18 0 0 0 1.039 0l2.82-1.581c.26-.16.28-.44 0-.601Zm5.02 2.921-3.519-2.001a1.188 1.188 0 0 0-1.04 0l-2.82 1.581c-.3.16-.32.44 0 .6l3.52 2.001a1.167 1.167 0 0 0 1.039 0l2.82-1.58c.26-.161.28-.421 0-.601Zm5.017 2.943-3.519-2.001a1.123 1.123 0 0 0-1.04 0l-2.82 1.581c-.3.16-.32.42 0 .58l3.5 2.001a1.12 1.12 0 0 0 1.04 0l2.839-1.581c.26-.16.28-.42 0-.58Zm5.02 2.901-3.519-2.001a1.174 1.174 0 0 0-1.04 0l-2.82 1.581c-.3.16-.32.42 0 .58l3.52 2.001a1.174 1.174 0 0 0 1.04 0l2.839-1.581c.24-.12.26-.4-.02-.58Zm5.02 2.942-3.499-2.001a1.247 1.247 0 0 0-1.06 0l-2.82 1.581c-.3.16-.32.44 0 .6l3.5 2.002a1.187 1.187 0 0 0 1.04 0l2.839-1.581c.26-.16.28-.421 0-.601Zm5.02 2.941-3.499-2.001a1.233 1.233 0 0 0-1.06 0l-2.82 1.58c-.3.161-.32.441 0 .601l3.5 2.001a1.181 1.181 0 0 0 1.04 0l2.839-1.581c.26-.18.28-.48 0-.6Z" fill="#1C2A60"/><path d="m123.527 93.212-3.244-1.855 2.566-1.44a.681.681 0 0 1 .577 0l3.257 1.863-2.552 1.431a.743.743 0 0 1-.604 0Zm1.405 1.148h.001-.001Zm.252-.14 2.585-1.44a.676.676 0 0 1 .576 0l3.248 1.856-2.563 1.437a.738.738 0 0 1-.603 0l-3.243-1.854Zm5.02 2.94 2.584-1.438a.683.683 0 0 1 .577-.001l3.248 1.857-2.563 1.437a.738.738 0 0 1-.603 0l-3.243-1.854Zm6.645.282-.002.002.002-.002Zm1.68 4.517-3.247-1.857 2.566-1.439a.68.68 0 0 1 .577 0l3.265 1.856-2.584 1.439a.686.686 0 0 1-.577.001Zm-3.519-1.704.003-.002-.003.002Zm8.557 4.606-3.265-1.857 2.569-1.422a.622.622 0 0 1 .565-.001l3.264 1.856-2.556 1.423a.68.68 0 0 1-.577.001Zm-3.539-1.704.003-.002-.003.002Zm8.826 4.724a.556.556 0 0 1-.273-.071l-3.244-1.855 2.545-1.427a.732.732 0 0 1 .603-.001l3.242 1.854-2.594 1.426-.004.002a.562.562 0 0 1-.275.072Zm4.733 2.863-3.248-1.857 2.563-1.437a.732.732 0 0 1 .603-.001l3.243 1.855-2.584 1.439a.692.692 0 0 1-.577.001Zm5.016 2.92-3.244-1.855 2.563-1.437a.732.732 0 0 1 .603-.001l3.244 1.855-2.563 1.437a.732.732 0 0 1-.603.001Zm1.778 1.066 2.568-1.421a.654.654 0 0 1 .588-.001l3.233 1.849-2.573 1.432a.622.622 0 0 1-.564.001l-3.252-1.86Zm6.643.284-.001.001.001-.001Zm1.662 4.516-3.267-1.858 2.566-1.438a.686.686 0 0 1 .576-.001l3.267 1.858-2.566 1.438a.67.67 0 0 1-.576.001Zm-3.539-1.704.003-.002-.003.002Zm8.559 4.624-3.267-1.857 2.566-1.438a.67.67 0 0 1 .576-.001l3.267 1.857-2.566 1.439a.685.685 0 0 1-.576 0Zm-3.539-1.703.003-.002-.003.002Zm8.543 4.63-3.236-1.851 2.555-1.432a.614.614 0 0 1 .563-.001l3.254 1.851-2.572 1.432a.621.621 0 0 1-.564.001Zm3.391-1.577-.001.001.001-.001Zm1.642 4.474-3.249-1.847 2.548-1.428a.67.67 0 0 1 .577-.001l3.257 1.852-2.556 1.423a.67.67 0 0 1-.577.001Zm5.001 2.963-3.248-1.857 2.562-1.437a.74.74 0 0 1 .604-.001l3.243 1.855-2.585 1.439a.686.686 0 0 1-.576.001Zm-3.52-1.704.003-.002a.014.014 0 0 1-.003.002Zm11.914 3.086h-.001l.002-.002-.001.002Zm-.213.118-2.585 1.439a.67.67 0 0 1-.577.001l-3.247-1.857 2.562-1.437a.75.75 0 0 1 .603-.001l3.244 1.855Zm-6.681-.264.003-.002-.003.002Z" fill="#fff" stroke="#1C2A60"/><path d="m122.287 95.244-3.8-2.221a1.179 1.179 0 0 0-1.04 0l-2.819 1.58c-.3.16-.32.44 0 .601l3.799 2.201a1.18 1.18 0 0 0 1.04 0l2.82-1.58c.26-.2.28-.46 0-.58Zm5.22 3.002-3.779-2.221a1.241 1.241 0 0 0-1.06 0l-2.82 1.58c-.3.16-.3.441 0 .601l3.78 2.201a1.049 1.049 0 0 0 1.039 0l2.84-1.56c.28-.18.28-.44 0-.6Zm5.294 3.102-3.78-2.222a1.235 1.235 0 0 0-1.06 0l-2.819 1.581c-.3.161-.3.441 0 .601l3.779 2.201a1.055 1.055 0 0 0 1.04 0l2.84-1.561c.28-.18.28-.44 0-.6Zm-.954 4.505-3.779-2.221a1.232 1.232 0 0 0-1.06 0l-2.82 1.581c-.3.16-.3.44 0 .6l3.78 2.201a1.05 1.05 0 0 0 1.04 0l2.839-1.561c.28-.18.28-.44 0-.6Zm-5.059-3.113-3.779-2.221a1.247 1.247 0 0 0-1.06 0l-2.82 1.581c-.3.16-.3.44 0 .6l3.78 2.202a1.065 1.065 0 0 0 1.04 0l2.839-1.561c.28-.18.28-.441 0-.601Zm11.039 1.489-3.519-2.001a1.112 1.112 0 0 0-1.04 0l-2.82 1.58c-.3.161-.32.421 0 .581l3.52 2.001a1.06 1.06 0 0 0 1.04 0l2.819-1.561c.26-.18.28-.44 0-.6Zm5.018 3.022-3.52-2.001a1.174 1.174 0 0 0-1.04 0l-2.82 1.581c-.3.16-.32.42 0 .6l3.5 2.001a1.174 1.174 0 0 0 1.04 0l2.82-1.581c.28-.26.3-.6.02-.6Zm5.019 2.822-3.519-2.001a1.174 1.174 0 0 0-1.04 0l-2.82 1.58c-.3.161-.3.441 0 .601l3.52 2.001a1.185 1.185 0 0 0 1.04 0l2.819-1.581c.26-.16.28-.42 0-.6Zm5.021 2.942-3.5-2.001a1.232 1.232 0 0 0-1.06 0l-2.82 1.581c-.299.16-.319.44 0 .6l3.5 2.001a1.174 1.174 0 0 0 1.04 0l2.82-1.581c.28-.18.3-.36.02-.6Zm5.019 2.921-3.499-2.002a1.247 1.247 0 0 0-1.06 0l-2.82 1.581c-.3.16-.3.421 0 .581l3.5 2.001a1.117 1.117 0 0 0 1.039 0l2.84-1.561c.26-.18.28-.44 0-.6Zm5.02 2.922-3.499-2.002a1.247 1.247 0 0 0-1.06 0l-2.82 1.581c-.3.16-.3.421 0 .601l3.5 2.001a1.181 1.181 0 0 0 1.039 0l2.82-1.581c.28-.2.3-.44.02-.6Zm5.04 2.941-3.52-2.001a1.065 1.065 0 0 0-1.04 0l-2.819 1.561c-.3.18-.32.44 0 .6l3.519 2.002a1.123 1.123 0 0 0 1.04 0l2.82-1.581c.26-.16.28-.421 0-.581Zm5.017 2.923-3.519-2.002a1.187 1.187 0 0 0-1.04 0l-2.82 1.581c-.3.161-.32.421 0 .581l3.52 2.001a1.06 1.06 0 0 0 1.04 0l2.819-1.561c.26-.06.28-.44 0-.6Zm5.02 2.922-3.519-2.002a1.187 1.187 0 0 0-1.04 0l-2.82 1.581c-.3.16-.32.421 0 .601l3.52 2.001a1.185 1.185 0 0 0 1.04 0l2.819-1.581c.26-.16.28-.44 0-.6Zm5.02 2.92-3.52-2.001a1.18 1.18 0 0 0-1.039 0l-2.82 1.581c-.3.16-.32.44 0 .6l3.52 2.002a1.18 1.18 0 0 0 1.039 0l2.82-1.581c.26-.16.28-.421 0-.601Zm9.258 5.405-7.679-4.463a1.174 1.174 0 0 0-1.04 0l-2.84 1.581c-.28.16-.3.42 0 .58l7.679 4.483a1.188 1.188 0 0 0 1.04 0l2.82-1.581c.28-.16.28-.44.02-.6Zm-55.413-27.357-3.5-2.002a1.18 1.18 0 0 0-1.039 0l-2.84 1.581c-.28.161-.3.421 0 .581l3.499 2.001a1.164 1.164 0 0 0 1.06 0l2.82-1.561c.28-.18.28-.44 0-.6Zm5.02 2.922-3.5-2.001a1.174 1.174 0 0 0-1.04 0l-2.82 1.58c-.299.161-.319.421 0 .601l3.5 2.001a1.247 1.247 0 0 0 1.06 0l2.82-1.581c.26-.16.26-.44-.02-.6Zm5.02 2.922-3.5-2.002a1.187 1.187 0 0 0-1.04 0l-2.839 1.581c-.28.16-.3.441 0 .601l3.499 2.001a1.247 1.247 0 0 0 1.06 0l2.82-1.581c.28-.16.28-.42 0-.6Zm5.02 2.941-3.5-2.001a1.174 1.174 0 0 0-1.04 0l-2.819 1.561c-.3.18-.32.44 0 .6l3.499 2.001a1.093 1.093 0 0 0 1.06 0l2.82-1.561c.26-.18.26-.44-.02-.6Zm5.017 2.922-3.5-2.001a1.168 1.168 0 0 0-1.039 0l-2.82 1.581c-.3.16-.32.42 0 .58l3.499 2.001a1.152 1.152 0 0 0 1.06 0l2.82-1.56c.26-.161.28-.441-.02-.601Zm5.041 2.941-3.579-2.001a1.065 1.065 0 0 0-1.04 0l-2.84 1.561c-.3.16-.3.44 0 .6l3.5 2.002a1.247 1.247 0 0 0 1.06 0l2.819-1.581c.34-.16.36-.421.08-.581Zm5.019 2.921-3.5-2.001a1.12 1.12 0 0 0-1.04 0l-2.84 1.581c-.3.16-.3.42 0 .58l3.5 2.002a1.065 1.065 0 0 0 1.04 0l2.84-1.561c.259-.18.279-.441 0-.601Zm5.02 2.922-3.5-2.001a1.188 1.188 0 0 0-1.04 0l-2.84 1.581c-.3.16-.3.44 0 .6l3.5 2.002a1.247 1.247 0 0 0 1.06 0l2.82-1.581c.379-.16.379-.441 0-.601Zm5.017 2.922-3.499-2.001a1.188 1.188 0 0 0-1.04 0l-2.84 1.581c-.3.16-.3.44 0 .6l3.5 2.002a1.24 1.24 0 0 0 1.059 0l2.82-1.581c.28-.16.28-.421 0-.601Zm10.899 6.364-9.55-5.518a1.187 1.187 0 0 0-1.04 0l-2.839 1.581c-.28.16-.3.421 0 .601l9.55 5.497a1.055 1.055 0 0 0 1.04 0l2.839-1.581c.26-.16.28-.42 0-.58Zm-68.349-35.026-9.509-5.525a1.18 1.18 0 0 0-1.04 0l-2.82 1.581c-.3.16-.32.42 0 .601l9.509 5.524a1.188 1.188 0 0 0 1.04 0l2.82-1.581c.26-.16.28-.42 0-.6Zm2.113-3.616-7.265-4.216a1.055 1.055 0 0 0-1.04 0l-2.839 1.561c-.28.16-.3.44 0 .6l7.265 4.236a1.167 1.167 0 0 0 1.039 0l2.82-1.581c.32-.16.32-.44.02-.6Zm7.466 9.305-3.5-2.001a1.247 1.247 0 0 0-1.06 0l-2.82 1.581c-.3.16-.3.42 0 .581l3.5 2.001a1.12 1.12 0 0 0 1.04 0l2.82-1.561c.279-.18.299-.4.02-.601Zm-4.761-2.975-3.5-2.001a1.227 1.227 0 0 0-1.06 0l-2.819 1.58c-.3.161-.3.421 0 .581l3.499 2.001a1.123 1.123 0 0 0 1.04 0l2.82-1.561c.28-.18.3-.4.02-.6Zm9.778 5.897-3.499-2.001a1.247 1.247 0 0 0-1.06 0l-2.82 1.581c-.3.16-.3.42 0 .601l3.5 2.001a1.181 1.181 0 0 0 1.039 0l2.84-1.581c.22-.16.22-.44 0-.601Zm5.02 2.921-3.5-2.001a1.24 1.24 0 0 0-1.06 0l-2.819 1.581c-.3.16-.3.44 0 .6l3.499 2.001a1.174 1.174 0 0 0 1.04 0l2.84-1.58c.28-.241.28-.421 0-.601Zm5.02 2.942-3.5-2.001a1.09 1.09 0 0 0-1.06 0l-2.819 1.561c-.3.18-.3.44 0 .6l3.499 2.001a1.123 1.123 0 0 0 1.04 0l2.84-1.581c.18-.16.28-.42 0-.58Zm5.02 2.922-3.5-2.001a1.227 1.227 0 0 0-1.06 0l-2.819 1.58c-.3.161-.3.421 0 .581l3.499 2.001a1.188 1.188 0 0 0 1.04 0l2.84-1.581c.28-.08.28-.42 0-.58Zm5.017 2.922-3.499-2.001a1.233 1.233 0 0 0-1.06 0l-2.82 1.58c-.3.161-.3.421 0 .601l3.5 2.001a1.185 1.185 0 0 0 1.04 0l2.839-1.581c.26-.16.28-.44 0-.6Zm5.04 2.941-3.5-2.002a1.157 1.157 0 0 0-1.059 0l-2.82 1.581c-.3.16-.32.421 0 .581l3.5 2.001a1.058 1.058 0 0 0 1.039 0l2.82-1.561c.28-.18.3-.44.02-.6Zm5.099 2.923-3.52-2.001a1.174 1.174 0 0 0-1.04 0l-2.819 1.58a.322.322 0 0 0-.152.483c.038.054.09.095.152.118l3.519 2.001a1.188 1.188 0 0 0 1.04 0l2.82-1.581c.18-.16.2-.44 0-.6Zm4.941 2.921-3.5-2.002a1.164 1.164 0 0 0-1.06 0l-2.82 1.561c-.299.16-.299.441 0 .601l3.5 2.001a1.188 1.188 0 0 0 1.04 0l2.84-1.581c.26-.14.28-.4 0-.58Zm5.059 2.942-3.5-2.001a1.233 1.233 0 0 0-1.06 0l-2.819 1.58c-.3.161-.3.441 0 .601l3.499 2.001a1.188 1.188 0 0 0 1.04 0l2.84-1.581c.22-.18.24-.44 0-.6Zm9.218 5.382-7.679-4.462a1.168 1.168 0 0 0-1.039 0l-2.82 1.581c-.3.16-.32.42 0 .6l7.679 4.463a1.188 1.188 0 0 0 1.04 0l2.819-1.581c.26-.12.28-.44 0-.601Zm-70.134-36.118-7.613-4.358a1.188 1.188 0 0 0-1.04 0l-2.82 1.581c-.3.16-.32.42 0 .601l7.613 4.357a1.247 1.247 0 0 0 1.06 0l2.82-1.581c.26-.16.28-.42-.02-.6Zm19.7 11.725-3.5-2.001a1.117 1.117 0 0 0-1.039 0l-2.84 1.561c-.28.18-.3.44 0 .6l3.499 2.001a1.232 1.232 0 0 0 1.06 0l2.82-1.581c.28-.16.28-.42 0-.58Zm-4.942-2.977-3.499-2.001a1.123 1.123 0 0 0-1.04 0l-2.84 1.561c-.28.18-.3.44 0 .6l3.5 2.001a1.232 1.232 0 0 0 1.06 0l2.819-1.581c.28-.16.28-.42 0-.58Zm-4.783-2.926-3.499-2.001a1.123 1.123 0 0 0-1.04 0l-2.84 1.561c-.28.18-.3.44 0 .6l3.5 2.002a1.247 1.247 0 0 0 1.06 0l2.819-1.581c.28-.16.28-.42 0-.581Zm-5.015-3.1-3.499-2.001a1.12 1.12 0 0 0-1.04 0l-2.84 1.561c-.28.18-.3.44 0 .6l3.5 2.001a1.232 1.232 0 0 0 1.06 0l2.819-1.581c.28-.16.28-.42 0-.58Zm19.76 11.865-3.5-2.001a1.055 1.055 0 0 0-1.04 0l-2.839 1.581c-.28.16-.3.42 0 .58l3.499 2.001a1.106 1.106 0 0 0 1.06 0l2.82-1.561c.2-.12.2-.38 0-.6Zm5.02 2.981-3.5-2.001a1.171 1.171 0 0 0-1.04 0l-2.839 1.581c-.28.16-.3.44 0 .6l3.499 2.001a1.247 1.247 0 0 0 1.06 0l2.82-1.581c.28-.16.3-.44 0-.6Zm5.02 3.022-3.5-2.001a1.174 1.174 0 0 0-1.04 0l-2.84 1.581c-.28.16-.299.44 0 .6l3.5 2.001a1.232 1.232 0 0 0 1.06 0l2.82-1.581c.28-.26.3-.6 0-.6Zm5.037 2.842-3.5-2.001a1.232 1.232 0 0 0-1.06 0l-2.819 1.581c-.3.16-.3.42 0 .6l3.499 2.001a1.174 1.174 0 0 0 1.04 0l2.84-1.581c.28-.16.28-.44 0-.6Zm5.12 2.921-3.5-2.001a1.232 1.232 0 0 0-1.06 0l-2.819 1.581c-.3.16-.3.44 0 .6l3.499 2.001a1.174 1.174 0 0 0 1.04 0l2.84-1.581c.16-.16.18-.36 0-.6Zm4.92 2.942-3.5-2.001a1.152 1.152 0 0 0-1.06 0l-2.82 1.561c-.299.16-.299.44 0 .6l3.5 2.001a1.232 1.232 0 0 0 1.06 0l2.82-1.581c.28-.16.28-.42 0-.58Zm11.648 6.717-3.499-2.001a1.174 1.174 0 0 0-1.04 0l-2.84 1.58c-.28.161-.3.421 0 .601l3.5 2.001a1.247 1.247 0 0 0 1.06 0l2.819-1.581c.28-.16.3-.44 0-.6Zm-63.943-32.394-3.519-2.001a1.123 1.123 0 0 0-1.04 0l-2.82 1.561c-.3.18-.32.44 0 .6l3.52 2.001c.16.085.338.128.52.128.181 0 .359-.043.519-.128l2.82-1.581c.22-.16.24-.42 0-.58Zm-5.013-2.85-4.551-2.593a1.12 1.12 0 0 0-1.04 0l-2.82 1.561c-.3.18-.32.441 0 .601l4.552 2.593a1.12 1.12 0 0 0 1.04 0l2.819-1.581c.22-.16.24-.421 0-.581Zm9.974 5.819-3.519-2.002a1.187 1.187 0 0 0-1.04 0l-2.82 1.581c-.3.16-.32.421 0 .581l3.52 2.001a1.12 1.12 0 0 0 1.04 0l2.819-1.561c.26-.18.28-.44 0-.6Zm5.061 2.943-3.499-2.001a1.065 1.065 0 0 0-1.04 0l-2.84 1.561c-.28.18-.3.44 0 .6l3.5 2.002a1.164 1.164 0 0 0 1.06 0l2.819-1.581c.32-.16.32-.421 0-.581Zm29.534 17.283-28.013-16.351a1.187 1.187 0 0 0-1.04 0l-2.84 1.581c-.28.16-.3.421 0 .601l28.013 16.33a1.164 1.164 0 0 0 1.06 0l2.82-1.581c.28-.16.28-.42 0-.58Zm5.019 2.923-3.499-2.002a1.247 1.247 0 0 0-1.06 0l-2.82 1.581c-.3.16-.3.421 0 .581l3.5 2.001a1.1 1.1 0 0 0 1.06 0l2.819-1.561c.26-.16.28-.44 0-.6Zm5.02 2.86-3.5-2.001a1.167 1.167 0 0 0-1.039 0l-2.84 1.581c-.28.16-.3.42 0 .6l3.499 2.001a1.247 1.247 0 0 0 1.06 0l2.82-1.581c.28-.1.28-.38 0-.6Zm5.088 2.863-3.499-2.001a1.174 1.174 0 0 0-1.04 0l-2.84 1.581c-.3.16-.3.44 0 .6l3.5 2.001a1.232 1.232 0 0 0 1.06 0l2.819-1.581c.28-.16.28-.42 0-.6Zm5.067 2.982-3.5-2.002a1.065 1.065 0 0 0-1.04 0l-2.819 1.561c-.3.181-.32.441 0 .601l3.499 2.001a1.164 1.164 0 0 0 1.06 0l2.82-1.561c.26-.26.148-.504-.02-.6Zm4.294 2.425-2.72-1.581a1.174 1.174 0 0 0-1.04 0l-2.84 1.581c-.28.16-.3.42 0 .58l2.72 1.601a1.12 1.12 0 0 0 1.04 0l2.84-1.561c.26-.18.28-.46 0-.62Z" fill="#1C2A60"/><path d="m121.79 95.192-2.551 1.43a.678.678 0 0 1-.575.002l-3.55-2.057 2.567-1.44a.681.681 0 0 1 .575-.001l3.534 2.066Zm-6.946-.472.003-.003-.003.003Zm12.182 3.483-2.596 1.427h-.001l-.004.003a.56.56 0 0 1-.546.001l-3.546-2.064 2.565-1.438a.74.74 0 0 1 .601-.002l3.527 2.073Zm.236-.132-.002.002.002-.002Zm5.058 3.234-2.597 1.427-.004.003a.564.564 0 0 1-.547.001l-3.545-2.065 2.565-1.438a.737.737 0 0 1 .601-.002l3.527 2.074Zm.235-.133-.002.002.002-.002Zm-1.189 4.638-2.596 1.427-.005.003a.562.562 0 0 1-.546.001l-3.546-2.065 2.565-1.438a.749.749 0 0 1 .601-.001l3.527 2.073Zm.236-.132-.002.001.002-.001Zm-5.294-2.981-2.597 1.428-.005.002a.56.56 0 0 1-.546.002l-3.545-2.065 2.564-1.438a.733.733 0 0 1 .601-.002l3.528 2.073Zm.235-.132-.002.002.002-.002Zm7.674 3.051-3.263-1.855 2.554-1.432a.62.62 0 0 1 .564-.001l3.271 1.86-2.575 1.426-.003.001a.557.557 0 0 1-.548.001Zm3.35-1.554-.003.002.003-.002Zm4.986 2.999-.001.001.001-.001Zm-.201.145-2.575 1.444a.688.688 0 0 1-.576 0l-3.248-1.857 2.566-1.438a.67.67 0 0 1 .577-.001l3.256 1.852Zm1.888 4.266-3.267-1.857 2.566-1.439a.685.685 0 0 1 .576 0l3.267 1.857-2.565 1.438a.674.674 0 0 1-.577.001Zm5.001 2.942-3.248-1.857 2.563-1.437a.748.748 0 0 1 .603 0l3.234 1.849-2.576 1.445a.688.688 0 0 1-.576 0Zm-3.52-1.703.003-.003-.003.003Zm8.546 4.608-3.237-1.851 2.545-1.427a.749.749 0 0 1 .603-.001l3.242 1.854-2.589 1.423a.62.62 0 0 1-.564.002Zm3.377-1.55-.003.002.003-.002Zm-6.901-.465-.002-.002.002.002Zm-.002.327.002-.001-.002.001Zm8.539 4.626-3.247-1.857 2.562-1.437a.75.75 0 0 1 .603-.001l3.235 1.85-2.577 1.444a.67.67 0 0 1-.576.001Zm4.369-.36.004-.002a.558.558 0 0 1 .549 0l3.262 1.855-2.555 1.432a.627.627 0 0 1-.563 0l-3.272-1.86 2.575-1.425Zm4.069 1.709-.002.001.002-.001Zm1.927 4.574a.557.557 0 0 1-.274-.071l-3.263-1.855 2.548-1.429a.685.685 0 0 1 .576 0l3.265 1.856-2.575 1.426-.003.001a.55.55 0 0 1-.274.072Zm4.732 2.863-3.267-1.857 2.566-1.439a.685.685 0 0 1 .576 0l3.267 1.857-2.565 1.438a.674.674 0 0 1-.577.001Zm5.02 2.921-3.267-1.858 2.566-1.438a.67.67 0 0 1 .576-.001l3.267 1.858-2.566 1.438a.67.67 0 0 1-.576.001Zm-3.539-1.704.003-.002-.003.002Zm12.779 7.109-7.413-4.327 2.569-1.431a.678.678 0 0 1 .576-.002l7.42 4.313-2.578 1.445a.67.67 0 0 1-.574.002Zm-7.686-4.174.003-.002-.003.002ZM129.718 108.3l.003-.003-.003.003Zm.275-.155 2.567-1.429a.67.67 0 0 1 .577-.002l3.246 1.857-2.568 1.421a.66.66 0 0 1-.589.002l-3.233-1.849Zm6.628.291-.002.002.002-.002Zm1.637 4.495-3.244-1.855 2.566-1.439a.685.685 0 0 1 .576-.001l3.258 1.863-2.553 1.431a.732.732 0 0 1-.603.001Zm1.505 1.209.001-.001-.001.001Zm.252-.142 2.585-1.439a.685.685 0 0 1 .576-.001l3.248 1.858-2.563 1.436a.732.732 0 0 1-.603.001l-3.243-1.855Zm6.645.556-.002-.002.002.002Zm-1.604 2.366 2.563-1.419a.678.678 0 0 1 .577-.001l3.256 1.862-2.564 1.419-.001.001a.602.602 0 0 1-.574.001l-3.257-1.863Zm6.623.315v.001-.001Zm1.535 1.187 3.256 1.862-2.558 1.416a.66.66 0 0 1-.589.001l-3.234-1.849 2.548-1.429a.674.674 0 0 1 .577-.001Zm4.948 2.934.002.001 3.278 1.832-2.582 1.448a.732.732 0 0 1-.603.001l-3.242-1.854 2.594-1.426.004-.002a.564.564 0 0 1 .549 0Zm3.586 2.005h-.001.001Zm1.624 4.208-3.242-1.855 2.573-1.432a.622.622 0 0 1 .564-.002l3.251 1.86-2.593 1.426v-.001l-.005.003a.558.558 0 0 1-.548.001Zm3.37-1.555-.002.003.002-.003Zm-6.901-.465-.002-.001.002.001Zm-.002.328.002-.002-.002.002Zm8.454 1.329 3.248 1.857-2.563 1.437a.732.732 0 0 1-.603.001l-3.243-1.855 2.584-1.439a.68.68 0 0 1 .577-.001Zm5.1 6.217-3.244-1.855 2.585-1.439a.69.69 0 0 1 .577-.001l3.247 1.857-2.562 1.437a.733.733 0 0 1-.603.001Zm3.402-1.3-.002-.002.002.002Zm10.899 6.073-.001.001.001-.001Zm-.253.142-2.58 1.436-.003.002a.558.558 0 0 1-.547.001l-9.226-5.305 2.586-1.439a.67.67 0 0 1 .576-.002l9.194 5.307Zm-12.612-3.722.003-.001-.003.001Zm-58.862-29.853-9.26-5.38 2.568-1.44a.68.68 0 0 1 .575-.001l9.26 5.38-2.568 1.439a.674.674 0 0 1-.575.002Zm5.52-5.216-.002.001.002-.001Zm-7.293-3.92 7.019 4.073-2.578 1.446a.685.685 0 0 1-.574.001l-7.015-4.09 2.596-1.427.005-.002a.558.558 0 0 1 .547-.001Zm-3.399 1.57.001-.001h-.001Zm14.736 13.239-3.236-1.851 2.545-1.427a.732.732 0 0 1 .603-.001l3.232 1.849-2.58 1.428a.62.62 0 0 1-.564.002Zm-3.524-2.016-.002-.001.002.001Zm-.002.328.002-.002-.002.002Zm-1.235-1.288-3.236-1.851 2.545-1.427a.748.748 0 0 1 .603-.001l3.233 1.849-2.58 1.428a.61.61 0 0 1-.565.002Zm-3.523-2.015-.003-.002.003.002Zm-.003.327.003-.001-.003.001Zm13.298 7.602-3.247-1.857 2.562-1.437a.733.733 0 0 1 .603-.001l3.244 1.855-2.585 1.439a.675.675 0 0 1-.577.001Zm5.02 2.921-3.248-1.857 2.563-1.437a.732.732 0 0 1 .603-.001l3.243 1.855-2.584 1.439a.692.692 0 0 1-.577.001Zm1.774 1.065 2.574-1.425.001-.001a.602.602 0 0 1 .574-.001l3.241 1.853-2.574 1.433a.615.615 0 0 1-.564.001l-3.252-1.86Zm8.266 4.778-3.23-1.847 2.545-1.427a.748.748 0 0 1 .603 0l3.226 1.844-2.567 1.429a.678.678 0 0 1-.577.001Zm-3.517-2.011-.003-.002.003.002Zm-.003.327.003-.001-.003.001Zm8.537 4.626-3.247-1.857 2.562-1.437a.749.749 0 0 1 .603 0l3.244 1.854-2.585 1.439a.67.67 0 0 1-.577.001Zm5.327 3a.559.559 0 0 1-.273-.071l-3.244-1.855 2.553-1.431a.653.653 0 0 1 .587-.001l3.241 1.853-2.586 1.431-.003.002a.551.551 0 0 1-.275.072Zm3.098-1.639-.003.003.003-.003Zm1.733 4.503-3.266-1.857 2.565-1.439a.688.688 0 0 1 .577 0l3.266 1.857-2.565 1.438a.67.67 0 0 1-.577.001Zm4.922 2.901-3.246-1.856 2.568-1.422a.654.654 0 0 1 .588-.001l3.233 1.849-2.567 1.429a.67.67 0 0 1-.576.001Zm5.059 2.962-3.248-1.857 2.563-1.437a.748.748 0 0 1 .603 0l3.243 1.854-2.584 1.439a.678.678 0 0 1-.577.001Zm12.383 3.942-2.568 1.44a.674.674 0 0 1-.575.002l-7.43-4.319 2.568-1.439a.67.67 0 0 1 .574-.002l7.431 4.318Zm-73.282-34.68-7.358-4.211 2.566-1.439a.686.686 0 0 1 .576-.001l7.371 4.219-2.552 1.431a.733.733 0 0 1-.603.001Zm16.438 9.852 2.588-1.423a.614.614 0 0 1 .565-.002l3.237 1.851-2.545 1.427a.749.749 0 0 1-.603 0l-3.242-1.853Zm-4.942-2.977 2.589-1.423a.61.61 0 0 1 .565-.002l3.236 1.851-2.545 1.427a.748.748 0 0 1-.603 0l-3.242-1.853Zm-4.783-2.926 2.589-1.423a.623.623 0 0 1 .565-.001l3.236 1.85-2.545 1.427a.732.732 0 0 1-.603.001l-3.242-1.854Zm-5.015-3.1 2.589-1.423a.61.61 0 0 1 .565-.002l3.236 1.851-2.545 1.427a.748.748 0 0 1-.603 0l-3.242-1.853Zm22.355 10.438.003-.002a.56.56 0 0 1 .548 0l3.26 1.864-2.575 1.425h-.001a.59.59 0 0 1-.574.002l-3.24-1.853 2.579-1.436Zm-2.855 1.591.004-.002-.004.002Zm11.937 3.112.001-.001-.001.001Zm-.25.141-2.562 1.436a.74.74 0 0 1-.604.001l-3.243-1.854 2.585-1.439a.67.67 0 0 1 .576-.001l3.248 1.857Zm-6.661-.276.001-.001-.001.001Zm11.889 3.152-.001.001.001-.001Zm-.208.146-2.563 1.437a.748.748 0 0 1-.603 0l-3.243-1.854 2.584-1.439a.678.678 0 0 1 .577-.001l3.248 1.857Zm-6.661-.276.001-.001-.001.001Zm8.536 4.557-3.248-1.857 2.563-1.436a.732.732 0 0 1 .603-.001l3.243 1.854-2.584 1.439a.678.678 0 0 1-.577.001Zm1.872 1.064 2.563-1.437a.748.748 0 0 1 .603 0l3.243 1.854-2.584 1.439a.678.678 0 0 1-.577.001l-3.248-1.857Zm8.164 4.777-3.242-1.854 2.568-1.422a.66.66 0 0 1 .588-.001l3.234 1.85-2.545 1.427a.748.748 0 0 1-.603 0Zm15.065 5.158h.001-.001Zm-.25.142-2.563 1.436a.732.732 0 0 1-.603.001l-3.243-1.854 2.584-1.439a.678.678 0 0 1 .577-.001l3.248 1.857Zm-6.666-.273.002-.002-.002.002Zm-63.685-32.558 2.569-1.422a.61.61 0 0 1 .565-.002l3.255 1.851-2.554 1.432a.62.62 0 0 1-.564.001l-3.271-1.86Zm-6.045-3.442 2.57-1.422a.62.62 0 0 1 .564-.001l4.287 2.442-2.554 1.433a.627.627 0 0 1-.563 0l-4.304-2.452Zm14.277 8.27-3.255-1.85 2.548-1.429a.685.685 0 0 1 .576 0l3.265 1.856-2.569 1.422a.622.622 0 0 1-.565.001Zm3.358-1.55-.003.003.003-.003Zm1.578 1.206 3.244 1.855-2.553 1.431a.653.653 0 0 1-.587.001l-3.25-1.858 2.594-1.426.004-.002a.564.564 0 0 1 .548-.001Z" fill="#fff" stroke="#1C2A60"/><mask id="c" fill="#fff"><path d="m150.587 131.146-28.013-16.351a1.187 1.187 0 0 0-1.04 0l-2.84 1.581c-.28.16-.3.421 0 .601l28.013 16.33a1.151 1.151 0 0 0 1.06 0l2.82-1.581c.28-.16.28-.42 0-.58Z"/></mask><path d="m150.587 131.146-28.013-16.351a1.187 1.187 0 0 0-1.04 0l-2.84 1.581c-.28.16-.3.421 0 .601l28.013 16.33a1.151 1.151 0 0 0 1.06 0l2.82-1.581c.28-.16.28-.42 0-.58Z" fill="#fff"/><path d="m150.587 131.146-.505.864.008.004.497-.868Zm-28.013-16.351.504-.863-.031-.018-.032-.016-.441.897Zm-1.04 0-.441-.897-.023.011-.022.013.486.873Zm-2.84 1.581-.486-.873-.01.005.496.868Zm0 .601-.514.857.011.007.503-.864Zm28.013 16.33-.504.864.023.014.024.012.457-.89Zm1.06 0 .457.89.016-.009.016-.008-.489-.873Zm2.82-1.581.489.873.007-.005-.496-.868Zm.504-1.444-28.013-16.35-1.008 1.727 28.012 16.351 1.009-1.728Zm-28.076-16.384a2.178 2.178 0 0 0-.961-.223v2c.027 0 .054.006.079.018l.882-1.795Zm-.961-.223c-.333 0-.662.076-.961.223l.882 1.795a.182.182 0 0 1 .079-.018v-2Zm-1.006.247-2.84 1.581.973 1.747 2.839-1.581-.972-1.747Zm-2.85 1.586c-.305.175-.707.545-.721 1.138-.014.607.387.998.703 1.188l1.029-1.715c.016.01.277.182.268.573-.009.378-.261.538-.286.552l-.993-1.736Zm-.007 2.333 28.012 16.33 1.008-1.728-28.013-16.33-1.007 1.728Zm28.059 16.356c.305.157.644.238.987.238v-2a.17.17 0 0 1-.073-.017l-.914 1.779Zm.987.238c.343 0 .682-.081.987-.238l-.914-1.779a.17.17 0 0 1-.073.017v2Zm1.019-.255 2.82-1.581-.978-1.745-2.82 1.581.978 1.745Zm2.827-1.586c.321-.183.714-.565.714-1.158 0-.592-.393-.975-.714-1.158l-.993 1.736a.665.665 0 0 1-.293-.578c0-.382.252-.554.293-.578l.993 1.736Z" fill="#1C2A60" mask="url(#c)"/><path d="m151.971 135.794-3.242-1.854 2.545-1.427a.738.738 0 0 1 .603-.001l3.243 1.855-2.574 1.425h-.001a.594.594 0 0 1-.574.002Zm-3.529-2.018-.002-.002.002.002Zm-.002.327.002-.001-.002.001Zm8.454 1.268 3.247 1.857-2.562 1.436a.733.733 0 0 1-.603.001l-3.244-1.854 2.585-1.439a.67.67 0 0 1 .577-.001Zm-3.418 1.584.002-.001-.002.001Zm8.588 4.574-3.243-1.855 2.584-1.439a.678.678 0 0 1 .577-.001l3.248 1.857-2.563 1.437a.748.748 0 0 1-.603.001Zm3.402-1.3-.002-.002.002.002Zm1.017.982.004-.002a.558.558 0 0 1 .547 0l3.27 1.87-2.558 1.416a.66.66 0 0 1-.588.001l-3.25-1.859 2.575-1.426Zm8.124 4.294-2.608 1.434a.623.623 0 0 1-.562.003l-2.462-1.449 2.57-1.431a.678.678 0 0 1 .576-.002l2.486 1.445Zm.2-.11-.002.001.002-.001Zm-6.104.251.003-.002-.003.002Z" fill="#fff" stroke="#1C2A60"/><path d="m129.095 86.296.104.062c1.632.978 76.594 45.902 77.192 45.79a91.283 91.283 0 0 0 1.782-.358 2.026 2.026 0 0 0 1.367-1.251l19.032-64.663a6.785 6.785 0 0 0-2.964-8.247l-75.556-42.865c-.926-.535-1.995-.609-2.956-.473-1.246.176-1.91.493-2.305.634-.373.134-16.097 57.932-17.836 64.33-.109.402-.238.767-.332 1.173a5.428 5.428 0 0 0 2.472 5.868Z" fill="#1C2A60"/><mask id="d" fill="#fff"><path d="m127.475 86.68 77.434 45.244a2.036 2.036 0 0 0 2.934-1.046l19.179-65.39a6.106 6.106 0 0 0-2.667-7.422L148.419 15.15a4.07 4.07 0 0 0-5.869 2.154l-17.448 62.862a5.428 5.428 0 0 0 2.373 6.514Z"/></mask><path d="m127.475 86.68 77.434 45.244a2.036 2.036 0 0 0 2.934-1.046l19.179-65.39a6.106 6.106 0 0 0-2.667-7.422L148.419 15.15a4.07 4.07 0 0 0-5.869 2.154l-17.448 62.862a5.428 5.428 0 0 0 2.373 6.514Z" fill="#fff"/><path d="m204.909 131.924-.505.863.505-.863Zm-77.434-45.243-.505.863.505-.863Zm-2.373-6.514.942.336.012-.034.01-.035-.964-.267Zm17.448-62.862-.942-.337-.012.035-.01.035.964.267Zm5.869-2.154-.5.866.008.004.492-.87Zm75.936 42.915.5-.866-.008-.005-.492.87Zm2.667 7.422-.937-.35-.012.034-.01.034.959.282Zm-19.179 65.39.937.349.012-.033.01-.035-.959-.281Zm-2.43.182-77.434-45.243-1.009 1.727 77.434 45.243 1.009-1.727Zm-79.347-50.626 17.447-62.861-1.927-.535-17.448 62.861 1.928.535Zm21.861-64.413 75.936 42.915.984-1.741-75.936-42.915-.984 1.741Zm78.136 49.185-19.18 65.39 1.919.563 19.18-65.39-1.919-.563Zm-2.208-6.274a5.106 5.106 0 0 1 2.23 6.206l1.874.7a7.106 7.106 0 0 0-3.104-8.638l-1 1.732Zm-80.364-41.29a3.072 3.072 0 0 1 4.428-1.625l1-1.732a5.071 5.071 0 0 0-7.311 2.683l1.883.674Zm-15.512 68.175a4.427 4.427 0 0 1-1.935-5.314l-1.884-.673a6.428 6.428 0 0 0 2.81 7.714l1.009-1.727Zm76.425 46.97a3.036 3.036 0 0 0 4.376-1.56l-1.874-.699a1.035 1.035 0 0 1-1.493.532l-1.009 1.727Z" fill="#1C2A60" mask="url(#d)"/><path d="m129.029 81.736 76.454 43.897 17.668-62.468-77.442-44.142-16.68 62.713Z" fill="#fff" stroke="#1C2A60"/><path d="m200.586 111.471-75.442-43.414a.578.578 0 0 1-.263-.651l17.387-60.9a.551.551 0 0 1 .336-.373.607.607 0 0 1 .506 0l75.442 43.432a.571.571 0 0 1 .263.651l-17.387 60.882c-.091.386-.509.452-.842.373Z" fill="#2EB57D" stroke="#1C2A60"/><path d="M188.169 79.144Z" fill="#FFC0B0"/><path d="m119.662 53.37.001-.006 18.11-64.344c.003-.008.016-.032.058-.05a.131.131 0 0 1 .085-.01l75.49 43.611a.076.076 0 0 1 .025.037.07.07 0 0 1 .005.045l-.001.005-18.131 64.352-.005.02-.003.014a.164.164 0 0 1-.064.04.427.427 0 0 1-.191.029l-75.348-43.661a.076.076 0 0 1-.026-.037.07.07 0 0 1-.005-.045Zm75.636 43.67-.001.003.001-.003Z" fill="#fff" stroke="#1C2A60"/><path d="m164.762 9.044.371-1.345a.78.78 0 0 1 1.137-.461l41.485 23.925a.791.791 0 0 1 .357.884l-.389 1.362a.781.781 0 0 1-1.137.461L165.119 9.927a.762.762 0 0 1-.357-.883Z" stroke="#1C2A60"/><path d="M171.803 54.355 164.85 32.99l-2.981 1.865-3.094.624 6.887 21.41 3.005-.513 3.136-2.02Z" fill="#FFC000" stroke="#1C2A60"/><path d="m155.292 44.963-.618 4.276 3.032 2.831 16.822-6.69-2.72-2.986.618-4.254-17.134 6.823Zm28.945 12.429 3.206.305 2.609 3.142s-3.439 8.71-11.477 8.145a14.088 14.088 0 0 1-7.676-3.104 13.976 13.976 0 0 1-4.583-6.87l3.139-.557 2.914-1.998s1.765 4.96 6.174 5.087a5.92 5.92 0 0 0 3.539-1.135 5.874 5.874 0 0 0 2.155-3.015Zm-9.104-20.412-.617 4.255 2.676 3.097s10.862-1.787 8.296 10.378l3.384.305 2.409 3.032s4.152-8.467-.934-15.505c-5.085-7.037-10.495-6.897-15.214-5.561Zm-17.092-3.993a6.645 6.645 0 0 0-2.682-3.672 6.703 6.703 0 0 0-4.426-1.103 6.094 6.094 0 0 0-2.908 1.388 6.04 6.04 0 0 0-1.784 2.672l-2.609-3.009-3.207-.328a12.141 12.141 0 0 1 4.155-5.844 12.238 12.238 0 0 1 6.743-2.499c8.705-.566 12.815 9.884 12.815 9.884l-2.847 1.798-3.25.713Zm-5.758 16.303.707-4.431a6.021 6.021 0 0 1-4.58-.336 5.985 5.985 0 0 1-1.845-1.435 5.94 5.94 0 0 1-1.15-2.03 10.314 10.314 0 0 1-.32-6.378l-3.211-3.075-2.805-.35s-3.262 8.266 1.177 14.773c4.44 6.506 10.163 7.495 14.859 6.204l-2.832-2.942Z" fill="#FFC000" stroke="#1C2A60"/><mask id="e" fill="#fff"><path d="m116.094 119.065 29.478 16.715a1.357 1.357 0 0 1-.019 2.372l-19.995 10.915a4.072 4.072 0 0 1-3.976-.041l-28.72-16.469a1.357 1.357 0 0 1-.005-2.351l19.187-11.122a4.072 4.072 0 0 1 4.05-.019Z"/></mask><path d="m145.572 135.78.493-.87-.493.87Zm-29.478-16.715.493-.87-.493.87Zm-4.05.019.502.865-.502-.865Zm-19.187 11.122.502.865-.502-.865Zm.006 2.351-.498.868.498-.868Zm28.719 16.469-.497.867.497-.867Zm3.976.041.479.878-.479-.878Zm19.995-10.915-.479-.878.479.878Zm.512-3.242-29.478-16.715-.987 1.74 29.479 16.715.986-1.74Zm-34.522-16.691-19.187 11.122 1.003 1.73 19.187-11.122-1.003-1.73Zm-19.178 15.206 28.72 16.468.995-1.735-28.72-16.468-.995 1.735Zm33.672 16.52 19.995-10.916-.958-1.755-19.995 10.915.958 1.756Zm-4.952-.052a5.07 5.07 0 0 0 4.952.052l-.958-1.756a3.07 3.07 0 0 1-2.999-.031l-.995 1.735Zm-28.73-20.552c-1.57.911-1.565 3.181.01 4.084l.995-1.735a.357.357 0 0 1-.001-.619l-1.003-1.73Zm24.232-11.146a5.071 5.071 0 0 0-5.044.024l1.003 1.73a3.069 3.069 0 0 1 3.054-.014l.987-1.74Zm28.492 18.455c.243.138.24.49-.005.624l.958 1.755c1.622-.885 1.641-3.207.033-4.119l-.986 1.74Z" fill="#1C2A60" mask="url(#e)"/></g><defs><clipPath id="a"><rect width="303" height="160" rx="12" fill="#fff"/></clipPath></defs></svg>