<svg width="268" height="216" fill="none" xmlns="http://www.w3.org/2000/svg"><rect width="268" height="216" rx="12" fill="#7030A0"/><path d="m128.585 192.344-87.832-50.839a1.503 1.503 0 0 1-.755-1.327c.005-.508 0-3.494 0-3.965 0-.447 54.35-28.224 59.878-31.048.327-.167.609-.327.938-.489a9.047 9.047 0 0 1 8.178.094c.253.132.468.256.719.391 5.961 3.195 87.377 46.85 87.377 47.82 0 1.007-.015 3.433 0 3.925a1.503 1.503 0 0 1-.753 1.358l-58.669 34.074a9.05 9.05 0 0 1-9.081.006Z" fill="#1C2A60"/><path d="m128.835 187.975-87.831-50.84a1.015 1.015 0 0 1 .006-1.76l59.566-33.944a8.551 8.551 0 0 1 8.539.041l86.97 50.668a1.016 1.016 0 0 1-.001 1.755l-58.669 34.074a8.552 8.552 0 0 1-8.58.006Z" fill="#fff" stroke="#1C2A60"/><path opacity=".2" d="m74.641 120.881 28.397-16.475a3.015 3.015 0 0 1 3.028 0l81.935 47.515a1.516 1.516 0 0 1-.015 2.63l-27.393 15.473a3.017 3.017 0 0 1-2.991-.013l-82.959-47.818a.758.758 0 0 1-.002-1.312Z" fill="#1C2A60"/><path d="m109.032 106.701-3.897-2.233a1.312 1.312 0 0 0-1.158 0l-3.14 1.764c-.334.179-.357.469 0 .67l3.897 2.233a1.368 1.368 0 0 0 1.18 0l3.14-1.764c.29-.179.29-.491-.022-.67Zm5.479 3.193-3.898-2.233a1.306 1.306 0 0 0-1.158 0l-3.162 1.764c-.312.179-.334.491 0 .67l3.897 2.233a1.371 1.371 0 0 0 1.181 0l3.14-1.764c.311-.179.311-.447 0-.67Zm5.589 3.284-3.897-2.233a1.306 1.306 0 0 0-1.158 0l-3.162 1.764c-.334.179-.334.492 0 .67l3.897 2.234a1.385 1.385 0 0 0 1.18 0l3.14-1.765c.312-.201.312-.491 0-.67Zm5.657 3.283-3.92-2.233a1.306 1.306 0 0 0-1.158 0l-3.14 1.764c-.334.179-.356.492 0 .67l3.897 2.234a1.318 1.318 0 0 0 1.158 0l3.163-1.765c.289-.178.311-.469 0-.67Zm5.591 3.261-3.92-2.234a1.24 1.24 0 0 0-1.158 0l-3.14 1.742c-.334.179-.356.492 0 .67l3.92 2.234a1.318 1.318 0 0 0 1.158 0l3.162-1.765c.267-.156.289-.446-.022-.647Zm5.588 3.283-3.897-2.233a1.368 1.368 0 0 0-1.18 0l-3.14 1.764c-.334.179-.357.469 0 .648l3.897 2.233a1.175 1.175 0 0 0 1.158 0l3.162-1.742c.29-.156.312-.491 0-.67Zm5.589 3.26-3.897-2.233a1.387 1.387 0 0 0-1.181 0l-3.14 1.764c-.334.179-.356.469 0 .67l3.898 2.234a1.32 1.32 0 0 0 1.158 0l3.162-1.765c.289-.178.312-.491 0-.67Zm5.59 3.261-3.898-2.233a1.368 1.368 0 0 0-1.18 0l-3.14 1.764c-.334.179-.334.491 0 .67l3.897 2.233a1.371 1.371 0 0 0 1.181 0l3.14-1.764c.289-.179.311-.469 0-.67Zm5.59 3.282-3.897-2.233a1.292 1.292 0 0 0-1.181 0l-3.14 1.742c-.334.201-.356.491 0 .67l3.897 2.233a1.247 1.247 0 0 0 1.159 0l3.162-1.764c.289-.179.312-.469 0-.648Zm5.612 3.262-3.919-2.233a1.312 1.312 0 0 0-1.158 0l-3.14 1.764c-.335.179-.357.491 0 .67l3.919 2.233a1.306 1.306 0 0 0 1.158 0l3.14-1.764c.29-.179.312-.491 0-.67Zm5.591 3.26-3.919-2.233a1.309 1.309 0 0 0-1.158 0l-3.14 1.764c-.334.179-.357.492 0 .67l3.919 2.234a1.32 1.32 0 0 0 1.158 0l3.14-1.765c.29-.178.312-.469 0-.67Zm5.589 3.283-3.92-2.233a1.24 1.24 0 0 0-1.158 0l-3.14 1.764c-.334.179-.356.469 0 .648l3.897 2.233a1.246 1.246 0 0 0 1.159 0l3.162-1.764c.289-.179.312-.469 0-.648Zm5.591 3.238-3.92-2.233a1.306 1.306 0 0 0-1.158 0l-3.14 1.764c-.334.179-.356.469 0 .648l3.92 2.233a1.306 1.306 0 0 0 1.158 0l3.162-1.764c.267-.134.29-.447-.022-.648Zm5.589 3.284-3.898-2.234a1.383 1.383 0 0 0-1.18 0l-3.14 1.765c-.334.178-.356.491 0 .67l3.897 2.233a1.306 1.306 0 0 0 1.158 0l3.163-1.764c.289-.179.311-.469 0-.67Zm5.588 3.282-3.897-2.233a1.386 1.386 0 0 0-1.18 0l-3.14 1.764c-.335.179-.357.492 0 .67l3.897 2.234a1.306 1.306 0 0 0 1.158 0l3.162-1.765c.29-.201.312-.536 0-.67Z" fill="#1C2A60"/><path d="m104.964 108.312-3.705-2.123 2.949-1.657a.81.81 0 0 1 .693 0l3.719 2.131-2.934 1.648a.87.87 0 0 1-.722.001Zm1.552 1.186.002-.002-.002.002Zm.2-.115 2.97-1.657a.809.809 0 0 1 .694-.001l3.708 2.124-2.946 1.655a.868.868 0 0 1-.722.001l-3.704-2.122Zm5.59 3.284 2.97-1.657a.809.809 0 0 1 .694-.001l3.708 2.125-2.946 1.655a.882.882 0 0 1-.722 0l-3.704-2.122Zm9.364 5.407-3.708-2.124 2.949-1.657a.801.801 0 0 1 .693-.001l3.729 2.124-2.97 1.657a.805.805 0 0 1-.693.001Zm5.612 3.238-3.728-2.124 2.953-1.638a.741.741 0 0 1 .682-.001l3.726 2.123-2.938 1.639a.809.809 0 0 1-.695.001Zm3.824-1.527-.002-.001.002.001Zm1.757 4.818-3.702-2.121 2.926-1.644a.886.886 0 0 1 .722-.001l3.703 2.122-2.979 1.641-.005.003a.681.681 0 0 1-.665 0Zm5.575 3.275-3.708-2.124 2.945-1.655a.873.873 0 0 1 .723-.001l3.704 2.122-2.97 1.657a.809.809 0 0 1-.694.001Zm5.586 3.259-3.704-2.123 2.945-1.655a.886.886 0 0 1 .723-.001l3.704 2.123-2.946 1.655a.867.867 0 0 1-.722.001Zm1.887 1.138 2.951-1.637a.786.786 0 0 1 .708-.002l3.692 2.116-2.957 1.65a.753.753 0 0 1-.681.001l-3.713-2.128Zm7.555.36-.003.002.003-.002Zm1.786 5.048-3.729-2.125 2.948-1.657a.822.822 0 0 1 .694 0l3.729 2.124-2.949 1.657a.81.81 0 0 1-.693.001Zm5.591 3.26-3.729-2.125 2.948-1.656a.809.809 0 0 1 .694-.001l3.729 2.125-2.948 1.657a.822.822 0 0 1-.694 0Zm5.573 3.265-3.694-2.118 2.935-1.649a.753.753 0 0 1 .681-.001l3.715 2.117-2.956 1.649a.741.741 0 0 1-.681.002Zm3.842-1.768-.003.002.003-.002Zm1.765 5.002-3.71-2.114 2.929-1.645a.804.804 0 0 1 .694-.001l3.719 2.12-2.938 1.639a.809.809 0 0 1-.694.001Zm5.566 3.306-3.707-2.125 2.945-1.655a.87.87 0 0 1 .722-.001l3.704 2.123-2.97 1.657a.82.82 0 0 1-.694.001Zm9.417 1.527-.002.003.002-.003Zm-.164.097-2.97 1.657a.809.809 0 0 1-.694.002l-3.708-2.125 2.946-1.655a.87.87 0 0 1 .722-.001l3.704 2.122Z" fill="#fff" stroke="#1C2A60"/><path d="m103.61 110.527-4.232-2.479a1.32 1.32 0 0 0-1.158 0l-3.14 1.765c-.334.178-.356.491 0 .67l4.231 2.456a1.307 1.307 0 0 0 1.159 0l3.14-1.764c.289-.223.311-.514 0-.648Zm5.814 3.351-4.209-2.479a1.371 1.371 0 0 0-1.181 0l-3.14 1.764c-.334.179-.334.492 0 .67l4.209 2.457a1.178 1.178 0 0 0 1.158 0l3.163-1.742c.312-.201.312-.491 0-.67Zm5.895 3.461-4.209-2.479a1.368 1.368 0 0 0-1.18 0l-3.14 1.764c-.334.179-.334.492 0 .67l4.209 2.457a1.175 1.175 0 0 0 1.158 0l3.162-1.742c.312-.201.312-.491 0-.67Zm-1.064 5.029-4.209-2.479a1.385 1.385 0 0 0-1.181 0l-3.14 1.765c-.334.178-.334.491 0 .67l4.209 2.456a1.18 1.18 0 0 0 1.158 0l3.163-1.742c.312-.201.312-.491 0-.67Zm-5.634-3.475-4.209-2.479a1.383 1.383 0 0 0-1.18 0l-3.14 1.764c-.334.179-.334.492 0 .67l4.209 2.457a1.175 1.175 0 0 0 1.158 0l3.162-1.742c.312-.201.312-.491 0-.67Zm12.293 1.662-3.92-2.233a1.243 1.243 0 0 0-1.158 0l-3.14 1.764c-.334.179-.356.469 0 .648l3.919 2.233a1.178 1.178 0 0 0 1.159 0l3.14-1.742c.289-.201.311-.491 0-.67Zm5.591 3.373-3.92-2.234a1.318 1.318 0 0 0-1.158 0l-3.14 1.765c-.334.178-.356.469 0 .67l3.897 2.233a1.309 1.309 0 0 0 1.158 0l3.14-1.764c.312-.291.334-.67.023-.67Zm5.587 3.148-3.919-2.233a1.312 1.312 0 0 0-1.158 0l-3.14 1.764c-.334.179-.334.492 0 .67l3.919 2.234a1.318 1.318 0 0 0 1.158 0l3.14-1.765c.29-.178.312-.469 0-.67Zm5.59 3.283-3.897-2.233a1.386 1.386 0 0 0-1.18 0l-3.14 1.764c-.335.179-.357.492 0 .67l3.897 2.234a1.32 1.32 0 0 0 1.158 0l3.14-1.765c.312-.201.334-.402.022-.67Zm5.592 3.261-3.897-2.234a1.382 1.382 0 0 0-1.18 0l-3.14 1.765c-.334.179-.334.469 0 .648l3.897 2.233a1.243 1.243 0 0 0 1.158 0l3.162-1.742c.29-.201.312-.492 0-.67Zm5.589 3.26-3.897-2.233a1.386 1.386 0 0 0-1.181 0l-3.14 1.764c-.334.179-.334.469 0 .67l3.898 2.234a1.32 1.32 0 0 0 1.158 0l3.14-1.765c.311-.223.334-.491.022-.67Zm5.611 3.284-3.919-2.234a1.183 1.183 0 0 0-1.158 0l-3.14 1.742c-.335.201-.357.492 0 .67l3.919 2.234a1.243 1.243 0 0 0 1.158 0l3.14-1.765c.29-.178.312-.469 0-.647Zm5.591 3.261-3.919-2.234a1.32 1.32 0 0 0-1.158 0l-3.14 1.765c-.334.178-.357.469 0 .647l3.919 2.234a1.186 1.186 0 0 0 1.158 0l3.14-1.742c.29-.067.312-.492 0-.67Zm5.589 3.26-3.92-2.233a1.306 1.306 0 0 0-1.158 0l-3.14 1.764c-.334.179-.356.469 0 .67l3.92 2.233a1.306 1.306 0 0 0 1.158 0l3.14-1.764c.289-.179.312-.491 0-.67Zm5.591 3.26-3.92-2.233a1.306 1.306 0 0 0-1.158 0l-3.14 1.764c-.334.179-.356.492 0 .67l3.92 2.234a1.32 1.32 0 0 0 1.158 0l3.14-1.765c.289-.178.312-.469 0-.67Zm10.309 6.03-8.552-4.98a1.306 1.306 0 0 0-1.158 0l-3.162 1.764c-.312.179-.334.469 0 .648l8.552 5.003a1.318 1.318 0 0 0 1.158 0l3.14-1.765c.312-.178.312-.491.022-.67Zm-61.71-30.528-3.897-2.234a1.306 1.306 0 0 0-1.158 0l-3.162 1.765c-.312.178-.334.469 0 .647l3.897 2.234a1.29 1.29 0 0 0 1.18 0l3.14-1.742c.312-.201.312-.492 0-.67Zm5.591 3.26-3.898-2.233a1.306 1.306 0 0 0-1.158 0l-3.14 1.764c-.334.179-.356.469 0 .67l3.897 2.233a1.372 1.372 0 0 0 1.181 0l3.14-1.764c.289-.179.289-.491-.022-.67Zm5.589 3.261-3.897-2.234a1.306 1.306 0 0 0-1.158 0l-3.163 1.765c-.311.178-.334.491 0 .67l3.898 2.233a1.383 1.383 0 0 0 1.18 0l3.14-1.764c.312-.179.312-.469 0-.67Zm5.59 3.282-3.897-2.233a1.306 1.306 0 0 0-1.158 0l-3.14 1.742c-.334.201-.356.491 0 .67l3.897 2.233a1.22 1.22 0 0 0 1.181 0l3.14-1.742c.289-.201.289-.491-.023-.67Zm5.592 3.261-3.898-2.234a1.318 1.318 0 0 0-1.158 0l-3.14 1.765c-.334.178-.356.469 0 .647l3.897 2.234a1.292 1.292 0 0 0 1.181 0l3.14-1.742c.289-.179.312-.492-.022-.67Zm5.611 3.283-3.987-2.233a1.173 1.173 0 0 0-1.158 0l-3.162 1.742c-.334.179-.334.492 0 .67l3.897 2.234a1.385 1.385 0 0 0 1.181 0l3.14-1.765c.378-.179.401-.469.089-.648Zm5.589 3.261-3.897-2.233a1.243 1.243 0 0 0-1.158 0l-3.162 1.764c-.335.179-.335.469 0 .648l3.897 2.233a1.175 1.175 0 0 0 1.158 0l3.162-1.742c.29-.201.312-.491 0-.67Zm5.589 3.261-3.897-2.234a1.325 1.325 0 0 0-1.159 0l-3.162 1.765c-.334.178-.334.491 0 .67l3.897 2.233a1.387 1.387 0 0 0 1.181 0l3.14-1.764c.423-.179.423-.492 0-.67Zm5.591 3.26-3.897-2.233a1.312 1.312 0 0 0-1.158 0l-3.163 1.764c-.334.179-.334.492 0 .67l3.897 2.234a1.39 1.39 0 0 0 1.181 0l3.14-1.765c.312-.179.312-.469 0-.67Zm12.137 7.102-10.636-6.157a1.306 1.306 0 0 0-1.158 0l-3.162 1.764c-.312.179-.334.469 0 .67l10.636 6.135a1.174 1.174 0 0 0 1.158 0l3.162-1.764c.29-.179.312-.469 0-.648Zm-76.118-39.09-10.589-6.166a1.32 1.32 0 0 0-1.158 0l-3.14 1.765c-.334.178-.356.469 0 .67l10.59 6.165a1.307 1.307 0 0 0 1.157 0l3.14-1.764c.29-.179.312-.469 0-.67Zm2.355-4.035-8.09-4.705a1.175 1.175 0 0 0-1.159 0l-3.162 1.742c-.312.179-.334.492 0 .67l8.09 4.728a1.32 1.32 0 0 0 1.158 0l3.14-1.765c.357-.178.357-.491.023-.67Zm8.311 10.385-3.897-2.234a1.382 1.382 0 0 0-1.18 0l-3.14 1.765c-.334.178-.334.469 0 .647l3.897 2.234a1.243 1.243 0 0 0 1.158 0l3.14-1.742c.312-.201.334-.447.022-.67Zm-5.3-3.322-3.898-2.233a1.368 1.368 0 0 0-1.18 0l-3.14 1.764c-.334.179-.334.469 0 .648l3.897 2.233a1.246 1.246 0 0 0 1.158 0l3.14-1.742c.312-.201.334-.447.023-.67Zm10.889 6.582-3.897-2.233a1.371 1.371 0 0 0-1.181 0l-3.14 1.764c-.334.179-.334.469 0 .67l3.898 2.234a1.318 1.318 0 0 0 1.158 0l3.162-1.765c.245-.178.245-.491 0-.67Zm5.591 3.261-3.897-2.234a1.385 1.385 0 0 0-1.181 0l-3.14 1.765c-.334.178-.334.491 0 .67l3.898 2.233a1.306 1.306 0 0 0 1.158 0l3.162-1.764c.312-.268.312-.469 0-.67Zm5.589 3.283-3.897-2.234a1.231 1.231 0 0 0-1.181 0l-3.14 1.742c-.334.201-.334.492 0 .67l3.898 2.234a1.24 1.24 0 0 0 1.158 0l3.162-1.765c.2-.178.312-.469 0-.647Zm5.591 3.26-3.897-2.233a1.371 1.371 0 0 0-1.181 0l-3.14 1.764c-.334.179-.334.469 0 .648l3.898 2.233a1.306 1.306 0 0 0 1.158 0l3.162-1.764c.312-.089.312-.469 0-.648Zm5.589 3.26-3.898-2.233a1.383 1.383 0 0 0-1.18 0l-3.14 1.764c-.334.179-.334.469 0 .67l3.897 2.234a1.32 1.32 0 0 0 1.158 0l3.163-1.765c.289-.178.311-.491 0-.67Zm5.613 3.284-3.897-2.233a1.29 1.29 0 0 0-1.18 0l-3.14 1.764c-.334.179-.357.469 0 .648l3.897 2.233a1.175 1.175 0 0 0 1.158 0l3.14-1.742c.312-.201.334-.491.022-.67Zm5.678 3.261-3.92-2.234a1.32 1.32 0 0 0-1.158 0l-3.14 1.765a.355.355 0 0 0-.168.539c.041.06.1.105.168.131l3.92 2.233a1.306 1.306 0 0 0 1.158 0l3.14-1.764c.2-.179.223-.492 0-.67Zm5.501 3.26-3.898-2.233a1.288 1.288 0 0 0-1.18 0l-3.14 1.742c-.334.178-.334.491 0 .67l3.897 2.233a1.309 1.309 0 0 0 1.158 0l3.163-1.764c.289-.157.311-.447 0-.648Zm5.633 3.283-3.897-2.233a1.386 1.386 0 0 0-1.18 0l-3.14 1.764c-.335.179-.335.492 0 .67l3.897 2.234a1.32 1.32 0 0 0 1.158 0l3.162-1.765c.245-.201.267-.491 0-.67Zm10.267 6.009-8.551-4.981a1.32 1.32 0 0 0-1.158 0l-3.141 1.765c-.334.178-.356.469 0 .67l8.552 4.98a1.306 1.306 0 0 0 1.158 0l3.14-1.764c.29-.134.312-.492 0-.67ZM93.807 121.05l-8.478-4.863a1.307 1.307 0 0 0-1.158 0l-3.14 1.764c-.334.179-.357.469 0 .67l8.478 4.863a1.37 1.37 0 0 0 1.18 0l3.14-1.764c.29-.179.312-.469-.022-.67Zm21.94 13.084-3.897-2.233a1.243 1.243 0 0 0-1.158 0l-3.162 1.742c-.312.201-.334.491 0 .67l3.897 2.233a1.383 1.383 0 0 0 1.18 0l3.14-1.764c.312-.179.312-.469 0-.648Zm-5.503-3.322-3.898-2.233a1.24 1.24 0 0 0-1.158 0l-3.162 1.742c-.312.201-.334.491 0 .67l3.897 2.233a1.371 1.371 0 0 0 1.181 0l3.14-1.764c.311-.179.311-.469 0-.648Zm-5.327-3.264-3.897-2.233a1.246 1.246 0 0 0-1.158 0l-3.163 1.742c-.311.201-.334.491 0 .67l3.898 2.233a1.383 1.383 0 0 0 1.18 0l3.14-1.764c.312-.179.312-.469 0-.648Zm-5.584-3.461-3.897-2.233a1.243 1.243 0 0 0-1.158 0l-3.163 1.742c-.311.201-.334.491 0 .67l3.898 2.233a1.384 1.384 0 0 0 1.18 0l3.14-1.764c.312-.179.312-.469 0-.648Zm22.003 13.24-3.897-2.233a1.176 1.176 0 0 0-1.158 0l-3.163 1.764c-.311.179-.334.469 0 .648l3.898 2.233a1.22 1.22 0 0 0 1.18 0l3.14-1.742c.223-.134.223-.424 0-.67Zm5.591 3.328-3.897-2.233a1.312 1.312 0 0 0-1.158 0l-3.163 1.764c-.311.179-.334.491 0 .67l3.898 2.233a1.368 1.368 0 0 0 1.18 0l3.14-1.764c.312-.179.334-.491 0-.67Zm5.589 3.373-3.897-2.234a1.32 1.32 0 0 0-1.158 0l-3.163 1.765c-.312.178-.334.491 0 .67l3.897 2.233a1.387 1.387 0 0 0 1.181 0l3.14-1.764c.312-.291.334-.67 0-.67Zm5.613 3.171-3.897-2.234a1.382 1.382 0 0 0-1.18 0l-3.14 1.765c-.334.178-.334.469 0 .67l3.897 2.233a1.306 1.306 0 0 0 1.158 0l3.162-1.764c.312-.179.312-.492 0-.67Zm5.7 3.26-3.897-2.233a1.376 1.376 0 0 0-1.181 0l-3.14 1.764c-.334.179-.334.492 0 .67l3.897 2.234a1.325 1.325 0 0 0 1.158 0l3.163-1.765c.178-.178.2-.402 0-.67Zm5.48 3.284-3.897-2.233a1.292 1.292 0 0 0-1.181 0l-3.14 1.742c-.334.178-.334.491 0 .67l3.898 2.233a1.383 1.383 0 0 0 1.18 0l3.14-1.764c.312-.179.312-.469 0-.648Zm12.97 7.496-3.898-2.234a1.306 1.306 0 0 0-1.158 0l-3.162 1.765c-.312.178-.334.469 0 .67l3.897 2.233a1.387 1.387 0 0 0 1.181 0l3.14-1.764c.312-.179.334-.492 0-.67ZM91.07 125.086l-3.92-2.233a1.243 1.243 0 0 0-1.157 0l-3.14 1.742c-.334.201-.357.492 0 .67l3.92 2.234a1.255 1.255 0 0 0 1.157 0l3.14-1.765c.245-.179.268-.469 0-.648Zm-5.582-3.179-5.068-2.894a1.244 1.244 0 0 0-1.158 0l-3.14 1.742c-.334.201-.357.492 0 .67l5.068 2.894a1.243 1.243 0 0 0 1.158 0l3.14-1.764c.245-.179.267-.469 0-.648Zm11.11 6.493-3.92-2.233a1.307 1.307 0 0 0-1.158 0l-3.14 1.764c-.334.179-.356.469 0 .648l3.92 2.233a1.243 1.243 0 0 0 1.158 0l3.14-1.742c.29-.201.311-.491 0-.67Zm5.635 3.285-3.897-2.233a1.175 1.175 0 0 0-1.158 0l-3.162 1.742c-.312.201-.334.491 0 .67l3.897 2.233a1.29 1.29 0 0 0 1.18 0l3.14-1.764c.357-.179.357-.469 0-.648Zm32.89 19.288-31.196-18.248a1.318 1.318 0 0 0-1.158 0l-3.162 1.765c-.312.178-.334.469 0 .67l31.196 18.225a1.288 1.288 0 0 0 1.18 0l3.14-1.765c.312-.178.312-.468 0-.647Zm5.588 3.261-3.897-2.233a1.371 1.371 0 0 0-1.18 0l-3.141 1.764c-.334.179-.334.469 0 .648l3.898 2.233a1.22 1.22 0 0 0 1.18 0l3.14-1.742c.29-.179.312-.491 0-.67Zm5.59 3.193-3.897-2.233a1.309 1.309 0 0 0-1.158 0l-3.163 1.764c-.311.179-.334.469 0 .67l3.898 2.233a1.368 1.368 0 0 0 1.18 0l3.14-1.764c.312-.112.312-.424 0-.67Zm5.665 3.196-3.897-2.234a1.32 1.32 0 0 0-1.158 0l-3.162 1.765c-.334.178-.334.491 0 .67l3.897 2.233a1.386 1.386 0 0 0 1.18 0l3.14-1.764c.312-.179.312-.469 0-.67Zm5.644 3.327-3.897-2.233a1.18 1.18 0 0 0-1.158 0l-3.141 1.742c-.334.201-.356.491 0 .67l3.898 2.233a1.288 1.288 0 0 0 1.18 0l3.14-1.742c.29-.29.166-.563-.022-.67Zm4.782 2.706-3.029-1.765a1.306 1.306 0 0 0-1.158 0l-3.162 1.765c-.312.178-.334.468 0 .647l3.029 1.787a1.24 1.24 0 0 0 1.158 0l3.162-1.742c.29-.201.312-.514 0-.692Z" fill="#1C2A60"/><path d="m103.169 110.47-2.931 1.647a.805.805 0 0 1-.692.002l-4.044-2.348 2.95-1.658a.818.818 0 0 1 .691-.002l4.026 2.359Zm5.833 3.361-2.982 1.642-.004.003a.673.673 0 0 1-.664.001l-4.037-2.356 2.948-1.655a.868.868 0 0 1 .719-.002l4.02 2.367Zm5.895 3.461-2.981 1.642-.005.003a.681.681 0 0 1-.664.001l-4.036-2.356 2.947-1.655a.871.871 0 0 1 .72-.002l4.019 2.367Zm-1.064 5.029-2.982 1.643-.004.002a.675.675 0 0 1-.664.002l-4.036-2.356 2.947-1.656a.882.882 0 0 1 .72-.002l4.019 2.367Zm-5.634-3.475-2.981 1.642-.005.003a.671.671 0 0 1-.664.002l-4.036-2.356 2.947-1.656a.87.87 0 0 1 .72-.002l4.019 2.367Zm8.662 3.307-3.722-2.121 2.935-1.649a.74.74 0 0 1 .681-.001l3.734 2.128-2.958 1.641-.003.002a.67.67 0 0 1-.666 0h-.001Zm9.209 1.724-2.959 1.663a.808.808 0 0 1-.693.001l-3.708-2.125 2.949-1.657a.815.815 0 0 1 .693 0l3.718 2.118Zm1.957 4.812-3.729-2.125 2.948-1.656a.809.809 0 0 1 .694-.001l3.729 2.125-2.948 1.656a.809.809 0 0 1-.694.001Zm5.568 3.283-3.708-2.124 2.946-1.655a.87.87 0 0 1 .722-.001l3.693 2.116-2.96 1.664a.815.815 0 0 1-.693 0Zm5.599 3.242-3.695-2.117 2.926-1.644a.886.886 0 0 1 .722-.001l3.703 2.122-2.974 1.639a.74.74 0 0 1-.682.001Zm5.582 3.279-3.708-2.124 2.946-1.655a.868.868 0 0 1 .722-.001l3.693 2.116-2.96 1.664a.818.818 0 0 1-.693 0Zm4.863-.504.003-.002a.67.67 0 0 1 .666 0h.001l3.722 2.121-2.935 1.649a.737.737 0 0 1-.681.001l-3.734-2.128 2.958-1.641Zm4.596 2.001-.002.002.002-.002Zm1.778 5.033-3.722-2.121 2.928-1.646a.808.808 0 0 1 .694-.001l3.728 2.125-2.958 1.641-.004.002a.678.678 0 0 1-.665 0h-.001Zm3.804-1.543h.001l.059-.104.078-.137.11-.193-.248.434Zm1.684 1.036 3.73 2.125-2.949 1.656a.804.804 0 0 1-.693.001l-3.73-2.125 2.949-1.657a.818.818 0 0 1 .693 0Zm5.679 7.042-3.729-2.125 2.948-1.656a.804.804 0 0 1 .694-.001l3.729 2.125-2.949 1.657a.815.815 0 0 1-.693 0Zm10.289 6.031-8.346-4.882 2.952-1.647a.809.809 0 0 1 .693-.002l8.354 4.865-2.962 1.665a.818.818 0 0 1-.691.001Zm-65.399-32.665 2.95-1.646a.822.822 0 0 1 .694-.001l3.707 2.124-2.952 1.637a.783.783 0 0 1-.707.002l-3.692-2.116Zm9.296 5.394-3.704-2.123 2.949-1.657a.818.818 0 0 1 .693 0l3.719 2.131-2.934 1.648a.874.874 0 0 1-.723.001Zm1.663 1.253.003-.002-.003.002Zm.201-.115 2.97-1.657a.82.82 0 0 1 .694-.001l3.707 2.125-2.945 1.655a.886.886 0 0 1-.722.001l-3.704-2.123Zm5.613 3.261 2.947-1.635a.809.809 0 0 1 .694-.001l3.718 2.13-2.947 1.635a.722.722 0 0 1-.694.001l-3.718-2.13Zm13.14 3.647-.001.001.001-.001Zm-3.908-2.023 3.718 2.131-2.94 1.631a.796.796 0 0 1-.708.001l-3.692-2.116 2.929-1.646a.818.818 0 0 1 .693-.001Zm5.51 3.277.001.001 3.741 2.096-2.968 1.668a.882.882 0 0 1-.722 0l-3.702-2.122 2.979-1.641.004-.002a.674.674 0 0 1 .667 0Zm5.748 7.036-3.701-2.121 2.956-1.65a.754.754 0 0 1 .681-.001l3.713 2.128-2.979 1.641-.005.002a.674.674 0 0 1-.665.001Zm5.531-.508 3.708 2.125-2.945 1.655a.873.873 0 0 1-.723.001l-3.703-2.123 2.97-1.657a.816.816 0 0 1 .693-.001Zm5.631 7.041-3.703-2.122 2.97-1.657a.802.802 0 0 1 .693-.001l3.708 2.125-2.945 1.655a.89.89 0 0 1-.723 0Zm15.986 5.32.002-.002-.002.002Zm-.201.114-2.963 1.654-.002.001a.673.673 0 0 1-.665.001l-10.364-5.971 2.971-1.658a.822.822 0 0 1 .693-.001l10.33 5.974Zm-79.738-37.42-10.403-6.056 2.95-1.658a.818.818 0 0 1 .692-.001l10.403 6.056-2.95 1.658a.818.818 0 0 1-.692.001Zm-1.921-10.297 7.906 4.598-2.962 1.664a.818.818 0 0 1-.69.001l-7.903-4.617 2.98-1.642.005-.003a.674.674 0 0 1 .664-.001Zm-3.85 1.759.003-.002-.002.002Zm16.42 14.869-3.695-2.117 2.926-1.644a.886.886 0 0 1 .722-.001l3.693 2.116-2.965 1.645a.754.754 0 0 1-.681.001Zm-5.301-3.322-3.695-2.117 2.926-1.644a.886.886 0 0 1 .723-.001l3.692 2.116-2.965 1.645a.741.741 0 0 1-.681.001Zm10.883 6.601-3.708-2.124 2.946-1.655a.868.868 0 0 1 .722-.001l3.704 2.122-2.97 1.657a.809.809 0 0 1-.694.001Zm5.591 3.261-3.708-2.125 2.946-1.655a.882.882 0 0 1 .722-.001l3.704 2.123-2.97 1.657a.822.822 0 0 1-.694.001Zm1.882 1.136 2.958-1.64v-.001a.733.733 0 0 1 .694-.001l3.699 2.119-2.957 1.65a.74.74 0 0 1-.681.001l-3.713-2.128Zm9.298 5.385-3.688-2.114 2.926-1.643a.868.868 0 0 1 .722-.001l3.684 2.111-2.95 1.646a.808.808 0 0 1-.694.001Zm5.589 3.283-3.708-2.125 2.945-1.655a.87.87 0 0 1 .722-.001l3.704 2.122-2.97 1.657a.805.805 0 0 1-.693.002Zm5.627 3.269-3.702-2.122 2.934-1.648a.791.791 0 0 1 .706-.001l3.7 2.121-2.97 1.647-.003.002a.671.671 0 0 1-.665.001Zm5.686 3.275-3.729-2.125 2.948-1.657a.818.818 0 0 1 .694-.001l3.729 2.125-2.949 1.657a.815.815 0 0 1-.693.001Zm5.479 3.238-3.707-2.124 2.951-1.637a.783.783 0 0 1 .708-.002l3.691 2.116-2.95 1.646a.82.82 0 0 1-.693.001Zm5.633 3.305-3.708-2.124 2.946-1.655a.871.871 0 0 1 .722-.001l3.704 2.122-2.97 1.657a.809.809 0 0 1-.694.001Zm3.792-1.73-.001.001.001-.001Zm10.141 6.08-2.95 1.658a.822.822 0 0 1-.692.001l-8.365-4.871 2.95-1.658a.804.804 0 0 1 .692-.001l8.365 4.871Zm-81.752-38.652-8.286-4.752 2.95-1.657a.803.803 0 0 1 .692-.001l8.3 4.761-2.934 1.648a.871.871 0 0 1-.722.001Zm18.215 10.94 2.974-1.639a.74.74 0 0 1 .682-.001l3.695 2.117-2.926 1.644a.886.886 0 0 1-.722.001l-3.703-2.122Zm-5.504-3.322 2.975-1.638a.742.742 0 0 1 .682-.002l3.694 2.117-2.926 1.644a.867.867 0 0 1-.722.001l-3.703-2.122Zm-5.326-3.264 2.974-1.638a.746.746 0 0 1 .682-.002l3.694 2.117-2.925 1.644a.886.886 0 0 1-.723.001l-3.702-2.122Zm-5.584-3.461 2.974-1.638a.744.744 0 0 1 .682-.002l3.695 2.117-2.926 1.644a.87.87 0 0 1-.723.001l-3.702-2.122Zm24.984 11.598.003-.002a.678.678 0 0 1 .665 0h.001l3.719 2.132-2.957 1.64-.001.001a.718.718 0 0 1-.694.001l-3.698-2.119 2.962-1.653Zm10.18 5.343-.002.002.002-.002Zm-.2.115-2.945 1.655a.871.871 0 0 1-.723.001l-3.703-2.122 2.97-1.657a.802.802 0 0 1 .693-.001l3.708 2.124Zm-7.572-.351.002-.002-.002.002Zm13.161 3.724-2.945 1.655a.89.89 0 0 1-.723.001l-3.703-2.123 2.97-1.657a.816.816 0 0 1 .693-.001l3.708 2.125Zm-7.572-.352.002-.002-.002.002Zm9.521 5.181-3.708-2.125 2.946-1.655a.886.886 0 0 1 .722-.001l3.704 2.123-2.97 1.657a.822.822 0 0 1-.694.001Zm1.992 1.136 2.945-1.655a.874.874 0 0 1 .723-.001l3.703 2.122-2.97 1.657a.802.802 0 0 1-.693.001l-3.708-2.124Zm9.184 5.384-3.703-2.122 2.951-1.638a.8.8 0 0 1 .708-.001l3.693 2.116-2.926 1.644a.886.886 0 0 1-.723.001Zm16.838 5.746-.002.003.002-.003Zm-.2.116-2.945 1.655a.89.89 0 0 1-.723.001l-3.704-2.123 2.971-1.657a.815.815 0 0 1 .693-.001l3.708 2.125Zm-78.579-36.641 2.953-1.638a.74.74 0 0 1 .682-.001l3.715 2.117-2.935 1.649a.75.75 0 0 1-.68.001l-3.735-2.128Zm-6.731-3.84 2.953-1.638a.74.74 0 0 1 .681-.001l4.865 2.777-2.935 1.65a.75.75 0 0 1-.68 0l-4.884-2.788Zm15.993 9.281-3.716-2.117 2.929-1.645a.804.804 0 0 1 .693-.001l3.728 2.124-2.952 1.638a.74.74 0 0 1-.682.001Zm5.551-.485 3.701 2.12-2.934 1.649a.792.792 0 0 1-.706 0l-3.71-2.126 2.978-1.641.005-.002a.673.673 0 0 1 .666 0Zm5.602 3.279 30.991 18.128-2.936 1.649a.778.778 0 0 1-.705.002l-31.014-18.119L103 132.79a.822.822 0 0 1 .692-.002Zm33.289 23.131a.72.72 0 0 1-.346-.088l-3.699-2.12 2.926-1.644a.882.882 0 0 1 .722 0l3.703 2.122-2.957 1.641h-.001a.72.72 0 0 1-.348.089Zm5.189-.661 3.708 2.124-2.945 1.655a.871.871 0 0 1-.723.001l-3.703-2.122 2.97-1.657a.802.802 0 0 1 .693-.001Zm5.706 6.976-3.704-2.123 2.97-1.657a.822.822 0 0 1 .694-.001l3.708 2.125-2.946 1.655a.882.882 0 0 1-.722.001Zm4.921-.459.003-.002a.685.685 0 0 1 .666 0h.001l3.73 2.138-2.94 1.631a.782.782 0 0 1-.708.001l-3.711-2.126 2.959-1.642Zm9.192 4.846-2.996 1.65a.754.754 0 0 1-.679.003l-2.831-1.67 2.953-1.648a.808.808 0 0 1 .693-.002l2.86 1.667Zm.147-.088-.002.003a.012.012 0 0 1 .002-.003Z" fill="#fff" stroke="#1C2A60"/><path d="m111.197 100.546.101.061c1.637.983 85.304 51.23 85.97 51.104a96.093 96.093 0 0 0 1.984-.398 2.263 2.263 0 0 0 1.523-1.396l25.748-69.17a7.58 7.58 0 0 0-3.301-9.204l-83.83-48.51c-1.031-.597-2.222-.68-3.292-.529-1.387.197-1.967.371-2.407.528-.437.157-24.766 69.448-25.059 70.282l-.016.047a6.062 6.062 0 0 0 2.579 7.185Z" fill="#1C2A60"/><path d="m195.869 151.031-86.233-50.492a5.563 5.563 0 0 1-2.424-6.67l24.225-67.885a4.03 4.03 0 0 1 5.814-2.14l84.383 48.83a6.321 6.321 0 0 1 2.753 7.676l-25.971 69.771a1.766 1.766 0 0 1-2.547.91Z" fill="#fff" stroke="#1C2A60"/><path d="m111.115 95.451 85.142 48.99 24.421-67.225-85.815-49.292-23.748 67.527Z" fill="#fff" stroke="#1C2A60"/><path d="m96.463 137.546 32.829 18.655c.69.392.682 1.392-.015 1.773l-22.267 12.182a4.025 4.025 0 0 1-3.938-.041l-31.984-18.379a1.016 1.016 0 0 1-.004-1.758l21.368-12.413-.251-.431.25.431a4.027 4.027 0 0 1 4.012-.019Z" stroke="#1C2A60"/><path opacity=".2" d="m86.036 146.073 39.887-20.862 19.505 11.57-38.836 21.126-20.556-11.834Z" fill="#000"/><path d="M102.627 152.6c-7.865-4.206-14.146-12.619-13.982-18.713l.546-28.473 28.455 15.208-.546 28.473c-.164 6.093-6.609 7.711-14.473 3.505Z" fill="#1C2A60"/><path d="m110.546 124.181 7.1-3.559-3.495 33.596-7.428 3.667 3.823-33.704Z" fill="#1C2A60"/><path d="M95.7 155.983c-3.86-2.066-7.325-5.155-9.809-8.482-2.492-3.34-3.952-6.858-3.9-9.776l.598-27.944 27.233 14.588-.377 28.163v.004c-.039 1.477-.441 2.639-1.106 3.504-.664.865-1.619 1.469-2.829 1.785-2.435.638-5.88.097-9.81-1.842Zm14.852-32.365-27.37-14.629 6.055-3.012 27.322 14.63-6.007 3.011Z" fill="#7030A0" stroke="#1C2A60"/><path d="M110.162 104.874a18.335 18.335 0 0 0-2.895-8.367 18.632 18.632 0 0 0-6.499-6.085 8.344 8.344 0 0 0-7.646-.863 5.917 5.917 0 0 0-2.305 2.268 5.818 5.818 0 0 0-.753 3.125v15.099c0 .432.874.917 1.966 1.133 1.092.216 1.966 0 1.966-.378v-14.83a2.88 2.88 0 0 1 .28-1.637 2.926 2.926 0 0 1 1.14-1.22 4.644 4.644 0 0 1 4.096.647 13.798 13.798 0 0 1 4.675 4.397 13.594 13.594 0 0 1 2.152 6.01v14.83c0 .378.874.863 1.912 1.079 1.037.215 1.966 0 1.966-.324l-.055-14.884ZM97.96 143.91c-.3-.085-5.326-3.084-5.326-3.084a.941.941 0 0 1-.46-1.043l1.286-7.618a5.944 5.944 0 0 1-1.423-3.582 2.38 2.38 0 0 1 .263-1.211 2.41 2.41 0 0 1 .839-.92 3.019 3.019 0 0 1 2.985.317 7.268 7.268 0 0 1 2.45 2.367c.615.97.987 2.071 1.086 3.211.044.456-.056.914-.286 1.312a2.25 2.25 0 0 1-1 .91l1.148 8.298a.998.998 0 0 1-.46.997c-.29.105-.801.13-1.101.046Z" fill="#1C2A60"/><path d="M100.212 143.252c-.3-.084-5.327-3.083-5.327-3.083a.943.943 0 0 1-.46-1.043l1.287-7.618a5.944 5.944 0 0 1-1.424-3.582c-.02-.42.07-.837.263-1.211a2.41 2.41 0 0 1 .84-.92 3.008 3.008 0 0 1 2.984.317 7.258 7.258 0 0 1 2.45 2.367c.615.97.987 2.07 1.086 3.21.044.456-.056.915-.286 1.312-.23.398-.579.716-.999.91l1.148 8.298a1 1 0 0 1-.46.998c-.29.105-.802.13-1.102.045Z" fill="#7030A0"/><path d="m92.634 140.826.256-.429-.01-.006a.453.453 0 0 1-.22-.493l.005-.015.002-.017 1.286-7.618.04-.23-.153-.178a5.443 5.443 0 0 1-1.304-3.281v-.001c-.016-.331.055-.66.208-.956.147-.284.365-.528.633-.708a2.513 2.513 0 0 1 2.453.28l.02.014.02.012a6.765 6.765 0 0 1 2.282 2.204 6.648 6.648 0 0 1 1.01 2.986v.004a1.7 1.7 0 0 1-.221 1.014c-.178.308-.45.555-.777.707l-.336.155.05.367 1.149 8.298.001.01a.485.485 0 0 1-.187.465 1.655 1.655 0 0 1-.347.049 1.462 1.462 0 0 1-.379-.026 7.095 7.095 0 0 1-.231-.12 31.972 31.972 0 0 1-.634-.355 187.23 187.23 0 0 1-1.812-1.053 568.268 568.268 0 0 1-2.332-1.38l-.16-.095-.042-.025-.01-.006-.003-.002h-.001l-.256.429Z" stroke="#1C2A60"/><path d="m201.319 77.755-.66 5.386-6.197 50.493c-.067.25-.191.482-.361.677-.17.195-.62.448-.62.448l-.983.67s-.279-.631-.504-.758l-3.844-2.189-8.865-5.041-6.025-3.427-16.869-9.563-37.067-20.998a3.133 3.133 0 0 1-1.351-1.3 3.15 3.15 0 0 1-.371-1.84l6.57-53.834.258-2.074a1.665 1.665 0 0 1 2.468-1.008l14.574 8.238 16.812 9.563 6.054 3.427 8.406 4.782 26.853 15.208a3.217 3.217 0 0 1 1.335 1.308c.306.559.441 1.196.387 1.832Z" fill="#1C2A60"/><path d="m201.319 77.755-.66 5.386-1.463.864-75.052-47.526.258-2.074a1.673 1.673 0 0 1 .982-1.124 1.66 1.66 0 0 1 1.485.116l14.575 8.238 16.84 9.563 6.054 3.427 8.406 4.782 26.854 15.208a3.235 3.235 0 0 1 1.721 3.14Z" fill="#1C2A60"/><path d="m199.914 78.504-.66 5.501-6.168 50.349a1.697 1.697 0 0 1-1.756 1.268 1.698 1.698 0 0 1-.74-.231l-3.816-2.189-8.865-5.012-6.082-3.399-8.091-4.579-8.75-4.955-9.037-5.127-28.059-15.9a4.309 4.309 0 0 1-.717-.547 2.882 2.882 0 0 1-.975-2.592l3.873-31.915 2.323-18.866.632-5.099a1.7 1.7 0 0 1 .991-1.142 1.68 1.68 0 0 1 1.505.106l14.545 8.266 16.841 9.534 6.054 3.457 8.406 4.752 18.074 10.255 8.779 4.954a3.175 3.175 0 0 1 1.693 3.11Z" fill="#FFC000"/><path d="M191.45 135.766a2.074 2.074 0 0 1-.919-.231l-3.844-2.102-68.855-39.03a7.051 7.051 0 0 1-.775-.547 3.15 3.15 0 0 1-1.033-2.88l6.829-55.88a1.532 1.532 0 0 1 .889-1.18 1.971 1.971 0 0 1 1.836 0l72.7 41.218a3.307 3.307 0 0 1 1.807 3.312l-.66 5.502-6.168 50.378a1.471 1.471 0 0 1-.861 1.152 1.77 1.77 0 0 1-.946.288Zm-4.648-2.737 3.816 2.189a1.624 1.624 0 0 0 1.549 0 1.226 1.226 0 0 0 .717-.892l6.828-55.88a3.061 3.061 0 0 0-1.635-2.88L125.435 34.26a1.632 1.632 0 0 0-1.55 0 1.235 1.235 0 0 0-.717.893l-2.869 23.994-3.902 31.914a2.897 2.897 0 0 0 .947 2.448c.215.192.446.365.689.519l68.769 39Z" fill="#1C2A60"/><path d="m199.912 78.475-.66 5.53-76.859-43.753.602-5.098a1.703 1.703 0 0 1 .991-1.143 1.689 1.689 0 0 1 1.505.106l14.574 8.267 16.813 9.533 6.082 3.428 8.406 4.782 26.853 15.208a3.145 3.145 0 0 1 1.693 3.14Z" fill="#1C2A60"/><path d="m185.481 74.558-4.648-2.737a.375.375 0 0 1-.2-.374s0-.173.258 0l4.648 2.88a.435.435 0 0 1 .2.374s-.143-.057-.258-.143Zm10.962 6.452a.376.376 0 0 1-.173-.202l-2.553-5.127v-.316a.435.435 0 0 1 .344.23l2.525 5.127v.317l-.143-.029Z" fill="#fff"/><path d="m193.486 79.252-.173-.144v-.345l3.386-1.642a.341.341 0 0 1 .344.173v.345l-3.414 1.642-.143-.029Zm-4.131-2.39a3.6 3.6 0 0 1-1.807-3.14c0-1.065 1.176-1.41 2.295-.748a3.573 3.573 0 0 1 1.779 3.14c-.115 1.065-1.148 1.382-2.267.748Zm.43-3.427c-.86-.49-1.635-.26-1.75.576a2.89 2.89 0 0 0 1.377 2.362c.861.518 1.636.259 1.751-.548a2.9 2.9 0 0 0-.36-1.362c-.23-.417-.56-.77-.96-1.028h-.058Zm-31.816.719 4.131 2.39.172-1.065-4.131-2.39-.172 1.065Zm10.014 5.79 5.623 3.226.143-1.066-5.623-3.255-.143 1.095Zm-5.28-3.082 4.332 2.535.172-1.066-4.36-2.535-.144 1.066Zm-5.423 2.103 5.106 2.967.172-1.066-5.135-2.967-.143 1.066Zm-.718 4.81 3.615 2.074.143-1.066-3.586-2.074-.172 1.066Zm4.734 2.736 4.361 2.506.144-1.066-4.332-2.505-.173 1.065Z" fill="#fff"/><path d="m151.714 70.553 6.456 3.716.143-1.066-6.455-3.715-.144 1.066Zm-5.279-3.053 4.332 2.535.172-1.065-4.361-2.535-.143 1.066Zm1.579 6.164 9.468 5.415.143-1.066-9.439-5.415-.172 1.066Zm13.712 7.864 9.439 5.444.172-1.066-9.467-5.444-.144 1.066Zm-21.43-7.115 3.615 2.074.144-1.066-3.586-2.073-.173 1.065Zm4.735 2.737 4.332 2.506.172-1.066-4.361-2.506-.143 1.066Zm5.076 2.938 6.656 3.831.172-1.094-6.684-3.803-.144 1.066Zm-17.356-19.644 4.361 2.534.143-1.065-4.332-2.506-.172 1.037Zm-.545 4.838 4.332 2.506.172-1.066-4.36-2.505-.144 1.065Zm-.574 5.012 4.361 2.535.144-1.066-4.361-2.535-.144 1.066Zm-.488 4.869 4.332 2.534.143-1.094-4.332-2.506-.143 1.066Zm-.717 5.357 4.332 2.506.143-1.066-4.332-2.506-.143 1.066Zm-.602 4.926 4.361 2.534.143-1.065-4.332-2.535-.172 1.066Zm-.546 4.982 4.332 2.535.173-1.066-4.361-2.535-.144 1.066Zm26.537-1.382 7.603 4.407.144-1.066-7.603-4.407-.144 1.066Zm15.122 8.756 7.602 4.407.144-1.066-7.603-4.407-.143 1.066Z" fill="#fff"/><path d="m164.796 94.26 6.628 3.83.143-1.066-6.598-3.83-.173 1.065Zm-9.697-.404 15.636 9.044.143-1.066-15.607-9.044-.172 1.066Z" fill="#fff"/><path d="m170.161 102.584 9.64 5.53.172-1.066-9.669-5.53-.143 1.066Zm-15.749-3.918 15.607 9.044.172-1.065-15.635-9.045-.144 1.066Zm-.717 4.839 7.631 4.378.143-1.065-7.602-4.379-.172 1.066Zm9.008 5.185 6.627 3.831.144-1.066-6.599-3.83-.172 1.065Zm-14.172-23.792 7.488 4.292.143-1.066-7.488-4.291-.143 1.065Zm-9.698-.403L155.301 94l.172-1.066-16.497-9.505-.143 1.066Z" fill="#fff"/><path d="m138.116 89.305 16.496 9.505.144-1.066-16.468-9.505-.172 1.066Zm-.689 4.839 7.602 4.378.172-1.066-7.602-4.378-.172 1.066Zm9.008 5.185 7.459 4.292.172-1.066-7.488-4.292-.143 1.066Zm-9.841-45.396-3.184-2.88v-.547l3.557.892v.663l-2.467-.72 2.238 1.987-.144.605Zm.231.634 1.865-2.88.717.403-1.894 2.88-.688-.403Zm2.324.807v-.662l2.468.691-2.238-1.959v-.662l3.213 2.88v.548l-3.443-.836Zm29.951 63.657-3.185-2.88v-.577l3.558.893v.663l-2.468-.691 2.238 1.958-.143.634Zm.23.748 1.865-2.881.688.404-1.864 2.88-.689-.403Zm2.325.835v-.662l2.467.691-2.238-1.987v-.634l3.214 2.88v.576l-3.443-.864Z" fill="#fff"/></svg>