<svg width="248" height="302" fill="none" xmlns="http://www.w3.org/2000/svg"><rect width="248" height="302" rx="12" fill="#7030A0"/><path d="M118.3 248.591 16.458 189.766a1.736 1.736 0 0 1-.876-1.534c.006-.588 0-4.043 0-4.588 0-.52 63.578-32.942 69.512-35.967.326-.166.6-.321.927-.485a10.513 10.513 0 0 1 9.622.102c.252.133.475.262.727.396 6.522 3.488 101.361 54.23 101.361 55.355 0 1.165-.017 3.972 0 4.542a1.734 1.734 0 0 1-.873 1.57l-68.028 39.426a10.513 10.513 0 0 1-10.53.008Z" fill="#1C2A60"/><path d="M118.55 243.602 16.708 184.778a1.252 1.252 0 0 1 .007-2.173l69.069-39.274a10.012 10.012 0 0 1 9.982.048l100.843 58.625c.831.483.83 1.684-.001 2.166l-68.028 39.425a10.014 10.014 0 0 1-10.03.007Z" fill="#fff" stroke="#1C2A60"/><path opacity=".2" d="m55.752 165.904 32.927-19.063a3.505 3.505 0 0 1 3.511-.001l95.006 54.979c1.174.679 1.164 2.377-.017 3.043l-31.763 17.902a3.502 3.502 0 0 1-3.468-.015l-96.194-55.328a.876.876 0 0 1-.002-1.517Z" fill="#1C2A60"/><path d="m95.627 149.495-4.519-2.584a1.531 1.531 0 0 0-1.343 0l-3.64 2.042c-.388.207-.414.542 0 .775l4.518 2.584a1.604 1.604 0 0 0 1.369 0l3.641-2.041c.336-.207.336-.569-.026-.776Zm6.353 3.696-4.52-2.584a1.518 1.518 0 0 0-1.342 0l-3.667 2.041c-.361.207-.387.569 0 .775l4.519 2.584a1.59 1.59 0 0 0 1.369 0l3.641-2.041c.361-.207.361-.517 0-.775Zm6.481 3.798-4.519-2.584a1.53 1.53 0 0 0-1.343 0l-3.666 2.042c-.388.206-.388.568 0 .775l4.519 2.584a1.598 1.598 0 0 0 1.368 0l3.641-2.041c.362-.233.362-.569 0-.776Zm6.559 3.799-4.545-2.584a1.516 1.516 0 0 0-1.342 0l-3.641 2.041c-.388.207-.413.569 0 .776l4.519 2.584a1.53 1.53 0 0 0 1.342 0l3.667-2.042c.336-.207.362-.542 0-.775Zm6.482 3.773-4.545-2.584a1.443 1.443 0 0 0-1.343 0l-3.641 2.015c-.387.207-.413.569 0 .776l4.545 2.584a1.533 1.533 0 0 0 1.343 0l3.666-2.042c.31-.181.336-.517-.025-.749Zm6.481 3.798-4.519-2.584a1.605 1.605 0 0 0-1.369 0l-3.641 2.042c-.387.206-.413.542 0 .749l4.519 2.584a1.361 1.361 0 0 0 1.343 0l3.667-2.015c.335-.181.361-.569 0-.776Zm6.482 3.773-4.519-2.584a1.605 1.605 0 0 0-1.369 0l-3.641 2.042c-.387.206-.413.542 0 .775l4.519 2.584a1.519 1.519 0 0 0 1.343 0l3.667-2.041c.335-.207.361-.569 0-.776Zm6.481 3.773-4.519-2.584a1.605 1.605 0 0 0-1.369 0l-3.641 2.041c-.387.207-.387.569 0 .776l4.519 2.584a1.605 1.605 0 0 0 1.369 0l3.641-2.042c.336-.206.362-.542 0-.775Zm6.481 3.799-4.519-2.584a1.492 1.492 0 0 0-1.368 0l-3.641 2.015c-.387.233-.413.569 0 .776l4.519 2.584a1.45 1.45 0 0 0 1.343 0l3.666-2.042c.336-.207.362-.542 0-.749Zm6.508 3.772-4.545-2.584a1.534 1.534 0 0 0-1.343 0l-3.641 2.042c-.387.207-.413.568 0 .775l4.545 2.584a1.516 1.516 0 0 0 1.343 0l3.641-2.041c.335-.207.361-.569 0-.776Zm6.481 3.773-4.545-2.584a1.512 1.512 0 0 0-1.342 0l-3.641 2.041c-.388.207-.413.569 0 .776l4.544 2.584a1.534 1.534 0 0 0 1.343 0l3.641-2.042c.336-.206.362-.542 0-.775Zm6.481 3.799-4.544-2.584a1.446 1.446 0 0 0-1.343 0l-3.641 2.041c-.387.207-.413.543 0 .75l4.519 2.584a1.45 1.45 0 0 0 1.343 0l3.666-2.042c.336-.206.362-.542 0-.749Zm6.482 3.747-4.544-2.584a1.52 1.52 0 0 0-1.343 0l-3.641 2.041c-.388.207-.413.543 0 .75l4.545 2.584a1.53 1.53 0 0 0 1.342 0l3.667-2.042c.31-.155.336-.517-.026-.749Zm6.482 3.798-4.519-2.584a1.605 1.605 0 0 0-1.369 0l-3.641 2.042c-.387.206-.413.568 0 .775l4.519 2.584a1.52 1.52 0 0 0 1.343 0l3.667-2.041c.335-.207.361-.543 0-.776Zm6.481 3.799-4.519-2.584a1.605 1.605 0 0 0-1.369 0l-3.641 2.041c-.387.207-.413.569 0 .776l4.519 2.584a1.534 1.534 0 0 0 1.343 0l3.667-2.042c.336-.232.362-.62 0-.775Z" fill="#1C2A60"/><path d="m95.31 149.452-3.526 1.977a1.104 1.104 0 0 1-.91.001l-4.42-2.527 3.543-1.986a1.016 1.016 0 0 1 .878-.001l4.435 2.536Zm-2.528 3.146 3.567-1.986a1.031 1.031 0 0 1 .878-.001l4.422 2.529-3.538 1.984a1.104 1.104 0 0 1-.911.001l-4.418-2.527Zm6.481 3.799 3.567-1.986a1.02 1.02 0 0 1 .879-.001l4.422 2.529-3.539 1.984a1.104 1.104 0 0 1-.911 0l-4.418-2.526Zm10.981 6.327-4.422-2.529 3.542-1.986a1.032 1.032 0 0 1 .879 0l4.446 2.528-3.567 1.986a1.015 1.015 0 0 1-.878.001Zm6.507 3.747-4.447-2.528 3.547-1.964a.95.95 0 0 1 .867-.001l4.443 2.526-3.531 1.966a1.02 1.02 0 0 1-.879.001Zm6.469 3.806-4.413-2.523 3.516-1.971a1.098 1.098 0 0 1 .911-.001l4.418 2.526-3.577 1.966-.005.003a.868.868 0 0 1-.85 0Zm6.468 3.791-4.422-2.528 3.539-1.985a1.104 1.104 0 0 1 .911 0l4.418 2.526-3.567 1.986a1.02 1.02 0 0 1-.879.001Zm6.478 3.771-4.418-2.527 3.538-1.984a1.109 1.109 0 0 1 .911-.001l4.419 2.527-3.539 1.984a1.104 1.104 0 0 1-.911.001Zm2.064 1.246 3.545-1.962a1 1 0 0 1 .896-.001l4.403 2.517-3.551 1.977a.937.937 0 0 1-.866.001l-4.427-2.532Zm10.953 6.327-4.447-2.528 3.542-1.986a1.019 1.019 0 0 1 .879-.001l4.447 2.529-3.542 1.986a1.029 1.029 0 0 1-.879 0Zm6.482 3.773-4.447-2.529 3.542-1.985a1.019 1.019 0 0 1 .879-.001l4.447 2.528-3.542 1.986a1.019 1.019 0 0 1-.879.001Zm6.462 3.777-4.405-2.519 3.526-1.977a.933.933 0 0 1 .866-.001l4.43 2.519-3.551 1.977a.949.949 0 0 1-.866.001Zm6.501 3.743-4.424-2.516 3.519-1.973a1.032 1.032 0 0 1 .879 0l4.436 2.522-3.531 1.966a1.015 1.015 0 0 1-.879.001Zm6.456 3.824-4.422-2.528 3.539-1.984a1.09 1.09 0 0 1 .911-.001l4.418 2.526-3.567 1.986a1.015 1.015 0 0 1-.879.001Zm10.927 1.812-3.567 1.986a1.015 1.015 0 0 1-.878.001l-4.422-2.528 3.538-1.985a1.109 1.109 0 0 1 .911 0l4.418 2.526Z" fill="#fff" stroke="#1C2A60"/><path d="m89.342 153.924-4.906-2.869a1.531 1.531 0 0 0-1.343 0l-3.641 2.042c-.388.207-.413.568 0 .775l4.906 2.843a1.531 1.531 0 0 0 1.343 0l3.64-2.042c.337-.258.363-.594 0-.749Zm6.74 3.876-4.88-2.868a1.59 1.59 0 0 0-1.37 0l-3.64 2.041c-.387.207-.387.568 0 .775l4.88 2.843a1.373 1.373 0 0 0 1.343 0l3.667-2.016c.361-.232.361-.568 0-.775Zm6.836 4.005-4.88-2.868a1.603 1.603 0 0 0-1.369 0l-3.64 2.041c-.388.207-.388.569 0 .776l4.88 2.842a1.362 1.362 0 0 0 1.342 0l3.667-2.016c.362-.232.362-.568 0-.775Zm-1.233 5.819-4.88-2.868a1.59 1.59 0 0 0-1.369 0l-3.64 2.041c-.388.207-.388.568 0 .775l4.88 2.843a1.372 1.372 0 0 0 1.343 0l3.666-2.016c.362-.232.362-.568 0-.775Zm-6.533-4.02-4.88-2.868a1.604 1.604 0 0 0-1.369 0l-3.64 2.041c-.388.207-.388.569 0 .775l4.88 2.843a1.372 1.372 0 0 0 1.342 0l3.667-2.016c.362-.232.362-.568 0-.775Zm14.254 1.922-4.544-2.584a1.455 1.455 0 0 0-1.343 0l-3.641 2.042c-.387.206-.413.542 0 .749l4.545 2.584a1.361 1.361 0 0 0 1.342 0l3.641-2.015c.336-.233.362-.569 0-.776Zm6.482 3.902-4.545-2.584a1.533 1.533 0 0 0-1.343 0l-3.641 2.042c-.387.206-.413.542 0 .775l4.519 2.584a1.52 1.52 0 0 0 1.343 0l3.641-2.041c.362-.336.387-.776.026-.776Zm6.481 3.644-4.545-2.584a1.516 1.516 0 0 0-1.342 0l-3.641 2.041c-.388.207-.388.568 0 .775l4.544 2.584a1.52 1.52 0 0 0 1.343 0l3.641-2.041c.336-.207.362-.543 0-.775Zm6.482 3.798-4.519-2.584a1.604 1.604 0 0 0-1.369 0l-3.641 2.042c-.387.206-.413.568 0 .775l4.519 2.584a1.52 1.52 0 0 0 1.343 0l3.641-2.041c.361-.233.387-.466.026-.776Zm6.481 3.773-4.519-2.584a1.601 1.601 0 0 0-1.368 0l-3.641 2.041c-.388.207-.388.543 0 .75l4.519 2.584a1.438 1.438 0 0 0 1.342 0l3.667-2.016c.336-.232.362-.568 0-.775Zm6.482 3.773-4.519-2.584a1.606 1.606 0 0 0-1.369 0l-3.641 2.041c-.387.207-.387.543 0 .776l4.519 2.584a1.533 1.533 0 0 0 1.343 0l3.641-2.042c.361-.258.387-.568.026-.775Zm6.507 3.799-4.545-2.585a1.37 1.37 0 0 0-1.342 0l-3.641 2.016c-.388.233-.413.569 0 .775l4.544 2.584a1.446 1.446 0 0 0 1.343 0l3.641-2.041c.336-.207.362-.543 0-.749Zm6.482 3.772-4.545-2.584a1.533 1.533 0 0 0-1.343 0l-3.641 2.042c-.387.207-.413.542 0 .749l4.545 2.584a1.361 1.361 0 0 0 1.343 0l3.641-2.015c.335-.078.361-.569 0-.776Zm6.481 3.773-4.545-2.584a1.519 1.519 0 0 0-1.343 0l-3.641 2.041c-.387.207-.413.543 0 .776l4.545 2.584a1.534 1.534 0 0 0 1.343 0l3.641-2.042c.336-.206.361-.568 0-.775Zm6.482 3.773-4.545-2.584a1.52 1.52 0 0 0-1.343 0l-3.641 2.041c-.387.207-.413.569 0 .776l4.545 2.584a1.53 1.53 0 0 0 1.343 0l3.641-2.042c.335-.206.361-.542 0-.775Zm11.955 6.977-9.916-5.762a1.516 1.516 0 0 0-1.342 0l-3.667 2.041c-.362.207-.388.543 0 .749l9.916 5.789a1.53 1.53 0 0 0 1.342 0l3.641-2.042c.362-.206.362-.568.026-.775Zm-71.554-35.325-4.519-2.584a1.53 1.53 0 0 0-1.343 0l-3.666 2.042c-.362.206-.388.542 0 .749l4.519 2.584a1.492 1.492 0 0 0 1.368 0l3.641-2.015c.362-.233.362-.569 0-.776Zm6.481 3.773-4.518-2.584a1.52 1.52 0 0 0-1.343 0l-3.641 2.041c-.388.207-.413.543 0 .776l4.519 2.584a1.601 1.601 0 0 0 1.368 0l3.641-2.042c.336-.206.336-.568-.026-.775Zm6.482 3.773-4.519-2.584a1.52 1.52 0 0 0-1.343 0l-3.667 2.041c-.361.207-.387.569 0 .776l4.519 2.584a1.604 1.604 0 0 0 1.369 0l3.641-2.042c.361-.206.361-.542 0-.775Zm6.481 3.799-4.519-2.584a1.516 1.516 0 0 0-1.343 0l-3.641 2.015c-.387.233-.413.569 0 .775l4.519 2.584a1.414 1.414 0 0 0 1.369 0l3.641-2.015c.336-.233.336-.569-.026-.775Zm6.482 3.772-4.519-2.584a1.533 1.533 0 0 0-1.343 0l-3.641 2.042c-.387.206-.413.542 0 .749l4.519 2.584a1.499 1.499 0 0 0 1.369 0l3.641-2.015c.336-.207.361-.569-.026-.776Zm6.507 3.799-4.622-2.584a1.362 1.362 0 0 0-1.343 0l-3.667 2.016c-.387.206-.387.568 0 .775l4.519 2.584a1.605 1.605 0 0 0 1.369 0l3.641-2.042c.439-.206.465-.542.103-.749Zm6.481 3.773-4.519-2.584a1.44 1.44 0 0 0-1.342 0l-3.667 2.041c-.388.207-.388.543 0 .75l4.519 2.584a1.372 1.372 0 0 0 1.342 0l3.667-2.016c.336-.233.362-.568 0-.775Zm6.482 3.772-4.519-2.584a1.53 1.53 0 0 0-1.343 0l-3.666 2.042c-.388.206-.388.568 0 .775l4.519 2.584a1.601 1.601 0 0 0 1.368 0l3.641-2.041c.491-.207.491-.569 0-.776Zm6.482 3.773-4.519-2.584a1.534 1.534 0 0 0-1.343 0l-3.667 2.042c-.387.206-.387.568 0 .775l4.519 2.584a1.605 1.605 0 0 0 1.369 0l3.641-2.041c.361-.207.361-.543 0-.776Zm14.073 8.218-12.332-7.125a1.52 1.52 0 0 0-1.343 0l-3.667 2.042c-.361.206-.387.542 0 .775l12.332 7.099a1.376 1.376 0 0 0 1.343 0l3.667-2.042c.336-.207.361-.543 0-.749Zm-88.26-45.231-12.279-7.133a1.518 1.518 0 0 0-1.343 0l-3.64 2.041c-.388.207-.414.543 0 .776l12.278 7.133a1.518 1.518 0 0 0 1.343 0l3.64-2.041c.336-.207.362-.543 0-.776Zm2.73-4.667-9.38-5.444a1.372 1.372 0 0 0-1.343 0l-3.667 2.016c-.361.207-.387.568 0 .775l9.38 5.47a1.518 1.518 0 0 0 1.344 0l3.64-2.041c.414-.207.414-.569.026-.776Zm9.637 12.015-4.519-2.584a1.603 1.603 0 0 0-1.368 0l-3.641 2.041c-.388.207-.388.543 0 .75l4.519 2.584a1.453 1.453 0 0 0 1.343 0l3.64-2.016c.362-.232.388-.517.026-.775Zm-6.146-3.843-4.52-2.584a1.603 1.603 0 0 0-1.368 0l-3.641 2.041c-.387.207-.387.543 0 .75l4.519 2.584a1.44 1.44 0 0 0 1.343 0l3.64-2.016c.362-.232.388-.516.027-.775Zm12.628 7.616-4.519-2.584a1.589 1.589 0 0 0-1.369 0l-3.64 2.041c-.388.207-.388.543 0 .775l4.518 2.584a1.518 1.518 0 0 0 1.343 0l3.667-2.041c.284-.207.284-.569 0-.775Zm6.481 3.772-4.519-2.584a1.6 1.6 0 0 0-1.368 0l-3.641 2.042c-.388.206-.388.568 0 .775l4.519 2.584a1.516 1.516 0 0 0 1.342 0l3.667-2.041c.362-.311.362-.543 0-.776Zm6.482 3.799-4.519-2.584a1.425 1.425 0 0 0-1.369 0l-3.641 2.016c-.387.232-.387.568 0 .775l4.519 2.584a1.441 1.441 0 0 0 1.343 0l3.667-2.042c.232-.206.361-.542 0-.749Zm6.481 3.773-4.519-2.584a1.601 1.601 0 0 0-1.368 0l-3.641 2.041c-.388.207-.388.543 0 .75l4.519 2.584a1.53 1.53 0 0 0 1.343 0l3.666-2.042c.362-.103.362-.542 0-.749Zm6.481 3.773-4.518-2.585a1.605 1.605 0 0 0-1.369 0l-3.641 2.042c-.387.207-.387.543 0 .775l4.519 2.584a1.519 1.519 0 0 0 1.343 0l3.666-2.041c.336-.207.362-.569 0-.775Zm6.508 3.798-4.519-2.584a1.494 1.494 0 0 0-1.368 0l-3.641 2.042c-.388.206-.414.542 0 .749l4.518 2.584a1.365 1.365 0 0 0 1.343 0l3.641-2.015c.362-.233.388-.569.026-.776Zm6.585 3.773-4.545-2.584a1.519 1.519 0 0 0-1.343 0l-3.641 2.042a.41.41 0 0 0-.269.387.413.413 0 0 0 .269.388l4.545 2.584a1.519 1.519 0 0 0 1.343 0l3.641-2.042c.232-.206.258-.568 0-.775Zm6.378 3.773-4.519-2.584a1.499 1.499 0 0 0-1.369 0l-3.641 2.015c-.387.207-.387.569 0 .775l4.519 2.585a1.534 1.534 0 0 0 1.343 0l3.667-2.042c.335-.181.361-.517 0-.749Zm6.533 3.798-4.519-2.584a1.604 1.604 0 0 0-1.369 0l-3.641 2.042c-.387.206-.387.568 0 .775l4.519 2.584a1.52 1.52 0 0 0 1.343 0l3.667-2.041c.284-.233.31-.569 0-.776Zm11.904 6.952-9.916-5.763a1.519 1.519 0 0 0-1.343 0l-3.641 2.042c-.387.206-.413.542 0 .775l9.916 5.762a1.52 1.52 0 0 0 1.343 0l3.641-2.041c.336-.155.362-.569 0-.775Zm-90.565-46.639-9.83-5.627a1.518 1.518 0 0 0-1.343 0l-3.641 2.041c-.388.207-.413.543 0 .776l9.83 5.626a1.59 1.59 0 0 0 1.369 0l3.64-2.041c.337-.207.362-.543-.025-.775Zm25.441 15.139-4.52-2.585a1.453 1.453 0 0 0-1.342 0l-3.667 2.016c-.361.233-.387.569 0 .775l4.52 2.584a1.589 1.589 0 0 0 1.368 0l3.641-2.041c.361-.207.361-.543 0-.749Zm-6.382-3.844-4.519-2.585a1.453 1.453 0 0 0-1.342 0l-3.667 2.016c-.362.233-.388.569 0 .775l4.519 2.584a1.59 1.59 0 0 0 1.368 0l3.641-2.041c.362-.207.362-.543 0-.749Zm-6.178-3.777-4.519-2.584a1.441 1.441 0 0 0-1.343 0l-3.666 2.015c-.362.233-.388.569 0 .776l4.519 2.584a1.602 1.602 0 0 0 1.368 0l3.641-2.042c.362-.206.362-.542 0-.749Zm-6.474-4.004-4.519-2.585a1.453 1.453 0 0 0-1.343 0l-3.666 2.016c-.362.233-.388.569 0 .775l4.519 2.584a1.59 1.59 0 0 0 1.368 0l3.641-2.041c.362-.207.362-.543 0-.749Zm25.515 15.32-4.519-2.584a1.361 1.361 0 0 0-1.343 0l-3.666 2.041c-.362.207-.388.543 0 .75l4.519 2.584a1.421 1.421 0 0 0 1.368 0l3.641-2.016c.258-.155.258-.491 0-.775Zm6.482 3.85-4.519-2.584a1.52 1.52 0 0 0-1.343 0l-3.667 2.041c-.361.207-.387.569 0 .776l4.519 2.584a1.604 1.604 0 0 0 1.369 0l3.641-2.042c.361-.206.387-.568 0-.775Zm6.481 3.902-4.519-2.584a1.519 1.519 0 0 0-1.343 0l-3.667 2.042c-.361.206-.387.568 0 .775l4.519 2.584a1.606 1.606 0 0 0 1.369 0l3.641-2.042c.362-.336.387-.775 0-.775Zm6.507 3.669-4.519-2.584a1.6 1.6 0 0 0-1.368 0l-3.641 2.042c-.388.207-.388.542 0 .775l4.519 2.584a1.516 1.516 0 0 0 1.342 0l3.667-2.041c.362-.207.362-.569 0-.776Zm6.611 3.773-4.519-2.584a1.606 1.606 0 0 0-1.369 0l-3.641 2.042c-.387.206-.387.568 0 .775l4.519 2.584a1.52 1.52 0 0 0 1.343 0l3.667-2.042c.206-.206.232-.465 0-.775Zm6.353 3.799-4.519-2.584a1.499 1.499 0 0 0-1.369 0l-3.641 2.015c-.387.207-.387.569 0 .776l4.519 2.584a1.604 1.604 0 0 0 1.369 0l3.641-2.042c.361-.206.361-.542 0-.749Zm15.039 8.674-4.519-2.584a1.52 1.52 0 0 0-1.343 0l-3.667 2.041c-.362.207-.387.543 0 .775l4.519 2.584a1.59 1.59 0 0 0 1.369 0l3.641-2.041c.361-.207.387-.569 0-.775Zm-82.567-41.83-4.545-2.584a1.441 1.441 0 0 0-1.343 0l-3.64 2.016c-.388.232-.414.568 0 .775l4.544 2.584a1.453 1.453 0 0 0 1.343 0l3.64-2.042c.285-.206.31-.542 0-.749Zm-6.473-3.68-5.877-3.348a1.442 1.442 0 0 0-1.343 0l-3.641 2.015c-.388.233-.413.569 0 .776l5.877 3.348a1.441 1.441 0 0 0 1.342 0l3.641-2.041c.284-.207.31-.543 0-.75Zm12.88 7.513-4.545-2.584a1.532 1.532 0 0 0-1.342 0l-3.641 2.042c-.388.206-.413.542 0 .749l4.544 2.584a1.442 1.442 0 0 0 1.343 0l3.641-2.015c.336-.233.362-.569 0-.776Zm6.536 3.802-4.519-2.585a1.373 1.373 0 0 0-1.343 0l-3.666 2.016c-.362.233-.388.569 0 .775l4.519 2.584a1.495 1.495 0 0 0 1.368 0l3.641-2.041c.413-.207.413-.543 0-.749Zm38.135 22.316-36.173-21.113a1.531 1.531 0 0 0-1.342 0l-3.667 2.042c-.362.206-.388.542 0 .775l36.172 21.087a1.499 1.499 0 0 0 1.369 0l3.641-2.041c.361-.207.361-.543 0-.75Zm6.482 3.773-4.519-2.584a1.604 1.604 0 0 0-1.369 0l-3.641 2.042c-.387.206-.387.542 0 .749l4.519 2.584a1.414 1.414 0 0 0 1.369 0l3.641-2.015c.336-.207.362-.569 0-.776Zm6.481 3.696-4.519-2.584a1.516 1.516 0 0 0-1.343 0l-3.666 2.041c-.362.207-.388.543 0 .775l4.519 2.584a1.583 1.583 0 0 0 1.368 0l3.641-2.041c.362-.129.362-.491 0-.775Zm6.569 3.697-4.519-2.584a1.516 1.516 0 0 0-1.342 0l-3.667 2.041c-.388.207-.388.569 0 .775l4.519 2.585a1.6 1.6 0 0 0 1.368 0l3.641-2.042c.362-.207.362-.543 0-.775Zm6.544 3.849-4.519-2.584a1.376 1.376 0 0 0-1.343 0l-3.641 2.016c-.388.232-.413.568 0 .775l4.519 2.584a1.492 1.492 0 0 0 1.368 0l3.641-2.015c.336-.336.192-.652-.025-.776Zm5.544 3.132-3.512-2.042a1.53 1.53 0 0 0-1.343 0l-3.666 2.042c-.362.206-.388.542 0 .749l3.512 2.067a1.44 1.44 0 0 0 1.342 0l3.667-2.015c.336-.233.362-.595 0-.801Z" fill="#1C2A60"/><path d="m88.99 153.859-3.52 1.974a1.028 1.028 0 0 1-.877.001l-4.811-2.787 3.542-1.986a1.015 1.015 0 0 1 .877-.002l4.789 2.8Zm6.762 3.889-3.578 1.966-.004.003a.871.871 0 0 1-.85.001l-4.799-2.795 3.54-1.984a1.089 1.089 0 0 1 .908-.002l4.783 2.811Zm6.836 4.005-3.578 1.967-.004.002a.871.871 0 0 1-.85.002l-4.799-2.795 3.54-1.985a1.104 1.104 0 0 1 .908-.002l4.783 2.811Zm-1.233 5.819-3.577 1.966-.005.003a.87.87 0 0 1-.849.001l-4.8-2.795 3.54-1.984a1.089 1.089 0 0 1 .909-.002l4.782 2.811Zm-6.533-4.02-3.577 1.967v-.001l-.005.003a.87.87 0 0 1-.85.002l-4.798-2.796 3.54-1.984a1.104 1.104 0 0 1 .907-.002l4.783 2.811Zm9.846 3.891-4.437-2.522 3.526-1.977a.944.944 0 0 1 .866-.001l4.452 2.532-3.552 1.967-.003.001a.86.86 0 0 1-.851.001l-.001-.001Zm10.877 1.927-3.555 1.993a1.019 1.019 0 0 1-.878.001l-4.422-2.528 3.542-1.987a1.026 1.026 0 0 1 .878 0l4.435 2.521Zm2.073 5.637-4.447-2.528 3.542-1.986a1.015 1.015 0 0 1 .879-.001l4.447 2.529-3.542 1.986a1.032 1.032 0 0 1-.879 0Zm6.456 3.799-4.422-2.528 3.539-1.985a1.109 1.109 0 0 1 .911 0l4.406 2.519-3.556 1.993a1.011 1.011 0 0 1-.878.001Zm6.488 3.751-4.405-2.52 3.516-1.971a1.1 1.1 0 0 1 .91-.001l4.418 2.526-3.572 1.964a.938.938 0 0 1-.867.002Zm6.475 3.795-4.422-2.529 3.539-1.984a1.104 1.104 0 0 1 .911-.001l4.406 2.52-3.556 1.993a1.012 1.012 0 0 1-.878.001Zm5.639-.722.003-.002a.872.872 0 0 1 .851-.001l.001.001 4.437 2.523-3.526 1.976a.945.945 0 0 1-.866.001l-4.452-2.532 3.552-1.966Zm7.388 8.274-4.437-2.522 3.52-1.973a1.012 1.012 0 0 1 .878-.001l4.447 2.528-3.552 1.967-.004.001a.86.86 0 0 1-.851.001l-.001-.001Zm6.469 3.792-4.447-2.529 3.542-1.986a1.026 1.026 0 0 1 .878 0l4.447 2.528-3.542 1.986a1.011 1.011 0 0 1-.878.001Zm6.482 3.773-4.448-2.529 3.543-1.986a1.024 1.024 0 0 1 .878 0l4.447 2.528-3.542 1.986a1.015 1.015 0 0 1-.878.001Zm11.932 6.978-9.799-5.72 3.545-1.974a1.023 1.023 0 0 1 .878-.002l9.808 5.7-3.556 1.994a1.015 1.015 0 0 1-.876.002ZM98.992 170.58l3.544-1.973a1.02 1.02 0 0 1 .879-.001l4.421 2.528-3.545 1.962a.987.987 0 0 1-.896.002l-4.403-2.518Zm10.902 6.312-4.418-2.527 3.542-1.986a1.032 1.032 0 0 1 .878-.001l4.435 2.536-3.526 1.977a1.104 1.104 0 0 1-.911.001Zm2.038 1.246 3.567-1.986a1.029 1.029 0 0 1 .879-.001l4.422 2.529-3.539 1.984a1.105 1.105 0 0 1-.911.001l-4.418-2.527Zm6.507 3.773 3.541-1.96a1.017 1.017 0 0 1 .879-.001l4.434 2.536-3.538 1.958h-.001a.912.912 0 0 1-.882.002l-4.433-2.535Zm10.902 1.812 4.434 2.535-3.532 1.955a.987.987 0 0 1-.896.002l-4.404-2.518 3.52-1.974a1.026 1.026 0 0 1 .878 0Zm6.391 3.791.002.001 4.46 2.494-3.566 1.999a1.09 1.09 0 0 1-.911.001l-4.418-2.526 3.577-1.966.004-.003a.873.873 0 0 1 .852 0Zm6.586 8.277-4.412-2.523 3.551-1.976a.937.937 0 0 1 .866-.001l4.427 2.531-3.576 1.966-.005.003a.87.87 0 0 1-.851 0Zm6.493-.724 4.422 2.528-3.539 1.984a1.09 1.09 0 0 1-.911.001l-4.418-2.526 3.567-1.986a1.02 1.02 0 0 1 .879-.001Zm6.454 8.286-4.418-2.526 3.567-1.986a1.015 1.015 0 0 1 .878-.001l4.422 2.528-3.538 1.984a1.093 1.093 0 0 1-.911.001Zm18.5 6.219-3.557 1.98-.002.002a.873.873 0 0 1-.851.001l-12.136-6.979 3.567-1.986a1.019 1.019 0 0 1 .878-.001l12.101 6.983Zm-92.656-43.229-12.184-7.078 3.543-1.987a1.03 1.03 0 0 1 .877-.001l12.183 7.078-3.543 1.986a1.015 1.015 0 0 1-.876.002Zm-2.149-12.052 9.286 5.389-3.556 1.994a1.016 1.016 0 0 1-.876.002l-9.286-5.414 3.578-1.967.004-.002a.86.86 0 0 1 .85-.002Zm14.495 19.376-4.405-2.519 3.516-1.971a1.104 1.104 0 0 1 .91-.001l4.406 2.519-3.56 1.971a.94.94 0 0 1-.867.001Zm-6.147-3.842-4.405-2.519 3.516-1.972a1.104 1.104 0 0 1 .91-.001l4.406 2.519-3.56 1.971a.94.94 0 0 1-.867.002Zm12.622 7.637-4.421-2.528 3.538-1.984a1.089 1.089 0 0 1 .911-.001l4.418 2.526-3.567 1.986a1.015 1.015 0 0 1-.878.001Zm6.482 3.773-4.422-2.528 3.539-1.985a1.1 1.1 0 0 1 .91 0l4.419 2.526-3.568 1.986a1.015 1.015 0 0 1-.878.001Zm2.06 1.245 3.551-1.966h.001a.912.912 0 0 1 .882-.002l4.41 2.522-3.55 1.976a.944.944 0 0 1-.866.002l-4.428-2.532Zm10.903 6.301-4.399-2.516 3.516-1.971a1.104 1.104 0 0 1 .911-.001l4.395 2.514-3.544 1.973a1.023 1.023 0 0 1-.879.001Zm4.557-1.892-.002-.002.002.002Zm1.924 5.69-4.422-2.528 3.539-1.984a1.098 1.098 0 0 1 .911-.001l4.418 2.526-3.567 1.986a1.02 1.02 0 0 1-.879.001Zm6.521 3.781-4.412-2.523 3.523-1.976a1 1 0 0 1 .896-.001l4.413 2.524-3.566 1.973-.003.002a.86.86 0 0 1-.851.001Zm6.597 3.791-4.447-2.529 3.542-1.986a1.026 1.026 0 0 1 .878 0l4.447 2.528-3.542 1.986a1.012 1.012 0 0 1-.878.001Zm-4.604-2.448Zm10.956 6.195-4.421-2.529 3.545-1.962a1 1 0 0 1 .896-.001l4.403 2.517-3.544 1.974a1.029 1.029 0 0 1-.879.001Zm6.534 3.824-4.422-2.528 3.538-1.985a1.109 1.109 0 0 1 .911 0l4.418 2.526-3.567 1.986a1.015 1.015 0 0 1-.878.001Zm16.35 4.964-3.542 1.987a1.032 1.032 0 0 1-.877.001l-9.821-5.707 3.543-1.987a1.026 1.026 0 0 1 .877-.001l9.82 5.707Zm-94.989-44.653-9.73-5.57 3.542-1.986a1.028 1.028 0 0 1 .878-.001l9.747 5.579-3.526 1.977a1.104 1.104 0 0 1-.91.001Zm20.997 12.586 3.572-1.963a.943.943 0 0 1 .867-.002l4.406 2.519-3.516 1.972a1.104 1.104 0 0 1-.911.001l-4.418-2.527Zm-6.381-3.844 3.572-1.963a.942.942 0 0 1 .867-.002l4.405 2.519-3.516 1.972a1.105 1.105 0 0 1-.91.001l-4.418-2.527Zm-6.178-3.776 3.572-1.964a.955.955 0 0 1 .867-.001l4.405 2.519-3.516 1.971a1.104 1.104 0 0 1-.91.001l-4.418-2.526Zm-6.474-4.005 3.572-1.963a.942.942 0 0 1 .867-.002l4.405 2.519-3.516 1.972a1.105 1.105 0 0 1-.91.001l-4.418-2.527Zm29.094 13.353.002-.001a.872.872 0 0 1 .852 0l4.433 2.535-3.551 1.966-.001.001a.92.92 0 0 1-.882.001l-4.41-2.522 3.557-1.98Zm11.77 6.385-3.539 1.984a1.105 1.105 0 0 1-.911.001l-4.418-2.527 3.567-1.986a1.029 1.029 0 0 1 .879-.001l4.422 2.529Zm6.481 3.902-3.539 1.984a1.098 1.098 0 0 1-.911.001l-4.418-2.526 3.567-1.986a1.02 1.02 0 0 1 .879-.002l4.422 2.529Zm2.061 5.656-4.422-2.528 3.539-1.984a1.086 1.086 0 0 1 .91-.001l4.419 2.526-3.568 1.986a1.015 1.015 0 0 1-.878.001Zm2.188 1.244 3.539-1.984a1.104 1.104 0 0 1 .911-.001l4.397 2.515a.107.107 0 0 1 .009.019l-3.555 1.979a1.019 1.019 0 0 1-.879.001l-4.422-2.529Zm10.772 6.3-4.418-2.526 3.545-1.963a1 1 0 0 1 .896-.001l4.403 2.518-3.516 1.971a1.1 1.1 0 0 1-.91.001Zm19.488 6.714-3.538 1.985a1.109 1.109 0 0 1-.911 0l-4.419-2.526 3.568-1.986a1.015 1.015 0 0 1 .878-.001l4.422 2.528Zm-91.434-42.396 3.547-1.964a.952.952 0 0 1 .867-.001l4.43 2.519-3.525 1.977a.947.947 0 0 1-.866 0l-4.453-2.531Zm-7.805-4.445 3.546-1.963a.94.94 0 0 1 .867-.001l5.763 3.283-3.525 1.977a.947.947 0 0 1-.866.001l-5.785-3.297Zm18.665 10.81-4.43-2.519 3.52-1.973a1.016 1.016 0 0 1 .878-.001l4.446 2.528-3.547 1.964a.951.951 0 0 1-.867.001Zm6.517-.699 4.411 2.522-3.524 1.976a.998.998 0 0 1-.895.001l-4.425-2.531 3.576-1.966.005-.002a.871.871 0 0 1 .85-.001l.002.001Zm6.491 3.794 36.056 21.045-3.525 1.976a.998.998 0 0 1-.893.002L85.029 181.6l3.568-1.986a1.017 1.017 0 0 1 .876-.002Zm38.125 26.799-4.41-2.522 3.515-1.972a1.109 1.109 0 0 1 .911 0l4.418 2.526-3.551 1.966a.919.919 0 0 1-.883.002Zm6.494-.801 4.422 2.529-3.539 1.984a1.104 1.104 0 0 1-.911.001l-4.418-2.527 3.567-1.986a1.023 1.023 0 0 1 .879-.001Zm6.541 8.211-4.418-2.527 3.567-1.986a1.02 1.02 0 0 1 .879-.001l4.422 2.529-3.539 1.984a1.1 1.1 0 0 1-.911.001Zm5.704-.67.003-.001a.86.86 0 0 1 .852 0l4.447 2.542-3.532 1.955a.994.994 0 0 1-.897.002l-4.425-2.531 3.552-1.967Zm10.857 5.678-3.596 1.976a.941.941 0 0 1-.865.003l-3.401-2.002 3.545-1.974a1.02 1.02 0 0 1 .878-.002l3.439 1.999Z" fill="#fff" stroke="#1C2A60"/><path d="m98.15 142.382.099.059c1.64.983 98.917 59.28 99.691 59.135.78-.146 1.645-.323 2.301-.461a2.62 2.62 0 0 0 1.765-1.616l29.855-80.034a8.76 8.76 0 0 0-3.827-10.649l-97.203-56.129c-1.195-.69-2.576-.786-3.817-.61-1.609.227-2.281.428-2.791.61-.507.182-28.762 80.486-29.057 81.323l-.016.045a7.008 7.008 0 0 0 3 8.327Z" fill="#1C2A60"/><path d="m196.279 200.856-99.99-58.422a6.508 6.508 0 0 1-2.845-7.811l28.09-78.547a4.756 4.756 0 0 1 6.857-2.518l97.844 56.5a7.385 7.385 0 0 1 3.227 8.976l-30.115 80.729a2.128 2.128 0 0 1-3.068 1.093Z" fill="#fff" stroke="#1C2A60"/><path d="m98.044 136.48 98.724 56.685 28.317-77.784-99.504-57.033-27.537 78.132Z" fill="#fff" stroke="#1C2A60"/><path d="m81.094 185.118 38.065 21.584a1.253 1.253 0 0 1-.018 2.189l-25.819 14.095a4.757 4.757 0 0 1-4.645-.049L51.59 201.672a1.253 1.253 0 0 1-.005-2.17l24.776-14.362a4.757 4.757 0 0 1 4.732-.022Z" stroke="#1C2A60"/><path opacity=".2" d="m68.965 195.053 46.249-24.139 22.617 13.388-45.032 24.443-23.834-13.692Z" fill="#000"/><path d="M88.2 202.604c-9.118-4.867-16.401-14.6-16.211-21.651l.633-32.945 32.994 17.595-.633 32.946c-.19 7.05-7.663 8.922-16.782 4.055Z" fill="#1C2A60"/><path d="m97.383 169.722 8.232-4.118-4.052 38.872-8.613 4.243 4.433-38.997Z" fill="#1C2A60"/><path d="M80.132 206.59c-4.488-2.397-8.514-5.98-11.4-9.838-2.896-3.871-4.6-7.959-4.54-11.359v-.001l.697-32.461 31.735 16.963-.438 32.635v.003c-.046 1.723-.515 3.084-1.298 4.101-.783 1.016-1.906 1.724-3.323 2.094-2.851.745-6.867.111-11.433-2.137Zm17.258-37.431-31.908-17.017 7.195-3.572 31.851 17.019-7.137 3.57Z" fill="#7030A0" stroke="#1C2A60"/><path d="M96.94 147.384a21.19 21.19 0 0 0-3.358-9.682 21.583 21.583 0 0 0-7.535-7.04 9.64 9.64 0 0 0-4.307-1.581 9.698 9.698 0 0 0-4.559.582 6.854 6.854 0 0 0-2.672 2.624 6.72 6.72 0 0 0-.874 3.616v17.471c0 .499 1.013 1.06 2.28 1.31 1.266.25 2.28 0 2.28-.437v-17.159a3.324 3.324 0 0 1 .323-1.894 3.391 3.391 0 0 1 1.323-1.413 5.404 5.404 0 0 1 2.466-.184c.825.13 1.607.45 2.284.933a15.997 15.997 0 0 1 5.42 5.088 15.701 15.701 0 0 1 2.496 6.955v17.158c0 .437 1.013.999 2.216 1.248 1.203.25 2.28 0 2.28-.374l-.064-17.221Zm-14.149 45.165c-.347-.098-6.176-3.567-6.176-3.567a1.106 1.106 0 0 1-.47-.517 1.085 1.085 0 0 1-.063-.69l1.491-8.814a6.87 6.87 0 0 1-1.65-4.145 2.75 2.75 0 0 1 .305-1.401c.224-.433.56-.8.972-1.065a3.497 3.497 0 0 1 1.781-.276 3.486 3.486 0 0 1 1.68.643 8.412 8.412 0 0 1 2.841 2.739 8.257 8.257 0 0 1 1.26 3.715 2.542 2.542 0 0 1-.332 1.518 2.59 2.59 0 0 1-1.16 1.052l1.332 9.602c.035.222.004.45-.091.655a1.16 1.16 0 0 1-.441.499c-.337.122-.93.151-1.278.052Z" fill="#1C2A60"/><path d="M85.4 191.789c-.348-.098-6.177-3.568-6.177-3.568a1.104 1.104 0 0 1-.469-.516 1.086 1.086 0 0 1-.063-.69l1.49-8.815a6.867 6.867 0 0 1-1.65-4.144 2.744 2.744 0 0 1 .305-1.401c.225-.433.56-.8.973-1.065a3.508 3.508 0 0 1 3.461.367 8.412 8.412 0 0 1 2.841 2.739 8.258 8.258 0 0 1 1.26 3.714 2.538 2.538 0 0 1-.333 1.518 2.592 2.592 0 0 1-1.159 1.053l1.332 9.601a1.14 1.14 0 0 1-.091.656 1.16 1.16 0 0 1-.442.499c-.336.122-.93.15-1.278.052Z" fill="#7030A0"/><path d="m76.615 188.982.255-.43-.01-.006a.605.605 0 0 1-.257-.283.584.584 0 0 1-.034-.372l.003-.016.003-.017 1.491-8.814.04-.231-.153-.178a6.369 6.369 0 0 1-1.531-3.843v-.001c-.02-.397.066-.792.25-1.146a2.29 2.29 0 0 1 .766-.853 3.003 3.003 0 0 1 2.93.33l.02.014.02.012a7.907 7.907 0 0 1 2.672 2.576 7.761 7.761 0 0 1 1.184 3.49v.004c.04.424-.052.85-.267 1.22-.215.37-.541.667-.936.849l-.336.156.05.367 1.332 9.601.001.01a.64.64 0 0 1-.26.622 1.92 1.92 0 0 1-.435.063 1.767 1.767 0 0 1-.469-.033 7.888 7.888 0 0 1-.28-.145c-.188-.101-.44-.243-.737-.412a192.76 192.76 0 0 1-2.102-1.219c-.75-.439-1.488-.875-2.04-1.202l-.664-.394-.185-.11-.05-.029-.012-.007-.003-.002v-.001l-.256.43Z" stroke="#1C2A60"/><path d="m202.636 116.002-.765 6.232-7.186 58.424a1.976 1.976 0 0 1-.418.783c-.197.226-.719.519-.719.519l-1.139.775s-.324-.73-.585-.877l-4.457-2.533-10.28-5.833-6.985-3.966-19.561-11.064-42.98-24.296a3.639 3.639 0 0 1-1.996-3.633l7.618-62.29.299-2.399a1.937 1.937 0 0 1 2.016-1.437c.299.023.588.116.845.27l16.899 9.532 19.494 11.065 7.02 3.966 9.747 5.532 31.137 17.598a3.739 3.739 0 0 1 1.996 3.632Z" fill="#1C2A60"/><path d="m202.636 116.002-.765 6.232-1.697 1-87.024-54.99.299-2.4a1.937 1.937 0 0 1 2.016-1.437c.299.023.588.116.845.27l16.899 9.532 19.528 11.065 7.019 3.966 9.747 5.532 31.137 17.598a3.739 3.739 0 0 1 1.996 3.632Z" fill="#1C2A60"/><path d="m201.006 116.869-.765 6.365-7.152 58.257a1.967 1.967 0 0 1-2.036 1.466 1.955 1.955 0 0 1-.858-.266l-4.425-2.533-10.279-5.799-7.053-3.933-9.381-5.299-10.146-5.732-10.479-5.933-32.534-18.396a4.982 4.982 0 0 1-.832-.634 3.34 3.34 0 0 1-1.131-2.999l4.491-36.927 2.694-21.83.732-5.899a1.967 1.967 0 0 1 2.036-1.466c.303.021.597.112.859.266l16.866 9.566 19.527 11.03 7.019 4 9.747 5.5 20.958 11.864 10.179 5.732a3.669 3.669 0 0 1 1.963 3.6Z" fill="#FFC000"/><path d="M191.192 183.124a2.39 2.39 0 0 1-1.064-.266l-4.458-2.433-79.839-45.159a8.123 8.123 0 0 1-.898-.634 3.625 3.625 0 0 1-1.198-3.332l7.918-64.656a1.761 1.761 0 0 1 1.031-1.366 2.292 2.292 0 0 1 2.129 0l84.297 47.692a3.838 3.838 0 0 1 2.096 3.832l-.766 6.366-7.152 58.29a1.696 1.696 0 0 1-.998 1.333 2.06 2.06 0 0 1-1.098.333Zm-5.389-3.166 4.425 2.533a1.889 1.889 0 0 0 1.796 0 1.426 1.426 0 0 0 .832-1.033l7.917-64.656a3.539 3.539 0 0 0-1.896-3.333l-84.23-47.791a1.895 1.895 0 0 0-1.797 0 1.435 1.435 0 0 0-.831 1.033l-3.327 27.762-4.524 36.927a3.329 3.329 0 0 0 1.098 2.833c.249.221.516.421.798.599l79.739 45.126Z" fill="#1C2A60"/><path d="m201.006 116.836-.765 6.399L111.12 72.61l.699-5.9a1.965 1.965 0 0 1 2.036-1.465c.303.02.596.112.858.266l16.899 9.565 19.495 11.032 7.052 3.965 9.747 5.533 31.137 17.597a3.632 3.632 0 0 1 1.963 3.633Z" fill="#1C2A60"/><path d="m184.273 112.303-5.389-3.166a.437.437 0 0 1-.233-.433s0-.2.299 0l5.39 3.332a.507.507 0 0 1 .232.434s-.166-.067-.299-.167Zm12.708 7.465a.429.429 0 0 1-.2-.233l-2.96-5.932v-.367a.502.502 0 0 1 .399.267l2.927 5.932v.367l-.166-.034Z" fill="#fff"/><path d="m193.554 117.735-.199-.166v-.4l3.925-1.9a.397.397 0 0 1 .399.2v.4l-3.958 1.9-.167-.034Zm-4.79-2.766a4.151 4.151 0 0 1-1.538-1.533 4.178 4.178 0 0 1-.558-2.1c0-1.233 1.364-1.633 2.662-.866a4.127 4.127 0 0 1 2.062 3.633c-.133 1.233-1.331 1.599-2.628.866Zm.499-3.966c-.998-.566-1.896-.3-2.029.667a3.34 3.34 0 0 0 1.597 2.733c.998.599 1.896.3 2.029-.634a3.344 3.344 0 0 0-1.53-2.766h-.067Zm-36.892.833 4.79 2.767.2-1.234-4.791-2.766-.199 1.233Zm11.609 6.699 6.521 3.733.166-1.233-6.52-3.766-.167 1.266Zm-6.12-3.566 5.023 2.933.199-1.233-5.056-2.933-.166 1.233Zm-6.288 2.433 5.922 3.433.199-1.233-5.954-3.433-.167 1.233Zm-.832 5.566 4.192 2.399.166-1.233-4.158-2.399-.2 1.233Zm5.489 3.166 5.057 2.9.166-1.234-5.023-2.899-.2 1.233Z" fill="#fff"/><path d="m145.119 107.67 7.485 4.3.166-1.233-7.485-4.3-.166 1.233Zm-6.121-3.532 5.023 2.932.199-1.233-5.056-2.932-.166 1.233Zm1.829 7.132 10.978 6.265.166-1.233-10.944-6.265-.2 1.233Zm15.902 9.098 10.944 6.299.2-1.233-10.978-6.299-.166 1.233Zm-24.85-8.232 4.191 2.4.167-1.233-4.159-2.4-.199 1.233Zm5.488 3.166 5.024 2.9.199-1.233-5.056-2.9-.167 1.233Zm5.889 3.4 7.717 4.432.2-1.266-7.751-4.399-.166 1.233Zm-20.126-22.73 5.056 2.933.166-1.233-5.023-2.9-.199 1.2Zm-.632 5.6 5.023 2.899.199-1.233-5.056-2.9-.166 1.234Zm-.666 5.798 5.057 2.933.166-1.233-5.057-2.933-.166 1.233Zm-.565 5.633 5.023 2.933.166-1.267-5.023-2.899-.166 1.233Zm-.832 6.199 5.023 2.899.167-1.233-5.024-2.899-.166 1.233Zm-.699 5.699 5.057 2.933.166-1.233-5.023-2.933-.2 1.233Zm-.632 5.765 5.023 2.933.2-1.233-5.056-2.933-.167 1.233Zm30.772-1.599 8.815 5.099.167-1.233-8.816-5.1-.166 1.234Zm17.531 10.131 8.816 5.099.166-1.233-8.816-5.099-.166 1.233Z" fill="#fff"/><path d="m160.288 135.099 7.685 4.433.166-1.233-7.651-4.433-.2 1.233Zm-11.244-.466 18.13 10.464.166-1.233-18.096-10.465-.2 1.234Z" fill="#fff"/><path d="m166.509 144.731 11.177 6.399.2-1.234-11.211-6.398-.166 1.233Zm-18.263-4.533 18.096 10.465.2-1.233-18.13-10.465-.166 1.233Zm-.832 5.599 8.849 5.066.166-1.233-8.815-5.066-.2 1.233Zm10.446 5.999 7.684 4.433.166-1.233-7.651-4.433-.199 1.233Zm-16.434-27.528 8.683 4.965.166-1.233-8.683-4.966-.166 1.234Zm-11.244-.467 19.095 10.998.199-1.233-19.128-10.998-.166 1.233Z" fill="#fff"/><path d="m129.35 129.367 19.128 10.998.167-1.233-19.095-10.998-.2 1.233Zm-.798 5.599 8.816 5.066.199-1.234-8.815-5.065-.2 1.233Zm10.446 5.999 8.649 4.965.199-1.233-8.682-4.966-.166 1.234ZM127.587 88.44l-3.692-3.332v-.634l4.125 1.033v.767l-2.861-.833 2.595 2.3-.167.7Zm.266.734 2.163-3.333.831.466-2.195 3.333-.799-.466Zm2.695.933v-.767l2.861.8-2.595-2.266v-.767l3.726 3.333v.633l-3.992-.966Zm34.73 73.654-3.693-3.333v-.667l4.125 1.034v.766l-2.86-.8 2.594 2.267-.166.733Zm.266.866 2.163-3.333.798.467-2.162 3.333-.799-.467Zm2.695.967v-.767l2.861.8-2.595-2.3v-.733l3.726 3.333v.667l-3.992-1Z" fill="#fff"/></svg>