<svg width="380" height="400" fill="none" xmlns="http://www.w3.org/2000/svg"><g clip-path="url(#a)"><rect width="380" height="400" rx="12" fill="#7030A0"/><path d="M186.78 324.094 56.703 248.961a2.217 2.217 0 0 1-1.119-1.96c.007-.751 0-5.164 0-5.86 0-.667 82.174-42.569 88.911-46.003.326-.166.596-.317.921-.485a13.427 13.427 0 0 1 12.53.117c.251.135.498.275.749.41 7.649 4.09 129.538 69.3 129.538 70.741 0 1.489-.022 5.073 0 5.801a2.22 2.22 0 0 1-1.115 2.006l-86.888 50.356a13.429 13.429 0 0 1-13.45.01Z" fill="#1C2A60"/><path d="M186.78 318.276 56.703 243.143c-1.498-.865-1.49-3.029.013-3.884l88.217-50.163a13.43 13.43 0 0 1 13.386.064l128.802 74.879c1.485.864 1.484 3.01-.003 3.871l-86.888 50.356a13.429 13.429 0 0 1-13.45.01Z" fill="#fff"/><path fill-rule="evenodd" clip-rule="evenodd" d="m57.342 242.037 130.077 75.133a12.15 12.15 0 0 0 12.17-.009l86.889-50.356a.961.961 0 0 0 .001-1.662l-128.802-74.878a12.151 12.151 0 0 0-12.113-.058L57.347 240.37a.96.96 0 0 0-.005 1.667Zm-.64 1.106 130.078 75.133a13.429 13.429 0 0 0 13.45-.01l86.888-50.356c1.487-.861 1.488-3.007.003-3.871L158.319 189.16a13.43 13.43 0 0 0-13.386-.064l-88.217 50.163c-1.503.855-1.51 3.019-.013 3.884Z" fill="#1C2A60"/><path opacity=".2" d="m106.892 218.483 42.055-24.348a4.477 4.477 0 0 1 4.484-.001l121.346 70.221c1.499.867 1.487 3.036-.022 3.887l-40.569 22.866a4.478 4.478 0 0 1-4.43-.019l-122.862-70.668a1.118 1.118 0 0 1-.002-1.938Z" fill="#1C2A60"/><path d="m157.821 197.525-5.772-3.3a1.945 1.945 0 0 0-1.715 0l-4.65 2.607c-.495.264-.528.693 0 .99l5.772 3.301a2.044 2.044 0 0 0 1.748 0l4.65-2.607c.429-.264.429-.727-.033-.991Zm8.114 4.72-5.772-3.3a1.945 1.945 0 0 0-1.715 0l-4.683 2.607c-.462.264-.495.726 0 .99l5.772 3.301a2.044 2.044 0 0 0 1.748 0l4.65-2.607c.462-.264.462-.661 0-.991Zm8.278 4.852-5.771-3.301a1.95 1.95 0 0 0-1.716 0l-4.683 2.608c-.495.264-.495.726 0 .99l5.772 3.301a2.047 2.047 0 0 0 1.748 0l4.65-2.608c.462-.297.462-.726 0-.99Zm8.378 4.852-5.805-3.301a1.945 1.945 0 0 0-1.715 0l-4.65 2.608c-.495.264-.528.726 0 .99l5.771 3.3a1.95 1.95 0 0 0 1.715 0l4.684-2.607c.429-.264.462-.693 0-.99Zm8.278 4.819-5.805-3.301a1.838 1.838 0 0 0-1.715 0l-4.65 2.575c-.495.264-.528.726 0 .99l5.805 3.3a1.946 1.946 0 0 0 1.715 0l4.683-2.607c.396-.231.429-.66-.033-.957Zm8.278 4.851-5.772-3.3a2.034 2.034 0 0 0-1.748 0l-4.65 2.607c-.495.264-.528.693 0 .957l5.772 3.301a1.75 1.75 0 0 0 1.715 0l4.683-2.575c.429-.231.462-.726 0-.99Zm8.279 4.819-5.772-3.3a2.034 2.034 0 0 0-1.748 0l-4.65 2.607c-.495.264-.528.693 0 .99l5.772 3.301a1.942 1.942 0 0 0 1.715 0l4.683-2.608c.429-.264.462-.726 0-.99Zm8.278 4.819-5.771-3.301a2.05 2.05 0 0 0-1.748 0l-4.651 2.608c-.495.264-.495.726 0 .99l5.772 3.3a2.034 2.034 0 0 0 1.748 0l4.65-2.607c.429-.264.462-.693 0-.99Zm8.279 4.852-5.772-3.301a1.91 1.91 0 0 0-1.748 0l-4.651 2.575c-.494.297-.527.726 0 .99l5.772 3.301a1.858 1.858 0 0 0 1.715 0l4.684-2.608c.429-.264.461-.693 0-.957Zm8.311 4.819-5.805-3.301a1.942 1.942 0 0 0-1.715 0l-4.65 2.607c-.495.264-.528.727 0 .991l5.805 3.3a1.945 1.945 0 0 0 1.715 0l4.65-2.607c.429-.264.462-.726 0-.99Zm8.279 4.818-5.805-3.3a1.947 1.947 0 0 0-1.715 0l-4.651 2.607c-.494.264-.527.726 0 .99l5.805 3.301a1.946 1.946 0 0 0 1.715 0l4.651-2.608c.428-.264.461-.693 0-.99Zm8.278 4.852-5.805-3.3a1.842 1.842 0 0 0-1.715 0l-4.65 2.607c-.495.264-.528.693 0 .957l5.771 3.301a1.858 1.858 0 0 0 1.716 0l4.683-2.608c.429-.264.462-.693 0-.957Zm8.278 4.786-5.804-3.301a1.95 1.95 0 0 0-1.715 0l-4.651 2.608c-.495.264-.528.693 0 .957l5.805 3.3a1.932 1.932 0 0 0 1.715 0l4.683-2.607c.396-.198.429-.66-.033-.957Zm8.279 4.851-5.772-3.3a2.047 2.047 0 0 0-1.748 0l-4.651 2.607c-.494.264-.527.726 0 .99l5.772 3.301a1.946 1.946 0 0 0 1.715 0l4.684-2.607c.428-.264.461-.694 0-.991Zm8.278 4.852-5.772-3.3a2.044 2.044 0 0 0-1.748 0l-4.65 2.607c-.495.264-.528.726 0 .99l5.772 3.301a1.945 1.945 0 0 0 1.715 0l4.683-2.607c.429-.297.462-.793 0-.991Z" fill="#1C2A60"/><path d="m157.821 196.966-5.772-3.3a1.932 1.932 0 0 0-1.715 0l-4.65 2.607c-.495.264-.528.693 0 .99l5.772 3.301a2.044 2.044 0 0 0 1.748 0l4.65-2.608c.429-.264.429-.726-.033-.99Z" fill="#fff"/><path fill-rule="evenodd" clip-rule="evenodd" d="M145.684 196.273c-.495.264-.528.693 0 .99l5.772 3.301a2.044 2.044 0 0 0 1.748 0l4.65-2.608c.429-.264.429-.726-.033-.99l-5.772-3.3a1.932 1.932 0 0 0-1.715 0l-4.65 2.607Zm5.237-1.472-3.519 1.973 4.634 2.65a.76.76 0 0 0 .591-.001l3.493-1.959-4.661-2.665a.679.679 0 0 0-.538.002Z" fill="#1C2A60"/><path d="m165.935 201.686-5.772-3.301a1.945 1.945 0 0 0-1.715 0l-4.683 2.608c-.462.264-.495.726 0 .99l5.772 3.3a2.03 2.03 0 0 0 1.748 0l4.65-2.607c.462-.264.462-.66 0-.99Z" fill="#fff"/><path fill-rule="evenodd" clip-rule="evenodd" d="m155.487 201.496 3.546-1.975a.676.676 0 0 1 .54-.002l4.644 2.656-3.509 1.968a.775.775 0 0 1-.591.001l-4.63-2.648Zm4.05 3.787-5.772-3.3c-.495-.264-.462-.726 0-.99l4.683-2.608a1.946 1.946 0 0 1 1.715 0l5.772 3.301c.462.33.462.726 0 .99l-4.65 2.607a2.037 2.037 0 0 1-1.748 0Z" fill="#1C2A60"/><path d="m174.213 206.538-5.771-3.301a1.95 1.95 0 0 0-1.716 0l-4.683 2.608c-.495.264-.495.726 0 .99l5.772 3.3a2.048 2.048 0 0 0 1.748 0l4.65-2.607c.462-.297.462-.726 0-.99Z" fill="#fff"/><path fill-rule="evenodd" clip-rule="evenodd" d="m163.765 206.348 3.547-1.975a.668.668 0 0 1 .539-.002l4.644 2.656-3.509 1.967a.758.758 0 0 1-.591.002l-4.63-2.648Zm4.05 3.787-5.772-3.3c-.495-.264-.495-.726 0-.99l4.683-2.608a1.95 1.95 0 0 1 1.716 0l5.771 3.301c.462.264.462.693 0 .99l-4.65 2.607a2.048 2.048 0 0 1-1.748 0Z" fill="#1C2A60"/><path d="m182.591 211.389-5.805-3.3a1.946 1.946 0 0 0-1.715 0l-4.65 2.607c-.495.264-.528.726 0 .99l5.771 3.301a1.95 1.95 0 0 0 1.715 0l4.684-2.608c.429-.264.462-.693 0-.99Z" fill="#fff"/><path fill-rule="evenodd" clip-rule="evenodd" d="M170.421 210.696c-.495.264-.528.726 0 .99l5.771 3.301a1.95 1.95 0 0 0 1.715 0l4.684-2.608c.429-.264.462-.693 0-.99l-5.805-3.3a1.946 1.946 0 0 0-1.715 0l-4.65 2.607Zm5.236-1.472-3.519 1.973 4.644 2.656a.67.67 0 0 0 .54-.002l3.544-1.973-4.669-2.655a.67.67 0 0 0-.54.001Z" fill="#1C2A60"/><path d="m190.869 216.208-5.805-3.3a1.84 1.84 0 0 0-1.715 0l-4.65 2.574c-.495.264-.528.726 0 .99l5.805 3.301a1.945 1.945 0 0 0 1.715 0l4.683-2.608c.396-.231.429-.66-.033-.957Z" fill="#fff"/><path fill-rule="evenodd" clip-rule="evenodd" d="M178.699 215.482c-.495.264-.528.726 0 .99l5.805 3.301a1.945 1.945 0 0 0 1.715 0l4.683-2.608c.396-.231.429-.66-.033-.957l-5.805-3.3a1.84 1.84 0 0 0-1.715 0l-4.65 2.574Zm5.253-1.448-3.525 1.951 4.666 2.653a.668.668 0 0 0 .541-.001l3.497-1.948-4.674-2.657a.563.563 0 0 0-.505.002Z" fill="#1C2A60"/><path d="m199.147 221.06-5.772-3.301a2.047 2.047 0 0 0-1.748 0l-4.65 2.608c-.495.264-.528.693 0 .957l5.772 3.3a1.739 1.739 0 0 0 1.715 0l4.683-2.574c.429-.231.462-.726 0-.99Z" fill="#fff"/><path fill-rule="evenodd" clip-rule="evenodd" d="m194.464 224.624 4.683-2.574c.429-.231.462-.726 0-.99l-5.772-3.301a2.047 2.047 0 0 0-1.748 0l-4.65 2.608c-.495.264-.528.693 0 .957l5.772 3.3a1.739 1.739 0 0 0 1.715 0Zm-1.086-1.111a.467.467 0 0 0 .459-.001l.011-.007 3.57-1.962-4.623-2.644a.76.76 0 0 0-.591.001l-3.48 1.952 4.654 2.661Zm-5.808-2.015.003-.002-.003.002Z" fill="#1C2A60"/><path d="m207.426 225.878-5.772-3.3a2.047 2.047 0 0 0-1.748 0l-4.65 2.607c-.495.264-.528.693 0 .991l5.772 3.3a1.942 1.942 0 0 0 1.715 0l4.683-2.607c.429-.264.462-.727 0-.991Z" fill="#fff"/><path fill-rule="evenodd" clip-rule="evenodd" d="m196.974 225.686 4.644 2.656a.662.662 0 0 0 .539-.002l3.547-1.975-4.631-2.648a.77.77 0 0 0-.59.002l-3.509 1.967Zm2.932-3.108a2.047 2.047 0 0 1 1.748 0l5.772 3.3c.462.264.429.727 0 .991l-4.683 2.607a1.95 1.95 0 0 1-1.715 0l-5.772-3.3c-.528-.298-.495-.727 0-.991l4.65-2.607Z" fill="#1C2A60"/><path d="m215.704 230.697-5.771-3.3a2.045 2.045 0 0 0-1.748 0l-4.651 2.607c-.495.264-.495.726 0 .99l5.772 3.301a2.047 2.047 0 0 0 1.748 0l4.65-2.608c.429-.264.462-.693 0-.99Z" fill="#fff"/><path fill-rule="evenodd" clip-rule="evenodd" d="m205.252 230.505 4.635 2.651a.773.773 0 0 0 .59-.002l3.51-1.968-4.635-2.65a.777.777 0 0 0-.591.002l-3.509 1.967Zm2.933-3.108a2.045 2.045 0 0 1 1.748 0l5.771 3.3c.462.297.429.726 0 .99l-4.65 2.608a2.047 2.047 0 0 1-1.748 0l-5.772-3.301c-.495-.264-.495-.726 0-.99l4.651-2.607Z" fill="#1C2A60"/><path d="m223.983 235.549-5.772-3.3a1.91 1.91 0 0 0-1.748 0l-4.651 2.574c-.494.297-.527.726 0 .99l5.772 3.301a1.858 1.858 0 0 0 1.715 0l4.684-2.608c.429-.264.461-.693 0-.957Z" fill="#fff"/><path fill-rule="evenodd" clip-rule="evenodd" d="m211.812 234.823 4.651-2.574a1.91 1.91 0 0 1 1.748 0l5.772 3.3c.461.264.429.693 0 .957l-4.684 2.608a1.85 1.85 0 0 1-1.715 0l-5.772-3.301c-.527-.264-.494-.693 0-.99Zm.646 1.102-.003.003.005-.004-.002.001Zm5.734 2.065-4.655-2.662 3.523-1.95a.632.632 0 0 1 .548-.003l4.624 2.644-3.536 1.969a.575.575 0 0 1-.504.002Z" fill="#1C2A60"/><path d="m232.294 240.368-5.805-3.301a1.942 1.942 0 0 0-1.715 0l-4.65 2.608c-.495.264-.528.726 0 .99l5.805 3.301a1.945 1.945 0 0 0 1.715 0l4.65-2.608c.429-.264.462-.726 0-.99Z" fill="#fff"/><path fill-rule="evenodd" clip-rule="evenodd" d="M220.124 239.675c-.495.264-.528.726 0 .99l5.805 3.301a1.945 1.945 0 0 0 1.715 0l4.65-2.608c.429-.264.462-.726 0-.99l-5.805-3.301a1.942 1.942 0 0 0-1.715 0l-4.65 2.608Zm5.237-1.472-3.516 1.971 4.673 2.657a.668.668 0 0 0 .539-.001l3.516-1.971-4.673-2.657a.668.668 0 0 0-.539.001Z" fill="#1C2A60"/><path d="m240.573 245.187-5.805-3.301a1.946 1.946 0 0 0-1.715 0l-4.651 2.607c-.494.264-.527.727 0 .991l5.805 3.3a1.946 1.946 0 0 0 1.715 0l4.651-2.607c.428-.264.461-.693 0-.99Z" fill="#fff"/><path fill-rule="evenodd" clip-rule="evenodd" d="m230.123 244.993 4.673 2.657a.672.672 0 0 0 .54-.001l3.516-1.972-4.673-2.657a.672.672 0 0 0-.54.002l-3.516 1.971Zm2.93-3.107a1.945 1.945 0 0 1 1.715 0l5.805 3.301c.461.297.428.726 0 .99l-4.651 2.607a1.945 1.945 0 0 1-1.715 0l-5.805-3.3c-.527-.264-.494-.727 0-.991l4.651-2.607Z" fill="#1C2A60"/><path d="m248.851 250.039-5.805-3.301a1.841 1.841 0 0 0-1.715 0l-4.65 2.608c-.495.264-.528.693 0 .957l5.771 3.3a1.846 1.846 0 0 0 1.716 0l4.683-2.607c.429-.264.462-.693 0-.957Z" fill="#fff"/><path fill-rule="evenodd" clip-rule="evenodd" d="M236.681 249.346c-.495.264-.528.693 0 .957l5.771 3.3a1.846 1.846 0 0 0 1.716 0l4.683-2.607c.429-.264.462-.693 0-.957l-5.805-3.301a1.841 1.841 0 0 0-1.715 0l-4.65 2.608Zm5.255-1.483-3.508 1.967 4.633 2.65a.564.564 0 0 0 .503-.003l3.533-1.966-4.658-2.649a.573.573 0 0 0-.503.001Zm-4.662 2.614.003-.002-.003.002Z" fill="#1C2A60"/><path d="m257.129 254.824-5.804-3.3a1.95 1.95 0 0 0-1.715 0l-4.651 2.607c-.495.264-.528.693 0 .957l5.805 3.301a1.945 1.945 0 0 0 1.715 0l4.683-2.608c.396-.198.429-.66-.033-.957Z" fill="#fff"/><path fill-rule="evenodd" clip-rule="evenodd" d="M257.162 255.781c.396-.198.429-.66-.033-.957l-5.804-3.3a1.95 1.95 0 0 0-1.715 0l-4.651 2.607c-.495.264-.528.693 0 .957l5.805 3.301a1.945 1.945 0 0 0 1.715 0l4.683-2.608Zm-5.268 1.472 3.498-1.948-4.656-2.647a.672.672 0 0 0-.54.001l-3.487 1.955 4.644 2.64a.655.655 0 0 0 .541-.001Zm-6.341-1.991.002-.001-.002.001Z" fill="#1C2A60"/><path d="m265.408 259.676-5.772-3.301a2.047 2.047 0 0 0-1.748 0l-4.651 2.608c-.494.264-.527.726 0 .99l5.772 3.3a1.947 1.947 0 0 0 1.715 0l4.684-2.607c.428-.264.461-.693 0-.99Z" fill="#fff"/><path fill-rule="evenodd" clip-rule="evenodd" d="m254.955 259.484 4.644 2.655a.67.67 0 0 0 .54-.002l3.547-1.974-4.631-2.648a.755.755 0 0 0-.59.001l-3.51 1.968Zm2.933-3.109a2.047 2.047 0 0 1 1.748 0l5.772 3.301c.461.297.428.726 0 .99l-4.684 2.607a1.946 1.946 0 0 1-1.715 0l-5.772-3.3c-.527-.264-.494-.726 0-.99l4.651-2.608Z" fill="#1C2A60"/><path d="m273.686 264.528-5.772-3.301a2.044 2.044 0 0 0-1.748 0l-4.65 2.608c-.495.264-.528.726 0 .99l5.772 3.3a1.932 1.932 0 0 0 1.715 0l4.683-2.607c.429-.297.462-.792 0-.99Z" fill="#fff"/><path fill-rule="evenodd" clip-rule="evenodd" d="m271.964 265.015-4.63-2.648a.76.76 0 0 0-.591.001l-3.509 1.968 4.644 2.656a.679.679 0 0 0 .54-.003l3.546-1.974Zm-2.961 3.11a1.937 1.937 0 0 1-1.715 0l-5.772-3.3c-.528-.264-.495-.726 0-.99l4.65-2.608a2.05 2.05 0 0 1 1.748 0l5.772 3.301c.462.198.429.693 0 .99l-4.683 2.607Z" fill="#1C2A60"/><path d="m149.793 203.181-6.266-3.663a1.946 1.946 0 0 0-1.715 0l-4.651 2.607c-.494.264-.527.726 0 .99l6.267 3.631a1.945 1.945 0 0 0 1.715 0l4.65-2.607c.429-.33.462-.76 0-.958Zm8.609 4.951-6.234-3.663a2.034 2.034 0 0 0-1.748 0l-4.65 2.607c-.495.264-.495.726 0 .99l6.233 3.631a1.753 1.753 0 0 0 1.715 0l4.684-2.575c.461-.297.461-.726 0-.99Zm8.731 5.116-6.233-3.664a2.047 2.047 0 0 0-1.748 0l-4.651 2.608c-.494.264-.494.726 0 .99l6.234 3.631a1.753 1.753 0 0 0 1.715 0l4.683-2.575c.462-.297.462-.726 0-.99Zm-1.574 7.432-6.234-3.664a2.047 2.047 0 0 0-1.748 0l-4.65 2.608c-.495.264-.495.726 0 .99l6.233 3.63a1.742 1.742 0 0 0 1.715 0l4.684-2.574c.462-.297.462-.726 0-.99Zm-8.345-5.134-6.233-3.664a2.05 2.05 0 0 0-1.748 0l-4.651 2.607c-.494.265-.494.727 0 .991l6.234 3.63a1.741 1.741 0 0 0 1.715 0l4.683-2.574c.462-.297.462-.726 0-.99Zm18.206 2.455-5.804-3.301a1.858 1.858 0 0 0-1.716 0l-4.65 2.608c-.495.264-.528.693 0 .957l5.805 3.3a1.741 1.741 0 0 0 1.715 0l4.65-2.574c.429-.297.462-.726 0-.99Zm8.279 4.984-5.805-3.301a1.946 1.946 0 0 0-1.715 0l-4.651 2.608c-.494.264-.527.693 0 .99l5.772 3.3a1.946 1.946 0 0 0 1.715 0l4.651-2.607c.462-.429.494-.99.033-.99Zm8.277 4.653-5.804-3.301a1.946 1.946 0 0 0-1.715 0l-4.651 2.608c-.495.264-.495.726 0 .99l5.805 3.301a1.946 1.946 0 0 0 1.715 0l4.65-2.608c.429-.264.462-.693 0-.99Zm8.28 4.852-5.772-3.301a2.05 2.05 0 0 0-1.748 0l-4.651 2.608c-.494.264-.527.726 0 .99l5.772 3.3a1.947 1.947 0 0 0 1.715 0l4.65-2.607c.462-.297.495-.594.034-.99Zm8.278 4.819-5.772-3.301a2.047 2.047 0 0 0-1.748 0l-4.65 2.608c-.495.264-.495.693 0 .957l5.771 3.3a1.845 1.845 0 0 0 1.716 0l4.683-2.574c.429-.297.462-.726 0-.99Zm8.278 4.818-5.772-3.3a2.044 2.044 0 0 0-1.748 0l-4.65 2.607c-.495.264-.495.693 0 .991l5.772 3.3a1.945 1.945 0 0 0 1.715 0l4.65-2.607c.462-.33.495-.726.033-.991Zm8.312 4.852-5.805-3.3a1.742 1.742 0 0 0-1.715 0l-4.651 2.574c-.494.297-.527.726 0 .99l5.805 3.301a1.858 1.858 0 0 0 1.715 0l4.651-2.608c.428-.264.461-.693 0-.957Zm8.278 4.819-5.805-3.3a1.946 1.946 0 0 0-1.715 0l-4.65 2.607c-.495.264-.528.693 0 .957l5.805 3.301a1.75 1.75 0 0 0 1.715 0l4.65-2.575c.429-.099.462-.726 0-.99Zm8.278 4.819-5.804-3.301a1.95 1.95 0 0 0-1.715 0l-4.651 2.608c-.495.264-.527.693 0 .99l5.805 3.3a1.947 1.947 0 0 0 1.715 0l4.65-2.607c.429-.264.462-.726 0-.99Zm8.279 4.819-5.804-3.301a1.95 1.95 0 0 0-1.715 0l-4.651 2.607c-.495.265-.527.727 0 .991l5.805 3.3a1.946 1.946 0 0 0 1.715 0l4.65-2.607c.429-.264.462-.693 0-.99Zm15.271 8.911-12.665-7.36a1.946 1.946 0 0 0-1.715 0l-4.684 2.607c-.461.264-.494.693 0 .957l12.665 7.394a1.95 1.95 0 0 0 1.715 0l4.651-2.608c.462-.264.462-.726.033-.99Zm-91.393-45.118-5.772-3.301a1.945 1.945 0 0 0-1.715 0l-4.683 2.608c-.462.264-.495.693 0 .957l5.772 3.3a1.91 1.91 0 0 0 1.748 0l4.65-2.574c.462-.297.462-.726 0-.99Zm8.279 4.818-5.772-3.3a1.945 1.945 0 0 0-1.715 0l-4.65 2.607c-.495.264-.528.693 0 .99l5.772 3.301a2.044 2.044 0 0 0 1.748 0l4.65-2.607c.429-.264.429-.727-.033-.991Zm8.278 4.819-5.772-3.3a1.945 1.945 0 0 0-1.715 0l-4.683 2.607c-.462.264-.495.726 0 .991l5.771 3.3a2.05 2.05 0 0 0 1.748 0l4.651-2.607c.462-.264.462-.693 0-.991Zm8.278 4.852-5.772-3.3a1.932 1.932 0 0 0-1.715 0l-4.65 2.574c-.495.297-.528.726 0 .99l5.772 3.301a1.813 1.813 0 0 0 1.748 0l4.65-2.575c.429-.297.429-.726-.033-.99Zm8.279 4.819-5.772-3.301a1.945 1.945 0 0 0-1.715 0l-4.65 2.608c-.495.264-.528.693 0 .957l5.772 3.3a1.91 1.91 0 0 0 1.748 0l4.65-2.574c.429-.264.462-.726-.033-.99Zm8.311 4.852-5.904-3.301a1.75 1.75 0 0 0-1.715 0l-4.683 2.575c-.495.264-.495.726 0 .99l5.772 3.3a2.034 2.034 0 0 0 1.748 0l4.65-2.607c.561-.264.594-.693.132-.957Zm8.278 4.818-5.772-3.3a1.838 1.838 0 0 0-1.715 0l-4.683 2.607c-.495.264-.495.693 0 .957l5.772 3.301a1.752 1.752 0 0 0 1.715 0l4.683-2.574c.429-.298.462-.727 0-.991Zm8.279 4.819-5.772-3.301a1.942 1.942 0 0 0-1.715 0l-4.683 2.608c-.495.264-.495.726 0 .99l5.772 3.3a2.034 2.034 0 0 0 1.748 0l4.65-2.607c.627-.264.627-.726 0-.99Zm8.279 4.819-5.772-3.301a1.946 1.946 0 0 0-1.715 0l-4.684 2.608c-.494.264-.494.726 0 .99l5.772 3.3a2.034 2.034 0 0 0 1.748 0l4.651-2.607c.461-.264.461-.693 0-.99Zm17.975 10.496-15.752-9.1a1.943 1.943 0 0 0-1.715 0l-4.683 2.607c-.462.264-.495.693 0 .99l15.751 9.067a1.742 1.742 0 0 0 1.715 0l4.684-2.607c.429-.264.462-.693 0-.957Zm-112.73-57.771-15.682-9.111a1.95 1.95 0 0 0-1.715 0l-4.651 2.608c-.495.264-.528.693 0 .99l15.683 9.111a1.945 1.945 0 0 0 1.715 0l4.65-2.608c.429-.264.462-.693 0-.99Zm3.487-5.961-11.981-6.953a1.742 1.742 0 0 0-1.715 0l-4.684 2.574c-.461.264-.494.726 0 .99l11.982 6.987a1.946 1.946 0 0 0 1.715 0l4.65-2.608c.528-.264.528-.726.033-.99Zm12.309 15.346-5.771-3.301a2.05 2.05 0 0 0-1.748 0l-4.651 2.608c-.495.264-.495.693 0 .957l5.772 3.3a1.842 1.842 0 0 0 1.715 0l4.65-2.574c.462-.297.495-.66.033-.99Zm-7.85-4.908-5.772-3.301a2.047 2.047 0 0 0-1.748 0l-4.651 2.608c-.494.264-.494.693 0 .957l5.772 3.3a1.846 1.846 0 0 0 1.715 0l4.651-2.574c.461-.297.494-.66.033-.99Zm16.129 9.727-5.772-3.301a2.047 2.047 0 0 0-1.748 0l-4.651 2.608c-.494.264-.494.693 0 .99l5.772 3.3a1.95 1.95 0 0 0 1.715 0l4.684-2.607c.363-.264.363-.726 0-.99Zm8.278 4.818-5.772-3.3a2.048 2.048 0 0 0-1.748 0l-4.65 2.607c-.495.264-.495.726 0 .99l5.772 3.301a1.945 1.945 0 0 0 1.715 0l4.683-2.608c.462-.396.462-.693 0-.99Zm8.278 4.852-5.771-3.3a1.808 1.808 0 0 0-1.748 0l-4.651 2.574c-.495.297-.495.726 0 .99l5.772 3.301a1.858 1.858 0 0 0 1.715 0l4.683-2.608c.297-.264.462-.693 0-.957Zm8.279 4.819-5.771-3.301a2.05 2.05 0 0 0-1.748 0l-4.651 2.608c-.495.264-.495.693 0 .957l5.772 3.301a1.946 1.946 0 0 0 1.715 0l4.683-2.608c.462-.132.462-.693 0-.957Zm8.278 4.819-5.772-3.301a2.044 2.044 0 0 0-1.748 0l-4.65 2.607c-.495.265-.495.694 0 .991l5.772 3.3a1.945 1.945 0 0 0 1.715 0l4.683-2.607c.429-.264.462-.726 0-.99Zm8.312 4.851-5.772-3.3a1.914 1.914 0 0 0-1.748 0l-4.651 2.607c-.494.264-.527.693 0 .957l5.772 3.301a1.753 1.753 0 0 0 1.715 0l4.651-2.574c.461-.298.494-.727.033-.991Zm8.41 4.819-5.805-3.3a1.945 1.945 0 0 0-1.715 0l-4.65 2.607a.532.532 0 0 0-.344.495.534.534 0 0 0 .344.496l5.805 3.3a1.945 1.945 0 0 0 1.715 0l4.65-2.607c.297-.264.33-.726 0-.991Zm8.146 4.819-5.771-3.301a1.913 1.913 0 0 0-1.748 0l-4.651 2.575c-.495.264-.495.726 0 .99l5.772 3.3a1.947 1.947 0 0 0 1.715 0l4.683-2.607c.429-.231.462-.66 0-.957Zm8.345 4.852-5.772-3.301a2.047 2.047 0 0 0-1.748 0l-4.65 2.608c-.495.264-.495.726 0 .99l5.771 3.3a1.95 1.95 0 0 0 1.716 0l4.683-2.607c.363-.297.396-.726 0-.99Zm15.204 8.878-12.665-7.36a1.946 1.946 0 0 0-1.715 0l-4.65 2.607c-.495.264-.528.693 0 .991l12.664 7.36a1.95 1.95 0 0 0 1.716 0l4.65-2.608c.429-.198.462-.726 0-.99Zm-115.673-59.569-12.556-7.187a1.95 1.95 0 0 0-1.715 0l-4.651 2.607c-.495.264-.528.693 0 .991l12.556 7.186a2.045 2.045 0 0 0 1.748 0l4.651-2.607c.429-.264.462-.693-.033-.99Zm32.493 19.336-5.771-3.301a1.845 1.845 0 0 0-1.715 0l-4.684 2.575c-.462.297-.495.726 0 .99l5.772 3.3a2.034 2.034 0 0 0 1.748 0l4.65-2.607c.462-.264.462-.693 0-.957Zm-8.15-4.91-5.771-3.3a1.846 1.846 0 0 0-1.715 0l-4.684 2.574c-.462.297-.495.726 0 .99l5.772 3.301a2.047 2.047 0 0 0 1.748 0l4.65-2.608c.462-.264.462-.693 0-.957Zm-7.891-4.823-5.772-3.301a1.845 1.845 0 0 0-1.715 0l-4.684 2.574c-.461.298-.494.727 0 .991l5.772 3.3a2.05 2.05 0 0 0 1.748 0l4.651-2.607c.461-.264.461-.693 0-.957Zm-8.269-5.115-5.771-3.301a1.858 1.858 0 0 0-1.716 0l-4.683 2.575c-.462.297-.495.726 0 .99l5.772 3.3a2.034 2.034 0 0 0 1.748 0l4.65-2.607c.462-.264.462-.693 0-.957Zm32.589 19.568-5.772-3.301a1.753 1.753 0 0 0-1.715 0l-4.684 2.608c-.461.264-.494.693 0 .957l5.772 3.3a1.808 1.808 0 0 0 1.748 0l4.651-2.574c.33-.198.33-.627 0-.99Zm8.279 4.917-5.772-3.3a1.946 1.946 0 0 0-1.715 0l-4.684 2.607c-.461.264-.494.726 0 .99l5.772 3.301a2.05 2.05 0 0 0 1.748 0l4.651-2.608c.461-.264.494-.726 0-.99Zm8.278 4.984-5.772-3.3a1.947 1.947 0 0 0-1.715 0l-4.684 2.607c-.461.264-.494.726 0 .99l5.772 3.301a2.047 2.047 0 0 0 1.748 0l4.651-2.608c.461-.429.494-.99 0-.99Zm8.311 4.687-5.771-3.301a2.05 2.05 0 0 0-1.748 0l-4.651 2.608c-.495.264-.495.693 0 .99l5.772 3.3a1.946 1.946 0 0 0 1.715 0l4.683-2.607c.462-.264.462-.726 0-.99Zm8.443 4.819-5.771-3.301a2.05 2.05 0 0 0-1.748 0l-4.651 2.608c-.495.264-.495.726 0 .99l5.772 3.3a1.945 1.945 0 0 0 1.715 0l4.683-2.607c.264-.264.297-.594 0-.99Zm8.114 4.851-5.772-3.3a1.91 1.91 0 0 0-1.748 0l-4.65 2.574c-.495.264-.495.726 0 .99l5.772 3.301a2.044 2.044 0 0 0 1.748 0l4.65-2.607c.462-.264.462-.693 0-.958Zm19.209 11.079-5.772-3.3a1.932 1.932 0 0 0-1.715 0l-4.683 2.607c-.462.264-.495.693 0 .99l5.771 3.301a2.05 2.05 0 0 0 1.748 0l4.651-2.608c.462-.264.495-.726 0-.99Zm-105.458-53.427-5.804-3.3a1.845 1.845 0 0 0-1.716 0l-4.65 2.574c-.495.297-.528.726 0 .99l5.805 3.301a1.841 1.841 0 0 0 1.715 0l4.65-2.608c.363-.264.396-.693 0-.957Zm-8.268-4.7-7.506-4.276a1.846 1.846 0 0 0-1.715 0l-4.651 2.574c-.495.297-.527.726 0 .99l7.506 4.277a1.845 1.845 0 0 0 1.715 0l4.651-2.608c.363-.264.396-.693 0-.957Zm16.452 9.596-5.805-3.3a1.947 1.947 0 0 0-1.715 0l-4.65 2.607c-.495.264-.528.693 0 .957l5.804 3.301a1.845 1.845 0 0 0 1.715 0l4.651-2.575c.429-.297.462-.726 0-.99Zm8.348 4.855-5.771-3.3a1.745 1.745 0 0 0-1.716 0l-4.683 2.574c-.462.297-.495.726 0 .99l5.772 3.301a1.91 1.91 0 0 0 1.748 0l4.65-2.608c.528-.264.528-.693 0-.957Zm48.707 28.504-46.201-26.966a1.946 1.946 0 0 0-1.715 0l-4.683 2.607c-.462.264-.495.693 0 .99l46.201 26.934a1.91 1.91 0 0 0 1.748 0l4.65-2.607c.462-.264.462-.694 0-.958Zm8.279 4.82-5.771-3.301a2.05 2.05 0 0 0-1.748 0l-4.651 2.607c-.495.264-.495.693 0 .958l5.772 3.3a1.817 1.817 0 0 0 1.748 0l4.65-2.574c.429-.264.462-.726 0-.99Zm8.278 4.719-5.771-3.3a1.95 1.95 0 0 0-1.715 0l-4.684 2.607c-.462.264-.495.693 0 .991l5.772 3.3a2.047 2.047 0 0 0 1.748 0l4.65-2.607c.462-.165.462-.627 0-.991Zm8.391 4.722-5.772-3.3a1.945 1.945 0 0 0-1.715 0l-4.683 2.607c-.495.264-.495.726 0 .99l5.771 3.301a2.05 2.05 0 0 0 1.748 0l4.651-2.607c.462-.265.462-.694 0-.991Zm8.358 4.917-5.772-3.3a1.742 1.742 0 0 0-1.715 0l-4.651 2.574c-.495.297-.527.726 0 .99l5.772 3.301a1.91 1.91 0 0 0 1.748 0l4.65-2.575c.429-.429.246-.831-.032-.99Zm7.081 4-4.486-2.608a1.942 1.942 0 0 0-1.715 0l-4.683 2.608c-.462.264-.495.693 0 .957l4.486 2.64a1.838 1.838 0 0 0 1.715 0l4.683-2.574c.429-.297.462-.759 0-1.023Z" fill="#1C2A60"/><path d="m149.793 202.622-6.266-3.664a1.946 1.946 0 0 0-1.715 0l-4.651 2.607c-.494.265-.527.727 0 .991l6.267 3.63a1.945 1.945 0 0 0 1.715 0l4.65-2.607c.429-.33.462-.759 0-.957Z" fill="#fff"/><path fill-rule="evenodd" clip-rule="evenodd" d="m148.059 203.087-5.126-2.997a.667.667 0 0 0-.535.004l-3.526 1.977 5.148 2.982a.67.67 0 0 0 .537-.002l3.502-1.964Zm-2.916 3.099a1.946 1.946 0 0 1-1.715 0l-6.267-3.63c-.527-.264-.494-.726 0-.991l4.651-2.607a1.945 1.945 0 0 1 1.715 0l6.266 3.664c.462.198.429.627 0 .957l-4.65 2.607Z" fill="#1C2A60"/><path d="m158.402 207.573-6.234-3.664a2.047 2.047 0 0 0-1.748 0l-4.65 2.607c-.495.264-.495.726 0 .991l6.233 3.63a1.742 1.742 0 0 0 1.715 0l4.684-2.574c.461-.297.461-.726 0-.99Z" fill="#fff"/><path fill-rule="evenodd" clip-rule="evenodd" d="m156.688 208.047-5.106-3.001a.765.765 0 0 0-.585.004l-3.519 1.973 5.158 3.004a.465.465 0 0 0 .455-.003l.012-.006 3.585-1.971Zm-4.685 3.09-6.233-3.63c-.495-.265-.495-.727 0-.991l4.65-2.607a2.047 2.047 0 0 1 1.748 0l6.234 3.664c.461.264.461.693 0 .99l-4.684 2.574a1.739 1.739 0 0 1-1.715 0Z" fill="#1C2A60"/><path d="m167.133 212.688-6.233-3.663a2.034 2.034 0 0 0-1.748 0l-4.651 2.607c-.494.264-.494.726 0 .99l6.234 3.631a1.753 1.753 0 0 0 1.715 0l4.683-2.575c.462-.297.462-.726 0-.99Z" fill="#fff"/><path fill-rule="evenodd" clip-rule="evenodd" d="m165.42 213.163-5.106-3.001a.765.765 0 0 0-.585.004l-3.52 1.973 5.158 3.004a.472.472 0 0 0 .456-.003l.012-.007v.001l3.585-1.971Zm-4.685 3.09-6.234-3.631c-.494-.264-.494-.726 0-.99l4.651-2.607a2.034 2.034 0 0 1 1.748 0l6.233 3.663c.462.264.462.693 0 .99l-4.683 2.575a1.752 1.752 0 0 1-1.715 0Z" fill="#1C2A60"/><path d="m165.559 220.12-6.234-3.663a2.034 2.034 0 0 0-1.748 0l-4.65 2.607c-.495.264-.495.726 0 .99l6.233 3.631a1.753 1.753 0 0 0 1.715 0l4.684-2.575c.462-.297.462-.726 0-.99Z" fill="#fff"/><path fill-rule="evenodd" clip-rule="evenodd" d="m163.845 220.595-5.106-3.001a.766.766 0 0 0-.585.003l-3.519 1.974 5.158 3.004a.464.464 0 0 0 .455-.003l.012-.007 3.585-1.97Zm-4.685 3.09-6.233-3.631c-.495-.264-.495-.726 0-.99l4.65-2.607a2.034 2.034 0 0 1 1.748 0l6.234 3.663c.462.264.462.693 0 .99l-4.684 2.575a1.75 1.75 0 0 1-1.715 0Z" fill="#1C2A60"/><path d="m157.214 214.986-6.233-3.664a2.05 2.05 0 0 0-1.748 0l-4.651 2.608c-.494.264-.494.726 0 .99l6.234 3.63a1.741 1.741 0 0 0 1.715 0l4.683-2.574c.462-.297.462-.726 0-.99Z" fill="#fff"/><path fill-rule="evenodd" clip-rule="evenodd" d="m155.501 215.46-5.106-3.001a.769.769 0 0 0-.585.004l-3.52 1.973 5.158 3.005a.479.479 0 0 0 .456-.003l.012-.007 3.585-1.971Zm-4.685 3.09-6.234-3.63c-.494-.264-.494-.726 0-.99l4.651-2.608a2.044 2.044 0 0 1 1.748 0l6.233 3.664c.462.264.462.693 0 .99l-4.683 2.574a1.742 1.742 0 0 1-1.715 0Z" fill="#1C2A60"/><path d="m175.42 217.441-5.804-3.3a1.846 1.846 0 0 0-1.716 0l-4.65 2.607c-.495.264-.528.693 0 .957l5.805 3.301a1.752 1.752 0 0 0 1.715 0l4.65-2.575c.429-.297.462-.726 0-.99Z" fill="#fff"/><path fill-rule="evenodd" clip-rule="evenodd" d="m165 217.231 4.683 2.663a.47.47 0 0 0 .46-.001l.008-.005 3.541-1.96-4.684-2.663a.557.557 0 0 0-.503.001L165 217.231Zm2.9-3.09a1.846 1.846 0 0 1 1.716 0l5.804 3.3c.462.264.429.693 0 .99l-4.65 2.575a1.753 1.753 0 0 1-1.715 0l-5.805-3.301c-.528-.264-.495-.693 0-.957l4.65-2.607Zm-4.056 3.738.002-.001-.002.001Z" fill="#1C2A60"/><path d="m183.699 222.425-5.805-3.301a1.946 1.946 0 0 0-1.715 0l-4.651 2.608c-.494.264-.527.693 0 .99l5.772 3.3a1.934 1.934 0 0 0 1.715 0l4.651-2.607c.462-.429.494-.99.033-.99Z" fill="#fff"/><path fill-rule="evenodd" clip-rule="evenodd" d="M179.015 226.022a1.932 1.932 0 0 1-1.715 0l-5.772-3.3c-.527-.297-.494-.726 0-.99l4.651-2.608a1.945 1.945 0 0 1 1.715 0l5.805 3.301c.45 0 .43.534 0 .958l-.033.032-4.651 2.607Zm-1.71-5.763a.673.673 0 0 0-.54.001l-3.519 1.973 4.644 2.656a.687.687 0 0 0 .539-.002l3.532-1.981-4.656-2.647Z" fill="#1C2A60"/><path d="m191.976 227.078-5.804-3.3a1.947 1.947 0 0 0-1.715 0l-4.651 2.607c-.495.264-.495.726 0 .99l5.805 3.301a1.946 1.946 0 0 0 1.715 0l4.65-2.608c.429-.264.462-.693 0-.99Z" fill="#fff"/><path fill-rule="evenodd" clip-rule="evenodd" d="m181.527 226.884 4.673 2.657a.656.656 0 0 0 .54-.001l3.516-1.971-4.673-2.657a.672.672 0 0 0-.54.001l-3.516 1.971Zm2.93-3.106a1.946 1.946 0 0 1 1.715 0l5.804 3.3c.462.297.429.726 0 .99l-4.65 2.608a1.945 1.945 0 0 1-1.715 0l-5.805-3.301c-.495-.264-.495-.726 0-.99l4.651-2.607Z" fill="#1C2A60"/><path d="m200.256 231.93-5.772-3.3a2.037 2.037 0 0 0-1.748 0l-4.651 2.607c-.494.264-.527.726 0 .99l5.772 3.301a1.946 1.946 0 0 0 1.715 0l4.65-2.608c.462-.297.495-.594.034-.99Z" fill="#fff"/><path fill-rule="evenodd" clip-rule="evenodd" d="m189.803 231.738 4.644 2.656a.664.664 0 0 0 .539-.002l3.535-1.982-4.618-2.641a.758.758 0 0 0-.59.002l-3.51 1.967Zm2.933-3.108a2.03 2.03 0 0 1 1.748 0l5.772 3.3c.461.396.428.693-.034.99l-4.65 2.608a1.945 1.945 0 0 1-1.715 0l-5.772-3.301c-.527-.264-.494-.726 0-.99l4.651-2.607Zm6.818 3.201h-.001l.003-.002-.002.002Z" fill="#1C2A60"/><path d="m208.534 236.749-5.772-3.301a2.047 2.047 0 0 0-1.748 0l-4.65 2.608c-.495.264-.495.693 0 .957l5.771 3.3a1.846 1.846 0 0 0 1.716 0l4.683-2.574c.429-.297.462-.726 0-.99Z" fill="#fff"/><path fill-rule="evenodd" clip-rule="evenodd" d="m198.111 236.54 4.633 2.65a.561.561 0 0 0 .505-.004l3.556-1.954-4.624-2.644a.752.752 0 0 0-.59.001l-3.48 1.951Zm2.903-3.092a2.047 2.047 0 0 1 1.748 0l5.772 3.301c.462.264.429.693 0 .99l-4.683 2.574a1.846 1.846 0 0 1-1.716 0l-5.771-3.3c-.495-.264-.495-.693 0-.957l4.65-2.608Z" fill="#1C2A60"/><path d="m216.812 241.568-5.772-3.301a2.044 2.044 0 0 0-1.748 0l-4.65 2.608c-.495.264-.495.693 0 .99l5.772 3.3a1.932 1.932 0 0 0 1.715 0l4.65-2.607c.462-.33.495-.726.033-.99Z" fill="#fff"/><path fill-rule="evenodd" clip-rule="evenodd" d="M204.642 240.875c-.495.264-.495.693 0 .99l5.772 3.3a1.932 1.932 0 0 0 1.715 0l4.65-2.607c.462-.33.495-.726.033-.99l-5.772-3.301a2.044 2.044 0 0 0-1.748 0l-4.65 2.608Zm5.227-1.467-3.509 1.968 4.644 2.656a.663.663 0 0 0 .538-.002l3.536-1.982-4.618-2.641a.76.76 0 0 0-.591.001Z" fill="#1C2A60"/><path d="m225.124 246.42-5.805-3.301a1.753 1.753 0 0 0-1.715 0l-4.651 2.574c-.494.297-.527.727 0 .991l5.805 3.3a1.845 1.845 0 0 0 1.715 0l4.651-2.607c.428-.264.461-.693 0-.957Z" fill="#fff"/><path fill-rule="evenodd" clip-rule="evenodd" d="m217.604 243.119-4.651 2.574c-.494.297-.527.727 0 .991l5.805 3.3a1.845 1.845 0 0 0 1.715 0l4.651-2.607c.428-.264.461-.693 0-.957l-5.805-3.301a1.753 1.753 0 0 0-1.715 0Zm5.77 3.775-4.682-2.662-.001-.001a.475.475 0 0 0-.46.001l-.008.004h-.001l-3.541 1.961 4.684 2.663a.574.574 0 0 0 .504-.001l3.505-1.965Zm-9.775-.098.002-.001-.005.003.003-.002Z" fill="#1C2A60"/><path d="m233.402 251.238-5.805-3.3a1.945 1.945 0 0 0-1.715 0l-4.65 2.607c-.495.264-.528.693 0 .957l5.805 3.301a1.75 1.75 0 0 0 1.715 0l4.65-2.575c.429-.099.462-.726 0-.99Z" fill="#fff"/><path fill-rule="evenodd" clip-rule="evenodd" d="m222.982 251.028 4.683 2.663a.472.472 0 0 0 .46-.001l.008-.005 3.541-1.96-4.666-2.653a.667.667 0 0 0-.539.001l-3.487 1.955Zm2.9-3.09a1.946 1.946 0 0 1 1.715 0l5.805 3.3c.462.264.429.891 0 .99l-4.65 2.575a1.753 1.753 0 0 1-1.715 0l-5.805-3.301c-.528-.264-.495-.693 0-.957l4.65-2.607Z" fill="#1C2A60"/><path d="m241.68 256.057-5.804-3.301a1.95 1.95 0 0 0-1.715 0l-4.651 2.608c-.495.264-.527.693 0 .99l5.805 3.3a1.934 1.934 0 0 0 1.715 0l4.65-2.607c.429-.264.462-.726 0-.99Z" fill="#fff"/><path fill-rule="evenodd" clip-rule="evenodd" d="m229.51 256.354 5.805 3.3a1.934 1.934 0 0 0 1.715 0l4.65-2.607c.429-.264.462-.726 0-.99l-5.804-3.301a1.95 1.95 0 0 0-1.715 0l-4.651 2.608c-.495.264-.527.693 0 .99Zm5.237-2.462-3.516 1.971 4.673 2.657a.673.673 0 0 0 .54-.001l3.516-1.971-4.673-2.657a.673.673 0 0 0-.54.001Z" fill="#1C2A60"/><path d="m249.959 260.876-5.804-3.301a1.95 1.95 0 0 0-1.715 0l-4.651 2.608c-.495.264-.527.726 0 .99l5.805 3.301a1.946 1.946 0 0 0 1.715 0l4.65-2.608c.429-.264.462-.693 0-.99Z" fill="#fff"/><path fill-rule="evenodd" clip-rule="evenodd" d="m239.51 260.682 4.673 2.657a.673.673 0 0 0 .54-.001l3.516-1.971-4.673-2.657a.673.673 0 0 0-.54.001l-3.516 1.971Zm2.93-3.107a1.945 1.945 0 0 1 1.715 0l5.804 3.301c.462.297.429.726 0 .99l-4.65 2.608a1.945 1.945 0 0 1-1.715 0l-5.805-3.301c-.527-.264-.495-.726 0-.99l4.651-2.608Z" fill="#1C2A60"/><path d="m265.23 269.787-12.665-7.36a1.946 1.946 0 0 0-1.715 0l-4.684 2.608c-.461.264-.494.693 0 .957l12.665 7.393a1.95 1.95 0 0 0 1.715 0l4.651-2.608c.462-.264.462-.726.033-.99Z" fill="#fff"/><path fill-rule="evenodd" clip-rule="evenodd" d="m247.906 265.528 3.529-1.965a.671.671 0 0 1 .537-.003l11.533 6.702-3.545 1.987a.667.667 0 0 1-.535.004l-11.519-6.725Zm10.925 7.857-12.665-7.393c-.494-.264-.461-.693 0-.957l4.684-2.608a1.945 1.945 0 0 1 1.715 0l12.665 7.36c.429.264.429.726-.033.99l-4.651 2.608a1.942 1.942 0 0 1-1.715 0Z" fill="#1C2A60"/><path d="m173.837 224.669-5.772-3.301a1.945 1.945 0 0 0-1.715 0l-4.683 2.608c-.462.264-.495.693 0 .957l5.772 3.301a1.923 1.923 0 0 0 1.748 0l4.65-2.575c.462-.297.462-.726 0-.99Z" fill="#fff"/><path fill-rule="evenodd" clip-rule="evenodd" d="m163.418 224.463 3.517-1.958a.66.66 0 0 1 .54-.003l4.637 2.652-3.522 1.95a.632.632 0 0 1-.549.003l-4.623-2.644Zm4.021 3.771-5.772-3.301c-.495-.264-.462-.693 0-.957l4.683-2.608a1.946 1.946 0 0 1 1.715 0l5.772 3.301c.462.264.462.693 0 .99l-4.65 2.575a1.926 1.926 0 0 1-1.748 0Z" fill="#1C2A60"/><path d="m182.116 229.488-5.772-3.301a1.945 1.945 0 0 0-1.715 0l-4.65 2.608c-.495.264-.528.693 0 .99l5.772 3.3a2.03 2.03 0 0 0 1.748 0l4.65-2.607c.429-.264.429-.726-.033-.99Z" fill="#fff"/><path fill-rule="evenodd" clip-rule="evenodd" d="m169.979 229.785 5.772 3.3a2.03 2.03 0 0 0 1.748 0l4.65-2.607c.429-.264.429-.726-.033-.99l-5.772-3.301a1.945 1.945 0 0 0-1.715 0l-4.65 2.608c-.495.264-.528.693 0 .99Zm5.237-2.462-3.519 1.973 4.634 2.65a.76.76 0 0 0 .591-.001l3.493-1.959-4.661-2.665a.662.662 0 0 0-.538.002Zm6.266 3.274v-.001Z" fill="#1C2A60"/><path d="m190.394 234.307-5.772-3.301a1.945 1.945 0 0 0-1.715 0l-4.683 2.608c-.462.264-.495.726 0 .99l5.771 3.3a2.037 2.037 0 0 0 1.748 0l4.651-2.607c.462-.264.462-.693 0-.99Z" fill="#fff"/><path fill-rule="evenodd" clip-rule="evenodd" d="m179.945 234.117 3.547-1.975a.676.676 0 0 1 .54-.002l4.644 2.656-3.509 1.967a.76.76 0 0 1-.591.002l-4.631-2.648Zm4.05 3.787-5.771-3.3c-.495-.264-.462-.726 0-.99l4.683-2.608a1.946 1.946 0 0 1 1.715 0l5.772 3.301c.462.297.462.726 0 .99l-4.651 2.607a2.03 2.03 0 0 1-1.748 0Z" fill="#1C2A60"/><path d="m198.672 239.158-5.772-3.3a1.945 1.945 0 0 0-1.715 0l-4.65 2.574c-.495.297-.528.726 0 .99l5.772 3.301a1.814 1.814 0 0 0 1.748 0l4.65-2.574c.429-.297.429-.726-.033-.991Z" fill="#fff"/><path fill-rule="evenodd" clip-rule="evenodd" d="m186.535 238.432 4.65-2.574a1.946 1.946 0 0 1 1.715 0l5.772 3.3c.462.265.462.694.033.991l-4.65 2.574a1.82 1.82 0 0 1-1.748 0l-5.772-3.301c-.528-.264-.495-.693 0-.99Zm.646 1.103a.012.012 0 0 0-.003.002l.005-.003-.002.001Zm5.748 2.072-4.669-2.67 3.509-1.942a.662.662 0 0 1 .541-.003l4.654 2.661-3.525 1.951-.001.001a.539.539 0 0 1-.509.002Z" fill="#1C2A60"/><path d="m206.951 243.977-5.772-3.3a1.932 1.932 0 0 0-1.715 0l-4.65 2.607c-.495.264-.528.693 0 .957l5.772 3.301a1.91 1.91 0 0 0 1.748 0l4.65-2.575c.429-.264.462-.726-.033-.99Z" fill="#fff"/><path fill-rule="evenodd" clip-rule="evenodd" d="m205.243 244.471-4.654-2.661a.679.679 0 0 0-.538.002l-3.49 1.957 4.627 2.646a.64.64 0 0 0 .549-.003l3.506-1.941Zm-2.909 3.071a1.913 1.913 0 0 1-1.748 0l-5.772-3.301c-.528-.264-.495-.693 0-.957l4.65-2.607a1.937 1.937 0 0 1 1.715 0l5.772 3.3c.495.264.462.726.033.99l-4.65 2.575Zm-6.927-3.127.003-.001-.003.001Z" fill="#1C2A60"/><path d="m215.262 248.829-5.904-3.301a1.75 1.75 0 0 0-1.715 0l-4.683 2.575c-.495.264-.495.726 0 .99l5.772 3.301a2.047 2.047 0 0 0 1.748 0l4.65-2.608c.561-.264.594-.693.132-.957Z" fill="#fff"/><path fill-rule="evenodd" clip-rule="evenodd" d="m202.96 248.103 4.683-2.575a1.756 1.756 0 0 1 1.715 0l5.904 3.301c.462.264.429.693-.132.957l-4.65 2.608a2.047 2.047 0 0 1-1.748 0l-5.772-3.301c-.495-.264-.495-.726 0-.99Zm6.352 3.151a.76.76 0 0 0 .591-.001l3.533-1.981-4.704-2.631a.48.48 0 0 0-.462 0l-.011.007-3.57 1.962 4.623 2.644Z" fill="#1C2A60"/><path d="m223.54 253.648-5.772-3.301a1.838 1.838 0 0 0-1.715 0l-4.683 2.607c-.495.264-.495.694 0 .958l5.772 3.3a1.741 1.741 0 0 0 1.715 0l4.683-2.574c.429-.297.462-.726 0-.99Z" fill="#fff"/><path fill-rule="evenodd" clip-rule="evenodd" d="M211.37 252.954c-.495.264-.495.694 0 .958l5.772 3.3a1.741 1.741 0 0 0 1.715 0l4.683-2.574c.429-.297.462-.726 0-.99l-5.772-3.301a1.838 1.838 0 0 0-1.715 0l-4.683 2.607Zm5.287-1.481-3.536 1.968 4.65 2.66a.47.47 0 0 0 .459-.002l.012-.006 3.57-1.963-4.652-2.659a.565.565 0 0 0-.503.002Z" fill="#1C2A60"/><path d="m231.819 258.466-5.772-3.3a1.93 1.93 0 0 0-1.715 0l-4.683 2.607c-.495.264-.495.726 0 .99l5.772 3.301a2.047 2.047 0 0 0 1.748 0l4.65-2.608c.627-.264.627-.726 0-.99Z" fill="#fff"/><path fill-rule="evenodd" clip-rule="evenodd" d="m231.34 259.651-.004-.002.004.002Zm0-1.379-.004.002.004-.002Zm-1.239.683-4.644-2.656a.679.679 0 0 0-.539.003l-3.547 1.974 4.63 2.648a.76.76 0 0 0 .591-.001l3.509-1.968Zm-2.932 3.109a2.047 2.047 0 0 1-1.748 0l-5.772-3.301c-.495-.264-.495-.726 0-.99l4.683-2.607a1.937 1.937 0 0 1 1.715 0l5.772 3.3c.627.264.627.726 0 .99l-4.65 2.608Z" fill="#1C2A60"/><path d="m240.098 263.285-5.772-3.3a1.947 1.947 0 0 0-1.715 0l-4.684 2.607c-.494.264-.494.726 0 .99l5.772 3.301a2.047 2.047 0 0 0 1.748 0l4.651-2.608c.461-.264.461-.693 0-.99Z" fill="#fff"/><path fill-rule="evenodd" clip-rule="evenodd" d="m229.649 263.095 4.631 2.648a.755.755 0 0 0 .59-.001l3.51-1.968-4.644-2.655a.67.67 0 0 0-.54.002l-3.547 1.974Zm2.962-3.11a1.946 1.946 0 0 1 1.715 0l5.772 3.3c.461.297.461.726 0 .99l-4.651 2.608a2.047 2.047 0 0 1-1.748 0l-5.772-3.301c-.494-.264-.494-.726 0-.99l4.684-2.607Z" fill="#1C2A60"/><path d="m258.072 273.781-15.607-9.007a1.947 1.947 0 0 0-1.715 0l-4.684 2.607c-.461.264-.494.693 0 .99l15.608 8.974a1.742 1.742 0 0 0 1.715 0l4.683-2.607c.429-.264.462-.693 0-.957Z" fill="#fff"/><path fill-rule="evenodd" clip-rule="evenodd" d="m256.327 274.248-14.454-8.341a.674.674 0 0 0-.538.003l-3.55 1.976 14.519 8.348a.467.467 0 0 0 .458-.001l.006-.004 3.559-1.981Zm-4.653 3.097-15.608-8.974c-.494-.297-.461-.726 0-.99l4.684-2.607a1.946 1.946 0 0 1 1.715 0l15.607 9.007c.462.264.429.693 0 .957l-4.683 2.607a1.741 1.741 0 0 1-1.715 0Z" fill="#1C2A60"/><path d="m145.343 216.011-15.682-9.112a1.95 1.95 0 0 0-1.715 0l-4.651 2.608c-.495.264-.528.693 0 .99l15.683 9.111a1.945 1.945 0 0 0 1.715 0l4.65-2.607c.429-.264.462-.693 0-.99Z" fill="#fff"/><path fill-rule="evenodd" clip-rule="evenodd" d="m123.295 210.497 15.683 9.111a1.945 1.945 0 0 0 1.715 0l4.65-2.607c.429-.264.462-.693 0-.99l-15.682-9.112a1.95 1.95 0 0 0-1.715 0l-4.651 2.608c-.495.264-.528.693 0 .99Zm5.237-2.462-3.528 1.978 14.567 8.462a.664.664 0 0 0 .535-.002l3.528-1.978-14.566-8.463a.673.673 0 0 0-.536.003Z" fill="#1C2A60"/><path d="m148.83 210.05-11.981-6.954a1.753 1.753 0 0 0-1.715 0l-4.684 2.575c-.461.264-.494.726 0 .99l11.982 6.986a1.946 1.946 0 0 0 1.715 0l4.65-2.607c.528-.264.528-.726.033-.99Z" fill="#fff"/><path fill-rule="evenodd" clip-rule="evenodd" d="m147.104 210.525-10.887-6.319a.468.468 0 0 0-.456.003l-.012.007-3.581 1.968 10.858 6.331a.663.663 0 0 0 .535-.003l3.543-1.987Zm-2.957 3.122a1.945 1.945 0 0 1-1.715 0l-11.982-6.986c-.494-.264-.461-.726 0-.99l4.684-2.575a1.752 1.752 0 0 1 1.715 0l11.981 6.954c.495.264.495.726-.033.99l-4.65 2.607Z" fill="#1C2A60"/><path d="m161.139 225.395-5.771-3.3a2.037 2.037 0 0 0-1.748 0l-4.651 2.607c-.495.264-.495.693 0 .957l5.772 3.301a1.841 1.841 0 0 0 1.715 0l4.65-2.575c.462-.297.495-.66.033-.99Z" fill="#fff"/><path fill-rule="evenodd" clip-rule="evenodd" d="M148.969 224.702c-.495.264-.495.693 0 .957l5.772 3.301a1.841 1.841 0 0 0 1.715 0l4.65-2.575c.462-.297.495-.66.033-.99l-5.771-3.3a2.037 2.037 0 0 0-1.748 0l-4.651 2.607Zm5.227-1.466-3.48 1.951 4.633 2.649a.568.568 0 0 0 .504-.003l3.545-1.962-4.611-2.637a.777.777 0 0 0-.591.002Z" fill="#1C2A60"/><path d="m153.289 220.487-5.772-3.3a2.034 2.034 0 0 0-1.748 0l-4.651 2.607c-.494.264-.494.693 0 .957l5.772 3.301a1.858 1.858 0 0 0 1.715 0l4.651-2.575c.461-.297.494-.66.033-.99Z" fill="#fff"/><path fill-rule="evenodd" clip-rule="evenodd" d="M141.118 219.794c-.494.264-.494.693 0 .957l5.772 3.301a1.858 1.858 0 0 0 1.715 0l4.651-2.575c.461-.297.494-.66.033-.99l-5.772-3.3a2.034 2.034 0 0 0-1.748 0l-4.651 2.607Zm5.228-1.467-3.481 1.952 4.633 2.649a.57.57 0 0 0 .505-.003l3.545-1.962-4.612-2.637a.755.755 0 0 0-.59.001Z" fill="#1C2A60"/><path d="m169.418 230.214-5.772-3.301a2.047 2.047 0 0 0-1.748 0l-4.651 2.608c-.494.264-.494.693 0 .99l5.772 3.3a1.937 1.937 0 0 0 1.715 0l4.684-2.607c.363-.264.363-.726 0-.99Z" fill="#fff"/><path fill-rule="evenodd" clip-rule="evenodd" d="m158.965 230.022 4.644 2.656a.653.653 0 0 0 .54-.003l3.547-1.974-4.631-2.648a.755.755 0 0 0-.59.001l-3.51 1.968Zm2.933-3.109a2.047 2.047 0 0 1 1.748 0l5.772 3.301c.363.264.363.726 0 .99l-4.684 2.607a1.932 1.932 0 0 1-1.715 0l-5.772-3.3c-.494-.297-.494-.726 0-.99l4.651-2.608Z" fill="#1C2A60"/><path d="m177.696 235.033-5.772-3.301a2.047 2.047 0 0 0-1.748 0l-4.65 2.607c-.495.264-.495.727 0 .991l5.772 3.3a1.945 1.945 0 0 0 1.715 0l4.683-2.607c.462-.396.462-.693 0-.99Z" fill="#fff"/><path fill-rule="evenodd" clip-rule="evenodd" d="M165.526 234.339c-.495.264-.495.727 0 .991l5.772 3.3a1.945 1.945 0 0 0 1.715 0l4.683-2.607c.462-.396.462-.693 0-.99l-5.772-3.301a2.047 2.047 0 0 0-1.748 0l-4.65 2.607Zm5.227-1.466-3.509 1.968 4.644 2.655a.662.662 0 0 0 .54-.002l3.546-1.975-4.63-2.648a.778.778 0 0 0-.591.002Zm6.269 3.245.001.001-.001-.001Z" fill="#1C2A60"/><path d="m185.974 239.884-5.771-3.3a1.82 1.82 0 0 0-1.748 0l-4.651 2.574c-.495.297-.495.726 0 .991l5.772 3.3a1.845 1.845 0 0 0 1.715 0l4.683-2.607c.297-.264.462-.694 0-.958Z" fill="#fff"/><path fill-rule="evenodd" clip-rule="evenodd" d="M173.804 239.158c-.495.297-.495.726 0 .991l5.772 3.3a1.845 1.845 0 0 0 1.715 0l4.683-2.607c.297-.264.462-.694 0-.958l-5.771-3.3a1.82 1.82 0 0 0-1.748 0l-4.651 2.574Zm5.267-1.456-.001.001-3.541 1.96 4.655 2.662a.57.57 0 0 0 .504-.002l3.536-1.968-4.644-2.656a.533.533 0 0 0-.509.003Z" fill="#1C2A60"/><path d="m194.253 244.703-5.771-3.3a2.037 2.037 0 0 0-1.748 0l-4.651 2.607c-.495.264-.495.693 0 .957l5.772 3.301a1.946 1.946 0 0 0 1.715 0l4.683-2.608c.462-.132.462-.693 0-.957Z" fill="#fff"/><path fill-rule="evenodd" clip-rule="evenodd" d="m183.83 244.495 4.615 2.639a.664.664 0 0 0 .54-.002l3.518-1.959-4.602-2.631a.758.758 0 0 0-.59.002l-3.481 1.951Zm2.904-3.092a2.03 2.03 0 0 1 1.748 0l5.771 3.3c.462.264.462.825 0 .957l-4.683 2.608a1.945 1.945 0 0 1-1.715 0l-5.772-3.301c-.495-.264-.495-.693 0-.957l4.651-2.607Z" fill="#1C2A60"/><path d="m202.531 249.522-5.772-3.301a2.044 2.044 0 0 0-1.748 0l-4.65 2.608c-.495.264-.495.693 0 .99l5.772 3.3a1.946 1.946 0 0 0 1.715 0l4.683-2.607c.429-.264.462-.726 0-.99Z" fill="#fff"/><path fill-rule="evenodd" clip-rule="evenodd" d="M190.361 248.829c-.495.264-.495.693 0 .99l5.772 3.3a1.946 1.946 0 0 0 1.715 0l4.683-2.607c.429-.264.462-.726 0-.99l-5.772-3.301a2.044 2.044 0 0 0-1.748 0l-4.65 2.608Zm5.227-1.467-3.509 1.968 4.644 2.655a.662.662 0 0 0 .54-.002l3.547-1.974-4.631-2.648a.76.76 0 0 0-.591.001Z" fill="#1C2A60"/><path d="m210.843 254.374-5.772-3.301a1.913 1.913 0 0 0-1.748 0l-4.651 2.608c-.494.264-.527.693 0 .957l5.772 3.3a1.742 1.742 0 0 0 1.715 0l4.651-2.574c.461-.297.494-.726.033-.99Z" fill="#fff"/><path fill-rule="evenodd" clip-rule="evenodd" d="M198.672 253.681c-.494.264-.527.693 0 .957l5.772 3.3a1.742 1.742 0 0 0 1.715 0l4.651-2.574c.461-.297.494-.726.033-.99l-5.772-3.301a1.913 1.913 0 0 0-1.748 0l-4.651 2.608Zm5.25-1.479-3.503 1.964 4.655 2.661a.464.464 0 0 0 .458-.001l.009-.005 3.561-1.971-4.634-2.65a.635.635 0 0 0-.546.002Zm-4.656 2.61.002-.002-.002.002Z" fill="#1C2A60"/><path d="m219.253 259.193-5.805-3.301a1.945 1.945 0 0 0-1.715 0l-4.65 2.608a.53.53 0 0 0-.344.495.53.53 0 0 0 .344.495l5.805 3.3a1.946 1.946 0 0 0 1.715 0l4.65-2.607c.297-.264.33-.726 0-.99Z" fill="#fff"/><path fill-rule="evenodd" clip-rule="evenodd" d="m208.804 258.999 4.673 2.657a.667.667 0 0 0 .539-.001l3.516-1.972-4.673-2.656a.652.652 0 0 0-.539.001l-3.516 1.971Zm2.929-3.107a1.946 1.946 0 0 1 1.715 0l5.805 3.301c.33.264.297.726 0 .99l-4.65 2.607a1.95 1.95 0 0 1-1.715 0l-5.805-3.3a.532.532 0 0 1-.344-.495.53.53 0 0 1 .344-.495l4.65-2.608Z" fill="#1C2A60"/><path d="m227.399 264.011-5.771-3.3a1.914 1.914 0 0 0-1.748 0l-4.651 2.574c-.495.264-.495.726 0 .99l5.772 3.301a1.946 1.946 0 0 0 1.715 0l4.683-2.608c.429-.231.462-.66 0-.957Z" fill="#fff"/><path fill-rule="evenodd" clip-rule="evenodd" d="m216.954 263.79 4.637 2.652a.664.664 0 0 0 .54-.003l3.518-1.958-4.624-2.644a.638.638 0 0 0-.549.003l-3.522 1.95Zm2.926-3.079a1.91 1.91 0 0 1 1.748 0l5.771 3.3c.462.297.429.726 0 .957l-4.683 2.608a1.945 1.945 0 0 1-1.715 0l-5.772-3.301c-.495-.264-.495-.726 0-.99l4.651-2.574Z" fill="#1C2A60"/><path d="m235.744 268.863-5.772-3.3a2.034 2.034 0 0 0-1.748 0l-4.65 2.607c-.495.264-.495.726 0 .99l5.771 3.301a1.95 1.95 0 0 0 1.716 0l4.683-2.608c.363-.297.396-.726 0-.99Z" fill="#fff"/><path fill-rule="evenodd" clip-rule="evenodd" d="m223.574 269.16 5.771 3.301a1.95 1.95 0 0 0 1.716 0l4.683-2.608c.363-.297.396-.726 0-.99l-5.772-3.3a2.034 2.034 0 0 0-1.748 0l-4.65 2.607c-.495.264-.495.726 0 .99Zm5.227-2.457-3.509 1.968 4.644 2.656a.662.662 0 0 0 .539-.002l3.547-1.975-4.631-2.648a.752.752 0 0 0-.59.001Z" fill="#1C2A60"/><path d="m250.948 277.741-12.665-7.36a1.946 1.946 0 0 0-1.715 0l-4.65 2.608c-.495.264-.528.693 0 .99l12.664 7.36a1.95 1.95 0 0 0 1.716 0l4.65-2.608c.429-.198.462-.726 0-.99Z" fill="#fff"/><path fill-rule="evenodd" clip-rule="evenodd" d="m249.239 278.225-3.528 1.978a.663.663 0 0 1-.535.003l-11.549-6.711 3.527-1.978a.67.67 0 0 1 .536-.003l11.549 6.711Zm-10.956-7.844 12.665 7.36c.462.264.429.792 0 .99l-4.65 2.608a1.95 1.95 0 0 1-1.716 0l-12.664-7.36c-.528-.297-.495-.726 0-.99l4.65-2.608a1.945 1.945 0 0 1 1.715 0Z" fill="#1C2A60"/><path d="m135.275 218.172-12.556-7.187a1.95 1.95 0 0 0-1.715 0l-4.651 2.608c-.495.264-.528.693 0 .99l12.556 7.187a2.05 2.05 0 0 0 1.748 0l4.651-2.608c.429-.264.462-.693-.033-.99Z" fill="#fff"/><path fill-rule="evenodd" clip-rule="evenodd" d="m116.353 214.583 12.556 7.187a2.05 2.05 0 0 0 1.748 0l4.651-2.608c.429-.264.462-.693-.033-.99l-12.556-7.187a1.95 1.95 0 0 0-1.715 0l-4.651 2.608c-.495.264-.528.693 0 .99Zm5.237-2.462-3.52 1.973 11.42 6.536a.76.76 0 0 0 .591-.001l3.493-1.959-11.446-6.551a.662.662 0 0 0-.538.002Z" fill="#1C2A60"/><path d="m167.768 237.508-5.771-3.3a1.846 1.846 0 0 0-1.715 0l-4.684 2.574c-.462.297-.495.726 0 .99l5.772 3.301a2.047 2.047 0 0 0 1.748 0l4.65-2.608c.462-.264.462-.693 0-.957Z" fill="#fff"/><path fill-rule="evenodd" clip-rule="evenodd" d="m155.598 237.772 5.772 3.301a2.047 2.047 0 0 0 1.748 0l4.65-2.608c.462-.264.462-.693 0-.957l-5.771-3.3a1.846 1.846 0 0 0-1.715 0l-4.684 2.574c-.462.297-.495.726 0 .99Zm1.729-.483 4.624 2.644a.755.755 0 0 0 .59-.001l3.48-1.951-4.633-2.65a.564.564 0 0 0-.505.004l-3.556 1.954Z" fill="#1C2A60"/><path d="m159.618 232.599-5.771-3.301a1.845 1.845 0 0 0-1.715 0l-4.684 2.574c-.462.297-.495.726 0 .991l5.772 3.3a2.047 2.047 0 0 0 1.748 0l4.65-2.607c.462-.264.462-.693 0-.957Z" fill="#fff"/><path fill-rule="evenodd" clip-rule="evenodd" d="m147.448 232.863 5.772 3.3a2.047 2.047 0 0 0 1.748 0l4.65-2.607c.462-.264.462-.693 0-.957l-5.771-3.301a1.845 1.845 0 0 0-1.715 0l-4.684 2.574c-.462.297-.495.726 0 .991Zm1.729-.483 4.624 2.644a.773.773 0 0 0 .59-.002l3.48-1.951-4.633-2.649a.565.565 0 0 0-.505.003l-3.556 1.955Z" fill="#1C2A60"/><path d="m151.727 227.775-5.772-3.301a1.845 1.845 0 0 0-1.715 0l-4.684 2.575c-.461.297-.494.726 0 .99l5.772 3.3a2.037 2.037 0 0 0 1.748 0l4.651-2.607c.461-.264.461-.693 0-.957Z" fill="#fff"/><path fill-rule="evenodd" clip-rule="evenodd" d="m139.556 228.039 5.772 3.3a2.037 2.037 0 0 0 1.748 0l4.651-2.607c.461-.264.461-.693 0-.957l-5.772-3.301a1.845 1.845 0 0 0-1.715 0l-4.684 2.575c-.461.297-.494.726 0 .99Zm1.729-.483 4.624 2.644a.758.758 0 0 0 .59-.002l3.481-1.951-4.633-2.649a.57.57 0 0 0-.506.003l-3.556 1.955Z" fill="#1C2A60"/><path d="m143.458 222.66-5.771-3.3a1.846 1.846 0 0 0-1.716 0l-4.683 2.574c-.462.297-.495.726 0 .99l5.772 3.301a2.047 2.047 0 0 0 1.748 0l4.65-2.608c.462-.264.462-.693 0-.957Z" fill="#fff"/><path fill-rule="evenodd" clip-rule="evenodd" d="m131.288 222.924 5.772 3.301a2.047 2.047 0 0 0 1.748 0l4.65-2.608c.462-.264.462-.693 0-.957l-5.771-3.3a1.846 1.846 0 0 0-1.716 0l-4.683 2.574c-.462.297-.495.726 0 .99Zm1.729-.483 4.624 2.645a.77.77 0 0 0 .59-.002l3.48-1.951-4.633-2.65a.564.564 0 0 0-.505.004l-3.556 1.954Z" fill="#1C2A60"/><path d="m176.047 242.228-5.772-3.301a1.753 1.753 0 0 0-1.715 0l-4.684 2.608c-.461.264-.494.693 0 .957l5.772 3.3a1.808 1.808 0 0 0 1.748 0l4.651-2.574c.33-.198.33-.627 0-.99Z" fill="#fff"/><path fill-rule="evenodd" clip-rule="evenodd" d="m163.876 242.492 5.772 3.3a1.808 1.808 0 0 0 1.748 0l4.651-2.574c.33-.198.33-.627 0-.99l-5.772-3.301a1.753 1.753 0 0 0-1.715 0l-4.684 2.608c-.461.264-.494.693 0 .957Zm1.751-.47 3.554-1.979.006-.003a.465.465 0 0 1 .459-.001l4.676 2.674-3.541 1.96-.002.001a.534.534 0 0 1-.508.003l-4.644-2.655Z" fill="#1C2A60"/><path d="m184.326 247.146-5.772-3.301a1.946 1.946 0 0 0-1.715 0l-4.684 2.607c-.461.264-.494.727 0 .991l5.772 3.3a2.05 2.05 0 0 0 1.748 0l4.651-2.607c.461-.264.494-.726 0-.99Z" fill="#fff"/><path fill-rule="evenodd" clip-rule="evenodd" d="m182.608 247.635-4.644-2.656a.664.664 0 0 0-.54.002l-3.547 1.975 4.631 2.648a.773.773 0 0 0 .59-.002l3.51-1.967Zm-2.933 3.108a2.044 2.044 0 0 1-1.748 0l-5.772-3.3c-.494-.264-.461-.727 0-.991l4.684-2.607a1.945 1.945 0 0 1 1.715 0l5.772 3.301c.494.264.461.726 0 .99l-4.651 2.607Z" fill="#1C2A60"/><path d="m192.604 252.129-5.772-3.3a1.946 1.946 0 0 0-1.715 0l-4.684 2.607c-.461.264-.494.726 0 .99l5.772 3.301a2.047 2.047 0 0 0 1.748 0l4.651-2.607c.461-.429.494-.991 0-.991Z" fill="#fff"/><path fill-rule="evenodd" clip-rule="evenodd" d="M187.953 255.727a2.047 2.047 0 0 1-1.748 0l-5.772-3.301c-.494-.264-.461-.726 0-.99l4.684-2.607a1.945 1.945 0 0 1 1.715 0l5.772 3.3c.494 0 .461.562 0 .991l-4.651 2.607Zm-1.711-5.764a.67.67 0 0 0-.54.002l-3.547 1.975 4.631 2.648a.773.773 0 0 0 .59-.002l3.51-1.968-4.644-2.655Z" fill="#1C2A60"/><path d="m200.915 256.816-5.771-3.3a2.037 2.037 0 0 0-1.748 0l-4.651 2.607c-.495.264-.495.693 0 .99l5.772 3.301a1.945 1.945 0 0 0 1.715 0l4.683-2.608c.462-.264.462-.726 0-.99Z" fill="#fff"/><path fill-rule="evenodd" clip-rule="evenodd" d="m190.463 256.624 4.644 2.656a.662.662 0 0 0 .54-.002l3.547-1.975-4.631-2.648a.758.758 0 0 0-.591.002l-3.509 1.967Zm2.933-3.108a2.03 2.03 0 0 1 1.748 0l5.771 3.3c.462.264.462.726 0 .99l-4.683 2.608a1.946 1.946 0 0 1-1.715 0l-5.772-3.301c-.495-.297-.495-.726 0-.99l4.651-2.607Z" fill="#1C2A60"/><path d="m209.358 261.635-5.771-3.301a2.05 2.05 0 0 0-1.748 0l-4.651 2.608c-.495.264-.495.726 0 .99l5.772 3.3a1.946 1.946 0 0 0 1.715 0l4.683-2.607c.264-.264.297-.594 0-.99Z" fill="#fff"/><path fill-rule="evenodd" clip-rule="evenodd" d="m198.906 261.443 3.509-1.968a.777.777 0 0 1 .591-.001l4.631 2.648-3.547 1.974a.66.66 0 0 1-.54.002l-4.644-2.655Zm4.054 3.789-5.772-3.3c-.495-.264-.495-.726 0-.99l4.651-2.608a2.044 2.044 0 0 1 1.748 0l5.771 3.301c.297.396.264.726 0 .99l-4.683 2.607a1.947 1.947 0 0 1-1.715 0Z" fill="#1C2A60"/><path d="m217.472 266.487-5.772-3.301a1.91 1.91 0 0 0-1.748 0l-4.65 2.575c-.495.264-.495.726 0 .99l5.772 3.3a2.045 2.045 0 0 0 1.748 0l4.65-2.607c.462-.264.462-.693 0-.957Z" fill="#fff"/><path fill-rule="evenodd" clip-rule="evenodd" d="m207.027 266.266 4.627 2.646a.778.778 0 0 0 .591-.002l3.48-1.951-4.627-2.646a.64.64 0 0 0-.549.003l-3.522 1.95Zm2.925-3.08a1.913 1.913 0 0 1 1.748 0l5.772 3.301c.462.264.462.693 0 .957l-4.65 2.607a2.045 2.045 0 0 1-1.748 0l-5.772-3.3c-.495-.264-.495-.726 0-.99l4.65-2.575Z" fill="#1C2A60"/><path d="m236.681 277.565-5.772-3.301a1.945 1.945 0 0 0-1.715 0l-4.683 2.608c-.462.264-.495.693 0 .99l5.771 3.301a2.05 2.05 0 0 0 1.748 0l4.651-2.608c.462-.264.495-.726 0-.99Z" fill="#fff"/><path fill-rule="evenodd" clip-rule="evenodd" d="m234.963 278.054-4.644-2.656a.662.662 0 0 0-.54.003l-3.547 1.974 4.631 2.648a.76.76 0 0 0 .591-.001l3.509-1.968Zm-2.933 3.109a2.044 2.044 0 0 1-1.748 0l-5.771-3.301c-.495-.297-.462-.726 0-.99l4.683-2.608a1.946 1.946 0 0 1 1.715 0l5.772 3.301c.495.264.462.726 0 .99l-4.651 2.608Z" fill="#1C2A60"/><path d="m131.223 224.138-5.804-3.3a1.845 1.845 0 0 0-1.716 0l-4.65 2.574c-.495.297-.528.727 0 .991l5.805 3.3a1.841 1.841 0 0 0 1.715 0l4.65-2.607c.363-.264.396-.693 0-.958Z" fill="#fff"/><path fill-rule="evenodd" clip-rule="evenodd" d="m119.053 223.412 4.65-2.574a1.845 1.845 0 0 1 1.716 0l5.804 3.3c.396.265.363.694 0 .958l-4.65 2.607a1.845 1.845 0 0 1-1.715 0l-5.805-3.3c-.528-.264-.495-.694 0-.991Zm.646 1.103-.003.002.005-.003-.002.001Zm5.766 2.064-4.684-2.663 3.525-1.952a.576.576 0 0 1 .505-.002l4.662 2.651-3.505 1.965a.566.566 0 0 1-.503.001Z" fill="#1C2A60"/><path d="m122.955 219.438-7.506-4.276a1.846 1.846 0 0 0-1.715 0l-4.651 2.574c-.495.297-.527.726 0 .99l7.506 4.277a1.845 1.845 0 0 0 1.715 0l4.651-2.607c.363-.264.396-.694 0-.958Z" fill="#fff"/><path fill-rule="evenodd" clip-rule="evenodd" d="m109.083 217.736 4.651-2.574a1.84 1.84 0 0 1 1.715 0l7.506 4.276c.396.264.363.694 0 .958l-4.651 2.607a1.838 1.838 0 0 1-1.715 0l-7.506-4.277c-.527-.264-.495-.693 0-.99Zm.646 1.103-.003.002.005-.004-.002.002Zm7.468 3.04-6.387-3.639 3.526-1.952a.566.566 0 0 1 .505-.002l6.365 3.626-3.506 1.966a.57.57 0 0 1-.503.001Z" fill="#1C2A60"/><path d="m139.407 229.035-5.805-3.301a1.946 1.946 0 0 0-1.715 0l-4.65 2.608c-.495.264-.528.693 0 .957l5.804 3.3a1.846 1.846 0 0 0 1.715 0l4.651-2.574c.429-.297.462-.726 0-.99Z" fill="#fff"/><path fill-rule="evenodd" clip-rule="evenodd" d="m128.987 228.825 4.661 2.65a.574.574 0 0 0 .506-.002l3.525-1.952-4.666-2.652a.656.656 0 0 0-.54.001l-3.486 1.955Zm2.9-3.091a1.945 1.945 0 0 1 1.715 0l5.805 3.301c.462.264.429.693 0 .99l-4.651 2.574a1.84 1.84 0 0 1-1.715 0l-5.804-3.3c-.528-.264-.495-.693 0-.957l4.65-2.608Zm-4.057 3.739.003-.002-.003.002Z" fill="#1C2A60"/><path d="m147.755 233.89-5.771-3.301a1.756 1.756 0 0 0-1.716 0l-4.683 2.575c-.462.297-.495.726 0 .99l5.772 3.3a1.91 1.91 0 0 0 1.748 0l4.65-2.607c.528-.264.528-.693 0-.957Z" fill="#fff"/><path fill-rule="evenodd" clip-rule="evenodd" d="m147.195 235.038-.001-.001Zm-1.187-.676-4.654-2.661a.467.467 0 0 0-.459.001l-.011.007-3.57 1.962 4.645 2.657a.64.64 0 0 0 .547-.002l3.502-1.964Zm-2.903 3.092a1.914 1.914 0 0 1-1.748 0l-5.772-3.3c-.495-.264-.462-.693 0-.99l4.683-2.575a1.756 1.756 0 0 1 1.716 0l5.771 3.301c.528.264.528.693 0 .957l-4.65 2.607Z" fill="#1C2A60"/><path d="m196.462 262.394-46.201-26.967a1.945 1.945 0 0 0-1.715 0l-4.683 2.608c-.462.264-.495.693 0 .99l46.201 26.933a1.91 1.91 0 0 0 1.748 0l4.65-2.607c.462-.264.462-.693 0-.957Z" fill="#fff"/><path fill-rule="evenodd" clip-rule="evenodd" d="m194.727 262.86-3.514 1.97a.64.64 0 0 1-.543.003l-45.096-26.289 3.557-1.981a.676.676 0 0 1 .536-.004l45.06 26.301Zm1.735.491-4.65 2.607a1.914 1.914 0 0 1-1.748 0l-46.201-26.933c-.495-.297-.462-.726 0-.99l4.683-2.608a1.946 1.946 0 0 1 1.715 0l46.201 26.967c.462.264.462.693 0 .957Z" fill="#1C2A60"/><path d="m204.741 267.213-5.771-3.301a2.05 2.05 0 0 0-1.748 0l-4.651 2.608c-.495.264-.495.693 0 .957l5.772 3.3a1.805 1.805 0 0 0 1.748 0l4.65-2.574c.429-.264.462-.726 0-.99Z" fill="#fff"/><path fill-rule="evenodd" clip-rule="evenodd" d="m194.318 267.004 4.647 2.658a.54.54 0 0 0 .509-.003l.001-.001 3.542-1.96-4.628-2.647a.777.777 0 0 0-.591.002l-3.48 1.951Zm2.904-3.092a2.044 2.044 0 0 1 1.748 0l5.771 3.301c.462.264.429.726 0 .99l-4.65 2.574a1.805 1.805 0 0 1-1.748 0l-5.772-3.3c-.495-.264-.495-.693 0-.957l4.651-2.608Z" fill="#1C2A60"/><path d="m213.019 271.933-5.771-3.301a1.95 1.95 0 0 0-1.715 0l-4.684 2.608c-.462.264-.495.693 0 .99l5.772 3.3a2.048 2.048 0 0 0 1.748 0l4.65-2.607c.462-.165.462-.627 0-.99Z" fill="#fff"/><path fill-rule="evenodd" clip-rule="evenodd" d="m213.019 271.933-5.771-3.301a1.95 1.95 0 0 0-1.715 0l-4.684 2.608c-.462.264-.495.693 0 .99l5.772 3.3a2.048 2.048 0 0 0 1.748 0l4.65-2.607c.462-.165.462-.627 0-.99Zm-1.717.489-4.644-2.656a.67.67 0 0 0-.54.002l-3.547 1.975 4.631 2.648a.773.773 0 0 0 .59-.002l3.51-1.967Z" fill="#1C2A60"/><path d="m221.41 276.655-5.772-3.301a1.945 1.945 0 0 0-1.715 0l-4.683 2.608c-.495.264-.495.726 0 .99l5.771 3.3a2.037 2.037 0 0 0 1.748 0l4.651-2.607c.462-.264.462-.693 0-.99Z" fill="#fff"/><path fill-rule="evenodd" clip-rule="evenodd" d="m210.961 276.465 4.631 2.648a.776.776 0 0 0 .591-.001l3.509-1.968-4.644-2.656a.662.662 0 0 0-.54.002l-3.547 1.975Zm2.962-3.111a1.946 1.946 0 0 1 1.715 0l5.772 3.301c.462.297.462.726 0 .99l-4.651 2.607a2.03 2.03 0 0 1-1.748 0l-5.771-3.3c-.495-.264-.495-.726 0-.99l4.683-2.608Z" fill="#1C2A60"/><path d="m229.768 281.571-5.772-3.3a1.742 1.742 0 0 0-1.715 0l-4.651 2.574c-.495.297-.527.726 0 .99l5.772 3.301a1.91 1.91 0 0 0 1.748 0l4.65-2.574c.429-.43.246-.832-.032-.991Z" fill="#fff"/><path fill-rule="evenodd" clip-rule="evenodd" d="m222.899 279.388-3.544 1.962 4.65 2.659a.632.632 0 0 0 .548-.003l3.506-1.94-4.693-2.684a.467.467 0 0 0-.458.002l-.009.004Zm1.097-1.117 5.772 3.3c.278.159.461.561.032.991l-4.65 2.574a1.91 1.91 0 0 1-1.748 0l-5.772-3.301c-.527-.264-.495-.693 0-.99l4.651-2.574a1.739 1.739 0 0 1 1.715 0Zm-5.72 3.677a.012.012 0 0 0-.003.002l.005-.003-.002.001Z" fill="#1C2A60"/><path d="m236.849 285.571-4.486-2.608a1.942 1.942 0 0 0-1.715 0l-4.683 2.608c-.462.264-.495.693 0 .957l4.486 2.64a1.84 1.84 0 0 0 1.715 0l4.683-2.574c.429-.297.462-.759 0-1.023Z" fill="#fff"/><path fill-rule="evenodd" clip-rule="evenodd" d="m235.159 286.066-3.595 1.975a.568.568 0 0 1-.5.006l-3.364-1.98 3.534-1.968a.668.668 0 0 1 .536-.003l3.389 1.97Zm-2.796-3.103 4.486 2.608c.462.264.429.726 0 1.023l-4.683 2.574a1.846 1.846 0 0 1-1.715 0l-4.486-2.64c-.495-.264-.462-.693 0-.957l4.683-2.608a1.95 1.95 0 0 1 1.715 0Z" fill="#1C2A60"/><path d="m161.066 188.453.093.056c1.646.986 126.351 75.722 127.341 75.536.996-.187 2.1-.413 2.938-.589a3.344 3.344 0 0 0 2.255-2.063l38.133-102.223a11.19 11.19 0 0 0-4.889-13.602l-124.151-71.69c-1.527-.882-3.291-1.004-4.876-.78-2.054.29-2.913.547-3.565.78-.649.232-36.818 103.033-37.114 103.872l-.015.044a8.951 8.951 0 0 0 3.85 10.659Z" fill="#1C2A60"/><path d="m158.345 189.058 127.711 74.619a3.357 3.357 0 0 0 4.839-1.725l38.464-103.11a10.07 10.07 0 0 0-4.4-12.241L199.988 74.437c-3.629-2.095-8.269-.392-9.68 3.554l-35.876 100.323a8.952 8.952 0 0 0 3.913 10.744Z" fill="#fff"/><path fill-rule="evenodd" clip-rule="evenodd" d="m158.94 188.126 127.761 74.448a2.079 2.079 0 0 0 2.997-1.069l38.464-103.109a8.793 8.793 0 0 0-3.842-10.689L199.349 75.543c-2.938-1.696-6.695-.317-7.838 2.878l-35.926 100.494a7.674 7.674 0 0 0 3.355 9.211Zm127.116 75.551-127.761-74.448a8.953 8.953 0 0 1-3.913-10.744l35.926-100.494c1.411-3.946 6.051-5.649 9.68-3.554l124.971 72.164a10.07 10.07 0 0 1 4.4 12.241l-38.464 103.11a3.357 3.357 0 0 1-4.839 1.725Z" fill="#1C2A60"/><path d="m160.908 180.902 126.095 72.4 36.167-99.349-127.091-72.845-35.171 99.794Z" fill="#fff"/><path fill-rule="evenodd" clip-rule="evenodd" d="m195.732 80.173 128.222 73.493-36.611 100.567-127.214-73.042 35.603-101.018Zm.695 1.87-34.74 98.57 124.975 71.757 35.724-98.131-125.959-72.196Zm-8.865 189.105-48.619-27.569a5.438 5.438 0 0 0-5.408.026l-31.645 18.344a.96.96 0 0 0 .004 1.664l47.367 27.161a5.435 5.435 0 0 0 5.31.056l32.978-18.003a.96.96 0 0 0 .013-1.679Zm.63-1.111-48.619-27.569a6.712 6.712 0 0 0-6.678.032l-31.645 18.343c-1.492.865-1.487 3.021.009 3.878l47.367 27.161a6.716 6.716 0 0 0 6.557.069l32.978-18.003c1.54-.841 1.557-3.046.031-3.911Z" fill="#1C2A60"/><path opacity=".2" d="m123.767 255.713 59.071-30.831 28.888 17.1-57.517 31.219-30.442-17.488Z" fill="#1C2A60"/><path d="M148.336 265.358c-11.647-6.216-20.949-18.648-20.707-27.654l.809-42.079 42.141 22.474-.809 42.079c-.242 9.006-9.787 11.396-21.434 5.18Z" fill="#1C2A60"/><path d="m160.064 223.359 10.515-5.26-5.177 49.65-11 5.42 5.662-49.81Z" fill="#1C2A60"/><path d="M137.739 271.017c-11.647-6.216-20.868-18.569-20.706-27.654l.912-42.503 41.793 22.34-.564 42.079c-.243 9.245-9.625 11.556-21.435 5.738Z" fill="#7030A0"/><path fill-rule="evenodd" clip-rule="evenodd" d="M137.739 271.017c11.81 5.818 21.192 3.507 21.435-5.738l.564-42.079-41.793-22.34-.912 42.503c-.162 9.085 9.059 21.438 20.706 27.654Zm-19.429-27.631v.002c-.073 4.143 2.014 9.226 5.67 14.113 3.632 4.855 8.701 9.365 14.342 12.38 5.759 2.833 10.719 3.576 14.149 2.68 1.694-.443 2.999-1.276 3.9-2.447.902-1.171 1.47-2.77 1.526-4.86l.554-41.294-39.274-20.993-.867 40.419Z" fill="#1C2A60"/><path d="m117.923 200.885 10.596-5.26 42.06 22.474-10.515 5.26-42.141-22.474Z" fill="#7030A0"/><path fill-rule="evenodd" clip-rule="evenodd" d="m117.923 200.885 42.141 22.474 10.515-5.26-42.06-22.474-10.596 5.26Zm1.374.733 39.316 20.967 9.186-4.523-39.301-21-9.201 4.556Z" fill="#1C2A60"/><path d="M159.498 194.828a27.075 27.075 0 0 0-4.288-12.366 27.583 27.583 0 0 0-9.624-8.992 12.322 12.322 0 0 0-5.502-2.019 12.379 12.379 0 0 0-5.822.744 8.75 8.75 0 0 0-3.414 3.351 8.587 8.587 0 0 0-1.116 4.618v22.315c0 .637 1.294 1.355 2.912 1.673 1.618.319 2.912 0 2.912-.557v-21.916c-.103-.83.04-1.671.414-2.421.373-.75.96-1.376 1.689-1.803a6.883 6.883 0 0 1 6.066.956 20.414 20.414 0 0 1 6.923 6.499 20.051 20.051 0 0 1 3.188 8.882v21.916c0 .558 1.294 1.275 2.831 1.594 1.537.319 2.912 0 2.912-.478l-.081-21.996Zm-18.07 57.688c-.445-.125-7.89-4.557-7.89-4.557a1.41 1.41 0 0 1-.599-.66 1.382 1.382 0 0 1-.081-.881l1.904-11.258a8.773 8.773 0 0 1-2.108-5.294 3.503 3.503 0 0 1 .39-1.79 3.576 3.576 0 0 1 1.242-1.36 4.49 4.49 0 0 1 2.275-.353 4.466 4.466 0 0 1 2.146.822 10.737 10.737 0 0 1 3.628 3.498 10.557 10.557 0 0 1 1.609 4.745 3.242 3.242 0 0 1-.424 1.939 3.313 3.313 0 0 1-1.48 1.344l1.7 12.264c.045.284.005.575-.116.837a1.485 1.485 0 0 1-.564.637c-.43.155-1.188.192-1.632.067Z" fill="#1C2A60"/><path d="M144.759 251.545c-.444-.125-7.889-4.557-7.889-4.557a1.417 1.417 0 0 1-.6-.66 1.39 1.39 0 0 1-.081-.881l1.905-11.258a8.78 8.78 0 0 1-2.109-5.294c-.03-.62.104-1.237.39-1.789a3.574 3.574 0 0 1 1.243-1.361 4.47 4.47 0 0 1 4.421.469 10.74 10.74 0 0 1 3.628 3.499 10.549 10.549 0 0 1 1.609 4.744 3.25 3.25 0 0 1-.425 1.939 3.313 3.313 0 0 1-1.48 1.344l1.7 12.264c.046.284.005.575-.116.837a1.485 1.485 0 0 1-.564.637c-.43.155-1.188.192-1.632.067Z" fill="#7030A0"/><path fill-rule="evenodd" clip-rule="evenodd" d="m134.191 246.862-.654 1.097a1.42 1.42 0 0 1-.599-.66 1.39 1.39 0 0 1-.081-.881l1.905-11.258a8.774 8.774 0 0 1-2.109-5.294 3.514 3.514 0 0 1 .39-1.79 3.579 3.579 0 0 1 1.243-1.36 4.488 4.488 0 0 1 2.274-.353 4.462 4.462 0 0 1 2.146.822 10.74 10.74 0 0 1 3.629 3.498 10.543 10.543 0 0 1 1.608 4.745 3.242 3.242 0 0 1-.424 1.939 3.313 3.313 0 0 1-1.48 1.344l1.7 12.264c.045.284.005.575-.116.837a1.485 1.485 0 0 1-.564.637c-.43.155-1.188.192-1.632.067-.445-.125-7.89-4.557-7.89-4.557l.654-1.097.319.19.848.502c.704.417 1.647.974 2.603 1.535a256.26 256.26 0 0 0 2.678 1.552c.377.215.695.393.929.52.113.061.199.106.259.136a2.297 2.297 0 0 0 .632-.012l.004-.008a.175.175 0 0 0 .015-.103l-.002-.012-1.832-13.214.86-.396c.386-.178.703-.468.91-.826.208-.358.297-.768.258-1.176l-.001-.012a9.281 9.281 0 0 0-1.414-4.17 9.467 9.467 0 0 0-3.197-3.082l-.053-.031-.05-.036a3.21 3.21 0 0 0-3.063-.374 2.302 2.302 0 0 0-.717.819 2.235 2.235 0 0 0-.248 1.138v.003a7.502 7.502 0 0 0 1.802 4.524l.39.454-2.011 11.889-.01.041a.103.103 0 0 0 .007.071c.01.023.029.047.059.063l.012.007.013.008Z" fill="#1C2A60"/><path d="m294.497 154.746-.977 7.961-9.178 74.62a2.5 2.5 0 0 1-.534 1c-.251.289-1.654 1.654-1.654 1.654h-.719s-.414-.933-.747-1.121l-5.693-3.235-13.13-7.45-8.922-5.065-24.984-14.133-54.896-31.031a4.64 4.64 0 0 1-2.549-4.64l9.73-79.559.382-3.065c.097-.37.279-.714.532-1.002.252-.289-1.231-.24-.876-.385.355-.145 2.537-.478 2.919-.448.381.03.751.148 1.079.346l21.585 12.174 24.898 14.132 8.966 5.066 12.449 7.066 39.77 22.476a4.762 4.762 0 0 1 2.549 4.639Z" fill="#1C2A60"/><path d="m292.415 155.853-.977 8.131-9.135 74.408a2.514 2.514 0 0 1-1.468 1.688 2.508 2.508 0 0 1-2.229-.156l-5.651-3.235-13.129-7.407-9.008-5.023-11.982-6.768-12.959-7.322-13.384-7.577-41.554-23.497a6.332 6.332 0 0 1-1.063-.809 4.264 4.264 0 0 1-1.444-3.831l5.736-47.165 3.441-27.881.935-7.535a2.513 2.513 0 0 1 2.601-1.873c.386.027.762.144 1.096.34l21.542 12.218 24.941 14.09 8.965 5.108 12.45 7.023 26.768 15.154 13.001 7.322a4.678 4.678 0 0 1 2.507 4.597Z" fill="#FFC000"/><path fill-rule="evenodd" clip-rule="evenodd" d="m294.497 154.746-.977 7.961-10.582 75.692a2.555 2.555 0 0 1-1.472 1.991 3.01 3.01 0 0 1-1.58.471l-.005-.383-.005.383a3.439 3.439 0 0 1-1.53-.384l-.008-.004-5.694-3.107-.005-.003-101.984-57.685a10.715 10.715 0 0 1-1.19-.839l-.01-.008a5.024 5.024 0 0 1-1.657-4.6l10.112-82.58a2.64 2.64 0 0 1 1.53-2.037 3.308 3.308 0 0 1 1.526-.373h.014c.917-.206 1.959-.411 2.178-.394.382.03.751.148 1.08.346l21.584 12.174 24.941 14.132 8.965 5.066 12.45 7.066 39.77 22.476a4.762 4.762 0 0 1 2.549 4.639Zm-3.898 8.761.172.109-9.144 74.671a1.454 1.454 0 0 1-.837 1.031l-.015.006-.014.007a2.03 2.03 0 0 1-1.926.003l-.004-.003-5.643-3.23-101.84-57.633a7.446 7.446 0 0 1-.962-.724 3.872 3.872 0 0 1-1.276-3.288v-.004l5.778-47.158 3.312-27.635 112.399 63.848Z" fill="#1C2A60"/><path d="M183.217 96.538a1.316 1.316 0 0 1-.821 1.226 1.336 1.336 0 0 1-1.818-.963 1.33 1.33 0 0 1 .565-1.362 1.338 1.338 0 0 1 1.683.162c.25.249.391.586.391.937Zm4.033 2.33a1.366 1.366 0 0 1-2.236.827 1.358 1.358 0 0 1-.425-1.402 1.357 1.357 0 0 1 .741-.862 1.37 1.37 0 0 1 1.605.348 1.35 1.35 0 0 1 .315 1.09Zm3.906 2.836a1.362 1.362 0 0 1-1.982.744 1.352 1.352 0 0 1-.325-2.082 1.366 1.366 0 0 1 1.48-.365 1.329 1.329 0 0 1 .903 1.186c.01.175-.016.351-.076.517Zm39.14 47.721 6.119 3.533.255-1.575-6.119-3.533-.255 1.575Zm14.829 8.556 8.328 4.768.212-1.575-8.328-4.81-.212 1.617Zm-7.818-4.554 6.416 3.746.255-1.575-6.459-3.746-.212 1.575Zm-8.03 3.107 7.563 4.384.255-1.575-7.606-4.384-.212 1.575Zm-1.062 7.109 5.353 3.064.213-1.575-5.312-3.064-.254 1.575Zm7.01 4.044 6.458 3.703.213-1.575-6.416-3.703-.255 1.575Z" fill="#fff"/><path d="m221.034 144.104 9.56 5.492.212-1.575-9.56-5.492-.212 1.575Zm-7.818-4.512 6.416 3.746.255-1.575-6.459-3.746-.212 1.575Zm2.336 9.109 14.022 8.003.212-1.575-13.979-8.003-.255 1.575Zm20.31 11.622 13.979 8.045.255-1.575-14.021-8.045-.213 1.575Zm-31.739-10.515 5.353 3.065.213-1.575-5.311-3.065-.255 1.575Zm7.01 4.044 6.416 3.703.255-1.575-6.458-3.703-.213 1.575Zm7.521 4.342 9.857 5.662.255-1.618-9.9-5.619-.212 1.575Zm-25.706-29.031 6.459 3.746.212-1.575-6.416-3.703-.255 1.532Zm-.807 7.152 6.416 3.703.255-1.575-6.458-3.703-.213 1.575Zm-.85 7.406 6.458 3.746.213-1.575-6.458-3.746-.213 1.575Zm-.722 7.194 6.416 3.746.212-1.618-6.416-3.703-.212 1.575Zm-1.062 7.918 6.416 3.703.212-1.575-6.416-3.703-.212 1.575Zm-.893 7.279 6.459 3.746.212-1.575-6.416-3.746-.255 1.575Zm-.807 7.364 6.416 3.746.255-1.575-6.459-3.746-.212 1.575Zm39.302-2.044 11.26 6.513.213-1.575-11.26-6.513-.213 1.575Zm22.392 12.941 11.26 6.513.212-1.575-11.259-6.513-.213 1.575Z" fill="#fff"/><path d="m240.409 179.137 9.815 5.662.212-1.575-9.772-5.662-.255 1.575Zm-14.362-.596 23.157 13.367.212-1.575-23.114-13.367-.255 1.575Z" fill="#fff"/><path d="m248.354 191.44 14.277 8.172.254-1.575-14.318-8.172-.213 1.575Zm-23.326-5.79 23.114 13.366.255-1.575-23.157-13.366-.212 1.575Zm-1.062 7.152 11.302 6.47.212-1.575-11.259-6.47-.255 1.575Zm13.341 7.662 9.815 5.661.212-1.575-9.772-5.661-.255 1.575Zm-20.99-35.161 11.09 6.342.212-1.575-11.089-6.342-.213 1.575Zm-14.361-.596 24.389 14.047.255-1.575-24.431-14.047-.213 1.575Z" fill="#fff"/><path d="m200.893 171.816 24.432 14.047.212-1.575-24.389-14.047-.255 1.575Zm-1.019 7.151 11.259 6.47.255-1.575-11.259-6.47-.255 1.575Zm13.342 7.662 11.047 6.343.255-1.575-11.09-6.343-.212 1.575Zm-14.574-67.086-4.717-4.257v-.809l5.269 1.32v.979l-3.654-1.064 3.314 2.937-.212.894Zm.339.936 2.762-4.257 1.062.596-2.804 4.257-1.02-.596Zm3.442 1.192v-.979l3.654 1.022-3.314-2.895v-.979l4.759 4.257v.808l-5.099-1.234Zm44.359 94.074-4.716-4.256v-.852l5.269 1.32v.979l-3.655-1.022 3.315 2.895-.213.936Zm.34 1.107 2.762-4.257 1.019.596-2.761 4.257-1.02-.596Zm3.442 1.235v-.979l3.654 1.021-3.314-2.937v-.936l4.759 4.256v.852l-5.099-1.277Z" fill="#fff"/></g><defs><clipPath id="a"><rect width="380" height="400" rx="12" fill="#fff"/></clipPath></defs></svg>