<svg width="48" height="48" fill="none" xmlns="http://www.w3.org/2000/svg"><path d="m35.685 25.212-.31 1.085h-3.367l-.841-2.942a9.456 9.456 0 0 1-2.162-.903l-2.655 1.486-2.38-2.388 1.48-2.665a9.5 9.5 0 0 1-.9-2.17l-2.93-.845v-3.378l1.202-.347.76 2.657a13.83 13.83 0 0 1 3.16 1.32l2.348-1.313a4.652 4.652 0 0 0 4.246 4.018L31.94 21.34c.56.987 1.01 2.054 1.316 3.173l2.429.7Z" fill="#1C2A60"/><path d="m24.589 11.513.515 1.8c.552.195 1.09.421 1.611.673l2.64-1.477a4.645 4.645 0 0 1 4.336-2.989c2.564 0 4.643 2.087 4.643 4.66a4.662 4.662 0 0 1-2.599 4.186l-1.667 3c.252.524.477 1.064.672 1.619l1.461.42.015-.05a9.423 9.423 0 0 0 2.161-.903l2.655 1.486 2.38-2.388-1.48-2.665a9.55 9.55 0 0 0 .9-2.17l2.93-.845v-3.378l-2.93-.845a9.5 9.5 0 0 0-.9-2.17l1.48-2.664-2.38-2.389-2.655 1.486a9.455 9.455 0 0 0-2.161-.903l-.842-2.942h-3.366l-.841 2.942a9.39 9.39 0 0 0-2.162.903L26.35 4.424l-2.38 2.389 1.48 2.664a9.55 9.55 0 0 0-.861 2.036Z" fill="#1C2A60"/><path d="m22.351 45.935 1.23-4.302a13.782 13.782 0 0 0 3.162-1.32l3.882 2.172 3.48-3.492-2.165-3.897a13.945 13.945 0 0 0 1.316-3.173l4.286-1.235v-4.94l-4.286-1.236a13.89 13.89 0 0 0-1.316-3.173l2.165-3.897-3.48-3.492-3.882 2.172a13.827 13.827 0 0 0-3.161-1.32l-1.23-4.302h-4.923l-1.23 4.302a13.785 13.785 0 0 0-3.162 1.32L9.155 13.95l-3.48 3.492L7.84 21.34a13.936 13.936 0 0 0-1.316 3.173l-4.286 1.235v4.94l4.286 1.236a13.887 13.887 0 0 0 1.316 3.173l-2.164 3.897 3.479 3.492 3.882-2.172a13.83 13.83 0 0 0 3.162 1.32l1.23 4.302h4.922Zm-2.46-10.904c-3.75 0-6.79-3.051-6.79-6.814 0-3.764 3.04-6.815 6.79-6.815s6.789 3.051 6.789 6.814c0 3.764-3.04 6.815-6.79 6.815Z" fill="#1C2A60"/></svg>