<svg width="42" height="42" fill="none" xmlns="http://www.w3.org/2000/svg"><path d="M41.015 3.425C41.015 2.676 36.56.92 27.92.92S14.824 2.675 14.824 3.424c0 .748 4.455 2.503 13.096 2.503s13.096-1.755 13.096-2.503ZM14.822 6.441c1.26.02 2.72.087 4.214.22-1.673-.316-3.173-.748-4.214-1.33v1.11Zm12.356 3.986c0-.748-4.454-2.503-13.096-2.503-8.64 0-13.097 1.755-13.096 2.503 0 .752 4.455 2.515 13.096 2.515s13.096-1.763 13.096-2.515Z" fill="#1C2A60"/><path d="M14.08 14.43c-3.82 0-10.218-.481-13.095-2.091v7.475c0 .748 4.455 2.503 13.096 2.503s13.096-1.755 13.096-2.503v-7.475c-2.876 1.61-9.275 2.092-13.096 2.092Z" fill="#1C2A60"/><path d="M14.08 23.805c-3.82 0-10.218-.48-13.095-2.085v7.47c0 .749 4.455 2.503 13.096 2.503s13.096-1.754 13.096-2.503v-7.47c-2.876 1.606-9.275 2.085-13.096 2.085Z" fill="#1C2A60"/><path d="M.986 38.565c0 .753 4.455 2.516 13.095 2.516 8.642 0 13.097-1.763 13.097-2.516v-7.47c-2.877 1.607-9.275 2.087-13.097 2.087-3.82 0-10.219-.48-13.096-2.087v7.47Zm27.675-12.391v7.898c8.154-.096 12.355-1.779 12.355-2.51v-7.47c-2.698 1.507-8.493 2.023-12.355 2.082Zm0-9.377v7.89c8.154-.098 12.355-1.773 12.355-2.5v-7.475c-2.698 1.51-8.493 2.027-12.355 2.085Zm0-1.487v-4.882c0-1.63-2.543-2.64-5.696-3.236 1.798.16 3.552.227 4.955.227 3.82 0 10.22-.481 13.096-2.088v7.47c0 .73-4.201 2.413-12.355 2.51Z" fill="#1C2A60"/></svg>