<svg width="303" height="160" fill="none" xmlns="http://www.w3.org/2000/svg"><g clip-path="url(#a)"><rect width="303" height="160" rx="12" fill="#DE1E59"/><path d="M73.272 67.068h1.849v.272l8.894-4.83a3.043 3.043 0 0 1 2.704.12l19.641 10.917v-.221h1.891c0 .37.032 1.07-.226 1.215-.258.145-10.848 6.029-10.848 6.029a2.806 2.806 0 0 1-2.517-.102s-20.81-11.975-21.147-12.26c-.336-.286-.24-.766-.24-1.14Z" fill="#1C2A60"/><path d="M73.727 66.965a.173.173 0 0 0 0 .29L94.66 79.26a2.754 2.754 0 0 0 2.517.102l10.628-5.884a.173.173 0 0 0 .068-.136.168.168 0 0 0-.068-.136l-21.07-11.717a2.992 2.992 0 0 0-2.703-.102l-10.305 5.578Z" fill="#fff" stroke="#1C2A60"/><path d="M96.647 40.505c-4.71-2.67-9.778 0-9.744 5l13.961 27.326.596-.332-.221-24.665a8.866 8.866 0 0 0-4.592-7.33Z" fill="#1C2A60"/><path d="M95.732 41.032c-4.71-2.67-9.778 0-9.727 5l.153 18.025 14.335 8.129-.221-23.808a8.805 8.805 0 0 0-4.54-7.346Z" fill="#fff" stroke="#1C2A60"/><path d="m128.278 28.414-5.459 44.469a3.031 3.031 0 0 1-.939 2.133 3.05 3.05 0 0 1-2.172.843 4.928 4.928 0 0 1-.953-.102l-17.413-10.493-.953-.578-5.34-3.163-8.995-5.407-23.807-14.319a1.582 1.582 0 0 1-.868-1.581l4.558-44.112c.06-.437.27-.84.595-1.14a3.4 3.4 0 0 1 3.64-.56L81.377.745l7.414 4.2.204.12.204.119 3.69 2.091.748.426.221.119 22.413 12.686 11.139 6.326a1.584 1.584 0 0 1 .867 1.581Z" fill="#1C2A60"/><path d="m127.191 29.18-5.544 45.03a2.243 2.243 0 0 1-3.401 1.36l-10.611-6.14s-44.483-25.294-45.54-26.12c-1.058-.825-1.836-2.01-1.751-3.192l5.474-43.98a2.245 2.245 0 0 1 3.402-1.36l57.12 32.786a1.702 1.702 0 0 1 .851 1.615Z" fill="#fff" stroke="#1C2A60"/><path d="m124.64 30.642-5.102 41.204a1.227 1.227 0 0 1-.721.833 1.224 1.224 0 0 1-1.098-.085l-2.857-1.598-6.564-3.724-4.49-2.517-7.499-4.234-4.965-2.823-7.364-4.15-20.113-11.61c-.809-.52-1.384-1.36-1.293-2.313L67.69-1.328a1.241 1.241 0 0 1 1.837-.765l3.4 1.939 7.5 4.2 4.983 2.806 7.482 4.234 4.49 2.534 6.223 3.52 19.88 11.224a2.346 2.346 0 0 1 1.156 2.278Z" fill="#0196F0" stroke="#1C2A60"/><path d="M104.23 119.939c10.703-6.059 28.063-6.059 38.79 0 5.222 2.949 7.903 6.912 8.021 10.69v6.613c0 3.87-2.799 7.718-8.021 10.667-10.727 6.059-28.087 6.059-38.79 0-5.222-2.949-7.903-6.797-8.021-10.667v-6.613c.118-3.87 2.8-7.741 8.021-10.69Z" fill="#fff" stroke="#1C2A60"/><path d="M104.235 119.94c-10.701 6.059-10.701 15.874 0 21.933 10.702 6.06 28.06 6.06 38.786 0 10.725-6.059 10.701-15.874 0-21.933-10.702-6.06-28.084-6.129-38.786 0Z" fill="#fff" stroke="#1C2A60"/><path d="M148.353 130.837c0 3.453-2.637 6.696-7.161 9.106-4.503 2.397-10.757 3.895-17.694 3.895-6.936 0-13.191-1.498-17.693-3.895-4.525-2.41-7.162-5.653-7.162-9.106 0-3.453 2.637-6.696 7.162-9.105 4.502-2.398 10.757-3.896 17.693-3.896 6.937 0 13.191 1.498 17.694 3.896 4.524 2.409 7.161 5.652 7.161 9.105Z" fill="#1C2A60" fill-opacity=".2" stroke="#1C2A60"/><path d="M123.5 121.872c4.887 0 9.712 1.065 14.126 3.118 3.869 2.064 5.66 4.687 5.66 7.187s-1.791 5.128-5.661 7.202a33.5 33.5 0 0 1-14.125 3.119 33.504 33.504 0 0 1-14.126-3.119c-3.869-2.074-5.661-4.702-5.661-7.202s1.791-5.123 5.661-7.187a33.503 33.503 0 0 1 14.126-3.118Z" fill="#0196F0" stroke="#1C2A60"/><path d="m150.542 94.298 3.883-2.32-9.086-4.336-3.882 2.168a48.383 48.383 0 0 0-13.551-2.434v-3.27h-11.649v3.27a52.75 52.75 0 0 0-13.201 3.347l-4.582-2.548-8.542 4.754 4.97 2.358a14.036 14.036 0 0 0-3.697 4.286c-.439.788-.8 1.619-1.079 2.484h-4.97v6.162h5.32a12.707 12.707 0 0 0 5.241 6.579l-3.417 2.473 9.086 4.297 3.611-2.129a44.07 44.07 0 0 0 13.551 2.548v2.814h11.648v-3.08a54.863 54.863 0 0 0 13.202-3.195l3.883 1.977 8.542-4.754-.495-.194-3.97-1.555a13.97 13.97 0 0 0 5.086-7.075h5.32v-6.199h-5.553a10.448 10.448 0 0 0-2.144-3.798 10.73 10.73 0 0 0-3.525-2.63Zm-15.764 15.518a35.63 35.63 0 0 1-22.481 0c-1.472-.649-2.96-1.289-4.158-2.381-2.904-2.647-1.777-5.909 3.381-8.078a35.155 35.155 0 0 1 23.996 0c5.158 2.169 6.286 5.431 3.381 8.078-1.083.987-2.738 1.811-4.119 2.381Z" fill="#fff"/><path d="m89.932 98.969 1.273.604a14.036 14.036 0 0 1 3.697-4.286l-4.97-2.358v6.04Zm64.493-6.991-3.883 2.32a10.73 10.73 0 0 1 3.883 3.057v-5.377Zm-46.286 15.457c.812-.74 1.939-1.432 3.381-2.039a35.159 35.159 0 0 1 23.996 0c1.442.607 2.569 1.299 3.381 2.039 2.905-2.647 1.777-5.909-3.381-8.078a35.155 35.155 0 0 0-23.996 0c-5.158 2.169-6.285 5.431-3.381 8.078Zm-22.983.784v6.039h5.32v-6.039h-5.32Z" fill="#fff"/><path d="M95.717 114.798a12.707 12.707 0 0 1-5.242-6.579v6.039a12.561 12.561 0 0 0 1.825 3.432v-.419l3.417-2.473Zm60.727-1.833h5.32v-6.04h-5.32v6.04Zm0-6.04a13.97 13.97 0 0 1-5.086 7.075l3.97 1.555c.458-.82.833-1.687 1.116-2.59v-6.04Zm-9.163 19.618 8.542-4.754v-6.04l-8.542 4.754v6.04Zm-3.883-1.977 3.883 1.977v-6.04l-3.883-1.977v6.04Zm-13.202 3.194a54.814 54.814 0 0 0 13.202-3.194v-6.04a54.863 54.863 0 0 1-13.202 3.195v6.039Zm-11.648.267v2.814h11.648v-6.04h-11.648v3.226Zm-13.551-2.549a44.042 44.042 0 0 0 13.551 2.549v-6.04a44.07 44.07 0 0 1-13.551-2.548v6.039Zm-3.611 2.13 3.611-2.13v-6.039l-3.611 2.129v6.04Z" fill="#fff"/><path d="m92.3 123.31 9.086 4.298v-6.04l-9.086-4.297v6.039Z" fill="#fff"/><path d="M85.156 108.097v6.161m0 0h5.32m-5.32 0v-6.039m5.32 6.039a12.561 12.561 0 0 0 1.824 3.432m-1.825-3.432v-6.039m10.911 19.389L92.3 123.31v-5.62m9.086 9.918 3.611-2.13m-3.611 2.13v-6.04m3.611 3.91a44.042 44.042 0 0 0 13.551 2.549m-13.551-2.549v-6.039m13.551 8.588v2.814h11.648v-3.081m-11.648.267v-3.226m11.648 2.959a54.814 54.814 0 0 0 13.202-3.194m-13.202 3.194v-2.959m13.202-.235 3.883 1.977m-3.883-1.977v-6.04m3.883 8.017 8.542-4.754v-6.04m-8.542 10.794v-6.04m9.163-7.538h5.32m-5.32 0c-.283.903-.658 1.77-1.116 2.59m1.116-2.59v-6.04m5.32 6.04v-6.199m0 6.199v-6.04m-7.339-14.947-3.883 2.32a10.73 10.73 0 0 1 3.883 3.057m0-5.377-9.086-4.336-3.882 2.168a48.383 48.383 0 0 0-13.551-2.434v-3.27h-11.649v3.27a52.75 52.75 0 0 0-13.201 3.347l-4.582-2.548-8.542 4.754m64.493-.95v5.376M89.932 92.93l4.97 2.358a14.036 14.036 0 0 0-3.697 4.286m-1.273-6.644v6.04l1.273.604m-6.049 8.646v-6.162h4.97c.278-.865.64-1.696 1.08-2.484m-6.05 8.646h5.32m0 0a12.707 12.707 0 0 0 5.241 6.579l-3.417 2.473m0 0 9.086 4.297m-9.086-4.297v.419m9.086 3.878 3.611-2.129m0 0a44.07 44.07 0 0 0 13.551 2.548v2.814m0 0h11.648m0 0v-3.08a54.863 54.863 0 0 0 13.202-3.195m0 0 3.883 1.977m0 0 8.542-4.754m0 0-.495-.194m1.116-8.63a13.97 13.97 0 0 1-5.086 7.075l3.97 1.555m1.116-8.63h5.32m0 0v-6.199h-5.553a10.448 10.448 0 0 0-1.786-3.37m-46.286 10.079c.812-.74 1.939-1.432 3.381-2.039a35.159 35.159 0 0 1 23.996 0c1.442.607 2.569 1.299 3.381 2.039m-30.758 0c-2.904-2.647-1.777-5.909 3.381-8.078a35.155 35.155 0 0 1 23.996 0c5.158 2.169 6.286 5.431 3.381 8.078m-30.758 0c1.198 1.092 2.686 1.732 4.158 2.381a35.63 35.63 0 0 0 22.481 0c1.381-.57 3.036-1.394 4.119-2.381" stroke="#1C2A60"/><path d="M186.983 67.068h1.849v.272l8.894-4.83a3.044 3.044 0 0 1 2.704.12l19.641 10.917v-.221h1.891c0 .37.032 1.07-.226 1.215-.258.145-10.848 6.029-10.848 6.029a2.803 2.803 0 0 1-2.517-.102s-20.81-11.975-21.147-12.26c-.336-.286-.241-.766-.241-1.14Z" fill="#1C2A60"/><path d="M187.438 66.965a.173.173 0 0 0 0 .29l20.933 12.005a2.756 2.756 0 0 0 2.517.102l10.628-5.884a.167.167 0 0 0 .05-.212.154.154 0 0 0-.05-.06l-21.069-11.717a2.992 2.992 0 0 0-2.704-.102l-10.305 5.578Z" fill="#fff" stroke="#1C2A60"/><path d="M210.358 40.505c-4.71-2.67-9.778 0-9.744 5l13.961 27.326.596-.332-.221-24.665a8.855 8.855 0 0 0-4.592-7.33Z" fill="#1C2A60"/><path d="M209.443 41.032c-4.71-2.67-9.778 0-9.727 5l.153 18.025 14.335 8.129-.221-23.808a8.807 8.807 0 0 0-4.54-7.346Z" fill="#fff" stroke="#1C2A60"/><path d="m241.989 28.414-5.458 44.469a3.05 3.05 0 0 1-1.942 2.77 3.045 3.045 0 0 1-1.17.206 4.928 4.928 0 0 1-.953-.102l-17.413-10.493-.952-.578-5.34-3.163-8.996-5.407-23.807-14.319a1.578 1.578 0 0 1-.867-1.581l4.557-44.112c.06-.437.271-.84.595-1.14a3.403 3.403 0 0 1 3.639-.56L195.089.745l7.414 4.2.204.12.204.119 3.69 2.091.749.426.221.119 22.413 12.686 11.138 6.326a1.578 1.578 0 0 1 .867 1.581Z" fill="#1C2A60"/><path d="m240.902 29.18-5.544 45.03a2.243 2.243 0 0 1-3.401 1.36l-10.611-6.14s-44.483-25.294-45.54-26.12c-1.058-.825-1.836-2.01-1.751-3.192l5.475-43.98a2.243 2.243 0 0 1 3.401-1.36l57.121 32.786a1.706 1.706 0 0 1 .85 1.615Z" fill="#fff" stroke="#1C2A60"/><path d="m238.351 30.642-5.101 41.204a1.23 1.23 0 0 1-.722.833 1.224 1.224 0 0 1-1.098-.085l-2.857-1.598-6.564-3.724-4.489-2.517-7.5-4.234-4.965-2.823-7.364-4.15-20.113-11.61c-.809-.52-1.384-1.36-1.293-2.313L181.4-1.328a1.254 1.254 0 0 1 .727-.843 1.239 1.239 0 0 1 1.11.078l3.401 1.939 7.499 4.2 4.983 2.806 7.482 4.234 4.49 2.534 6.224 3.52 19.879 11.224a2.346 2.346 0 0 1 1.156 2.278Z" fill="#0196F0" stroke="#1C2A60"/><path d="m205.418 26.634.007.004.006.004 14.045 8.138h.001a3.929 3.929 0 0 1 1.443 1.447 4.05 4.05 0 0 1 .538 1.996l.116 14.688c.007.868-.329 1.42-.745 1.676-.412.254-1.019.29-1.716-.114L195.09 40.562a3.666 3.666 0 0 1-1.244-1.299 3.76 3.76 0 0 1-.49-1.753l-.147-18.743c-.007-.869.33-1.42.746-1.676.412-.254 1.018-.29 1.716.114l6.524 3.778h.001c.302.175.555.428.732.736.178.307.273.658.277 1.016v.007c.018.785.23 1.552.617 2.232.386.68.935 1.252 1.596 1.66Z" fill="#fff" stroke="#1C2A60"/><path d="m201.963 28.36.006.005.006.003 14.046 8.139h.001a3.943 3.943 0 0 1 1.443 1.447 4.05 4.05 0 0 1 .538 1.995v.001l.116 14.687c.007.869-.33 1.42-.746 1.677-.412.253-1.018.29-1.716-.114l-24.022-13.912a3.665 3.665 0 0 1-1.244-1.298 3.762 3.762 0 0 1-.491-1.753l-.146-18.743c-.007-.87.329-1.42.745-1.677.412-.253 1.019-.29 1.716.114l6.525 3.778c.302.175.555.428.733.736.177.308.273.658.276 1.016v.008c.019.784.231 1.552.618 2.232a4.65 4.65 0 0 0 1.596 1.66Z" fill="#fff" stroke="#1C2A60"/><path d="M186.466 152.576h1.849v.272l8.893-4.83a3.042 3.042 0 0 1 2.704.119l19.641 10.918v-.221h1.891c0 .37.032 1.07-.226 1.215-.258.145-10.848 6.029-10.848 6.029a2.803 2.803 0 0 1-2.516-.102s-20.811-11.975-21.147-12.261c-.336-.285-.241-.765-.241-1.139Z" fill="#1C2A60"/><path d="M186.92 152.473c-.105.065-.102.226 0 .289l20.934 12.006a2.755 2.755 0 0 0 2.517.102l10.628-5.884a.171.171 0 0 0 .05-.212.171.171 0 0 0-.05-.06l-21.07-11.717a2.998 2.998 0 0 0-2.704-.102l-10.305 5.578Z" fill="#fff" stroke="#1C2A60"/><path d="M209.841 126.013c-4.711-2.67-9.778 0-9.744 4.999l13.96 27.327.596-.332-.221-24.665a8.865 8.865 0 0 0-4.591-7.329Z" fill="#1C2A60"/><path d="M208.925 126.54c-4.71-2.67-9.778 0-9.727 5l.153 18.025 14.336 8.129-.221-23.808a8.813 8.813 0 0 0-4.541-7.346Z" fill="#fff" stroke="#1C2A60"/><path d="m241.472 113.922-5.459 44.469a3.05 3.05 0 0 1-.939 2.133 3.056 3.056 0 0 1-2.173.843 4.91 4.91 0 0 1-.952-.102l-17.414-10.492-.952-.578-5.34-3.163-8.995-5.408-23.808-14.319a1.577 1.577 0 0 1-.867-1.581l4.557-44.112a1.91 1.91 0 0 1 .596-1.14 3.395 3.395 0 0 1 3.639-.56l11.206 6.343 7.414 4.2.205.119.204.119 3.69 2.092.748.425.221.119 22.413 12.686 11.139 6.326a1.583 1.583 0 0 1 .867 1.581Z" fill="#1C2A60"/><path d="m240.384 114.687-5.544 45.03a2.24 2.24 0 0 1-2.399 1.71 2.25 2.25 0 0 1-1.002-.349l-10.611-6.139s-44.482-25.295-45.54-26.12c-1.058-.825-1.835-2.01-1.751-3.193l5.475-43.98a2.244 2.244 0 0 1 3.401-1.36l57.121 32.786a1.697 1.697 0 0 1 .85 1.615Z" fill="#fff" stroke="#1C2A60"/><path d="m237.834 116.151-5.102 41.203a1.223 1.223 0 0 1-1.82.749l-2.856-1.599-6.565-3.724-4.489-2.517-7.499-4.234-4.966-2.823-7.363-4.149-20.114-11.611c-.808-.52-1.383-1.359-1.292-2.313l5.115-40.952a1.24 1.24 0 0 1 1.836-.766l3.401 1.94 7.5 4.2 4.982 2.805 7.483 4.234 4.489 2.534 6.224 3.52 19.879 11.224a2.354 2.354 0 0 1 1.157 2.279Z" fill="#0196F0" stroke="#1C2A60"/><path d="m204.901 112.143.006.003.006.004 14.046 8.138.001.001a3.935 3.935 0 0 1 1.443 1.447c.348.604.534 1.293.538 1.995v.001l.116 14.687c.006.869-.33 1.42-.746 1.676-.412.254-1.019.29-1.716-.114l-24.023-13.911a3.676 3.676 0 0 1-1.244-1.298 3.777 3.777 0 0 1-.49-1.754l-.146-18.742v-.001c-.007-.868.329-1.42.745-1.676.412-.254 1.019-.29 1.716.114l6.525 3.778c.302.175.555.428.733.736.177.307.273.658.276 1.016v.007c.019.785.231 1.552.617 2.232a4.657 4.657 0 0 0 1.597 1.661Z" fill="#fff" stroke="#1C2A60"/><path d="m201.446 113.869.006.004.006.003 14.045 8.139h.001a3.935 3.935 0 0 1 1.443 1.447 4.04 4.04 0 0 1 .539 1.995v.001l.115 14.687c.007.869-.329 1.421-.745 1.677-.412.253-1.019.289-1.716-.114l-24.023-13.912a3.668 3.668 0 0 1-1.244-1.298 3.761 3.761 0 0 1-.49-1.753l-.147-18.743c-.007-.869.33-1.421.746-1.677.412-.253 1.019-.289 1.716.114l6.525 3.778c.302.175.555.429.732.736.178.308.273.658.277 1.016v.008c.019.784.231 1.552.617 2.232.386.68.935 1.251 1.597 1.66ZM93 28.496l.005.004.007.003 14.045 8.138.001.001a3.929 3.929 0 0 1 1.443 1.447c.348.604.534 1.293.538 1.995v.001l.116 14.687c.007.869-.329 1.42-.746 1.677-.411.253-1.018.29-1.716-.114L82.671 42.422a3.667 3.667 0 0 1-1.244-1.298 3.763 3.763 0 0 1-.49-1.753l-.147-18.743c-.007-.87.33-1.42.745-1.677.412-.254 1.02-.29 1.716.114l6.525 3.778c.303.175.556.428.733.736.178.308.273.658.276 1.016v.007a4.75 4.75 0 0 0 .618 2.233 4.65 4.65 0 0 0 1.596 1.66Z" fill="#fff" stroke="#1C2A60"/><path d="m89.544 30.222.006.004.006.004 14.046 8.138h.001a3.945 3.945 0 0 1 1.443 1.447 4.05 4.05 0 0 1 .538 1.995v.002l.116 14.686c.006.87-.33 1.42-.746 1.677-.412.254-1.019.29-1.716-.114L79.215 44.149a3.668 3.668 0 0 1-1.244-1.298 3.765 3.765 0 0 1-.49-1.753l-.146-18.743c-.007-.869.33-1.42.745-1.677.412-.253 1.019-.29 1.716.114l6.525 3.778c.302.175.555.429.733.736.177.308.273.658.276 1.017v.007c.019.784.23 1.552.617 2.232a4.65 4.65 0 0 0 1.597 1.66Z" fill="#fff" stroke="#1C2A60"/></g><defs><clipPath id="a"><rect width="303" height="160" rx="12" fill="#fff"/></clipPath></defs></svg>