<svg width="303" height="160" fill="none" xmlns="http://www.w3.org/2000/svg"><g clip-path="url(#a)"><rect width="303" height="160" rx="12" fill="#7030A0"/><path d="M229.979 126.491a2.847 2.847 0 0 1-.523 1.429 2.883 2.883 0 0 1-1.19.962l-58.993 33.564a9.195 9.195 0 0 1-4.122.974 9.191 9.191 0 0 1-4.122-.974l-86.078-49.25a2.869 2.869 0 0 1-1.167-.94 2.827 2.827 0 0 1-.527-1.395v2.975c.053.502.237.981.534 1.39.297.41.697.735 1.16.945l86.078 49.251a9.14 9.14 0 0 0 8.244 0l58.993-33.564a2.894 2.894 0 0 0 1.733-2.392l-.02-2.975Z" fill="#1C2A60"/><path d="M169.274 162.465a9.177 9.177 0 0 1-4.131.981 9.178 9.178 0 0 1-4.132-.981l-85.683-48.963a2.534 2.534 0 0 1-1.227-.915 2.484 2.484 0 0 1 0-2.897 2.534 2.534 0 0 1 1.227-.915l58.683-33.502a9.204 9.204 0 0 1 8.245 0l85.682 49.033c.463.278.921.523 1.221.949a2.48 2.48 0 0 1-.024 2.897c-.307.421-.712.675-1.215.969l-58.646 33.344Z" fill="#fff" stroke="#1C2A60"/><path d="M199.734 140.626a5.956 5.956 0 0 0-5.021 0c-1.385.737-1.385 1.933 0 2.674a5.952 5.952 0 0 0 5.021 0c1.385-.741 1.385-1.937 0-2.674Z" stroke="#1C2A60"/><path d="m76.839 112.128 82.285 47.194 63.242-36.028L140.081 76.1l-63.242 36.028Z" fill="#7030A0" stroke="#1C2A60"/><mask id="b" style="mask-type:alpha" maskUnits="userSpaceOnUse" x="75" y="75" width="149" height="85"><path d="m76.839 112.128 82.285 47.194 63.242-36.028L140.081 76.1l-63.242 36.028Z" fill="#FFA6A0" stroke="#1C2A60"/></mask><g mask="url(#b)"><path d="M182.852 125.746c-.294.183-.4-.313-.73-.421a6.887 6.887 0 0 0-2.572-.968c-2.581-.456-6.552.084-7.431 2.678a11.772 11.772 0 0 0-7.172 1.681c-2.285 1.513-2.86 4.17-.061 6.116a4.522 4.522 0 0 0-2.374 2.256c-1.37 4.124 7.446 6.704 12.565 3.223 3.224-1.847 15.041-8.646 17.182-9.912a2.638 2.638 0 0 0 1.155-1.125c2.043-3.93-6.341-6.305-10.562-3.528Zm-27.28-14.734c-.294.182-.4-.314-.73-.422a6.904 6.904 0 0 0-2.572-.968c-2.581-.456-6.551.084-7.431 2.678a11.788 11.788 0 0 0-7.172 1.681c-2.284 1.514-2.86 4.171-.06 6.117a4.515 4.515 0 0 0-2.374 2.256c-1.37 4.124 7.446 6.704 12.564 3.223 3.224-1.848 15.041-8.647 17.183-9.913a2.628 2.628 0 0 0 1.154-1.124c2.043-3.931-6.34-6.306-10.562-3.528Zm-26.05-15.152c-.294.183-.4-.312-.73-.42a6.892 6.892 0 0 0-2.572-.968c-2.581-.457-6.552.083-7.431 2.678a11.78 11.78 0 0 0-7.172 1.68c-2.285 1.514-2.861 4.171-.061 6.117a4.519 4.519 0 0 0-2.374 2.256c-1.37 4.124 7.446 6.704 12.564 3.223 3.225-1.848 15.042-8.647 17.183-9.913a2.63 2.63 0 0 0 1.155-1.124c2.043-3.93-6.341-6.306-10.562-3.528Z" fill="#fff" stroke="#1C2A60"/><path opacity=".1" d="M144.848 120.499c-2.707-9.992.652-15.7 26.305-26.303l27.252 11.373c-21.499 12.312-33.214 15.465-53.557 14.93Z" fill="#000"/></g><path d="m111.126 89.858-7.617 4.388c-.228.132-.266.34 0 .452a.927.927 0 0 0 .8 0l7.616-4.388c.229-.132.267-.339 0-.452a.862.862 0 0 0-.799 0Z" fill="#1C2A60"/><path d="M127.27 19.882 82.98-4.575a1.37 1.37 0 0 0-1.315.029 1.34 1.34 0 0 0-.66 1.133v37.69a1.375 1.375 0 0 0 .691 1.18l44.27 24.418a1.345 1.345 0 0 0 1.976-1.181v-37.65a1.34 1.34 0 0 0-.672-1.162Z" fill="#FFC000"/><path d="M129.184 19.09 84.894-5.366a1.348 1.348 0 0 0-1.315.028l-1.58.654a1.37 1.37 0 0 1 .982.11l44.289 24.456a1.34 1.34 0 0 1 .672 1.162v37.65c0 .133-.02.265-.059.391a1.35 1.35 0 0 0 1.798-.524c.115-.2.175-.428.175-.66V20.253a1.34 1.34 0 0 0-.672-1.162Z" fill="#FFC000"/><path d="m127.879 59.083.004.002M81.665-4.546a1.34 1.34 0 0 0-.66 1.133v37.69a1.375 1.375 0 0 0 .691 1.18l44.27 24.418a1.345 1.345 0 0 0 1.917-.79M81.665-4.546a1.28 1.28 0 0 1 .334-.138m-.334.138L82-4.684m0 0 1.58-.654a1.347 1.347 0 0 1 1.315-.028l44.29 24.456a1.345 1.345 0 0 1 .672 1.162v37.65a1.338 1.338 0 0 1-1.31 1.339 1.35 1.35 0 0 1-.663-.156M81.999-4.685a1.37 1.37 0 0 1 .982.11l44.289 24.457a1.34 1.34 0 0 1 .672 1.162v37.65c0 .133-.02.265-.059.391" stroke="#1C2A60"/><path d="M219.062 22.15 174.773-2.307a1.37 1.37 0 0 0-1.316.029 1.338 1.338 0 0 0-.66 1.134v37.688a1.376 1.376 0 0 0 .691 1.182l44.27 24.417a1.346 1.346 0 0 0 1.976-1.182v-37.65a1.328 1.328 0 0 0-.672-1.161Z" fill="#FFC000"/><path d="M220.976 21.358 176.687-3.098a1.35 1.35 0 0 0-1.316.028l-1.58.654a1.37 1.37 0 0 1 .982.11l44.289 24.456a1.34 1.34 0 0 1 .672 1.162v37.65c0 .133-.02.265-.059.391.409.216.924.202 1.32-.035a1.339 1.339 0 0 0 .653-1.148V22.52a1.34 1.34 0 0 0-.672-1.162Z" fill="#FFC000"/><path d="m219.672 61.351.003.002m1.32-.035a1.339 1.339 0 0 0 .653-1.148V22.52a1.34 1.34 0 0 0-.672-1.162L176.687-3.098a1.35 1.35 0 0 0-1.316.028l-1.58.654m47.204 63.734-1.913.792m1.913-.792a1.37 1.37 0 0 1-1.32.035M173.457-2.278a1.338 1.338 0 0 0-.66 1.134v37.688a1.376 1.376 0 0 0 .691 1.182l44.27 24.417a1.347 1.347 0 0 0 1.324-.033M173.457-2.278a1.32 1.32 0 0 1 .334-.138m-.334.138.334-.138m45.291 64.526a1.346 1.346 0 0 0 .593-.757m-45.884-63.77a1.37 1.37 0 0 1 .982.11l44.289 24.457a1.34 1.34 0 0 1 .672 1.162v37.65c0 .133-.02.265-.059.391" stroke="#1C2A60"/><path d="M167.308 113.208c-3.445 2.659-10.818 5.957-10.818 5.957l4.253-4.833a18.309 18.309 0 0 1-8.761 0h-.458a86.932 86.932 0 0 1-19.513-26.765 153.255 153.255 0 0 1-12.33-38.363l-7.234.404-1.047-7.802 7.661-4.427c8.308 3.204 21.02 4.825 28.572-.849 6.32 11.567 13.535 20.359 23.382 29.122 2.058 1.853 5.121 4.986 7.454 6.77-.885 13.271.781 31.57-11.161 40.786Z" fill="#fff" stroke="#1C2A60"/><path d="m178.374 72.395-7.2 4.26-4.209.732-14.023 2.47-1.327-1.898-7.251-10.34-2.974-19.765-1.098-7.366 7.34-4.111c6.293 11.56 13.568 20.504 23.382 29.275 2.174 1.738 5.027 4.959 7.36 6.743Z" fill="#fff" stroke="#1C2A60"/><path d="M161.201 115.979a16.011 16.011 0 0 1-16.128 3.82 88.817 88.817 0 0 1-20.382-28.618 159.273 159.273 0 0 1-13.268-48.954c20.588 7.938 28.641-1.795 28.641-1.795 6.314 11.642 14.782 22.213 24.706 30.984a105.532 105.532 0 0 0 6.336 5.24c.069 0 1.419 28.182-9.905 39.323Z" fill="#fff" stroke="#1C2A60"/><path d="M139.638 45.998s-7.596 7.079-24.456 1.273c0 0 4.27 44.047 29.525 66.74 24.317 5.925 22.235-36.808 22.235-36.808-10.817-8.31-21.061-19.275-27.304-31.205Z" fill="#FFC000" stroke="#1C2A60"/><path d="M143.859 79.792a1.959 1.959 0 0 0 1.047-2.048 7.738 7.738 0 0 0-3.95-5.808c-2.104-1.124-3.775-.381-3.708 1.71a6.86 6.86 0 0 0 1.606 3.79.58.58 0 0 1 .014.424l-1.199 8.836a.587.587 0 0 0 .31.573l6.152 3.405a.582.582 0 0 0 .854-.61l-1.635-9.62c.042-.346.244-.644.509-.652Z" fill="#FFB63D"/><path d="m144.088 90.993-6.151-3.379a.873.873 0 0 1-.453-.886l1.199-8.836a.627.627 0 0 0-.007-.212 6.968 6.968 0 0 1-1.664-3.947 2.405 2.405 0 0 1 .988-2.231 3.229 3.229 0 0 1 3.161.242 8.158 8.158 0 0 1 4.091 6.069 2.325 2.325 0 0 1-1.223 2.345.294.294 0 0 0-.228.325l1.636 9.619c.026.16.028.39-.032.542-.19.476-.87.56-1.317.35Zm-5.023-19.34a1.72 1.72 0 0 0-.814.238 1.822 1.822 0 0 0-.714 1.692 6.518 6.518 0 0 0 1.547 3.607c.139.19.203.423.181.657l-1.199 8.836a.367.367 0 0 0 .009.291l6.311 3.4a.236.236 0 0 0 .291-.01.238.238 0 0 0-.009-.265l-1.635-9.618a.927.927 0 0 1 .578-.973 1.748 1.748 0 0 0 .87-1.776 7.449 7.449 0 0 0-3.783-5.549 3.603 3.603 0 0 0-1.633-.53Z" fill="#1C2A60"/><path d="M140.666 87.66a.64.64 0 0 1-.31-.6l1.172-8.835a.58.58 0 0 0-.014-.424 6.86 6.86 0 0 1-1.606-3.79 1.902 1.902 0 0 1 1.231-2.08c-2.103-1.125-3.775-.382-3.707 1.71a6.853 6.853 0 0 0 1.606 3.79.59.59 0 0 1 .014.423l-1.199 8.836a.587.587 0 0 0 .31.573l6.151 3.405a.586.586 0 0 0 .788-.238.577.577 0 0 0 .07-.293l-4.506-2.478Z" fill="#1C2A60"/><path d="M103.786 15.909c-2.43-2.24-5-2.889-7.17-2.12-2.064.731-3.764 2.746-4.635 5.895-1.639 5.951.273 13.883 4.293 18.537.334.383.69.748 1.063 1.093 2.284 2.107 4.703 2.804 6.791 2.237.336-.092.663-.216.98-.372 1.305-.643 2.432-1.832 3.244-3.524.322-.681.583-1.39.781-2.117 1.785-6.478-.615-15.259-5.347-19.63Z" fill="#fff"/><path d="M112.311 36.131c.322-.681.583-1.39.78-2.117 1.786-6.478-.614-15.259-5.346-19.63-2.454-2.261-5.051-2.9-7.233-2.096l-3.895 1.5c2.169-.768 4.739-.12 7.169 2.12 4.732 4.371 7.132 13.152 5.347 19.63a12.859 12.859 0 0 1-.781 2.117c-.812 1.692-1.939 2.88-3.244 3.524l3.661-1.388c1.432-.603 2.669-1.84 3.542-3.66Z" fill="#fff"/><path d="M96.617 13.789c2.169-.769 4.739-.12 7.169 2.12 4.732 4.37 7.132 13.15 5.347 19.63a12.859 12.859 0 0 1-.781 2.116c-.812 1.692-1.939 2.88-3.244 3.524m-8.491-27.39c-2.065.731-3.765 2.746-4.636 5.895-1.639 5.951.273 13.883 4.293 18.537.334.383.69.748 1.063 1.093 2.284 2.107 4.703 2.804 6.791 2.237m-7.511-27.762 3.895-1.501c2.182-.805 4.779-.165 7.233 2.096 4.732 4.371 7.132 13.152 5.346 19.63a12.761 12.761 0 0 1-.78 2.117c-.873 1.82-2.11 3.057-3.542 3.66l-3.661 1.388m-.98.372.98-.372m-.98.372c.336-.092.663-.216.98-.372" stroke="#1C2A60"/><path d="M100.723 33.994a2.517 2.517 0 0 1-.84-.294 4.015 4.015 0 0 1-1.033-.84 7.13 7.13 0 0 1-1.302-2.091 8.29 8.29 0 0 1-.571-2.284 5.645 5.645 0 0 1 .327-2.663 3.2 3.2 0 0 1 .613-.983 2.167 2.167 0 0 1 2.041-.705c1.915.327 3.679 2.805 3.939 5.535 0 .201-.084.352-.226.327a.445.445 0 0 1-.303-.42c-.218-2.31-1.68-4.41-3.359-4.686a1.823 1.823 0 0 0-1.73.588 2.79 2.79 0 0 0-.521.84 4.753 4.753 0 0 0-.277 2.25c.062.67.226 1.328.487 1.949a5.924 5.924 0 0 0 1.142 1.797c.24.277.524.512.84.697.258.147.544.238.84.27.437 0 .714-.16.613-1.143a1.318 1.318 0 0 0-.428-.84 1.924 1.924 0 0 0-.404-.269 2.352 2.352 0 0 1-1.495-2.125 2.15 2.15 0 0 1 .135-1.033c.059-.15.218-.168.353 0a.538.538 0 0 1 .117.538c-.074.198-.1.411-.075.621a1.412 1.412 0 0 0 .957 1.235h.042a2.35 2.35 0 0 1 1.369 1.974c.118 1.243-.227 1.856-1.025 1.806l-.226-.05Z" fill="#1C2A60"/><path d="M101.544 29.807a.487.487 0 0 1-.286-.445 1.766 1.766 0 0 0-.386-1.025 1.05 1.05 0 0 0-.462-.336.475.475 0 0 1-.277-.445c0-.202.1-.336.252-.294.302.103.568.293.764.546.383.48.606 1.067.638 1.68-.008.201-.109.319-.243.319Z" fill="#1C2A60"/><path d="M100.78 32.55a2.951 2.951 0 0 1-1.84-1.361 5.283 5.283 0 0 1-.898-2.646c-.11-1.747.756-3.007 1.974-2.88a.456.456 0 0 1 .31.402c0 .21-.067.37-.21.353-.957-.1-1.638.89-1.545 2.251a4.2 4.2 0 0 0 .705 2.066c.323.532.842.916 1.445 1.067a.45.45 0 0 1 .294.42c.017.21-.084.352-.235.327Z" fill="#1C2A60"/><path d="M96.624 30.852a.387.387 0 0 1-.269-.294 9.734 9.734 0 0 1-.47-2.225 6.585 6.585 0 0 1 .932-4.418 2.957 2.957 0 0 1 3.141-1.277 5.737 5.737 0 0 1 3.36 2.52c.271.395 1.039 1.608 1.436 3.063.469 1.722.486 3.702-.478 3.897a.654.654 0 0 1-.454-.065 2.356 2.356 0 0 1-1.252-1.545 3.933 3.933 0 0 1-.193-1.075c0-.202.109-.328.252-.286a.493.493 0 0 1 .277.454c.013.263.061.523.143.773.051.21.15.405.288.57.156.188.49.536.765.475.742-.302.448-3.194-.784-5.248-.975-1.625-2.413-2.607-3.226-2.777a2.593 2.593 0 0 0-2.889 1.1 5.82 5.82 0 0 0-.84 3.931c.07.671.21 1.333.42 1.974.067.201 0 .403-.109.445a.116.116 0 0 1-.05.008Z" fill="#1C2A60"/><path d="M95.339 25.192a.311.311 0 0 1-.118-.058.545.545 0 0 1-.168-.53 5.375 5.375 0 0 1 1.739-2.847 3.577 3.577 0 0 1 2.889-.722c1.68.294 3.418 1.68 4.687 3.754a.49.49 0 0 1 0 .521c-.101.11-.269.059-.378-.117a6.724 6.724 0 0 0-4.25-3.36c-1.94-.336-3.553.907-4.2 3.234-.017.084-.1.142-.201.125Zm3.544 9.348c-.242-.211-.151-.942.151-.647a4.93 4.93 0 0 0 2.142.94c.295 0 .511.048.554.404.131 1.09-2.582-.488-2.847-.697Z" fill="#1C2A60"/><path d="M103.333 22.395a.304.304 0 0 1-.151-.084 6.72 6.72 0 0 0-3.578-2.075 3.956 3.956 0 0 0-2.898.588c-.117.076-.285 0-.37-.21a.395.395 0 0 1 .051-.487 4.266 4.266 0 0 1 3.141-.638 7.217 7.217 0 0 1 3.881 2.242.526.526 0 0 1 .126.53.187.187 0 0 1-.202.134Z" fill="#1C2A60"/><path d="m188.178 15.907-6.891 7.427 7.438 15.334 12.816 7.169 6.891-7.427-7.438-15.334-12.816-7.169Z" fill="#fff"/><path d="m203.946 21.645-12.816-7.168-2.952 1.43 12.816 7.169 2.952-1.43Z" fill="#fff"/><path d="m211.384 36.98-7.438-15.335-2.952 1.431 7.438 15.334 2.952-1.43Z" fill="#fff"/><path d="m204.492 44.406 6.892-7.426-2.952 1.43-6.891 7.427 2.951-1.43Z" fill="#fff"/><path d="m211.384 36.98-6.892 7.426-2.951 1.43m9.843-8.856-7.438-15.335m7.438 15.335-2.952 1.43m-4.486-16.765-12.816-7.168-2.952 1.43m15.768 5.738-2.952 1.431m-12.816-7.169-6.891 7.427 7.438 15.334 12.816 7.169m-13.363-29.93 12.816 7.169m.547 22.76 6.891-7.426m0 0-7.438-15.334" stroke="#1C2A60"/><path d="M198.54 30.442c-.004-.169-.143-.334-.416-.463l-4.892-2.267a1.866 1.866 0 0 0-.725-.197l-.039-1.652a.607.607 0 0 1 .245-.569 2.249 2.249 0 0 1 1.487.077 3.236 3.236 0 0 1 1.997 2.607c.011.438.97.55.969.044a4.559 4.559 0 0 0-2.716-3.478 2.701 2.701 0 0 0-2.366-.124 1.522 1.522 0 0 0-.831 1.472l.044 1.821-.667.342c-.277.153-.408.348-.392.527l.12 4.993c.004.168.143.334.416.462l5.086 2.398c.236.08.485.113.734.095.348.007.693-.067 1.007-.215l.667-.343c.278-.141.408-.325.404-.493l-.12-5.026-.012-.011Z" fill="#1C2A60"/></g><defs><clipPath id="a"><rect width="303" height="160" rx="12" fill="#fff"/></clipPath></defs></svg>