<svg width="248" height="302" fill="none" xmlns="http://www.w3.org/2000/svg"><g clip-path="url(#a)"><rect width="248" height="302" rx="12" fill="#2EB57D"/><path d="m206.374 211.764-48.354-29.022-20.441 11.86-20.103-11.86-75.93 44.112 19.959 11.811-19.959 11.57L89.9 279.306l20.441-11.86 20.103 11.86 75.93-44.16-20.007-11.812 20.007-11.57Z" fill="#fff"/><path d="m186.367 223.334 20.007 11.812v-23.382l-20.007 11.57Z" fill="#fff"/><path d="m206.374 235.146-75.93 44.16v29.185l75.93-4.094v-69.251Zm-75.93 44.16-20.103-11.86v36.951l20.103 4.094v-29.185Z" fill="#fff"/><path d="m110.341 267.446-20.44 11.86v28.121l20.44-3.03v-36.951ZM89.9 279.306l-48.354-29.071v54.162l48.354 3.03v-28.121Zm-28.395-40.641-19.959-11.811v23.381l19.959-11.57Z" fill="#fff"/><path d="m206.374 211.764-48.354-29.022-20.441 11.86-20.103-11.86-75.93 44.112m164.828-15.09-20.007 11.57 20.007 11.812m0-23.382v23.382m-164.828-8.292 19.959 11.811-19.959 11.57m0-23.381v23.381m0 0L89.9 279.306m-48.354-29.071v54.162l48.354 3.03m0-28.121 20.441-11.86m-20.44 11.86v28.121m20.44-39.981 20.103 11.86m-20.103-11.86v36.951m20.103-25.091 75.93-44.16m-75.93 44.16v29.185m75.93-73.345v69.251l-75.93 4.094m-20.103-4.094 20.103 4.094m-20.103-4.094-20.44 3.03" stroke="#1C2A60"/><path d="m173.862 284.593-.018.886.768-.442 7.279-4.195.245-.14.006-.282.048-2.314.018-.881-.765.436-7.28 4.146-.247.14-.005.284-.049 2.362Z" fill="#FFC000" stroke="#1C2A60"/><path d="m168.319 281.416-.018.882.766-.437 16.391-9.353.246-.14.006-.284.048-2.362.018-.884-.766.44-16.391 9.401-.246.14-.006.283-.048 2.314Zm-13.981 14.291-.018.881.766-.436 16.439-9.353.247-.14.006-.284.048-2.362.018-.883-.766.439-16.44 9.4-.246.141-.005.283-.049 2.314Zm25.458-27.189-.019.879.765-.433 10.462-5.93.253-.144v-3.517l-.749.43-10.413 5.978-.245.141-.006.282-.048 2.314Zm-19.524 11.163-.019.883.767-.439 16.439-9.4.246-.141.006-.283.048-2.314.018-.883-.766.438-16.439 9.401-.246.141-.006.283-.048 2.314Zm27.571-9.369v.871l.752-.439 4.049-2.362.243-.142.005-.28.049-2.314.018-.886-.768.443-4.098 2.362-.25.144v2.603Zm-41.076 17.155-.018.882.766-.437 10.22-5.834.246-.14.006-.284.048-2.362.018-.881-.765.437-10.221 5.833-.246.141-.006.283-.048 2.362Z" fill="#2EB57D" stroke="#1C2A60"/><path d="m149.18 309.667-.018.883.766-.439 17.259-9.882.246-.141.006-.283.048-2.314.018-.881-.765.436-17.259 9.835-.247.14-.006.284-.048 2.362Z" fill="#FFC000" stroke="#1C2A60"/><path d="m146.571 300.215-.019.881.766-.436 4.484-2.555.246-.141.006-.283.048-2.314.018-.881-.765.436-4.484 2.555-.246.141-.006.283-.048 2.314Z" fill="#2EB57D" stroke="#1C2A60"/><path d="m146.619 293.879-.019.883.767-.439 18.368-10.509.245-.141.006-.283.049-2.314.018-.883-.767.439-18.367 10.509-.246.141-.006.283-.048 2.314Z" fill="#FFC000" stroke="#1C2A60"/><path d="m168.512 312.801-.018.88.765-.435 16.44-9.353.246-.14.006-.284.048-2.363.018-.882-.766.438-16.439 9.401-.246.14-.006.284-.048 2.314Z" fill="#2EB57D" stroke="#1C2A60"/><path d="m179.744 300.399-.019.883.767-.438 10.461-5.978.246-.141.006-.283.048-2.314.019-.882-.767.437-10.461 5.978-.246.141-.006.283-.048 2.314Z" fill="#FFC000" stroke="#1C2A60"/><path d="m160.461 311.463-.018.883.767-.439 16.391-9.401.245-.141.006-.283.048-2.314.019-.881-.767.437-16.391 9.352-.246.141-.006.283-.048 2.363Z" fill="#2EB57D" stroke="#1C2A60"/><path d="m187.843 301.785-.018.886.768-.443 4.097-2.362.245-.141.006-.282.048-2.314.018-.877-.764.432-4.098 2.314-.248.14-.006.285-.048 2.362Z" fill="#FFC000" stroke="#1C2A60"/><path d="m55.428 284.048 1.88 1.109V272.14l-1.88-1.109v13.017Z" fill="#1C2A60"/><path d="M54.928 274.743v.286l.246.145 1.88 1.109.754.445v-4.873l-.246-.145-1.88-1.109-.754-.445v4.587Z" fill="#FFC000" stroke="#1C2A60"/><path d="M54.928 284.047v.286l.246.145 1.88 1.109.754.445v-6.657l-.246-.145-1.88-1.109-.754-.445v6.371Z" fill="#fff" stroke="#1C2A60"/><path d="m60.59 286.898 1.88 1.109v-13.016l-1.88-1.109v13.016Z" fill="#1C2A60"/><path d="M60.09 286.898v.286l.245.145 1.88 1.108.754.445v-4.825l-.245-.145-1.88-1.109-.755-.444v4.539Z" fill="#FFC000" stroke="#1C2A60"/><path d="M60.09 279.378v.285l.245.145 1.88 1.109.754.445v-6.657l-.245-.145-1.88-1.109-.755-.445v6.372Z" fill="#fff" stroke="#1C2A60"/><path d="m63.722 279.209 1.929 1.109v-3.712l-1.928-1.109v3.712Z" fill="#fff"/><path d="m65.902 289.984 1.928 1.108v-13.016l-1.928-1.109v13.017Z" fill="#1C2A60"/><path d="M65.402 289.984v.289l.25.144 1.929 1.109.75.431v-4.818l-.252-.144-1.928-1.109-.75-.43v4.528Z" fill="#FFC000" stroke="#1C2A60"/><path d="M65.402 282.463v.289l.25.144 1.929 1.109.75.431v-6.649l-.252-.145-1.928-1.108-.75-.431v6.36Z" fill="#fff" stroke="#1C2A60"/><path d="m70.038 282.825 1.928 1.108v-3.663l-1.928-1.109v3.664Z" fill="#fff"/><path d="m71.388 293.286 1.928 1.109v-13.017l-1.928-1.109v13.017Z" fill="#1C2A60"/><path d="M70.888 293.286v.289l.25.145 1.929 1.108.75.431v-4.811l-.244-.146-1.928-1.157-.757-.454v4.595Z" fill="#FFC000" stroke="#1C2A60"/><path d="M70.888 285.765v.29l.25.144 1.929 1.109.75.43v-6.649l-.252-.144-1.928-1.109-.75-.431v6.36Z" fill="#fff" stroke="#1C2A60"/><path d="m77.064 296.02 1.928 1.108v-13.016l-1.928-1.109v13.017Z" fill="#1C2A60"/><path d="M76.273 286.98v.283l.243.146 1.928 1.157.758.454v-4.884l-.251-.145-1.929-1.108-.749-.431v4.528Z" fill="#FFC000" stroke="#1C2A60"/><path d="M76.273 296.332v.289l.251.145 1.928 1.108.75.431v-6.649l-.251-.144-1.929-1.109-.749-.431v6.36Z" fill="#fff" stroke="#1C2A60"/><path d="m53.165 268.13-1.254-.675v17.084l27.787 16.134v-2.025l-26.533-15.459V268.13Z" fill="#1C2A60"/><path d="m63.722 297.047 1.929 1.109v-3.664l-1.928-1.109v3.664Z" fill="#fff"/><path d="m155.417 202.604.292-.405-.131-.095H93.356l-.131.094.29.406-.29-.406-.002.001-.006.004-.022.016-.086.062-.332.238-1.224.878c-1.036.744-2.472 1.775-4.072 2.927-3.2 2.302-7.056 5.086-9.685 7.01-2.934 2.106-5.143 4.969-6.347 8.236l-.004.011a15.62 15.62 0 0 0-.846 4.943v.004c0 7.149 5.682 14.604 15.159 20.239 9.505 5.652 22.937 9.55 38.708 9.55 15.771 0 29.239-3.898 38.78-9.549 9.512-5.635 15.232-13.089 15.233-20.239v-.001h-.5m-22.562-23.924 22.128 20.391c.29 1.159.435 2.344.434 3.533m-22.562-23.924.292-.405.002.001.005.004.022.016.086.062.33.238 1.219.879c1.032.744 2.462 1.777 4.056 2.931 3.185 2.307 7.028 5.1 9.657 7.047l-15.669-10.773Zm22.562 23.924c0 13.773-22.128 29.289-53.513 29.289-31.384 0-53.367-15.516-53.367-29.289h106.88Z" fill="#1C2A60" fill-opacity=".2" stroke="#1C2A60"/><path d="M124.466 192.752c-11.751 0-21.742 3.107-28.81 7.636-7.046 4.515-11.27 10.506-11.27 16.294 0 5.787 4.223 11.802 11.27 16.341 7.067 4.553 17.058 7.685 28.81 7.685 11.753 0 21.731-3.12 28.787-7.661 7.035-4.527 11.245-10.53 11.245-16.317 0-5.787-4.223-11.79-11.263-16.318-7.062-4.54-17.04-7.66-28.769-7.66Z" fill="#fff" stroke="#1C2A60"/><path d="M141.966 199.779c-13.788-5.252-32.734-3.519-42.906 4.674-10.172 8.192-7.52 21.005 7.906 27.15 15.427 6.144 35.868 2.888 44.931-6.512 9.064-9.4 3.905-19.903-9.931-25.312Z" fill="#1C2A60"/><mask id="b" style="mask-type:alpha" maskUnits="userSpaceOnUse" x="93" y="196" width="64" height="39"><path d="M141.966 199.779c-13.788-5.252-32.734-3.519-42.906 4.674-10.172 8.192-7.52 21.005 7.906 27.15 15.427 6.144 35.868 2.888 44.931-6.512 9.064-9.4 3.905-19.903-9.931-25.312Z" fill="#1C2A60"/></mask><g mask="url(#b)" fill="#FFC000" stroke="#1C2A60"><path d="M145.363 207.103c-6.558-1.335-16.685 7.056-16.685 7.056l.776 2.41c7.5-3.306 15.909-4.254 24.169-2.41 0 0-2.101-5.802-8.26-7.056Z"/><path d="M135.826 201.079c-6.319.912-10.826 10.95-10.826 10.95l3.983 1.971c5.329-4.631 10.034-8.036 17.017-9.455-2.434-2.375-6.923-3.919-10.174-3.466Zm-25.269-.789s-10.053 1.381-7.81 9.338c1.959 6.838 16.538 8.315 19.247 6.54l-.291-3.014s-10.549-5.04-11.146-12.864Z"/><path d="M117.47 201.763c-4.474 5.774 2.346 11.125 6.056 12.237l3.055-1.589a9.12 9.12 0 0 1-.296-6.949c.822-2.267 2.51-4.141 4.715-5.235 0 0-9.548-3.602-13.53 1.536Zm-23.901 9.012s-4.952 4.812 2.52 11.804c7.472 6.993 21.109-.12 27.367-4.532l-3.579-2.496a47.844 47.844 0 0 1-26.308-4.776Z"/><path d="M96 226.804c1.314 1.652 3.165 3.059 5.399 4.105 2.235 1.046 4.788 1.7 7.45 1.909 9.77 1.579 15.399-7.518 17.151-12.555l-4.407-.263c-7.965 3.219-16.605 5.516-25.593 6.804Z"/><path d="m126.805 218.666-3.63 2.376s2.334 2.714-6.978 13.717c1.992 1.066 4.366 1.692 6.932 1.827 2.566.136 5.25-.223 7.836-1.047 8.212-2.871 2.145-16.608-4.16-16.873Z"/><path d="m131.331 218.241-2.779 2.342a17.886 17.886 0 0 1 9.906 9.365 11.531 11.531 0 0 0 9.794-3.244c4.612-4.32-7.5-8.231-16.921-8.463Z"/><path d="M150.921 215.806c-5.472-3.898-18.853-.362-18.853-.362l-.995 1.97s13.168-1.099 20.904 6.044a4.809 4.809 0 0 0 1.119-1.879c.228-.71.293-1.467.19-2.21a4.97 4.97 0 0 0-.78-2.07c-.298-.449-1.585-1.493-1.585-1.493Z"/></g><path fill-rule="evenodd" clip-rule="evenodd" d="M119.26 198.069c-7.606.788-14.682 3.224-19.573 7.162-4.842 3.9-6.506 8.768-5.307 13.309 1.213 4.589 5.425 9.134 12.956 12.134 7.527 2.997 16.312 3.711 24.334 2.513 8.039-1.201 15.179-4.301 19.507-8.79 4.314-4.474 5.121-9.035 3.421-13.071-1.74-4.129-6.208-7.961-12.992-10.614-6.728-2.562-14.75-3.43-22.346-2.643Zm-20.2 6.384c10.172-8.193 29.118-9.926 42.906-4.674 13.836 5.409 18.995 15.912 9.931 25.312-9.063 9.4-29.504 12.656-44.931 6.512-15.427-6.145-18.078-18.958-7.906-27.15Z" fill="#1C2A60"/><path d="M130.492 217.935a13.598 13.598 0 0 1-11.714.531c-1.784-.82-2.506-2.512-2.458-3.669l-.146 2.495c0 1.254.868 2.379 2.7 3.247a13.64 13.64 0 0 0 6.146 1.008c2.227-.15 5.775-.791 7.031-2.916.332-.561.327-1.08.315-1.733l-.132-2.101c-.011.629-.011 1.39-.352 1.919-.34.528-.822.95-1.39 1.219Z" fill="#1C2A60" stroke="#1C2A60"/><path d="M129.769 212.15a13.879 13.879 0 0 0-11.088 0c-3.278 1.687-3.326 4.483 0 6.123a13.602 13.602 0 0 0 11.715-.531c2.844-1.639 2.411-4.146-.627-5.592Z" fill="#FFC000" stroke="#1C2A60"/><path d="m65.777 160.262-49.542-27.354a.97.97 0 0 0-.796 0c-.394.181-.656.26-1.613.667.165.858.858 41.216.858 41.216a1.4 1.4 0 0 0 .578 1.155l48.54 28.049c.362-.095 1.335-.575 1.516-.617.54-.125 1.029-.808 1.006-1.628v-40.333a1.308 1.308 0 0 0-.547-1.155Z" fill="#1C2A60"/><path d="M13.616 135.06v-.014c-.012-.401.145-.744.341-.937.193-.19.353-.192.47-.13l.001.001 49.511 27.337a.809.809 0 0 1 .318.699l-.001.017v40.364c.011.414-.152.765-.353.964-.204.2-.36.188-.451.137l-.005-.003-49.482-27.338a.902.902 0 0 1-.349-.726V135.06Z" fill="#FFC000" stroke="#1C2A60"/><path d="m31.371 171.766.817.744.02-1.105.06-3.495.005-.231-.174-.153-8.876-7.809 8.707 2.015.612.142v-4.413l-.402-.08-15.197-3.04-.598-.119v3.87l.164.149 14.862 13.525Zm2.208 3.72-.155.399.37.215 2.978 1.732.503.293.214-.541 5.896-14.954.158-.401-.372-.215-3.04-1.763-.505-.293-.211.544-5.836 14.984Zm10.928 4.125v.408l.399.082 15.197 3.131.6.124v-3.663l-.164-.149-15.045-13.586-.836-.754v4.695l.17.149 8.842 7.778-8.545-2.074-.618-.15v4.009Z" fill="#fff" stroke="#1C2A60"/><path d="m232.198 58.04-43.509-24.053c-.546-.305-1.86.21-2.635.693-.165.258.579.59.579.915v42.9a1.457 1.457 0 0 0 .608 1.216l42.833 24.839c.271.153 1.336-.425 1.674-.574.714-.317 1.119-.952 1.119-1.796V59.256a1.43 1.43 0 0 0-.669-1.216Z" fill="#293564"/><path d="m185.753 80.313 43.737 24.132c1.004.569 1.889-.509 1.889-1.664V59.857a1.429 1.429 0 0 0-.669-1.215m-44.957 21.67.292-.406-.022-.015m-.27.421.242-.437.028.016m-.27.421a1.463 1.463 0 0 1-.608-1.215v-42.9c0-1.156 1.297-2.034 2.056-1.608l43.509 24.053M186.023 79.89l43.709 24.117.004.002a.57.57 0 0 0 .387.085.648.648 0 0 0 .337-.191c.238-.236.419-.66.419-1.123V59.855a.926.926 0 0 0-.424-.783M186.023 79.89a.97.97 0 0 1-.378-.784v-42.91c0-.388.221-.759.541-.995.338-.251.634-.254.771-.177l.003.001 43.495 24.046m0 0 .014.007.241-.438m-.255.43-.01-.006.265-.423" fill="#FFC000" stroke="#1C2A60"/><path d="M193.037 63.386v.259l.212.15a5.94 5.94 0 0 1 1.592 1.673 6.66 6.66 0 0 1 .785 2.19c.183 1.27.262 2.551.238 3.834a23.555 23.555 0 0 0 .248 3.881l.002.014c.165.935.48 1.838.933 2.672a9.637 9.637 0 0 0 1.634 2.241l.008.008c.817.8 1.721 1.504 2.696 2.102l.693.452.773.504v-5.043l-.252-.144a7.454 7.454 0 0 1-1.649-1.279 2.533 2.533 0 0 1-.528-.853 3.759 3.759 0 0 1-.185-1.389V71.18a18.742 18.742 0 0 0-.375-3.123l-.002-.01a13.17 13.17 0 0 0-.758-2.307l-.006-.012-.005-.012a15.434 15.434 0 0 0-.874-1.53c.259-.098.503-.233.726-.4l.032-.024.028-.029a3.2 3.2 0 0 0 .791-1.402c.126-.458.141-1.164.129-1.895a62.962 62.962 0 0 0-.044-1.399 99.548 99.548 0 0 1-.035-1.03c-.023-.821-.023-1.575.045-2.14a2.46 2.46 0 0 1 .138-.621.452.452 0 0 1 .051-.097l.016-.001a6.66 6.66 0 0 1 1.624.888l.799.595v-5.009l-.232-.147-.657-.419a11.533 11.533 0 0 0-2.523-1.355 2.687 2.687 0 0 0-2.119.004l-.048.021-.043.03a2.467 2.467 0 0 0-1.028 1.745 23.307 23.307 0 0 0-.185 4.25v.003a23.19 23.19 0 0 1 0 2.529v.007a2.21 2.21 0 0 1-.372 1.14l-.008.012a.408.408 0 0 1-.32.191 3.716 3.716 0 0 1-1.183-.472l-.762-.47v4.695Zm26.043 17.123.824.591-.032-1.013-.122-3.8-.008-.25-.205-.143a6.23 6.23 0 0 1-1.598-1.624 6.058 6.058 0 0 1-.808-2.173 24.848 24.848 0 0 1-.207-3.837v-.011a27.666 27.666 0 0 0-.279-3.9l-.002-.012-.002-.01a9.77 9.77 0 0 0-.896-2.627l-.001-.001a9.025 9.025 0 0 0-1.641-2.253l-.004-.004a14.567 14.567 0 0 0-2.725-2.1l-.656-.448-.782-.533v5.123l.247.145a8.79 8.79 0 0 1 1.743 1.34c.2.23.358.495.464.781.133.497.187 1.012.161 1.525l-.001.019v.019c.031 1.286.092 2.35.145 3.188l.028.432c.041.623.07 1.076.07 1.383v.03l.004.032a12.67 12.67 0 0 0 .886 3.322l.005.011.005.011a17.31 17.31 0 0 0 1.022 1.848c-.236.088-.46.212-.662.367l-.024.018-.021.02a3.27 3.27 0 0 0-.861 1.436l-.003.01a10.538 10.538 0 0 0-.351 2.553v3.676l.011.052c.053.246.063.498.03.746a.113.113 0 0 1-.026 0 5.339 5.339 0 0 1-1.61-.851l-.806-.623v5.122l.231.148.657.417a10.85 10.85 0 0 0 2.532 1.36 2.84 2.84 0 0 0 2.098-.002l.062-.025.054-.041a2.502 2.502 0 0 0 .986-1.805c.191-1.392.263-2.799.215-4.203v-.009l-.001-.008a18.569 18.569 0 0 1 0-2.508c.042-.414.172-.814.381-1.174a.444.444 0 0 1 .34-.19c.408.056.798.211 1.133.452Zm-107.736 9.794 11.482-5.748 27.716 53.245-5.271 5.156-11.895 5.915-5.656 1.444-16.828-59.538.452-.474Z" fill="#fff" stroke="#1C2A60"/><path d="m140.593 120.273-.01.005-.01.006-19.867 10.954-7.837-4.947-1.213-10.422 20.591-13.017 11.318-5.68 1.18 10.138.014.125.021.179.13.125 7.174 6.862-11.491 5.672Zm37.864 21.202 6.788.435 7.332 7.653c-.009.075-.02.167-.035.276-.044.328-.115.807-.223 1.401a38.417 38.417 0 0 1-1.166 4.697c-1.176 3.714-3.236 8.172-6.768 11.307-1.264 1.055-4.72 3.059-8.348 4.919a98.955 98.955 0 0 1-5.238 2.509c-1.569.688-2.884 1.188-3.723 1.392a1.416 1.416 0 0 1-.111-.016 7.994 7.994 0 0 1-.423-.088 41.52 41.52 0 0 1-1.376-.346 264.921 264.921 0 0 1-3.942-1.095l-1.314-.374a560.58 560.58 0 0 0-2.638-.747 90.686 90.686 0 0 0-1.402-.382 16.814 16.814 0 0 0-.65-.155c-8.907-5.34-13.385-14.689-16.602-21.408l-.419-.873 2.183-4.412 11.579-5.789.081.137a35.767 35.767 0 0 0 4.36 5.799c2.933 3.152 7.17 6.399 12.204 6.368.46-.003.85-.048 1.136-.175a.938.938 0 0 0 .411-.334.796.796 0 0 0 .123-.53c-.032-.301-.216-.58-.38-.793a9.112 9.112 0 0 0-.661-.735l-.301-.307c-.424-.429-.868-.879-1.238-1.349-.371-.473-.614-.903-.698-1.284 1.987-1.062 4.788-2.457 7.14-3.609a550.502 550.502 0 0 1 4.091-1.983l.228-.109Z" fill="#fff" stroke="#1C2A60"/><path d="m154.464 112.685-19.963-12.048 11.152-5.598c4.595-1.973 9.732-3.047 15.576-1.538 5.857 1.513 12.492 5.639 20.033 14.206a50.776 50.776 0 0 1 11.376 38.859l-11.517 5.758-3.426-3.877 1.492-9.407.009-.054-.003-.055c-.966-15.834-7.12-22.47-13.178-25.075-3.003-1.291-5.938-1.572-8.116-1.531-1.09.02-1.995.12-2.629.217-.318.048-.568.094-.74.13l-.066.013Zm-45.566 14.717.019.19.142.129 7.414 6.738c-1.676.733-3.175 1.569-4.705 2.423l-.648.361c-1.946 1.081-4.009 2.182-6.65 3.173-3.062-.935-6.869-3.844-10.849-7.658-4.026-3.859-8.159-8.573-11.775-12.901-2.183-2.613-4.701-5.408-7.255-8.242l-.087-.097c-2.586-2.87-5.206-5.78-7.566-8.599-2.361-2.82-4.45-5.535-5.978-8.013-1.445-2.341-2.355-4.42-2.554-6.145a765.591 765.591 0 0 1 7.098-3.571 1980.07 1980.07 0 0 1 4.238-2.104l.234-.116 5.96.579 8.527 7.469a33.933 33.933 0 0 0 4.653 16.313l.005.009.006.008c4.696 7.314 9.486 9.7 13.176 10.199 1.834.247 3.369.025 4.448-.262a9.74 9.74 0 0 0 1.063-.347l1.084 10.464Z" fill="#fff" stroke="#1C2A60"/><path d="M92.364 76.863c-3.955.823-5.963 3.728-6.972 6.347a16.611 16.611 0 0 0-1.04 4.737l-11.425 5.689-3.03-3.106-.028-.109c-.04-.154-.097-.382-.17-.673-.144-.582-.347-1.417-.577-2.428a120.67 120.67 0 0 1-1.483-7.54c-.45-2.803-.77-5.665-.736-7.977.018-1.157.124-2.153.337-2.925.215-.784.518-1.26.867-1.49 5.913-3.884 13.195-8.155 20.621-9.083 8.99-1.123 17.272 4.735 23.378 11.022 3.039 3.13 5.507 6.333 7.216 8.756a70.386 70.386 0 0 1 1.967 2.936c.207.328.369.59.483.778l-4.705 4.563-11.833 5.766-.015.003a8.11 8.11 0 0 0-.279.051c-.249.05-.625.135-1.152.275-1.005.267-2.557.735-4.805 1.55-.234-.324-.44-.759-.619-1.302-.226-.69-.398-1.517-.538-2.438-.177-1.161-.298-2.424-.421-3.712-.074-.773-.15-1.555-.237-2.329-.23-2.02-.553-3.985-1.22-5.373-.337-.7-.782-1.297-1.39-1.67-.62-.38-1.354-.493-2.194-.318Z" fill="#fff" stroke="#1C2A60"/><path d="m105.835 95.443.115-.034.087-.083 4.868-4.62 27.637 53.094-5.233 5.118-5.654 1.477-27.502-53.27 5.682-1.682Z" fill="#FFC000" stroke="#1C2A60"/><path d="m132.759 113.435.021.179.13.125 7.211 6.897-31.341 18.332-7.906-6.637-1.216-10.45 31.913-18.658 1.188 10.212Zm7.114 53.553c-5.198-4.844-8.789-10.374-10.515-13.77l5.826-1.574.137-.037.097-.103 4.646-4.951a35.767 35.767 0 0 0 4.338 5.762c2.933 3.152 7.17 6.399 12.204 6.368 2.512-.016 4.434-.758 5.891-1.883 1.451-1.119 2.414-2.596 3.054-4.046.641-1.45.966-2.892 1.133-3.966.082-.53.125-.974.149-1.289l6.412.411 7.332 7.653c-.009.075-.02.167-.035.276-.044.328-.115.807-.223 1.401a38.417 38.417 0 0 1-1.166 4.697c-1.176 3.714-3.236 8.172-6.768 11.307a14.942 14.942 0 0 1-8.994 3.466h-.012l-.011.001c-.69.06-1.383.06-2.072 0l-.013-.001h-.013c-8.683-.299-15.913-4.611-21.397-9.722Z" fill="#FFC000" stroke="#1C2A60"/><path d="m180.733 151.759-6.165-6.681-.136-.148-.201-.012-7.067-.429c-1.052-15.515-7.148-22.052-13.149-24.633-3.003-1.291-5.938-1.572-8.116-1.531-1.09.02-1.995.12-2.629.217-.312.047-.559.093-.731.128l-7.314-7.342-1.242-10.428c4.51-1.884 9.542-2.872 15.246-1.4 5.857 1.514 12.492 5.64 20.033 14.207a50.776 50.776 0 0 1 11.471 38.052ZM72.487 92.704c-.024.158-.044.308-.06.446l-6.775-6.748-.134-.132-.187-.012-6.63-.425a27.513 27.513 0 0 1 .269-2.647c.284-1.9.852-4.45 1.985-7.066 2.26-5.219 6.754-10.687 15.773-11.815 8.99-1.124 17.272 4.735 23.378 11.022 3.039 3.13 5.507 6.333 7.216 8.756a70.386 70.386 0 0 1 1.967 2.936c.207.328.369.59.483.778l-4.677 4.536-6.144 1.936a28.115 28.115 0 0 0-1.076-1.802c-.832-1.285-2.064-2.976-3.661-4.595-3.187-3.23-7.91-6.245-13.85-5.01v.001c-3.955.823-5.963 3.728-6.972 6.347a16.611 16.611 0 0 0-.905 3.494Zm24.411 40.698.02.19.14.129 7.394 6.719c-4.415 1.609-9.61 1.909-15.283.005-6.003-2.015-12.572-6.508-19.323-14.588-6.716-8.038-9.587-17.373-10.775-24.716a61.543 61.543 0 0 1-.79-9.08 46.942 46.942 0 0 1 .064-3.055l5.59.543 8.528 7.469a33.932 33.932 0 0 0 4.653 16.313l.005.009.006.008c4.696 7.314 9.486 9.7 13.176 10.199 1.834.247 3.369.025 4.448-.262a9.735 9.735 0 0 0 1.063-.347l1.084 10.464Z" fill="#FFC000" stroke="#1C2A60"/></g><defs><clipPath id="a"><rect width="248" height="302" rx="12" fill="#fff"/></clipPath></defs></svg>