<svg width="79" height="25" fill="none" xmlns="http://www.w3.org/2000/svg"><path d="M15.803 12.417c0-.429-.054-.856-.16-1.27-.597-2.329-2.74-3.956-5.21-3.956H0v17.758h10.434c.146 0 .291-.005.43-.016 2.3-.177 4.22-1.76 4.78-3.94.105-.413.159-.84.159-1.27a5.17 5.17 0 0 0-1.53-3.652 5.168 5.168 0 0 0 1.53-3.654Zm-6.427 8.71H4.518v-2.706h4.899c.79 0 1.427.644 1.388 1.421-.037.727-.681 1.285-1.429 1.285Zm.04-7.239H4.519v-2.706h4.899c.767 0 1.39.607 1.39 1.353s-.623 1.353-1.39 1.353ZM37.43 24.95h-5.284l-4.897-7.877 2.636-4.25L37.43 24.95ZM26.19 6.893l2.626 4.213-8.644 13.844h-5.284L26.19 6.893Zm5.906-1.177h-5.284L30.424.09 35.721 0l-3.625 5.716Zm2.82 7.119c0 2.784 2.399 5.483 5.681 5.433h6.864c.647 0 1.173.512 1.173 1.142 0 .63-.526 1.141-1.173 1.141H36.909l2.601 4.397c1.648-.009 5.153 0 8.107 0 2.13 0 5.374-1.699 5.374-5.494 0-3.647-2.35-4.954-4.04-5.391-.951-.367-7.005-.129-8.115-.193-.647 0-1.41-.293-1.41-1.141 0-.667.447-1.142 1.41-1.142.522 0 9.991-.007 10.754 0v-4.26H40.437c-3.049 0-5.521 2.354-5.521 5.508Zm24.238-5.508h-4.517v17.622h4.517V7.327Zm1.771 5.558c0 2.785 2.4 5.484 5.682 5.434h6.863c.646 0 1.172.512 1.172 1.141 0 .63-.526 1.142-1.172 1.142H60.925v4.397c1.649-.009 9.747 0 12.7 0C75.757 25 79 23.3 79 19.505c0-3.647-2.35-4.955-4.04-5.391-.951-.368-7.005-.129-8.115-.193-.647 0-1.41-.293-1.41-1.141 0-.667.447-1.142 1.41-1.142.522 0 9.992-.007 10.754 0v-4.26H66.446c-3.05 0-5.52 2.354-5.52 5.507Z" fill="#fff"/></svg>