<svg width="300" height="64" fill="none" xmlns="http://www.w3.org/2000/svg"><path fill-rule="evenodd" clip-rule="evenodd" d="m60.402 36.7 5.62 9.769-4.356 7.55-.322.559-5.292 9.173-11.235-.038-6.43-.022 5.751-9.73 6.293.02.16.001.793-1.43.002-.004.533-.962h.001l2.845-5.116.005-.008L33.69 9.826l-.024-.042L28.091.095h.001L29.478.09 29.47.05l3.01-.002 6.824-.006L44.817.04 56.05 0l4.48 7.764 1.135 1.968L74.484 31.82l-5.725 9.846L50.431 9.77l-5.52.004.008.014L60.402 36.7Z" fill="#4A3AFF"/><path fill-rule="evenodd" clip-rule="evenodd" d="m27 63.662-.003-.009.39.001 1.054-1.801 4.636-7.93 4.457-7.625 5.647-9.659-5.647-9.66-5.647 9.66-9.04 15.464-2.97-5.176 8.937-15.542 5.62-9.706-5.66-9.683-5.62 9.707-9.051 15.16-2.862-4.987L23.874 9.86l1.808-3.153L21.83.117l-3.613.012-5.606 9.769L5.62 22.08l-1.982 3.454-1.589 2.77L0 31.876l5.13 8.943.49.853 2.75 4.794 4.24 7.389 1.639 2.857v-.001l3.963 6.907.004.005 8.784.039Zm215.792-1.324c-1.193 0-2.269-.208-3.226-.624a6.84 6.84 0 0 1-2.45-1.778c-.667-.77-1.177-1.696-1.531-2.78-.353-1.09-.53-2.308-.53-3.65 0-1.775.307-3.321.919-4.64.62-1.327 1.507-2.355 2.661-3.085 1.154-.73 2.54-1.096 4.157-1.096 1.806 0 3.274.424 4.405 1.272 1.138.84 1.931 1.97 2.378 3.392l-1.742.424c-.369-1.037-.978-1.865-1.826-2.485-.84-.62-1.888-.93-3.144-.93-1.327-.008-2.43.29-3.309.895-.879.596-1.543 1.436-1.99 2.52-.44 1.075-.664 2.32-.672 3.733-.007 1.413.209 2.657.648 3.733.448 1.068 1.115 1.908 2.002 2.52.887.605 1.994.91 3.321.919 1.217 0 2.222-.236 3.015-.707.793-.471 1.393-1.146 1.802-2.026.416-.879.651-1.92.706-3.12h-3.91V53.34h5.724c.023.18.035.373.035.577.008.196.012.338.012.424 0 1.53-.275 2.9-.825 4.11a6.486 6.486 0 0 1-2.484 2.85c-1.1.69-2.481 1.036-4.146 1.036Zm9.812-17.311h1.59l6.665 14.26 6.63-14.26h1.613v16.946h-1.648V48.889l-6.042 13.096h-1.118l-6.03-13.096v13.096h-1.66V45.027Zm26.351 0h-6.548v16.958h7.089c.998 0 1.873-.193 2.627-.577a4.21 4.21 0 0 0 1.754-1.637c.416-.715.624-1.563.624-2.544 0-1.115-.314-2.065-.942-2.85a4.707 4.707 0 0 0-1.856-1.389 3.775 3.775 0 0 0 1.244-1.154c.487-.715.73-1.527.73-2.438 0-.8-.196-1.531-.589-2.19a4.282 4.282 0 0 0-1.648-1.59c-.707-.393-1.535-.59-2.485-.59Zm.118 15.297h-4.923v-6.43h5.24c.636 0 1.202.154 1.696.46.503.298.899.698 1.19 1.2a3.33 3.33 0 0 1 .435 1.697c0 .643-.161 1.193-.482 1.648a3.095 3.095 0 0 1-1.296 1.06c-.549.243-1.17.365-1.86.365Zm-.13-8.066h-4.793v-5.594h4.793c.856 0 1.558.251 2.108.753.557.503.836 1.155.836 1.955 0 .566-.133 1.064-.4 1.496a2.83 2.83 0 0 1-1.06 1.024 3.057 3.057 0 0 1-1.484.365Zm7.908-7.231h1.732v7.643h9.373v-7.643h1.72v16.958h-1.72V54.33h-9.373v7.655h-1.732V45.027ZM116.484 31.808c1.496.648 3.174.972 5.035.972a13.95 13.95 0 0 0 3.745-.495c1.201-.33 2.267-.824 3.197-1.484a7.293 7.293 0 0 0 2.208-2.473c.553-1 .83-2.16.83-3.48 0-1.271-.235-2.32-.706-3.144a5.938 5.938 0 0 0-1.767-1.996 9.549 9.549 0 0 0-2.243-1.183 24.633 24.633 0 0 0-2.102-.672l-4.558-1.272a15.311 15.311 0 0 1-1.713-.565 4.211 4.211 0 0 1-1.396-.936c-.376-.4-.565-.913-.565-1.537 0-.66.218-1.236.654-1.731.447-.495 1.03-.871 1.748-1.13a6.53 6.53 0 0 1 2.367-.39c.872.024 1.69.201 2.456.53a5.11 5.11 0 0 1 1.961 1.45c.541.623.906 1.383 1.095 2.278l4.575-.795c-.377-1.566-1.025-2.903-1.943-4.01a8.863 8.863 0 0 0-3.427-2.526c-1.366-.589-2.921-.889-4.664-.9-1.719-.012-3.285.258-4.698.812-1.402.553-2.52 1.39-3.356 2.508-.825 1.107-1.237 2.48-1.237 4.116 0 1.119.183 2.06.548 2.826.376.754.853 1.378 1.43 1.873a7.917 7.917 0 0 0 1.855 1.148 18.6 18.6 0 0 0 1.837.654l6.571 1.943a6 6 0 0 1 1.237.512c.365.188.659.4.883.636.236.235.412.506.53.812.118.295.177.619.177.972 0 .789-.253 1.454-.76 1.996-.494.542-1.142.954-1.943 1.236a7.643 7.643 0 0 1-2.561.425c-1.531 0-2.885-.413-4.063-1.237-1.166-.824-1.937-1.99-2.314-3.498l-4.416.672c.259 1.66.865 3.097 1.819 4.31.966 1.2 2.191 2.125 3.674 2.773ZM91.679 6.813V32.25h16.428v-3.992h-12.17v-7.19h10.05v-3.992h-10.05v-6.27h12.17V6.812H91.679ZM151.81 32.78c-1.86 0-3.538-.324-5.034-.972-1.484-.648-2.709-1.572-3.674-2.773-.954-1.213-1.561-2.65-1.82-4.31l4.416-.672c.377 1.508 1.149 2.674 2.315 3.498 1.177.824 2.531 1.237 4.062 1.237.907 0 1.761-.142 2.562-.425.8-.282 1.448-.694 1.943-1.236.506-.542.759-1.207.759-1.996 0-.353-.059-.677-.176-.972a2.323 2.323 0 0 0-.53-.812 3.273 3.273 0 0 0-.884-.636 5.99 5.99 0 0 0-1.236-.512l-6.571-1.943a18.51 18.51 0 0 1-1.837-.654 7.917 7.917 0 0 1-1.855-1.148c-.577-.495-1.054-1.119-1.431-1.873-.365-.765-.547-1.707-.547-2.826 0-1.637.412-3.009 1.236-4.116.836-1.118 1.955-1.955 3.356-2.508 1.413-.554 2.98-.824 4.699-.813 1.743.012 3.297.312 4.663.901a8.855 8.855 0 0 1 3.427 2.526c.919 1.107 1.567 2.444 1.943 4.01l-4.575.795c-.188-.895-.553-1.655-1.095-2.279a5.108 5.108 0 0 0-1.961-1.448 6.596 6.596 0 0 0-4.822-.142c-.718.26-1.301.636-1.749 1.131a2.54 2.54 0 0 0-.653 1.731c0 .624.188 1.137.565 1.537.377.389.842.7 1.395.936.566.224 1.137.412 1.714.565l4.557 1.272c.624.165 1.325.389 2.102.671a9.555 9.555 0 0 1 2.244 1.184 5.925 5.925 0 0 1 1.766 1.996c.471.824.707 1.872.707 3.144 0 1.32-.277 2.48-.831 3.48a7.272 7.272 0 0 1-2.208 2.473c-.93.66-1.996 1.154-3.197 1.484-1.189.33-2.438.495-3.745.495Zm18.917-10.952V32.25h4.31V21.828l8.638-15.015h-4.964l-5.829 10.14-5.847-10.14h-4.963l8.655 15.015Zm23.761 10.952c-1.861 0-3.539-.324-5.035-.972-1.484-.648-2.708-1.572-3.674-2.773-.954-1.213-1.56-2.65-1.819-4.31l4.416-.672c.377 1.508 1.148 2.674 2.314 3.498 1.177.824 2.532 1.237 4.063 1.237.906 0 1.76-.142 2.561-.425.801-.282 1.448-.694 1.943-1.236.506-.542.76-1.207.76-1.996 0-.353-.059-.677-.177-.972a2.31 2.31 0 0 0-.53-.812 3.283 3.283 0 0 0-.883-.636 6 6 0 0 0-1.237-.512l-6.571-1.943a18.6 18.6 0 0 1-1.837-.654 7.917 7.917 0 0 1-1.855-1.148c-.577-.495-1.054-1.119-1.431-1.873-.365-.765-.547-1.707-.547-2.826 0-1.637.412-3.009 1.236-4.116.837-1.118 1.955-1.955 3.357-2.508 1.413-.554 2.979-.824 4.698-.813 1.743.012 3.298.312 4.664.901a8.863 8.863 0 0 1 3.427 2.526c.918 1.107 1.566 2.444 1.943 4.01l-4.575.795c-.189-.895-.554-1.655-1.096-2.279a5.104 5.104 0 0 0-1.96-1.448 6.601 6.601 0 0 0-4.823-.142c-.718.26-1.301.636-1.748 1.131a2.536 2.536 0 0 0-.654 1.731c0 .624.188 1.137.565 1.537.377.389.842.7 1.396.936.565.224 1.136.412 1.713.565l4.558 1.272c.624.165 1.324.389 2.102.671a9.549 9.549 0 0 1 2.243 1.184 5.925 5.925 0 0 1 1.766 1.996c.471.824.707 1.872.707 3.144 0 1.32-.277 2.48-.83 3.48a7.293 7.293 0 0 1-2.208 2.473c-.931.66-1.996 1.154-3.198 1.484a13.95 13.95 0 0 1-3.744.495Zm19.915-21.975V32.25h4.257V10.805h8.232V6.813h-20.72v3.992h8.231Zm15.313 21.445V6.813h16.428v3.992h-12.17v6.271h10.05v3.992h-10.05v7.19h12.17v3.992h-16.428Zm20.666-25.437V32.25h3.992V15.945l7.79 16.305h1.696l7.808-16.305V32.25h3.974V6.813h-3.833l-8.797 18.018-8.797-18.018h-3.833ZM290.02 32.78c-1.861 0-3.539-.324-5.034-.972-1.484-.648-2.709-1.572-3.675-2.773-.953-1.213-1.56-2.65-1.819-4.31l4.416-.672c.377 1.508 1.148 2.674 2.314 3.498 1.178.824 2.532 1.237 4.063 1.237a7.63 7.63 0 0 0 2.561-.425c.801-.282 1.449-.694 1.943-1.236.507-.542.76-1.207.76-1.996 0-.353-.059-.677-.177-.972a2.31 2.31 0 0 0-.53-.812 3.267 3.267 0 0 0-.883-.636 5.99 5.99 0 0 0-1.236-.512l-6.572-1.943a18.6 18.6 0 0 1-1.837-.654 7.911 7.911 0 0 1-1.854-1.148c-.577-.495-1.054-1.119-1.431-1.873-.365-.765-.548-1.707-.548-2.826 0-1.637.412-3.009 1.237-4.116.836-1.118 1.955-1.955 3.356-2.508 1.413-.554 2.979-.824 4.699-.813 1.743.012 3.297.312 4.663.901a8.863 8.863 0 0 1 3.427 2.526c.918 1.107 1.566 2.444 1.943 4.01l-4.575.795c-.188-.895-.554-1.655-1.095-2.279a5.115 5.115 0 0 0-1.961-1.448 6.596 6.596 0 0 0-4.822-.142c-.719.26-1.302.636-1.749 1.131a2.536 2.536 0 0 0-.654 1.731c0 .624.189 1.137.566 1.537.376.389.842.7 1.395.936.565.224 1.136.412 1.713.565l4.558 1.272c.624.165 1.325.389 2.102.671a9.549 9.549 0 0 1 2.243 1.184c.719.506 1.307 1.172 1.767 1.996.471.824.706 1.872.706 3.144 0 1.32-.276 2.48-.83 3.48a7.293 7.293 0 0 1-2.208 2.473c-.93.66-1.996 1.154-3.197 1.484a13.95 13.95 0 0 1-3.745.495Z" fill="#3F3F3F"/></svg>