<svg width="38" height="40" fill="none" xmlns="http://www.w3.org/2000/svg"><path d="M28.375.688C23.217.688 19 4.904 19 10.062c0 1.55.598 3.132 1.367 4.883.769 1.752 1.74 3.608 2.735 5.323a96.891 96.891 0 0 0 4.003 6.298l1.27 1.856 1.27-1.856s2.013-2.869 4.003-6.298c.996-1.716 1.966-3.571 2.735-5.323.769-1.751 1.367-3.332 1.367-4.883 0-5.157-4.217-9.374-9.375-9.374ZM12.701 3.715.25 9.037v29.98l12.549-5.42 12.5 4.688 12.451-5.322V19.34c-.995 1.91-2.1 3.741-3.125 5.37v6.202l-7.813 3.32v-2.539l-2.294-3.32c-.244-.355-.532-.775-.83-1.22v7.226l-9.375-3.516V7.621l1.708.635c.154-1.056.427-2.074.83-3.027l-4.15-1.514Zm15.674.098a6.23 6.23 0 0 1 6.25 6.25c0 .604-.377 2.031-1.074 3.613-.696 1.581-1.68 3.374-2.637 5.03-1.275 2.196-1.825 2.98-2.539 4.055-.714-1.075-1.264-1.859-2.54-4.056-.957-1.655-1.939-3.448-2.636-5.03-.695-1.58-1.074-3.008-1.074-3.613a6.23 6.23 0 0 1 6.25-6.25ZM11.187 7.719v23.193l-7.812 3.32V11.088l7.813-3.37Z" fill="#8C0C27"/></svg>