<svg width="38" height="50" fill="none" xmlns="http://www.w3.org/2000/svg"><path d="M10.813 0A1 1 0 0 0 10 1v4c0 .55.45 1 1 1h1v14.594a1 1 0 0 0 .563.875L20 25.187v1.22l-13.594-3c-.5-.114-.996.198-1.156.687l-.625 1.875-1.031-.282.281-1.03-1.938-.532-1.125 3.938 1.938.562.281-1.031.969.281-.688 2.063c-.085.253-.058.543.063.78a.994.994 0 0 0 .594.5c1.066.329 1.797.884 2.031 1.595.254.773-.137 1.535-.5 2.03-5.95 8.118-2.793 14.063-2.656 14.313a1 1 0 0 0 .625.5c.336.082 1.484.344 2.656.344.828 0 1.664-.148 2.25-.563.484-.343.79-.82.844-1.406.297-3.078.976-3.488 1.656-3.875.457-.261 1.02-.574 1.406-1.343.38-.754.309-1.626.219-2.532-.172-1.754-.3-3.129 2.25-4.031l2.344.5a461.295 461.295 0 0 0-1.719 4.469c-.625 1.656-.406 3.058.031 3.968a4.039 4.039 0 0 0 1.125 1.407c.29.242.688.3 1.032.152a1 1 0 0 0 .125-1.777s-.27-.172-.5-.657c-.231-.484-.391-1.203.062-2.406a955.99 955.99 0 0 1 3.406-8.812A1.741 1.741 0 0 0 22 31.406c0-.972-.777-1.781-1.75-1.781s-1.75.809-1.75 1.781c0 .364.125.692.313.969-.16.406-.614 1.555-.97 2.469l-2.968-.625a.907.907 0 0 0-.5.031c-4.344 1.39-4.055 4.438-3.875 6.25.055.559.117 1.168 0 1.406-.105.211-.215.317-.594.532-1.199.687-2.316 1.613-2.656 5.374-.262.254-1.566.243-2.813 0-.503-1.308-1.695-5.804 2.688-11.78.906-1.235 1.16-2.61.75-3.844-.355-1.075-1.184-1.958-2.375-2.532l1.375-4.093 23.156 5.093-1.25 6.563-7.437-1.594-.625 1.906 7.718 1.657-.03.093a.998.998 0 0 0 .144.758.985.985 0 0 0 .637.43l2.968.562c.063.016.125.028.188.032a1 1 0 0 0 1-.813l.062-.344c.875-.09 1.68-.523 2.344-1.125.914-.828 1.574-2.02 1.844-3.406.27-1.387.101-2.73-.438-3.844-.394-.812-1-1.496-1.781-1.906l.063-.281a1 1 0 0 0-.153-.766 1.028 1.028 0 0 0-.66-.422l-2.969-.562a1.014 1.014 0 0 0-.406 0 .994.994 0 0 0-.75.812l-.063.282-4.437-.97v-2.53l7.438-3.72a.998.998 0 0 0 .562-.874V6h1c.55 0 1-.45 1-1V1c0-.55-.45-1-1-1H10.812ZM12 2h22v2h-2V3h-2v1h-2V3h-2v1h-2V3h-2v1h-2V3h-2v1h-2V3h-2v1h-2V2Zm2 4h18v13.969l-7.438 3.718a.993.993 0 0 0-.562.907v2.687l-2-.437v-2.25a.993.993 0 0 0-.563-.907L14 19.97V6Zm18.25 23.75 1.031.188-1.718 8.937-1.032-.188.032-.093 1.625-8.532.062-.312Zm2.719 2.063c.152.168.289.351.406.593.324.672.473 1.602.281 2.594-.191.992-.695 1.809-1.25 2.313a2.82 2.82 0 0 1-.562.406l1.125-5.907Z" fill="#8C0C27"/></svg>