<svg width="44" height="42" fill="none" xmlns="http://www.w3.org/2000/svg"><path d="M22 0C13.177 0 6 7.175 6 16c0 8.482 6.65 15.371 15 15.898V36H2a1 1 0 1 0 0 2h19.833a.99.99 0 0 0 .326 0H42a1 1 0 1 0 0-2H23v-4.102c8.35-.527 15-7.416 15-15.898 0-8.825-7.176-16-16-16Zm0 2c.682 0 1.346.065 2 .158v5.248C23.339 7.25 22.71 7 22 7c-.708 0-1.337.25-2 .406V2.158A14.09 14.09 0 0 1 22 2Zm-4 .586V8c0 .016.002.031.003.047a8.96 8.96 0 0 0-3.956 3.955.915.915 0 0 0-.046-.002H8.587A13.989 13.989 0 0 1 18 2.586Zm8 0A13.989 13.989 0 0 1 35.416 12H30c-.016 0-.032 0-.047.002a8.959 8.959 0 0 0-3.955-3.955L26 8V2.586ZM22 9c3.878 0 7 3.122 7 7s-3.122 7-7 7c-3.877 0-7-3.122-7-7s3.123-7 7-7ZM8.16 14h5.248c-.156.662-.406 1.291-.406 2 0 .709.25 1.338.406 2H8.159A14.08 14.08 0 0 1 8 16c0-.681.064-1.345.158-2Zm22.435 0h5.248a14.1 14.1 0 0 1 .159 2c0 .681-.065 1.345-.159 2h-5.248c.156-.662.407-1.291.407-2 0-.709-.25-1.338-.407-2Zm-16.547 5.998a8.959 8.959 0 0 0 3.956 3.955A1.05 1.05 0 0 0 18 24v5.402A13.984 13.984 0 0 1 8.585 20H14c.015 0 .03 0 .046-.002Zm15.907 0A.914.914 0 0 0 30 20h5.416A13.985 13.985 0 0 1 26 29.402V24a1.05 1.05 0 0 0-.002-.047 8.958 8.958 0 0 0 3.955-3.955ZM20 24.594c.662.156 1.29.406 2 .406.708 0 1.337-.25 2-.406v5.24c-.626.09-1.26.152-1.91.156a1.001 1.001 0 0 0-.182 0A14.112 14.112 0 0 1 20 29.834v-5.24ZM2 40a1 1 0 1 0 0 2h40a1 1 0 1 0 0-2H2Z" fill="#8C0C27"/></svg>