<svg width="661" height="664" fill="none" xmlns="http://www.w3.org/2000/svg"><path fill-rule="evenodd" clip-rule="evenodd" d="M404.175 587.797c-34.509 9.937-69.944 12.802-105.349 8.561-34.162-4.116-66.795-14.66-97.057-31.39-30.218-16.743-56.546-38.758-78.2-65.5-22.408-27.682-38.826-59.214-48.764-93.723-9.95-34.553-12.814-69.988-8.56-105.348 4.116-34.162 14.704-66.808 31.39-97.058 16.73-30.262 38.758-56.546 65.499-78.199 27.728-22.421 59.26-38.84 93.768-48.777 34.509-9.937 69.944-12.802 105.304-8.548 34.162 4.116 66.84 14.647 97.102 31.377 30.218 16.743 56.546 38.759 78.2 65.5 22.408 27.683 38.826 59.214 48.776 93.768 9.937 34.509 12.802 69.943 8.548 105.304-4.116 34.162-14.704 66.807-31.39 97.057-16.73 30.262-38.803 56.559-65.544 78.213-27.683 22.407-59.215 38.826-93.723 48.763ZM257.031 76.809C116.276 117.34 34.707 264.817 75.251 405.617c40.532 140.754 188.04 222.266 328.795 181.734C544.801 546.82 626.37 399.343 585.839 258.588c-40.545-140.799-188.053-222.31-328.808-181.78Z" fill="url(#a)"/><path fill-rule="evenodd" clip-rule="evenodd" d="M348.733 67.301c132.458 9.126 232.038 135.291 221.984 281.294C560.664 494.598 444.758 605.997 312.3 596.872 179.899 587.778 80.306 461.568 90.36 315.565 100.413 169.563 216.319 58.163 348.733 67.301Zm-36.457 530.495c32.508 2.227 64.574-2.613 95.255-14.441 29.649-11.387 56.743-28.797 80.569-51.688 23.839-22.846 43.176-50.092 57.49-80.866 14.802-31.928 23.596-66.278 26.064-102.138 2.469-35.86-1.549-71.108-11.848-104.692-9.933-32.482-25.373-62.123-45.827-88.051-20.498-25.915-44.963-46.825-72.712-62.203-28.814-15.892-59.902-25.094-92.466-27.353-32.552-2.214-64.618 2.626-95.299 14.454-29.605 11.374-56.699 28.784-80.525 51.675-23.839 22.846-43.176 50.093-57.477 80.911-14.815 31.883-23.609 66.233-26.077 102.093-2.469 35.86 1.505 71.121 11.848 104.692 9.933 32.482 25.373 62.123 45.827 88.051 20.454 25.928 44.919 46.838 72.712 62.203 28.769 15.905 59.902 25.094 92.466 27.353Z" fill="url(#b)"/><path fill-rule="evenodd" clip-rule="evenodd" d="M345.349 116.751c145.901 10.034 257.908 114.805 249.749 233.514-8.192 118.767-133.514 207.192-279.37 197.145C169.827 537.375 57.82 432.605 65.979 313.895c8.147-118.754 133.514-207.192 279.37-197.144Zm236.015 147.761c-11.61-26.737-29.231-51.211-52.289-72.768-23.071-21.602-50.435-39.166-81.333-52.237-32.009-13.572-66.402-21.677-102.307-24.133-35.86-2.469-71.064.861-104.625 9.898-32.402 8.702-61.926 22.37-87.731 40.568-25.792 18.242-46.58 40.113-61.78 64.961-15.694 25.812-24.705 53.707-26.71 82.963-1.99 29.302 3.085 58.161 15.124 85.885 11.61 26.736 29.231 51.21 52.289 72.767 23.026 21.615 50.39 39.18 81.333 52.238 32.009 13.572 66.402 21.677 102.307 24.133 35.86 2.468 71.064-.862 104.625-9.898 32.402-8.703 61.926-22.371 87.731-40.569 25.792-18.242 46.593-40.068 61.78-64.961 15.694-25.812 24.705-53.706 26.709-82.963 1.992-29.301-3.084-58.161-15.123-85.884Z" fill="url(#c)"/><path fill-rule="evenodd" clip-rule="evenodd" d="M181.094 155.986c57.297-23.017 126.7-26.297 195.437-9.251 68.75 17.09 128.565 52.445 168.437 99.53 39.815 47.052 54.972 100.192 42.704 149.64-12.267 49.449-50.512 89.335-107.689 112.269-57.297 23.018-126.7 26.297-195.437 9.251-68.75-17.09-128.565-52.445-168.437-99.529-39.814-47.053-55.016-100.179-42.749-149.628 12.268-49.449 50.526-89.29 107.734-112.282Zm406.105 162.322c-7.535-25.496-21.244-50.132-40.787-73.232-19.53-23.055-43.886-43.418-72.358-60.47-29.506-17.625-62.17-30.959-97.068-39.644-34.942-8.671-70.072-12.122-104.361-10.311-33.143 1.77-64.179 8.341-92.223 19.603-28.088 11.275-51.72 26.626-70.321 45.695-19.276 19.745-32.204 42.588-38.493 67.864-6.276 25.32-5.527 51.563 2.29 78.04 7.535 25.496 21.244 50.131 40.787 73.231 19.53 23.056 43.886 43.418 72.358 60.471 29.506 17.624 62.17 30.959 97.068 39.643 34.942 8.671 70.027 12.136 104.361 10.312 33.156-1.726 64.179-8.342 92.223-19.604 28.088-11.275 51.72-26.626 70.321-45.694 19.276-19.746 32.205-42.588 38.493-67.864 6.276-25.321 5.483-51.551-2.29-78.04Z" fill="url(#d)"/><path fill-rule="evenodd" clip-rule="evenodd" d="M206.82 148.916c58.488-8.489 126.352 2.676 191.067 31.405 64.714 28.73 118.522 71.56 151.483 120.635 32.853 48.864 41.081 98.06 23.135 138.522-17.945 40.461-59.971 67.386-118.248 75.766-58.532 8.502-126.352-2.676-191.067-31.405-64.714-28.73-118.522-71.56-151.483-120.634-32.853-48.865-41.08-98.061-23.135-138.522 17.945-40.462 59.971-67.386 118.248-75.767Zm375.168 222.892c-4.198-23.801-14.515-48.061-30.683-72.182-16.142-24.031-37.335-46.656-62.972-67.277-26.473-21.346-56.586-39.568-89.507-54.133-32.89-14.621-66.599-24.71-100.21-30.096-32.475-5.133-63.436-5.68-92.126-1.523-28.689 4.157-53.628 12.787-74.072 25.627-21.258 13.364-36.703 30.654-45.951 51.52-9.262 20.821-11.731 43.935-7.378 68.609 4.153 23.814 14.515 48.061 30.683 72.181 16.142 24.032 37.335 46.657 62.927 67.291 26.518 21.333 56.631 39.555 89.508 54.132 32.934 14.609 66.656 24.742 100.254 30.083 32.43 5.146 63.436 5.681 92.126 1.523 28.689-4.157 53.628-12.787 74.072-25.627 21.227-13.306 36.703-30.654 45.951-51.519 9.262-20.821 11.731-43.935 7.378-68.609Z" fill="url(#e)"/><path fill-rule="evenodd" clip-rule="evenodd" d="M409.316 214.98c121.021 81.414 184.094 200.179 140.642 264.739-43.439 64.605-177.219 50.887-298.196-30.539C130.74 367.766 67.667 249.001 111.119 184.44c43.439-64.604 177.219-50.887 298.197 30.54Zm156.82 207.743c-1.626-21.742-9.08-45.281-22.126-69.962-26.732-50.579-74.028-100.306-133.131-140.066-59.117-39.805-123.015-64.859-179.944-70.578-27.742-2.779-52.332-.816-73.107 5.843-21.609 6.946-38.117 18.701-49.038 34.93-10.922 16.23-15.585 35.919-13.893 58.56 1.67 21.728 9.124 45.268 22.17 69.949 26.732 50.579 74.028 100.306 133.131 140.066 59.117 39.805 123.015 64.858 179.9 70.591 27.786 2.765 52.376.803 73.151-5.856 21.609-6.947 38.117-18.701 49.038-34.93 10.922-16.23 15.585-35.92 13.849-58.547Z" fill="url(#f)"/><path fill-rule="evenodd" clip-rule="evenodd" d="M523.187 517.701c-11.339 11.763-27.507 18.157-48.014 19.041-19.563.805-42.324-3.456-67.625-12.683-51.834-18.871-108.632-56.495-159.904-105.946-51.317-49.438-91.009-104.782-111.846-155.851-10.128-24.942-15.228-47.518-15.135-67.147.085-20.496 5.901-36.849 17.227-48.656 11.339-11.763 27.507-18.157 47.969-19.028 19.608-.818 42.369 3.443 67.67 12.67 51.834 18.871 108.588 56.508 159.904 105.946 51.317 49.437 91.009 104.782 111.802 155.864 10.172 24.929 15.273 47.505 15.179 67.134-.085 20.496-5.888 36.893-17.227 48.656ZM140.234 148.729c-10.741 11.156-16.234 26.788-16.327 46.417-.075 19.19 4.91 41.364 14.922 65.905 20.62 50.649 60.062 105.631 111.041 154.732 50.991 49.145 107.374 86.502 158.787 105.253 24.867 9.062 47.22 13.247 66.401 12.456 19.653-.831 35.044-6.905 45.785-18.061 10.741-11.156 16.247-26.743 16.327-46.417.075-19.19-4.954-41.351-14.922-65.905-20.62-50.649-60.062-105.631-111.04-154.732-50.992-49.145-107.375-86.502-158.788-105.253-24.912-9.049-47.22-13.248-66.401-12.456-19.653.831-35.044 6.905-45.785 18.061Z" fill="url(#g)"/><path fill-rule="evenodd" clip-rule="evenodd" d="M488.167 548.499c-20.834 15.173-56.764 6.593-101.293-24.135-43.929-30.321-91.235-78.742-133.168-136.337-41.921-57.552-73.509-117.451-88.91-168.588-15.537-51.775-12.675-88.617 8.114-103.777 20.834-15.173 56.764-6.593 101.293 24.135 43.929 30.321 91.235 78.741 133.168 136.337 41.921 57.551 73.509 117.45 88.866 168.601 15.581 51.761 12.719 88.604-8.07 103.764ZM175.121 118.646c-9.691 7.088-15.197 19.489-16.27 36.89-1.061 17.107 2.131 38.253 9.499 62.831 15.299 50.781 46.669 110.26 88.353 167.493 41.684 57.233 88.664 105.361 132.293 135.479 21.132 14.531 40.252 24.089 56.875 28.331 16.93 4.299 30.38 2.888 40.085-4.156 9.691-7.087 15.197-19.488 16.27-36.889 1.061-17.107-2.131-38.253-9.543-62.819-15.242-50.749-46.612-110.228-88.309-167.505-41.684-57.233-88.664-105.361-132.293-135.479-21.132-14.531-40.252-24.09-56.92-28.319-16.885-4.311-30.335-2.9-40.04 4.143Z" fill="url(#h)"/><path fill-rule="evenodd" clip-rule="evenodd" d="M448.277 572.78c-9.009 4.429-20.861 2-35.181-7.154-13.376-8.557-28.548-22.68-45.075-42.013-33.796-39.564-69.616-96.555-100.92-160.495-31.258-63.953-54.263-127.241-64.737-178.204-5.093-24.895-6.984-45.546-5.507-61.374 1.584-16.968 6.921-27.775 15.943-32.16 9.009-4.428 20.861-2 35.181 7.154 13.376 8.557 28.548 22.68 45.075 42.014 33.796 39.564 69.616 96.554 100.92 160.494 31.258 63.953 54.263 127.241 64.737 178.204 5.106 24.94 6.984 45.547 5.507 61.374-1.584 16.969-6.921 27.776-15.943 32.16ZM214.643 95.098c-15.273 7.489-18.246 39.921-8.177 88.973 10.372 50.606 33.274 113.538 64.398 177.191 31.125 63.654 66.766 120.358 100.338 159.648 32.537 38.044 59.946 55.596 75.232 48.152 15.274-7.488 18.246-39.92 8.177-88.972-10.372-50.607-33.274-113.538-64.398-177.192-31.124-63.653-66.766-120.357-100.338-159.648-32.537-38.043-59.946-55.595-75.232-48.152Z" fill="url(#i)"/><path fill-rule="evenodd" clip-rule="evenodd" d="M404.752 589.804c-6.776 1.951-14.869-3.347-24.691-16.162-8.787-11.568-18.688-28.851-29.403-51.306-21.911-46.077-44.793-109.11-64.475-177.459-19.695-68.393-33.839-133.943-39.788-184.616-2.868-24.715-3.674-44.617-2.385-59.086 1.503-16.076 5.538-24.867 12.315-26.818 6.777-1.952 14.869 3.347 24.646 16.174 8.832 11.556 18.733 28.838 29.448 51.294 21.866 46.089 44.793 109.11 64.488 177.503 19.682 68.349 33.781 133.911 39.775 184.571 2.881 24.76 3.674 44.617 2.34 59.099-1.458 16.064-5.493 24.854-12.27 26.806ZM257.608 78.815c-4.547 1.31-7.717 9.416-8.945 22.758-1.321 14.189-.516 33.753 2.364 58.175 5.917 50.392 19.984 115.675 39.614 183.845 19.618 68.126 42.424 130.892 64.225 176.758 10.536 22.169 20.259 39.165 28.924 50.479 8.135 10.645 15.131 15.825 19.679 14.515 4.547-1.309 7.717-9.416 8.945-22.758 1.321-14.189.516-33.753-2.351-58.13-5.93-50.437-19.997-115.719-39.615-183.845-19.63-68.171-42.435-130.937-64.225-176.758-10.548-22.214-20.271-39.21-28.936-50.524-8.135-10.645-15.131-15.824-19.679-14.515Z" fill="url(#j)"/><defs><linearGradient id="a" x1="488.902" y1="93.895" x2="223.145" y2="469.77" gradientUnits="userSpaceOnUse"><stop stop-color="#fff"/><stop offset="1" stop-color="#fff" stop-opacity=".3"/></linearGradient><linearGradient id="b" x1="472.529" y1="100.394" x2="208.614" y2="446.517" gradientUnits="userSpaceOnUse"><stop stop-color="#fff"/><stop offset="1" stop-color="#fff" stop-opacity=".3"/></linearGradient><linearGradient id="c" x1="493.32" y1="123.378" x2="276.494" y2="486.438" gradientUnits="userSpaceOnUse"><stop stop-color="#fff"/><stop offset="1" stop-color="#fff" stop-opacity=".3"/></linearGradient><linearGradient id="d" x1="486.631" y1="132.443" x2="279.519" y2="480.21" gradientUnits="userSpaceOnUse"><stop stop-color="#fff"/><stop offset="1" stop-color="#fff" stop-opacity=".3"/></linearGradient><linearGradient id="e" x1="471.502" y1="136.07" x2="259.138" y2="461.21" gradientUnits="userSpaceOnUse"><stop stop-color="#fff"/><stop offset="1" stop-color="#fff" stop-opacity=".3"/></linearGradient><linearGradient id="f" x1="448.112" y1="135.551" x2="223.246" y2="424.289" gradientUnits="userSpaceOnUse"><stop stop-color="#fff"/><stop offset="1" stop-color="#fff" stop-opacity=".3"/></linearGradient><linearGradient id="g" x1="417.746" y1="133.728" x2="189.276" y2="366.773" gradientUnits="userSpaceOnUse"><stop stop-color="#fff"/><stop offset="1" stop-color="#fff" stop-opacity=".3"/></linearGradient><linearGradient id="h" x1="382.56" y1="133.454" x2="175.376" y2="295.696" gradientUnits="userSpaceOnUse"><stop stop-color="#fff"/><stop offset="1" stop-color="#fff" stop-opacity=".3"/></linearGradient><linearGradient id="i" x1="345.746" y1="136.501" x2="190.274" y2="227.426" gradientUnits="userSpaceOnUse"><stop stop-color="#fff"/><stop offset="1" stop-color="#fff" stop-opacity=".3"/></linearGradient><linearGradient id="j" x1="315.281" y1="142.38" x2="222.65" y2="183.444" gradientUnits="userSpaceOnUse"><stop stop-color="#fff"/><stop offset="1" stop-color="#fff" stop-opacity=".3"/></linearGradient></defs></svg>