<svg width="150" height="149" fill="none" xmlns="http://www.w3.org/2000/svg"><path opacity=".2" d="M19.965 12.466a3.173 3.173 0 1 0-4.487 4.488 3.173 3.173 0 0 0 4.487-4.488Zm38.569 0a3.173 3.173 0 1 0-4.487 4.488 3.173 3.173 0 0 0 4.487-4.488Zm38.569 0a3.173 3.173 0 1 0-4.487 4.488 3.173 3.173 0 0 0 4.487-4.488Z" fill="#5472D3" stroke="#5472D3" stroke-width=".5"/><g opacity=".2" filter="url(#a)"><path opacity=".2" d="M135.345 12.794a2.71 2.71 0 1 0-3.832 3.831 2.71 2.71 0 0 0 3.832-3.831Z" fill="#5472D3"/><path opacity=".2" d="M135.542 12.597a2.989 2.989 0 1 0-4.226 4.227 2.989 2.989 0 0 0 4.226-4.227Z" stroke="#5472D3" stroke-width=".3"/></g><path opacity=".2" d="M19.965 51.036a3.173 3.173 0 1 0-4.487 4.487 3.173 3.173 0 0 0 4.487-4.487Zm38.569 0a3.173 3.173 0 1 0-4.487 4.487 3.173 3.173 0 0 0 4.487-4.487Z" fill="#5472D3" stroke="#5472D3" stroke-width=".5"/><g opacity=".2" filter="url(#b)"><path opacity=".2" d="M96.776 51.363a2.71 2.71 0 1 0-3.833 3.833 2.71 2.71 0 0 0 3.833-3.833Z" fill="#5472D3"/><path opacity=".2" d="M96.972 51.167a2.988 2.988 0 1 0-4.225 4.225 2.988 2.988 0 0 0 4.225-4.225Z" stroke="#5472D3" stroke-width=".3"/></g><g filter="url(#c)"><path d="M135.345 51.363a2.71 2.71 0 1 0-3.832 3.831 2.71 2.71 0 0 0 3.832-3.83Z" fill="#5472D3"/><path d="M136.131 50.577a3.821 3.821 0 1 0-5.404 5.405 3.821 3.821 0 0 0 5.404-5.405Z" stroke="#5472D3" stroke-width="1.2"/></g><g opacity=".2" filter="url(#d)"><path opacity=".2" d="M19.638 89.933a2.71 2.71 0 1 0-3.833 3.833 2.71 2.71 0 0 0 3.833-3.833Z" fill="#5472D3"/><path opacity=".2" d="M19.834 89.736a2.988 2.988 0 1 0-4.225 4.226 2.988 2.988 0 0 0 4.225-4.226Z" stroke="#5472D3" stroke-width=".3"/></g><g opacity=".2" filter="url(#e)"><path opacity=".2" d="M58.207 89.933a2.71 2.71 0 1 0-3.833 3.833 2.71 2.71 0 0 0 3.833-3.833Z" fill="#5472D3"/><path opacity=".2" d="M58.403 89.736a2.988 2.988 0 1 0-4.225 4.226 2.988 2.988 0 0 0 4.225-4.226Z" stroke="#5472D3" stroke-width=".3"/></g><g filter="url(#f)"><path d="M96.776 89.933a2.71 2.71 0 1 0-3.833 3.832 2.71 2.71 0 0 0 3.833-3.832Z" fill="#5472D3"/><path d="M97.103 89.605a3.173 3.173 0 1 0-4.487 4.488 3.173 3.173 0 0 0 4.487-4.488Z" stroke="#5472D3" stroke-width=".5"/></g><g filter="url(#g)"><path d="M135.345 89.933a2.71 2.71 0 1 0-3.832 3.831 2.71 2.71 0 0 0 3.832-3.831Z" fill="#5472D3"/><path d="M136.131 89.147a3.821 3.821 0 1 0-5.404 5.404 3.821 3.821 0 0 0 5.404-5.404Z" stroke="#5472D3" stroke-width="1.2"/></g><g opacity=".2" filter="url(#h)"><path opacity=".2" d="M19.638 128.502a2.71 2.71 0 1 0-3.833 3.834 2.71 2.71 0 0 0 3.833-3.834Z" fill="#5472D3"/><path opacity=".2" d="M19.834 128.306a2.987 2.987 0 1 0-4.225 4.224 2.987 2.987 0 0 0 4.225-4.224Z" stroke="#5472D3" stroke-width=".3"/></g><g filter="url(#i)"><path d="M58.207 128.502a2.71 2.71 0 1 0-3.833 3.834 2.71 2.71 0 0 0 3.833-3.834Z" fill="#5472D3"/><path d="M58.992 127.717a3.822 3.822 0 1 0-5.403 5.405 3.822 3.822 0 0 0 5.404-5.405Z" stroke="#5472D3" stroke-width="1.2"/></g><path opacity=".2" d="M39.565 31.436a3.173 3.173 0 1 0-4.488 4.487 3.173 3.173 0 0 0 4.488-4.487Zm0 38.569a3.173 3.173 0 1 0-4.488 4.488 3.173 3.173 0 0 0 4.488-4.487Z" fill="#5472D3" stroke="#5472D3" stroke-width=".5"/><path opacity=".2" d="M39.434 108.706a2.987 2.987 0 1 0-4.226 4.224 2.987 2.987 0 0 0 4.226-4.224Z" fill="#5472D3" stroke="#5472D3" stroke-width=".3"/><path opacity=".2" d="M77.504 31.436a3.173 3.173 0 1 0-4.487 4.487 3.173 3.173 0 0 0 4.487-4.487Zm0 38.569a3.173 3.173 0 1 0-4.487 4.488 3.173 3.173 0 0 0 4.487-4.487Z" fill="#5472D3" stroke="#5472D3" stroke-width=".5"/><path opacity=".2" d="M77.373 108.706a2.987 2.987 0 1 0-4.226 4.224 2.987 2.987 0 0 0 4.226-4.224Z" fill="#5472D3" stroke="#5472D3" stroke-width=".3"/><path opacity=".2" d="M115.443 31.436a3.173 3.173 0 1 0-4.487 4.486 3.173 3.173 0 0 0 4.487-4.486Z" fill="#5472D3" stroke="#5472D3" stroke-width=".5"/><path opacity=".2" d="M115.312 70.136a2.987 2.987 0 1 0-4.225 4.225 2.987 2.987 0 0 0 4.225-4.225Z" fill="#5472D3" stroke="#5472D3" stroke-width=".3"/><path d="M115.443 108.575a3.173 3.173 0 1 0-4.487 4.487 3.173 3.173 0 0 0 4.487-4.487Z" fill="#5472D3" stroke="#5472D3" stroke-width=".5"/><g filter="url(#j)"><path d="M96.776 128.502a2.71 2.71 0 1 0-3.833 3.834 2.71 2.71 0 0 0 3.833-3.834Z" fill="#5472D3"/><path d="M97.561 127.717a3.821 3.821 0 1 0-5.403 5.405 3.821 3.821 0 0 0 5.403-5.405Z" stroke="#5472D3" stroke-width="1.2"/></g><g filter="url(#k)"><path d="M135.345 128.502a2.71 2.71 0 1 0-3.832 3.833 2.71 2.71 0 0 0 3.832-3.833Z" fill="#5472D3"/><path d="M136.131 127.717a3.822 3.822 0 1 0-5.404 5.405 3.822 3.822 0 0 0 5.404-5.405Z" stroke="#5472D3" stroke-width="1.2"/></g><defs><filter id="a" x="126.291" y="7.572" width="14.275" height="14.275" filterUnits="userSpaceOnUse" color-interpolation-filters="sRGB"><feFlood flood-opacity="0" result="BackgroundImageFix"/><feColorMatrix in="SourceAlpha" values="0 0 0 0 0 0 0 0 0 0 0 0 0 0 0 0 0 0 127 0" result="hardAlpha"/><feOffset/><feGaussianBlur stdDeviation="2"/><feColorMatrix values="0 0 0 0 0.980392 0 0 0 0 0.835294 0 0 0 0 0.752941 0 0 0 0.8 0"/><feBlend in2="BackgroundImageFix" result="effect1_dropShadow_1_3229"/><feBlend in="SourceGraphic" in2="effect1_dropShadow_1_3229" result="shape"/></filter><filter id="b" x="87.722" y="46.142" width="14.275" height="14.275" filterUnits="userSpaceOnUse" color-interpolation-filters="sRGB"><feFlood flood-opacity="0" result="BackgroundImageFix"/><feColorMatrix in="SourceAlpha" values="0 0 0 0 0 0 0 0 0 0 0 0 0 0 0 0 0 0 127 0" result="hardAlpha"/><feOffset/><feGaussianBlur stdDeviation="2"/><feColorMatrix values="0 0 0 0 0.980392 0 0 0 0 0.835294 0 0 0 0 0.752941 0 0 0 0.8 0"/><feBlend in2="BackgroundImageFix" result="effect1_dropShadow_1_3229"/><feBlend in="SourceGraphic" in2="effect1_dropShadow_1_3229" result="shape"/></filter><filter id="c" x="125.008" y="44.858" width="16.842" height="16.842" filterUnits="userSpaceOnUse" color-interpolation-filters="sRGB"><feFlood flood-opacity="0" result="BackgroundImageFix"/><feColorMatrix in="SourceAlpha" values="0 0 0 0 0 0 0 0 0 0 0 0 0 0 0 0 0 0 127 0" result="hardAlpha"/><feOffset/><feGaussianBlur stdDeviation="2"/><feColorMatrix values="0 0 0 0 0.980392 0 0 0 0 0.835294 0 0 0 0 0.752941 0 0 0 0.8 0"/><feBlend in2="BackgroundImageFix" result="effect1_dropShadow_1_3229"/><feBlend in="SourceGraphic" in2="effect1_dropShadow_1_3229" result="shape"/></filter><filter id="d" x="10.584" y="85.711" width="14.275" height="14.275" filterUnits="userSpaceOnUse" color-interpolation-filters="sRGB"><feFlood flood-opacity="0" result="BackgroundImageFix"/><feColorMatrix in="SourceAlpha" values="0 0 0 0 0 0 0 0 0 0 0 0 0 0 0 0 0 0 127 0" result="hardAlpha"/><feOffset dy="1"/><feGaussianBlur stdDeviation="2"/><feColorMatrix values="0 0 0 0 1 0 0 0 0 1 0 0 0 0 1 0 0 0 0.25 0"/><feBlend in2="BackgroundImageFix" result="effect1_dropShadow_1_3229"/><feBlend in="SourceGraphic" in2="effect1_dropShadow_1_3229" result="shape"/></filter><filter id="e" x="49.153" y="84.711" width="14.275" height="14.275" filterUnits="userSpaceOnUse" color-interpolation-filters="sRGB"><feFlood flood-opacity="0" result="BackgroundImageFix"/><feColorMatrix in="SourceAlpha" values="0 0 0 0 0 0 0 0 0 0 0 0 0 0 0 0 0 0 127 0" result="hardAlpha"/><feOffset/><feGaussianBlur stdDeviation="2"/><feColorMatrix values="0 0 0 0 0.980392 0 0 0 0 0.835294 0 0 0 0 0.752941 0 0 0 0.8 0"/><feBlend in2="BackgroundImageFix" result="effect1_dropShadow_1_3229"/><feBlend in="SourceGraphic" in2="effect1_dropShadow_1_3229" result="shape"/></filter><filter id="f" x="87.437" y="84.426" width="14.846" height="14.846" filterUnits="userSpaceOnUse" color-interpolation-filters="sRGB"><feFlood flood-opacity="0" result="BackgroundImageFix"/><feColorMatrix in="SourceAlpha" values="0 0 0 0 0 0 0 0 0 0 0 0 0 0 0 0 0 0 127 0" result="hardAlpha"/><feOffset/><feGaussianBlur stdDeviation="2"/><feColorMatrix values="0 0 0 0 0.980392 0 0 0 0 0.835294 0 0 0 0 0.752941 0 0 0 0.8 0"/><feBlend in2="BackgroundImageFix" result="effect1_dropShadow_1_3229"/><feBlend in="SourceGraphic" in2="effect1_dropShadow_1_3229" result="shape"/></filter><filter id="g" x="125.008" y="84.428" width="16.842" height="16.842" filterUnits="userSpaceOnUse" color-interpolation-filters="sRGB"><feFlood flood-opacity="0" result="BackgroundImageFix"/><feColorMatrix in="SourceAlpha" values="0 0 0 0 0 0 0 0 0 0 0 0 0 0 0 0 0 0 127 0" result="hardAlpha"/><feOffset dy="1"/><feGaussianBlur stdDeviation="2"/><feColorMatrix values="0 0 0 0 1 0 0 0 0 1 0 0 0 0 1 0 0 0 0.25 0"/><feBlend in2="BackgroundImageFix" result="effect1_dropShadow_1_3229"/><feBlend in="SourceGraphic" in2="effect1_dropShadow_1_3229" result="shape"/></filter><filter id="h" x="10.584" y="124.281" width="14.275" height="14.275" filterUnits="userSpaceOnUse" color-interpolation-filters="sRGB"><feFlood flood-opacity="0" result="BackgroundImageFix"/><feColorMatrix in="SourceAlpha" values="0 0 0 0 0 0 0 0 0 0 0 0 0 0 0 0 0 0 127 0" result="hardAlpha"/><feOffset dy="1"/><feGaussianBlur stdDeviation="2"/><feColorMatrix values="0 0 0 0 1 0 0 0 0 1 0 0 0 0 1 0 0 0 0.25 0"/><feBlend in2="BackgroundImageFix" result="effect1_dropShadow_1_3229"/><feBlend in="SourceGraphic" in2="effect1_dropShadow_1_3229" result="shape"/></filter><filter id="i" x="47.87" y="122.998" width="16.842" height="16.842" filterUnits="userSpaceOnUse" color-interpolation-filters="sRGB"><feFlood flood-opacity="0" result="BackgroundImageFix"/><feColorMatrix in="SourceAlpha" values="0 0 0 0 0 0 0 0 0 0 0 0 0 0 0 0 0 0 127 0" result="hardAlpha"/><feOffset dy="1"/><feGaussianBlur stdDeviation="2"/><feColorMatrix values="0 0 0 0 1 0 0 0 0 1 0 0 0 0 1 0 0 0 0.25 0"/><feBlend in2="BackgroundImageFix" result="effect1_dropShadow_1_3229"/><feBlend in="SourceGraphic" in2="effect1_dropShadow_1_3229" result="shape"/></filter><filter id="j" x="86.439" y="122.998" width="16.842" height="16.842" filterUnits="userSpaceOnUse" color-interpolation-filters="sRGB"><feFlood flood-opacity="0" result="BackgroundImageFix"/><feColorMatrix in="SourceAlpha" values="0 0 0 0 0 0 0 0 0 0 0 0 0 0 0 0 0 0 127 0" result="hardAlpha"/><feOffset dy="1"/><feGaussianBlur stdDeviation="2"/><feColorMatrix values="0 0 0 0 1 0 0 0 0 1 0 0 0 0 1 0 0 0 0.25 0"/><feBlend in2="BackgroundImageFix" result="effect1_dropShadow_1_3229"/><feBlend in="SourceGraphic" in2="effect1_dropShadow_1_3229" result="shape"/></filter><filter id="k" x="125.008" y="122.998" width="16.842" height="16.842" filterUnits="userSpaceOnUse" color-interpolation-filters="sRGB"><feFlood flood-opacity="0" result="BackgroundImageFix"/><feColorMatrix in="SourceAlpha" values="0 0 0 0 0 0 0 0 0 0 0 0 0 0 0 0 0 0 127 0" result="hardAlpha"/><feOffset dy="1"/><feGaussianBlur stdDeviation="2"/><feColorMatrix values="0 0 0 0 1 0 0 0 0 1 0 0 0 0 1 0 0 0 0.25 0"/><feBlend in2="BackgroundImageFix" result="effect1_dropShadow_1_3229"/><feBlend in="SourceGraphic" in2="effect1_dropShadow_1_3229" result="shape"/></filter></defs></svg>