<svg width="150" height="152" fill="none" xmlns="http://www.w3.org/2000/svg"><g filter="url(#a)"><path d="M50.733 135.649a2.458 2.458 0 1 0-1.748 4.593 2.458 2.458 0 0 0 1.748-4.593Z" fill="#5472D3"/><path d="M51.047 134.824a3.34 3.34 0 1 0-2.375 6.245 3.34 3.34 0 0 0 2.375-6.245Z" stroke="#5472D3"/></g><path opacity=".2" d="M74.118 28.016a3.113 3.113 0 1 0 0-6.226 3.113 3.113 0 0 0 0 6.226Zm0 98.854a3.113 3.113 0 1 0 0-6.226 3.113 3.113 0 0 0 0 6.226ZM26.026 76.108a3.113 3.113 0 1 0 0-6.226 3.113 3.113 0 0 0 0 6.225Zm96.183 0a3.112 3.112 0 1 0 0-6.225 3.112 3.112 0 0 0 0 6.225Z" fill="#5472D3" stroke="#5472D3" stroke-width=".5"/><g filter="url(#b)"><path d="M134.474 95.877a2.672 2.672 0 1 0 4.994 1.9 2.672 2.672 0 0 0-4.994-1.9Z" fill="#5472D3"/><path d="M133.649 95.564a3.554 3.554 0 1 0 6.644 2.527 3.554 3.554 0 0 0-6.644-2.527Z" stroke="#5472D3"/></g><g filter="url(#c)"><path d="M9.622 48.368a2.672 2.672 0 1 0 4.994 1.9 2.672 2.672 0 0 0-4.994-1.9Z" fill="#5472D3"/><path d="M8.797 48.055a3.554 3.554 0 1 0 6.644 2.527 3.554 3.554 0 0 0-6.644-2.527Z" stroke="#5472D3"/></g><g filter="url(#d)"><path d="M99.25 8.15a2.672 2.672 0 1 0-1.9 4.994 2.672 2.672 0 0 0 1.9-4.994Z" fill="#5472D3"/><path d="M99.564 7.325a3.554 3.554 0 1 0-2.528 6.643 3.554 3.554 0 0 0 2.528-6.643Z" stroke="#5472D3"/></g><g filter="url(#e)"><path d="M100.797 131.574a2.673 2.673 0 1 0 2.189 4.877 2.673 2.673 0 0 0-2.189-4.877Z" fill="#5472D3"/><path d="M100.435 130.769a3.555 3.555 0 1 0 2.912 6.486 3.555 3.555 0 0 0-2.912-6.486Z" stroke="#5472D3"/></g><g filter="url(#f)"><path d="M46.107 9.696a2.672 2.672 0 1 0 2.187 4.875 2.672 2.672 0 0 0-2.187-4.875Z" fill="#5472D3"/><path d="M46.107 9.696a2.672 2.672 0 1 0 2.187 4.875 2.672 2.672 0 0 0-2.187-4.875Z" stroke="#5472D3"/></g><g filter="url(#g)"><path d="M16.044 99.324a2.672 2.672 0 1 0-4.875 2.188 2.672 2.672 0 0 0 4.875-2.188Z" fill="#5472D3"/><path d="M16.849 98.963a3.554 3.554 0 1 0-6.486 2.91 3.554 3.554 0 0 0 6.486-2.91Z" stroke="#5472D3"/></g><g filter="url(#h)"><path d="M137.921 44.634a2.671 2.671 0 1 0-4.875 2.187 2.671 2.671 0 0 0 4.875-2.187Z" fill="#5472D3"/><path d="M138.726 44.273a3.553 3.553 0 1 0-6.485 2.91 3.555 3.555 0 0 0 6.485-2.91Z" stroke="#5472D3"/></g><path opacity=".2" d="M100.57 72.995a2.936 2.936 0 1 0 5.872 0 2.936 2.936 0 0 0-5.872 0ZM74.118 46.542a2.936 2.936 0 1 0 0-5.873 2.936 2.936 0 0 0 0 5.873Zm0 58.778a2.937 2.937 0 1 0 0-5.873 2.937 2.937 0 0 0 0 5.873ZM41.792 72.995a2.936 2.936 0 1 0 5.873 0 2.936 2.936 0 0 0-5.873 0ZM93.01 91.886a2.672 2.672 0 1 0 3.778 3.779 2.672 2.672 0 0 0-3.778-3.779ZM51.447 50.324a2.672 2.672 0 1 0 3.778 3.778 2.672 2.672 0 0 0-3.778-3.778Zm3.966 41.375a2.936 2.936 0 1 1-4.153 4.153 2.936 2.936 0 0 1 4.153-4.153Zm41.562-41.562a2.936 2.936 0 1 1-4.152 4.152 2.936 2.936 0 0 1 4.152-4.152Z" fill="#5472D3" stroke="#5472D3" stroke-width=".3"/><path d="M84.809 72.994a1.554 1.554 0 1 0 3.108 0 1.554 1.554 0 0 0-3.108 0ZM74.118 62.303a1.554 1.554 0 1 0 0-3.108 1.554 1.554 0 0 0 0 3.108Zm0 24.491a1.554 1.554 0 1 0 0-3.108 1.554 1.554 0 0 0 0 3.108Zm-13.8-13.8a1.554 1.554 0 1 0 3.109 0 1.554 1.554 0 0 0-3.109 0Zm21.359 7.56a1.555 1.555 0 1 0 2.199 2.199 1.555 1.555 0 0 0-2.199-2.199ZM64.36 63.236a1.555 1.555 0 1 0 2.199 2.199 1.555 1.555 0 0 0-2.199-2.199Zm2.198 17.318a1.555 1.555 0 1 1-2.199 2.199 1.555 1.555 0 0 1 2.199-2.199Zm17.318-17.318a1.555 1.555 0 1 1-2.199 2.199 1.555 1.555 0 0 1 2.199-2.199Z" fill="#5472D3" stroke="#5472D3" stroke-width=".5"/><defs><filter id="a" x="42.018" y="131.105" width="15.683" height="15.683" filterUnits="userSpaceOnUse" color-interpolation-filters="sRGB"><feFlood flood-opacity="0" result="BackgroundImageFix"/><feColorMatrix in="SourceAlpha" values="0 0 0 0 0 0 0 0 0 0 0 0 0 0 0 0 0 0 127 0" result="hardAlpha"/><feOffset dy="1"/><feGaussianBlur stdDeviation="2"/><feColorMatrix values="0 0 0 0 1 0 0 0 0 1 0 0 0 0 1 0 0 0 0.25 0"/><feBlend in2="BackgroundImageFix" result="effect1_dropShadow_1_3184"/><feBlend in="SourceGraphic" in2="effect1_dropShadow_1_3184" result="shape"/></filter><filter id="b" x="128.916" y="89.772" width="16.11" height="16.11" filterUnits="userSpaceOnUse" color-interpolation-filters="sRGB"><feFlood flood-opacity="0" result="BackgroundImageFix"/><feColorMatrix in="SourceAlpha" values="0 0 0 0 0 0 0 0 0 0 0 0 0 0 0 0 0 0 127 0" result="hardAlpha"/><feOffset dy="1"/><feGaussianBlur stdDeviation="2"/><feColorMatrix values="0 0 0 0 1 0 0 0 0 1 0 0 0 0 1 0 0 0 0.25 0"/><feBlend in2="BackgroundImageFix" result="effect1_dropShadow_1_3184"/><feBlend in="SourceGraphic" in2="effect1_dropShadow_1_3184" result="shape"/></filter><filter id="c" x="4.064" y="42.263" width="16.11" height="16.11" filterUnits="userSpaceOnUse" color-interpolation-filters="sRGB"><feFlood flood-opacity="0" result="BackgroundImageFix"/><feColorMatrix in="SourceAlpha" values="0 0 0 0 0 0 0 0 0 0 0 0 0 0 0 0 0 0 127 0" result="hardAlpha"/><feOffset dy="1"/><feGaussianBlur stdDeviation="2"/><feColorMatrix values="0 0 0 0 1 0 0 0 0 1 0 0 0 0 1 0 0 0 0.25 0"/><feBlend in2="BackgroundImageFix" result="effect1_dropShadow_1_3184"/><feBlend in="SourceGraphic" in2="effect1_dropShadow_1_3184" result="shape"/></filter><filter id="d" x="90.245" y="3.592" width="16.11" height="16.11" filterUnits="userSpaceOnUse" color-interpolation-filters="sRGB"><feFlood flood-opacity="0" result="BackgroundImageFix"/><feColorMatrix in="SourceAlpha" values="0 0 0 0 0 0 0 0 0 0 0 0 0 0 0 0 0 0 127 0" result="hardAlpha"/><feOffset dy="1"/><feGaussianBlur stdDeviation="2"/><feColorMatrix values="0 0 0 0 1 0 0 0 0 1 0 0 0 0 1 0 0 0 0.25 0"/><feBlend in2="BackgroundImageFix" result="effect1_dropShadow_1_3184"/><feBlend in="SourceGraphic" in2="effect1_dropShadow_1_3184" result="shape"/></filter><filter id="e" x="93.835" y="126.957" width="16.11" height="16.11" filterUnits="userSpaceOnUse" color-interpolation-filters="sRGB"><feFlood flood-opacity="0" result="BackgroundImageFix"/><feColorMatrix in="SourceAlpha" values="0 0 0 0 0 0 0 0 0 0 0 0 0 0 0 0 0 0 127 0" result="hardAlpha"/><feOffset dy="1"/><feGaussianBlur stdDeviation="2"/><feColorMatrix values="0 0 0 0 1 0 0 0 0 1 0 0 0 0 1 0 0 0 0.25 0"/><feBlend in2="BackgroundImageFix" result="effect1_dropShadow_1_3184"/><feBlend in="SourceGraphic" in2="effect1_dropShadow_1_3184" result="shape"/></filter><filter id="f" x="40.028" y="5.962" width="14.345" height="14.345" filterUnits="userSpaceOnUse" color-interpolation-filters="sRGB"><feFlood flood-opacity="0" result="BackgroundImageFix"/><feColorMatrix in="SourceAlpha" values="0 0 0 0 0 0 0 0 0 0 0 0 0 0 0 0 0 0 127 0" result="hardAlpha"/><feOffset dy="1"/><feGaussianBlur stdDeviation="2"/><feColorMatrix values="0 0 0 0 1 0 0 0 0 1 0 0 0 0 1 0 0 0 0.25 0"/><feBlend in2="BackgroundImageFix" result="effect1_dropShadow_1_3184"/><feBlend in="SourceGraphic" in2="effect1_dropShadow_1_3184" result="shape"/></filter><filter id="g" x="5.551" y="93.363" width="16.11" height="16.11" filterUnits="userSpaceOnUse" color-interpolation-filters="sRGB"><feFlood flood-opacity="0" result="BackgroundImageFix"/><feColorMatrix in="SourceAlpha" values="0 0 0 0 0 0 0 0 0 0 0 0 0 0 0 0 0 0 127 0" result="hardAlpha"/><feOffset dy="1"/><feGaussianBlur stdDeviation="2"/><feColorMatrix values="0 0 0 0 1 0 0 0 0 1 0 0 0 0 1 0 0 0 0.25 0"/><feBlend in2="BackgroundImageFix" result="effect1_dropShadow_1_3184"/><feBlend in="SourceGraphic" in2="effect1_dropShadow_1_3184" result="shape"/></filter><filter id="h" x="127.429" y="38.673" width="16.11" height="16.11" filterUnits="userSpaceOnUse" color-interpolation-filters="sRGB"><feFlood flood-opacity="0" result="BackgroundImageFix"/><feColorMatrix in="SourceAlpha" values="0 0 0 0 0 0 0 0 0 0 0 0 0 0 0 0 0 0 127 0" result="hardAlpha"/><feOffset dy="1"/><feGaussianBlur stdDeviation="2"/><feColorMatrix values="0 0 0 0 1 0 0 0 0 1 0 0 0 0 1 0 0 0 0.25 0"/><feBlend in2="BackgroundImageFix" result="effect1_dropShadow_1_3184"/><feBlend in="SourceGraphic" in2="effect1_dropShadow_1_3184" result="shape"/></filter></defs></svg>