<svg width="41" height="40" fill="none" xmlns="http://www.w3.org/2000/svg"><path fill-rule="evenodd" clip-rule="evenodd" d="M20.6 38.4C30.762 38.4 39 30.162 39 20 39 9.838 30.762 1.6 20.6 1.6 10.438 1.6 2.2 9.838 2.2 20c0 10.162 8.238 18.4 18.4 18.4Zm0 1.6c11.046 0 20-8.954 20-20s-8.954-20-20-20S.6 8.954.6 20s8.954 20 20 20Z" fill="#A5F018"/><path fill-rule="evenodd" clip-rule="evenodd" d="M33.919 27.113C37.282 25.096 39 22.531 39 20c0-2.53-1.718-5.095-5.081-7.113C30.588 10.888 25.883 9.6 20.6 9.6c-5.283 0-9.988 1.288-13.319 3.287C3.918 14.905 2.2 17.469 2.2 20c0 2.53 1.718 5.096 5.081 7.113C10.612 29.112 15.317 30.4 20.6 30.4c5.283 0 9.988-1.288 13.319-3.287ZM20.6 32c11.046 0 20-5.373 20-12s-8.954-12-20-12-20 5.373-20 12 8.954 12 20 12Z" fill="#A5F018"/><path fill-rule="evenodd" clip-rule="evenodd" d="M27.713 6.681C25.695 3.318 23.131 1.6 20.6 1.6c-2.53 0-5.096 1.718-7.113 5.081C11.488 10.012 10.2 14.717 10.2 20c0 5.283 1.288 9.988 3.287 13.319 2.017 3.363 4.582 5.081 7.113 5.081 2.53 0 5.095-1.718 7.113-5.081C29.712 29.988 31 25.283 31 20c0-5.283-1.288-9.988-3.287-13.319ZM32.6 20c0-11.046-5.373-20-12-20s-12 8.954-12 20 5.373 20 12 20 12-8.954 12-20Z" fill="#A5F018"/></svg>