<svg width="37" height="40" fill="none" xmlns="http://www.w3.org/2000/svg"><path fill-rule="evenodd" clip-rule="evenodd" d="M33.869 27.103c.532-4.261-.49-9.28-3.308-13.989-2.817-4.708-6.811-8.072-10.902-9.758-4.09-1.686-8.134-1.656-11.34.13-3.206 1.786-5.255 5.15-5.787 9.411-.532 4.261.49 9.28 3.307 13.989 2.818 4.708 6.812 8.072 10.902 9.758 4.09 1.686 8.135 1.656 11.34-.13 3.206-1.786 5.256-5.15 5.788-9.411Zm-4.69 11.246c7.877-4.388 9.347-16.16 3.284-26.294C26.399 1.92 15.098-2.737 7.22 1.65-.656 6.04-2.126 17.811 3.938 27.945 10 38.08 21.302 42.737 29.179 38.35Z" fill="#A5F018"/><path fill-rule="evenodd" clip-rule="evenodd" d="M2.531 27.103c-.532-4.261.49-9.28 3.308-13.989 2.817-4.708 6.811-8.072 10.902-9.758 4.09-1.686 8.134-1.656 11.34.13 3.206 1.786 5.255 5.15 5.787 9.411.532 4.261-.49 9.28-3.307 13.989-2.818 4.708-6.812 8.072-10.902 9.758-4.09 1.686-8.135 1.656-11.34-.13-3.206-1.786-5.256-5.15-5.788-9.411Zm4.69 11.246c-7.877-4.388-9.347-16.16-3.284-26.294C10.001 1.92 21.302-2.737 29.18 1.65c7.877 4.388 9.347 16.16 3.283 26.294C26.4 38.08 15.097 42.737 7.221 38.35Z" fill="#A5F018"/><circle cx="18.2" cy="20" r="3" fill="#A5F018"/></svg>