<svg width="44" height="37" fill="none" xmlns="http://www.w3.org/2000/svg"><path fill-rule="evenodd" clip-rule="evenodd" d="M20.486.014c-3.57.202-6.876 1.372-9.757 3.453a17.375 17.375 0 0 0-2.166 1.857 17.505 17.505 0 0 0-2.258 2.723l-.175.261h.649l.247-.346a17.914 17.914 0 0 1 2.28-2.611c.467-.443 1.296-1.142 1.353-1.142.012 0 .154.093.316.206.377.264.77.512 1.214.765.194.11.363.21.374.22.012.01-.146.212-.351.45-.604.701-1.92 2.373-1.92 2.44 0 .01.146.018.325.018h.324l.253-.333c.509-.672 1.43-1.793 1.813-2.207l.095-.103.34.16a18.39 18.39 0 0 0 2.333.884c.212.065.391.123.398.13.007.006-.07.196-.172.421-.165.367-.43 1.006-.43 1.036 0 .007.13.012.287.012h.287l.106-.26c.093-.23.458-1.05.475-1.068.003-.004.175.03.38.076a19.01 19.01 0 0 0 3.078.427c.28.015.588.033.685.04l.176.013v.772h.536v-.771l.407-.016c1.337-.051 2.483-.185 3.554-.415.152-.033.289-.06.305-.06.016 0 .06.07.097.152.09.198.442 1.013.462 1.068.013.037.05.042.307.042h.293l-.051-.127-.095-.238c-.024-.06-.134-.315-.243-.565-.11-.25-.195-.46-.188-.468.007-.006.164-.055.35-.108.894-.254 2.09-.695 2.666-.983l.114-.058.333.382a40.634 40.634 0 0 1 1.457 1.806l.268.357h.334c.184.002.335-.003.335-.008a39.315 39.315 0 0 0-2.127-2.675l-.09-.103.125-.067c.644-.349 1.204-.69 1.7-1.038.162-.113.305-.206.317-.206.012 0 .141.095.286.21a18.104 18.104 0 0 1 3.462 3.701l.131.188h.649l-.065-.103A18.29 18.29 0 0 0 25.717.5a18.197 18.197 0 0 0-2.843-.452 26.128 26.128 0 0 0-2.388-.034Zm2.165.559c.815.057 1.721.184 2.5.351.563.121.537.097.296.273-.807.587-1.927.984-3.173 1.125a12.06 12.06 0 0 1-1.69-.002c-1.267-.141-2.445-.57-3.233-1.174-.156-.12-.182-.104.367-.221a17.985 17.985 0 0 1 4.933-.352Zm-5.857.817c.123.104.26.214.305.245l.08.056-.603.406c-1.497 1.005-2.548 1.834-3.352 2.644-.134.134-.25.244-.259.244-.022 0-.43-.225-.74-.407-.27-.16-1.106-.705-1.106-.722 0-.018.622-.434 1.002-.67a17.427 17.427 0 0 1 3.852-1.79 104.78 104.78 0 0 0 .59-.192c.003-.001.107.082.23.186Zm9.92-.055a17.681 17.681 0 0 1 4.739 2.308c.163.112.298.209.298.214 0 .016-.819.552-1.084.71-.135.08-.408.235-.608.344l-.364.198-.22-.228c-.809-.844-1.978-1.78-3.442-2.756a23.853 23.853 0 0 1-.47-.317c-.01-.01.066-.078.17-.152.105-.073.273-.205.373-.292.135-.117.195-.155.231-.145l.377.116Zm-8.465.941c.141.06.344.14.45.176.106.037.197.07.202.074a1.37 1.37 0 0 1-.136.196 38.551 38.551 0 0 0-1.721 2.52c-.102.169-.28.483-.396.698l-.213.397a19.003 19.003 0 0 1-1.934-.642 19.602 19.602 0 0 1-.997-.435c-.017-.015.449-.476.753-.745.72-.634 1.6-1.29 2.807-2.093l.63-.419.15.082c.081.046.264.132.405.191Zm7.156.078c1.472.966 2.744 1.956 3.534 2.75l.242.243-.193.089c-.352.16-.96.397-1.431.558-.483.164-1.278.398-1.354.398-.032 0-.093-.093-.218-.33-.412-.78-1.15-1.928-1.898-2.952a9.09 9.09 0 0 1-.361-.513 6.11 6.11 0 0 1 .288-.097c.294-.095.563-.201.827-.326a2.55 2.55 0 0 1 .166-.075c.005 0 .184.115.398.255Zm-5.503.41c.18.032.465.072.633.087.167.015.35.033.407.04l.103.011v4.08l-.456-.016a18.733 18.733 0 0 1-2.402-.249c-.375-.063-1.185-.226-1.202-.242-.012-.011.33-.636.516-.944a34.934 34.934 0 0 1 1.644-2.408c.272-.365.34-.442.38-.432.027.007.196.04.377.072Zm3.367.151c.259.331.898 1.234 1.267 1.79.413.623.68 1.063.923 1.521.142.269.157.31.119.32a19.87 19.87 0 0 1-3.7.434l-.297.009V2.908l.418-.029c.38-.026 1.063-.114 1.089-.14.02-.02.047.005.18.176Zm11.498 6.96c-4.119.209-6.82 2.202-7.676 5.665-.197.796-.277 1.459-.296 2.433-.028 1.462.144 2.6.567 3.747.12.323.461 1.009.648 1.3 1.27 1.984 3.414 3.163 6.259 3.444.504.05 1.673.056 2.153.013 2.27-.207 4.041-.932 5.337-2.186.39-.376.64-.673.913-1.079.812-1.208 1.234-2.619 1.315-4.39.093-2.017-.32-3.859-1.18-5.278-1.267-2.09-3.506-3.362-6.397-3.636a21.11 21.11 0 0 0-1.642-.032Zm-18.016.06c-1.575.066-2.901.5-3.893 1.272a5.338 5.338 0 0 0-.798.818c-.778 1.037-1.094 2.544-.819 3.899.28 1.37 1.261 2.558 2.777 3.358.69.363 1.096.5 4.4 1.48 1.656.492 2.194.677 2.633.902.278.143.408.267.408.389 0 .076-.02.108-.13.216-.217.208-.618.369-1.16.464-.337.06-1.412.059-1.8-.001a6.064 6.064 0 0 1-1.946-.627c-.743-.388-1.332-.888-1.778-1.512l-.209-.291-1.586-.006-1.585-.007v5.87h3.552v-.608c0-.335.008-.605.018-.6.01.004.139.08.286.168 1.286.768 2.761 1.26 4.148 1.381.365.033 1.306.019 1.667-.024 2.436-.29 4.15-1.281 4.932-2.851.299-.6.446-1.216.473-1.977.03-.841-.12-1.548-.481-2.255-.478-.936-1.263-1.689-2.427-2.328-.693-.381-1.2-.569-2.681-.996-3.699-1.064-3.853-1.111-4.198-1.275-.245-.116-.482-.31-.536-.44-.073-.172-.033-.316.129-.472.276-.265.922-.41 1.663-.372 1.13.057 2.005.278 2.904.734.742.376 1.463.95 1.803 1.433l.122.173h1.588l1.587.001v-5.506H22.41l-.007.495-.006.495-.195-.12a8.6 8.6 0 0 0-.985-.5c-1.408-.591-2.877-.848-4.465-.78ZM0 12.019v1.94h2.336v8.344H0v3.88h10.194v-3.88H7.86v-8.344h2.335v-3.88H0v1.94Zm36.288 1.927c.384.078.635.203.89.443.463.435.75 1.207.873 2.347.11 1 .07 2.662-.085 3.56-.199 1.163-.613 1.822-1.29 2.056-.364.126-.94.177-1.606.143-.727-.037-1.172-.211-1.51-.59-.576-.645-.818-1.915-.78-4.09.016-.86.038-1.19.116-1.729.152-1.05.463-1.642 1.012-1.927.287-.15.55-.21 1.103-.258.231-.02 1.11.01 1.277.045ZM6.155 28.04c0 .008.095.153.212.322 2.733 3.974 6.848 6.69 11.54 7.616 1.084.215 2.008.312 3.187.335 2.945.058 5.73-.56 8.382-1.86a18.31 18.31 0 0 0 6.21-4.99c.383-.479 1.028-1.372 1.028-1.424a1.85 1.85 0 0 0-.317-.013h-.317l-.078.113c-.163.235-.744 1-.919 1.21a18.31 18.31 0 0 1-2.448 2.435l-.326.267-.212-.153a16.598 16.598 0 0 0-1.72-1.08l-.309-.168.167-.19a38.29 38.29 0 0 0 1.914-2.404c.014-.024-.056-.03-.318-.03l-.336.002-.195.26c-.409.545-1.273 1.6-1.655 2.022l-.083.091-.299-.135a18.445 18.445 0 0 0-2.39-.87 4.593 4.593 0 0 1-.435-.135c-.012-.01.055-.192.15-.403.181-.407.345-.797.345-.819 0-.007-.13-.013-.288-.013h-.288l-.142.333c-.22.513-.35.786-.37.774a19.6 19.6 0 0 0-3.704-.473l-.548-.016-.007-.31-.007-.308h-.532l-.007.309-.007.31-.438.016c-1.19.047-2.548.227-3.625.482a2.65 2.65 0 0 1-.22.047c-.025 0-.271-.52-.455-.958l-.08-.194-.297-.007-.296-.007.13.31c.07.17.197.461.28.646.084.185.143.345.131.354a5.33 5.33 0 0 1-.446.145c-.739.22-1.644.566-2.323.886l-.292.138-.12-.13c-.366-.392-1.156-1.351-1.69-2.05l-.226-.297h-.678l.297.394c.55.73 1.179 1.508 1.654 2.048.223.252.27.323.22.323-.086 0-1.485.874-1.88 1.174l-.11.084-.221-.174a17.978 17.978 0 0 1-3.284-3.473L6.8 28.03l-.322-.002a1.82 1.82 0 0 0-.323.013Zm14.884 3.193-.006 2.044-.121.006a10.844 10.844 0 0 0-1.427.2c-.045 0-1.088-1.453-1.55-2.159-.46-.704-.978-1.607-.935-1.632.032-.02.828-.181 1.211-.245a19.928 19.928 0 0 1 2.573-.253l.262-.004-.006 2.043Zm1.904-1.995c.416.034.918.09 1.326.149.3.043 1.147.194 1.296.231.054.014.051.023-.112.333-.41.78-1.133 1.887-1.983 3.03-.29.39-.347.455-.39.443a10.174 10.174 0 0 0-1.323-.15l-.176-.014v-4.078l.529.016c.29.009.666.027.833.04Zm3.504.595c.437.117 1.09.327 1.548.498.453.17 1.122.448 1.159.482.029.027-.73.756-1.138 1.095a31.747 31.747 0 0 1-2.805 2.035l-.202.128-.26-.122a7.722 7.722 0 0 0-.638-.25c-.207-.07-.38-.13-.384-.133a5.582 5.582 0 0 1 .257-.365c.878-1.194 1.653-2.4 2.05-3.187.066-.133.135-.242.151-.242.017 0 .135.028.262.061Zm-9.841.32c.439.834 1.205 2.01 2.022 3.106.152.203.276.374.276.38a.534.534 0 0 1-.127.051c-.21.068-.631.243-.863.359-.176.088-.225.104-.264.082a28.039 28.039 0 0 1-.558-.365c-1.355-.9-2.366-1.669-3.153-2.4-.41-.38-.451-.424-.421-.454.038-.038.598-.284 1.08-.474.568-.223 1.675-.586 1.804-.592.028 0 .092.096.204.308Zm13.42 1.09c.535.286 1.244.724 1.709 1.059l.118.084-.143.105a19.45 19.45 0 0 1-1.845 1.155c-.898.492-1.858.905-2.918 1.256l-.534.177-.172-.158a7.07 7.07 0 0 0-.432-.353l-.26-.195.491-.33c1.498-1.01 2.75-2.01 3.425-2.74.113-.122.216-.221.231-.221.015 0 .163.072.33.16Zm-16.623.354c.571.558 1.225 1.1 2.08 1.72.401.29 1.293.901 1.53 1.047.09.056.163.107.163.113a.762.762 0 0 1-.128.1c-.07.05-.231.182-.36.295l-.233.205-.533-.176a17.429 17.429 0 0 1-3.927-1.85c-.35-.221-.94-.624-.958-.655-.015-.024.544-.41.99-.683.316-.194.913-.534.938-.534.006 0 .203.188.438.418Zm8.932 2.265c1.027.111 2.047.442 2.808.91.222.137.622.433.622.46 0 .023-.513.144-1.01.238a17.677 17.677 0 0 1-5.838.133c-.65-.092-1.814-.33-1.812-.37.001-.025.283-.241.5-.383 1.242-.81 2.995-1.177 4.73-.988Z" fill="#5472D3"/></svg>