<svg width="102" height="41" viewBox="0 0 102 41" fill="none" xmlns="http://www.w3.org/2000/svg">
<path fill-rule="evenodd" clip-rule="evenodd" d="M10.7332 0.0146503C10.6104 0.0348238 10.2087 0.0923433 9.84041 0.14261C7.09663 0.516987 4.17161 2.17955 2.45452 4.3407C0.393892 6.93425 -0.237215 10.3344 0.736095 13.599C0.926168 14.2366 2.24802 17.6554 2.42149 17.9581C2.63022 18.3223 2.69816 18.0375 2.69816 16.7983C2.69816 9.78663 6.36285 4.52068 12.877 2.17163C14.305 1.65671 16.379 1.21564 17.9903 1.08426C18.4369 1.04783 18.6737 0.994482 18.6525 0.935129C18.596 0.776575 13.5296 0.0591654 12.1616 0.0160675C11.4988 -0.00477292 10.8559 -0.00543982 10.7332 0.0146503ZM17.8308 2.60028C14.4623 3.08594 11.5395 4.46941 9.12725 6.71984C7.19813 8.5197 5.91985 10.545 5.15509 13.0135C4.70995 14.4504 4.62041 15.1277 4.61898 17.0704C4.61827 18.0639 4.63773 18.8953 4.66228 18.9181C4.68683 18.941 5.04841 18.8063 5.46578 18.6188C5.88316 18.4313 6.64648 18.1386 7.16207 17.9684L8.09949 17.6588L8.1535 16.4616C8.39116 11.1896 12.4811 6.84647 18.0865 5.91373C19.288 5.71383 21.2443 5.73484 22.4008 5.96008C26.1131 6.68308 29.1138 8.79304 30.8071 11.8712C31.7296 13.5481 32.1055 15.0426 32.1007 17.0148C32.0939 19.7931 31.1484 22.1418 29.1589 24.3226L28.4999 25.0449L28.8723 25.6564C29.0771 25.9928 29.4314 26.6889 29.6597 27.2033L30.0748 28.1386L30.7 27.6058C33.0069 25.6398 34.6861 22.8549 35.3766 19.8491C35.5213 19.2192 35.5796 18.608 35.6147 17.3483C35.6556 15.8842 35.6373 15.549 35.4648 14.5973C35.0808 12.4793 34.1212 10.2972 32.8067 8.55363C32.0759 7.58438 30.238 5.85438 29.2281 5.18515C27.1549 3.81127 24.8213 2.93606 22.3279 2.59719C21.1635 2.43897 18.939 2.44047 17.8308 2.60028ZM53.9094 23.2315C52.212 23.2315 50.6746 22.8632 49.2975 22.1265C47.9363 21.3739 46.8633 20.341 46.0787 19.0279C45.31 17.7147 44.9257 16.2335 44.9257 14.584C44.9257 12.9346 45.318 11.4533 46.1027 10.1402C46.8874 8.82705 47.9603 7.80217 49.3215 7.06553C50.6987 6.31288 52.236 5.93656 53.9335 5.93656C55.3106 5.93656 56.5677 6.17676 57.7047 6.65718C58.8417 7.1376 59.8025 7.8342 60.5872 8.74699L58.5695 10.6446C57.3524 9.33149 55.8551 8.67492 54.0776 8.67492C52.9246 8.67492 51.8917 8.93114 50.9789 9.44359C50.0661 9.94002 49.3535 10.6366 48.8411 11.5334C48.3286 12.4302 48.0724 13.447 48.0724 14.584C48.0724 15.721 48.3286 16.7379 48.8411 17.6347C49.3535 18.5314 50.0661 19.236 50.9789 19.7485C51.8917 20.2449 52.9246 20.4931 54.0776 20.4931C55.8551 20.4931 57.3524 19.8286 58.5695 18.4994L60.5872 20.4211C59.8025 21.3339 58.8337 22.0305 57.6807 22.5109C56.5437 22.9913 55.2866 23.2315 53.9094 23.2315ZM70.4973 6.17676C71.9545 6.17676 73.2196 6.41697 74.2925 6.89739C75.3815 7.3778 76.2142 8.0664 76.7907 8.96317C77.3672 9.85995 77.6555 10.9249 77.6555 12.1579C77.6555 13.375 77.3672 14.4399 76.7907 15.3527C76.2142 16.2495 75.3815 16.9381 74.2925 17.4185C73.2196 17.8989 71.9545 18.1391 70.4973 18.1391H66.702V22.9913H63.5793V6.17676H70.4973ZM70.3531 15.4968C71.7143 15.4968 72.7472 15.2086 73.4518 14.6321C74.1564 14.0556 74.5087 13.2309 74.5087 12.1579C74.5087 11.085 74.1564 10.2603 73.4518 9.6838C72.7472 9.1073 71.7143 8.81905 70.3531 8.81905H66.702V15.4968H70.3531ZM86.2209 23.2315C84.9238 23.2315 83.6667 23.0473 82.4497 22.679C81.2486 22.3107 80.2958 21.8223 79.5912 21.2138L80.6721 18.7877C81.3607 19.3321 82.2014 19.7805 83.1943 20.1328C84.2032 20.4691 85.2121 20.6373 86.2209 20.6373C87.47 20.6373 88.3988 20.4371 89.0073 20.0367C89.6319 19.6364 89.9441 19.1079 89.9441 18.4514C89.9441 17.971 89.768 17.5786 89.4157 17.2744C89.0794 16.9541 88.647 16.7059 88.1186 16.5297C87.5901 16.3536 86.8695 16.1534 85.9567 15.9292C84.6756 15.6249 83.6347 15.3207 82.834 15.0164C82.0493 14.7121 81.3687 14.2397 80.7922 13.5992C80.2317 12.9426 79.9515 12.0619 79.9515 10.9569C79.9515 10.0281 80.1997 9.18737 80.6961 8.43472C81.2086 7.66605 81.9692 7.05753 82.9781 6.60914C84.003 6.16075 85.2521 5.93656 86.7254 5.93656C87.7502 5.93656 88.7591 6.06467 89.752 6.32089C90.7448 6.57711 91.6016 6.94543 92.3222 7.42584L91.3373 9.85194C90.6007 9.41957 89.832 9.09128 89.0313 8.86709C88.2307 8.6429 87.454 8.5308 86.7013 8.5308C85.4683 8.5308 84.5475 8.73898 83.9389 9.15534C83.3464 9.5717 83.0502 10.1242 83.0502 10.8128C83.0502 11.2932 83.2183 11.6855 83.5546 11.9898C83.9069 12.2941 84.3473 12.5343 84.8758 12.7104C85.4042 12.8866 86.1248 13.0867 87.0376 13.3109C88.2867 13.5992 89.3116 13.9034 90.1123 14.2237C90.913 14.528 91.5936 15.0004 92.154 15.6409C92.7306 16.2815 93.0188 17.1462 93.0188 18.2352C93.0188 19.164 92.7626 20.0047 92.2501 20.7574C91.7537 21.51 90.993 22.1105 89.9682 22.5589C88.9433 23.0073 87.6942 23.2315 86.2209 23.2315ZM0 33.0388H3.07466V40.8353H5.29829V33.0388H8.37295V31.227H0V33.0388ZM17.0089 40.8353V39.0509H11.7793V36.8273H16.2403V35.0978H11.7793V33.0114H16.8305V31.227H9.56938V40.8353H17.0089ZM20.6868 40.3686C21.4829 40.7895 22.3705 41 23.3497 41C24.1824 41 24.9373 40.8536 25.6145 40.5608C26.2916 40.2679 26.859 39.8424 27.3165 39.2842L25.889 37.9665C25.2393 38.726 24.434 39.1058 23.4732 39.1058C22.8784 39.1058 22.3477 38.9777 21.881 38.7215C21.4143 38.4561 21.0483 38.0901 20.7829 37.6234C20.5267 37.1567 20.3986 36.6259 20.3986 36.0311C20.3986 35.4363 20.5267 34.9056 20.7829 34.4389C21.0483 33.9722 21.4143 33.6108 21.881 33.3545C22.3477 33.0892 22.8784 32.9565 23.4732 32.9565C24.434 32.9565 25.2393 33.3317 25.889 34.082L27.3165 32.7643C26.859 32.2153 26.2916 31.7943 25.6145 31.5015C24.9465 31.2087 24.1961 31.0623 23.3634 31.0623C22.3751 31.0623 21.4829 31.2773 20.6868 31.7074C19.8998 32.1283 19.2776 32.7186 18.82 33.4781C18.3717 34.2284 18.1475 35.0795 18.1475 36.0311C18.1475 36.9828 18.3717 37.8384 18.82 38.5979C19.2776 39.3483 19.8998 39.9385 20.6868 40.3686ZM35.4067 40.8353H37.6303V31.227H35.4067V35.0154H31.0418V31.227H28.8182V40.8353H31.0418V36.8959H35.4067V40.8353ZM46.8902 40.8353H48.7158V31.227H46.5196V37.0606L41.7429 31.227H39.9036V40.8353H42.0998V35.0017L46.8902 40.8353ZM52.9382 40.3549C53.7435 40.785 54.6448 41 55.6423 41C56.6397 41 57.5365 40.785 58.3326 40.3549C59.1287 39.9248 59.7555 39.3346 60.2131 38.5842C60.6706 37.8247 60.8994 36.9737 60.8994 36.0311C60.8994 35.0886 60.6706 34.2422 60.2131 33.4918C59.7555 32.7323 59.1287 32.1375 58.3326 31.7074C57.5365 31.2773 56.6397 31.0623 55.6423 31.0623C54.6448 31.0623 53.7435 31.2773 52.9382 31.7074C52.1421 32.1375 51.5153 32.7323 51.0577 33.4918C50.6093 34.2422 50.3851 35.0886 50.3851 36.0311C50.3851 36.9737 50.6093 37.8247 51.0577 38.5842C51.5153 39.3346 52.1421 39.9248 52.9382 40.3549ZM57.1796 38.7215C56.722 38.9777 56.2096 39.1058 55.6423 39.1058C55.0749 39.1058 54.5625 38.9777 54.1049 38.7215C53.6474 38.4561 53.2859 38.0901 53.0206 37.6234C52.7643 37.1567 52.6362 36.6259 52.6362 36.0311C52.6362 35.4363 52.7643 34.9056 53.0206 34.4389C53.2859 33.9722 53.6474 33.6108 54.1049 33.3545C54.5625 33.0892 55.0749 32.9565 55.6423 32.9565C56.2096 32.9565 56.722 33.0892 57.1796 33.3545C57.6371 33.6108 57.994 33.9722 58.2502 34.4389C58.5156 34.9056 58.6483 35.4363 58.6483 36.0311C58.6483 36.6259 58.5156 37.1567 58.2502 37.6234C57.994 38.0901 57.6371 38.4561 57.1796 38.7215ZM64.7942 31.227H62.5705V40.8353H69.612V39.0234H64.7942V31.227ZM72.6427 40.3549C73.448 40.785 74.3493 41 75.3468 41C76.3442 41 77.241 40.785 78.0371 40.3549C78.8332 39.9248 79.4601 39.3346 79.9176 38.5842C80.3751 37.8247 80.6039 36.9737 80.6039 36.0311C80.6039 35.0886 80.3751 34.2422 79.9176 33.4918C79.4601 32.7323 78.8332 32.1375 78.0371 31.7074C77.241 31.2773 76.3442 31.0623 75.3468 31.0623C74.3493 31.0623 73.448 31.2773 72.6427 31.7074C71.8466 32.1375 71.2198 32.7323 70.7623 33.4918C70.3139 34.2422 70.0897 35.0886 70.0897 36.0311C70.0897 36.9737 70.3139 37.8247 70.7623 38.5842C71.2198 39.3346 71.8466 39.9248 72.6427 40.3549ZM76.8841 38.7215C76.4266 38.9777 75.9141 39.1058 75.3468 39.1058C74.7794 39.1058 74.267 38.9777 73.8095 38.7215C73.3519 38.4561 72.9905 38.0901 72.7251 37.6234C72.4689 37.1567 72.3408 36.6259 72.3408 36.0311C72.3408 35.4363 72.4689 34.9056 72.7251 34.4389C72.9905 33.9722 73.3519 33.6108 73.8095 33.3545C74.267 33.0892 74.7794 32.9565 75.3468 32.9565C75.9141 32.9565 76.4266 33.0892 76.8841 33.3545C77.3417 33.6108 77.6985 33.9722 77.9548 34.4389C78.2201 34.9056 78.3528 35.4363 78.3528 36.0311C78.3528 36.6259 78.2201 37.1567 77.9548 37.6234C77.6985 38.0901 77.3417 38.4561 76.8841 38.7215ZM90.799 35.8801H88.7675V38.694C88.2551 38.9685 87.6786 39.1058 87.038 39.1058C86.4341 39.1058 85.8942 38.9777 85.4184 38.7215C84.9517 38.4561 84.5856 38.0901 84.3203 37.6234C84.0549 37.1567 83.9222 36.6259 83.9222 36.0311C83.9222 35.4272 84.0549 34.8919 84.3203 34.4252C84.5856 33.9585 84.9562 33.597 85.4321 33.3408C85.9079 33.0846 86.4524 32.9565 87.0655 32.9565C88.0355 32.9565 88.8636 33.3179 89.5499 34.0408L90.9774 32.7231C90.5107 32.1832 89.9342 31.7715 89.2479 31.4878C88.5616 31.2041 87.7975 31.0623 86.9557 31.0623C85.9491 31.0623 85.0432 31.2773 84.2379 31.7074C83.4326 32.1283 82.8012 32.7186 82.3437 33.4781C81.8953 34.2284 81.6711 35.0795 81.6711 36.0311C81.6711 36.9828 81.8953 37.8384 82.3437 38.5979C82.8012 39.3483 83.4281 39.9385 84.2242 40.3686C85.0203 40.7895 85.9171 41 86.9145 41C87.61 41 88.3008 40.8948 88.9871 40.6843C89.6734 40.4738 90.2774 40.1719 90.799 39.7784V35.8801ZM97.4766 40.8353V37.4312L101.21 31.227H99.0276L96.4608 35.4958L93.894 31.227H91.5331L95.2529 37.4037V40.8353H97.4766Z" fill="#1D324E"/>
</svg>
