<svg width="201" height="44" fill="none" xmlns="http://www.w3.org/2000/svg"><path fill-rule="evenodd" clip-rule="evenodd" d="M12.334 14.66 31.248.308a1.167 1.167 0 0 1 1.862.395c.1.23.125.485.072.73l-2.887 23.668c-.105 2.213-1.592 2.156-2.214 1.293-.923-2.192-2.891-4.46-5.59-6.253a2.41 2.41 0 0 0 1.176-.23c3.905-2.158 2.32-5.451 2.883-9.217-2.952 2.371-6.582 2.641-6.483 7.123.032.396.16.778.374 1.112l.02.033c-2.874-1.445-5.797-2.02-8.135-1.735-1.06-.104-1.843-1.37.008-2.569Z" fill="#fff"/><path fill-rule="evenodd" clip-rule="evenodd" d="M7.87 20.952C2.72 24.57-.892 29.985.193 31.28c1.319 1.563 1.902-.587 3.703 1.486C5.697 34.84 3.71 40.325 8 43.1c4.535 2.357 8.253-2.118 10.942-1.588 2.69.53 1.132 2.116 3.135 2.478 1.649.302 4.5-5.555 5.04-11.853.398-4.67-1.86-7.973-5.559-10.406.35.833.155 2.52-2.288 6.33-3.41 5.322-6.08 7.433-6.7 7.061-.62-.371-.148-3.738 2.723-9.372 2.058-4.036 3.408-5.05 4.302-5.161-3.937-2-7.909-2.319-11.725.364Z" fill="#fff"/><path d="M48.97 25.955h3.607l2.062-4.89h9.478l2.033 4.89h3.722l-8.82-20.402H57.79l-8.82 20.402Zm6.957-8.045 3.436-8.103 3.465 8.103h-6.9ZM75.6 25.955h3.522V20.08l3.12-3.24 6.844 9.115h4.267l-8.705-11.547 8.333-8.71h-4.324l-9.535 10.186V5.698H75.6v20.257Zm28.829 0h3.551V8.997h6.357v-3.3H98.073v3.3h6.356v16.958Zm17.279 0h3.522V5.698h-3.522v20.257Zm20.484.347c3.751 0 6.042-1.389 8.132-3.588l-2.262-2.315c-1.718 1.62-3.293 2.633-5.755 2.633-3.837 0-6.615-3.241-6.615-7.206 0-4.022 2.778-7.205 6.615-7.205 2.29 0 4.008 1.013 5.612 2.517l2.262-2.633c-1.919-1.852-4.152-3.154-7.846-3.154-6.07 0-10.336 4.717-10.336 10.475 0 5.875 4.352 10.476 10.193 10.476Zm23.129 0c6.156 0 10.509-4.775 10.509-10.476 0-5.758-4.296-10.475-10.452-10.475s-10.508 4.775-10.508 10.475c0 5.76 4.295 10.476 10.451 10.476Zm.057-3.27c-3.98 0-6.815-3.27-6.815-7.206 0-3.993 2.778-7.205 6.758-7.205s6.815 3.27 6.815 7.205c0 3.994-2.778 7.206-6.758 7.206Zm15.852 2.923h3.465v-14.47l6.271 9.492h.114l6.328-9.55v14.528h3.522V5.698h-3.751l-6.099 9.579-6.099-9.58h-3.751v20.258ZM49.395 37.89h2.063c.993 0 1.65-.432 1.65-1.237 0-.624-.364-.927-.886-1.107.331-.174.637-.463.637-1.004 0-.316-.102-.56-.3-.76-.254-.257-.655-.399-1.165-.399h-1.999v4.506Zm.77-2.608v-1.197h1.127c.503 0 .784.219.784.573 0 .425-.338.624-.84.624h-1.07Zm0 1.906v-1.236h1.242c.618 0 .917.225.917.605 0 .418-.325.63-.86.63h-1.299Zm9.524.702h.802l.459-1.089h2.107l.452 1.088h.828l-1.961-4.538h-.726l-1.961 4.538Zm1.547-1.79L62 34.297l.77 1.803h-1.534Zm13.219 1.79v-1.198l.7-.805 1.331 2.002h.942l-1.763-2.588 1.674-1.918h-.936l-1.948 2.343v-2.343h-.777v2.343l-1.948-2.343h-.936l1.668 1.918-1.757 2.588h.942l1.33-2.002.701.805v1.197h.777Zm9.722 0h3.337v-.709H84.96v-1.21h2.234v-.708H84.96V34.09h2.521v-.708h-3.305v4.506Zm10.347 0h.783v-1.9h2.127v1.9h.783v-4.507h-.783v1.873h-2.127v-1.873h-.783v4.506Zm18.908 0h.783v-1.45h.885c.981 0 1.783-.527 1.783-1.538 0-.92-.656-1.519-1.694-1.519h-1.757v4.506Zm.783-2.164v-1.622h.911c.586 0 .961.277.961.805 0 .483-.369.817-.961.817h-.911Zm9.551 2.164h3.336v-.709h-2.553v-1.21h2.235v-.708h-2.235V34.09h2.522v-.708h-3.305v4.506Zm11.862-4.584c-.79 0-1.293.27-1.719.682l.42.515a1.672 1.672 0 0 1 1.248-.502c.497 0 .84.251.84.63 0 .426-.35.657-.917.657h-.496v.657h.503c.579 0 1.019.193 1.019.657 0 .425-.402.676-.873.676a2.043 2.043 0 0 1-1.483-.6l-.427.548c.497.483 1.063.74 1.929.74.994 0 1.637-.572 1.637-1.32 0-.585-.376-.926-.873-1.08.395-.168.758-.47.758-1.05 0-.702-.643-1.21-1.566-1.21Zm9.452 4.654c.579 0 1.038-.29 1.414-1.056l1.738-3.52h-.847l-1.223 2.619-1.388-2.62h-.878l1.859 3.412c-.223.367-.503.489-.701.489-.197 0-.369-.039-.547-.142l-.299.593c.261.141.528.225.872.225Zm9.974-.02c.879 0 1.394-.572 1.394-3.437v-.405h1.541v3.791h.783v-4.506h-3.056v.889c0 2.697-.42 2.986-.872 2.986a.885.885 0 0 1-.255-.038l-.076.65c.121.032.369.07.541.07Zm10.949-.05h1.796c1.032 0 1.681-.567 1.681-1.475 0-.908-.675-1.41-1.675-1.41h-1.025v-1.622h-.777v4.506Zm.777-.709v-1.487h.994c.592 0 .929.251.929.715 0 .508-.337.772-.917.772h-1.006Zm10.696.709h.79v-3.773h1.413v-.734h-3.616v.734h1.413v3.772Zm8.732 0h.803l.458-1.089h2.108l.452 1.088h.828l-1.962-4.538h-.725l-1.962 4.538Zm1.548-1.79.764-1.803.77 1.803h-1.534Zm11.041 1.79h.789v-3.773H201v-.734h-3.617v.734h1.414v3.772Z" fill="#fff"/></svg>