<svg width="44" height="38" fill="none" xmlns="http://www.w3.org/2000/svg"><path d="m35.24 25.291.002-.005a20.41 20.41 0 0 0 1.414-2.806c.446.151.873.22 1.28.22 3.929 0 6.064-6.364 6.064-6.364a14.409 14.409 0 0 0-1.195-.051c-2.183 0-3.713.545-4.783 1.296.192-1.204.295-2.447.308-3.713 4.35-.693 3.248-7.819 3.248-7.819-1.827.761-2.984 1.687-3.701 2.633a25.627 25.627 0 0 0-.615-2.634c1.06-3.785-5.1-6.048-5.1-6.048-.544 4.895 1.963 6.508 3.463 7.032.136.462.6 2.164.791 4.532-1.724-1.936-4.338-3.143-4.338-3.143-1.279 6.603 2.527 8.551 4.102 9.066a19.851 19.851 0 0 1-1.38 4.673c-.6-2.729-2.574-5.273-2.574-5.273-4.246 5.364-1.891 8.95-.648 10.27a20.827 20.827 0 0 1-3.326 2.967c.656-2.931-.527-6.545-.527-6.545-5.54 3.458-4.877 7.415-4.174 9.216-.502.225-1.02.439-1.552.644a31.942 31.942 0 0 1-1.852-.78c.524-1.892.728-5.794-4.977-8.697 0 0-.684 2.923-.195 5.58a20.327 20.327 0 0 1-2.555-2.386c1.243-1.32 3.597-4.905-.648-10.268 0 0-1.974 2.543-2.574 5.27a19.781 19.781 0 0 1-1.379-4.671c1.577-.515 5.38-2.463 4.104-9.066 0 0-2.616 1.207-4.34 3.143.19-2.357.655-4.067.792-4.533 1.5-.524 4.006-2.136 3.462-7.031 0 0-6.166 2.265-5.099 6.053-.098.33-.37 1.291-.615 2.63C5.406 7.738 4.25 6.81 2.422 6.05c0 0-1.102 7.126 3.249 7.82.012 1.265.115 2.508.307 3.712-1.07-.751-2.6-1.296-4.783-1.296-.377 0-.776.016-1.195.05 0 0 2.135 6.365 6.064 6.365.407 0 .834-.069 1.28-.22A20.479 20.479 0 0 0 8.76 25.29a8.317 8.317 0 0 0-2.052-.244c-1.356 0-2.951.287-4.819 1.004 0 0 3.882 5.577 8.057 5.577 1.054 0 2.126-.356 3.16-1.246 1.788 1.532 3.887 2.85 6.29 3.95a47.912 47.912 0 0 1-5.925 1.366l.303 1.807c3.01-.505 5.753-1.208 8.226-2.108 2.474.9 5.217 1.603 8.226 2.108l.303-1.807a47.926 47.926 0 0 1-5.924-1.366c2.402-1.1 4.501-2.418 6.29-3.95 1.032.89 2.105 1.246 3.16 1.246 4.174 0 8.056-5.577 8.056-5.577-1.868-.717-3.463-1.004-4.82-1.004-.755 0-1.438.088-2.051.244Zm3.63-14.688c.191-.474.5-.916.922-1.325-.125 1.012-.402 1.801-.798 2.264-.091.106-.205.22-.366.315.001-.378.061-.81.241-1.254Zm-.74 9.414c.641-.896 1.621-1.477 2.925-1.74-.062.102-.124.201-.189.302-.483.74-.982 1.313-1.484 1.706-.5.392-.973.582-1.446.582a1.8 1.8 0 0 1-.264-.02c.11-.263.259-.55.459-.83ZM34.775 4.298a3.5 3.5 0 0 1-.584-1.09c.682.532 1.133 1.072 1.294 1.566.02.06.038.125.051.197a3.075 3.075 0 0 1-.761-.673Zm1.212 11.12a4.179 4.179 0 0 1-1.487-1.32c-.473-.689-.748-1.544-.826-2.559 1.293.98 2.117 1.999 2.33 2.883.061.246.102.575-.017.995Zm-27.991-.993c.212-.883 1.038-1.906 2.332-2.886-.078 1.014-.353 1.87-.826 2.559a4.18 4.18 0 0 1-1.487 1.32 1.885 1.885 0 0 1-.02-.993Zm.52-9.648c.16-.494.61-1.036 1.294-1.57-.14.42-.335.783-.583 1.09-.235.291-.5.51-.761.674.013-.07.03-.135.05-.194Zm-3.507 6.767c-.397-.46-.674-1.252-.8-2.266a3.9 3.9 0 0 1 .923 1.325c.18.444.24.876.241 1.254a1.431 1.431 0 0 1-.364-.313Zm1.056 9.323c-.473 0-.945-.19-1.446-.582-.503-.393-1-.966-1.484-1.706a21.146 21.146 0 0 1-.19-.302c1.304.263 2.285.844 2.925 1.74.2.28.348.567.46.83-.09.013-.18.02-.265.02Zm3.882 8.928c-1.22 0-2.706-.779-4.296-2.25a16.594 16.594 0 0 1-.531-.518 9.165 9.165 0 0 1 1.59-.147c1.689 0 3.085.557 4.15 1.657.254.263.463.53.63.774-.494.324-1.006.484-1.543.484Zm2.389-6.475a4.448 4.448 0 0 1-.813 2.046 2.07 2.07 0 0 1-.58-1.014c-.236-.955.055-2.353.825-3.938l.03-.062c.472 1.05.653 2.041.538 2.968Zm6.142 8.442a2.15 2.15 0 0 1-.95-.68c-.745-.937-.922-2.536-.887-3.978.863.753 1.44 1.576 1.72 2.463.221.698.26 1.435.117 2.195Zm7.518-.863c-.245.368-.56.607-.89.762a4.538 4.538 0 0 1-.09-2.16c.198-.93.706-1.82 1.52-2.664.163 1.44.126 3.06-.54 4.062Zm5.67-7.579c-.115-.927.066-1.917.539-2.968l.001.003c.79 1.606 1.092 3.024.853 3.994-.07.284-.207.65-.58 1.017a4.449 4.449 0 0 1-.813-2.046Zm6.732 4.18c-.755.705-1.497 1.261-2.205 1.65-.779.427-1.497.645-2.138.645-.537 0-1.049-.16-1.543-.484.167-.244.375-.511.63-.774 1.065-1.1 2.461-1.656 4.15-1.656a9.16 9.16 0 0 1 1.59.146c-.153.157-.315.316-.484.473Z" fill="#5472D3"/></svg>