<svg width="102" height="41" fill="none" xmlns="http://www.w3.org/2000/svg"><path fill-rule="evenodd" clip-rule="evenodd" d="M10.733.015c-.123.02-.524.077-.893.128C7.097.517 4.172 2.18 2.455 4.34.394 6.934-.237 10.334.736 13.599c.19.638 1.512 4.056 1.685 4.36.21.363.277.079.277-1.16 0-7.012 3.665-12.278 10.179-14.627 1.428-.515 3.502-.956 5.113-1.088.447-.036.684-.09.663-.149C18.596.777 13.53.06 12.162.016c-.663-.02-1.306-.021-1.429-.001ZM17.831 2.6c-3.369.486-6.291 1.87-8.704 4.12-1.929 1.8-3.207 3.825-3.972 6.294-.445 1.436-.535 2.114-.536 4.056 0 .994.019 1.825.043 1.848.025.023.386-.112.804-.3.417-.187 1.18-.48 1.696-.65l.937-.31.054-1.196c.238-5.272 4.328-9.616 9.934-10.548 1.201-.2 3.157-.18 4.314.046 3.712.723 6.713 2.833 8.406 5.911.923 1.677 1.299 3.172 1.294 5.144-.007 2.778-.953 5.127-2.942 7.308l-.66.722.373.611c.205.337.56 1.033.788 1.547l.415.936.625-.533c2.307-1.966 3.986-4.751 4.677-7.757.144-.63.203-1.241.238-2.5.04-1.465.022-1.8-.15-2.752-.384-2.118-1.344-4.3-2.658-6.043-.731-.97-2.569-2.7-3.579-3.369a16.421 16.421 0 0 0-6.9-2.588c-1.165-.158-3.389-.157-4.497.003Zm36.078 20.631c-1.697 0-3.234-.368-4.611-1.105a8.43 8.43 0 0 1-3.22-3.098c-.768-1.313-1.152-2.794-1.152-4.444s.392-3.13 1.177-4.444a8.256 8.256 0 0 1 3.218-3.074c1.378-.753 2.915-1.13 4.613-1.13 1.377 0 2.634.24 3.77.721a7.692 7.692 0 0 1 2.883 2.09l-2.018 1.898c-1.217-1.314-2.714-1.97-4.491-1.97-1.153 0-2.186.256-3.1.769a5.368 5.368 0 0 0-2.137 2.09c-.512.896-.769 1.913-.769 3.05 0 1.137.257 2.154.77 3.05a5.535 5.535 0 0 0 2.137 2.114c.913.497 1.946.745 3.099.745 1.777 0 3.274-.664 4.491-1.994l2.018 1.922a7.652 7.652 0 0 1-2.906 2.09c-1.137.48-2.394.72-3.772.72ZM70.497 6.178c1.457 0 2.723.24 3.796.72 1.088.48 1.921 1.17 2.498 2.066.576.897.865 1.962.865 3.195 0 1.217-.289 2.282-.865 3.195-.577.897-1.41 1.585-2.498 2.066-1.073.48-2.339.72-3.796.72h-3.795v4.852h-3.123V6.177h6.918Zm-.144 9.32c1.361 0 2.394-.288 3.099-.865.704-.576 1.057-1.401 1.057-2.474 0-1.073-.353-1.898-1.057-2.474-.705-.577-1.738-.865-3.099-.865h-3.651v6.678h3.651Zm15.868 7.735c-1.297 0-2.554-.185-3.771-.553-1.201-.368-2.154-.857-2.859-1.465l1.081-2.426c.689.544 1.53.992 2.522 1.345a9.521 9.521 0 0 0 3.027.504c1.249 0 2.178-.2 2.786-.6.625-.4.937-.93.937-1.586 0-.48-.176-.872-.528-1.177-.337-.32-.769-.568-1.297-.744a29.222 29.222 0 0 0-2.162-.6c-1.281-.305-2.322-.61-3.123-.914a5.288 5.288 0 0 1-2.042-1.417c-.56-.656-.84-1.537-.84-2.642 0-.929.248-1.77.744-2.522.513-.769 1.273-1.377 2.282-1.826 1.025-.448 2.274-.672 3.747-.672 1.025 0 2.034.128 3.027.384.993.256 1.85.624 2.57 1.105l-.985 2.426a9.715 9.715 0 0 0-2.306-.985 8.625 8.625 0 0 0-2.33-.336c-1.233 0-2.153.208-2.762.624-.593.417-.889.97-.889 1.658 0 .48.168.872.505 1.177.352.304.792.544 1.32.72.53.177 1.25.377 2.163.6 1.249.29 2.274.593 3.074.914a5.06 5.06 0 0 1 2.042 1.417c.577.64.865 1.505.865 2.594a4.38 4.38 0 0 1-.769 2.522c-.496.753-1.257 1.353-2.282 1.802-1.025.448-2.274.672-3.747.672ZM0 33.038h3.075v7.796h2.223V33.04h3.075v-1.812H0v1.812Zm17.009 7.796V39.05h-5.23v-2.224h4.461v-1.73h-4.46V33.01h5.05v-1.784H9.57v9.608h7.439Zm3.678-.466c.796.42 1.683.631 2.663.631.832 0 1.587-.146 2.264-.44a4.45 4.45 0 0 0 1.703-1.276l-1.428-1.317c-.65.759-1.455 1.139-2.416 1.139-.595 0-1.125-.128-1.592-.385a2.877 2.877 0 0 1-1.098-1.098c-.256-.466-.384-.997-.384-1.592 0-.595.128-1.125.384-1.592a2.781 2.781 0 0 1 1.098-1.084c.467-.266.997-.398 1.592-.398.961 0 1.766.375 2.416 1.125l1.428-1.318a4.51 4.51 0 0 0-1.703-1.263c-.668-.292-1.418-.439-2.25-.439-.989 0-1.881.215-2.677.645a4.76 4.76 0 0 0-1.867 1.771c-.448.75-.672 1.602-.672 2.553 0 .952.224 1.807.672 2.567.458.75 1.08 1.34 1.867 1.77Zm14.72.466h2.223v-9.608h-2.223v3.788h-4.365v-3.788h-2.224v9.608h2.224v-3.94h4.365v3.94Zm11.483 0h1.826v-9.608H46.52v5.834l-4.777-5.834h-1.84v9.608H42.1v-5.833l4.79 5.833Zm6.048-.48c.805.43 1.707.645 2.704.645.998 0 1.894-.215 2.69-.645a4.867 4.867 0 0 0 1.881-1.77c.458-.76.686-1.611.686-2.554 0-.942-.228-1.789-.686-2.54a4.835 4.835 0 0 0-1.88-1.784c-.797-.43-1.693-.645-2.69-.645-.998 0-1.9.215-2.705.645a4.835 4.835 0 0 0-1.88 1.785c-.449.75-.673 1.597-.673 2.54 0 .942.224 1.793.673 2.552a4.867 4.867 0 0 0 1.88 1.77Zm4.242-1.633c-.458.256-.97.384-1.538.384-.567 0-1.08-.128-1.537-.385a2.906 2.906 0 0 1-1.084-1.098c-.257-.466-.385-.997-.385-1.592 0-.595.128-1.125.385-1.592a2.807 2.807 0 0 1 1.084-1.084c.458-.266.97-.398 1.537-.398.568 0 1.08.132 1.538.398a2.71 2.71 0 0 1 1.07 1.084c.266.467.398.997.398 1.592 0 .595-.132 1.126-.398 1.592a2.808 2.808 0 0 1-1.07 1.099Zm7.614-7.495h-2.223v9.608h7.041v-1.812h-4.818v-7.796Zm7.849 9.128c.805.43 1.706.645 2.704.645.997 0 1.894-.215 2.69-.645a4.866 4.866 0 0 0 1.88-1.77c.458-.76.687-1.611.687-2.554 0-.942-.229-1.789-.686-2.54a4.834 4.834 0 0 0-1.88-1.784c-.797-.43-1.694-.645-2.691-.645-.998 0-1.899.215-2.704.645a4.834 4.834 0 0 0-1.88 1.785c-.45.75-.673 1.597-.673 2.54 0 .942.224 1.793.672 2.552a4.866 4.866 0 0 0 1.88 1.77Zm4.241-1.633c-.457.256-.97.384-1.537.384a3.08 3.08 0 0 1-1.537-.385 2.906 2.906 0 0 1-1.085-1.098c-.256-.466-.384-.997-.384-1.592 0-.595.128-1.125.384-1.592a2.807 2.807 0 0 1 1.085-1.084 3 3 0 0 1 1.537-.398 3 3 0 0 1 1.537.398c.458.256.814.617 1.07 1.084.266.467.399.997.399 1.592 0 .595-.133 1.126-.398 1.592a2.808 2.808 0 0 1-1.07 1.099ZM90.8 35.88h-2.032v2.814a3.604 3.604 0 0 1-1.729.412c-.604 0-1.144-.128-1.62-.385a2.876 2.876 0 0 1-1.098-1.098c-.265-.466-.398-.997-.398-1.592 0-.604.133-1.14.398-1.606a2.756 2.756 0 0 1 1.112-1.084c.476-.256 1.02-.385 1.633-.385.97 0 1.799.362 2.485 1.085l1.427-1.318a4.542 4.542 0 0 0-1.73-1.235c-.685-.284-1.45-.426-2.291-.426-1.007 0-1.913.215-2.718.645a4.713 4.713 0 0 0-1.894 1.771c-.449.75-.673 1.602-.673 2.553 0 .952.224 1.807.673 2.567a4.866 4.866 0 0 0 1.88 1.77c.796.421 1.693.632 2.69.632.696 0 1.387-.105 2.073-.316a5.805 5.805 0 0 0 1.812-.906V35.88Zm6.678 4.955v-3.404l3.733-6.204h-2.182l-2.567 4.269-2.567-4.269h-2.36l3.719 6.177v3.431h2.224Z" fill="#1D324E"/></svg>