<svg width="172" height="172" fill="none" xmlns="http://www.w3.org/2000/svg"><path d="M5 90.5a5 5 0 1 0 0-10 5 5 0 0 0 0 10Zm20.2 0a5 5 0 1 0 0-10 5 5 0 0 0 0 10Zm0 20.2a5 5 0 1 0 0-10 5 5 0 0 0 0 10Zm0-40.3a5 5 0 1 0 0-10 5 5 0 0 0 0 10Zm20.1 20.1a5 5 0 1 0 0-10 5 5 0 0 0 0 10Zm0 20.2a5 5 0 1 0 0-10 5 5 0 0 0 0 10Zm0 20.1a5 5 0 1 0 0-10 5 5 0 0 0 0 10Zm0-60.4a5 5 0 1 0 0-10 5 5 0 0 0 0 10Zm0-20.1a5 5 0 1 0 0-10 5 5 0 0 0 0 10Zm20.2 40.2a5 5 0 1 0 0-10 5 5 0 0 0 0 10Zm0 20.2a5 5 0 1 0 0-10 5 5 0 0 0 0 10Zm0 20.1a5 5 0 1 0 0-10 5 5 0 0 0 0 10Zm0 20.2a5 5 0 1 0 0-10 5 5 0 0 0 0 10Zm0-80.6a5 5 0 1 0 0-10 5 5 0 0 0 0 10Zm0-40.3a5 5 0 1 0 0-10 5 5 0 0 0 0 10Zm0 20.2a5 5 0 1 0 0-10 5 5 0 0 0 0 10Zm20.1 40.2a5 5 0 1 0 0-10 5 5 0 0 0 0 10Zm0 20.2a5 5 0 1 0 0-10 5 5 0 0 0 0 10Zm0 20.1a5 5 0 1 0 0-10 5 5 0 0 0 0 10Zm0 20.2a5 5 0 1 0 0-10 5 5 0 0 0 0 10Zm0 20.1a5 5 0 1 0 0-10 5 5 0 0 0 0 10Zm0-100.7a5 5 0 1 0 0-10 5 5 0 0 0 0 10Zm0-40.3a5 5 0 1 0 0-10 5 5 0 0 0 0 10Zm0 20.2a5 5 0 1 0 0-10 5 5 0 0 0 0 10Zm0-40.3a5 5 0 1 0 0-10 5 5 0 0 0 0 10Zm80.6 80.5a5 5 0 1 0 0-10 5 5 0 0 0 0 10Zm-20.2 0a5 5 0 1 0 0-10 5 5 0 0 0 0 10Zm0-20.1a5 5 0 1 0 0-10 5 5 0 0 0 0 10Zm0 40.3a5 5 0 1 0-.001-10.001A5 5 0 0 0 146 110.7Zm-20.1-20.2a5 5 0 1 0 0-10 5 5 0 0 0 0 10Zm0-20.1a5 5 0 1 0 0-10 5 5 0 0 0 0 10Zm0-20.1a5 5 0 1 0 0-10 5 5 0 0 0 0 10Zm0 60.4a5 5 0 1 0 0-10 5 5 0 0 0 0 10Zm0 20.1a5 5 0 1 0 0-10 5 5 0 0 0 0 10Zm-20.2-40.3a5 5 0 1 0 0-10 5 5 0 0 0 0 10Zm0-20.1a5 5 0 1 0 0-10 5 5 0 0 0 0 10Zm0-20.1a5 5 0 1 0 0-10 5 5 0 0 0 0 10Zm0-20.2a5 5 0 1 0 0-10 5 5 0 0 0 0 10Zm0 80.6a5 5 0 1 0 0-10 5 5 0 0 0 0 10Zm0 40.3a5 5 0 1 0 0-10 5 5 0 0 0 0 10Zm0-20.2a5 5 0 1 0 0-10 5 5 0 0 0 0 10Z" fill="#fff"/></svg>